<svg width="37" height="37" viewBox="0 0 37 37" fill="none" xmlns="http://www.w3.org/2000/svg">
    <mask id="path-1-inside-1_2103_1580" fill="white">
        <path d="M35.8518 8.97025C36.6348 8.18719 36.6348 6.88209 35.8518 6.13918L31.1534 1.44081C30.4105 0.65775 29.1054 0.65775 28.3223 1.44081L25.3388 4.40808C24.9465 4.79829 24.9456 5.43294 25.3369 5.82422L32.1573 12.6446M0.585297 29.1776C0.397956 29.3651 0.292725 29.6193 0.292725 29.8844V35.9999C0.292725 36.5521 0.74044 36.9999 1.29272 36.9999H7.40769C7.67306 36.9999 7.92755 36.8944 8.11512 36.7066L29.3225 15.4801C29.7128 15.0895 29.7126 14.4566 29.3222 14.0662L23.207 7.95093C22.8163 7.56028 22.1829 7.56042 21.7925 7.95125L0.585297 29.1776Z"/>
    </mask>
    <path d="M35.8518 6.13918L34.4376 7.5534L34.4562 7.572L34.4752 7.59011L35.8518 6.13918ZM31.1534 1.44081L29.7025 2.81733L29.7206 2.83642L29.7392 2.85502L31.1534 1.44081ZM28.3223 1.44081L29.7327 2.85888L29.7365 2.85503L28.3223 1.44081ZM23.207 7.95093L21.7928 9.36514L23.207 7.95093ZM21.7925 7.95125L20.3776 6.53767L21.7925 7.95125ZM8.11512 36.7066L9.52997 38.1202L8.11512 36.7066ZM0.585297 29.1776L-0.829555 27.764L0.585297 29.1776ZM29.3225 15.4801L27.9077 14.0665L29.3225 15.4801ZM29.3222 14.0662L27.908 15.4804L29.3222 14.0662ZM25.3369 5.82422L26.7511 4.41L25.3369 5.82422ZM37.266 10.3845C38.8089 8.84156 38.8639 6.23996 37.2283 4.68826L34.4752 7.59011C34.4667 7.58204 34.4592 7.57307 34.4531 7.5641C34.4472 7.5553 34.4435 7.54784 34.4414 7.54267C34.4375 7.53311 34.4391 7.53216 34.4391 7.53966C34.4391 7.54712 34.4374 7.55389 34.4359 7.55759C34.4351 7.55978 34.4355 7.55808 34.4376 7.55604L37.266 10.3845ZM37.266 4.72497L32.5676 0.0265995L29.7392 2.85502L34.4376 7.5534L37.266 4.72497ZM32.6043 0.0642912C31.0526 -1.57128 28.451 -1.51631 26.9081 0.0265986L29.7365 2.85503C29.7345 2.85706 29.7328 2.85751 29.735 2.85663C29.7387 2.85515 29.7455 2.85352 29.7529 2.85352C29.7604 2.85352 29.7595 2.85511 29.7499 2.8512C29.7447 2.84908 29.7373 2.84541 29.7285 2.83944C29.7195 2.83336 29.7105 2.82584 29.7025 2.81733L32.6043 0.0642912ZM26.912 0.0227503L23.9285 2.99002L26.7492 5.82614L29.7327 2.85887L26.912 0.0227503ZM23.9227 7.23843L30.7431 14.0588L33.5715 11.2304L26.7511 4.41L23.9227 7.23843ZM-1.70728 29.8844V35.9999H2.29272V29.8844H-1.70728ZM1.29272 38.9999H7.40769V34.9999H1.29272V38.9999ZM9.52997 38.1202L30.7374 16.8936L27.9077 14.0665L6.70026 35.2931L9.52997 38.1202ZM30.7364 12.6519L24.6212 6.53671L21.7928 9.36514L27.908 15.4804L30.7364 12.6519ZM20.3776 6.53767L-0.829555 27.764L2.00015 30.5912L23.2073 9.36482L20.3776 6.53767ZM24.6212 6.53671C23.4493 5.36476 21.549 5.3652 20.3776 6.53767L23.2073 9.36482C22.8168 9.75565 22.1834 9.75579 21.7928 9.36514L24.6212 6.53671ZM7.40769 38.9999C8.20381 38.9999 8.96728 38.6834 9.52997 38.1202L6.70026 35.2931C6.88782 35.1053 7.14232 34.9999 7.40769 34.9999V38.9999ZM-1.70728 35.9999C-1.70728 37.6567 -0.364129 38.9999 1.29272 38.9999V34.9999C1.84501 34.9999 2.29272 35.4476 2.29272 35.9999H-1.70728ZM2.29272 29.8844C2.29272 30.1494 2.18749 30.4036 2.00015 30.5912L-0.829555 27.764C-1.39158 28.3265 -1.70728 29.0892 -1.70728 29.8844H2.29272ZM30.7374 16.8936C31.9081 15.7219 31.9076 13.8231 30.7364 12.6519L27.908 15.4804C27.5176 15.09 27.5175 14.4571 27.9077 14.0665L30.7374 16.8936ZM23.9285 2.99002C22.7515 4.16064 22.7489 6.0646 23.9227 7.23843L26.7511 4.41C27.1424 4.80128 27.1415 5.43593 26.7492 5.82614L23.9285 2.99002Z" fill="black" mask="url(#path-1-inside-1_2103_1580)"/>
</svg>
