<svg width="90" height="73" viewBox="0 0 90 73" fill="none" xmlns="http://www.w3.org/2000/svg">
    <defs>
        <clipPath id="clip0_340_3649">
            <rect width="90" height="73" fill="white"/>
        </clipPath>
    </defs>
    <g clip-path="url(#clip0_340_3649)">
        <path d="M76.7135 28.4746C94.3461 38.6619 94.4373 55.1732 76.9208 65.3605C59.4043 75.5478 30.911 75.5478 13.2826 65.3605C-4.34998 55.1732 -4.44121 38.6619 13.0753 28.4746C30.5917 18.2873 59.0809 18.2873 76.7135 28.4746Z" fill="#3680BB"/>
        <path d="M67.4575 30.205C79.9396 37.4171 80.006 49.1107 67.6026 56.3227C55.1993 63.5347 35.0288 63.5347 22.5425 56.3227C10.0604 49.1107 9.994 37.4171 22.3974 30.205C34.8007 22.993 54.9712 22.993 67.4575 30.205Z" fill="#F6C993"/>
        <path d="M67.4576 27.5742C73.5494 31.0433 76.6844 35.5622 76.8544 40.106C77.0328 44.8739 76.9996 55.2604 44.7036 55.2604C12.4076 55.2604 13.4277 45.4715 13.1582 41.0106C12.8637 36.1639 15.9449 31.2715 22.3975 27.5742C34.8008 20.4701 54.9713 20.4701 67.4576 27.5742Z" fill="#5AA549"/>
        <path d="M76.556 37.9813C75.3202 42.9941 69.5975 49.1645 44.6995 49.1645C19.8016 49.1645 14.2655 42.7866 13.4154 37.9772C13.1832 38.9814 13.0961 39.9939 13.1541 41.0064C13.4237 45.4714 12.3994 55.2562 44.6995 55.2562C76.9997 55.2562 77.0329 44.8697 76.8504 40.1018C76.8255 39.3922 76.726 38.6868 76.556 37.9813Z" fill="#46803C"/>
        <path d="M30.7617 35.5331C30.7617 35.5331 42.7172 40.2056 43.5466 40.4463C44.3718 40.6869 53.3374 34.6202 53.3374 34.6202C53.3374 34.6202 53.8267 31.0681 52.931 29.5909C52.0311 28.1136 51.5916 24.242 51.7284 23.2751C51.8653 22.3124 54.2787 11.2164 54.6146 8.80545C54.9505 6.39452 55.3777 5.10399 54.793 4.03754C54.2041 2.97109 48.4855 0.676356 46.4411 0.385883C44.3926 0.0995597 37.8529 -0.431591 37.4631 0.622411C37.0691 1.67226 36.6171 5.78868 36.9116 6.32398C37.206 6.85513 37.4672 7.63111 37.5336 8.00872C37.6041 8.38634 36.6213 14.5195 36.1112 16.4158C35.6011 18.3122 36.3766 19.7729 37.6704 21.0593C38.9643 22.3456 38.5164 22.8975 37.3511 23.3498C36.1817 23.8021 32.1468 29.2132 30.77 35.5331H30.7617Z" fill="#726658"/>
        <path d="M40.8429 8.41541C39.4702 7.91746 38.0935 6.95889 36.978 6.48169C36.978 6.48169 36.978 6.48169 36.978 6.48584C36.9946 6.51489 37.007 6.54393 37.0236 6.57713C37.0236 6.57713 37.0236 6.57713 37.0236 6.58128C37.1314 6.81366 37.2351 7.06679 37.318 7.30331C37.318 7.30331 37.318 7.30746 37.318 7.31161C37.3263 7.34066 37.3387 7.36971 37.347 7.3946C37.347 7.4029 37.3512 7.4112 37.3553 7.4195C37.3636 7.4444 37.3719 7.4693 37.3802 7.49419C37.3802 7.50664 37.3885 7.51494 37.3927 7.52739C37.4009 7.54814 37.4051 7.56889 37.4134 7.58964C37.4134 7.60209 37.4217 7.61453 37.4258 7.62698C37.43 7.64358 37.4383 7.66433 37.4424 7.68093C37.4466 7.69338 37.4507 7.70998 37.4549 7.72242C37.459 7.73902 37.4631 7.75562 37.4673 7.77222C37.4714 7.78882 37.4756 7.80127 37.4797 7.81787C37.4797 7.83031 37.488 7.84691 37.488 7.85936C37.4922 7.87596 37.4963 7.89256 37.5005 7.90916C37.5005 7.91746 37.5046 7.9299 37.5088 7.9382C37.5129 7.9631 37.5171 7.988 37.5254 8.00875C37.5959 8.38636 36.613 14.5195 36.103 16.4159C35.8417 17.3827 35.9164 18.2334 36.2232 19.0094C36.5633 19.0343 36.9075 18.9886 37.2351 18.8475C38.7404 18.196 39.4578 17.4367 39.3707 17.1794C39.2836 16.9221 37.1397 16.4366 37.0982 15.8764C37.0775 15.6191 37.0526 15.0755 37.2185 14.7892C37.4175 14.4448 37.8405 14.3245 38.2759 13.5858C38.8814 12.565 40.1255 10.3906 40.6355 9.19969C40.6811 9.09595 42.5224 9.64784 44.0401 9.79308C44.8114 9.86777 45.7984 9.6105 45.8108 9.569C45.8689 9.39057 42.2196 8.91336 40.8429 8.41126V8.41541Z" fill="#595245"/>
        <path d="M41.4151 11.3533C40.6064 11.0587 41.5105 9.1333 41.5105 9.1333C41.5105 9.1333 44.3884 9.41547 45.1846 9.56901C45.9808 9.72255 46.3209 10.2205 46.0886 10.7185C45.8564 11.2164 43.8576 11.4405 43.1112 11.4986C42.3647 11.5567 41.9583 11.5525 41.4109 11.3533H41.4151Z" fill="#595245"/>
        <path d="M52.9268 29.5908C52.0269 28.1135 51.5873 24.2419 51.7242 23.2751C51.861 22.3124 54.2745 11.2163 54.6104 8.80538C54.9463 6.39446 55.3734 5.10393 54.7887 4.03748C54.7473 3.96279 54.6809 3.87979 54.5897 3.7885C52.172 4.91305 48.0542 3.24075 47.3492 3.67231C46.6111 4.12047 46.3249 7.46091 46.8018 8.88008C47.2787 10.2992 50.6418 9.23279 50.6377 10.5856C50.6335 11.9383 48.2905 18.0009 47.4985 19.8558C46.7064 21.7107 46.2461 23.0801 45.7402 23.3373C45.1223 23.6237 42.3356 23.0386 40.6271 22.7024C38.7112 22.3248 38.168 21.3455 37.633 21.026C37.6413 21.0343 37.6538 21.0467 37.6621 21.055C38.8522 22.2418 38.5702 22.802 37.604 23.2377C38.0436 23.5573 38.9517 24.0303 40.7971 24.6943C43.0945 25.5159 44.8611 25.6985 45.9766 25.6943C45.79 26.5325 45.1596 27.989 44.1395 31.8025C43.3848 34.6243 43.3392 38.5083 43.3682 40.3756C43.447 40.4088 43.505 40.4337 43.5424 40.4462C44.3676 40.6869 54.3367 35.2924 54.3367 35.2924C54.3367 35.2924 53.8225 31.0722 52.9226 29.5949L52.9268 29.5908Z" fill="#595245"/>
        <path d="M38.8897 16.1046C39.0971 15.9718 39.8269 16.0963 40.0882 16.1876C40.3494 16.2789 40.3245 16.5196 40.2623 16.6648C40.2001 16.81 39.8311 16.9096 39.3542 16.6773C38.8773 16.4449 38.7446 16.1959 38.8897 16.1046Z" fill="#595245"/>
        <path d="M39.4122 18.8475C40.0715 18.9678 41.7593 19.4243 42.1533 19.6608C42.5514 19.9015 42.6011 19.7562 42.6841 19.611C42.767 19.4699 40.8014 18.362 39.5697 18.1586C38.3381 17.9553 36.5798 17.8018 36.5798 17.8018L36.6255 18.362C36.6255 18.362 38.0354 18.5902 39.4122 18.8433V18.8475Z" fill="#595245"/>
        <path d="M38.7569 8.55232C38.3961 8.42368 37.8073 7.95062 37.4258 7.6228C37.4258 7.6228 37.4258 7.62695 37.4258 7.6311C37.4299 7.6477 37.4382 7.66845 37.4423 7.68505C37.4465 7.6975 37.4506 7.71409 37.4548 7.72654C37.4589 7.74314 37.4631 7.75974 37.4672 7.77634C37.4714 7.79294 37.4755 7.80539 37.4797 7.82198C37.4797 7.83443 37.488 7.85103 37.488 7.86348C37.4921 7.88008 37.4962 7.89668 37.5004 7.91328C37.5004 7.92157 37.5045 7.93402 37.5087 7.94232C37.5128 7.96722 37.517 7.99212 37.5253 8.01287C37.546 8.12076 37.4797 8.71415 37.3594 9.54407C37.3428 9.66856 38.1017 10.5607 38.3007 10.6147C38.6325 10.7018 38.9145 10.569 39.2462 10.2163C39.7729 9.64781 39.3292 8.75565 38.7611 8.55232H38.7569Z" fill="#726658"/>
    </g>
</svg>
