<svg width="360" height="784" viewBox="0 0 360 784" fill="none" xmlns="http://www.w3.org/2000/svg">
    <path d="M55.6384 264.644C53.5488 266.86 51.152 268.831 48.5472 270.351C46.7008 271.452 43.68 273.136 41.5168 272.033C38.9408 270.726 39.7856 266.427 40.2272 264.19C40.448 263.087 40.688 262.003 40.992 260.923C42.1856 256.355 43.9456 251.908 45.5648 247.501L53.8272 242.88C55.6736 242.22 57.5488 240.736 59.5808 240.956C60.9664 241.103 63.3568 241.616 64.3232 242.9C64.4608 243.071 64.5792 243.271 64.6432 243.481C65.1008 244.867 65.0144 247.373 64.5216 248.749C62.512 254.348 59.7024 260.355 55.6384 264.654V264.644Z" fill="#8EB82E"/>
    <path d="M55.6384 264.644C53.5488 266.86 51.152 268.831 48.5472 270.351C46.7008 271.452 43.68 273.136 41.5168 272.033C38.9408 270.726 39.7856 266.427 40.2272 264.19C40.448 263.087 40.688 262.003 40.992 260.923C41.2608 260.631 41.552 260.351 41.8656 260.085C42.8576 259.248 43.9936 258.568 44.9152 257.629C46.9088 255.566 48.0224 252.578 50.2528 250.768C51.9232 249.402 54.6432 249.491 56.5984 249.103C57.4592 248.936 57.92 248.079 58.608 247.56C59.3312 247.015 60.1152 246.788 60.6784 246.053C61.3824 245.12 61.6416 244.45 62.7584 243.961C63.488 243.635 63.9584 243.36 64.32 242.893C64.4576 243.064 64.576 243.264 64.64 243.475C65.0976 244.86 65.0112 247.366 64.5184 248.742C62.5088 254.342 59.6992 260.348 55.6352 264.647L55.6384 264.644Z" fill="#6E2618"/>
    <path d="M37.2704 280.154C37.0144 280.016 36.7488 279.888 36.4896 279.754C36.4544 279.731 36.4224 279.727 36.3904 279.704C30.7552 275.563 28.0096 270.076 30.0864 262.466C30.1856 262.128 30.2848 261.79 30.3936 261.438C32.9824 253.412 40.64 246.916 47.648 243.031C49.4592 242.043 51.3376 241.202 53.2608 240.473C54.2304 240.108 55.216 239.747 56.2048 239.432C56.3712 239.373 56.5632 239.228 56.7648 239.041C57.4144 238.43 58.2016 237.363 58.7168 237.202C60.7872 237.435 49.7632 253.813 45.5872 263.803C45.1136 264.943 44.7328 265.987 44.4672 266.926C44.96 266.847 46.4576 265.415 48.4768 263.284C55.1904 256.144 67.664 241.218 67.6928 243.179C67.9104 243.458 67.44 244.361 67.2768 244.979C67.2128 245.189 67.184 245.356 67.248 245.465C67.7312 246.309 68.096 247.192 68.352 248.089C68.464 248.483 68.5536 248.864 68.624 249.248C69.5104 253.954 67.9104 259.199 66.4896 263.734C62.928 275.195 51.1936 286.821 37.2736 280.154H37.2704Z" fill="#EDC28C"/>
    <path opacity="0.3" d="M68.624 249.248C67.92 248.877 67.1584 248.657 66.3264 248.798C63.9648 249.235 61.8432 251.888 60.1632 253.455C57.648 255.796 55.2064 258.204 52.9568 260.805C54.2752 258.713 55.7856 256.847 57.392 254.985C60.3424 251.563 63.3472 247.356 67.28 244.982C67.216 245.192 67.1872 245.36 67.2512 245.468C67.9392 246.667 68.384 247.941 68.624 249.251V249.248Z" fill="#7D401A"/>
    <path opacity="0.3" d="M46.8224 257.609C47.6352 254.496 49.3376 252.217 51.0016 248.755C52.1888 246.305 54.0096 243.422 53.2832 240.539C53.28 240.519 53.264 240.493 53.2608 240.473C54.2304 240.108 55.216 239.747 56.2048 239.432C56.3712 239.373 56.5632 239.228 56.7648 239.041C56.4928 240.667 55.1168 243.074 54.6144 244.236C53.4752 246.923 51.7472 249.583 50.2048 252.049C49.2864 253.53 48.6816 255.504 46.8288 257.609H46.8224Z" fill="#7D401A"/>
    <path opacity="0.3" d="M37.2704 280.154C37.0144 280.016 36.7488 279.888 36.4896 279.754C36.4544 279.731 36.4224 279.727 36.3904 279.704C30.7552 275.563 28.0096 270.076 30.0864 262.466C32.0608 267.356 33.7152 273.504 38.288 275.452C38.4864 275.537 44.48 266.138 44.6816 266.21C45.0784 266.355 39.6832 275.954 40.08 276.049C45.5936 277.406 51.2256 274.522 55.4112 271.343C59.3248 268.401 62.912 264.831 65.232 260.404C67.2448 256.545 67.968 252.355 68.3488 248.089C68.4608 248.483 68.5504 248.864 68.6208 249.248C69.5072 253.954 67.9072 259.199 66.4864 263.734C62.9248 275.195 51.1904 286.821 37.2704 280.154V280.154Z" fill="#7D401A"/>
    <path d="M156 326.108C156 326.108 169.466 416.2 100.413 446.525C31.3601 476.851 15.7345 568.092 15.7345 568.092C15.7345 568.092 -5.60314 711.021 44.8769 750.585C95.3569 790.148 172.586 784.269 205.971 746.814C239.357 709.36 176.317 665.353 236.477 654.516" stroke="black" stroke-width="10" stroke-miterlimit="10"/>
    <path d="M323.798 733.281C321.709 735.498 319.312 737.468 316.707 738.988C314.861 740.089 311.84 741.773 309.677 740.67C307.101 739.363 307.946 735.064 308.387 732.828C308.608 731.724 308.848 730.64 309.152 729.56C310.346 724.992 312.106 720.545 313.725 716.138L321.987 711.517C323.834 710.857 325.709 709.373 327.741 709.593C329.126 709.741 331.517 710.253 332.483 711.537C332.621 711.708 332.739 711.908 332.803 712.118C333.261 713.504 333.174 716.01 332.682 717.386C330.672 722.985 327.862 728.992 323.798 733.291V733.281Z" fill="#8EB82E"/>
    <path d="M323.798 733.281C321.709 735.498 319.312 737.468 316.707 738.988C314.861 740.089 311.84 741.773 309.677 740.67C307.101 739.363 307.946 735.064 308.387 732.828C308.608 731.724 308.848 730.64 309.152 729.56C309.421 729.268 309.712 728.988 310.026 728.722C311.018 727.885 312.154 727.205 313.075 726.266C315.069 724.204 316.182 721.215 318.413 719.406C320.083 718.039 322.803 718.128 324.758 717.741C325.619 717.573 326.08 716.716 326.768 716.197C327.491 715.652 328.275 715.425 328.838 714.69C329.542 713.757 329.802 713.087 330.918 712.598C331.648 712.273 332.118 711.997 332.48 711.53C332.618 711.701 332.736 711.901 332.8 712.112C333.258 713.497 333.171 716.003 332.678 717.379C330.669 722.979 327.859 728.985 323.795 733.284L323.798 733.281Z" fill="#6E2618"/>
    <path d="M305.43 748.791C305.174 748.654 304.909 748.525 304.65 748.391C304.614 748.368 304.582 748.364 304.55 748.341C298.915 744.2 296.17 738.713 298.246 731.103C298.346 730.765 298.445 730.427 298.554 730.076C301.142 722.049 308.8 715.553 315.808 711.668C317.619 710.68 319.498 709.839 321.421 709.11C322.39 708.745 323.376 708.384 324.365 708.069C324.531 708.01 324.723 707.865 324.925 707.678C325.574 707.067 326.362 706 326.877 705.839C328.947 706.072 317.923 722.45 313.747 732.44C313.274 733.58 312.893 734.624 312.627 735.563C313.12 735.484 314.618 734.052 316.637 731.921C323.35 724.782 335.824 709.855 335.853 711.816C336.07 712.095 335.6 712.998 335.437 713.616C335.373 713.826 335.344 713.993 335.408 714.102C335.891 714.946 336.256 715.829 336.512 716.726C336.624 717.12 336.714 717.501 336.784 717.885C337.67 722.591 336.07 727.836 334.65 732.371C331.088 743.832 319.354 755.458 305.434 748.791H305.43Z" fill="#EDC28C"/>
    <path opacity="0.3" d="M336.784 717.885C336.08 717.514 335.318 717.294 334.486 717.435C332.125 717.872 330.003 720.525 328.323 722.092C325.808 724.433 323.366 726.841 321.117 729.442C322.435 727.35 323.946 725.484 325.552 723.622C328.502 720.2 331.507 715.993 335.44 713.619C335.376 713.829 335.347 713.997 335.411 714.105C336.099 715.304 336.544 716.578 336.784 717.888V717.885Z" fill="#7D401A"/>
    <path opacity="0.3" d="M314.982 726.246C315.795 723.133 317.498 720.854 319.162 717.392C320.349 714.943 322.17 712.059 321.443 709.176C321.44 709.156 321.424 709.13 321.421 709.11C322.39 708.745 323.376 708.384 324.365 708.069C324.531 708.01 324.723 707.865 324.925 707.678C324.653 709.304 323.277 711.711 322.774 712.874C321.635 715.56 319.907 718.22 318.365 720.686C317.446 722.167 316.842 724.141 314.989 726.246H314.982Z" fill="#7D401A"/>
    <path opacity="0.3" d="M305.43 748.791C305.174 748.654 304.909 748.525 304.65 748.391C304.614 748.368 304.582 748.365 304.55 748.342C298.915 744.2 296.17 738.713 298.246 731.103C300.221 735.993 301.875 742.141 306.448 744.089C306.646 744.174 312.64 734.775 312.842 734.847C313.238 734.992 307.843 744.591 308.24 744.686C313.754 746.043 319.386 743.159 323.571 739.98C327.485 737.038 331.072 733.468 333.392 729.041C335.405 725.182 336.128 720.992 336.509 716.726C336.621 717.12 336.71 717.501 336.781 717.885C337.667 722.591 336.067 727.836 334.646 732.371C331.085 743.833 319.35 755.458 305.43 748.791V748.791Z" fill="#7D401A"/>
    <path d="M135.526 67.1363C137.011 69.6749 138.195 72.4433 138.925 75.3005C139.459 77.33 140.234 80.6207 138.701 82.4072C136.88 84.532 133.203 82.6667 131.293 81.6913C130.349 81.2085 129.43 80.7093 128.528 80.1511C124.698 77.8785 121.114 75.1034 117.53 72.4696L115.402 63.4581C115.264 61.5369 114.384 59.3826 115.088 57.5041C115.565 56.22 116.618 54.0722 118.019 53.4713C118.211 53.3859 118.419 53.3202 118.624 53.3103C119.99 53.2184 122.23 53.9212 123.354 54.7323C127.917 58.0328 132.646 62.197 135.523 67.133L135.526 67.1363Z" fill="#8EB82E"/>
    <path d="M135.526 67.1363C137.011 69.6749 138.195 72.4433 138.925 75.3005C139.459 77.33 140.234 80.6207 138.701 82.4072C136.88 84.532 133.203 82.6667 131.293 81.6913C130.349 81.2085 129.43 80.7094 128.528 80.1511C128.33 79.8227 128.15 79.4778 127.987 79.1133C127.475 77.9606 127.142 76.7094 126.525 75.5993C125.155 73.1888 122.733 71.3892 121.651 68.821C120.832 66.8933 121.584 64.3251 121.722 62.3678C121.786 61.5041 121.123 60.8571 120.826 60.069C120.509 59.2447 120.502 58.4466 119.978 57.7241C119.309 56.8243 118.768 56.4105 118.605 55.2282C118.493 54.4532 118.358 53.9376 118.026 53.4746C118.218 53.3892 118.426 53.3235 118.63 53.3136C119.997 53.2217 122.237 53.9245 123.36 54.7356C127.923 58.0361 132.653 62.2003 135.53 67.1363H135.526Z" fill="#6E2618"/>
    <path d="M144.989 88.4663C144.8 88.6765 144.618 88.8965 144.432 89.11C144.403 89.1396 144.39 89.1658 144.362 89.1921C139.222 93.5304 133.584 94.7816 127.222 90.9162C126.938 90.7356 126.659 90.5583 126.368 90.3711C119.757 85.9146 115.786 77.0181 114.013 69.3826C113.568 67.4154 113.274 65.4187 113.094 63.4089C113.002 62.3941 112.922 61.3662 112.883 60.3481C112.87 60.1708 112.787 59.9573 112.672 59.7208C112.278 58.9524 111.51 57.9343 111.494 57.4089C112.218 55.4942 124.288 70.0493 132.282 76.5025C133.194 77.2348 134.045 77.8555 134.826 78.3415C134.877 77.8555 133.955 76.0755 132.531 73.6223C127.744 65.4614 117.347 49.8851 119.126 50.3448C119.434 50.2069 120.128 50.8768 120.65 51.1855C120.822 51.2972 120.97 51.3662 121.082 51.3333C121.965 51.0837 122.851 50.9524 123.728 50.936C124.112 50.9261 124.477 50.936 124.842 50.9655C129.315 51.2873 133.654 54.1149 137.405 56.5911C146.88 62.8243 154.477 76.8768 144.998 88.4729L144.989 88.4663Z" fill="#EDC28C"/>
    <path opacity="0.3" d="M124.832 50.9589C124.323 51.5369 123.933 52.2102 123.856 53.0312C123.664 55.3891 125.536 58.0657 126.534 60.0525C128.026 63.0246 129.597 65.9474 131.389 68.7356C129.827 66.9622 128.515 65.0607 127.229 63.0739C124.867 59.4154 121.811 55.5139 120.64 51.1822C120.813 51.2939 120.96 51.3629 121.072 51.33C122.326 50.9721 123.587 50.8637 124.832 50.9622V50.9589Z" fill="#7D401A"/>
    <path opacity="0.3" d="M126.982 73.78C124.371 72.2332 122.733 70.0526 120.016 67.6059C118.096 65.8686 115.942 63.4187 113.155 63.3957C113.136 63.3957 113.11 63.4023 113.091 63.4023C112.998 62.3875 112.918 61.3596 112.88 60.3416C112.867 60.1642 112.784 59.9507 112.669 59.7143C114.07 60.3744 115.904 62.2824 116.832 63.0509C118.976 64.8013 120.95 67.1067 122.8 69.1856C123.91 70.4269 125.546 71.491 126.986 73.7767L126.982 73.78Z" fill="#7D401A"/>
    <path opacity="0.3" d="M144.989 88.4663C144.8 88.6765 144.618 88.8966 144.432 89.11C144.403 89.1396 144.39 89.1659 144.362 89.1921C139.222 93.5304 133.584 94.7816 127.222 90.9163C132.128 90.2496 138.096 90.1971 140.989 86.3284C141.114 86.1609 134.106 78.1248 134.221 77.9507C134.451 77.6092 141.786 85.1264 141.974 84.7685C144.566 79.8588 143.357 73.78 141.523 69.0082C139.834 64.5517 137.498 60.2529 134.074 56.9458C131.085 54.0723 127.478 52.3448 123.715 50.9261C124.099 50.9163 124.464 50.9261 124.829 50.9557C129.302 51.2775 133.642 54.1051 137.392 56.5813C146.867 62.8145 154.464 76.867 144.986 88.4631L144.989 88.4663Z" fill="#7D401A"/>
    <path d="M328.166 450.388C329.651 452.926 330.835 455.695 331.565 458.552C332.099 460.581 332.874 463.872 331.341 465.658C329.52 467.783 325.843 465.918 323.933 464.943C322.989 464.46 322.07 463.961 321.168 463.402C317.338 461.13 313.754 458.355 310.17 455.721L308.042 446.709C307.904 444.788 307.024 442.634 307.728 440.755C308.205 439.471 309.258 437.323 310.659 436.723C310.851 436.637 311.059 436.571 311.264 436.562C312.63 436.47 314.87 437.172 315.994 437.984C320.557 441.284 325.286 445.448 328.163 450.384L328.166 450.388Z" fill="#8EB82E"/>
    <path d="M328.166 450.388C329.651 452.926 330.835 455.695 331.565 458.552C332.099 460.581 332.874 463.872 331.341 465.658C329.52 467.783 325.843 465.918 323.933 464.943C322.989 464.46 322.07 463.961 321.168 463.402C320.97 463.074 320.79 462.729 320.627 462.365C320.115 461.212 319.782 459.961 319.165 458.851C317.795 456.44 315.373 454.64 314.291 452.072C313.472 450.145 314.224 447.576 314.362 445.619C314.426 444.755 313.763 444.108 313.466 443.32C313.149 442.496 313.142 441.698 312.618 440.975C311.949 440.076 311.408 439.662 311.245 438.48C311.133 437.704 310.998 437.189 310.666 436.726C310.858 436.64 311.066 436.575 311.27 436.565C312.637 436.473 314.877 437.176 316 437.987C320.563 441.287 325.293 445.452 328.17 450.388H328.166Z" fill="#6E2618"/>
    <path d="M337.629 471.718C337.44 471.928 337.258 472.148 337.072 472.361C337.043 472.391 337.03 472.417 337.002 472.443C331.862 476.782 326.224 478.033 319.862 474.167C319.578 473.987 319.299 473.81 319.008 473.622C312.397 469.166 308.426 460.269 306.653 452.634C306.208 450.667 305.914 448.67 305.734 446.66C305.642 445.645 305.562 444.617 305.523 443.599C305.51 443.422 305.427 443.208 305.312 442.972C304.918 442.204 304.15 441.186 304.134 440.66C304.858 438.745 316.928 453.3 324.922 459.754C325.834 460.486 326.685 461.107 327.466 461.593C327.517 461.107 326.595 459.327 325.171 456.874C320.384 448.713 309.987 433.136 311.766 433.596C312.074 433.458 312.768 434.128 313.29 434.437C313.462 434.548 313.61 434.617 313.722 434.585C314.605 434.335 315.491 434.204 316.368 434.187C316.752 434.177 317.117 434.187 317.482 434.217C321.955 434.539 326.294 437.366 330.045 439.842C339.52 446.075 347.117 460.128 337.638 471.724L337.629 471.718Z" fill="#EDC28C"/>
    <path opacity="0.3" d="M317.472 434.21C316.963 434.788 316.573 435.461 316.496 436.282C316.304 438.64 318.176 441.317 319.174 443.304C320.666 446.276 322.237 449.199 324.029 451.987C322.467 450.213 321.155 448.312 319.869 446.325C317.507 442.667 314.451 438.765 313.28 434.433C313.453 434.545 313.6 434.614 313.712 434.581C314.966 434.223 316.227 434.115 317.472 434.213V434.21Z" fill="#7D401A"/>
    <path opacity="0.3" d="M319.622 457.031C317.011 455.484 315.373 453.304 312.656 450.857C310.736 449.12 308.582 446.67 305.795 446.647C305.776 446.647 305.75 446.654 305.731 446.654C305.638 445.639 305.558 444.611 305.52 443.593C305.507 443.415 305.424 443.202 305.309 442.965C306.71 443.626 308.544 445.534 309.472 446.302C311.616 448.053 313.59 450.358 315.44 452.437C316.55 453.678 318.186 454.742 319.626 457.028L319.622 457.031Z" fill="#7D401A"/>
    <path opacity="0.3" d="M337.629 471.718C337.44 471.928 337.258 472.148 337.072 472.361C337.043 472.391 337.03 472.417 337.002 472.443C331.862 476.782 326.224 478.033 319.862 474.167C324.768 473.501 330.736 473.448 333.629 469.58C333.754 469.412 326.746 461.376 326.861 461.202C327.091 460.86 334.426 468.378 334.614 468.02C337.206 463.11 335.997 457.031 334.163 452.259C332.474 447.803 330.138 443.504 326.714 440.197C323.725 437.323 320.118 435.596 316.355 434.177C316.739 434.167 317.104 434.177 317.469 434.207C321.942 434.529 326.282 437.356 330.032 439.833C339.507 446.066 347.104 460.118 337.626 471.714L337.629 471.718Z" fill="#7D401A"/>
    <path d="M102.246 757.777C103.731 760.315 104.915 763.084 105.645 765.941C106.179 767.97 106.954 771.261 105.421 773.048C103.6 775.172 99.9232 773.307 98.0128 772.332C97.0688 771.849 96.1504 771.35 95.248 770.792C91.4176 768.519 87.8336 765.744 84.2496 763.11L82.1216 754.099C81.984 752.177 81.104 750.023 81.808 748.145C82.2848 746.86 83.3376 744.713 84.7392 744.112C84.9312 744.026 85.1392 743.961 85.344 743.951C86.7104 743.859 88.9504 744.562 90.0736 745.373C94.6368 748.673 99.3664 752.837 102.243 757.773L102.246 757.777Z" fill="#8EB82E"/>
    <path d="M102.246 757.777C103.731 760.315 104.915 763.084 105.645 765.941C106.179 767.97 106.954 771.261 105.421 773.048C103.6 775.172 99.9232 773.307 98.0128 772.332C97.0688 771.849 96.1504 771.35 95.248 770.792C95.0496 770.463 94.8704 770.118 94.7072 769.754C94.1952 768.601 93.8624 767.35 93.2448 766.24C91.8752 763.829 89.4528 762.03 88.3712 759.461C87.552 757.534 88.304 754.966 88.4416 753.008C88.5056 752.144 87.8432 751.498 87.5456 750.709C87.2288 749.885 87.2224 749.087 86.6976 748.365C86.0288 747.465 85.488 747.051 85.3248 745.869C85.2128 745.094 85.0784 744.578 84.7456 744.115C84.9376 744.03 85.1456 743.964 85.3504 743.954C86.7168 743.862 88.9568 744.565 90.08 745.376C94.6432 748.677 99.3728 752.841 102.25 757.777H102.246Z" fill="#6E2618"/>
    <path d="M111.709 779.107C111.52 779.317 111.338 779.537 111.152 779.75C111.123 779.78 111.11 779.806 111.082 779.833C105.942 784.171 100.304 785.422 93.9424 781.557C93.6576 781.376 93.3792 781.199 93.088 781.011C86.4768 776.555 82.5056 767.658 80.7328 760.023C80.288 758.056 79.9936 756.059 79.8144 754.049C79.7216 753.035 79.6416 752.007 79.6032 750.989C79.5904 750.811 79.5072 750.598 79.392 750.361C78.9984 749.593 78.2304 748.575 78.2144 748.049C78.9376 746.135 91.008 760.69 99.0016 767.143C99.9136 767.875 100.765 768.496 101.546 768.982C101.597 768.496 100.675 766.716 99.2512 764.263C94.464 756.102 84.0672 740.525 85.8464 740.985C86.1536 740.847 86.848 741.517 87.3696 741.826C87.5424 741.938 87.6896 742.007 87.8016 741.974C88.6848 741.724 89.5712 741.593 90.448 741.576C90.832 741.567 91.1968 741.576 91.5616 741.606C96.0352 741.928 100.374 744.755 104.125 747.232C113.6 753.465 121.197 767.517 111.718 779.113L111.709 779.107Z" fill="#EDC28C"/>
    <path opacity="0.3" d="M91.552 741.599C91.0432 742.177 90.6528 742.851 90.576 743.672C90.384 746.03 92.256 748.706 93.2544 750.693C94.7456 753.665 96.3168 756.588 98.1088 759.376C96.5472 757.603 95.2352 755.701 93.9488 753.714C91.5872 750.056 88.5312 746.154 87.36 741.823C87.5328 741.934 87.68 742.003 87.792 741.97C89.0464 741.612 90.3072 741.504 91.552 741.603V741.599Z" fill="#7D401A"/>
    <path opacity="0.3" d="M93.7024 764.42C91.0912 762.874 89.4528 760.693 86.736 758.246C84.816 756.509 82.6624 754.059 79.8752 754.036C79.856 754.036 79.8304 754.043 79.8112 754.043C79.7184 753.028 79.6384 752 79.6 750.982C79.5872 750.805 79.504 750.591 79.3888 750.355C80.7904 751.015 82.624 752.923 83.552 753.691C85.696 755.442 87.6704 757.747 89.52 759.826C90.6304 761.067 92.2656 762.131 93.7056 764.417L93.7024 764.42Z" fill="#7D401A"/>
    <path opacity="0.3" d="M111.709 779.107C111.52 779.317 111.338 779.537 111.152 779.75C111.123 779.78 111.11 779.806 111.082 779.833C105.942 784.171 100.304 785.422 93.9424 781.557C98.848 780.89 104.816 780.837 107.709 776.969C107.834 776.801 100.826 768.765 100.941 768.591C101.171 768.25 108.506 775.767 108.694 775.409C111.286 770.499 110.077 764.42 108.243 759.649C106.554 755.192 104.218 750.893 100.794 747.586C97.8048 744.713 94.1984 742.985 90.4352 741.567C90.8192 741.557 91.184 741.566 91.5488 741.596C96.0224 741.918 100.362 744.746 104.112 747.222C113.587 753.455 121.184 767.507 111.706 779.104L111.709 779.107Z" fill="#7D401A"/>
    <path d="M313.882 130.864C312.352 132.476 310.605 133.908 308.701 135.015C307.354 135.813 305.149 137.034 303.571 136.23C301.696 135.271 302.317 132.135 302.64 130.506C302.803 129.701 302.979 128.91 303.203 128.122C304.083 124.788 305.373 121.55 306.56 118.335L312.592 114.979C313.939 114.502 315.312 113.419 316.79 113.583C317.802 113.695 319.546 114.069 320.246 115.008C320.346 115.136 320.432 115.281 320.477 115.432C320.81 116.443 320.742 118.269 320.381 119.271C318.906 123.353 316.848 127.731 313.878 130.857L313.882 130.864Z" fill="#8EB82E"/>
    <path d="M313.882 130.864C312.352 132.476 310.605 133.908 308.701 135.015C307.354 135.813 305.149 137.034 303.571 136.23C301.696 135.271 302.317 132.135 302.64 130.506C302.803 129.701 302.979 128.91 303.203 128.121C303.398 127.908 303.613 127.704 303.843 127.514C304.566 126.903 305.398 126.407 306.07 125.724C307.526 124.22 308.346 122.046 309.974 120.729C311.194 119.737 313.181 119.803 314.605 119.524C315.235 119.406 315.571 118.778 316.077 118.401C316.605 118.003 317.174 117.842 317.59 117.304C318.106 116.624 318.294 116.138 319.107 115.78C319.642 115.547 319.984 115.343 320.25 115.005C320.349 115.133 320.435 115.277 320.48 115.429C320.813 116.44 320.746 118.266 320.384 119.268C318.909 123.35 316.851 127.727 313.882 130.854V130.864Z" fill="#6E2618"/>
    <path d="M300.458 142.144C300.269 142.043 300.077 141.951 299.888 141.852C299.862 141.836 299.84 141.833 299.814 141.816C295.709 138.788 293.715 134.782 295.245 129.235C295.318 128.988 295.389 128.739 295.469 128.486C297.37 122.634 302.963 117.908 308.083 115.084C309.405 114.365 310.778 113.754 312.179 113.228C312.886 112.962 313.606 112.703 314.326 112.473C314.448 112.43 314.589 112.325 314.733 112.19C315.21 111.744 315.786 110.969 316.16 110.854C317.67 111.025 309.603 122.956 306.541 130.236C306.192 131.067 305.917 131.826 305.718 132.512C306.077 132.456 307.171 131.415 308.65 129.865C313.558 124.667 322.678 113.8 322.698 115.228C322.854 115.432 322.512 116.089 322.394 116.539C322.346 116.69 322.326 116.814 322.374 116.893C322.726 117.511 322.989 118.154 323.174 118.811C323.254 119.1 323.318 119.376 323.37 119.655C324.01 123.09 322.832 126.91 321.789 130.217C319.174 138.575 310.598 147.031 300.451 142.148L300.458 142.144Z" fill="#EDC28C"/>
    <path opacity="0.3" d="M323.376 119.652C322.864 119.383 322.307 119.218 321.702 119.317C319.978 119.632 318.429 121.563 317.2 122.703C315.363 124.407 313.578 126.158 311.933 128.049C312.899 126.529 314.003 125.169 315.174 123.813C317.334 121.323 319.533 118.259 322.403 116.532C322.355 116.683 322.336 116.808 322.384 116.887C322.883 117.76 323.206 118.693 323.379 119.649L323.376 119.652Z" fill="#7D401A"/>
    <path opacity="0.3" d="M307.462 125.714C308.058 123.445 309.302 121.787 310.525 119.261C311.395 117.475 312.726 115.373 312.198 113.271C312.198 113.258 312.186 113.238 312.182 113.225C312.89 112.959 313.61 112.7 314.33 112.47C314.451 112.427 314.592 112.322 314.736 112.187C314.538 113.373 313.53 115.126 313.162 115.974C312.326 117.931 311.059 119.869 309.933 121.665C309.261 122.742 308.819 124.181 307.462 125.714V125.714Z" fill="#7D401A"/>
    <path opacity="0.3" d="M300.458 142.144C300.269 142.043 300.077 141.951 299.888 141.852C299.862 141.836 299.84 141.832 299.814 141.816C295.709 138.788 293.715 134.782 295.245 129.235C296.678 132.805 297.875 137.291 301.206 138.719C301.354 138.782 305.738 131.934 305.885 131.987C306.173 132.092 302.224 139.084 302.515 139.156C306.534 140.154 310.646 138.062 313.706 135.75C316.563 133.609 319.187 131.011 320.886 127.787C322.358 124.975 322.893 121.921 323.178 118.808C323.258 119.097 323.322 119.373 323.373 119.652C324.013 123.087 322.835 126.906 321.792 130.213C319.178 138.571 310.602 147.028 300.454 142.144H300.458Z" fill="#7D401A"/>
    <path d="M234.128 646.177C229.827 649.435 234.387 665.445 237.709 665.701C241.03 665.957 332.829 635.747 335.808 633.107C338.787 630.463 333.098 613.074 328.986 612.184C324.874 611.291 238.253 643.051 234.125 646.177H234.128Z" fill="#E9674D"/>
    <path d="M248.397 658.01C248.339 657.806 248.227 657.619 248.048 657.507C247.962 657.452 247.875 657.392 247.789 657.333C247.45 657.09 247.069 657.051 246.675 657.13C246.432 657.179 246.189 657.218 245.942 657.248C245.904 657.248 245.866 657.255 245.827 657.258C245.53 657.274 245.286 657.32 245.018 657.461C244.8 657.58 244.602 657.695 244.458 657.918C244.314 658.141 244.237 658.417 244.304 658.686C244.381 658.992 244.55 659.241 244.819 659.409C244.973 659.504 245.142 659.599 245.309 659.662C245.613 659.777 246.01 659.731 246.326 659.704C246.688 659.675 247.104 659.665 247.446 659.53C247.754 659.412 247.994 659.199 248.154 658.903C248.202 658.818 248.246 658.729 248.288 658.64C248.381 658.447 248.451 658.233 248.39 658.013L248.397 658.01Z" fill="#F7A800"/>
    <path d="M252.752 657.255C252.698 657.021 252.566 656.824 252.39 656.673C252.061 656.391 251.597 656.342 251.213 656.545C251.162 656.571 251.11 656.598 251.056 656.621C250.918 656.68 250.794 656.775 250.685 656.88C250.618 656.946 250.544 657.002 250.47 657.061C250.422 657.094 250.378 657.123 250.33 657.156C250.246 657.215 250.195 657.255 250.134 657.324C250.106 657.353 250.08 657.383 250.051 657.412C249.885 657.583 249.741 657.747 249.658 657.977C249.642 658.023 249.629 658.069 249.61 658.115L249.574 658.328C249.565 658.44 249.584 658.545 249.632 658.644C249.699 658.821 249.798 658.926 249.942 659.044C250.16 659.225 250.419 659.32 250.704 659.314C250.864 659.31 251.024 659.291 251.181 659.271C251.344 659.251 251.498 659.172 251.638 659.09C251.846 658.969 252.042 658.821 252.227 658.667C252.486 658.453 252.624 658.148 252.73 657.833C252.746 657.737 252.762 657.639 252.778 657.544C252.768 657.445 252.758 657.35 252.749 657.251L252.752 657.255Z" fill="#F7A800"/>
    <path d="M253.373 654.273C253.373 654.273 253.373 654.276 253.37 654.28C253.405 654.237 253.437 654.197 253.472 654.154C253.44 654.194 253.408 654.234 253.376 654.273H253.373Z" fill="#F7A800"/>
    <path d="M253.325 654.331C253.338 654.315 253.354 654.299 253.367 654.279C253.364 654.286 253.357 654.289 253.351 654.295C253.341 654.309 253.335 654.318 253.325 654.331V654.331Z" fill="#F7A800"/>
    <path d="M255.939 654.532C255.866 654.269 255.718 654.013 255.482 653.875C255.254 653.741 255.018 653.704 254.765 653.737C254.778 653.737 254.79 653.737 254.803 653.734C254.733 653.741 254.662 653.741 254.589 653.744C254.483 653.744 254.352 653.754 254.25 653.783C254.214 653.793 254.182 653.803 254.147 653.813C254.09 653.829 254.029 653.836 253.971 653.849C253.706 653.905 253.523 654.079 253.366 654.286C253.213 654.48 253.133 654.746 253.2 654.995C253.174 654.736 253.171 654.7 253.19 654.883C253.19 654.926 253.19 654.966 253.203 655.005C253.203 655.015 253.21 655.025 253.213 655.031C253.274 655.218 253.328 655.366 253.459 655.517C253.622 655.704 253.856 655.81 254.086 655.875C254.17 655.898 254.253 655.911 254.339 655.928C254.394 655.948 254.451 655.957 254.509 655.951L254.797 655.921C254.822 655.918 254.848 655.911 254.877 655.908C254.973 655.888 255.069 655.859 255.162 655.826C255.299 655.796 255.418 655.737 255.523 655.649C255.638 655.576 255.731 655.481 255.802 655.36C255.939 655.136 256.01 654.798 255.936 654.539L255.939 654.532Z" fill="#F7A800"/>
    <path d="M240.909 661.392C240.794 661.205 240.579 661.169 240.413 661.307C240.333 661.373 240.259 661.452 240.182 661.521C240.163 661.534 240.144 661.544 240.125 661.553C240.096 661.57 240.067 661.58 240.038 661.596C240.006 661.606 239.978 661.619 239.946 661.626C239.814 661.655 239.693 661.718 239.568 661.767C239.638 661.741 239.706 661.714 239.776 661.685C239.677 661.721 239.578 661.75 239.475 661.77C239.296 661.803 239.136 661.885 238.97 661.951L239.194 661.862C239.066 661.911 238.947 661.954 238.832 662.03C238.784 662.062 238.733 662.089 238.682 662.115C238.435 662.236 238.278 662.522 238.269 662.795C238.259 663.057 238.394 663.376 238.63 663.504C238.765 663.576 238.909 663.649 239.056 663.695C239.293 663.767 239.558 663.75 239.798 663.695C240.032 663.639 240.24 663.475 240.419 663.32C240.522 663.232 240.608 663.13 240.694 663.025C240.899 662.775 240.986 662.424 241.018 662.102C241.04 661.875 241.03 661.59 240.909 661.392V661.392Z" fill="#F7A800"/>
    <path d="M331.462 630.115C331.469 630.062 331.462 630.013 331.45 629.961C331.45 629.81 331.411 629.668 331.334 629.537C331.171 629.245 330.902 629.018 330.576 628.943C330.426 628.91 330.272 628.877 330.118 628.867C329.962 628.857 329.802 628.883 329.648 628.9C329.587 628.906 329.523 628.916 329.462 628.933C329.347 628.962 329.222 629.002 329.126 629.057C329.053 629.103 328.944 629.179 328.883 629.241C328.819 629.304 328.752 629.396 328.698 629.468C328.586 629.612 328.509 629.79 328.448 629.961C328.358 630.22 328.422 630.509 328.573 630.729C328.63 630.828 328.707 630.903 328.803 630.962C328.934 631.048 329.075 631.09 329.229 631.097C329.283 631.094 329.334 631.1 329.389 631.107C329.507 631.133 329.603 631.14 329.731 631.126C329.75 631.126 329.77 631.12 329.789 631.12C329.834 631.12 329.882 631.12 329.926 631.126C329.936 631.126 329.942 631.13 329.952 631.133C329.965 631.136 329.978 631.143 329.987 631.149C330.131 631.205 330.298 631.209 330.448 631.195C330.598 631.179 330.742 631.146 330.88 631.071C331.03 630.985 331.139 630.864 331.245 630.732C331.315 630.644 331.376 630.548 331.408 630.42C331.424 630.358 331.456 630.184 331.459 630.122L331.462 630.115Z" fill="#F7A800"/>
    <path d="M331.296 630.67C331.28 630.69 331.264 630.706 331.251 630.723C331.21 630.775 331.168 630.828 331.12 630.887C331.178 630.814 331.238 630.742 331.296 630.67V630.67Z" fill="#F7A800"/>
    <path d="M335.424 630.739C335.398 630.604 335.344 630.486 335.258 630.388C335.19 630.273 335.101 630.184 334.989 630.115C334.893 630.053 334.787 630.016 334.678 629.99C334.598 629.947 334.515 629.911 334.422 629.908C334.262 629.865 334.102 629.865 333.942 629.911C333.923 629.911 333.904 629.918 333.882 629.918C333.846 629.921 333.811 629.924 333.773 629.928C333.664 629.961 333.562 630 333.459 630.053C333.315 630.131 333.235 630.204 333.139 630.305C333.117 630.328 333.094 630.351 333.075 630.371C332.861 630.588 332.72 630.88 332.707 631.195C332.698 631.425 332.746 631.59 332.842 631.793C332.998 632.122 333.328 632.332 333.667 632.41C333.83 632.47 333.997 632.483 334.163 632.453C334.227 632.453 334.288 632.447 334.352 632.433C334.605 632.381 334.733 632.263 334.931 632.112C334.97 632.082 335.005 632.053 335.04 632.023C335.277 631.813 335.418 631.478 335.427 631.149C335.45 631.015 335.456 630.88 335.424 630.742V630.739Z" fill="#F7A800"/>
    <path d="M241.267 649.369C241.181 649.054 241.002 648.745 240.717 648.578C240.419 648.404 240.093 648.335 239.754 648.41C239.581 648.45 239.408 648.479 239.232 648.502C238.963 648.535 238.742 648.68 238.502 648.795C238.426 648.854 238.346 648.91 238.266 648.969C238.205 649.044 238.141 649.12 238.08 649.199C237.942 649.419 237.894 649.678 237.92 649.934C237.965 650.401 238.266 650.775 238.698 650.929C238.781 650.959 238.864 650.988 238.95 651.015C239.085 651.054 239.216 651.09 239.357 651.094C239.478 651.097 239.658 651.067 239.798 651.044C239.978 651.015 240.157 650.972 240.333 650.923C240.643 650.834 240.928 650.644 241.104 650.358C241.27 650.089 241.354 649.685 241.267 649.369V649.369Z" fill="#EFD5C6"/>
    <path d="M244.56 649.626C244.528 649.461 244.461 649.317 244.358 649.192C244.307 649.097 244.237 649.018 244.147 648.959C244.032 648.844 243.898 648.765 243.741 648.719C243.632 648.699 243.526 648.683 243.418 648.663C243.261 648.657 243.117 648.693 242.973 648.742C243.005 648.729 243.04 648.716 243.072 648.703C243.062 648.706 243.05 648.709 243.04 648.713C243.034 648.713 243.027 648.716 243.021 648.719C242.784 648.782 242.749 648.814 242.586 648.933C242.502 648.979 242.435 649.048 242.381 649.13C242.394 649.113 242.41 649.097 242.422 649.077C242.416 649.084 242.413 649.09 242.406 649.097C242.397 649.107 242.387 649.12 242.378 649.133C242.371 649.143 242.362 649.146 242.355 649.153C242.314 649.192 242.278 649.235 242.25 649.284C242.25 649.287 242.243 649.294 242.243 649.297C242.24 649.304 242.234 649.31 242.227 649.317C242.166 649.412 242.115 649.511 242.08 649.622C242.016 649.836 242.01 650.052 242.058 650.269C242.106 650.476 242.202 650.66 242.342 650.818C242.486 650.975 242.656 651.084 242.854 651.149C242.867 651.156 242.88 651.159 242.893 651.163C242.899 651.163 242.906 651.166 242.915 651.169C242.918 651.169 242.922 651.169 242.925 651.169C243.088 651.228 243.251 651.241 243.418 651.212C243.584 651.212 243.738 651.166 243.882 651.077C243.971 651.015 244.058 650.949 244.144 650.883C244.15 650.877 244.157 650.874 244.163 650.867C244.176 650.857 244.189 650.844 244.202 650.831C244.323 650.722 244.413 650.591 244.467 650.437C244.55 650.289 244.589 650.131 244.589 649.957C244.579 649.846 244.566 649.734 244.557 649.622L244.56 649.626Z" fill="#EFD5C6"/>
    <path d="M326.736 617.967C326.73 617.947 326.723 617.931 326.717 617.911C326.707 617.849 326.694 617.79 326.662 617.734C326.637 617.688 326.592 617.652 326.554 617.616C326.56 617.619 326.566 617.622 326.573 617.629C326.557 617.609 326.544 617.586 326.528 617.567C326.422 617.452 326.298 617.373 326.154 617.323C326.013 617.281 325.872 617.274 325.731 617.304C325.715 617.304 325.699 617.304 325.68 617.304C325.638 617.304 325.594 617.304 325.552 617.317C325.472 617.317 325.395 617.333 325.322 617.373C325.28 617.386 325.238 617.402 325.2 617.422C325.139 617.468 325.075 617.514 325.014 617.56C324.966 617.619 324.915 617.681 324.867 617.741C324.861 617.754 324.854 617.767 324.848 617.78C324.845 617.787 324.842 617.796 324.835 617.803C324.81 617.852 324.787 617.905 324.765 617.957C324.765 617.961 324.765 617.964 324.762 617.97C324.762 617.97 324.762 617.964 324.765 617.964C324.71 618.105 324.682 618.256 324.73 618.404C324.755 618.486 324.784 618.571 324.822 618.65C324.877 618.769 324.957 618.854 325.053 618.936C325.107 618.995 325.171 619.038 325.245 619.061C325.28 619.084 325.318 619.103 325.357 619.113C325.398 619.126 325.44 619.133 325.482 619.136C325.6 619.169 325.722 619.166 325.84 619.136C325.882 619.126 325.923 619.117 325.965 619.1C326.077 619.061 326.189 619.018 326.298 618.966L326.477 618.834C326.563 618.755 326.627 618.663 326.666 618.555C326.707 618.486 326.73 618.414 326.733 618.332C326.762 618.213 326.762 618.095 326.733 617.977L326.736 617.967Z" fill="#EFD5C6"/>
    <path d="M156.154 220.857C154.115 215.787 137.875 216.447 136.829 219.695C135.782 222.943 142.096 321.665 143.875 325.271C145.651 328.877 163.469 327.425 165.309 323.55C167.149 319.672 158.112 225.731 156.157 220.86L156.154 220.857Z" fill="#E9674D"/>
    <path d="M141.51 232.197C141.718 232.19 141.92 232.122 142.07 231.97C142.144 231.898 142.221 231.826 142.298 231.757C142.611 231.481 142.739 231.11 142.762 230.7C142.774 230.447 142.797 230.194 142.829 229.941C142.835 229.901 142.842 229.862 142.848 229.823C142.902 229.524 142.922 229.268 142.848 228.966C142.79 228.719 142.73 228.496 142.55 228.299C142.374 228.102 142.131 227.957 141.862 227.961C141.555 227.964 141.277 228.069 141.056 228.299C140.928 228.43 140.797 228.571 140.698 228.726C140.515 229.002 140.464 229.406 140.41 229.731C140.349 230.099 140.259 230.516 140.304 230.89C140.342 231.225 140.483 231.514 140.723 231.747C140.794 231.816 140.867 231.882 140.941 231.944C141.101 232.085 141.286 232.207 141.51 232.2V232.197Z" fill="#F7A800"/>
    <path d="M141.171 236.716C141.405 236.716 141.622 236.637 141.808 236.496C142.154 236.236 142.314 235.787 142.214 235.353C142.202 235.294 142.189 235.238 142.179 235.179C142.154 235.028 142.099 234.88 142.026 234.745C141.981 234.663 141.946 234.578 141.907 234.489C141.888 234.433 141.872 234.381 141.85 234.325C141.811 234.227 141.789 234.167 141.738 234.089C141.715 234.053 141.693 234.02 141.674 233.984C141.555 233.777 141.434 233.593 141.235 233.455C141.197 233.429 141.155 233.402 141.117 233.373L140.922 233.284C140.819 233.248 140.714 233.241 140.608 233.264C140.426 233.287 140.301 233.363 140.154 233.475C139.93 233.649 139.779 233.885 139.715 234.167C139.68 234.328 139.661 234.493 139.638 234.654C139.616 234.818 139.654 234.992 139.699 235.153C139.763 235.389 139.856 235.619 139.955 235.842C140.096 236.151 140.349 236.361 140.621 236.545C140.707 236.585 140.794 236.624 140.883 236.663C140.976 236.677 141.072 236.693 141.165 236.706L141.171 236.716Z" fill="#F7A800"/>
    <path d="M143.837 238.056C143.837 238.056 143.834 238.053 143.83 238.049C143.862 238.092 143.891 238.138 143.923 238.181C143.894 238.138 143.866 238.099 143.834 238.056H143.837Z" fill="#F7A800"/>
    <path d="M143.792 237.993C143.805 238.01 143.817 238.03 143.83 238.046C143.826 238.04 143.823 238.033 143.817 238.026C143.808 238.013 143.798 238.003 143.792 237.99V237.993Z" fill="#F7A800"/>
    <path d="M142.97 240.552C143.235 240.542 143.514 240.46 143.702 240.256C143.885 240.062 143.974 239.836 144.006 239.576C144.006 239.589 144.003 239.603 144 239.616C144.01 239.543 144.029 239.471 144.045 239.402C144.067 239.297 144.093 239.163 144.09 239.054C144.09 239.018 144.086 238.982 144.086 238.946C144.086 238.883 144.093 238.821 144.093 238.759C144.106 238.483 143.984 238.259 143.827 238.049C143.68 237.849 143.45 237.704 143.197 237.714C143.446 237.754 143.482 237.757 143.306 237.731C143.267 237.718 143.226 237.711 143.187 237.714C143.178 237.714 143.168 237.714 143.158 237.714C142.966 237.727 142.813 237.747 142.64 237.842C142.426 237.961 142.269 238.164 142.15 238.381C142.109 238.46 142.074 238.539 142.038 238.621C142.006 238.67 141.984 238.726 141.974 238.785L141.933 239.077C141.933 239.103 141.93 239.133 141.926 239.159C141.923 239.261 141.926 239.363 141.936 239.465C141.93 239.609 141.955 239.744 142.016 239.869C142.054 240.003 142.125 240.118 142.224 240.217C142.403 240.41 142.704 240.558 142.97 240.548V240.552Z" fill="#F7A800"/>
    <path d="M140.125 223.921C140.33 223.852 140.416 223.649 140.326 223.445C140.285 223.35 140.227 223.258 140.179 223.163C140.173 223.14 140.166 223.12 140.16 223.097C140.154 223.064 140.147 223.031 140.141 223.002C140.141 222.969 140.134 222.936 140.134 222.9C140.134 222.762 140.109 222.627 140.093 222.493C140.102 222.568 140.109 222.644 140.118 222.719C140.106 222.614 140.106 222.506 140.112 222.401C140.125 222.213 140.086 222.036 140.064 221.852L140.093 222.099C140.077 221.957 140.064 221.829 140.022 221.698C140.003 221.642 139.99 221.586 139.978 221.527C139.923 221.255 139.69 221.028 139.437 220.952C139.19 220.88 138.858 220.936 138.678 221.143C138.576 221.261 138.474 221.386 138.397 221.521C138.272 221.741 138.224 222.007 138.218 222.259C138.211 222.502 138.32 222.752 138.419 222.966C138.477 223.09 138.554 223.199 138.634 223.31C138.822 223.573 139.133 223.744 139.427 223.855C139.635 223.934 139.91 223.993 140.125 223.921V223.921Z" fill="#F7A800"/>
    <path d="M147.757 321.665C147.805 321.685 147.853 321.691 147.907 321.688C148.051 321.724 148.192 321.718 148.336 321.675C148.653 321.583 148.931 321.369 149.082 321.064C149.149 320.923 149.216 320.778 149.264 320.627C149.312 320.476 149.328 320.309 149.347 320.151C149.357 320.089 149.36 320.023 149.36 319.961C149.36 319.839 149.354 319.704 149.322 319.596C149.299 319.511 149.251 319.386 149.21 319.307C149.165 319.228 149.094 319.14 149.04 319.067C148.931 318.923 148.781 318.801 148.634 318.699C148.41 318.545 148.122 318.539 147.878 318.637C147.773 318.67 147.68 318.729 147.6 318.811C147.488 318.92 147.411 319.051 147.37 319.202C147.36 319.258 147.341 319.307 147.322 319.36C147.27 319.471 147.238 319.563 147.219 319.698C147.219 319.718 147.216 319.737 147.213 319.757C147.203 319.803 147.187 319.849 147.174 319.892C147.168 319.898 147.165 319.908 147.162 319.915C147.155 319.924 147.146 319.938 147.139 319.947C147.053 320.079 147.008 320.24 146.986 320.394C146.963 320.548 146.96 320.699 146.998 320.854C147.04 321.025 147.13 321.163 147.232 321.3C147.299 321.392 147.373 321.475 147.488 321.54C147.542 321.57 147.699 321.645 147.76 321.662L147.757 321.665Z" fill="#F7A800"/>
    <path d="M147.27 321.363C147.254 321.343 147.245 321.323 147.232 321.304C147.19 321.248 147.152 321.195 147.107 321.133C147.162 321.209 147.216 321.287 147.27 321.363V321.363Z" fill="#F7A800"/>
    <path d="M146.205 325.455C146.336 325.461 146.461 325.435 146.579 325.376C146.704 325.337 146.81 325.271 146.902 325.172C146.986 325.09 147.046 324.995 147.098 324.893C147.158 324.824 147.21 324.749 147.235 324.657C147.315 324.509 147.35 324.348 147.347 324.177C147.347 324.158 147.35 324.138 147.354 324.115C147.36 324.079 147.363 324.043 147.37 324.003C147.366 323.888 147.354 323.773 147.328 323.662C147.29 323.501 147.242 323.402 147.165 323.281C147.149 323.255 147.133 323.228 147.117 323.199C146.963 322.933 146.72 322.722 146.429 322.634C146.214 322.571 146.048 322.575 145.834 322.621C145.485 322.696 145.206 322.975 145.05 323.294C144.954 323.442 144.899 323.606 144.89 323.78C144.874 323.842 144.864 323.908 144.864 323.97C144.854 324.233 144.931 324.391 145.027 324.627C145.046 324.67 145.066 324.716 145.085 324.755C145.226 325.041 145.51 325.264 145.818 325.353C145.939 325.409 146.067 325.445 146.202 325.448L146.205 325.455Z" fill="#F7A800"/>
    <path d="M151.408 227.189C151.728 227.179 152.061 227.077 152.288 226.834C152.525 226.581 152.669 226.273 152.678 225.915C152.685 225.734 152.698 225.553 152.72 225.373C152.755 225.097 152.672 224.841 152.621 224.575C152.586 224.483 152.55 224.391 152.515 224.299C152.458 224.22 152.4 224.138 152.346 224.059C152.17 223.869 151.939 223.76 151.69 223.721C151.238 223.652 150.813 223.862 150.56 224.253C150.512 224.328 150.464 224.404 150.419 224.483C150.349 224.604 150.285 224.729 150.243 224.87C150.208 224.989 150.195 225.176 150.182 225.32C150.166 225.507 150.163 225.695 150.17 225.885C150.179 226.217 150.291 226.545 150.515 226.788C150.73 227.021 151.091 227.199 151.411 227.189H151.408Z" fill="#F6ECEA"/>
    <path d="M150.365 230.407C150.528 230.414 150.682 230.384 150.826 230.309C150.928 230.282 151.021 230.23 151.098 230.154C151.235 230.069 151.341 229.954 151.424 229.806C151.469 229.704 151.51 229.603 151.555 229.498C151.597 229.343 151.603 229.189 151.587 229.034C151.59 229.071 151.597 229.107 151.6 229.143C151.6 229.133 151.6 229.12 151.6 229.11C151.6 229.103 151.6 229.097 151.6 229.09C151.6 228.841 151.578 228.795 151.504 228.604C151.478 228.509 151.43 228.427 151.37 228.351C151.382 228.368 151.395 228.388 151.408 228.404C151.402 228.397 151.398 228.391 151.395 228.384C151.389 228.371 151.376 228.361 151.37 228.348C151.363 228.342 151.363 228.328 151.354 228.322C151.328 228.269 151.296 228.227 151.254 228.187C151.254 228.184 151.248 228.181 151.245 228.177C151.238 228.171 151.235 228.164 151.229 228.158C151.155 228.072 151.072 228 150.973 227.938C150.787 227.823 150.586 227.764 150.368 227.757C150.16 227.757 149.965 227.806 149.779 227.908C149.597 228.013 149.45 228.154 149.341 228.338C149.334 228.348 149.325 228.361 149.318 228.374C149.315 228.381 149.312 228.388 149.309 228.394C149.309 228.397 149.309 228.401 149.306 228.404C149.21 228.552 149.158 228.713 149.149 228.883C149.11 229.048 149.114 229.212 149.162 229.379C149.2 229.481 149.242 229.586 149.28 229.688C149.28 229.695 149.286 229.701 149.29 229.711C149.296 229.727 149.306 229.741 149.315 229.757C149.389 229.905 149.491 230.026 149.622 230.118C149.741 230.236 149.882 230.315 150.045 230.355C150.154 230.371 150.262 230.388 150.368 230.404L150.365 230.407Z" fill="#F6ECEA"/>
    <path d="M160.384 319.898C160.403 319.898 160.422 319.895 160.442 319.892C160.502 319.898 160.563 319.898 160.621 319.878C160.672 319.862 160.714 319.829 160.762 319.8C160.755 319.806 160.752 319.81 160.746 319.816C160.768 319.806 160.79 319.796 160.816 319.787C160.95 319.711 161.056 319.606 161.136 319.471C161.213 319.343 161.251 319.202 161.258 319.054C161.261 319.038 161.264 319.021 161.267 319.005C161.28 318.962 161.286 318.92 161.286 318.874C161.309 318.795 161.309 318.713 161.29 318.631C161.286 318.585 161.28 318.542 161.274 318.496C161.245 318.424 161.216 318.351 161.19 318.276C161.146 318.213 161.101 318.148 161.056 318.085C161.043 318.076 161.034 318.066 161.021 318.056C161.014 318.049 161.008 318.046 161.002 318.039C160.96 318.003 160.918 317.967 160.87 317.931C160.87 317.931 160.864 317.928 160.861 317.924C160.861 317.924 160.864 317.928 160.867 317.931C160.749 317.842 160.611 317.777 160.458 317.79C160.374 317.796 160.288 317.806 160.205 317.823C160.08 317.849 159.981 317.908 159.878 317.984C159.808 318.023 159.754 318.076 159.712 318.144C159.68 318.174 159.654 318.207 159.635 318.243C159.613 318.282 159.597 318.322 159.584 318.361C159.526 318.473 159.498 318.591 159.501 318.719C159.501 318.762 159.501 318.808 159.504 318.851C159.514 318.972 159.526 319.094 159.552 319.212L159.632 319.422C159.683 319.527 159.757 319.612 159.85 319.678C159.904 319.737 159.968 319.777 160.045 319.8C160.147 319.859 160.259 319.885 160.381 319.882L160.384 319.898Z" fill="#F6ECEA"/>
    <g opacity="0.7">
        <path d="M353.923 19.0903C351.968 19.6782 197.674 93.4943 193.898 96.3678C190.122 99.2414 209.062 126.256 209.36 124.949C209.658 123.645 369.126 54.5189 369.126 54.5189L353.926 19.087L353.923 19.0903Z" fill="#2D2D2E"/>
        <path d="M202.544 50.1445C197.526 51.0476 171.293 56.6371 168.077 59.2381C164.864 61.8391 203.229 166.118 207.274 170.013C211.315 173.905 243.024 161.846 246.365 158.355C249.709 154.864 206.912 49.3596 202.544 50.1478V50.1445Z" fill="#3F3F41"/>
        <path d="M366.672 93.3859C371.658 92.4893 397.709 86.9393 400.899 84.3547C404.09 81.7734 365.99 -21.7865 361.974 -25.6552C357.958 -29.5205 326.47 -17.5435 323.152 -14.0788C319.834 -10.6141 362.333 94.1642 366.672 93.3826V93.3859Z" fill="#3F3F41"/>
    </g>
    <path d="M34.0449 569.961C29.1873 574.46 -26.1503 671.238 -28.1439 675.77C-30.1407 680.302 9.82086 707.931 13.0817 706.167C16.3393 704.404 79.0305 607.924 80.6017 603.557C82.1697 599.189 77.9297 575.869 77.8177 572.903C77.7057 569.938 82.4385 566.44 81.6161 565.813C72.2625 558.677 69.1361 557.113 69.1361 557.113C69.1361 557.113 66.2849 561.977 64.6049 563.383C62.9217 564.785 38.2401 566.079 34.0513 569.957L34.0449 569.961Z" fill="#7AC6D7"/>
    <path d="M71.4113 551.56C69.9905 552.289 66.2177 558.69 66.2273 559.471C66.2369 560.253 79.8305 569.882 80.7233 569.944C81.6161 570.007 86.6369 563.044 86.8577 562.302C87.0785 561.563 72.2177 551.143 71.4113 551.557V551.56Z" fill="#4E808E"/>
    <path d="M73.1104 555.941C73.2032 555.721 73.2896 555.494 73.3824 555.274C73.5744 554.808 73.5136 554.302 73.0912 553.987C72.6976 553.691 72.1568 553.737 71.808 554.095C71.6448 554.263 71.4784 554.427 71.3184 554.598C71.1072 554.821 70.9408 555.087 70.768 555.34L70.0128 556.44C69.7472 556.824 69.4176 557.212 69.2192 557.635C69.024 558.053 68.928 558.414 69.0304 558.88C69.088 559.136 69.1808 559.366 69.3952 559.524C69.6096 559.681 69.8368 559.708 70.0896 559.665C70.3712 559.619 70.592 559.576 70.8192 559.389C70.9376 559.294 71.0464 559.195 71.1488 559.08C71.5008 558.69 71.7568 558.187 72.0352 557.737C72.2784 557.346 72.5184 556.956 72.7616 556.562C72.8864 556.358 73.0208 556.161 73.1136 555.938L73.1104 555.941Z" fill="#3A616C"/>
    <path d="M76.2337 558.571C76.3745 558.167 76.4833 557.75 76.5953 557.337C76.7105 556.91 76.4385 556.46 76.0545 556.309C75.6289 556.144 75.2289 556.335 74.9857 556.709C74.8577 556.906 74.7233 557.103 74.5921 557.297C74.5697 557.327 74.5697 557.333 74.5633 557.343C74.5569 557.353 74.5505 557.36 74.5249 557.396C74.4289 557.527 74.3265 557.655 74.2433 557.793C74.0129 558.164 73.8081 558.552 73.5745 558.923C73.4657 559.094 73.3569 559.264 73.2449 559.432C73.1809 559.53 73.1137 559.629 73.0465 559.724C73.0145 559.773 72.8001 560.076 72.9697 559.836C72.7649 560.125 72.6465 560.417 72.5953 560.765C72.5217 561.268 72.7169 561.78 73.2033 561.97C73.5841 562.118 73.9393 562.016 74.2721 561.803C74.5729 561.612 74.7649 561.373 74.9473 561.071C75.1745 560.696 75.3889 560.319 75.5937 559.931C75.8273 559.491 76.0737 559.041 76.2369 558.568L76.2337 558.571Z" fill="#3A616C"/>
    <path d="M79.52 560.926C79.744 560.456 80.0512 559.954 79.9968 559.422C79.9264 558.749 79.2928 558.391 78.704 558.703C78.2496 558.946 78.0192 559.458 77.7408 559.882C77.6256 560.056 77.5104 560.23 77.392 560.404C77.328 560.496 77.264 560.591 77.2 560.683C77.1648 560.732 77.0016 560.975 77.152 560.752C76.88 561.159 76.5504 561.524 76.2912 561.941C76.1888 562.102 76.0864 562.266 75.9936 562.433C75.7888 562.808 75.776 563.186 75.9104 563.583C76.0448 563.993 76.4 564.256 76.8224 564.259C77.216 564.259 77.5808 564.138 77.8464 563.823C77.968 563.678 78.08 563.517 78.192 563.366C78.4928 562.956 78.7264 562.502 78.9632 562.049C79.1552 561.678 79.344 561.304 79.5232 560.926H79.52Z" fill="#3A616C"/>
    <path d="M83.3409 561.639C83.3761 560.936 82.5377 560.578 82.0033 560.897C81.5969 561.14 81.3089 561.645 81.0017 562.01C80.7041 562.365 80.4001 562.716 80.0993 563.064C79.7953 563.415 79.4785 563.757 79.1553 564.092C79.0017 564.25 78.8737 564.417 78.7457 564.594C78.6369 564.745 78.5089 564.89 78.4161 565.051C78.2177 565.389 78.2657 565.734 78.3233 566.099C78.4161 566.67 79.0145 566.923 79.4977 566.966C80.1569 567.025 80.7393 566.361 81.1009 565.859C81.4305 565.402 81.7505 564.939 82.0513 564.463C82.3009 564.069 82.5281 563.665 82.7361 563.245C82.9857 562.745 83.3121 562.207 83.3377 561.639H83.3409Z" fill="#3A616C"/>
    <path d="M39.0784 574.02C32.9824 575.521 -18.7104 666.647 -19.6 672.22C-20.4896 677.793 8.39041 699.77 11.9712 697.015C15.5552 694.259 74.3424 606.581 75.4272 602.512C76.512 598.443 42.432 573.195 39.0784 574.02V574.02Z" fill="#A3D4E4"/>
    <path d="M76.064 583.695C76.6656 582.742 76.4288 581.632 76.2752 580.591C76.1792 579.938 76.0832 579.284 75.9872 578.634C75.872 577.862 75.7056 577.12 75.424 576.391C75.312 576.102 75.2064 575.81 75.0848 575.527C74.9184 575.143 74.6304 574.841 74.3616 574.529C73.8976 573.99 72.8864 574.099 72.5728 574.759C72.3872 575.149 72.1792 575.53 72.1216 575.964C72.0672 576.358 72.0224 576.752 71.984 577.149C71.9104 577.931 72.0096 578.716 72.0992 579.494C72.176 580.151 72.2528 580.811 72.3296 581.468C72.368 581.796 72.3872 582.131 72.4448 582.453C72.544 583.028 72.8416 583.662 73.2704 584.056C74.1536 584.864 75.408 584.736 76.064 583.698V583.695Z" fill="#D0E7E9"/>
    <path d="M77.5456 592.345C77.5936 592.289 77.6448 592.243 77.6864 592.171C77.8304 591.915 77.856 591.724 77.888 591.438C77.9008 591.314 77.904 591.205 77.8912 591.08C77.8784 590.962 77.8688 590.841 77.856 590.722C77.8112 590.296 77.8144 590.342 77.6608 589.944C77.6384 589.888 77.616 589.829 77.5936 589.773C77.552 589.668 77.5104 589.563 77.4688 589.458C77.3952 589.271 77.2832 589.113 77.1488 588.966C76.9088 588.7 76.6336 588.548 76.304 588.466C76.2208 588.345 76.032 588.365 75.9872 588.512C75.7056 588.67 75.4848 588.877 75.328 589.179C75.2832 589.268 75.248 589.353 75.2096 589.448C75.1392 589.626 75.12 589.796 75.0976 589.984C75.0816 590.112 75.0688 590.243 75.056 590.371C75.0368 590.552 75.024 590.696 75.0464 590.88C75.0656 591.051 75.0944 591.218 75.1232 591.386C75.1456 591.517 75.1776 591.635 75.2256 591.764C75.3216 592.013 75.4016 592.246 75.6032 592.44C75.6672 592.499 75.7344 592.542 75.8016 592.585C76.0608 592.841 76.352 593.054 76.7424 593.002C77.1392 592.949 77.3632 592.667 77.5488 592.345H77.5456Z" fill="#D0E7E9"/>
    <path d="M66.5217 610.906C66.2497 609.146 63.8753 607.892 62.5857 606.867C61.1041 605.691 59.6097 604.532 58.0961 603.399C55.1617 601.199 52.1696 599.084 49.1136 597.067C46.1632 595.12 43.1585 593.195 40.0193 591.58C36.9857 590.02 33.6001 588.099 30.1857 587.718C28.8929 587.573 28.8065 589.3 29.5969 589.924C30.9249 590.975 32.5569 591.744 34.0449 592.535C35.5713 593.346 37.0721 594.2 38.5569 595.084C41.5393 596.86 44.4864 598.67 47.3632 600.624C50.3296 602.644 53.2448 604.742 56.1088 606.913C57.472 607.947 58.8256 608.995 60.1632 610.069C61.4688 611.117 63.1201 613.156 64.8705 613.064C66.0289 613.002 66.7041 612.049 66.5249 610.906H66.5217Z" fill="#7AC6D7"/>
    <path d="M59.392 622.259C59.6032 621.652 59.3728 620.801 58.912 620.371C53.7504 615.56 48.1664 611.133 42.1856 607.438C39.232 605.613 36.2304 603.849 33.1712 602.217C31.68 601.419 30.1696 600.663 28.672 599.882C27.856 599.458 27.0432 599.025 26.24 598.571C25.472 598.138 24.7584 597.599 23.8976 597.392C22.64 597.094 21.9616 598.535 22.6976 599.491C23.6544 600.736 25.4656 601.498 26.7968 602.263C28.2592 603.107 29.7504 603.905 31.2288 604.719C34.2752 606.394 37.2448 608.191 40.1024 610.187C45.744 614.135 51.1296 618.401 56.1888 623.113C56.8576 623.737 57.6736 623.836 58.48 623.455C59.0048 623.209 59.2128 622.782 59.3952 622.256L59.392 622.259Z" fill="#7AC6D7"/>
    <path d="M49.1521 626.588C48.6209 625.057 48.8225 625.228 47.8817 624.522C47.3185 624.102 46.7521 623.681 46.1857 623.264C44.9889 622.384 43.7697 621.54 42.5409 620.709C40.0833 619.051 37.5937 617.438 35.0785 615.872C32.6273 614.345 30.1537 612.864 27.6513 611.425C26.3681 610.686 25.0657 609.98 23.7601 609.278C22.4513 608.575 21.2033 607.724 19.6769 607.79C18.8897 607.823 18.2561 608.703 18.7073 609.461C19.4337 610.69 20.5313 611.251 21.7089 611.951C22.9825 612.709 24.2433 613.484 25.5105 614.253C27.9777 615.75 30.4257 617.284 32.8449 618.864C37.6801 622.023 42.4033 625.373 47.0881 628.762C47.6961 629.202 48.9089 629.09 49.3857 628.466C49.9745 627.698 49.7057 628.184 49.1521 626.588V626.588Z" fill="#7AC6D7"/>
</svg>
