<svg width="299" height="296" viewBox="0 0 299 296" fill="none" xmlns="http://www.w3.org/2000/svg">
    <defs>
        <clipPath id="clip0_492_1021">
            <rect width="299" height="296" fill="white"/>
        </clipPath>
    </defs>
    <g clip-path="url(#clip0_492_1021)">
        <path d="M147.685 273.444C219.11 273.444 277.011 215.448 277.011 143.906C277.011 72.3646 219.11 14.3687 147.685 14.3687C76.2609 14.3687 18.36 72.3646 18.36 143.906C18.36 215.448 76.2609 273.444 147.685 273.444Z" fill="#7BD1BC"/>
        <g style="mix-blend-mode:multiply" opacity="0.5">
            <path d="M293.25 130.386C288.532 124.695 281.949 121.633 275.585 118.666C272.707 117.328 269.725 115.942 267.025 114.341C257.99 109.002 251.957 100.242 250.49 90.3019C247.935 73.0569 260.71 55.736 274.89 46.9824L276.219 48.6311C276.942 49.5278 278.257 49.6727 279.153 48.9484C279.848 48.3827 280.082 47.4653 279.821 46.6582L286.005 41.671C287.795 40.2293 288.078 37.6081 286.638 35.8146C285.199 34.0211 282.582 33.7383 280.792 35.18L274.607 40.1672C273.877 39.7326 272.934 39.7671 272.231 40.3328C271.336 41.0571 271.191 42.3746 271.915 43.2713L273.154 44.8165C258.32 54.1288 245.05 72.4085 247.763 90.702C249.361 101.47 255.869 110.948 265.627 116.707C268.444 118.37 271.481 119.784 274.421 121.157C280.792 124.123 286.811 126.923 291.128 132.131C295.35 137.222 297.113 144.148 295.839 150.639C293.876 160.675 284.621 173.485 251.661 177.479C236.303 179.341 207.724 182.804 204.315 207.809C203.11 216.653 205.361 225.654 207.565 233.387C207.999 234.918 208.564 236.602 209.163 238.388C211.174 244.389 213.674 251.853 212.29 257.033C211.002 261.834 207.248 266.629 202.696 269.546L201.305 267.277C200.699 266.291 199.418 265.987 198.433 266.587C197.669 267.056 197.318 267.939 197.483 268.774L190.713 272.933C188.758 274.134 188.145 276.7 189.343 278.659C190.541 280.618 193.103 281.232 195.059 280.031L201.829 275.872C202.497 276.396 203.44 276.486 204.205 276.01C205.189 275.403 205.492 274.12 204.893 273.133L204.129 271.892C209.252 268.608 213.488 263.186 214.941 257.751C216.539 251.77 213.894 243.865 211.766 237.519C211.181 235.767 210.623 234.104 210.203 232.635C208.075 225.165 205.899 216.501 207.028 208.182C209.907 187.06 231.738 182.673 251.978 180.217C286.583 176.023 296.397 162.103 298.532 151.17C299.957 143.872 297.981 136.091 293.236 130.365L293.25 130.386Z" fill="#91D9CA"/>
        </g>
        <path d="M198.296 270.719C204.211 268.167 209.817 262.11 211.511 255.771C213.426 248.625 208.729 238.229 206.78 231.387C204.459 223.24 202.421 214.762 203.564 206.374C206.663 183.646 231.214 179.472 249.712 177.23C266.46 175.202 291.239 168.918 295.081 149.287C296.424 142.43 294.531 135.008 290.075 129.627C283.443 121.626 272.851 118.997 264.215 113.893C255.008 108.457 248.596 99.5451 247.012 88.8739C244.196 69.8975 259.105 50.8728 275.048 42.4573" stroke="#003659" stroke-width="4" stroke-miterlimit="10" stroke-linecap="round"/>
        <path d="M276.536 45.9753L271.322 39.4911L278.684 33.5589C280.475 32.1172 283.092 32.4 284.531 34.1935C285.97 35.987 285.688 38.6082 283.897 40.0499L276.536 45.9822V45.9753Z" fill="#FFD766"/>
        <path d="M273.058 39.022L277.362 44.3749C278.085 45.2716 277.94 46.5891 277.045 47.3134C276.15 48.0377 274.835 47.8928 274.111 46.9961L269.807 41.6433C269.084 40.7465 269.229 39.429 270.124 38.7047C271.019 37.9804 272.335 38.1253 273.058 39.022V39.022Z" fill="#E18558"/>
        <path d="M196.664 266.359L201.016 273.457L192.965 278.41C191.01 279.61 188.448 278.996 187.249 277.037C186.051 275.078 186.664 272.512 188.62 271.312L196.67 266.359H196.664Z" fill="#FFD766"/>
        <path d="M199.232 273.699L195.644 267.836C195.038 266.849 195.348 265.566 196.333 264.959C197.318 264.352 198.599 264.662 199.205 265.649L202.793 271.512C203.399 272.499 203.089 273.782 202.104 274.389C201.119 274.996 199.838 274.685 199.232 273.699Z" fill="#E18558"/>
        <g style="mix-blend-mode:multiply" opacity="0.5">
            <path d="M243.693 100.931C244.023 101.007 244.361 101.069 244.691 101.131C244.767 101.145 244.843 101.159 244.912 101.173C245.222 101.228 245.538 101.276 245.848 101.318C245.945 101.332 246.041 101.345 246.145 101.359C246.441 101.394 246.737 101.428 247.033 101.456C247.15 101.469 247.267 101.476 247.384 101.49C247.666 101.511 247.949 101.532 248.231 101.538C248.362 101.538 248.493 101.552 248.631 101.559C248.899 101.566 249.175 101.573 249.443 101.573C249.588 101.573 249.733 101.573 249.877 101.573C250.139 101.573 250.394 101.559 250.655 101.545C250.814 101.538 250.972 101.532 251.131 101.518C251.378 101.504 251.626 101.483 251.881 101.463C252.046 101.449 252.212 101.428 252.384 101.414C252.625 101.387 252.866 101.359 253.107 101.325C253.279 101.297 253.458 101.276 253.63 101.249C253.865 101.214 254.092 101.173 254.326 101.131C254.505 101.097 254.684 101.062 254.87 101.021C255.097 100.973 255.318 100.925 255.545 100.876C255.731 100.835 255.917 100.787 256.103 100.738C256.316 100.683 256.537 100.628 256.75 100.566C256.943 100.511 257.129 100.449 257.322 100.393C257.528 100.331 257.735 100.262 257.941 100.193C258.134 100.124 258.334 100.055 258.527 99.9864C258.727 99.9105 258.926 99.8416 259.126 99.7657C259.326 99.6898 259.519 99.6001 259.718 99.5173C259.911 99.4346 260.104 99.3587 260.297 99.269C260.496 99.1793 260.696 99.0828 260.896 98.9862C261.082 98.8965 261.261 98.8137 261.447 98.7172C261.653 98.6137 261.853 98.5033 262.06 98.393C262.232 98.2964 262.411 98.2067 262.583 98.1101C262.79 97.9929 262.996 97.8618 263.21 97.7377C263.368 97.6411 263.533 97.5445 263.692 97.441C263.912 97.3031 264.126 97.1513 264.339 97.0065C264.484 96.9099 264.628 96.8133 264.773 96.7099C265.014 96.5374 265.248 96.3581 265.482 96.1787C265.599 96.089 265.717 96.0063 265.834 95.9166C266.178 95.6407 266.522 95.3578 266.86 95.0612C268.134 93.9438 269.27 92.7297 270.282 91.4398C274.828 85.6317 276.639 78.2922 275.599 71.2493C275.592 71.2011 275.585 71.1528 275.578 71.0976C274.841 66.3104 272.796 61.668 269.373 57.75C268.912 57.2188 268.43 56.7222 267.941 56.2393C267.865 56.1634 267.789 56.0875 267.714 56.0117C267.225 55.5426 266.722 55.0942 266.205 54.6735C266.15 54.6252 266.088 54.5769 266.033 54.5355C264.911 53.6319 263.733 52.8317 262.514 52.135C259.904 50.6588 257.094 49.6517 254.202 49.1275C253.555 49.0102 252.907 48.9136 252.253 48.8515C247.005 48.2997 241.606 49.3206 236.82 51.9556C236.407 52.1833 235.994 52.4247 235.587 52.6799C235.567 52.6937 235.546 52.7006 235.525 52.7144C235.112 52.9765 234.699 53.2456 234.299 53.5284C234.299 53.5284 234.299 53.5284 234.293 53.5284C233.556 54.0526 232.839 54.6114 232.151 55.2184C225.533 61.0058 222.502 69.3731 223.232 77.5127C223.68 82.5345 225.567 87.4734 228.928 91.6674C229.155 91.9571 229.389 92.24 229.637 92.5228C233.445 96.8892 238.369 99.6898 243.603 100.89C243.645 100.897 243.686 100.911 243.734 100.918L243.693 100.931Z" fill="#91D9CA"/>
        </g>
        <path d="M268.453 77.4826C271.329 63.1672 262.076 49.2266 247.784 46.3453C233.492 43.464 219.574 52.7332 216.697 67.0485C213.821 81.3639 223.075 95.3045 237.367 98.1858C251.659 101.067 265.576 91.7979 268.453 77.4826Z" fill="white"/>
        <path d="M268.361 66.6761C259.119 54.915 245.18 56.7084 241.179 57.5224C242.095 54.2735 243.948 50.4933 247.253 46.2442C246.606 46.1269 245.959 46.0303 245.304 45.9683C239.161 54.1976 238.376 60.7714 238.858 64.924C239.292 68.642 240.752 71.0839 241.462 72.0772C240.332 73.4913 236.668 77.2024 229.293 77.3748C228.611 76.4436 220.436 63.841 229.871 49.0724C229.004 49.5483 228.156 50.0726 227.337 50.652C220.189 63.4133 225.175 73.9258 227.227 77.3266C224.155 77.1334 220.526 76.3401 216.277 74.6363C216.332 75.2848 216.415 75.9263 216.518 76.5678C221.325 78.3889 225.374 79.058 228.701 79.058C232.027 79.058 234.83 78.3544 236.806 77.5059C240.484 75.9332 242.426 73.643 243.059 72.7946C244.45 72.5945 249.188 72.291 254.381 76.285C253.575 77.4783 240.993 93.5645 221.352 87.984C221.773 88.5496 222.206 89.1083 222.682 89.6464C222.826 89.8119 222.978 89.9637 223.122 90.1293C225.739 90.5914 228.666 90.7432 230.698 90.7432C245.573 90.7432 254.477 79.0925 255.696 77.3817C258.313 79.7547 260.985 83.2933 263.341 88.5427C263.747 88.0254 264.133 87.4942 264.491 86.9562C259.959 77.3679 254.36 73.5465 250.387 72.0496C246.895 70.7321 244.058 70.9114 242.853 71.0908C241.978 69.8974 239.533 65.8276 240.745 59.3711C242.804 58.8261 258.809 55.1495 268.313 69.5318C268.437 69.725 268.63 69.8491 268.843 69.8905C268.747 68.8144 268.588 67.7383 268.361 66.6761V66.6761Z" fill="#FEA364"/>
        <g style="mix-blend-mode:multiply" opacity="0.68">
            <path d="M262.438 54.8598C260.421 52.549 258.093 50.6797 255.566 49.2449C255.958 49.645 256.351 50.0519 256.723 50.4796C266.316 61.475 265.186 78.182 254.209 87.784C245.539 95.3718 233.315 96.2547 223.832 90.8812C233.563 100.704 249.368 101.394 259.918 92.1642C270.895 82.5553 272.025 65.8553 262.432 54.8598H262.438Z" fill="#E5E5E5"/>
        </g>
        <g style="mix-blend-mode:multiply" opacity="0.5">
            <path d="M288.518 138.291C288.56 137.512 288.58 136.725 288.58 135.946C288.58 132.821 288.27 129.696 287.623 126.641C287.479 125.965 287.355 125.289 287.258 124.606C286.652 120.515 286.797 116.349 287.582 112.279C287.713 111.603 287.864 110.927 288.029 110.258L291.838 98.0691C292.079 97.0826 292.051 95.9721 291.79 94.8822C291.225 92.4886 289.551 90.2053 287.279 89.6742C287.058 89.619 286.831 89.5845 286.597 89.5569C286.597 89.5569 286.583 89.5569 286.576 89.5569C286.349 89.5293 286.129 89.5155 285.895 89.5155C282.74 89.4811 279.325 91.6125 278.595 94.5718L276.487 107.064C276.15 108.52 275.73 109.947 275.241 111.348H275.22C274.807 112.527 274.332 113.693 273.808 114.831C273.519 115.459 273.209 116.073 272.879 116.68C272.762 116.907 272.631 117.128 272.507 117.356C271.522 119.101 270.393 120.77 269.119 122.329C260.917 132.311 257.246 145.976 259.25 158.744C259.367 159.496 259.512 160.241 259.67 160.986L278.016 165.538C278.843 164.545 279.628 163.517 280.358 162.455C283.016 158.599 285.068 154.322 286.459 149.832C287.616 146.093 288.312 142.202 288.518 138.298V138.291Z" fill="#91D9CA"/>
        </g>
        <path d="M281.831 107.678L285.64 95.4891C286.418 92.3436 284.393 87.8737 281.081 87.0943C277.624 86.2872 273.244 88.598 272.404 91.9918L270.296 104.484C269.002 110.058 266.564 115.335 262.934 119.749C254.732 129.731 251.062 143.396 253.066 156.164C253.183 156.916 253.327 157.661 253.486 158.406L271.832 162.958C272.658 161.965 273.443 160.937 274.173 159.875C281.274 149.604 284.028 136.284 281.432 124.068C280.282 118.659 280.509 113.051 281.831 107.685V107.678Z" fill="#F7F1F5"/>
        <path d="M280.688 115.5C280.743 114.245 280.86 112.996 281.039 111.748L269.022 108.768C268.609 109.954 268.134 111.12 267.61 112.258L280.688 115.507V115.5Z" fill="#FF8F50"/>
        <path d="M280.881 121.129C280.736 119.832 280.661 118.535 280.654 117.232L266.846 113.803C266.254 114.955 265.599 116.073 264.883 117.156L280.881 121.129Z" fill="#FF8F50"/>
        <g style="mix-blend-mode:multiply" opacity="0.68">
            <path d="M285.633 95.4891C286.411 92.3436 284.386 87.8737 281.074 87.0942C280.626 86.9907 280.165 86.9355 279.697 86.9355C281.246 88.7221 281.99 91.433 281.466 93.5438L277.658 105.733C276.329 111.099 276.109 116.707 277.259 122.115C279.855 134.332 277.093 147.652 270 157.923C269.263 158.985 268.485 160.013 267.659 161.006L253.3 157.44C253.362 157.757 253.41 158.082 253.479 158.399L271.825 162.951C272.651 161.958 273.437 160.93 274.167 159.868C281.267 149.597 284.021 136.277 281.425 124.061C280.275 118.653 280.502 113.044 281.825 107.678L285.633 95.4891V95.4891Z" fill="#E5E5E5"/>
        </g>
        <g style="mix-blend-mode:multiply" opacity="0.5">
            <path d="M249.877 211.907C249.918 211.934 249.96 211.962 249.994 211.99C250.256 212.176 250.518 212.355 250.786 212.528C250.828 212.555 250.869 212.583 250.91 212.604C252.026 213.321 253.197 213.962 254.415 214.514C254.512 214.556 254.608 214.604 254.712 214.645C254.946 214.749 255.187 214.845 255.421 214.942C255.559 214.997 255.696 215.052 255.834 215.107C256.055 215.19 256.282 215.28 256.509 215.356C256.667 215.411 256.833 215.466 256.991 215.521C257.205 215.59 257.418 215.666 257.632 215.728C257.838 215.79 258.045 215.846 258.258 215.908C258.527 215.984 258.795 216.053 259.071 216.121C259.353 216.19 259.636 216.259 259.925 216.322C260.09 216.356 260.255 216.384 260.421 216.418C260.669 216.466 260.917 216.508 261.164 216.549C261.337 216.577 261.502 216.597 261.674 216.625C261.929 216.66 262.184 216.694 262.438 216.722C262.604 216.742 262.769 216.756 262.934 216.777C263.217 216.804 263.499 216.825 263.781 216.839C263.919 216.846 264.064 216.86 264.201 216.866C264.628 216.887 265.049 216.901 265.482 216.901C269.201 216.901 272.741 216.149 275.964 214.783C276.363 214.611 276.763 214.431 277.155 214.245C277.94 213.866 278.705 213.452 279.442 213.004C279.814 212.776 280.179 212.541 280.537 212.3C281.253 211.817 281.942 211.3 282.61 210.748C282.94 210.472 283.271 210.189 283.588 209.9C284.228 209.32 284.834 208.706 285.413 208.072C289.758 203.284 292.409 196.917 292.409 189.937C292.409 189.302 292.382 188.674 292.334 188.047C292.327 187.902 292.313 187.75 292.299 187.605C292.244 186.991 292.182 186.377 292.086 185.77C292.079 185.722 292.065 185.674 292.058 185.625C291.969 185.053 291.852 184.494 291.728 183.935C291.7 183.804 291.673 183.673 291.638 183.542C291.493 182.949 291.335 182.37 291.156 181.79C291.135 181.728 291.115 181.659 291.094 181.597C290.922 181.066 290.729 180.535 290.522 180.017C290.481 179.921 290.447 179.817 290.405 179.721C290.171 179.155 289.923 178.603 289.662 178.058C289.634 177.996 289.6 177.941 289.572 177.886C289.31 177.369 289.035 176.858 288.746 176.361C288.711 176.306 288.677 176.244 288.649 176.189C288.332 175.651 287.995 175.127 287.644 174.616C287.616 174.575 287.582 174.527 287.554 174.485C287.196 173.975 286.824 173.478 286.439 172.995C286.432 172.988 286.425 172.975 286.418 172.968C286.012 172.464 285.585 171.981 285.151 171.512C285.13 171.485 285.103 171.464 285.082 171.436C284.194 170.491 283.236 169.615 282.224 168.808C282.21 168.801 282.196 168.787 282.183 168.781C281.157 167.967 280.062 167.222 278.918 166.566C278.918 166.566 278.911 166.566 278.905 166.566C277.755 165.904 276.549 165.325 275.303 164.828C272.259 163.635 268.953 162.972 265.489 162.972C250.621 162.972 238.562 175.051 238.562 189.944C238.562 199.014 243.039 207.03 249.891 211.921L249.877 211.907Z" fill="#91D9CA"/>
        </g>
        <path d="M259.092 214.238C273.963 214.238 286.019 202.163 286.019 187.267C286.019 172.371 273.963 160.296 259.092 160.296C244.22 160.296 232.165 172.371 232.165 187.267C232.165 202.163 244.22 214.238 259.092 214.238Z" fill="#003659"/>
        <g style="mix-blend-mode:multiply" opacity="0.35">
            <path d="M268.898 162.151C275.296 167.084 279.428 174.823 279.428 183.535C279.428 198.428 267.369 210.506 252.501 210.506C249.037 210.506 245.731 209.844 242.687 208.651C247.226 212.148 252.914 214.231 259.085 214.231C273.953 214.231 286.012 202.153 286.012 187.26C286.012 175.83 278.911 166.076 268.898 162.145V162.151Z" fill="#003659"/>
        </g>
        <path d="M269.897 171.512C269.208 173.264 266.763 173.947 264.436 173.03C262.101 172.112 260.772 169.953 261.454 168.201C262.142 166.449 264.587 165.766 266.915 166.683C269.249 167.601 270.579 169.76 269.897 171.512Z" fill="#001826"/>
        <path d="M273.567 183.321C272.879 185.073 270.434 185.756 268.106 184.839C265.772 183.921 264.443 181.762 265.124 180.01C265.806 178.258 268.258 177.575 270.585 178.493C272.92 179.41 274.249 181.569 273.567 183.321Z" fill="#001826"/>
        <path d="M258.623 176.989C257.935 178.741 255.49 179.424 253.162 178.507C250.827 177.589 249.498 175.43 250.18 173.678C250.869 171.926 253.314 171.243 255.641 172.16C257.976 173.078 259.305 175.237 258.623 176.989Z" fill="#001826"/>
        <g style="mix-blend-mode:multiply" opacity="0.5">
            <path d="M71.0088 272.023C71.3876 272.085 71.7663 272.147 72.1382 272.195C72.455 272.236 72.7718 272.271 73.0886 272.312C73.4742 272.361 73.8668 272.402 74.2524 272.436C74.5348 272.464 74.824 272.492 75.1064 272.512C75.6504 272.554 76.1945 272.588 76.7385 272.609C76.8487 272.609 76.9589 272.623 77.076 272.63C77.7027 272.65 78.3294 272.664 78.956 272.664C79.1695 272.664 79.383 272.657 79.5965 272.65C80.0097 272.65 80.416 272.643 80.8292 272.63C81.0909 272.623 81.3457 272.602 81.6074 272.588C81.9724 272.567 82.3374 272.554 82.6955 272.526C82.9779 272.505 83.2533 272.478 83.5288 272.45C83.8663 272.423 84.2106 272.395 84.548 272.354C84.8373 272.319 85.1265 272.278 85.4227 272.243C85.7463 272.202 86.07 272.161 86.3937 272.112C86.6967 272.071 86.9928 272.016 87.2958 271.967C87.6057 271.919 87.9156 271.864 88.2255 271.809C88.5355 271.754 88.8385 271.685 89.1415 271.622C89.4376 271.56 89.7406 271.505 90.0368 271.436C90.3467 271.367 90.6566 271.291 90.9733 271.215C91.2626 271.146 91.5518 271.078 91.8342 271.002C92.151 270.919 92.4678 270.829 92.7777 270.74C93.0531 270.664 93.3355 270.581 93.6109 270.498C93.9277 270.402 94.2514 270.298 94.5682 270.195C94.8368 270.112 95.1054 270.022 95.3671 269.932C95.6907 269.822 96.0075 269.705 96.3312 269.588C96.586 269.491 96.8477 269.401 97.1025 269.305C97.4262 269.181 97.7499 269.05 98.0735 268.918C98.3215 268.822 98.5694 268.718 98.8104 268.615C99.141 268.477 99.4646 268.332 99.7883 268.187C100.022 268.084 100.257 267.973 100.491 267.87C100.821 267.718 101.145 267.56 101.469 267.401C101.696 267.291 101.916 267.18 102.144 267.063C102.474 266.897 102.798 266.718 103.128 266.546C103.342 266.428 103.555 266.318 103.769 266.194C104.099 266.007 104.43 265.821 104.754 265.628C104.953 265.511 105.16 265.394 105.36 265.269C105.69 265.069 106.021 264.862 106.351 264.655C106.544 264.531 106.73 264.414 106.923 264.29C107.254 264.076 107.584 263.848 107.908 263.628C108.087 263.504 108.266 263.379 108.445 263.255C108.693 263.076 108.948 262.896 109.196 262.717C109.271 262.662 109.347 262.6 109.43 262.545C109.595 262.421 109.767 262.296 109.932 262.165C110.263 261.91 110.587 261.655 110.91 261.4C111.069 261.275 111.22 261.151 111.372 261.02C111.702 260.751 112.026 260.475 112.343 260.199C112.487 260.075 112.632 259.944 112.777 259.82C112.866 259.737 112.963 259.661 113.052 259.579C113.286 259.372 113.514 259.158 113.741 258.944C113.844 258.847 113.954 258.744 114.058 258.647C114.154 258.551 114.25 258.461 114.354 258.364C114.602 258.123 114.85 257.882 115.097 257.633C115.153 257.578 115.208 257.523 115.27 257.468C115.27 257.488 115.27 257.502 115.263 257.523C118.424 254.329 121.192 250.666 123.465 246.59C123.465 246.569 123.465 246.548 123.458 246.528C123.554 246.355 123.644 246.183 123.733 246.01C123.85 245.789 123.974 245.569 124.085 245.348C124.277 244.982 124.463 244.61 124.642 244.237C124.732 244.051 124.828 243.865 124.925 243.672C125.193 243.106 125.455 242.534 125.71 241.947C126.219 240.768 126.405 239.526 126.295 238.326C126.254 237.843 126.164 237.374 126.034 236.912C125.965 236.684 125.889 236.456 125.799 236.236C125.097 234.456 123.72 232.952 121.833 232.131C121.22 231.862 120.6 231.614 119.98 231.373C119.78 231.297 119.574 231.221 119.374 231.145C118.954 230.986 118.541 230.835 118.121 230.69C117.873 230.607 117.625 230.524 117.377 230.441C117.06 230.338 116.737 230.228 116.42 230.131C116.406 230.117 116.392 230.097 116.378 230.083C112.818 229 109.216 228.324 105.621 228.041C105.635 228.055 105.642 228.062 105.656 228.075C105.422 228.055 105.181 228.048 104.946 228.034C104.623 228.013 104.299 227.986 103.982 227.972C103.693 227.958 103.404 227.951 103.115 227.944C102.77 227.937 102.426 227.924 102.082 227.917C101.868 227.917 101.655 227.917 101.441 227.917C99.988 227.917 98.5418 227.993 97.1025 228.117C96.9372 228.131 96.7651 228.144 96.5998 228.158C96.1728 228.2 95.7527 228.255 95.3257 228.31C95.1398 228.331 94.947 228.351 94.761 228.379C94.3409 228.434 93.9209 228.503 93.5008 228.572C93.3148 228.6 93.1289 228.634 92.9429 228.662C92.5229 228.738 92.1028 228.813 91.6827 228.896C91.5036 228.931 91.3246 228.965 91.1455 229.007C90.7185 229.096 90.2984 229.193 89.8715 229.296C89.7062 229.338 89.5409 229.372 89.3756 229.414C88.9418 229.524 88.501 229.634 88.074 229.759C87.9294 229.8 87.7917 229.841 87.6471 229.883C87.1925 230.014 86.7449 230.145 86.2973 230.29C86.1871 230.324 86.0769 230.359 85.9667 230.393C85.4846 230.545 85.0095 230.71 84.5343 230.876C84.4792 230.897 84.431 230.917 84.3759 230.938C79.9546 232.532 75.7606 234.732 71.9178 237.484C71.911 237.491 71.8972 237.498 71.8903 237.505C71.422 237.843 70.9537 238.188 70.4992 238.547C70.4785 238.56 70.4579 238.581 70.4372 238.595C69.9827 238.947 69.5282 239.305 69.0874 239.678C69.0736 239.692 69.053 239.705 69.0392 239.719C68.5847 240.092 68.1439 240.478 67.7032 240.871C66.4154 242.023 65.1758 243.23 64.005 244.52C63.4334 245.148 62.8825 245.796 62.3384 246.452C62.2489 246.562 62.1594 246.672 62.0767 246.783C61.5947 247.383 61.1195 247.99 60.6581 248.618C60.6099 248.687 60.5617 248.749 60.5135 248.818C59.8041 249.79 59.1223 250.797 58.475 251.832C58.4268 251.915 58.3717 251.998 58.3235 252.074C57.9654 252.653 57.621 253.239 57.2836 253.839C57.201 253.984 57.1252 254.122 57.0426 254.267C56.7395 254.819 56.4434 255.385 56.1542 255.957C56.0715 256.123 55.982 256.288 55.8994 256.454C55.5481 257.171 55.2038 257.902 54.887 258.64C54.7837 258.875 54.6942 259.116 54.6184 259.358C54.4669 259.841 54.3636 260.324 54.3154 260.813C54.2121 261.786 54.3017 262.759 54.5633 263.676C55.1556 265.745 56.6362 267.539 58.7642 268.456C61.0093 269.429 63.2819 270.229 65.5683 270.857C65.9333 270.96 66.2983 271.043 66.6633 271.133C66.8286 271.174 66.9938 271.215 67.1591 271.257C67.5999 271.36 68.0406 271.464 68.4814 271.553C68.7086 271.602 68.9359 271.643 69.1632 271.691C69.4937 271.76 69.8312 271.836 70.1617 271.891C70.4441 271.94 70.7333 271.974 71.0157 272.023H71.0088Z" fill="#91D9CA"/>
        </g>
        <path d="M62.4211 262.462C68.3987 265.056 74.6036 266.415 80.7466 266.642C101.111 267.408 120.8 255.805 129.394 235.953C131.033 232.173 129.298 227.772 125.524 226.137C105.043 217.246 81.9242 222.888 67.6687 238.526C63.9637 242.589 60.8578 247.321 58.5576 252.646C56.9186 256.426 58.654 260.827 62.428 262.462H62.4211Z" fill="#E18558"/>
        <path d="M112.17 242.875L113.322 242.419L109.823 233.547L108.67 234.003L112.17 242.875Z" fill="#F7F1F5"/>
        <path d="M108.524 244.311L109.677 243.855L106.177 234.983L105.024 235.439L108.524 244.311Z" fill="#F7F1F5"/>
        <path d="M104.851 245.764L106.004 245.307L102.504 236.435L101.351 236.891L104.851 245.764Z" fill="#F7F1F5"/>
        <path d="M101.205 247.207L102.358 246.75L98.8581 237.878L97.7053 238.334L101.205 247.207Z" fill="#F7F1F5"/>
        <path d="M97.5324 248.666L98.6853 248.21L95.1853 239.338L94.0324 239.794L97.5324 248.666Z" fill="#F7F1F5"/>
        <path d="M93.8733 250.112L95.0262 249.655L91.5263 240.783L90.3734 241.239L93.8733 250.112Z" fill="#F7F1F5"/>
        <path d="M114.913 237.315L114.457 236.161L85.2125 247.735L85.668 248.89L114.913 237.315Z" fill="#F7F1F5"/>
        <path d="M90.2207 251.555L91.3736 251.098L87.8736 242.226L86.7207 242.682L90.2207 251.555Z" fill="#F7F1F5"/>
        <path d="M89.9059 234.001C100.835 229.676 112.508 229.165 122.783 232.559C123.038 232.642 123.141 232.904 123.01 233.139C117.831 242.651 108.961 250.273 98.0322 254.598C92.3094 256.861 86.3868 258.089 80.416 258.24C75.0995 258.371 69.962 257.633 65.1482 256.04C64.8934 255.957 64.7901 255.695 64.9209 255.46C67.0834 251.494 69.9069 247.824 73.3089 244.562C77.9575 240.106 83.701 236.45 89.9059 233.994V234.001Z" stroke="#F7F1F5" stroke-width="2" stroke-miterlimit="10"/>
        <path d="M124.05 240.002C118.252 248.88 109.967 255.695 100.016 259.634C93.1633 262.345 85.9598 263.531 78.5979 263.152C75.5334 262.993 72.5032 262.566 69.5144 261.869" stroke="#C6633C" stroke-width="2" stroke-miterlimit="10"/>
        <path d="M64.3631 247.886C65.6165 246.045 66.9801 244.286 68.4538 242.623C73.7635 236.629 80.4918 231.911 87.9225 228.965C98.0666 224.951 109.003 224.302 119.477 226.992" stroke="#C6633C" stroke-width="2" stroke-miterlimit="10"/>
        <path d="M127.135 240.595C126.894 237.947 126.261 235.243 125.214 232.58C123.933 229.331 122.156 226.475 120.049 224.082C116.489 222.999 112.887 222.323 109.292 222.04C112.914 225.199 115.779 229.124 117.59 233.718C119.863 239.471 120.207 245.583 118.933 251.522C122.094 248.328 124.863 244.665 127.135 240.589V240.595Z" fill="#F7F1F5"/>
        <path d="M67.2969 264.283C65.6716 262.186 64.2805 259.779 63.2337 257.116C61.9528 253.867 61.2985 250.563 61.209 247.376C63.0684 244.148 65.2377 241.189 67.6687 238.519C67.1798 243.299 67.7652 248.128 69.5832 252.729C71.8559 258.482 75.7675 263.186 80.7535 266.642C76.2634 266.47 71.7457 265.697 67.3038 264.283H67.2969Z" fill="#F7F1F5"/>
        <g style="mix-blend-mode:multiply" opacity="0.35">
            <path d="M80.7397 266.649C100.56 267.394 119.739 256.419 128.671 237.526C118.699 251.942 102.047 260.061 84.9062 259.413C78.7632 259.178 72.5652 257.826 66.5806 255.233C62.8067 253.591 61.0713 249.197 62.7103 245.417C62.9376 244.9 63.1717 244.389 63.4128 243.879C61.5396 246.59 59.9005 249.514 58.537 252.653C56.8979 256.433 58.6334 260.834 62.4073 262.469C68.385 265.062 74.5899 266.421 80.7328 266.649H80.7397Z" fill="#E18558"/>
        </g>
        <g style="mix-blend-mode:screen" opacity="0.5">
            <path d="M121.778 229.172C125.551 230.814 127.287 235.208 125.648 238.988C122.618 245.989 118.203 251.963 112.866 256.73C119.884 251.563 125.669 244.527 129.38 235.953C131.02 232.173 129.284 227.772 125.51 226.137C106.716 217.977 85.705 222.067 71.36 234.877C85.4709 224.502 104.561 221.695 121.778 229.172V229.172Z" fill="#E18558"/>
        </g>
        <path d="M83.1914 100.932C83.1914 101.815 82.4752 102.525 81.6005 102.525C80.7259 102.525 80.0097 101.808 80.0097 100.932C80.0097 100.056 80.7259 99.3381 81.6005 99.3381C82.4752 99.3381 83.1914 100.056 83.1914 100.932Z" fill="#FFA264"/>
        <g style="mix-blend-mode:multiply" opacity="0.5">
            <path d="M86.6485 222.219C86.6141 221.791 86.5727 221.371 86.5176 220.957C86.497 220.819 86.4832 220.674 86.4626 220.536C86.3868 219.998 86.2904 219.46 86.1802 218.929C86.1664 218.846 86.1389 218.763 86.1251 218.68C86.0287 218.225 85.9185 217.777 85.7945 217.335C85.7532 217.191 85.7119 217.046 85.6706 216.894C85.5466 216.466 85.4089 216.045 85.2643 215.625C85.2298 215.535 85.2023 215.438 85.1678 215.349C84.9819 214.838 84.7891 214.342 84.5756 213.852C84.5343 213.755 84.4861 213.659 84.4447 213.562C84.2657 213.162 84.0798 212.762 83.88 212.369C83.8181 212.252 83.763 212.134 83.701 212.017C83.4599 211.555 83.2051 211.1 82.9434 210.658C82.9434 210.651 82.9366 210.637 82.9297 210.631C82.6473 210.161 82.3512 209.706 82.0413 209.258C81.9793 209.168 81.9173 209.085 81.8553 209.003C81.5936 208.63 81.3251 208.271 81.0427 207.913C80.9807 207.837 80.9188 207.754 80.8568 207.678C80.175 206.83 79.445 206.03 78.6668 205.278C78.5979 205.209 78.5222 205.14 78.4533 205.071C78.1021 204.74 77.744 204.409 77.3721 204.098C77.3308 204.064 77.2826 204.022 77.2413 203.981C76.8143 203.622 76.3735 203.27 75.9259 202.939C75.9052 202.925 75.8846 202.912 75.8639 202.898C75.4438 202.594 75.0169 202.298 74.583 202.015C74.5072 201.967 74.4315 201.918 74.3488 201.863C70.2444 199.263 65.3824 197.752 60.1622 197.752C45.4867 197.752 33.5933 209.672 33.5933 224.364C33.5933 231.214 36.1758 237.45 40.4181 242.168C41.3271 243.175 42.3119 244.12 43.3656 244.976C43.3931 245.003 43.4275 245.024 43.4551 245.045C43.765 245.3 44.0818 245.548 44.4055 245.783C44.4812 245.838 44.5639 245.893 44.6465 245.955C44.922 246.155 45.2043 246.355 45.4936 246.542C45.5969 246.61 45.707 246.679 45.8172 246.748C46.0789 246.921 46.3475 247.086 46.6161 247.245C46.74 247.321 46.8709 247.39 46.9949 247.466C47.2497 247.611 47.5114 247.756 47.7731 247.894C47.9177 247.969 48.0554 248.038 48.2 248.114C48.4548 248.245 48.7096 248.369 48.9645 248.487C49.116 248.556 49.2744 248.625 49.4327 248.701C49.6876 248.811 49.9355 248.921 50.1972 249.025C50.3625 249.094 50.5277 249.156 50.693 249.218C50.9478 249.315 51.1957 249.404 51.4574 249.494C51.6296 249.556 51.8018 249.611 51.9808 249.673C52.2356 249.756 52.4904 249.832 52.7521 249.908C52.9312 249.963 53.1102 250.011 53.2962 250.059C53.5579 250.128 53.8196 250.191 54.0813 250.253C54.2672 250.294 54.4463 250.342 54.6322 250.377C54.9008 250.432 55.1694 250.48 55.438 250.529C55.6239 250.563 55.8029 250.598 55.9889 250.625C56.2644 250.666 56.5467 250.701 56.8291 250.742C57.0081 250.763 57.1872 250.791 57.3662 250.811C57.6761 250.846 57.9929 250.867 58.3028 250.887C58.4543 250.901 58.6058 250.915 58.7642 250.922C59.2325 250.949 59.7077 250.963 60.1829 250.963C74.8585 250.963 86.7518 239.05 86.7518 224.351C86.7518 223.785 86.7311 223.226 86.6967 222.674C86.6898 222.516 86.676 222.357 86.6623 222.198L86.6485 222.219Z" fill="#91D9CA"/>
        </g>
        <path d="M78.8507 226.012C81.4642 211.549 71.8779 197.702 57.4389 195.084C43 192.467 29.1761 202.069 26.5625 216.531C23.949 230.994 33.5353 244.84 47.9743 247.458C62.4132 250.076 76.2371 240.474 78.8507 226.012Z" fill="#FFA264"/>
        <path d="M74.397 236.615C68.5158 235.477 62.7172 233.166 57.3525 229.779C61.3399 226.041 64.673 221.819 67.2624 217.301C70.8848 219.274 74.948 220.529 79.2659 220.888C79.2591 220.384 79.2246 219.894 79.1902 219.398C75.1684 219.032 71.3669 217.86 67.9855 216.011C70.0171 212.21 71.5253 208.223 72.4343 204.133C72.4757 203.946 72.5032 203.767 72.5445 203.581C72.1451 203.125 71.7388 202.677 71.3049 202.256C71.2085 202.774 71.1121 203.291 70.995 203.808C70.1204 207.74 68.6742 211.582 66.7253 215.238C59.5149 210.824 54.3636 203.367 53.0827 194.655C52.9587 194.655 52.8417 194.634 52.7177 194.634C52.3389 194.634 51.9739 194.675 51.6021 194.689C52.9036 203.939 58.3648 211.851 66.0159 216.521C63.4403 221.026 60.0934 225.22 56.0853 228.931C54.1295 227.62 52.2287 226.172 50.4107 224.585C43.0212 218.122 37.6703 210.065 34.9776 201.477C34.5712 201.842 34.1649 202.201 33.7862 202.594C36.6235 211.189 42.0364 219.225 49.4396 225.696C51.2095 227.241 53.0552 228.662 54.9559 229.952C54.3292 230.504 53.6887 231.049 53.0276 231.573C51.3541 232.911 49.6256 234.139 47.8488 235.256C42.7113 228.752 35.0051 224.378 26.2728 223.709C26.321 224.213 26.4036 224.709 26.4725 225.206C34.5919 225.916 41.7541 229.986 46.5885 236.022C42.8904 238.216 39.0063 239.906 35.0533 241.092C35.4872 241.478 35.9279 241.851 36.3824 242.21C40.1839 240.995 43.9165 239.333 47.4769 237.208C49.7358 240.347 51.3817 243.948 52.2632 247.838C52.4216 247.838 52.5662 247.859 52.7246 247.859C53.0758 247.859 53.4133 247.818 53.7576 247.804C52.8623 243.637 51.1338 239.781 48.7372 236.429C50.5208 235.298 52.2701 234.063 53.9504 232.711C54.7355 232.083 55.4862 231.435 56.2299 230.773C61.6429 234.235 67.4828 236.636 73.4398 237.884C73.7772 237.464 74.094 237.029 74.4108 236.588L74.397 236.615Z" fill="#003659"/>
        <g style="mix-blend-mode:color-burn" opacity="0.35">
            <path d="M65.5063 197.931C69.7485 202.65 72.331 208.892 72.331 215.735C72.331 230.435 60.4377 242.348 45.7621 242.348C41.1274 242.348 36.7681 241.154 32.9735 239.064C37.8355 244.472 44.8806 247.873 52.7246 247.873C67.4002 247.873 79.2935 235.96 79.2935 221.26C79.2935 211.203 73.729 202.456 65.5132 197.931H65.5063Z" fill="#FFA264"/>
        </g>
        <g style="mix-blend-mode:multiply" opacity="0.5">
            <path d="M228.15 63.5583C244.036 63.5583 256.915 50.6583 256.915 34.7453C256.915 18.8324 244.036 5.93237 228.15 5.93237C212.263 5.93237 199.384 18.8324 199.384 34.7453C199.384 50.6583 212.263 63.5583 228.15 63.5583Z" fill="#91D9CA"/>
        </g>
        <path d="M221.979 60.2058C237.577 60.2058 250.221 47.5405 250.221 31.9171C250.221 16.2937 237.577 3.62842 221.979 3.62842C206.381 3.62842 193.737 16.2937 193.737 31.9171C193.737 47.5405 206.381 60.2058 221.979 60.2058Z" fill="white"/>
        <path d="M217.613 41.933H225.181C226.951 41.933 228.521 40.8017 229.079 39.1186L231.483 31.8964C232.047 30.2064 231.455 28.3439 230.03 27.2817L223.852 22.7014C222.413 21.6322 220.443 21.6253 218.99 22.6807L212.827 27.1644C211.387 28.2129 210.781 30.0684 211.332 31.7654L213.701 39.0772C214.252 40.7741 215.829 41.9261 217.613 41.9261V41.933Z" fill="#003659"/>
        <path d="M225.085 -4.84229H218.543C217.014 -4.84229 215.657 -3.86277 215.175 -2.41419L213.095 3.8285C212.606 5.29087 213.116 6.89811 214.349 7.81554L219.686 11.7681C220.932 12.6924 222.633 12.6993 223.887 11.7888L229.217 7.91211C230.464 7.00848 230.98 5.40124 230.505 3.93887L228.459 -2.3797C227.984 -3.84897 226.621 -4.84229 225.085 -4.84229V-4.84229Z" fill="#003659"/>
        <path d="M241.73 47.5618H235.188C233.659 47.5618 232.302 48.5413 231.82 49.9968L229.74 56.2395C229.251 57.7018 229.761 59.3091 230.994 60.2265L236.331 64.179C237.577 65.1034 239.278 65.1103 240.532 64.1997L245.862 60.3231C247.109 59.4194 247.625 57.8122 247.15 56.3498L245.105 50.0313C244.629 48.562 243.266 47.5687 241.73 47.5687V47.5618Z" fill="#003659"/>
        <path d="M209.397 47.5618H202.855C201.326 47.5618 199.969 48.5413 199.487 49.9968L197.407 56.2395C196.918 57.7018 197.428 59.3091 198.668 60.2265L204.005 64.179C205.251 65.1034 206.952 65.1103 208.206 64.1997L213.536 60.3231C214.783 59.4194 215.299 57.8122 214.824 56.3498L212.778 50.0313C212.303 48.562 210.94 47.5687 209.404 47.5687L209.397 47.5618Z" fill="#003659"/>
        <path d="M189.012 14.0927L186.12 19.9698C185.445 21.3425 185.721 22.998 186.809 24.0741L191.478 28.7026C192.573 29.7856 194.233 30.0409 195.603 29.3373L201.505 26.2883C202.882 25.5778 203.64 24.0534 203.378 22.522L202.262 16.0241C202.001 14.5066 200.796 13.327 199.274 13.1063L192.711 12.1474C191.189 11.9267 189.694 12.7131 189.012 14.0927V14.0927Z" fill="#003659"/>
        <path d="M255.531 21.2045L253.431 15.0032C252.942 13.5546 251.578 12.582 250.049 12.5889L243.479 12.6234C241.944 12.6303 240.587 13.6305 240.119 15.0998L238.094 21.4321C237.619 22.9083 238.163 24.5224 239.423 25.4192L244.802 29.2269C246.055 30.1167 247.742 30.096 248.975 29.1717L254.292 25.1984C255.524 24.2741 256.027 22.6669 255.531 21.2045V21.2045Z" fill="#003659"/>
        <g style="mix-blend-mode:multiply" opacity="0.68">
            <path d="M239.623 9.82983C243.128 14.5412 245.201 20.3838 245.201 26.7092C245.201 42.3332 232.557 54.9979 216.959 54.9979C210.279 54.9979 204.149 52.6733 199.315 48.7897C204.466 55.7153 212.703 60.2059 221.986 60.2059C237.584 60.2059 250.228 47.5412 250.228 31.9172C250.228 22.9774 246.089 15.0171 239.623 9.82983V9.82983Z" fill="#E5E5E5"/>
        </g>
        <g style="mix-blend-mode:multiply" opacity="0.5">
            <path d="M44.8118 114.01L42.4496 112.12L42.9799 111.451C45.4591 108.671 53.7714 100.835 72.82 94.9992C75.2717 94.5026 76.9727 93.8542 77.3514 93.7024C99.2994 87.846 106.207 75.7055 108.135 66.545C109.843 58.4123 105.201 44.837 98.3283 38.3184C87.8674 28.3991 51.9808 29.1647 50.4107 71.146C50.3831 71.9254 50.3418 72.6773 50.3005 73.4292L50.2454 73.3878C50.2454 73.3878 49.7909 75.3537 49.9492 78.1198C48.0072 98.7035 41.5268 108.002 39.8809 110.058L38.2625 108.761L36.6097 107.443L12.1895 138.043L20.3915 144.61L44.8118 114.01V114.01Z" fill="#91D9CA"/>
        </g>
        <path d="M98.411 68.2835L100.105 66.352C100.642 65.069 101.069 63.7722 101.407 62.4685L97.2265 67.2419L92.3231 62.9306L96.6273 58.0193L101.462 62.2684C101.606 61.6752 101.73 61.0889 101.841 60.4956L97.6672 56.8259L101.971 51.9145L102.192 52.1077C102.116 51.273 102.013 50.4384 101.875 49.6313L101.827 49.6865L96.9235 45.3752L99.6712 42.2366C99.4371 41.6986 99.1961 41.1812 98.9413 40.6708L95.7389 44.3267L90.8356 40.0155L95.1605 35.0765C94.7955 34.6764 94.4167 34.3039 94.0379 33.959L89.6442 38.9739L84.7409 34.6626L88.3633 30.5307C87.8468 30.3238 87.3165 30.1306 86.7656 29.9513L83.5564 33.6141L78.653 29.3029L79.321 28.5372C78.0263 28.4544 76.7041 28.4475 75.3612 28.5165L76.4217 29.4477L72.1175 34.3591L67.2211 30.0548C66.1261 30.4204 65.0449 30.8411 63.9775 31.3447L60.6787 35.111L59.4529 34.0349C59.019 34.3522 58.5852 34.6626 58.1651 35.0075L59.6388 36.3044L55.3347 41.2157L53.6061 39.6982C53.2824 40.112 52.9794 40.5466 52.6764 40.9881L54.2948 42.4091L49.9906 47.3205L49.3983 46.7962C49.1779 47.2929 48.9782 47.8309 48.7716 48.3552L48.9438 48.5069L48.5099 49.0036C48.0623 50.1969 47.6629 51.4593 47.3048 52.7768L50.1283 49.5485L55.0316 53.8598L50.7274 58.7711L46.6918 55.2256C46.5679 55.8119 46.4646 56.4258 46.3544 57.0328L49.6876 59.9576L45.4591 64.7862C45.4316 65.2346 45.3903 65.6691 45.3765 66.1244C45.3627 66.5521 45.3283 66.9384 45.3076 67.3591L45.5349 67.097L50.4382 71.4083L44.2608 78.458C44.1369 79.2996 44.0198 80.148 43.8821 80.9482L44.0542 81.1L51.6296 72.4568L56.5329 76.768L48.9576 85.4112L50.1421 86.4528L57.7174 77.8096L62.6208 82.1209L55.0454 90.7641L56.2299 91.8056L63.8053 83.1625L68.7086 87.4737L67.8202 88.4877C68.9015 88.1635 70.0171 87.8393 71.1672 87.5289L70.9399 87.3288L75.2441 82.4175L78.4395 85.225C79.0043 85.0111 79.5414 84.7835 80.0786 84.5627L76.284 81.231L80.5882 76.3196L85.4915 80.6309L83.3566 83.0659C84.9475 82.2726 86.435 81.438 87.7986 80.5481L87.7228 80.4791L92.027 75.5678L93.0256 76.4438C93.4112 76.0782 93.8038 75.7126 94.1619 75.3332L93.0738 74.3744L97.378 69.463L98.1699 70.1597C98.4523 69.6907 98.714 69.2216 98.9619 68.7525L98.4179 68.2766L98.411 68.2835ZM91.1317 61.889L86.2284 57.5778L90.5326 52.6664L95.4359 56.9777L91.1317 61.889ZM78.9492 51.1833L74.0458 46.8721L78.35 41.9607L83.2533 46.272L78.9492 51.1833V51.1833ZM84.4379 47.3136L89.3412 51.6248L85.037 56.5362L80.1337 52.2249L84.4379 47.3136ZM77.9024 52.3698L73.5982 57.2812L68.6949 52.9699L72.999 48.0585L77.9024 52.3698ZM72.5583 58.4745L68.2541 63.3859L63.3508 59.0746L67.655 54.1633L72.5583 58.4745ZM67.5103 51.9283L62.607 47.6171L66.9112 42.7057L71.8145 47.0169L67.5103 51.9283ZM66.4704 53.1217L62.1663 58.033L57.2629 53.7218L61.5671 48.8104L66.4704 53.1217ZM62.3109 60.268L67.2142 64.5793L62.91 69.4906L58.0067 65.1794L62.3109 60.268ZM68.4056 65.6208L73.3089 69.9321L69.0048 74.8435L64.1014 70.5322L68.4056 65.6208ZM69.4455 64.4275L73.7497 59.5161L78.653 63.8274L74.3488 68.7387L69.4455 64.4275ZM74.7896 58.3228L79.0938 53.4114L83.9971 57.7226L79.6929 62.634L74.7896 58.3228ZM85.1816 58.7642L90.085 63.0755L85.7808 67.9869L80.8774 63.6756L85.1816 58.7642V58.7642ZM95.8698 46.5617L100.773 50.8729L96.4689 55.7843L91.5656 51.4731L95.8698 46.5617ZM89.7751 41.2088L94.6784 45.5201L90.3742 50.4315L85.4709 46.1202L89.7751 41.2088ZM83.6803 35.856L88.5837 40.1672L84.2795 45.0786L79.3761 40.7674L83.6803 35.856V35.856ZM77.5856 30.5031L82.4889 34.8144L78.1847 39.7258L73.2814 35.4145L77.5856 30.5031ZM72.2415 36.6079L77.1448 40.9191L72.8406 45.8305L67.9373 41.5192L72.2415 36.6079V36.6079ZM66.1468 31.255L71.0501 35.5663L66.7459 40.4776L61.8426 36.1664L66.1468 31.255ZM60.8027 37.3597L65.706 41.671L61.4018 46.5824L56.4985 42.2711L60.8027 37.3597V37.3597ZM51.1544 48.3758L55.4586 43.4645L60.3619 47.7757L56.0578 52.6871L51.1544 48.3758ZM56.2024 54.9221L61.1057 59.2333L56.8015 64.1447L51.8982 59.8334L56.2024 54.9221ZM51.4574 70.2494L46.5541 65.9382L50.8583 61.0268L55.7616 65.338L51.4574 70.2494ZM57.5522 75.6022L52.6488 71.291L56.953 66.3796L61.8564 70.6909L57.5522 75.6022ZM63.6469 80.9551L58.7436 76.6438L63.0478 71.7325L67.9511 76.0437L63.6469 80.9551ZM69.7416 86.3079L64.8383 81.9967L69.1425 77.0853L74.0458 81.3966L69.7416 86.3079ZM75.0857 80.2032L70.1824 75.892L74.4866 70.9806L79.3899 75.2918L75.0857 80.2032ZM80.4298 74.0985L75.5265 69.7872L79.8307 64.8759L84.734 69.1871L80.4298 74.0985ZM86.5245 79.4513L81.6212 75.1401L85.9254 70.2287L90.8287 74.54L86.5245 79.4513V79.4513ZM91.8686 73.3466L86.9653 69.0354L91.2695 64.124L96.1728 68.4352L91.8686 73.3466Z" fill="#FFE9CA"/>
        <path d="M44.4055 67.5659C44.4055 67.5659 41.9676 78.0854 50.3831 84.8247C58.8055 91.5641 71.057 86.5354 71.057 86.5354" stroke="#003659" stroke-width="3" stroke-linecap="round" stroke-linejoin="round"/>
        <path d="M38.9832 108.19L30.7801 101.622L6.3591 132.22L14.5622 138.788L38.9832 108.19Z" fill="#003659"/>
        <g style="mix-blend-mode:screen" opacity="0.35">
            <path d="M8.11942 133.394L32.4226 102.939L30.7767 101.615L6.34953 132.214L14.5585 138.781L14.6687 138.643L8.11942 133.394Z" fill="#003659"/>
        </g>
        <path d="M33.6553 104.691C33.6553 104.691 43.4895 94.2475 44.5707 65.3242C46.134 23.3429 81.2356 23.4878 92.4884 32.4966C103.734 41.5054 111.606 75.7677 71.0639 86.5424C43.1314 93.9646 35.1222 105.871 35.1222 105.871L33.6553 104.698V104.691Z" stroke="#003659" stroke-width="3" stroke-linecap="round" stroke-linejoin="round"/>
        <g style="mix-blend-mode:multiply" opacity="0.61">
            <g style="mix-blend-mode:multiply">
                <path d="M12.7266 136.229L6.8867 131.552L6.34953 132.214L14.5585 138.781L38.9787 108.188L36.6166 106.291L12.7266 136.229Z" fill="#003659"/>
            </g>
            <g style="mix-blend-mode:multiply">
                <path d="M102.295 60.7163C104.003 52.5766 102.095 41.2639 96.221 34.2073C100.642 41.2363 101.985 50.9487 100.463 58.164C99.8778 60.937 98.838 63.979 97.0681 67.0349C97.0612 67.0486 97.0543 67.0693 97.0474 67.0831C95.4566 69.8147 93.2804 72.5533 90.3191 75.1262L89.0795 76.5472C88.0878 77.3336 87.0135 78.0992 85.8427 78.8373L85.6017 78.6304C85.1403 78.9201 84.672 79.2098 84.183 79.4926L84.4172 79.6996C82.5165 80.7964 80.3954 81.8311 78.0263 82.7761L77.8335 82.6036C77.2963 82.8244 76.7385 83.0451 76.1738 83.252L76.3529 83.4107C75.4576 83.7349 74.5279 84.0453 73.5638 84.3419L73.7704 84.1005C72.8475 84.404 71.8834 84.6937 70.8986 84.9765L70.7402 85.1559C70.7402 85.1559 70.7127 85.1628 70.692 85.1697C70.1135 85.3214 69.5626 85.487 68.9979 85.6457L68.9359 85.5905C68.502 85.7422 67.896 85.9354 67.1591 86.1354L67.1798 86.1561C66.9525 86.2251 66.739 86.2941 66.5118 86.363C66.1468 86.4389 65.7542 86.5079 65.3479 86.57C65.2722 86.5838 65.2102 86.6045 65.1344 86.6183C61.6429 87.6875 58.5163 88.8256 55.7203 89.9845L55.3829 90.3708C46.6505 94.1026 41.1205 98.0345 37.8769 100.897C37.9939 100.683 38.111 100.456 38.235 100.228C36.3274 101.863 35.2255 103.118 34.7503 103.718L37.1331 105.629C39.6123 102.849 47.9246 95.0131 66.9732 89.1774C69.4248 88.6808 71.1259 88.0324 71.5046 87.8806C93.4526 82.0242 100.36 69.8837 102.288 60.7232L102.295 60.7163Z" fill="#003659"/>
            </g>
        </g>
        <g style="mix-blend-mode:multiply" opacity="0.5">
            <path d="M94.4442 89.3225C92.7432 86.2115 90.0161 83.6454 86.4901 82.1899C82.9641 80.7344 79.2177 80.6379 75.8226 81.6519C71.3462 82.9901 67.4897 86.2597 65.5752 90.9228C63.6607 95.5858 64.1014 100.628 66.3396 104.733C68.0406 107.844 70.7677 110.41 74.2937 111.865C77.8197 113.321 81.5661 113.417 84.9612 112.403C89.4376 111.065 93.2942 107.795 95.2087 103.132C97.1232 98.4692 96.6824 93.4268 94.4442 89.3225Z" fill="#91D9CA"/>
        </g>
        <path d="M82.8401 95.0477C84.7546 90.3847 88.6112 87.1081 93.0876 85.7768C91.3865 82.6658 88.6594 80.0997 85.1334 78.6443C81.6074 77.1888 77.8611 77.0922 74.4659 78.1062C76.7041 82.2105 77.1448 87.253 75.2303 91.916C73.3158 96.5791 69.4593 99.8556 64.9829 101.187C66.6839 104.298 69.4111 106.864 72.9371 108.319C76.4631 109.775 80.2094 109.872 83.6046 108.858C81.3664 104.753 80.9256 99.7108 82.8401 95.0477V95.0477Z" fill="#59E289"/>
        <path d="M75.2372 91.9092C77.1517 87.2461 76.711 82.2037 74.4728 78.0994C69.9964 79.4376 66.1399 82.7072 64.2254 87.3703C62.3109 92.0333 62.7516 97.0758 64.9898 101.18C69.4662 99.8419 73.3227 96.5722 75.2372 91.9092Z" fill="#FFE9CA"/>
        <path d="M93.852 99.5798C95.7665 94.9168 95.3257 89.8743 93.0876 85.77C88.6112 87.1082 84.7546 90.3779 82.8401 95.0409C80.9256 99.704 81.3664 104.746 83.6046 108.851C88.0809 107.513 91.9375 104.243 93.852 99.5798V99.5798Z" fill="#FFE9CA"/>
        <g style="mix-blend-mode:multiply" opacity="0.45">
            <path d="M90.1538 81.9622C92.0614 85.9217 92.3576 90.6399 90.5533 95.027C87.1857 103.222 77.8266 107.133 69.6452 103.767C67.6894 102.96 65.9884 101.808 64.5628 100.414C66.2156 103.856 69.0805 106.726 72.882 108.292C81.0634 111.665 90.4293 107.754 93.79 99.5521C96.3519 93.3094 94.6922 86.3976 90.1469 81.9553L90.1538 81.9622Z" fill="#E5E5E5"/>
        </g>
        <g style="mix-blend-mode:multiply" opacity="0.5">
            <path d="M175.156 37.4771L175.783 26.4748L176.1 20.9702C176.107 20.8046 176.1 20.6391 176.072 20.4804C176.045 20.3218 176.003 20.1631 175.941 20.0183C175.818 19.7217 175.632 19.4526 175.384 19.2319C175.136 19.0112 174.847 18.8525 174.537 18.7628C174.385 18.7214 174.22 18.6939 174.061 18.6801C173.903 18.6732 173.738 18.6801 173.572 18.7076L171.3 19.1008L163.972 20.3701V20.2942V17.2936L163.959 15.2449L167.312 14.4516L166.273 10.0369L115.194 22.0946V21.6048C115.221 20.7977 115.738 20.0804 116.502 19.8182L117.425 19.5009L116.454 19.4802C115.648 19.4664 114.932 18.9422 114.67 18.1765L114.354 17.2522L114.333 18.2248C114.319 19.0319 113.796 19.7492 113.031 20.0114L112.109 20.3287L113.08 20.3494C113.885 20.3632 114.602 20.8874 114.863 21.6531L115.029 22.1291L114.25 22.3153L115.29 26.73L118.644 25.9368L120.917 30.5308L111.585 33.3314C110.952 33.5177 110.442 33.9867 110.201 34.6006C109.953 35.2146 110.008 35.9044 110.332 36.4769L118.506 50.7833C121.11 55.5844 126.888 59.7714 132.665 58.4056C132.858 58.3642 133.044 58.3091 133.237 58.2539C133.995 58.0262 134.697 57.7158 135.351 57.3364C139.036 61.2545 143.932 63.8344 148.78 63.7171L149.097 65.0691L149.607 64.9518L150.929 64.6414C150.943 64.9863 150.95 65.3243 150.957 65.6899C150.957 66.2969 150.957 66.9454 150.936 67.6076C150.819 71.7946 150.103 76.9612 147.796 81.1966L146.225 81.5691L146.99 84.8319L164.826 80.6241L164.062 77.3613L162.492 77.7338C162.23 77.5545 161.975 77.3613 161.727 77.1682C161.686 77.1337 161.638 77.0992 161.596 77.0647C161.349 76.8716 161.108 76.6715 160.866 76.4646C160.839 76.437 160.805 76.4163 160.777 76.3887C159.758 75.5058 158.821 74.5194 157.953 73.4916C157.926 73.4571 157.898 73.4226 157.864 73.3881C157.664 73.1467 157.471 72.9052 157.279 72.6638C157.244 72.6224 157.21 72.581 157.182 72.5327C156.383 71.5049 155.66 70.4426 155.013 69.3941C154.978 69.3321 154.937 69.2769 154.903 69.2148C154.765 68.9872 154.627 68.7595 154.496 68.5319C154.455 68.4629 154.414 68.387 154.372 68.3181C154.241 68.0904 154.111 67.8628 153.987 67.6352C153.973 67.6076 153.952 67.58 153.938 67.5524C153.505 66.766 153.112 66.0003 152.761 65.276C152.761 65.276 152.761 65.2691 152.761 65.2622C152.602 64.9311 152.458 64.6207 152.32 64.3103L152.465 64.2758L154.152 63.8757L153.835 62.5237C153.835 62.5237 153.842 62.5237 153.849 62.5168C154.124 62.3858 154.4 62.2478 154.668 62.0961C154.786 62.0271 154.903 61.9512 155.027 61.8822C155.185 61.7856 155.35 61.6891 155.502 61.5856C155.626 61.5028 155.757 61.4132 155.881 61.3235C156.025 61.2269 156.163 61.1234 156.301 61.02C156.425 60.9234 156.549 60.8268 156.672 60.7234C156.803 60.6199 156.934 60.5095 157.065 60.3991C157.189 60.2957 157.313 60.1853 157.43 60.0749C157.554 59.9646 157.671 59.8404 157.795 59.7231C157.912 59.6059 158.029 59.4955 158.146 59.3713C158.263 59.2472 158.374 59.123 158.491 58.9989C158.945 58.5022 159.372 57.9711 159.778 57.4123C159.861 57.302 159.944 57.1916 160.019 57.0743C160.137 56.9088 160.247 56.7363 160.357 56.5639C160.433 56.4466 160.508 56.3362 160.577 56.219C160.687 56.0396 160.791 55.8603 160.901 55.6809C160.97 55.5637 161.032 55.4533 161.094 55.336C161.197 55.1498 161.3 54.9566 161.404 54.7635C161.459 54.6531 161.514 54.5496 161.569 54.4393C161.672 54.2323 161.769 54.0254 161.865 53.8185C161.906 53.7357 161.941 53.6529 161.975 53.5632C162.326 52.77 162.636 51.9491 162.905 51.1075C162.919 51.0662 162.933 51.0317 162.939 50.9972C162.96 50.9282 162.988 50.8661 163.001 50.7971C163.456 50.8247 163.917 50.8109 164.386 50.7764C164.689 50.7558 164.992 50.7282 165.302 50.673C165.501 50.6385 165.687 50.5971 165.88 50.5557C167.684 50.128 169.248 49.2175 170.556 48.0034C171.079 47.5137 171.555 46.9825 171.995 46.41C172.87 45.2649 173.566 43.9681 174.089 42.6161C174.736 40.9261 175.101 39.1464 175.156 37.4564V37.4771ZM132.011 54.1151C131.323 54.322 130.586 54.3703 129.828 54.2875C129.133 54.2116 128.423 54.0185 127.728 53.7288C127.714 53.7288 127.707 53.7219 127.693 53.715C127.011 53.4253 126.343 53.0459 125.696 52.5768C125.669 52.5561 125.641 52.5354 125.613 52.5147C125.31 52.2871 125.007 52.0457 124.725 51.7836C124.691 51.7491 124.649 51.7146 124.615 51.6801C124.353 51.4318 124.098 51.1765 123.857 50.9006C123.83 50.8661 123.802 50.8385 123.768 50.804C123.52 50.5143 123.286 50.2108 123.058 49.9004C123.01 49.8314 122.962 49.7624 122.914 49.6935C122.693 49.3693 122.48 49.0313 122.287 48.6864L115.435 36.7045L122.866 34.4696L131.116 51.142C131.557 52.0802 132.066 52.9976 132.638 53.8736C132.431 53.9702 132.225 54.053 132.011 54.1151V54.1151ZM164.027 44.6924C164.048 44.2716 164.048 43.844 164.041 43.4232C164.041 43.4094 164.041 43.3887 164.041 43.3749L163.993 26.0816V24.771L171.637 23.4466L170.845 37.284C170.694 41.7608 167.912 45.8582 164.572 46.4376C164.351 46.479 164.124 46.4997 163.904 46.5066C163.972 45.9065 164.007 45.2994 164.027 44.6993V44.6924Z" fill="#91D9CA"/>
        </g>
        <path d="M168.945 15.9828C168.456 15.5413 167.788 15.3551 167.14 15.4655L157.54 17.1279L157.526 11.7612L112.116 22.4807L114.498 27.2955L105.167 30.0961C104.533 30.2824 104.024 30.7514 103.783 31.3653C103.535 31.9793 103.59 32.6691 103.913 33.2416L112.088 47.548C114.691 52.3491 120.469 56.5361 126.247 55.1703C126.44 55.1289 126.626 55.0738 126.819 55.0186C127.576 54.7909 128.279 54.4805 128.933 54.1011C133.154 58.5848 138.96 61.3234 144.462 60.2542C144.717 64.862 144.517 72.9396 140.888 78.8305C145.73 77.6854 150.578 76.5472 156.9 75.0504C151.012 71.4013 147.245 64.2619 145.42 60.0334C150.819 58.5297 154.799 53.4803 156.576 47.5825C157.327 47.6308 158.098 47.5963 158.876 47.4584C159.076 47.4239 159.262 47.3825 159.455 47.3411C165.233 45.9753 168.538 39.6498 168.724 34.2418L169.668 17.7349C169.702 17.0727 169.44 16.4381 168.951 15.9966L168.945 15.9828ZM125.572 50.866C122.328 51.8524 118.011 49.4174 115.855 45.4373L109.003 33.4554L116.433 31.2205L124.684 47.8929C125.125 48.8311 125.634 49.7485 126.206 50.6246C125.999 50.7211 125.793 50.8039 125.579 50.866H125.572ZM164.406 34.028C164.255 38.5048 161.473 42.6022 158.132 43.1816C157.912 43.223 157.685 43.2437 157.464 43.2506C157.582 42.209 157.63 41.1674 157.602 40.1258L157.554 21.5219L165.198 20.1975L164.406 34.0349V34.028Z" fill="#FFA264"/>
        <path d="M157.52 11.7612L112.109 22.4738L113.128 24.5294L157.526 14.0514L157.52 11.7612Z" fill="#ED9564"/>
        <path d="M145.668 60.5992L144.483 60.8751C144.504 61.3649 144.517 61.8891 144.524 62.4409L146.329 62.0133C146.088 61.5166 145.867 61.0407 145.668 60.5923V60.5992Z" fill="#ED9564"/>
        <path d="M157.64 74.115L139.803 78.3252L140.571 81.5882L158.408 77.378L157.64 74.115Z" fill="#EF854B"/>
        <path d="M159.843 6.78441L107.827 19.0623L108.865 23.4734L160.881 11.1956L159.843 6.78441Z" fill="#EF854B"/>
        <path d="M147.363 59.1358L142.316 60.3271L142.666 61.8177L147.714 60.6263L147.363 59.1358Z" fill="#EF854B"/>
        <g style="mix-blend-mode:multiply" opacity="0.35">
            <g style="mix-blend-mode:multiply">
                <path d="M157.506 42.6711C157.582 41.8227 157.623 40.9742 157.602 40.1258L157.554 21.5219L162.382 20.6872V20.6113L154.744 21.9357L154.792 40.5396C154.82 41.5812 154.765 42.6228 154.655 43.6644C154.882 43.6575 155.102 43.6368 155.323 43.5955C156.087 43.4644 156.824 43.1333 157.506 42.6711V42.6711Z" fill="#EF854B"/>
            </g>
            <g style="mix-blend-mode:multiply">
                <path d="M116.248 30.8479L106.193 33.8692L113.045 45.851C115.201 49.8312 119.519 52.2662 122.762 51.2798C122.976 51.2177 123.182 51.1349 123.389 51.0383C120.593 50.7348 117.549 48.5689 115.855 45.4372L109.003 33.4553L116.433 31.2204L116.248 30.8479V30.8479Z" fill="#EF854B"/>
            </g>
            <g style="mix-blend-mode:multiply">
                <path d="M168.945 15.9827C168.456 15.5413 167.788 15.355 167.14 15.4654L164.868 15.8586C165.329 15.8931 165.777 16.0793 166.135 16.3966C166.631 16.8381 166.892 17.4727 166.851 18.1349L165.908 34.6418C165.729 39.8705 162.623 45.9408 157.203 47.5756C157.754 47.5756 158.305 47.548 158.869 47.4514C159.069 47.4169 159.255 47.3755 159.448 47.3342C165.226 45.9683 168.531 39.6429 168.717 34.2349L169.661 17.7279C169.695 17.0657 169.434 16.4311 168.945 15.9896V15.9827Z" fill="#EF854B"/>
            </g>
            <g style="mix-blend-mode:multiply">
                <path d="M147.396 59.2816C151.728 57.2467 154.93 52.8388 156.5 47.7688C156.349 47.8033 156.204 47.8309 156.053 47.8585C155.274 47.9964 154.51 48.0309 153.753 47.9826C152.203 53.1354 148.973 57.6329 144.579 59.6954L144.896 61.0474L143.064 61.482C143.099 61.5579 143.133 61.6338 143.168 61.7097L144.49 61.3992C144.504 61.7441 144.511 62.0821 144.517 62.4477C144.517 63.0548 144.517 63.7032 144.497 64.3654C146.466 68.0075 149.366 72.1946 153.25 74.8986L154.82 74.5261L155.584 77.7889L140.503 81.3483L140.558 81.5828L158.394 77.375L157.63 74.1123L156.06 74.4848C151.466 71.2772 148.25 66.0071 146.322 62.0201C146.163 61.689 146.019 61.3786 145.881 61.0681L147.713 60.6336L147.396 59.2816V59.2816Z" fill="#EF854B"/>
            </g>
            <g style="mix-blend-mode:multiply">
                <path d="M158.07 11.6233L154.71 12.4165L154.717 14.4653L154.724 17.5418L157.533 17.052L157.526 14.0514L157.52 12.0027L160.88 11.2094L159.84 6.79468L157.086 7.44309L158.07 11.6233Z" fill="#EF854B"/>
            </g>
        </g>
        <path d="M152.396 21.9979C153.105 22.3497 153.959 22.2118 154.531 21.6668L155.219 21.0046L154.799 21.86C154.448 22.5705 154.586 23.4258 155.13 23.9984L155.791 24.6882L154.937 24.2674C154.228 23.9156 153.374 24.0536 152.802 24.5985L152.114 25.2607L152.534 24.4054C152.885 23.6949 152.747 22.8395 152.203 22.267L151.542 21.5772L152.396 21.9979V21.9979Z" fill="white"/>
        <path d="M153.339 17.2658C154.049 17.6176 154.903 17.4796 155.474 16.9347L156.163 16.2725L155.743 17.1278C155.392 17.8383 155.529 18.6937 156.073 19.2662L156.734 19.956L155.881 19.5352C155.171 19.1834 154.317 19.3214 153.746 19.8663L153.057 20.5285L153.477 19.6732C153.828 18.9627 153.691 18.1073 153.147 17.5348L152.485 16.845L153.339 17.2658Z" fill="white"/>
        <path d="M108.238 14.9343C108.5 15.7 109.209 16.2243 110.022 16.2381L110.993 16.2588L110.07 16.5761C109.306 16.8382 108.782 17.5487 108.769 18.3626L108.748 19.3353L108.431 18.4109C108.169 17.6453 107.46 17.121 106.647 17.1072L105.676 17.0865L106.599 16.7692C107.364 16.5071 107.887 15.7966 107.901 14.9826L107.922 14.01L108.238 14.9343Z" fill="white"/>
        <path d="M137.004 27.2266L140.847 32.269L147.176 31.9517L143.574 37.1735L145.826 43.1058L139.759 41.2847L134.821 45.2648L134.669 38.9256L129.367 35.449L135.344 33.3451L137.004 27.2266Z" fill="#FFD766"/>
        <path d="M184.832 62.9925C185.711 62.9925 186.423 62.2791 186.423 61.3991C186.423 60.5191 185.711 59.8057 184.832 59.8057C183.954 59.8057 183.241 60.5191 183.241 61.3991C183.241 62.2791 183.954 62.9925 184.832 62.9925Z" fill="#FFA264"/>
        <path d="M184.832 6.76702C184.832 7.64997 184.116 8.36046 183.241 8.36046C182.367 8.36046 181.651 7.64307 181.651 6.76702C181.651 5.89098 182.367 5.17358 183.241 5.17358C184.116 5.17358 184.832 5.89098 184.832 6.76702Z" fill="#FFA264"/>
        <path d="M199.549 1.59344C199.549 2.47638 198.833 3.18688 197.958 3.18688C197.084 3.18688 196.367 2.46948 196.367 1.59344C196.367 0.717392 197.084 0 197.958 0C198.833 0 199.549 0.717392 199.549 1.59344Z" fill="#003659"/>
        <path d="M193.868 70.4011C193.868 71.284 193.151 71.9945 192.277 71.9945C191.402 71.9945 190.686 71.2771 190.686 70.4011C190.686 69.525 191.402 68.8076 192.277 68.8076C193.151 68.8076 193.868 69.525 193.868 70.4011Z" fill="#FFE9CA"/>
        <path d="M282.472 64.8688C282.472 65.7518 281.756 66.4623 280.881 66.4623C280.006 66.4623 279.29 65.7449 279.29 64.8688C279.29 63.9928 280.006 63.2754 280.881 63.2754C281.756 63.2754 282.472 63.9928 282.472 64.8688Z" fill="#FFE9CA"/>
        <path d="M240.139 105.346C240.139 106.229 239.423 106.94 238.549 106.94C237.674 106.94 236.958 106.222 236.958 105.346C236.958 104.47 237.674 103.753 238.549 103.753C239.423 103.753 240.139 104.47 240.139 105.346Z" fill="#003659"/>
        <path d="M250.524 110.72C250.524 111.603 249.808 112.313 248.934 112.313C248.059 112.313 247.343 111.596 247.343 110.72C247.343 109.844 248.059 109.126 248.934 109.126C249.808 109.126 250.524 109.844 250.524 110.72Z" fill="#FFA264"/>
        <path d="M234.341 214.238C234.341 215.121 233.625 215.831 232.75 215.831C231.875 215.831 231.159 215.114 231.159 214.238C231.159 213.362 231.875 212.645 232.75 212.645C233.625 212.645 234.341 213.362 234.341 214.238Z" fill="#003659"/>
        <path d="M257.583 229.055C257.583 229.938 256.867 230.648 255.993 230.648C255.118 230.648 254.402 229.931 254.402 229.055C254.402 228.179 255.118 227.461 255.993 227.461C256.867 227.461 257.583 228.179 257.583 229.055Z" fill="#FFE9CA"/>
        <path d="M148.526 215.838C148.526 216.721 147.809 217.432 146.935 217.432C146.06 217.432 145.344 216.714 145.344 215.838C145.344 214.962 146.053 214.245 146.935 214.245C147.816 214.245 148.526 214.962 148.526 215.838Z" fill="#FFE9CA"/>
        <path d="M8.64281 115.5C8.64281 116.383 7.92659 117.094 7.05198 117.094C6.17737 117.094 5.46115 116.376 5.46115 115.5C5.46115 114.624 6.17048 113.907 7.05198 113.907C7.93348 113.907 8.64281 114.624 8.64281 115.5Z" fill="#FFE9CA"/>
        <path d="M35.5009 70.4011C35.5009 71.284 34.7847 71.9945 33.9101 71.9945C33.0355 71.9945 32.3193 71.2771 32.3193 70.4011C32.3193 69.525 33.0355 68.8076 33.9101 68.8076C34.7847 68.8076 35.5009 69.525 35.5009 70.4011Z" fill="#FFA264"/>
        <path d="M111.144 62.7028C111.144 63.5858 110.428 64.2963 109.554 64.2963C108.679 64.2963 107.963 63.5789 107.963 62.7028C107.963 61.8268 108.672 61.1094 109.554 61.1094C110.435 61.1094 111.144 61.8268 111.144 62.7028Z" fill="#FFE9CA"/>
        <path d="M35.5009 59.985C35.5009 60.868 34.7847 61.5785 33.9101 61.5785C33.0355 61.5785 32.3193 60.8611 32.3193 59.985C32.3193 59.109 33.0355 58.3916 33.9101 58.3916C34.7847 58.3916 35.5009 59.109 35.5009 59.985Z" fill="#FFE9CA"/>
        <path d="M109.554 5.17352C109.554 6.05646 108.837 6.76695 107.963 6.76695C107.088 6.76695 106.372 6.04956 106.372 5.17352C106.372 4.29747 107.088 3.58008 107.963 3.58008C108.837 3.58008 109.554 4.29747 109.554 5.17352Z" fill="#003659"/>
        <path d="M118.92 68.8075C118.92 69.6905 118.203 70.401 117.329 70.401C116.454 70.401 115.738 69.6836 115.738 68.8075C115.738 67.9315 116.454 67.2141 117.329 67.2141C118.203 67.2141 118.92 67.9315 118.92 68.8075Z" fill="#003659"/>
        <path d="M34.2613 146.851C34.2613 147.734 33.5451 148.445 32.6705 148.445C31.7959 148.445 31.0797 147.728 31.0797 146.851C31.0797 145.975 31.789 145.258 32.6705 145.258C33.552 145.258 34.2613 145.975 34.2613 146.851Z" fill="#003659"/>
        <path d="M10.2336 124.944C10.2336 125.826 9.51743 126.537 8.64282 126.537C7.7682 126.537 7.05199 125.82 7.05199 124.944C7.05199 124.067 7.7682 123.35 8.64282 123.35C9.51743 123.35 10.2336 124.067 10.2336 124.944Z" fill="#FFA264"/>
        <path d="M69.4042 185.246C69.4042 186.129 68.688 186.839 67.8134 186.839C66.9387 186.839 66.2225 186.122 66.2225 185.246C66.2225 184.37 66.9319 183.652 67.8134 183.652C68.6949 183.652 69.4042 184.37 69.4042 185.246Z" fill="#FFA264"/>
        <path d="M66.3327 197.241C66.3327 198.124 65.6165 198.835 64.7419 198.835C63.8673 198.835 63.1511 198.117 63.1511 197.241C63.1511 196.365 63.8673 195.648 64.7419 195.648C65.6165 195.648 66.3327 196.365 66.3327 197.241Z" fill="#FFE9CA"/>
        <path d="M176.238 260.144C176.238 261.027 175.521 261.738 174.647 261.738C173.772 261.738 173.056 261.02 173.056 260.144C173.056 259.268 173.772 258.551 174.647 258.551C175.521 258.551 176.238 259.268 176.238 260.144Z" fill="#FFA264"/>
        <path d="M220.209 269.415C220.209 270.298 219.493 271.009 218.618 271.009C217.744 271.009 217.028 270.291 217.028 269.415C217.028 268.539 217.737 267.822 218.618 267.822C219.5 267.822 220.209 268.539 220.209 269.415Z" fill="#FFE9CA"/>
        <path d="M177.828 274.837C177.828 275.72 177.112 276.431 176.238 276.431C175.363 276.431 174.647 275.713 174.647 274.837C174.647 273.961 175.363 273.244 176.238 273.244C177.112 273.244 177.828 273.961 177.828 274.837Z" fill="#FFE9CA"/>
        <path d="M145.909 227.006C145.909 227.889 145.192 228.6 144.318 228.6C143.443 228.6 142.727 227.882 142.727 227.006C142.727 226.13 143.443 225.413 144.318 225.413C145.192 225.413 145.909 226.13 145.909 227.006Z" fill="#003659"/>
        <path d="M169.075 277.776C169.075 278.659 168.359 279.369 167.485 279.369C166.61 279.369 165.894 278.652 165.894 277.776C165.894 276.9 166.603 276.182 167.485 276.182C168.366 276.182 169.075 276.9 169.075 277.776Z" fill="#003659"/>
        <path d="M235.932 225.868C235.932 226.751 235.215 227.462 234.341 227.462C233.466 227.462 232.75 226.744 232.75 225.868C232.75 224.992 233.459 224.275 234.341 224.275C235.222 224.275 235.932 224.992 235.932 225.868Z" fill="#FFA264"/>
        <path d="M287.609 73.9672C287.609 74.8502 286.893 75.5607 286.019 75.5607C285.144 75.5607 284.428 74.8433 284.428 73.9672C284.428 73.0912 285.144 72.3738 286.019 72.3738C286.893 72.3738 287.609 73.0912 287.609 73.9672Z" fill="#003659"/>
        <path d="M130.262 247.466C130.262 248.349 129.546 249.059 128.671 249.059C127.797 249.059 127.08 248.342 127.08 247.466C127.08 246.59 127.797 245.872 128.671 245.872C129.546 245.872 130.262 246.59 130.262 247.466Z" fill="#FFA264"/>
        <g style="mix-blend-mode:multiply" opacity="0.5">
            <path d="M62.1594 173.519L57.8139 168.594L60.0452 166.614L51.8224 157.288L49.5912 159.268L45.2456 154.336L42.5943 156.681L36.0519 162.469L41.5062 168.656L16.1287 191.082L22.1063 197.869L10.6813 184.915L8.0299 187.26L4.13891 190.702L2.86487 191.827L1.48753 193.047L5.83304 197.973L3.14034 200.359L11.3631 209.685L14.0558 207.299L18.4013 212.224L27.595 204.098L22.1408 197.911L22.1476 197.917L22.2647 197.814L22.2578 197.807L47.5251 175.478L45.7897 173.512L52.9656 181.652L62.1594 173.519Z" fill="#91D9CA"/>
        </g>
        <path d="M9.18947 177.425L-0.00372314 185.557L16.9093 204.739L26.1025 196.607L9.18947 177.425Z" fill="#003659"/>
        <path d="M6.11819 188.923L1.64806 192.877L9.87206 202.204L14.3422 198.25L6.11819 188.923Z" fill="#003659"/>
        <path d="M50.3308 149.801L45.8607 153.755L54.0847 163.083L58.5548 159.128L50.3308 149.801Z" fill="#003659"/>
        <path d="M46.0265 167.981L40.0125 161.154L14.6304 183.583L20.6444 190.411L46.0265 167.981Z" fill="#003659"/>
        <g style="mix-blend-mode:screen" opacity="0.35">
            <path d="M15.9703 184.867L41.2307 162.545L40.0255 161.172L14.6411 183.604L20.6532 190.426L20.7772 190.323L15.9703 184.867Z" fill="#003659"/>
        </g>
        <g style="mix-blend-mode:multiply" opacity="0.61">
            <g style="mix-blend-mode:multiply">
                <path d="M19.4687 187.97L15.1921 183.107L14.6342 183.597L20.6532 190.419L46.0307 167.987L44.3022 166.021L19.4687 187.97Z" fill="#003659"/>
            </g>
        </g>
        <g style="mix-blend-mode:screen" opacity="0.35">
            <path d="M9.18292 177.426L6.53491 179.768L23.4479 198.95L26.0959 196.607L9.18292 177.426Z" fill="#003659"/>
        </g>
        <g style="mix-blend-mode:multiply" opacity="0.61">
            <path d="M2.64801 183.213L0 185.556L16.913 204.738L19.561 202.395L2.64801 183.213Z" fill="#003659"/>
        </g>
        <path d="M43.7567 146.846L34.5635 154.978L51.4765 174.16L60.6697 166.027L43.7567 146.846Z" fill="#003659"/>
        <g style="mix-blend-mode:screen" opacity="0.35">
            <path d="M43.7478 146.858L41.0998 149.201L58.0128 168.382L60.6608 166.04L43.7478 146.858Z" fill="#003659"/>
        </g>
        <g style="mix-blend-mode:multiply" opacity="0.61">
            <path d="M37.2077 152.644L34.5597 154.986L51.4727 174.168L54.1207 171.826L37.2077 152.644Z" fill="#003659"/>
        </g>
        <g style="mix-blend-mode:multiply" opacity="0.5">
            <path d="M232.543 225.282C232.495 224.882 232.433 224.489 232.364 224.095C232.33 223.923 232.302 223.744 232.261 223.571C232.165 223.13 232.054 222.695 231.923 222.261C231.896 222.164 231.875 222.067 231.848 221.978C231.689 221.474 231.51 220.984 231.311 220.509C231.235 220.329 231.152 220.157 231.076 219.977C230.939 219.667 230.794 219.363 230.636 219.067C230.532 218.867 230.429 218.674 230.319 218.48C230.161 218.198 229.995 217.929 229.823 217.66C229.706 217.48 229.603 217.294 229.479 217.115C229.21 216.728 228.928 216.349 228.632 215.983C228.459 215.77 228.28 215.57 228.101 215.369C227.943 215.19 227.785 215.011 227.619 214.838C227.42 214.625 227.206 214.418 226.993 214.211C226.841 214.073 226.69 213.935 226.538 213.797C226.276 213.562 226.022 213.335 225.746 213.121C225.161 212.652 224.534 212.231 223.894 211.831C223.763 211.755 223.639 211.672 223.508 211.596C223.212 211.424 222.909 211.258 222.599 211.107C222.461 211.038 222.323 210.969 222.179 210.906C221.855 210.755 221.531 210.603 221.201 210.465C220.939 210.362 220.678 210.272 220.416 210.175C221.669 207.858 221.463 204.898 219.651 202.753L216.8 199.366L214.817 197.007C214.631 196.786 214.438 196.593 214.232 196.4C214.183 196.352 214.128 196.31 214.073 196.262C213.901 196.11 213.722 195.972 213.536 195.841C213.495 195.814 213.46 195.786 213.419 195.758C212.248 194.979 210.878 194.6 209.514 194.648C207.992 194.703 206.477 195.283 205.265 196.4L147.017 250.287L115.249 279.68L113.865 278.038C113.272 277.327 112.501 276.851 111.675 276.617C111.399 276.541 111.117 276.486 110.835 276.465C109.698 276.368 108.521 276.706 107.584 277.5C105.697 279.093 105.463 281.908 107.047 283.798L115.972 294.407C116.124 294.586 116.296 294.745 116.468 294.89C116.523 294.938 116.564 294.993 116.619 295.034C116.688 295.09 116.771 295.131 116.847 295.179C117.494 295.628 118.238 295.911 119.002 295.973C119.285 296 119.574 295.993 119.856 295.966C120.428 295.904 120.986 295.731 121.509 295.448C121.771 295.303 122.019 295.138 122.253 294.938C122.962 294.345 123.437 293.572 123.671 292.744C123.747 292.468 123.802 292.186 123.823 291.903C123.919 290.765 123.582 289.585 122.79 288.647L121.95 287.647L146.088 268.822L196.209 229.745C196.774 234.339 199.033 238.395 202.338 241.285C202.552 241.472 202.765 241.658 202.992 241.837C203.123 241.941 203.261 242.037 203.392 242.134C203.406 242.148 203.426 242.161 203.44 242.175C203.853 242.479 204.273 242.768 204.707 243.044C204.755 243.072 204.811 243.106 204.859 243.134C205.265 243.382 205.685 243.617 206.112 243.838C206.209 243.886 206.305 243.927 206.401 243.975C206.794 244.169 207.193 244.348 207.607 244.514C207.758 244.576 207.916 244.624 208.068 244.686C208.433 244.824 208.805 244.955 209.184 245.065C209.404 245.134 209.638 245.183 209.865 245.238C210.189 245.321 210.513 245.41 210.843 245.472C211.167 245.534 211.498 245.576 211.828 245.624C212.076 245.659 212.324 245.707 212.579 245.734C213.171 245.79 213.77 245.824 214.383 245.824C215.65 245.824 216.883 245.693 218.074 245.452C221.228 244.803 224.08 243.334 226.414 241.292C230.257 237.926 232.702 232.994 232.702 227.475C232.702 226.903 232.667 226.337 232.619 225.779C232.605 225.606 232.578 225.441 232.564 225.275L232.543 225.282Z" fill="#91D9CA"/>
        </g>
        <path d="M113.424 286.053L106.833 278.224L198.371 193.544C201.14 190.978 205.492 191.254 207.923 194.144L212.758 199.89C215.175 202.767 214.727 207.078 211.759 209.389L113.424 286.06V286.053Z" fill="#FEA364"/>
        <path d="M109.072 291.544L100.146 280.935C98.5556 279.045 98.7966 276.231 100.684 274.637C102.571 273.044 105.38 273.285 106.971 275.175L115.896 285.784C117.487 287.674 117.246 290.489 115.359 292.082C113.472 293.676 110.662 293.434 109.072 291.544Z" fill="#FEA364"/>
        <path d="M115.035 284.798L162.23 248.004L152.286 236.181L108.335 276.831L115.035 284.798Z" fill="#FFE9CA"/>
        <g style="mix-blend-mode:screen" opacity="0.35">
            <path d="M103.218 284.315C101.627 282.425 101.868 279.611 103.755 278.017C105.642 276.424 108.452 276.665 110.043 278.555L111.427 280.197L143.195 250.804L201.443 196.917C203.84 194.703 207.414 194.606 209.907 196.49L207.923 194.131C205.492 191.24 201.147 190.971 198.372 193.53L140.124 247.418L108.355 276.81L106.971 275.168C105.38 273.278 102.571 273.044 100.684 274.63C98.7967 276.217 98.5625 279.038 100.146 280.928L109.072 291.537C109.333 291.848 109.629 292.096 109.946 292.317L103.211 284.315H103.218Z" fill="#FFE9CA"/>
        </g>
        <g style="mix-blend-mode:multiply" opacity="0.45">
            <path d="M212.758 199.883L207.923 194.137C207.118 193.179 206.098 192.516 205.003 192.144L208.757 196.607C211.174 199.483 210.726 203.795 207.758 206.105L130.345 266.463L111.048 281.507L111.888 282.508C113.479 284.398 113.238 287.212 111.351 288.805C110.256 289.73 108.844 290.02 107.55 289.737L109.072 291.544C110.662 293.434 113.472 293.669 115.359 292.082C117.246 290.489 117.48 287.674 115.896 285.784L115.056 284.784L134.353 269.739L211.766 209.382C214.727 207.071 215.182 202.76 212.765 199.883H212.758Z" fill="#FFE9CA"/>
        </g>
        <path d="M209.845 242.812C219.876 241.497 226.944 232.285 225.63 222.237C224.316 212.189 215.12 205.11 205.088 206.426C195.057 207.741 187.989 216.953 189.303 227.001C190.616 237.049 199.813 244.128 209.845 242.812Z" fill="white"/>
        <g style="mix-blend-mode:multiply" opacity="0.45">
            <path d="M214.307 207.595C218.04 210.955 220.409 215.811 220.409 221.24C220.409 231.373 212.207 239.588 202.09 239.588C199.673 239.588 197.373 239.106 195.266 238.257C198.509 241.175 202.786 242.961 207.483 242.961C217.599 242.961 225.801 234.746 225.801 224.613C225.801 216.901 221.043 210.306 214.307 207.595Z" fill="#E5E5E5"/>
        </g>
        <path d="M218.859 210.251C217.95 211.272 217.152 212.369 216.463 213.528L215.203 212.176C215.044 212.003 214.776 211.996 214.597 212.155C214.424 212.314 214.417 212.59 214.576 212.762L216.029 214.321C215.258 215.742 214.631 217.232 214.197 218.791L211.601 217.673C211.387 217.577 211.133 217.673 211.043 217.894C210.947 218.108 211.043 218.363 211.263 218.453L214.004 219.633C213.653 221.116 213.453 222.64 213.419 224.192H211.126C210.892 224.192 210.699 224.385 210.699 224.62C210.699 224.854 210.892 225.047 211.126 225.047H213.419C213.446 226.593 213.653 228.117 214.004 229.607L211.263 230.787C211.05 230.883 210.947 231.131 211.043 231.345C211.112 231.504 211.27 231.601 211.436 231.601C211.491 231.601 211.553 231.587 211.608 231.566L214.204 230.449C214.638 232.008 215.265 233.497 216.036 234.918L214.583 236.477C214.424 236.65 214.431 236.919 214.603 237.084C214.686 237.16 214.789 237.202 214.893 237.202C215.01 237.202 215.12 237.153 215.203 237.064L216.463 235.712C217.152 236.864 217.95 237.967 218.859 238.988C219.08 238.809 219.3 238.63 219.514 238.436C218.577 237.388 217.771 236.25 217.076 235.056L218.963 233.035C219.121 232.863 219.114 232.594 218.942 232.428C218.77 232.27 218.501 232.277 218.336 232.449L216.642 234.263C215.946 232.939 215.382 231.552 214.989 230.104L216.656 229.386C216.869 229.29 216.972 229.041 216.876 228.828C216.787 228.614 216.532 228.51 216.318 228.607L214.796 229.262C214.479 227.889 214.3 226.475 214.273 225.047H216.635C216.869 225.047 217.062 224.854 217.062 224.62C217.062 224.385 216.869 224.192 216.635 224.192H214.273C214.3 222.764 214.486 221.35 214.796 219.977L216.318 220.633C216.373 220.66 216.428 220.667 216.49 220.667C216.656 220.667 216.814 220.571 216.883 220.412C216.979 220.198 216.883 219.943 216.663 219.853L214.996 219.136C215.389 217.694 215.953 216.301 216.649 214.976L218.343 216.791C218.426 216.88 218.543 216.928 218.653 216.928C218.756 216.928 218.859 216.887 218.942 216.811C219.114 216.653 219.121 216.377 218.963 216.204L217.076 214.183C217.771 212.99 218.577 211.852 219.514 210.803C219.3 210.617 219.087 210.431 218.859 210.251Z" fill="#003659"/>
        <path d="M197.883 214.176L195.996 216.197C195.837 216.37 195.844 216.639 196.016 216.804C196.099 216.88 196.202 216.922 196.305 216.922C196.423 216.922 196.533 216.873 196.615 216.784L198.309 214.97C199.005 216.294 199.57 217.68 199.962 219.129L198.296 219.846C198.082 219.943 197.979 220.191 198.075 220.405C198.144 220.564 198.303 220.66 198.468 220.66C198.523 220.66 198.585 220.647 198.64 220.626L200.162 219.971C200.479 221.343 200.658 222.757 200.685 224.185H198.323C198.089 224.185 197.896 224.378 197.896 224.613C197.896 224.847 198.089 225.041 198.323 225.041H200.685C200.658 226.468 200.472 227.883 200.162 229.255L198.64 228.6C198.427 228.503 198.172 228.6 198.082 228.821C197.986 229.035 198.082 229.29 198.303 229.379L199.969 230.097C199.577 231.539 199.012 232.932 198.316 234.256L196.622 232.442C196.464 232.27 196.195 232.263 196.016 232.421C195.844 232.58 195.837 232.849 195.996 233.028L197.883 235.05C197.187 236.243 196.381 237.381 195.445 238.43C195.658 238.616 195.872 238.802 196.099 238.981C197.008 237.961 197.807 236.864 198.495 235.705L199.756 237.057C199.838 237.147 199.955 237.195 200.066 237.195C200.169 237.195 200.272 237.153 200.355 237.078C200.527 236.919 200.534 236.643 200.376 236.471L198.922 234.912C199.694 233.491 200.32 232.001 200.754 230.442L203.351 231.559C203.406 231.58 203.461 231.594 203.523 231.594C203.688 231.594 203.846 231.497 203.915 231.338C204.012 231.125 203.915 230.869 203.695 230.78L200.954 229.6C201.305 228.117 201.505 226.593 201.539 225.041H203.833C204.067 225.041 204.26 224.847 204.26 224.613C204.26 224.378 204.067 224.185 203.833 224.185H201.539C201.512 222.64 201.305 221.116 200.954 219.626L203.695 218.446C203.908 218.35 204.012 218.101 203.915 217.887C203.826 217.674 203.571 217.57 203.357 217.667L200.761 218.784C200.327 217.225 199.701 215.735 198.929 214.314L200.382 212.755C200.541 212.583 200.534 212.314 200.362 212.148C200.19 211.99 199.921 211.996 199.756 212.169L198.495 213.521C197.807 212.362 197.008 211.265 196.099 210.244C195.878 210.424 195.658 210.603 195.445 210.796C196.381 211.845 197.187 212.983 197.883 214.176Z" fill="#003659"/>
    </g>
</svg>
