<svg width="77" height="121" viewBox="0 0 77 121" fill="none" xmlns="http://www.w3.org/2000/svg">
    <defs>
        <linearGradient id="paint0_linear_245_10900" x1="35.7237" y1="12.1724" x2="41.8561" y2="12.1724" gradientUnits="userSpaceOnUse">
            <stop stop-color="#414141"/>
            <stop offset="0.99" stop-color="#262626"/>
        </linearGradient>
    </defs>
    <path d="M45.056 17.0869C45.0226 17.0869 44.9891 17.0758 44.9557 17.0591L38.7397 13.4747C38.6784 13.4413 38.6394 13.3746 38.6394 13.3022V12.3894C38.6394 12.3171 38.6784 12.2558 38.7397 12.2169C38.801 12.1835 38.8735 12.1835 38.9348 12.2169L45.1508 15.8012C45.2121 15.8346 45.2512 15.9014 45.2512 15.9738V16.8866C45.2512 16.9589 45.2121 17.0201 45.1508 17.0591C45.1229 17.0758 45.0839 17.0869 45.0505 17.0869H45.056ZM39.0352 13.1909L44.8609 16.5471V16.0907L39.0352 12.7345V13.1909Z" fill="#0E0E0E"/>
    <path d="M39.4589 13.753C39.3474 13.753 39.2638 13.664 39.2638 13.5582V12.7902C39.2638 12.6788 39.353 12.5954 39.4589 12.5954C39.5648 12.5954 39.654 12.6844 39.654 12.7902V13.5582C39.654 13.6695 39.5648 13.753 39.4589 13.753Z" fill="#0E0E0E"/>
    <path d="M40.0052 14.0647C39.8937 14.0647 39.8101 13.9757 39.8101 13.8699V13.1018C39.8101 12.9905 39.8993 12.907 40.0052 12.907C40.1111 12.907 40.2003 12.9961 40.2003 13.1018V13.8699C40.2003 13.9812 40.1111 14.0647 40.0052 14.0647Z" fill="#0E0E0E"/>
    <path d="M40.5571 14.382C40.4456 14.382 40.362 14.2929 40.362 14.1872V13.4191C40.362 13.3078 40.4512 13.2243 40.5571 13.2243C40.663 13.2243 40.7522 13.3133 40.7522 13.4191V14.1872C40.7522 14.2985 40.663 14.382 40.5571 14.382Z" fill="#0E0E0E"/>
    <path d="M41.1035 14.6992C40.992 14.6992 40.9083 14.6102 40.9083 14.5044V13.7363C40.9083 13.625 40.9975 13.5415 41.1035 13.5415C41.2094 13.5415 41.2986 13.6306 41.2986 13.7363V14.5044C41.2986 14.6157 41.2094 14.6992 41.1035 14.6992Z" fill="#0E0E0E"/>
    <path d="M41.6554 15.0165C41.5439 15.0165 41.4603 14.9274 41.4603 14.8217V14.0536C41.4603 13.9423 41.5495 13.8588 41.6554 13.8588C41.7613 13.8588 41.8505 13.9478 41.8505 14.0536V14.8217C41.8505 14.933 41.7613 15.0165 41.6554 15.0165Z" fill="#0E0E0E"/>
    <path d="M42.2017 15.3337C42.0902 15.3337 42.0066 15.2447 42.0066 15.1389V14.3708C42.0066 14.2595 42.0958 14.176 42.2017 14.176C42.3076 14.176 42.3968 14.2651 42.3968 14.3708V15.1389C42.3968 15.2502 42.3076 15.3337 42.2017 15.3337Z" fill="#0E0E0E"/>
    <path d="M42.7481 15.651C42.6421 15.651 42.5529 15.5619 42.5529 15.4562V14.6881C42.5529 14.5768 42.6421 14.4933 42.7481 14.4933C42.854 14.4933 42.9432 14.5823 42.9432 14.6881V15.4562C42.9432 15.5675 42.854 15.651 42.7481 15.651Z" fill="#0E0E0E"/>
    <path d="M43.3 15.9626C43.1885 15.9626 43.1048 15.8736 43.1048 15.7678V14.9998C43.1048 14.8884 43.194 14.805 43.3 14.805C43.4059 14.805 43.4951 14.894 43.4951 14.9998V15.7678C43.4951 15.8792 43.4059 15.9626 43.3 15.9626Z" fill="#0E0E0E"/>
    <path d="M43.8463 16.2799C43.7348 16.2799 43.6512 16.1908 43.6512 16.0851V15.317C43.6512 15.2057 43.7404 15.1222 43.8463 15.1222C43.9522 15.1222 44.0414 15.2113 44.0414 15.317V16.0851C44.0414 16.1964 43.9522 16.2799 43.8463 16.2799Z" fill="#0E0E0E"/>
    <path d="M44.3982 16.5971C44.2867 16.5971 44.2031 16.5081 44.2031 16.4023V15.6343C44.2031 15.5229 44.2923 15.4395 44.3982 15.4395C44.5041 15.4395 44.5933 15.5285 44.5933 15.6343V16.4023C44.5933 16.5137 44.5041 16.5971 44.3982 16.5971Z" fill="#0E0E0E"/>
    <path d="M32.2673 16.9534C32.2339 16.9534 32.2004 16.9422 32.167 16.9255C32.1056 16.8921 32.0666 16.8253 32.0666 16.753V15.8402C32.0666 15.7678 32.1056 15.7066 32.167 15.6677L38.3829 12.0833C38.4442 12.0499 38.5167 12.0499 38.578 12.0833C38.6394 12.1167 38.6784 12.1835 38.6784 12.2558V13.1686C38.6784 13.241 38.6394 13.3022 38.578 13.3412L32.3621 16.9255C32.3286 16.9422 32.2952 16.9534 32.2617 16.9534H32.2673ZM32.4624 15.9571V16.4135L38.2882 13.0573V12.6009L32.4624 15.9571Z" fill="black"/>
    <path d="M37.8589 13.6195C37.7474 13.6195 37.6638 13.5304 37.6638 13.4247V12.6566C37.6638 12.5453 37.753 12.4618 37.8589 12.4618C37.9648 12.4618 38.054 12.5508 38.054 12.6566V13.4247C38.054 13.536 37.9648 13.6195 37.8589 13.6195Z" fill="black"/>
    <path d="M37.3126 13.9367C37.2011 13.9367 37.1174 13.8477 37.1174 13.7419V12.9738C37.1174 12.8625 37.2066 12.779 37.3126 12.779C37.4185 12.779 37.5077 12.8681 37.5077 12.9738V13.7419C37.5077 13.8532 37.4185 13.9367 37.3126 13.9367Z" fill="black"/>
    <path d="M36.7662 14.254C36.6603 14.254 36.5711 14.1649 36.5711 14.0592V13.2911C36.5711 13.1798 36.6603 13.0963 36.7662 13.0963C36.8721 13.0963 36.9613 13.1853 36.9613 13.2911V14.0592C36.9613 14.1705 36.8721 14.254 36.7662 14.254Z" fill="black"/>
    <path d="M36.2143 14.5712C36.1028 14.5712 36.0192 14.4822 36.0192 14.3764V13.6083C36.0192 13.497 36.1084 13.4135 36.2143 13.4135C36.3202 13.4135 36.4094 13.5026 36.4094 13.6083V14.3764C36.4094 14.4877 36.3202 14.5712 36.2143 14.5712Z" fill="black"/>
    <path d="M35.668 14.8829C35.5565 14.8829 35.4728 14.7938 35.4728 14.6881V13.92C35.4728 13.8087 35.562 13.7252 35.668 13.7252C35.7739 13.7252 35.8631 13.8143 35.8631 13.92V14.6881C35.8631 14.7994 35.7739 14.8829 35.668 14.8829Z" fill="black"/>
    <path d="M35.1161 15.2001C35.0046 15.2001 34.9209 15.1111 34.9209 15.0053V14.2373C34.9209 14.1259 35.0101 14.0425 35.1161 14.0425C35.222 14.0425 35.3112 14.1315 35.3112 14.2373V15.0053C35.3112 15.1167 35.222 15.2001 35.1161 15.2001Z" fill="black"/>
    <path d="M34.5697 15.5174C34.4638 15.5174 34.3746 15.4283 34.3746 15.3226V14.5545C34.3746 14.4432 34.4638 14.3597 34.5697 14.3597C34.6756 14.3597 34.7648 14.4488 34.7648 14.5545V15.3226C34.7648 15.4339 34.6756 15.5174 34.5697 15.5174Z" fill="black"/>
    <path d="M34.0234 15.8346C33.9119 15.8346 33.8283 15.7456 33.8283 15.6398V14.8718C33.8283 14.7604 33.9175 14.677 34.0234 14.677C34.1293 14.677 34.2185 14.766 34.2185 14.8718V15.6398C34.2185 15.7512 34.1293 15.8346 34.0234 15.8346Z" fill="black"/>
    <path d="M33.4715 16.1519C33.36 16.1519 33.2764 16.0628 33.2764 15.9571V15.189C33.2764 15.0777 33.3656 14.9942 33.4715 14.9942C33.5774 14.9942 33.6666 15.0833 33.6666 15.189V15.9571C33.6666 16.0684 33.5774 16.1519 33.4715 16.1519Z" fill="black"/>
    <path d="M32.9251 16.4636C32.8136 16.4636 32.73 16.3745 32.73 16.2688V15.5007C32.73 15.3894 32.8192 15.3059 32.9251 15.3059C33.0311 15.3059 33.1203 15.3949 33.1203 15.5007V16.2688C33.1203 16.3801 33.0311 16.4636 32.9251 16.4636Z" fill="black"/>
    <path d="M17.2263 76.0452C17.2263 76.0452 17.1873 76.0397 17.1706 76.0285C17.1371 76.0063 17.1148 75.9617 17.1148 75.9172V73.9302C17.1148 73.8857 17.1371 73.8412 17.1706 73.8189L38.6561 59.2254C38.6895 59.2032 38.7341 59.2032 38.7676 59.2254C38.801 59.2477 38.8233 59.2922 38.8233 59.3368V61.3237C38.8233 61.3683 38.801 61.4128 38.7676 61.4351L17.2821 76.0285C17.2821 76.0285 17.243 76.0452 17.2263 76.0452ZM17.3378 74.0026V75.689L38.6003 61.2458V59.5594L17.3378 74.0026Z" fill="#18181A"/>
    <path d="M38.0763 59.8432H37.8533V61.8302H38.0763V59.8432Z" fill="#18181A"/>
    <path d="M37.2457 60.4054H37.0227V62.3924H37.2457V60.4054Z" fill="#18181A"/>
    <path d="M36.4094 60.9731H36.1864V62.9601H36.4094V60.9731Z" fill="#18181A"/>
    <path d="M35.5788 61.5352H35.3558V63.5222H35.5788V61.5352Z" fill="#18181A"/>
    <path d="M34.7481 62.1029H34.5251V64.0899H34.7481V62.1029Z" fill="#18181A"/>
    <path d="M33.9175 62.6651H33.6945V64.6521H33.9175V62.6651Z" fill="#18181A"/>
    <path d="M33.0868 63.2328H32.8638V65.2198H33.0868V63.2328Z" fill="#18181A"/>
    <path d="M32.2562 63.7949H32.0332V65.7819H32.2562V63.7949Z" fill="#18181A"/>
    <path d="M31.4255 64.3627H31.2025V66.3496H31.4255V64.3627Z" fill="#18181A"/>
    <path d="M30.5893 64.9248H30.3663V66.9118H30.5893V64.9248Z" fill="#18181A"/>
    <path d="M29.7586 65.4925H29.5356V67.4795H29.7586V65.4925Z" fill="#18181A"/>
    <path d="M28.928 66.0546H28.705V68.0416H28.928V66.0546Z" fill="#18181A"/>
    <path d="M28.0973 66.6224H27.8743V68.6093H28.0973V66.6224Z" fill="#18181A"/>
    <path d="M27.2667 67.1845H27.0437V69.1715H27.2667V67.1845Z" fill="#18181A"/>
    <path d="M26.436 67.7522H26.213V69.7392H26.436V67.7522Z" fill="#18181A"/>
    <path d="M25.5998 68.3144H25.3768V70.3013H25.5998V68.3144Z" fill="#18181A"/>
    <path d="M24.7691 68.8821H24.5461V70.869H24.7691V68.8821Z" fill="#18181A"/>
    <path d="M23.9385 69.4442H23.7155V71.4312H23.9385V69.4442Z" fill="#18181A"/>
    <path d="M23.1078 70.0063H22.8848V71.9933H23.1078V70.0063Z" fill="#18181A"/>
    <path d="M22.2771 70.5741H22.0542V72.561H22.2771V70.5741Z" fill="#18181A"/>
    <path d="M21.4465 71.1362H21.2235V73.1232H21.4465V71.1362Z" fill="#18181A"/>
    <path d="M20.6158 71.7039H20.3928V73.6909H20.6158V71.7039Z" fill="#18181A"/>
    <path d="M19.7796 72.2661H19.5566V74.253H19.7796V72.2661Z" fill="#18181A"/>
    <path d="M18.9489 72.8338H18.726V74.8207H18.9489V72.8338Z" fill="#18181A"/>
    <path d="M18.1183 73.3959H17.8953V75.3829H18.1183V73.3959Z" fill="#18181A"/>
    <path d="M60.2029 75.8616C60.2029 75.8616 60.1639 75.856 60.1472 75.8449L38.2157 60.9453C38.1822 60.923 38.1599 60.8785 38.1599 60.834V58.8024C38.1599 58.7579 38.1822 58.7134 38.2157 58.6911C38.2491 58.6689 38.2937 58.6689 38.3272 58.6911L60.2587 73.5852C60.2921 73.6074 60.3144 73.6519 60.3144 73.6965V75.728C60.3144 75.7725 60.2921 75.817 60.2587 75.8393C60.242 75.8504 60.2197 75.856 60.2029 75.856V75.8616ZM38.3829 60.756L60.0914 75.4998V73.7744L38.3829 59.0306V60.756Z" fill="#18181A"/>
    <path d="M39.1523 59.3256H38.9293V61.3571H39.1523V59.3256Z" fill="#18181A"/>
    <path d="M39.9996 59.9045H39.7766V61.936H39.9996V59.9045Z" fill="#18181A"/>
    <path d="M40.847 60.4777H40.624V62.5092H40.847V60.4777Z" fill="#18181A"/>
    <path d="M41.6944 61.0566H41.4714V63.0881H41.6944V61.0566Z" fill="#18181A"/>
    <path d="M42.5474 61.6299H42.3244V63.6614H42.5474V61.6299Z" fill="#18181A"/>
    <path d="M43.3947 62.2087H43.1717V64.2402H43.3947V62.2087Z" fill="#18181A"/>
    <path d="M44.2421 62.7875H44.0191V64.819H44.2421V62.7875Z" fill="#18181A"/>
    <path d="M45.0895 63.3608H44.8665V65.3923H45.0895V63.3608Z" fill="#18181A"/>
    <path d="M45.9424 63.9397H45.7194V65.9712H45.9424V63.9397Z" fill="#18181A"/>
    <path d="M46.7898 64.5129H46.5668V66.5444H46.7898V64.5129Z" fill="#18181A"/>
    <path d="M47.6372 65.0918H47.4142V67.1233H47.6372V65.0918Z" fill="#18181A"/>
    <path d="M48.4846 65.665H48.2616V67.6966H48.4846V65.665Z" fill="#18181A"/>
    <path d="M49.3375 66.2439H49.1145V68.2754H49.3375V66.2439Z" fill="#18181A"/>
    <path d="M50.1849 66.8227H49.9619V68.8542H50.1849V66.8227Z" fill="#18181A"/>
    <path d="M51.0323 67.396H50.8093V69.4275H51.0323V67.396Z" fill="#18181A"/>
    <path d="M51.8797 67.9748H51.6567V70.0063H51.8797V67.9748Z" fill="#18181A"/>
    <path d="M52.7326 68.5481H52.5096V70.5796H52.7326V68.5481Z" fill="#18181A"/>
    <path d="M53.58 69.127H53.357V71.1585H53.58V69.127Z" fill="#18181A"/>
    <path d="M54.4274 69.7058H54.2044V71.7373H54.4274V69.7058Z" fill="#18181A"/>
    <path d="M55.2748 70.2791H55.0518V72.3106H55.2748V70.2791Z" fill="#18181A"/>
    <path d="M56.1277 70.8579H55.9047V72.8894H56.1277V70.8579Z" fill="#18181A"/>
    <path d="M56.9751 71.4312H56.7521V73.4627H56.9751V71.4312Z" fill="#18181A"/>
    <path d="M57.8225 72.01H57.5995V74.0415H57.8225V72.01Z" fill="#18181A"/>
    <path d="M58.6698 72.5833H58.4469V74.6148H58.6698V72.5833Z" fill="#18181A"/>
    <path d="M59.5228 73.1621H59.2998V75.1937H59.5228V73.1621Z" fill="#18181A"/>
    <path d="M38.5948 61.3905L16.8807 75.7335L38.5948 90.0765L60.3144 75.7335L38.5948 61.3905Z" fill="#828489"/>
    <path d="M38.3439 121V90.5051L60.136 75.5499L60.4371 75.9673C60.4761 76.023 64.3785 81.4385 67.5673 85.1842C70.7506 88.9244 76.3143 94.2509 76.37 94.3065L77 94.9076L66.2349 102.143L65.867 101.18C64.6907 98.0634 61.9312 90.7667 57.0754 90.7667C55.7654 90.7667 54.3549 91.2955 52.8832 92.3307C45.0393 97.8686 47.3752 108.817 48.7466 113.264L48.9027 113.781L38.3439 121ZM39.4589 91.2565V118.724L47.5424 113.197C46.9125 111.015 46.0484 107.225 46.2435 103.267C46.5055 97.9187 48.5459 93.8613 52.3089 91.2064C53.9591 90.0431 55.5591 89.4532 57.0754 89.4532C62.4663 89.4532 65.4154 96.7666 66.7478 100.284L75.0377 94.7128C73.4767 93.1989 69.3624 89.1471 66.7813 86.1081C64.0775 82.9357 60.8775 78.5832 59.8908 77.2307L39.4589 91.2509V91.2565Z" fill="#38383B"/>
    <path d="M38.3774 91.8465V21.7511L42.7258 18.7845L42.9376 19.5637C42.9487 19.6138 44.3759 24.9291 49.1201 43.235C52.7438 57.2051 59.573 76.4905 59.6399 76.6797L59.8294 77.2085L53.7194 81.4106L48.3118 61.9749L44.348 64.3515L44.5599 87.7278L38.3774 91.8353V91.8465ZM39.4923 22.508V89.5979L43.4393 86.9764L43.2275 63.5612L48.964 60.1215L54.3493 79.4682L58.4246 76.663C57.2984 73.4516 51.3556 56.3535 48.0553 43.6246C44.2979 29.1257 42.6198 22.7807 42.0846 20.7437L39.4979 22.508H39.4923Z" fill="#38383B"/>
    <path d="M75.9129 95.4586L60.2029 91.8465C59.98 91.7964 59.8016 91.5849 59.7625 91.3233C59.7179 91.0561 59.8183 90.789 60.0134 90.6498L65.8336 86.3419L53.9145 82.6629L58.3632 89.9708L57.4545 90.7333L52.1027 81.9449C51.9633 81.7223 51.9633 81.4218 52.0971 81.1936C52.2309 80.9654 52.4706 80.8596 52.6992 80.932L67.3555 85.4569C67.5729 85.5237 67.729 85.7352 67.7625 85.9913C67.7959 86.2473 67.6956 86.5089 67.506 86.648L61.7862 90.8836L76.1192 94.1785L75.9073 95.4642L75.9129 95.4586Z" fill="#38383B"/>
    <path d="M59.8573 90.2602L58.7479 90.1823L59.4559 76.3513L60.5709 76.4293L59.8573 90.2602Z" fill="#38383B"/>
    <path d="M67.2719 100.674L66.1569 100.618L66.6586 86.0636L67.7736 86.1137L67.2719 100.674Z" fill="#38383B"/>
    <path d="M70.7673 98.5421L63.2412 89.2306C63.2412 89.2306 63.2301 89.2194 63.2245 89.2083L55.8657 79.3068L56.7075 78.4441L64.0552 88.3345L71.5701 97.6349L70.7617 98.5365L70.7673 98.5421Z" fill="#38383B"/>
    <path d="M64.2113 95.4586L63.5702 94.3789L70.1875 88.9634L70.8231 90.0376L64.2113 95.4586Z" fill="#38383B"/>
    <path d="M56.0775 87.1768L55.5089 86.0525L63.2357 80.6314L63.8043 81.7557L56.0775 87.1768Z" fill="#38383B"/>
    <path d="M47.9271 113.753L38.6394 107.197C38.4721 107.08 38.3662 106.863 38.3662 106.629C38.3662 106.395 38.4721 106.184 38.645 106.067L46.7452 100.557L47.3027 101.692L40.0219 106.64L48.5013 112.624L47.9271 113.748V113.753Z" fill="#38383B"/>
    <path d="M39.4031 120.148L38.3997 119.575L46.0762 101.186L47.0797 101.765L39.4031 120.148Z" fill="#38383B"/>
    <path d="M39.3362 112.718L38.8122 111.56L46.762 106.579L47.286 107.737L39.3362 112.718Z" fill="#38383B"/>
    <path d="M43.0491 116.62L42.3076 88.0339L43.417 87.9949L44.1641 116.581L43.0491 116.62Z" fill="#38383B"/>
    <path d="M39.732 106.373L38.7119 105.844L42.447 95.826L38.5446 91.1841C38.3606 90.9671 38.3328 90.6276 38.4721 90.3715L42.9878 82.0897L38.8066 78.906C38.5502 78.7112 38.4721 78.3049 38.6394 77.9988L42.7704 70.485L38.8624 67.2624L39.5035 66.1882L43.8519 69.7726C44.0972 69.973 44.1641 70.3681 44.0024 70.6631L39.8826 78.1547L44.0581 81.3383C44.3146 81.5331 44.3871 81.9394 44.2254 82.2399L39.6484 90.6276L42.9264 94.5236L46.3661 85.29C46.4721 85.0061 46.7285 84.8503 46.9849 84.9115C47.2414 84.9727 47.4254 85.2343 47.4365 85.5404L47.732 100.49C47.732 100.757 47.6038 101.002 47.3919 101.108C47.1801 101.214 46.9403 101.158 46.7787 100.963L43.2888 96.8167L39.732 106.362V106.373ZM43.7683 95.5366L46.5836 98.8816L46.3773 88.5348L43.7683 95.5366Z" fill="#38383B"/>
    <path d="M39.4756 98.7313L38.9181 97.5959L46.7675 92.2472L47.325 93.3771L39.4756 98.7313Z" fill="#38383B"/>
    <path d="M48.0051 97.5514L46.9738 97.0505L52.3201 81.7724L53.3514 82.2733L48.0051 97.5514Z" fill="#38383B"/>
    <path d="M57.3486 90.1879L46.7062 86.1916L47.0463 84.9393L57.6887 88.9411L57.3486 90.1879Z" fill="#38383B"/>
    <path d="M47.1355 90.3381L46.6114 89.1805L54.1932 84.4607L54.7173 85.6184L47.1355 90.3381Z" fill="#38383B"/>
    <path d="M51.6344 92.1804L49.4602 83.6536L50.5306 83.2807L52.7048 91.8019L51.6344 92.1804Z" fill="#38383B"/>
    <path d="M43.3947 64.4239L38.5836 58.8414C38.4554 58.6911 38.3941 58.4796 38.422 58.2737C38.4498 58.0678 38.5613 57.8841 38.723 57.7895L50.5027 50.7989L51.0044 51.9677L39.916 58.5464L44.1752 63.4888L43.3947 64.4239Z" fill="#38383B"/>
    <path d="M39.247 53.2979L38.7453 52.1291L43.0937 49.5466L43.5954 50.7209L39.247 53.2979Z" fill="#38383B"/>
    <path d="M45.987 49.4297L45.4853 48.2609L49.3933 45.9399L49.895 47.1143L45.987 49.4297Z" fill="#38383B"/>
    <path d="M39.247 42.2832L38.7453 41.1144L46.7397 36.3668L47.2414 37.5412L39.247 42.2832Z" fill="#38383B"/>
    <path d="M39.1077 36.3668L38.6059 35.198L45.4351 31.1405L45.9369 32.3093L39.1077 36.3668Z" fill="#38383B"/>
    <path d="M39.0408 30.4337L38.539 29.2649L44.1641 25.9254L44.6658 27.0998L39.0408 30.4337Z" fill="#38383B"/>
    <path d="M39.1578 79.5071L38.6227 78.355L43.4728 75.2326L44.008 76.3847L39.1578 79.5071Z" fill="#38383B"/>
    <path d="M49.9118 66.3496L49.3766 65.1975L54.2267 62.0751L54.7619 63.2272L49.9118 66.3496Z" fill="#38383B"/>
    <path d="M43.3724 63.8005L42.8763 56.2144L38.8791 53.1309C38.6282 52.9417 38.5558 52.5521 38.7063 52.2515L41.7557 46.1737L39.1523 47.6709C38.9293 47.7989 38.6617 47.7377 38.4944 47.5206C38.3272 47.3035 38.3049 46.9807 38.4387 46.7358L42.3968 39.3333L40.0833 20.6212L41.1871 20.432L43.5285 39.3834C43.5453 39.5393 43.5174 39.6951 43.4505 39.8287L40.4233 45.4891L42.9376 44.0476C43.1606 43.9195 43.4226 43.9808 43.5899 44.1923C43.7571 44.4038 43.785 44.721 43.6623 44.9715L39.9383 52.3907L43.7237 55.3071C43.8686 55.4184 43.9578 55.6021 43.9745 55.8025L44.493 63.7059L43.3836 63.8061L43.3724 63.8005Z" fill="#38383B"/>
    <path d="M48.9027 61.1401L47.8323 60.7783L50.0177 51.8118L51.088 52.1736L48.9027 61.1401Z" fill="#38383B"/>
    <path d="M59.0935 77.3587L52.7772 76.0564C52.5431 76.0063 52.3591 75.7892 52.3257 75.5165C52.2866 75.2437 52.4037 74.9655 52.61 74.8319L55.9214 72.7169L51.1661 71.1919C50.9487 71.1195 50.787 70.9024 50.7591 70.6353C50.7313 70.3681 50.8483 70.1121 51.049 69.9841L54.4664 67.8246L49.6609 66.0602C49.5048 66.0046 49.3821 65.871 49.3152 65.6929C49.2483 65.5203 49.2539 65.32 49.3264 65.1474L51.4727 59.9156L39.4366 67.3014C39.2247 67.4294 38.9683 67.3904 38.7955 67.1956C38.6226 67.0064 38.5725 66.7058 38.6673 66.4498L42.6811 55.9138C42.7536 55.7301 42.8874 55.5966 43.0547 55.5465C43.2219 55.4964 43.3947 55.5465 43.5341 55.6689L47.4867 59.3145L46.4999 53.9825C46.4498 53.7265 46.539 53.4593 46.7229 53.3035C46.9069 53.1532 47.1522 53.1476 47.3417 53.2868L53.2344 57.6615L53.0838 57.9453C53.2567 58.1401 53.3013 58.4462 53.1953 58.7023L50.5975 65.0305L56.0552 67.0342C56.2671 67.1121 56.4232 67.3348 56.4455 67.5964C56.4678 67.858 56.3507 68.114 56.1556 68.2364L52.7995 70.357L57.5437 71.882C57.7612 71.9544 57.9228 72.1714 57.9507 72.4386C57.9786 72.7058 57.8615 72.9618 57.6608 73.0898L54.5333 75.0879L59.2719 76.0619L59.0824 77.3532L59.0935 77.3587ZM43.4115 57.2218L40.3453 65.2699L47.4254 60.9286L43.4115 57.2273V57.2218ZM47.8769 55.2348L48.7745 60.0937L51.8685 58.1958L47.8769 55.2348Z" fill="#38383B"/>
    <path d="M44.3815 63.5167L43.3501 63.0269L46.539 53.604L47.5703 54.0882L44.3815 63.5167Z" fill="#38383B"/>
    <path d="M38.8902 85.5349C38.7397 85.5349 38.5892 85.4625 38.4777 85.3234C38.3049 85.1007 38.2826 84.7724 38.422 84.5163L43.1048 76.1343L38.8345 73.3291C38.7007 73.2401 38.6059 73.0954 38.5669 72.9172C38.5279 72.7447 38.5558 72.561 38.6338 72.4052L43.3111 63.6057L44.2533 64.3014L39.8826 72.5165L44.1641 75.3272C44.2979 75.4163 44.3982 75.5666 44.4317 75.7447C44.4707 75.9228 44.4428 76.1064 44.3536 76.2623L40.5683 83.0358L43.4561 81.1769L43.9912 82.329L39.1411 85.4514C39.0575 85.507 38.9627 85.5293 38.8735 85.5293L38.8902 85.5349Z" fill="#38383B"/>
    <path d="M43.7237 87.7L38.8568 85.2955L39.2861 84.0878L44.1529 86.4922L43.7237 87.7Z" fill="#38383B"/>
    <path d="M52.0636 70.5518L51.0434 70.023L53.5689 63.3107L48.4902 61.6855L48.7856 60.4221L54.4887 62.2477C54.6448 62.2977 54.773 62.4258 54.8455 62.5983C54.918 62.7708 54.918 62.9712 54.8511 63.1437L52.0636 70.5518Z" fill="#38383B"/>
    <path d="M53.3849 75.689L52.3703 75.138L55.3974 67.3904L56.412 67.9414L53.3849 75.689Z" fill="#38383B"/>
    <path d="M54.327 80.4366L53.3514 79.8077L56.9194 72.1993L57.895 72.8338L54.327 80.4366Z" fill="#38383B"/>
    <path d="M42.8261 55.4964L42.7536 39.3222C42.7536 38.9994 42.9543 38.7211 43.2219 38.671C43.4951 38.6209 43.7571 38.8102 43.8407 39.1219L44.9724 43.3018L49.6386 46.1681C49.895 46.324 50.0065 46.6857 49.895 46.9974L47.6093 53.5539C47.5201 53.8099 47.3027 53.9713 47.0686 53.9602C46.8344 53.9491 46.6337 53.7654 46.5613 53.5038L43.8797 43.6079L43.9355 55.4908H42.8205L42.8261 55.4964ZM45.4519 45.0828L47.1633 51.3944L48.6741 47.0587L45.4519 45.0828Z" fill="#38383B"/>
    <path d="M44.6825 44.5151C44.5543 44.5151 44.4205 44.4594 44.3202 44.3537C44.1473 44.1811 44.086 43.9029 44.1529 43.6524L45.9313 37.3185L42.001 34.313C41.7892 34.1516 41.7 33.8511 41.7724 33.5672L43.6122 26.6155L44.6769 27.0052L42.9655 33.4782L46.9013 36.4837C47.1132 36.6451 47.2079 36.9568 47.1243 37.2406L45.6302 42.5504L48.1055 41.081L48.6072 42.2498L44.9278 44.4372C44.8498 44.4817 44.7606 44.5095 44.6769 44.5095L44.6825 44.5151Z" fill="#38383B"/>
    <path d="M50.525 52.2515L45.7696 49.4297C45.5188 49.285 45.4017 48.9454 45.4909 48.6338L47.3139 42.3222L43.2442 39.5115C43.0156 39.3556 42.9153 39.0328 42.9989 38.7434L44.8386 32.1368L41.4324 28.5524L42.1738 27.5729L45.8532 31.4411C46.0205 31.6136 46.0818 31.8863 46.0093 32.1312L44.1975 38.6432L48.2672 41.4595C48.4957 41.6153 48.5961 41.9437 48.5125 42.2331L46.7006 48.5113L51.0211 51.0771L50.5194 52.246L50.525 52.2515Z" fill="#38383B"/>
    <path d="M42.6031 39.9623L38.9237 36.0941C38.762 35.9215 38.6951 35.6544 38.762 35.4039L40.769 27.9959L41.8338 28.391L39.9383 35.3928L43.3501 38.9771L42.6087 39.9567L42.6031 39.9623Z" fill="#38383B"/>
    <path d="M39.4923 58.5019L38.5446 57.8117L42.4024 50.4538L38.7955 47.2702L39.4645 46.2182L43.4784 49.7581C43.7069 49.964 43.7682 50.3369 43.6177 50.6263L39.4923 58.4963V58.5019Z" fill="#38383B"/>
    <path d="M42.9933 44.8657L39.0909 41.7211C38.8735 41.543 38.7899 41.2146 38.8902 40.9307L41.3878 33.8733L38.684 29.7157L39.5704 28.9198L42.4693 33.378C42.592 33.5616 42.6198 33.8121 42.5418 34.0292L40.0944 40.9474L43.6233 43.7915L42.9933 44.8713V44.8657Z" fill="#38383B"/>
    <path d="M38.7899 120.087V90.8001L38.8456 90.7611L60.0357 76.2178L60.097 76.3012C60.136 76.3569 64.0496 81.7891 67.2551 85.5516C70.4551 89.3085 76.0356 94.6516 76.0913 94.7073L76.2195 94.8297L66.4468 101.397L66.2795 100.963C65.0698 97.7517 62.2266 90.2379 57.081 90.2379C55.6873 90.2379 54.1988 90.789 52.6602 91.8799C44.532 97.6182 46.9292 108.872 48.3341 113.442L48.3675 113.542L38.7955 120.082L38.7899 120.087ZM39.0129 90.9504V119.631L48.0888 113.431C47.4644 111.377 46.4888 107.425 46.695 103.295C46.9515 98.1302 48.9194 94.2175 52.5431 91.6572C54.1208 90.5441 55.6483 89.9819 57.081 89.9819C62.3716 89.9819 65.2538 97.607 66.4858 100.863L66.5471 101.03L75.8237 94.7963C74.9763 93.9782 70.037 89.1971 67.099 85.7464C64.1109 82.2344 60.4984 77.2697 59.9911 76.5628L39.0185 90.9559L39.0129 90.9504Z" fill="#6E7073"/>
    <path d="M38.8233 90.9448V22.0516L42.4637 19.5637L42.5083 19.7195C42.5195 19.7696 43.9411 25.0794 48.6908 43.3852C52.3201 57.3776 59.1549 76.6853 59.2273 76.8801L59.2664 76.9858L53.9702 80.6314L48.5738 61.2347L43.902 64.0343L44.1139 87.4272L38.8289 90.9392L38.8233 90.9448ZM39.0463 22.2019V90.494L43.8853 87.277L43.6735 63.8729L48.702 60.8562L54.0929 80.2362L58.982 76.8689C58.4301 75.305 51.9689 56.9212 48.479 43.452C44.1696 26.8437 42.6031 20.9329 42.3411 19.9422L39.0519 22.1908L39.0463 22.2019Z" fill="#6E7073"/>
    <path d="M75.9965 94.941L60.2866 91.3288C60.242 91.3177 60.2085 91.2787 60.1974 91.2231C60.1862 91.1674 60.2085 91.1173 60.2475 91.0895L66.9429 86.136L52.833 81.7835L58.0009 90.2713L57.8225 90.4216L52.4706 81.6333C52.4427 81.5887 52.4427 81.5275 52.4706 81.483C52.4985 81.4384 52.5431 81.4162 52.5932 81.4329L67.2496 85.9579C67.2942 85.969 67.322 86.0135 67.3332 86.0636C67.3388 86.1137 67.322 86.1694 67.283 86.1972L60.6099 91.134L76.0467 94.6794L76.0021 94.9355L75.9965 94.941Z" fill="#6E7073"/>
    <path d="M59.4113 90.2268L59.1939 90.2101L59.9019 76.3847L60.1249 76.4014L59.4113 90.2268Z" fill="#6E7073"/>
    <path d="M66.8259 100.652L66.6029 100.64L67.1046 86.0859L67.3276 86.097L66.8259 100.652Z" fill="#6E7073"/>
    <path d="M71.0906 98.1803L63.5702 88.8688L56.2113 78.9617L56.3786 78.7891L63.7318 88.6907L71.2523 97.9966L71.0906 98.1803Z" fill="#6E7073"/>
    <path d="M63.9548 95.0245L63.8266 94.813L70.4384 89.392L70.5666 89.609L63.9548 95.0245Z" fill="#6E7073"/>
    <path d="M55.849 86.7259L55.7375 86.5033L63.4642 81.0822L63.5757 81.3049L55.849 86.7259Z" fill="#6E7073"/>
    <path d="M48.1557 113.303L38.8679 106.746C38.8345 106.724 38.8122 106.679 38.8122 106.635C38.8122 106.59 38.8345 106.546 38.8679 106.523L46.9682 101.013L47.0797 101.241L39.1411 106.64L48.2672 113.08L48.1501 113.303H48.1557Z" fill="#6E7073"/>
    <path d="M39.0017 119.92L38.801 119.803L46.4776 101.42L46.6783 101.531L39.0017 119.92Z" fill="#6E7073"/>
    <path d="M39.1244 112.256L39.0185 112.028L46.9738 107.041L47.0741 107.275L39.1244 112.256Z" fill="#6E7073"/>
    <path d="M43.4951 116.603L42.7536 88.0172L42.971 88.0061L43.7181 116.597L43.4951 116.603Z" fill="#6E7073"/>
    <path d="M39.3251 106.162L39.1188 106.056L42.9766 95.7091L38.8624 90.8168C38.8233 90.7723 38.8178 90.7055 38.8456 90.6554L43.601 81.9338L39.0519 78.4663C39.0017 78.4274 38.985 78.3439 39.0185 78.2827L43.3836 70.3459L39.1244 66.8339L39.2526 66.6168L43.601 70.2011C43.6512 70.2401 43.6623 70.318 43.6289 70.3792L39.2693 78.3105L43.8184 81.778C43.8686 81.8169 43.8853 81.9004 43.8519 81.9561L39.0798 90.6999L43.0714 95.4475L46.7731 85.507C46.7954 85.4514 46.8456 85.418 46.8957 85.4291C46.9459 85.4402 46.9849 85.4959 46.9849 85.5571L47.2804 100.507C47.2804 100.562 47.2525 100.607 47.2135 100.629C47.1745 100.652 47.1243 100.64 47.0909 100.601L43.1383 95.9039L39.3195 106.156L39.3251 106.162ZM43.2386 95.6534L47.0518 100.19L46.7731 86.1638L43.2386 95.6534Z" fill="#6E7073"/>
    <path d="M39.2526 98.2749L39.1411 98.0467L46.9905 92.698L47.102 92.9262L39.2526 98.2749Z" fill="#6E7073"/>
    <path d="M47.5926 97.351L47.3863 97.2508L52.7326 81.9728L52.9389 82.073L47.5926 97.351Z" fill="#6E7073"/>
    <path d="M57.488 89.6869L46.84 85.6907L46.9069 85.4402L57.5549 89.4365L57.488 89.6869Z" fill="#6E7073"/>
    <path d="M46.9292 89.8762L46.8233 89.6424L54.3995 84.9226L54.5054 85.1564L46.9292 89.8762Z" fill="#6E7073"/>
    <path d="M52.0636 92.0301L49.8894 83.5034L50.1013 83.431L52.2755 91.9522L52.0636 92.0301Z" fill="#6E7073"/>
    <path d="M43.7125 64.051L38.9014 58.4685C38.8735 58.4407 38.8624 58.3961 38.8679 58.3572C38.8735 58.3126 38.8958 58.2793 38.9293 58.2626L50.7089 51.2719L50.8093 51.5057L39.169 58.4184L43.8686 63.8729L43.7125 64.0621V64.051Z" fill="#6E7073"/>
    <path d="M39.0463 52.8304L38.946 52.5966L43.2944 50.0141L43.3947 50.2534L39.0463 52.8304Z" fill="#6E7073"/>
    <path d="M45.7863 48.9621L45.686 48.7284L49.594 46.413L49.6943 46.6468L45.7863 48.9621Z" fill="#6E7073"/>
    <path d="M39.0463 41.8157L38.946 41.5819L46.9403 36.8343L47.0407 37.0681L39.0463 41.8157Z" fill="#6E7073"/>
    <path d="M38.907 35.8993L38.8066 35.6655L45.6358 31.608L45.7362 31.8418L38.907 35.8993Z" fill="#6E7073"/>
    <path d="M38.8401 29.9661L38.7397 29.7324L44.3648 26.3929L44.4651 26.6267L38.8401 29.9661Z" fill="#6E7073"/>
    <path d="M38.9404 79.0452L38.8345 78.817L43.6846 75.6946L43.7905 75.9228L38.9404 79.0452Z" fill="#6E7073"/>
    <path d="M49.6999 65.8877L49.5884 65.6595L54.4385 62.5371L54.55 62.7653L49.6999 65.8877Z" fill="#6E7073"/>
    <path d="M43.8184 63.7615L43.3055 55.9194L39.1244 52.6968C39.0742 52.6578 39.0575 52.5799 39.0909 52.5187L42.8986 44.9381L38.9571 47.1978C38.9125 47.2256 38.8568 47.2089 38.8233 47.17C38.7899 47.1254 38.7843 47.0642 38.8122 47.0141L42.8595 39.4502L40.5237 20.5488L40.7467 20.5099L43.0881 39.4614C43.0881 39.4948 43.0881 39.5226 43.0714 39.5504L39.2136 46.7692L43.1383 44.5207C43.1829 44.4928 43.2331 44.5095 43.2665 44.5485C43.3 44.593 43.3055 44.6542 43.2832 44.7043L39.3418 52.5576L43.4783 55.7468C43.5062 55.7691 43.5285 55.808 43.5285 55.847L44.047 63.7504L43.824 63.7727L43.8184 63.7615Z" fill="#6E7073"/>
    <path d="M48.4734 60.9953L48.2616 60.923L50.4469 51.9565L50.6588 52.0289L48.4734 60.9953Z" fill="#6E7073"/>
    <path d="M59.1716 76.8411L52.8553 75.5387C52.8107 75.5276 52.7717 75.4831 52.7661 75.433C52.7605 75.3773 52.7828 75.3217 52.8218 75.2938L57.1089 72.5555L51.2832 70.6854C51.2386 70.6687 51.2051 70.6297 51.1995 70.5741C51.1995 70.5184 51.2163 70.4683 51.2553 70.446L55.6093 67.6965L49.7891 65.5593C49.7556 65.5482 49.7334 65.5203 49.7222 65.4869C49.7111 65.4535 49.7111 65.4146 49.7222 65.3756L52.4595 58.7189L39.2303 66.8339C39.1857 66.8617 39.1355 66.8505 39.1021 66.8116C39.0686 66.7726 39.0575 66.7114 39.0742 66.6613L43.0881 56.1253C43.1048 56.0863 43.1327 56.0641 43.1606 56.0529C43.194 56.0418 43.2275 56.0529 43.2554 56.0752L48.1835 60.6169L46.9348 53.86C46.9236 53.8099 46.9403 53.7543 46.9794 53.7264C47.0184 53.6986 47.063 53.693 47.102 53.7264L52.9946 58.1011L52.8776 58.3238L47.2079 54.1161L48.4567 60.8673L52.649 58.2959C52.6936 58.2681 52.7438 58.2793 52.7772 58.3182C52.8107 58.3572 52.8218 58.4184 52.7995 58.4685L49.9731 65.3422L55.927 67.524C55.9716 67.5407 55.9995 67.5852 56.0051 67.6353C56.0051 67.6854 55.9883 67.7355 55.9493 67.7633L51.6065 70.5017L57.4267 72.3718C57.4713 72.3885 57.5047 72.4275 57.5103 72.4831C57.5103 72.5388 57.4936 72.5889 57.4545 72.6111L53.2065 75.3272L59.205 76.5628L59.166 76.8189L59.1716 76.8411ZM43.2386 56.398L39.4143 66.4331L48.2449 61.012L43.2386 56.3925V56.398Z" fill="#6E7073"/>
    <path d="M43.9689 63.3218L43.7627 63.2217L46.9515 53.7988L47.1578 53.899L43.9689 63.3218Z" fill="#6E7073"/>
    <path d="M38.8902 85.0061C38.8624 85.0061 38.8289 84.9894 38.8066 84.9616C38.7732 84.9171 38.7676 84.8503 38.7955 84.8002L43.7459 75.945L39.0575 72.8672C39.0575 72.8672 39.0129 72.8226 39.0017 72.7837C38.9962 72.7503 39.0017 72.7113 39.0129 72.6835L43.6902 63.884L43.8797 64.0231L39.2638 72.7058L43.9522 75.7836C43.9522 75.7836 43.9968 75.8337 44.008 75.8671C44.0135 75.9005 44.008 75.9395 43.9912 75.9729L39.2247 84.5052L43.6846 81.6333L43.7905 81.8615L38.9404 84.9839C38.9404 84.9839 38.907 85.0006 38.8847 85.0006L38.8902 85.0061Z" fill="#6E7073"/>
    <path d="M43.8965 87.2157L39.0296 84.8113L39.1132 84.572L43.9801 86.9764L43.8965 87.2157Z" fill="#6E7073"/>
    <path d="M51.6567 70.3403L51.4504 70.2345L54.1821 62.9656L48.6016 61.179L48.663 60.9286L54.3661 62.7541C54.3995 62.7653 54.4218 62.7875 54.4385 62.8265C54.4553 62.8655 54.4553 62.8988 54.4385 62.9378L51.6511 70.3459L51.6567 70.3403Z" fill="#6E7073"/>
    <path d="M52.9779 75.4664L52.7772 75.3606L55.8044 67.6075L56.0051 67.7188L52.9779 75.4664Z" fill="#6E7073"/>
    <path d="M53.9368 80.1862L53.7417 80.0581L57.3096 72.4553L57.5047 72.5777L53.9368 80.1862Z" fill="#6E7073"/>
    <path d="M43.2721 55.4908L43.1996 39.3167C43.1996 39.2499 43.2386 39.1942 43.2944 39.1886C43.3501 39.1775 43.4003 39.2165 43.417 39.2777L44.6658 43.8917L44.7327 43.7414L49.4379 46.6301C49.4881 46.6635 49.5104 46.7358 49.4881 46.7971L47.2024 53.3535C47.1856 53.4036 47.141 53.437 47.0964 53.437C47.0518 53.437 47.0072 53.3981 46.9961 53.348L43.4282 40.1793L43.5007 55.4964H43.2777L43.2721 55.4908ZM44.6992 44.0197L47.1132 52.9194L49.2428 46.8082L44.6992 44.0197Z" fill="#6E7073"/>
    <path d="M44.6825 43.9919C44.6825 43.9919 44.6323 43.9808 44.61 43.9585C44.5766 43.9251 44.5654 43.8695 44.5766 43.8194L46.4665 37.1015L42.2463 33.8789C42.2017 33.8455 42.185 33.7843 42.2017 33.7286L44.0414 26.777L44.2533 26.8549L42.4414 33.7119L46.6616 36.9345C46.7062 36.9679 46.7229 37.0291 46.7062 37.0848L44.8776 43.5967L48.3173 41.5541L48.4177 41.7879L44.7383 43.9752C44.7383 43.9752 44.7048 43.9919 44.6881 43.9919H44.6825Z" fill="#6E7073"/>
    <path d="M50.7257 51.784L45.9703 48.9621C45.9201 48.9343 45.8978 48.8675 45.9146 48.8007L47.8546 42.0828L43.4728 39.0551C43.4282 39.0217 43.4059 38.9604 43.4226 38.8992L45.3515 31.9643L41.7278 28.1517L41.8784 27.9569L45.5578 31.8251C45.5912 31.8585 45.6024 31.9142 45.5912 31.9643L43.6679 38.8769L48.0497 41.9047C48.0943 41.9381 48.1166 41.9994 48.0999 42.0606L46.1599 48.7729L50.8316 51.5391L50.7312 51.7729L50.7257 51.784Z" fill="#6E7073"/>
    <path d="M42.8986 39.5671L39.2192 35.6989C39.1857 35.6655 39.1746 35.6098 39.1857 35.5598L41.1927 28.1517L41.4045 28.2296L39.4199 35.5598L43.0435 39.3723L42.893 39.5671H42.8986Z" fill="#6E7073"/>
    <path d="M39.1132 58.2292L38.9237 58.09L42.9933 50.3258L39.0631 46.8583L39.1969 46.6468L43.2108 50.1866C43.2554 50.2256 43.2665 50.3035 43.2386 50.3592L39.1132 58.2292Z" fill="#6E7073"/>
    <path d="M43.2442 44.4316L39.3418 41.2869C39.2972 41.2535 39.2805 41.1868 39.3028 41.1311L41.9007 33.7898L39.0408 29.3929L39.2192 29.2315L42.1181 33.6896C42.1404 33.7286 42.146 33.7787 42.1348 33.8177L39.5481 41.1255L43.3724 44.2145L43.2442 44.4316Z" fill="#6E7073"/>
    <path d="M38.6561 121L28.0973 113.781L28.2534 113.264C29.6248 108.817 31.9607 97.8686 24.1169 92.3307C22.6451 91.2899 21.2347 90.7667 19.9246 90.7667C15.0689 90.7667 12.3093 98.0634 11.133 101.18L10.7651 102.143L0 94.9076L0.629959 94.3065C0.685708 94.2509 6.24385 88.9244 9.43267 85.1842C12.6215 81.4385 16.5239 76.023 16.5629 75.9673L16.864 75.5499L38.6561 90.5051V121ZM29.4576 113.197L37.5411 118.724V91.2565L17.1093 77.2363C16.1225 78.5888 12.9225 82.9412 10.2187 86.1137C7.63199 89.1471 3.51774 93.1989 1.96235 94.7184L10.2522 100.29C11.5901 96.7722 14.5337 89.4587 19.9246 89.4587C21.4409 89.4587 23.0465 90.0487 24.6911 91.212C28.4541 93.8668 30.4945 97.9243 30.7565 103.273C30.9516 107.23 30.0875 111.021 29.4576 113.202V113.197Z" fill="#494A4D"/>
    <path d="M38.6226 91.8465L32.4401 87.7389L32.652 64.3627L28.6882 61.9861L23.2806 81.4218L17.1706 77.2196L17.3601 76.6908C17.427 76.496 24.2562 57.2106 27.8799 43.2461C32.6297 24.9402 34.0513 19.6249 34.0624 19.5748L34.2743 18.7956L38.6226 21.7622V91.8576V91.8465ZM33.5662 86.9764L37.5077 89.5979V22.508L34.9209 20.7437C34.3802 22.7807 32.7077 29.1257 28.9503 43.6246C25.6499 56.3535 19.7071 73.4516 18.581 76.663L22.6562 79.4682L28.036 60.1215L33.7725 63.5612L33.5607 86.9764H33.5662Z" fill="#494A4D"/>
    <path d="M1.0871 95.4586L0.875259 94.1729L15.2082 90.878L9.48842 86.6424C9.29888 86.5033 9.19853 86.2473 9.23198 85.9857C9.26543 85.7297 9.4271 85.5182 9.63894 85.4514L24.2953 80.9264C24.5238 80.854 24.7635 80.9598 24.8973 81.188C25.0311 81.4162 25.0256 81.7167 24.8918 81.9394L19.5399 90.7277L18.6312 89.9652L23.0799 82.6574L11.1609 86.3363L16.981 90.6442C17.1762 90.789 17.2765 91.0561 17.2319 91.3177C17.1873 91.5793 17.0145 91.7908 16.7915 91.8409L1.08153 95.4531L1.0871 95.4586Z" fill="#494A4D"/>
    <path d="M17.1427 90.2602L16.4347 76.4293L17.5441 76.3513L18.2521 90.1823L17.1427 90.2602Z" fill="#494A4D"/>
    <path d="M9.72813 100.674L9.22639 86.1137L10.3414 86.0636L10.8431 100.618L9.72813 100.674Z" fill="#494A4D"/>
    <path d="M6.2327 98.5421L5.42435 97.6404L12.9393 88.34L20.2869 78.4496L21.1287 79.3123L13.7699 89.2138C13.7699 89.2138 13.7588 89.225 13.7532 89.2361L6.22713 98.5477L6.2327 98.5421Z" fill="#494A4D"/>
    <path d="M12.7887 95.4586L6.17694 90.0376L6.81248 88.9634L13.4298 94.3789L12.7887 95.4586Z" fill="#494A4D"/>
    <path d="M20.9225 87.1768L13.1957 81.7557L13.7643 80.6314L21.4967 86.0525L20.9225 87.1768Z" fill="#494A4D"/>
    <path d="M29.0729 113.753L28.4987 112.629L36.9781 106.646L29.6973 101.698L30.2548 100.562L38.3551 106.073C38.5279 106.189 38.6338 106.401 38.6338 106.635C38.6338 106.868 38.5334 107.086 38.3606 107.202L29.0729 113.759V113.753Z" fill="#494A4D"/>
    <path d="M37.5969 120.154L29.9203 101.765L30.9238 101.186L38.6003 119.575L37.5969 120.154Z" fill="#494A4D"/>
    <path d="M37.6638 112.718L29.714 107.737L30.2381 106.579L38.1878 111.56L37.6638 112.718Z" fill="#494A4D"/>
    <path d="M33.9509 116.62L32.8359 116.581L33.583 87.9949L34.6979 88.0339L33.9509 116.62Z" fill="#494A4D"/>
    <path d="M37.268 106.373L33.7112 96.8278L30.2213 100.974C30.0597 101.164 29.8199 101.219 29.6081 101.119C29.3963 101.013 29.2625 100.768 29.268 100.501L29.5635 85.5516C29.5691 85.2455 29.7586 84.9839 30.0151 84.9226C30.2715 84.8614 30.5279 85.0228 30.6339 85.3011L34.0736 94.5347L37.3516 90.6387L32.7746 82.2511C32.6074 81.9449 32.6854 81.5442 32.9419 81.3494L37.1174 78.1658L32.9976 70.6742C32.8359 70.3793 32.9028 69.9841 33.1481 69.7837L37.4965 66.1994L38.1376 67.2736L34.2297 70.4961L38.3606 78.0099C38.5279 78.3161 38.4554 78.7168 38.1934 78.9172L34.0122 82.1008L38.5279 90.3827C38.6672 90.6387 38.6394 90.9782 38.4554 91.1953L34.553 95.8371L38.2882 105.856L37.268 106.384V106.373ZM30.6227 88.5348L30.4165 98.8816L33.2318 95.5366L30.6227 88.5348Z" fill="#494A4D"/>
    <path d="M37.5244 98.7313L29.675 93.3771L30.2325 92.2472L38.0819 97.5959L37.5244 98.7313Z" fill="#494A4D"/>
    <path d="M28.9949 97.5514L23.6486 82.2733L24.6799 81.7724L30.0262 97.0505L28.9949 97.5514Z" fill="#494A4D"/>
    <path d="M19.6514 90.1879L19.3113 88.9411L29.9537 84.9393L30.2938 86.1916L19.6514 90.1879Z" fill="#494A4D"/>
    <path d="M29.8645 90.3381L22.2827 85.6184L22.8068 84.4607L30.3886 89.1804L29.8645 90.3381Z" fill="#494A4D"/>
    <path d="M25.3656 92.1804L24.2952 91.8019L26.4694 83.2807L27.5398 83.6536L25.3656 92.1804Z" fill="#494A4D"/>
    <path d="M33.6053 64.4239L32.8248 63.4888L37.084 58.5464L25.9956 51.9677L26.4973 50.7989L38.277 57.7895C38.4387 57.8841 38.5502 58.0622 38.578 58.2737C38.6059 58.4796 38.5446 58.6911 38.4164 58.8414L33.6053 64.4239Z" fill="#494A4D"/>
    <path d="M37.753 53.2979L33.4046 50.7209L33.9063 49.5465L38.2547 52.1291L37.753 53.2979Z" fill="#494A4D"/>
    <path d="M31.013 49.4297L27.105 47.1143L27.6067 45.9399L31.5147 48.2609L31.013 49.4297Z" fill="#494A4D"/>
    <path d="M37.753 42.2832L29.7586 37.5412L30.2604 36.3668L38.2547 41.1144L37.753 42.2832Z" fill="#494A4D"/>
    <path d="M37.8923 36.3668L31.0631 32.3093L31.5649 31.1405L38.3941 35.198L37.8923 36.3668Z" fill="#494A4D"/>
    <path d="M37.9592 30.4337L32.3342 27.0998L32.8415 25.9254L38.461 29.2649L37.9592 30.4337Z" fill="#494A4D"/>
    <path d="M37.8422 79.5071L32.9976 76.3847L33.5328 75.2326L38.3774 78.355L37.8422 79.5071Z" fill="#494A4D"/>
    <path d="M27.0883 66.3496L22.2381 63.2272L22.7733 62.0751L27.6234 65.1975L27.0883 66.3496Z" fill="#494A4D"/>
    <path d="M33.6276 63.8005L32.5182 63.7003L33.0366 55.7969C33.0478 55.5966 33.1426 55.4129 33.2875 55.3016L37.0728 52.3851L33.3488 44.9659C33.2262 44.7155 33.2541 44.3982 33.4213 44.1867C33.5885 43.9752 33.8561 43.914 34.0736 44.042L36.5878 45.4835L33.5607 39.8231C33.4882 39.6896 33.4603 39.5337 33.4826 39.3779L35.8241 20.4264L36.9279 20.6156L34.6143 39.3278L38.5725 46.7303C38.7063 46.9807 38.684 47.298 38.5167 47.515C38.3495 47.7321 38.0819 47.7933 37.8589 47.6653L35.2554 46.1681L38.3049 52.246C38.4554 52.5465 38.3774 52.9361 38.1321 53.1253L34.1349 56.2088L33.6387 63.7949L33.6276 63.8005Z" fill="#494A4D"/>
    <path d="M28.0973 61.1401L25.912 52.1736L26.9823 51.8118L29.1677 60.7783L28.0973 61.1401Z" fill="#494A4D"/>
    <path d="M17.9065 77.3587L17.7169 76.0675L22.4556 75.0935L19.3281 73.0954C19.1274 72.9673 19.0159 72.7113 19.0382 72.4442C19.066 72.177 19.2277 71.9599 19.4451 71.8876L24.1893 70.3626L20.8333 68.242C20.6381 68.1196 20.5211 67.8635 20.5434 67.6019C20.5657 67.3403 20.7162 67.1177 20.9336 67.0398L26.3914 65.0361L23.7935 58.7078C23.6876 58.4518 23.7322 58.1512 23.905 57.9509L23.7545 57.667L29.6471 53.2923C29.8367 53.1532 30.082 53.1587 30.2659 53.309C30.4499 53.4593 30.5391 53.7265 30.4889 53.988L29.5022 59.3201L33.4548 55.6745C33.5886 55.552 33.7669 55.5075 33.9342 55.552C34.1014 55.6021 34.2408 55.7357 34.3077 55.9194L38.3216 66.4554C38.4164 66.7114 38.3662 67.012 38.1934 67.2012C38.0206 67.3904 37.7641 67.435 37.5523 67.3069L25.5162 59.9212L27.6625 65.153C27.7349 65.3255 27.7349 65.5259 27.6736 65.6984C27.6067 65.871 27.4841 66.0046 27.328 66.0658L22.5225 67.8301L25.9398 69.9897C26.1405 70.1177 26.2576 70.3737 26.2297 70.6408C26.2019 70.908 26.0402 71.1306 25.8228 71.1974L21.0674 72.7225L24.3789 74.8374C24.5851 74.971 24.7022 75.2437 24.6632 75.522C24.6242 75.7948 24.4402 76.0118 24.2116 76.0619L17.8953 77.3643L17.9065 77.3587ZM29.5747 60.923L36.6547 65.2643L33.5886 57.2162L29.5747 60.9174V60.923ZM25.1315 58.1958L28.2255 60.0937L29.1231 55.2348L25.1315 58.1958Z" fill="#494A4D"/>
    <path d="M32.6185 63.5167L29.4297 54.0882L30.4666 53.604L33.6554 63.0269L32.6185 63.5167Z" fill="#494A4D"/>
    <path d="M38.1098 85.5349C38.0206 85.5349 37.9258 85.507 37.8422 85.4569L32.992 82.3345L33.5272 81.1824L36.415 83.0414L32.6297 76.2679C32.5461 76.1176 32.5182 75.9283 32.5516 75.7502C32.5906 75.5721 32.6854 75.4219 32.8192 75.3328L37.1007 72.5221L32.73 64.307L33.6722 63.6113L38.3495 72.4108C38.4331 72.561 38.4554 72.7503 38.4164 72.9228C38.3774 73.0954 38.2826 73.2456 38.1488 73.3347L33.8784 76.1398L38.5613 84.5219C38.7007 84.7724 38.6784 85.1063 38.5056 85.3289C38.3997 85.4681 38.2491 85.5404 38.093 85.5404L38.1098 85.5349Z" fill="#494A4D"/>
    <path d="M33.2764 87.7L32.8471 86.4922L37.7139 84.0878L38.1432 85.2955L33.2764 87.7Z" fill="#494A4D"/>
    <path d="M24.9364 70.5518L22.1489 63.1437C22.082 62.9712 22.0876 62.7708 22.1545 62.5983C22.227 62.4258 22.3552 62.2977 22.5113 62.2477L28.2144 60.4221L28.5098 61.6855L23.4311 63.3107L25.9566 70.023L24.9364 70.5518Z" fill="#494A4D"/>
    <path d="M23.6151 75.689L20.5935 67.9414L21.6026 67.3904L24.6297 75.138L23.6151 75.689Z" fill="#494A4D"/>
    <path d="M22.673 80.4366L19.1051 72.8338L20.0807 72.1993L23.6486 79.8077L22.673 80.4366Z" fill="#494A4D"/>
    <path d="M34.1739 55.4964H33.0589L33.1147 43.6079L30.4332 53.5038C30.3607 53.7654 30.16 53.9491 29.9259 53.9602C29.6917 53.9713 29.4743 53.8099 29.3851 53.5539L27.0994 46.9974C26.9879 46.6857 27.0994 46.324 27.3559 46.1681L32.022 43.3018L33.1537 39.1219C33.2373 38.8157 33.4994 38.6209 33.7725 38.671C34.0457 38.7211 34.2464 38.9994 34.2408 39.3222L34.1683 55.4964H34.1739ZM28.3259 47.0531L29.8367 51.3888L31.5481 45.0772L28.3259 47.0531Z" fill="#494A4D"/>
    <path d="M32.3175 44.5151C32.2339 44.5151 32.1447 44.4928 32.0666 44.4427L28.3872 42.2554L28.8889 41.0866L31.3698 42.5559L29.8757 37.2462C29.7976 36.9623 29.8868 36.6506 30.0987 36.4892L34.0345 33.4837L32.3231 27.0107L33.3879 26.6211L35.2276 33.5728C35.3 33.8511 35.2108 34.1572 34.999 34.3186L31.0687 37.3241L32.8471 43.658C32.9196 43.9084 32.8471 44.1867 32.6798 44.3592C32.5739 44.465 32.4457 44.5207 32.3175 44.5207V44.5151Z" fill="#494A4D"/>
    <path d="M26.475 52.2515L25.9733 51.0827L30.2938 48.5169L28.482 42.2387C28.3983 41.9437 28.4987 41.6209 28.7273 41.465L32.7969 38.6488L30.9851 32.1368C30.9182 31.8919 30.9795 31.6192 31.1412 31.4466L34.8206 27.5784L35.562 28.558L32.1558 32.1424L33.9955 38.7489C34.0791 39.0439 33.9732 39.3612 33.7502 39.517L29.6806 42.3277L31.5035 48.6393C31.5927 48.951 31.4757 49.2905 31.2248 49.4352L26.4694 52.2571L26.475 52.2515Z" fill="#494A4D"/>
    <path d="M34.3969 39.9623L33.6554 38.9827L37.0673 35.3983L35.1718 28.3966L36.231 28.0014L38.238 35.4095C38.3049 35.6544 38.238 35.9271 38.0763 36.0996L34.3969 39.9678V39.9623Z" fill="#494A4D"/>
    <path d="M37.5077 58.5019L33.3823 50.6319C33.2318 50.3425 33.2931 49.964 33.5216 49.7636L37.5355 46.2238L38.2045 47.2757L34.5976 50.4593L38.4554 57.8173L37.5077 58.5075V58.5019Z" fill="#494A4D"/>
    <path d="M34.0067 44.8657L33.3767 43.786L36.9056 40.9419L34.4582 34.0236C34.3802 33.8065 34.4081 33.5616 34.5307 33.3724L37.4296 28.9142L38.316 29.7101L35.6122 33.8678L38.1098 40.9252C38.2101 41.209 38.1265 41.543 37.9091 41.7155L34.0067 44.8602V44.8657Z" fill="#494A4D"/>
    <path d="M38.2101 120.087L28.6381 113.547L28.6715 113.447C30.0764 108.878 32.4736 97.6237 24.3454 91.8854C22.8012 90.7945 21.3127 90.2435 19.9246 90.2435C14.779 90.2435 11.9358 97.7573 10.726 100.969L10.5644 101.403L0.786057 94.8353L0.914278 94.7128C0.970027 94.6572 6.55046 89.314 9.75043 85.5571C12.9504 81.8002 16.8695 76.3625 16.9086 76.3068L16.9699 76.2233L38.2157 90.8057V120.093L38.2101 120.087ZM28.9112 113.431L37.9871 119.631V90.9504L17.0145 76.5573C16.5072 77.2641 12.8947 82.2288 9.90653 85.7408C6.96858 89.1916 2.02925 93.9781 1.18187 94.7908L10.4584 101.024L10.5198 100.857C11.7518 97.6015 14.6284 89.9764 19.9246 89.9764C21.3573 89.9764 22.8848 90.5385 24.4625 91.6517C28.0862 94.2119 30.0541 98.1302 30.3105 103.29C30.5168 107.42 29.5412 111.371 28.9168 113.425L28.9112 113.431Z" fill="#84868B"/>
    <path d="M38.1767 90.9448L32.8917 87.4328V87.3549L33.1035 64.0398L28.4318 61.2402L23.0353 80.637L17.7392 76.9914L17.7782 76.8856C17.8451 76.6908 24.6855 57.3832 28.3147 43.3908C33.0645 25.085 34.4861 19.7752 34.4972 19.7251L34.5418 19.5693L38.1822 22.0572V90.9504L38.1767 90.9448ZM33.1147 87.277L37.9537 90.494V22.2075L34.6645 19.9589C34.4025 20.9496 32.8304 26.8604 28.5266 43.4687C25.0367 56.9379 18.5754 75.3161 18.0235 76.8856L22.9127 80.2529L28.3036 60.8729L33.3321 63.8896V63.973L33.1203 87.2936L33.1147 87.277Z" fill="#84868B"/>
    <path d="M1.00348 94.941L0.958878 94.685L16.3957 91.1396L9.72256 86.2028C9.68354 86.1749 9.66681 86.1248 9.67239 86.0692C9.67796 86.0191 9.71141 85.9746 9.75601 85.9634L24.4123 81.4385C24.4569 81.4273 24.5071 81.444 24.535 81.4886C24.5628 81.5331 24.5628 81.5943 24.535 81.6388L19.1831 90.4272L18.9991 90.2769L24.167 81.7891L10.0571 86.1415L16.7525 91.0951C16.7915 91.1229 16.8138 91.1786 16.8026 91.2287C16.7915 91.2788 16.758 91.3233 16.7134 91.3344L1.00348 94.9466V94.941Z" fill="#84868B"/>
    <path d="M17.5887 90.2268L16.8751 76.4014L17.0981 76.3847L17.8061 90.2101L17.5887 90.2268Z" fill="#84868B"/>
    <path d="M10.1741 100.652L9.67239 86.097L9.89539 86.0859L10.3971 100.64L10.1741 100.652Z" fill="#84868B"/>
    <path d="M5.90935 98.1803L5.74768 97.9966L13.2682 88.6851L20.6214 78.7891L20.7887 78.9617L13.4354 88.8632L5.90935 98.1803Z" fill="#84868B"/>
    <path d="M13.0452 95.0245L6.4334 89.609L6.56162 89.392L13.1734 94.813L13.0452 95.0245Z" fill="#84868B"/>
    <path d="M21.151 86.7259L13.4243 81.3049L13.5358 81.0822L21.2681 86.5033L21.151 86.7259Z" fill="#84868B"/>
    <path d="M28.8443 113.303L28.7273 113.08L37.8533 106.64L29.9203 101.241L30.0318 101.013L38.1321 106.523C38.1655 106.546 38.1878 106.59 38.1878 106.635C38.1878 106.679 38.1655 106.724 38.1321 106.746L28.8443 113.303Z" fill="#84868B"/>
    <path d="M37.9983 119.92L30.3217 101.531L30.5224 101.42L38.199 119.803L37.9983 119.92Z" fill="#84868B"/>
    <path d="M37.8756 112.256L29.9259 107.275L30.0318 107.041L37.9815 112.028L37.8756 112.256Z" fill="#84868B"/>
    <path d="M33.5049 116.603L33.2819 116.597L34.029 88.0061L34.252 88.0172L33.5049 116.603Z" fill="#84868B"/>
    <path d="M37.6749 106.162L33.8561 95.9095L29.9036 100.607C29.8701 100.646 29.8199 100.657 29.7809 100.635C29.7363 100.613 29.714 100.562 29.714 100.512L30.0095 85.5627C30.0095 85.5015 30.0485 85.4514 30.0987 85.4347C30.1489 85.4236 30.199 85.4569 30.2213 85.5126L33.923 95.4531L37.9146 90.7055L33.1481 81.9616C33.1147 81.9004 33.1314 81.8225 33.1816 81.7835L37.7307 78.3161L33.3711 70.3848C33.3377 70.3236 33.3488 70.2457 33.399 70.2067L37.7474 66.6224L37.8756 66.8394L33.6164 70.3514L37.9815 78.2882C38.015 78.3495 37.9983 78.4274 37.9481 78.4719L33.399 81.9394L38.1544 90.6609C38.1822 90.711 38.1767 90.7778 38.1376 90.8224L34.0234 95.7147L37.8756 106.061L37.6693 106.167L37.6749 106.162ZM30.2213 86.1582L29.9426 100.184L33.7558 95.6479L30.2213 86.1582Z" fill="#84868B"/>
    <path d="M37.7474 98.2749L29.898 92.9262L30.0095 92.698L37.8589 98.0467L37.7474 98.2749Z" fill="#84868B"/>
    <path d="M29.4074 97.351L24.0611 82.073L24.2674 81.9728L29.6137 97.2508L29.4074 97.351Z" fill="#84868B"/>
    <path d="M19.5176 89.6869L19.4451 89.4365L30.0931 85.4402L30.16 85.6907L19.5176 89.6869Z" fill="#84868B"/>
    <path d="M30.0708 89.8762L22.4946 85.1564L22.6005 84.9226L30.1767 89.6424L30.0708 89.8762Z" fill="#84868B"/>
    <path d="M24.9364 92.0301L24.7245 91.9522L26.8987 83.431L27.1106 83.5034L24.9364 92.0301Z" fill="#84868B"/>
    <path d="M33.2875 64.051L33.1314 63.8617L37.831 58.4073L26.1907 51.4946L26.2911 51.2608L38.0707 58.2514C38.1042 58.2681 38.1265 58.3071 38.1321 58.346C38.1376 58.385 38.1265 58.4295 38.0986 58.4574L33.2875 64.0398V64.051Z" fill="#84868B"/>
    <path d="M37.9537 52.8304L33.6053 50.2534L33.7056 50.0141L38.054 52.5966L37.9537 52.8304Z" fill="#84868B"/>
    <path d="M31.2137 48.9621L27.3057 46.6468L27.406 46.413L31.314 48.7284L31.2137 48.9621Z" fill="#84868B"/>
    <path d="M37.9537 41.8157L29.9593 37.0681L30.0597 36.8343L38.054 41.5819L37.9537 41.8157Z" fill="#84868B"/>
    <path d="M38.093 35.8993L31.2638 31.8418L31.3642 31.6081L38.1934 35.6655L38.093 35.8993Z" fill="#84868B"/>
    <path d="M38.1599 29.9662L32.5349 26.6267L32.6352 26.3929L38.2603 29.7324L38.1599 29.9662Z" fill="#84868B"/>
    <path d="M38.0596 79.0452L33.2095 75.9228L33.3154 75.6946L38.1655 78.817L38.0596 79.0452Z" fill="#84868B"/>
    <path d="M27.3001 65.8877L22.4556 62.7653L22.5615 62.5371L27.4116 65.6595L27.3001 65.8877Z" fill="#84868B"/>
    <path d="M33.1816 63.7616L32.9586 63.7393L33.4771 55.8359C33.4771 55.7969 33.4993 55.758 33.5272 55.7357L37.6638 52.5465L33.7223 44.6932C33.7 44.6431 33.7056 44.5819 33.7391 44.5374C33.7725 44.4928 33.8283 44.4817 33.8673 44.5095L37.7864 46.7581L33.9286 39.5393C33.9286 39.5393 33.9063 39.4836 33.9119 39.4502L36.2533 20.4988L36.4763 20.5377L34.1405 39.4391L38.1878 47.003C38.2157 47.0531 38.2101 47.1143 38.1767 47.1588C38.1432 47.2034 38.0875 47.2145 38.0429 47.1867L34.1014 44.927L37.9091 52.5075C37.9369 52.5688 37.9258 52.6467 37.8756 52.6857L33.6945 55.9082L33.1816 63.7504V63.7616Z" fill="#84868B"/>
    <path d="M28.5266 60.9954L26.3412 52.0289L26.5531 51.9565L28.7384 60.923L28.5266 60.9954Z" fill="#84868B"/>
    <path d="M17.8284 76.8411L17.7894 76.5851L23.7879 75.3495L19.5399 72.6334C19.5009 72.6056 19.4786 72.5555 19.4841 72.5054C19.4841 72.4497 19.5232 72.4108 19.5678 72.3941L25.3879 70.524L21.0451 67.7856C21.0061 67.7578 20.9838 67.7077 20.9894 67.6576C20.9894 67.6075 21.0228 67.563 21.0674 67.5463L27.0214 65.3645L24.1949 58.4908C24.1726 58.4407 24.1838 58.3794 24.2172 58.3405C24.2506 58.3015 24.3064 58.2904 24.3454 58.3182L28.5377 60.8896L29.7865 54.1383L24.1169 58.346L23.9998 58.1234L29.8924 53.7487C29.9314 53.7209 29.9816 53.7209 30.0151 53.7487C30.0541 53.7765 30.0708 53.8322 30.0597 53.8823L28.8109 60.6391L33.7391 56.0975C33.7391 56.0975 33.8004 56.0641 33.8338 56.0752C33.8673 56.0863 33.8952 56.1142 33.9063 56.1476L37.9202 66.6836C37.9425 66.7337 37.9314 66.7949 37.8923 66.8339C37.8589 66.8728 37.8087 66.8784 37.7641 66.8561L24.535 58.7412L27.2722 65.3979C27.2889 65.4313 27.2889 65.4702 27.2722 65.5092C27.2611 65.5426 27.2332 65.5704 27.2053 65.5816L21.3852 67.7188L25.7391 70.4683C25.7782 70.4961 25.8005 70.5462 25.7949 70.5963C25.7949 70.652 25.7559 70.6965 25.7113 70.7076L19.8855 72.5777L24.1726 75.3161C24.2116 75.3439 24.2395 75.3996 24.2283 75.4553C24.2228 75.5109 24.1838 75.5554 24.1392 75.561L17.8228 76.8634L17.8284 76.8411ZM28.7551 61.0121L37.5857 66.4331L33.7614 56.398L28.7551 61.0176V61.0121Z" fill="#84868B"/>
    <path d="M33.0311 63.3219L29.8422 53.899L30.0485 53.7988L33.2373 63.2217L33.0311 63.3219Z" fill="#84868B"/>
    <path d="M38.1098 85.0061C38.1098 85.0061 38.0707 85.0061 38.054 84.9894L33.2039 81.867L33.3098 81.6388L37.7641 84.5108L32.9976 75.9784C32.9809 75.9506 32.9753 75.9116 32.9809 75.8727C32.9865 75.8393 33.0088 75.8059 33.0366 75.7892L37.7251 72.7113L33.1091 64.0287L33.2987 63.8896L37.976 72.6891C37.9927 72.7169 37.9983 72.7558 37.9871 72.7892C37.9815 72.8226 37.9592 72.856 37.9314 72.8727L33.2429 75.9506L38.1934 84.8058C38.2213 84.8558 38.2157 84.9226 38.1822 84.9672C38.1599 84.995 38.1321 85.0117 38.0986 85.0117L38.1098 85.0061Z" fill="#84868B"/>
    <path d="M33.1035 87.2157L33.0199 86.9764L37.8868 84.572L37.9704 84.8113L33.1035 87.2157Z" fill="#84868B"/>
    <path d="M25.3433 70.3403L22.5559 62.9323C22.5447 62.8989 22.5447 62.8599 22.5559 62.8209C22.5726 62.7875 22.5949 62.7597 22.6284 62.7486L28.3315 60.923L28.3928 61.1735L22.8123 62.9601L25.544 70.229L25.3378 70.3347L25.3433 70.3403Z" fill="#84868B"/>
    <path d="M24.0221 75.4664L20.9949 67.7188L21.2012 67.6075L24.2228 75.3606L24.0221 75.4664Z" fill="#84868B"/>
    <path d="M23.0632 80.1862L19.4953 72.5777L19.6904 72.4553L23.2583 80.0581L23.0632 80.1862Z" fill="#84868B"/>
    <path d="M33.7279 55.4908H33.5049L33.5774 40.1738L30.0095 53.3424C29.9928 53.3925 29.9537 53.4315 29.9091 53.4315C29.8645 53.4315 29.8199 53.4036 29.8032 53.348L27.5175 46.7915C27.4952 46.7303 27.5175 46.6579 27.5677 46.6245L32.2729 43.7359L32.3398 43.8862L33.5885 39.2721C33.6053 39.2109 33.6554 39.1719 33.7112 39.1831C33.7669 39.1942 33.806 39.2499 33.806 39.3111L33.7335 55.4852L33.7279 55.4908ZM27.7572 46.8082L29.8868 52.9194L32.3008 44.0197L27.7572 46.8082Z" fill="#84868B"/>
    <path d="M32.3231 43.9919C32.3231 43.9919 32.2896 43.9919 32.2729 43.9752L28.5935 41.7879L28.6938 41.5541L32.1335 43.5967L30.2994 37.0848C30.2827 37.0291 30.2994 36.9679 30.344 36.9345L34.5642 33.7119L32.7523 26.8549L32.9642 26.777L34.8039 33.7286C34.8206 33.7843 34.8039 33.8455 34.7593 33.8789L30.5391 37.1015L32.429 43.8194C32.4457 43.8695 32.429 43.9251 32.3955 43.9585C32.3732 43.9808 32.3509 43.9919 32.3231 43.9919Z" fill="#84868B"/>
    <path d="M26.2743 51.784L26.174 51.5502L30.8457 48.784L28.9057 42.0717C28.8889 42.0105 28.9057 41.9493 28.9558 41.9159L33.3377 38.8881L31.4144 31.9754C31.4032 31.9253 31.4144 31.8696 31.4478 31.8362L35.1272 27.968L35.2777 28.1628L31.6541 31.9754L33.583 38.9104C33.5997 38.9716 33.583 39.0328 33.5328 39.0662L29.151 42.094L31.091 48.8119C31.1077 48.8731 31.0854 48.9399 31.0353 48.9733L26.2799 51.7951L26.2743 51.784Z" fill="#84868B"/>
    <path d="M34.1014 39.5671L33.9509 39.3723L37.5746 35.5598L35.5899 28.2296L35.8018 28.1517L37.8087 35.5598C37.8199 35.6098 37.8087 35.6655 37.7753 35.6989L34.0959 39.5671H34.1014Z" fill="#84868B"/>
    <path d="M37.8868 58.2292L33.7614 50.3592C33.7335 50.3035 33.7446 50.2256 33.7892 50.1866L37.8031 46.6468L37.9369 46.8583L34.0067 50.3258L38.0763 58.09L37.8868 58.2292Z" fill="#84868B"/>
    <path d="M33.7558 44.4316L33.6276 44.2145L37.4519 41.1255L34.8652 33.8177C34.8485 33.7731 34.854 33.723 34.8819 33.6897L37.7808 29.2315L37.9592 29.3929L35.0993 33.7898L37.6916 41.1311C37.7139 41.1868 37.6916 41.2535 37.6526 41.2869L33.7502 44.4316H33.7558Z" fill="#84868B"/>
    <path d="M38.6561 90.4773C38.6561 90.4773 38.6171 90.4717 38.6004 90.4606L17.1148 75.8671C17.0814 75.8448 17.0591 75.8003 17.0591 75.7558V73.7688C17.0591 73.7243 17.0814 73.6798 17.1148 73.6575C17.1483 73.6352 17.1929 73.6352 17.2263 73.6575L38.7119 88.251C38.7453 88.2732 38.7676 88.3178 38.7676 88.3623V90.3493C38.7676 90.3938 38.7453 90.4383 38.7119 90.4606C38.6951 90.4717 38.6728 90.4773 38.6561 90.4773ZM17.2821 75.6779L38.5446 90.1211V88.4346L17.2821 73.9914V75.6779Z" fill="#18181A"/>
    <path d="M18.0347 74.2753H17.8117V76.2623H18.0347V74.2753Z" fill="#18181A"/>
    <path d="M18.8653 74.8374H18.6423V76.8244H18.8653V74.8374Z" fill="#18181A"/>
    <path d="M19.696 75.3996H19.473V77.3866H19.696V75.3996Z" fill="#18181A"/>
    <path d="M20.5322 75.9673H20.3092V77.9543H20.5322V75.9673Z" fill="#18181A"/>
    <path d="M21.3629 76.5294H21.1399V78.5164H21.3629V76.5294Z" fill="#18181A"/>
    <path d="M22.1935 77.0972H21.9705V79.0841H22.1935V77.0972Z" fill="#18181A"/>
    <path d="M23.0242 77.6593H22.8012V79.6463H23.0242V77.6593Z" fill="#18181A"/>
    <path d="M23.8548 78.227H23.6318V80.214H23.8548V78.227Z" fill="#18181A"/>
    <path d="M24.6855 78.7891H24.4625V80.7761H24.6855V78.7891Z" fill="#18181A"/>
    <path d="M25.5217 79.3569H25.2987V81.3438H25.5217V79.3569Z" fill="#18181A"/>
    <path d="M26.3524 79.919H26.1294V81.906H26.3524V79.919Z" fill="#18181A"/>
    <path d="M27.183 80.4867H26.96V82.4737H27.183V80.4867Z" fill="#18181A"/>
    <path d="M28.0137 81.0488H27.7907V83.0358H28.0137V81.0488Z" fill="#18181A"/>
    <path d="M28.8443 81.6166H28.6213V83.6035H28.8443V81.6166Z" fill="#18181A"/>
    <path d="M29.675 82.1787H29.452V84.1657H29.675V82.1787Z" fill="#18181A"/>
    <path d="M30.5056 82.7464H30.2827V84.7334H30.5056V82.7464Z" fill="#18181A"/>
    <path d="M31.3419 83.3086H31.1189V85.2955H31.3419V83.3086Z" fill="#18181A"/>
    <path d="M32.1725 83.8763H31.9495V85.8633H32.1725V83.8763Z" fill="#18181A"/>
    <path d="M33.0032 84.4384H32.7802V86.4254H33.0032V84.4384Z" fill="#18181A"/>
    <path d="M33.8338 85.0061H33.6108V86.9931H33.8338V85.0061Z" fill="#18181A"/>
    <path d="M34.6645 85.5683H34.4415V87.5552H34.6645V85.5683Z" fill="#18181A"/>
    <path d="M35.4951 86.1304H35.2722V88.1174H35.4951V86.1304Z" fill="#18181A"/>
    <path d="M36.3258 86.6981H36.1028V88.6851H36.3258V86.6981Z" fill="#18181A"/>
    <path d="M37.162 87.2603H36.939V89.2472H37.162V87.2603Z" fill="#18181A"/>
    <path d="M37.9927 87.828H37.7697V89.815H37.9927V87.828Z" fill="#18181A"/>
    <path d="M38.7063 90.5552C38.7063 90.5552 38.6672 90.5496 38.6505 90.5385C38.6171 90.5162 38.5948 90.4717 38.5948 90.4272V88.4402C38.5948 88.3957 38.6171 88.3511 38.6505 88.3289L60.136 73.7354C60.1695 73.7132 60.2141 73.7132 60.2475 73.7354C60.281 73.7577 60.3033 73.8022 60.3033 73.8467V75.8337C60.3033 75.8782 60.281 75.9228 60.2475 75.945L38.762 90.5385C38.762 90.5385 38.723 90.5552 38.7063 90.5552ZM38.8178 88.5126V90.199L60.0803 75.7558V74.0694L38.8178 88.5126Z" fill="#18181A"/>
    <path d="M59.5507 74.3532H59.3277V76.3402H59.5507V74.3532Z" fill="#18181A"/>
    <path d="M58.72 74.9209H58.497V76.9079H58.72V74.9209Z" fill="#18181A"/>
    <path d="M57.8894 75.4831H57.6664V77.4701H57.8894V75.4831Z" fill="#18181A"/>
    <path d="M57.0531 76.0508H56.8301V78.0378H57.0531V76.0508Z" fill="#18181A"/>
    <path d="M56.2225 76.6129H55.9995V78.5999H56.2225V76.6129Z" fill="#18181A"/>
    <path d="M55.3918 77.1806H55.1688V79.1676H55.3918V77.1806Z" fill="#18181A"/>
    <path d="M54.5612 77.7428H54.3382V79.7298H54.5612V77.7428Z" fill="#18181A"/>
    <path d="M53.7305 78.3105H53.5075V80.2975H53.7305V78.3105Z" fill="#18181A"/>
    <path d="M52.8999 78.8726H52.6769V80.8596H52.8999V78.8726Z" fill="#18181A"/>
    <path d="M52.0692 79.4403H51.8462V81.4273H52.0692V79.4403Z" fill="#18181A"/>
    <path d="M51.233 80.0025H51.01V81.9895H51.233V80.0025Z" fill="#18181A"/>
    <path d="M50.4023 80.5702H50.1793V82.5572H50.4023V80.5702Z" fill="#18181A"/>
    <path d="M49.5717 81.1323H49.3487V83.1193H49.5717V81.1323Z" fill="#18181A"/>
    <path d="M48.741 81.6945H48.518V83.6815H48.741V81.6945Z" fill="#18181A"/>
    <path d="M47.9104 82.2622H47.6874V84.2492H47.9104V82.2622Z" fill="#18181A"/>
    <path d="M47.0797 82.8243H46.8567V84.8113H47.0797V82.8243Z" fill="#18181A"/>
    <path d="M46.2435 83.392H46.0205V85.379H46.2435V83.392Z" fill="#18181A"/>
    <path d="M45.4128 83.9542H45.1898V85.9412H45.4128V83.9542Z" fill="#18181A"/>
    <path d="M44.5822 84.5219H44.3592V86.5089H44.5822V84.5219Z" fill="#18181A"/>
    <path d="M43.7515 85.084H43.5285V87.071H43.7515V85.084Z" fill="#18181A"/>
    <path d="M42.9209 85.6517H42.6979V87.6387H42.9209V85.6517Z" fill="#18181A"/>
    <path d="M42.0902 86.2139H41.8672V88.2009H42.0902V86.2139Z" fill="#18181A"/>
    <path d="M41.2596 86.7816H41.0366V88.7686H41.2596V86.7816Z" fill="#18181A"/>
    <path d="M40.4233 87.3437H40.2003V89.3307H40.4233V87.3437Z" fill="#18181A"/>
    <path d="M39.5927 87.9115H39.3697V89.8984H39.5927V87.9115Z" fill="#18181A"/>
    <path d="M45.1229 16.6973L45.1118 19.3633L38.6338 23.1202L38.6394 20.4598L45.1229 16.6973Z" fill="#333338"/>
    <path d="M38.6394 20.4598L38.6338 23.1202L32.1112 19.3633L32.1168 16.6973L38.6394 20.4598Z" fill="#434349"/>
    <path d="M45.1229 16.6973L38.6394 20.4598L32.1168 16.6973L38.5948 12.9404L45.1229 16.6973Z" fill="#4E4F56"/>
    <path d="M43.0101 14.0759L43.0045 16.7363L38.6227 19.2799L38.6338 16.6138L43.0101 14.0759Z" fill="#333338"/>
    <path d="M38.6338 16.6138L38.6226 19.2799L34.2185 16.7363L34.2241 14.0759L38.6338 16.6138Z" fill="#434349"/>
    <path d="M43.0101 14.0758L38.6338 16.6138L34.2241 14.0758L38.6059 11.5323L43.0101 14.0758Z" fill="#4E4F56"/>
    <path d="M43.6289 12.7623L43.6233 15.4228L38.6282 18.3225L38.6338 15.6621L43.6289 12.7623Z" fill="#333338"/>
    <path d="M38.6338 15.6621L38.6282 18.3225L33.5997 15.4228L33.6053 12.7623L38.6338 15.6621Z" fill="#434349"/>
    <path d="M43.6289 12.7623L38.6338 15.6621L33.6053 12.7623L38.6004 9.86256L43.6289 12.7623Z" fill="#4E4F56"/>
    <path d="M41.8561 12.9182C41.8561 12.7456 41.4157 14.4933 38.7899 14.4933C36.1641 14.4933 35.8575 13.0518 35.7237 12.9182C35.7237 11.2262 37.0951 9.85699 38.7899 9.85699C40.4847 9.85699 41.8561 11.2262 41.8561 12.9182Z" fill="url(#paint0_linear_245_10900)"/>
    <path d="M38.8791 10.7086C38.7676 10.7086 38.684 10.6195 38.684 10.5138V0.194802C38.684 0.0834867 38.7732 0 38.8791 0C38.985 0 39.0742 0.0890524 39.0742 0.194802V10.5138C39.0742 10.6251 38.985 10.7086 38.8791 10.7086Z" fill="black"/>
    <path d="M38.4833 20.8884C38.4498 20.8884 38.4164 20.8772 38.3829 20.8605L32.167 17.2762C32.1056 17.2428 32.0666 17.176 32.0666 17.1036V16.1908C32.0666 16.1185 32.1056 16.0573 32.167 16.0183C32.2283 15.9849 32.3007 15.9849 32.3621 16.0183L38.578 19.6027C38.6394 19.6361 38.6784 19.7029 38.6784 19.7752V20.688C38.6784 20.7604 38.6394 20.8216 38.578 20.8605C38.5502 20.8772 38.5111 20.8884 38.4777 20.8884H38.4833ZM32.4624 16.9923L38.2826 20.3485V19.8921L32.4624 16.5359V16.9923Z" fill="#0E0E0E"/>
    <path d="M32.8861 17.5545C32.7746 17.5545 32.691 17.4654 32.691 17.3597V16.5916C32.691 16.4803 32.7802 16.3968 32.8861 16.3968C32.992 16.3968 33.0812 16.4858 33.0812 16.5916V17.3597C33.0812 17.471 32.992 17.5545 32.8861 17.5545Z" fill="#0E0E0E"/>
    <path d="M33.438 17.8717C33.3265 17.8717 33.2429 17.7827 33.2429 17.6769V16.9088C33.2429 16.7975 33.3321 16.714 33.438 16.714C33.5439 16.714 33.6331 16.8031 33.6331 16.9088V17.6769C33.6331 17.7882 33.5439 17.8717 33.438 17.8717Z" fill="#0E0E0E"/>
    <path d="M33.9844 18.189C33.8729 18.189 33.7892 18.0999 33.7892 17.9942V17.2261C33.7892 17.1148 33.8784 17.0313 33.9844 17.0313C34.0903 17.0313 34.1795 17.1203 34.1795 17.2261V17.9942C34.1795 18.1055 34.0903 18.189 33.9844 18.189Z" fill="#0E0E0E"/>
    <path d="M34.5307 18.5062C34.4248 18.5062 34.3356 18.4172 34.3356 18.3114V17.5433C34.3356 17.432 34.4248 17.3485 34.5307 17.3485C34.6366 17.3485 34.7258 17.4376 34.7258 17.5433V18.3114C34.7258 18.4227 34.6366 18.5062 34.5307 18.5062Z" fill="#0E0E0E"/>
    <path d="M35.0826 18.8235C34.9711 18.8235 34.8875 18.7344 34.8875 18.6287V17.8606C34.8875 17.7493 34.9767 17.6658 35.0826 17.6658C35.1885 17.6658 35.2777 17.7548 35.2777 17.8606V18.6287C35.2777 18.74 35.1885 18.8235 35.0826 18.8235Z" fill="#0E0E0E"/>
    <path d="M35.6289 19.1351C35.5174 19.1351 35.4338 19.0461 35.4338 18.9403V18.1723C35.4338 18.061 35.523 17.9775 35.6289 17.9775C35.7349 17.9775 35.8241 18.0665 35.8241 18.1723V18.9403C35.8241 19.0461 35.7349 19.1351 35.6289 19.1351Z" fill="#0E0E0E"/>
    <path d="M36.1809 19.4524C36.0694 19.4524 35.9857 19.3633 35.9857 19.2576V18.4895C35.9857 18.3782 36.0749 18.2947 36.1809 18.2947C36.2868 18.2947 36.376 18.3838 36.376 18.4895V19.2576C36.376 19.3689 36.2868 19.4524 36.1809 19.4524Z" fill="#0E0E0E"/>
    <path d="M36.7272 19.7696C36.6213 19.7696 36.5321 19.6806 36.5321 19.5748V18.8068C36.5321 18.6954 36.6213 18.612 36.7272 18.612C36.8331 18.612 36.9223 18.701 36.9223 18.8068V19.5748C36.9223 19.6862 36.8331 19.7696 36.7272 19.7696Z" fill="#0E0E0E"/>
    <path d="M37.2735 20.0869C37.162 20.0869 37.0784 19.9978 37.0784 19.8921V19.124C37.0784 19.0127 37.1676 18.9292 37.2735 18.9292C37.3794 18.9292 37.4686 19.0183 37.4686 19.124V19.8921C37.4686 20.0034 37.3794 20.0869 37.2735 20.0869Z" fill="#0E0E0E"/>
    <path d="M37.8254 20.4041C37.7139 20.4041 37.6303 20.3151 37.6303 20.2093V19.4413C37.6303 19.3299 37.7195 19.2465 37.8254 19.2465C37.9314 19.2465 38.0206 19.3355 38.0206 19.4413V20.2093C38.0206 20.3207 37.9314 20.4041 37.8254 20.4041Z" fill="#0E0E0E"/>
    <path d="M38.8401 20.8884C38.8066 20.8884 38.7732 20.8772 38.7397 20.8605C38.6784 20.8271 38.6394 20.7604 38.6394 20.688V19.7752C38.6394 19.7029 38.6784 19.6416 38.7397 19.6027L44.9557 16.0183C45.017 15.9849 45.0895 15.9849 45.1508 16.0183C45.2121 16.0517 45.2512 16.1185 45.2512 16.1908V17.1036C45.2512 17.176 45.2121 17.2372 45.1508 17.2762L38.9348 20.8605C38.907 20.8772 38.8679 20.8884 38.8345 20.8884H38.8401ZM39.0352 19.8921V20.3485L44.8609 16.9923V16.5359L39.0352 19.8921Z" fill="black"/>
    <path d="M44.4317 17.5545C44.3202 17.5545 44.2365 17.4654 44.2365 17.3597V16.5916C44.2365 16.4803 44.3257 16.3968 44.4317 16.3968C44.5376 16.3968 44.6268 16.4858 44.6268 16.5916V17.3597C44.6268 17.471 44.5376 17.5545 44.4317 17.5545Z" fill="black"/>
    <path d="M43.8853 17.8717C43.7738 17.8717 43.6902 17.7827 43.6902 17.6769V16.9088C43.6902 16.7975 43.7794 16.714 43.8853 16.714C43.9912 16.714 44.0804 16.8031 44.0804 16.9088V17.6769C44.0804 17.7882 43.9912 17.8717 43.8853 17.8717Z" fill="black"/>
    <path d="M43.3334 18.189C43.2219 18.189 43.1383 18.0999 43.1383 17.9942V17.2261C43.1383 17.1148 43.2275 17.0313 43.3334 17.0313C43.4393 17.0313 43.5285 17.1203 43.5285 17.2261V17.9942C43.5285 18.1055 43.4393 18.189 43.3334 18.189Z" fill="black"/>
    <path d="M42.7871 18.5062C42.6756 18.5062 42.592 18.4172 42.592 18.3114V17.5433C42.592 17.432 42.6812 17.3485 42.7871 17.3485C42.893 17.3485 42.9822 17.4376 42.9822 17.5433V18.3114C42.9822 18.4227 42.893 18.5062 42.7871 18.5062Z" fill="black"/>
    <path d="M42.2407 18.8235C42.1292 18.8235 42.0456 18.7344 42.0456 18.6287V17.8606C42.0456 17.7493 42.1348 17.6658 42.2407 17.6658C42.3467 17.6658 42.4359 17.7548 42.4359 17.8606V18.6287C42.4359 18.74 42.3467 18.8235 42.2407 18.8235Z" fill="black"/>
    <path d="M41.6888 19.1351C41.5773 19.1351 41.4937 19.0461 41.4937 18.9403V18.1723C41.4937 18.061 41.5829 17.9775 41.6888 17.9775C41.7947 17.9775 41.8839 18.0665 41.8839 18.1723V18.9403C41.8839 19.0461 41.7947 19.1351 41.6888 19.1351Z" fill="black"/>
    <path d="M41.1425 19.4524C41.031 19.4524 40.9474 19.3633 40.9474 19.2576V18.4895C40.9474 18.3782 41.0366 18.2947 41.1425 18.2947C41.2484 18.2947 41.3376 18.3838 41.3376 18.4895V19.2576C41.3376 19.3689 41.2484 19.4524 41.1425 19.4524Z" fill="black"/>
    <path d="M40.5906 19.7696C40.4847 19.7696 40.3955 19.6806 40.3955 19.5748V18.8068C40.3955 18.6954 40.4847 18.612 40.5906 18.612C40.6965 18.612 40.7857 18.701 40.7857 18.8068V19.5748C40.7857 19.6862 40.6965 19.7696 40.5906 19.7696Z" fill="black"/>
    <path d="M40.0442 20.0869C39.9327 20.0869 39.8491 19.9978 39.8491 19.8921V19.124C39.8491 19.0127 39.9383 18.9292 40.0442 18.9292C40.1502 18.9292 40.2394 19.0183 40.2394 19.124V19.8921C40.2394 20.0034 40.1502 20.0869 40.0442 20.0869Z" fill="black"/>
    <path d="M39.4979 20.4041C39.3864 20.4041 39.3028 20.3151 39.3028 20.2093V19.4413C39.3028 19.3299 39.392 19.2465 39.4979 19.2465C39.6038 19.2465 39.693 19.3355 39.693 19.4413V20.2093C39.693 20.3207 39.6038 20.4041 39.4979 20.4041Z" fill="black"/>
</svg>
