<svg width="150" height="125" viewBox="0 0 150 125" fill="none" xmlns="http://www.w3.org/2000/svg">
    <defs>
        <clipPath id="clip0_340_5931">
            <rect width="149.89" height="124.11" fill="white" transform="matrix(-1 0 0 1 149.89 0)"/>
        </clipPath>
    </defs>
    <g clip-path="url(#clip0_340_5931)">
        <path d="M85.83 75.5099C85.27 76.4299 84.74 77.4199 84.82 78.4199C84.87 79.1299 85.07 79.4599 85.65 79.8099C85.92 79.9699 86.26 79.7099 86.52 79.9599C86.54 79.9799 86.56 80.0199 86.59 80.0799C86.67 80.3299 86.78 80.8399 86.83 80.9499C87.14 81.7099 87.55 82.4299 88.36 82.6699C88.99 82.8599 90.02 82.2899 90.48 82.4599C90.64 82.5199 90.75 82.6399 90.83 82.7799C90.97 82.9899 91.05 83.2499 91.19 83.4699C91.23 83.5399 91.29 83.6099 91.34 83.6699C91.84 84.1899 92.5 84.3399 93.2 84.3799C94.33 84.4499 95.41 84.1599 96.46 83.7199C97.3 83.3699 98.11 82.9199 98.86 82.4899C102.1 80.6299 105.4 78.6599 104.92 74.3899C104.74 72.7799 104.07 71.3099 104.11 69.6199C104.16 67.5499 104.91 65.5199 105.12 63.4099C105.33 61.3799 105.4 58.8199 104.26 57.1199C103.18 55.4899 102.71 53.5699 102.9 51.5599C103.7 42.9899 105.6 34.4899 105.62 25.7899C104.27 24.4899 100.85 23.7899 98.44 24.2699C97.08 24.5399 95.64 24.7499 94.32 25.1799C92.69 25.7099 91.32 26.7199 89.86 27.5899C88.41 28.4699 86.88 29.3299 85.62 30.4799C85.15 30.8999 84.87 31.5399 84.39 31.8699C84.54 33.3099 85.16 34.9299 85.58 36.3099C87.44 42.2999 88.39 49.0199 87.47 55.2799C87.32 56.2799 86.98 57.2099 87.08 58.2599C87.18 59.4299 87.59 60.6499 87.88 61.7899C88.48 64.1599 88.94 66.1799 88.58 68.6499C88.3 70.6299 87.56 72.3599 86.7 74.0999C86.48 74.5599 86.17 75.0299 85.87 75.5299L85.83 75.5099Z" fill="#808080"/>
        <path d="M90.8099 82.77C90.9499 82.98 91.0299 83.24 91.1699 83.46C91.2099 83.53 91.2699 83.6 91.3199 83.66C91.8199 84.18 92.4799 84.33 93.1799 84.37C94.3099 84.44 95.3899 84.15 96.4399 83.71C96.2499 82.52 95.3299 80.85 94.0999 80.59C93.3099 80.43 92.3999 80.79 91.8199 81.33C91.7499 81.4 91.6899 81.46 91.6299 81.54C91.3199 81.93 91.1099 82.39 90.8199 82.77H90.8099Z" fill="#4D4D4D"/>
        <path d="M86.58 80.0699C86.66 80.3199 86.77 80.8299 86.82 80.9399C87.13 81.6999 87.54 82.4199 88.35 82.6599C88.98 82.8499 90.01 82.2799 90.47 82.4499C90.63 82.5099 90.74 82.6299 90.82 82.7699C90.96 82.9799 91.04 83.2399 91.18 83.4599C91.46 83.1499 91.58 82.8399 91.63 82.4299C91.67 82.1599 91.87 81.7199 91.63 81.6799C91.63 81.6399 91.63 81.5999 91.63 81.5399C91.62 80.9799 91.22 80.1799 91.02 79.7099C90.8 79.1999 90.58 78.8699 90.1 78.5699C89.32 78.0799 88.67 78.2599 87.99 78.6699C87.86 78.7499 87.72 78.8499 87.57 78.9499C87.16 79.2399 86.84 79.6399 86.58 80.0599V80.0699Z" fill="#4D4D4D"/>
        <path d="M84.82 78.4199C84.87 79.1299 85.07 79.4599 85.65 79.8099C85.92 79.9699 86.26 79.7099 86.52 79.9599C86.54 79.9799 86.56 80.0199 86.59 80.0799C86.67 80.3299 86.78 80.8399 86.83 80.9499C86.87 80.9499 86.91 80.9099 86.95 80.8899C87.64 80.3899 87.97 79.7099 87.89 79.0099C87.95 78.9299 87.99 78.8099 88 78.6899C88.06 78.2799 87.92 77.7099 87.82 77.3899C87.67 76.8599 87.49 76.4299 87.13 75.9899C86.88 75.6899 86.56 75.2499 86.13 75.3799C86.03 75.4099 85.94 75.4599 85.84 75.5199C85.28 76.4399 84.75 77.4299 84.83 78.4299L84.82 78.4199Z" fill="#4D4D4D"/>
        <path d="M42.44 67.2498C44.16 69.7998 46.49 71.8298 49.36 73.3898C51.84 74.7298 54.73 75.7298 58.01 76.3798H77.74C88.09 73.9798 97.61 67.3798 106.59 58.1298L114.58 42.0698L116.88 37.4498L123.54 17.2798C120.92 13.0898 117.18 9.8098 112.24 7.4898C112.24 7.4898 101.13 1.1298 93.38 0.129798C85.63 -0.870202 62.35 4.3698 62.35 4.3698C54.84 7.8998 49.59 12.8698 45.87 18.8198C45.51 19.3898 45.16 19.9798 44.83 20.5798L44.81 20.9898L44.67 23.6098L43.05 55.4698L42.44 67.2698V67.2498Z" fill="#808080"/>
        <path d="M40.88 102.27C40.32 103.19 39.79 104.18 39.87 105.18C39.92 105.89 40.12 106.22 40.7 106.57C40.97 106.73 41.31 106.47 41.57 106.72C41.59 106.74 41.61 106.78 41.64 106.84C41.72 107.09 41.83 107.6 41.88 107.71C42.19 108.47 42.6 109.19 43.41 109.43C44.04 109.62 45.07 109.05 45.53 109.22C45.69 109.28 45.8 109.4 45.88 109.54C46.02 109.75 46.1 110.01 46.24 110.23C46.28 110.3 46.34 110.37 46.39 110.43C46.89 110.95 47.55 111.1 48.25 111.14C49.38 111.21 50.46 110.92 51.51 110.48C52.35 110.13 53.16 109.68 53.91 109.25C57.15 107.39 60.45 105.42 59.97 101.15C59.79 99.5397 59.12 98.0697 59.16 96.3797C59.16 95.9997 59.2 95.6197 59.24 95.2497C59.46 93.5697 60 91.8897 60.17 90.1697C60.38 88.1397 60.45 85.5797 59.31 83.8797C58.23 82.2497 57.76 80.3297 57.95 78.3197C58.01 77.6797 58.08 77.0397 58.15 76.3997C59.02 68.4797 60.65 60.5997 60.67 52.5497C59.32 51.2497 55.9 50.5497 53.49 51.0297C52.13 51.2997 50.69 51.5097 49.37 51.9397C47.74 52.4697 46.37 53.4797 44.91 54.3497C44.3 54.7197 43.68 55.0797 43.08 55.4697C42.23 55.9997 41.41 56.5697 40.67 57.2397C40.2 57.6597 39.92 58.2997 39.44 58.6297C39.59 60.0697 40.21 61.6897 40.63 63.0697C41.57 66.0997 42.28 69.3197 42.63 72.5697C42.98 75.7497 42.98 78.9497 42.52 82.0397C42.37 83.0397 42.03 83.9697 42.13 85.0197C42.23 86.1897 42.64 87.4097 42.93 88.5497C43.53 90.9197 43.99 92.9397 43.63 95.4097C43.35 97.3897 42.61 99.1197 41.75 100.86C41.53 101.32 41.22 101.79 40.92 102.29L40.88 102.27Z" fill="#808080"/>
        <path d="M45.87 109.53C46.01 109.74 46.09 110 46.23 110.22C46.27 110.29 46.33 110.36 46.38 110.42C46.88 110.94 47.54 111.09 48.24 111.13C49.37 111.2 50.45 110.91 51.5 110.47C51.31 109.28 50.39 107.61 49.16 107.35C48.37 107.19 47.46 107.55 46.88 108.09C46.81 108.16 46.75 108.22 46.69 108.3C46.38 108.69 46.17 109.15 45.88 109.53H45.87Z" fill="#4D4D4D"/>
        <path d="M41.63 106.83C41.71 107.08 41.82 107.59 41.87 107.7C42.18 108.46 42.59 109.18 43.4 109.42C44.03 109.61 45.06 109.04 45.52 109.21C45.68 109.27 45.79 109.39 45.87 109.53C46.01 109.74 46.09 110 46.23 110.22C46.51 109.91 46.63 109.6 46.68 109.19C46.72 108.92 46.92 108.48 46.68 108.44C46.68 108.4 46.68 108.36 46.68 108.3C46.67 107.74 46.27 106.94 46.07 106.47C45.85 105.96 45.63 105.63 45.15 105.33C44.37 104.84 43.72 105.02 43.04 105.43C42.91 105.51 42.77 105.61 42.62 105.71C42.21 106 41.89 106.4 41.63 106.82V106.83Z" fill="#4D4D4D"/>
        <path d="M39.87 105.18C39.92 105.89 40.12 106.22 40.7 106.57C40.97 106.73 41.31 106.47 41.57 106.72C41.59 106.74 41.61 106.78 41.64 106.84C41.72 107.09 41.83 107.6 41.88 107.71C41.92 107.71 41.96 107.67 42 107.65C42.69 107.15 43.02 106.47 42.94 105.77C43 105.69 43.04 105.57 43.05 105.45C43.11 105.04 42.97 104.47 42.87 104.15C42.72 103.62 42.54 103.19 42.18 102.75C41.93 102.45 41.61 102.01 41.18 102.14C41.08 102.17 40.99 102.22 40.89 102.28C40.33 103.2 39.8 104.19 39.88 105.19L39.87 105.18Z" fill="#4D4D4D"/>
        <path d="M39.4 58.6096C39.55 60.0496 40.17 61.6696 40.59 63.0496C41.53 66.0796 42.24 69.2996 42.59 72.5496L43.05 72.9596L51.49 80.5496C58.48 85.3596 57.8 90.8196 59.22 95.2196C59.44 93.5396 59.98 91.8596 60.15 90.1396C60.36 88.1096 60.43 85.5496 59.29 83.8496C58.21 82.2196 57.74 80.2996 57.93 78.2896C57.99 77.6496 58.06 77.0096 58.13 76.3696H77.75C88.1 73.9696 97.62 67.3696 106.6 58.1196L114.59 42.0596C114.7 40.4596 114.77 39.3996 114.77 39.3996L104.78 52.8696C99.86 57.9796 94.74 62.1196 89.02 63.4096L81.07 65.0796L59.83 71.1596C64.64 66.1296 66.59 58.9796 67.22 50.8496L70.45 32.8996L68.06 27.5596C61.4 21.2096 52.1 18.9096 45.87 18.8096L44.67 23.5896L43.05 55.4496C42.2 55.9796 41.38 56.5496 40.64 57.2196C40.17 57.6396 39.89 58.2796 39.41 58.6096H39.4Z" fill="#4D4D4D"/>
        <path d="M106.59 90.8297C106.64 91.5397 106.84 91.8697 107.42 92.2197C107.69 92.3797 108.03 92.1197 108.29 92.3697C108.31 92.3897 108.33 92.4297 108.36 92.4897C108.44 92.7397 108.55 93.2497 108.6 93.3597C108.91 94.1197 109.32 94.8397 110.13 95.0797C110.76 95.2697 111.79 94.6997 112.25 94.8697C112.41 94.9297 112.52 95.0497 112.6 95.1897C112.74 95.3997 112.82 95.6597 112.96 95.8797C113 95.9497 113.06 96.0197 113.11 96.0797C113.61 96.5997 114.27 96.7497 114.97 96.7897C116.1 96.8597 117.19 96.5697 118.23 96.1297C119.07 95.7797 119.88 95.3297 120.63 94.8997C123.87 93.0397 127.17 91.0697 126.69 86.7997C126.66 86.5497 126.62 86.2997 126.57 86.0497C126.31 84.7197 125.84 83.4497 125.87 82.0297C125.92 79.9597 126.67 77.9297 126.88 75.8197C127.09 73.7897 127.16 71.2297 126.02 69.5297C124.94 67.8997 124.47 65.9797 124.66 63.9697C124.93 61.0497 125.45 57.0497 126.05 52.6997C127.21 44.2497 128.71 34.4797 129.41 28.7897C128.73 24.1797 126.6 20.7797 123.55 17.2997C120.04 13.2897 115.38 39.0197 114.77 39.4397C114.92 40.8797 108.25 52.6097 108.67 53.9897C110.53 59.9797 110.14 61.4397 109.21 67.6997C109.06 68.6997 108.72 69.6297 108.82 70.6797C108.92 71.8497 109.33 73.0697 109.62 74.2097C110.22 76.5797 110.68 78.5997 110.32 81.0697C110.04 83.0497 109.3 84.7797 108.44 86.5197C108.22 86.9797 107.91 87.4497 107.61 87.9497C107.05 88.8697 106.52 89.8597 106.6 90.8597L106.59 90.8297Z" fill="#808080"/>
        <path d="M112.59 95.1797C112.73 95.3897 112.81 95.6497 112.95 95.8697C112.99 95.9397 113.05 96.0097 113.1 96.0697C113.6 96.5897 114.26 96.7397 114.96 96.7797C116.09 96.8497 117.18 96.5597 118.22 96.1197C118.03 94.9297 117.11 93.2597 115.88 92.9997C115.09 92.8397 114.18 93.1997 113.6 93.7397C113.53 93.8097 113.47 93.8697 113.41 93.9497C113.1 94.3397 112.89 94.7997 112.6 95.1797H112.59Z" fill="#4D4D4D"/>
        <path d="M108.35 92.4796C108.43 92.7296 108.54 93.2395 108.59 93.3495C108.9 94.1095 109.31 94.8295 110.12 95.0695C110.75 95.2595 111.78 94.6896 112.24 94.8596C112.4 94.9196 112.51 95.0396 112.59 95.1796C112.73 95.3896 112.81 95.6496 112.95 95.8696C113.23 95.5596 113.35 95.2495 113.4 94.8395C113.44 94.5695 113.64 94.1295 113.4 94.0895C113.4 94.0495 113.4 94.0095 113.4 93.9495C113.39 93.3895 112.99 92.5896 112.79 92.1196C112.57 91.6096 112.35 91.2796 111.87 90.9796C111.09 90.4896 110.44 90.6696 109.76 91.0796C109.63 91.1596 109.49 91.2596 109.34 91.3596C108.93 91.6496 108.61 92.0496 108.35 92.4696V92.4796Z" fill="#4D4D4D"/>
        <path d="M106.59 90.8295C106.64 91.5395 106.84 91.8695 107.42 92.2195C107.69 92.3795 108.03 92.1195 108.29 92.3695C108.31 92.3895 108.33 92.4295 108.36 92.4895C108.44 92.7395 108.55 93.2495 108.6 93.3595C108.64 93.3595 108.68 93.3195 108.72 93.2995C109.41 92.7995 109.74 92.1195 109.66 91.4195C109.72 91.3395 109.76 91.2195 109.77 91.0995C109.83 90.6895 109.69 90.1195 109.59 89.7995C109.44 89.2695 109.26 88.8395 108.9 88.3995C108.65 88.0995 108.33 87.6595 107.9 87.7895C107.8 87.8195 107.71 87.8695 107.61 87.9295C107.05 88.8495 106.52 89.8395 106.6 90.8395L106.59 90.8295Z" fill="#4D4D4D"/>
        <path d="M61.3 114.83C60.74 115.75 60.21 116.74 60.29 117.74C60.34 118.45 60.54 118.78 61.12 119.13C61.39 119.29 61.73 119.03 61.99 119.28C62.01 119.3 62.03 119.34 62.06 119.4C62.14 119.65 62.25 120.16 62.3 120.27C62.61 121.03 63.02 121.75 63.83 121.99C64.46 122.18 65.49 121.61 65.95 121.78C66.11 121.84 66.22 121.96 66.3 122.1C66.44 122.31 66.52 122.57 66.66 122.79C66.7 122.86 66.76 122.93 66.81 122.99C67.31 123.51 67.97 123.66 68.67 123.7C69.8 123.77 70.88 123.48 71.93 123.04C72.77 122.69 73.58 122.24 74.33 121.81C77.57 119.95 80.87 117.98 80.39 113.71C80.21 112.1 79.54 110.63 79.58 108.94C79.63 106.87 80.38 104.84 80.59 102.73C80.8 100.7 80.87 98.1397 79.73 96.4397C78.65 94.8097 78.18 92.8897 78.37 90.8797C79.17 82.3097 81.07 73.8097 81.09 65.1097C79.74 63.8097 76.32 63.1097 73.91 63.5897C72.55 63.8597 71.11 64.0697 69.79 64.4997C68.16 65.0297 66.79 66.0397 65.33 66.9097C63.88 67.7897 62.35 68.6497 61.09 69.7997C60.62 70.2197 60.34 70.8597 59.86 71.1897C60.01 72.6297 60.63 74.2497 61.05 75.6297C62.91 81.6197 63.86 88.3397 62.94 94.5997C62.79 95.5997 62.45 96.5297 62.55 97.5797C62.65 98.7497 63.06 99.9697 63.35 101.11C63.95 103.48 64.41 105.5 64.05 107.97C63.77 109.95 63.03 111.68 62.17 113.42C61.95 113.88 61.64 114.35 61.34 114.85L61.3 114.83Z" fill="#808080"/>
        <path d="M66.2899 122.09C66.4299 122.3 66.5099 122.56 66.6499 122.78C66.6899 122.85 66.7499 122.92 66.7999 122.98C67.2999 123.5 67.9599 123.65 68.6599 123.69C69.7899 123.76 70.8699 123.47 71.9199 123.03C71.7299 121.84 70.8099 120.17 69.5799 119.91C68.7899 119.75 67.8799 120.11 67.2999 120.65C67.2299 120.72 67.1699 120.78 67.1099 120.86C66.7999 121.25 66.5899 121.71 66.2999 122.09H66.2899Z" fill="#4D4D4D"/>
        <path d="M62.0599 119.39C62.1399 119.64 62.25 120.15 62.3 120.26C62.61 121.02 63.02 121.74 63.83 121.98C64.46 122.17 65.4899 121.6 65.9499 121.77C66.1099 121.83 66.22 121.95 66.3 122.09C66.44 122.3 66.5199 122.56 66.6599 122.78C66.9399 122.47 67.0599 122.16 67.1099 121.75C67.1499 121.48 67.3499 121.04 67.1099 121C67.1099 120.96 67.1099 120.92 67.1099 120.86C67.0999 120.3 66.6999 119.5 66.4999 119.03C66.2799 118.52 66.06 118.19 65.58 117.89C64.8 117.4 64.15 117.58 63.47 117.99C63.34 118.07 63.2 118.17 63.05 118.27C62.64 118.56 62.3199 118.96 62.0599 119.38V119.39Z" fill="#4D4D4D"/>
        <path d="M60.2899 117.74C60.3399 118.45 60.5399 118.78 61.1199 119.13C61.3899 119.29 61.7299 119.03 61.9899 119.28C62.0099 119.3 62.0299 119.34 62.0599 119.4C62.1399 119.65 62.2499 120.16 62.2999 120.27C62.3399 120.27 62.3799 120.23 62.4199 120.21C63.1099 119.71 63.4399 119.03 63.3599 118.33C63.4199 118.25 63.4599 118.13 63.4699 118.01C63.5299 117.6 63.3899 117.03 63.2899 116.71C63.1399 116.18 62.9599 115.75 62.5999 115.31C62.3499 115.01 62.0299 114.57 61.5999 114.7C61.4999 114.73 61.4099 114.78 61.3099 114.84C60.7499 115.76 60.2199 116.75 60.2999 117.75L60.2899 117.74Z" fill="#4D4D4D"/>
        <path d="M42.44 67.25C44.16 69.8 46.49 71.83 49.36 73.39C52.36 72.94 54.81 72.03 57.55 69.75C60.09 67.64 62.89 64.81 63.34 61.43C63.61 59.4 63.29 61.48 63.61 59.4C65.04 61.33 65.55 61.07 67.11 62.83C68.44 64.32 71.39 64.69 73.62 64.55C75.33 64.45 75.98 63.4 76.86 62.14C77.81 60.77 78.58 60.47 80.11 59.83C81.33 59.32 82.68 58.68 83.24 57.39C83.85 56.01 83.24 55.14 84.32 53.93C85.14 53.02 86.13 52.55 86.97 51.73C88.25 50.48 87.64 49.67 87.94 48.08C88.56 44.79 92.19 43.85 90.25 40.23C88.71 37.34 85.68 34.37 83.45 31.96C81.65 30.01 79.5 26.82 76.64 26.92C74.49 26.99 72 28.05 69.9 28.6C68.41 29 66.95 29.48 65.51 29.97C65.29 29.94 65.26 29.99 65.32 30.04C65.3 30.05 65.27 30.06 65.24 30.07C63.55 29.91 62.04 28.51 60.57 27.79C58.83 26.95 56.93 26.04 55.09 25.41C52.23 24.42 49.16 23.48 46.15 23.19C45.69 22.47 45.25 21.73 44.82 20.98L44.68 23.6L43.06 55.46L42.45 67.26L42.44 67.25Z" fill="#4D4D4D"/>
        <path d="M24.9701 59.21C25.3201 56.92 21.7201 54.44 19.1501 56.18C14.1801 65.76 8.26006 72.08 0.0100555 70.4C9.60006 76.62 17.6701 70.9 24.9701 59.2V59.21Z" fill="#E3D9CC"/>
        <path d="M46.98 21.56C44.98 18.32 43.34 14.59 42.14 10.98C41.15 8.01 39.51 5.84 36.75 9.15C35.39 10.77 34.98 12.97 33.67 14.62C32.59 15.98 31.31 17.26 30.14 18.57C28.48 20.45 25.36 23.18 24.61 25.65C23.77 28.4 27.36 31.42 28.54 33.65C30.07 32.99 31.31 31.33 32.57 30.22C34.7 28.35 36.97 26.64 39.42 25.18C41.03 24.22 44.95 21.79 46.98 21.56Z" fill="#4D4D4D"/>
        <path d="M2.94008 122.22C5.65008 124.32 8.73008 124.89 11.5801 122.78C14.9401 120.3 18.3201 116.18 19.4001 112.09C21.8701 102.72 19.0901 92.0099 23.0901 83.0399C24.8401 79.0899 26.8201 75.1299 29.6001 71.7899C29.6601 71.7099 29.7301 71.6399 29.7901 71.5699C30.7101 70.4699 31.5801 69.5999 32.7301 69.2999C33.2601 69.1599 33.8601 69.1399 34.5501 69.2799C37.2201 69.7899 39.1601 70.1399 42.0301 70.1399C46.7601 70.1399 49.9901 69.7899 53.9101 66.9599C56.5901 65.0199 59.5801 62.3799 60.2601 59.0299C60.9001 55.8999 61.6401 52.7099 62.3601 49.4999C63.4901 44.4299 64.5701 39.2999 65.0501 34.2599C65.2101 32.5899 65.5701 29.2999 64.7201 27.7799C64.7601 27.7799 64.8001 27.7799 64.8501 27.7799C64.8001 27.7799 64.7601 27.7799 64.7101 27.7699C64.6801 27.7099 64.6401 27.6599 64.6101 27.5999C64.3201 27.5899 64.3701 27.7099 64.5801 27.7599C62.8101 27.5799 61.3401 25.9599 59.8601 25.0999C58.1801 24.1399 56.3601 23.0899 54.5601 22.3199C51.3001 20.9299 47.7601 19.5699 44.2801 19.2599C39.7701 18.8599 36.9601 21.0499 33.3901 23.4399C29.6501 25.9499 28.0201 29.8999 24.9701 33.0299C21.6801 36.4099 19.3701 39.7299 18.4601 44.5299C17.6601 48.7599 17.7001 53.0199 16.7501 57.1299C14.7001 65.9499 12.2001 74.6899 11.4501 83.8199C10.7501 92.3099 15.1501 102.28 11.5601 110.22C10.4301 112.71 8.70007 114.87 6.32007 116.08C4.99007 116.75 4.20008 117.05 3.31008 118.09C3.19008 118.23 3.07008 118.38 2.94008 118.55C1.64008 120.28 1.11008 120.78 2.97008 122.23L2.94008 122.22Z" fill="#808080"/>
        <path d="M56.97 29.5798C61.08 28.7598 64.97 27.3598 69.1 26.5598C71.24 26.1498 73.79 25.2698 75.94 25.3498C78.8 25.4498 80.72 28.8098 82.38 30.8898C84.44 33.4598 87.25 36.6598 88.58 39.6598C90.26 43.4298 86.57 44.1098 85.72 47.3598C85.31 48.9298 85.86 49.7898 84.5 50.9498C83.6 51.7198 82.58 52.1198 81.7 52.9698C80.54 54.0998 81.08 55.0098 80.38 56.3598C79.72 57.6198 78.34 58.1698 77.09 58.5898C75.52 59.1198 74.73 59.3698 73.69 60.6698C72.72 61.8798 72 62.8798 70.29 62.8598C68.06 62.8398 66.91 60.6098 65.68 59.0098C64.12 56.9698 62.63 54.5198 61.23 52.3298C58.8 48.5398 56.92 44.5798 54.97 40.6498C53.53 37.7298 52.45 31.4298 56.17 29.8398C56.92 29.5198 57.55 29.7698 56.96 29.5698L56.97 29.5798Z" fill="#808080"/>
        <g style="mix-blend-mode:multiply" opacity="0.25">
            <path d="M84.3501 38.0501C83.9201 38.4101 79.1501 34.4401 78.3001 33.6701C76.4301 31.9701 75.0801 31.1801 72.5501 30.9401C70.1201 30.7101 67.9301 30.6901 65.5101 31.0201C63.1801 31.3301 60.3401 31.1001 59.2001 33.5201C57.8401 36.3901 58.8801 39.4001 58.0101 42.2501C59.3201 39.4001 61.9901 35.2401 65.2401 34.7001C69.3501 34.0201 74.5301 33.2901 78.1701 35.6401C80.2501 36.9801 82.6201 38.2001 84.3401 38.0601L84.3501 38.0501Z" fill="#4D4D4D"/>
        </g>
        <g style="mix-blend-mode:multiply" opacity="0.25">
            <path d="M29.7801 71.5602C31.1201 69.9602 32.3301 68.8402 34.5401 69.2702C37.2101 69.7802 39.1501 70.1302 42.0201 70.1302C46.7501 70.1302 49.9801 69.7802 53.9001 66.9502C56.5801 65.0102 59.5701 62.3702 60.2501 59.0202C60.8901 55.8902 61.6301 52.7002 62.3501 49.4902C62.2601 48.8502 62.1501 48.2302 62.0401 47.5902C61.9101 46.8702 61.9101 45.1502 61.9701 44.7202C60.3801 48.0602 59.2501 51.7802 57.3801 54.9802C56.1601 57.0602 54.9201 60.1502 52.9301 61.5502C50.7901 63.0402 47.9101 62.4802 45.4901 63.5102C43.0901 64.5402 41.8801 63.1802 42.6001 60.6002C42.9601 59.3202 44.0301 58.7402 44.9101 57.7302C45.7001 56.8202 46.2801 55.6502 46.8201 54.5802C45.7901 54.9702 44.9001 56.0502 43.9901 56.7202C43.2801 57.2402 42.2801 57.6202 41.6801 58.2702C40.4901 59.5502 40.8001 61.6302 40.1701 63.1102C38.2601 67.5602 34.8401 62.4402 31.8101 65.2602C29.8301 67.1102 29.8901 69.2802 29.7701 71.5802L29.7801 71.5602Z" fill="#4D4D4D"/>
        </g>
        <g style="mix-blend-mode:multiply" opacity="0.25">
            <path d="M51.37 43.9501C51.14 42.8301 51.58 41.0801 50.16 40.9201C49.03 40.8001 47.77 42.5101 47.17 43.3401C46.19 44.7101 45.62 46.1501 44.13 47.1001C42.68 48.0201 40.2 48.2301 38.99 49.4301C38.12 50.3001 37.98 55.8301 38.78 55.7201C39.54 55.6201 41.43 52.2001 42.03 51.5401C42.95 50.5301 44.05 49.8701 45.24 49.2001C47.84 47.7401 51.77 46.7301 51.37 43.9401V43.9501Z" fill="#4D4D4D"/>
        </g>
        <g style="mix-blend-mode:multiply" opacity="0.25">
            <path d="M2.93999 122.22C5.64999 124.32 8.72999 124.89 11.58 122.78C14.94 120.3 18.32 116.18 19.4 112.09C21.87 102.72 19.09 92.0098 23.09 83.0398C24.84 79.0898 26.82 75.1298 29.6 71.7898C29.66 71.7098 29.73 71.6398 29.79 71.5698C30.71 70.4698 31.58 69.5998 32.73 69.2998C32.61 69.0198 32.45 68.7398 32.25 68.4598C31.92 67.9998 31.58 67.5798 30.65 67.2598C29.46 69.4398 27.29 71.3598 25.65 73.2498C24.18 74.9398 23.07 76.8098 22.11 78.8398C20.35 82.5698 18.62 86.4598 18.25 90.6598C17.51 98.9598 18.32 106.95 15.82 114.92C15.1 117.23 12.53 121.06 9.99998 121.88C7.76999 122.61 7.26998 119.14 5.83998 117.87C5.04998 117.17 4.11998 117.42 3.28998 118.09C3.16998 118.23 3.04998 118.38 2.91998 118.55C1.61998 120.28 1.08998 120.78 2.94998 122.23L2.93999 122.22Z" fill="#4D4D4D"/>
        </g>
        <path d="M37.9 67.25C38.25 64.96 34.65 62.48 32.08 64.22C27.11 73.8 21.19 80.12 12.94 78.44C22.53 84.66 30.6 78.94 37.9 67.24V67.25Z" fill="#E3D9CC"/>
        <path d="M127.97 43.1997C127.97 43.1997 127.95 43.2297 127.95 43.2797C127.95 43.2597 127.96 43.2297 127.97 43.1997Z" fill="#4D4D4D"/>
        <path d="M118.09 11.4297C122.42 12.0997 125.99 16.0797 129.27 18.6997C132.71 21.4497 137.5 21.7697 141.8 21.7197C144.94 21.6797 147.3 20.4797 149.89 19.1297C148.6 19.9697 147.71 21.2897 146.33 22.0197C144.81 22.8297 143.08 23.0597 141.37 23.1297C137.34 23.2997 133.22 23.4697 129.68 21.5997C127.91 20.6597 126.47 19.2097 124.59 18.4897C123.17 17.9397 121.58 17.7297 120.14 17.2497C120.05 15.5597 119.53 13.3597 118.09 11.4397V11.4297Z" fill="#808080"/>
        <path d="M40.94 49.1797C41.38 48.8997 41.84 48.6997 42.25 48.3597C42.67 48.0097 43.27 47.9497 43.68 48.3597C44.06 48.7397 44.08 49.4097 43.68 49.7897C43.13 50.3097 42.48 50.8497 41.74 51.0697C40.59 51.4197 39.98 49.7997 40.95 49.1897L40.94 49.1797Z" fill="#333333"/>
    </g>
</svg>
