<svg width="64" height="107" viewBox="0 0 64 107" fill="none" xmlns="http://www.w3.org/2000/svg">
    <path d="M38.6493 80.585L39.0703 82.7755C39.0703 83.9531 36.5747 84.4351 35.031 83.9836C34.8724 83.9348 35.0676 83.4222 34.9273 83.3551C34.7686 83.2758 34.2805 83.6419 34.1646 83.5382C33.951 83.3368 33.8229 83.0805 33.829 82.7755C33.829 82.5131 34.6466 81.2744 34.6466 81.2744L38.6432 80.585H38.6493Z" fill="#4A2B0B"/>
    <path d="M38.6493 80.585L39.0703 82.7755C39.0703 83.9531 36.5747 84.4351 35.031 83.9836C34.8724 83.9348 35.4947 82.1348 35.3605 82.0677C35.2018 81.9883 34.2866 83.6419 34.1707 83.5321C33.9571 83.3307 33.829 83.0744 33.8351 82.7694C33.8351 82.507 34.6527 81.2684 34.6527 81.2684L38.6493 80.5789V80.585Z" fill="#AD651A"/>
    <path d="M34.2255 65.0439C32.6757 63.2378 30.656 64.3483 27.9164 62.2555C24.652 59.766 23.0655 55.989 24.9143 51.8277L34.7014 50.3389C34.7014 50.3389 33.2675 55.9036 33.8228 57.4168C34.3719 58.93 36.8919 60.8338 36.8919 60.8338C37.2824 61.2121 37.5143 61.7185 37.557 62.2616L38.5272 76.0452C39.4913 76.7408 39.3936 77.8391 38.5272 79.2181L38.698 80.9754C37.9231 82.6046 34.793 82.6046 34.6648 81.2744C34.6648 81.2744 35.4702 79.7673 35.6411 78.7056C35.8119 77.6378 35.7875 66.85 34.2377 65.0439H34.2255Z" fill="#AD651A"/>
    <path d="M15.4201 63.067C18.5381 67.6189 21.9672 70.5172 25.8052 71.3348C25.9455 71.3653 26.0859 71.3897 26.2201 71.4141C26.4947 71.4629 26.7631 71.4995 27.0438 71.53C27.7516 71.585 28.4472 71.6216 29.1184 71.6338H29.2709C33.896 71.6582 37.7706 70.3646 40.1624 66.4656C40.315 66.2155 40.4614 65.9653 40.6018 65.6968L41.9746 64.7877L42.6092 64.3728L43.0546 64.0799L50.3889 59.2352C50.4804 57.008 50.456 54.8847 50.2729 52.9016C50.2058 52.1694 50.1204 51.4555 50.0045 50.766C49.1868 49.8508 48.3265 49.0514 47.4234 48.362C46.8743 47.9409 46.3007 47.5565 45.715 47.2209C44.2323 46.3545 42.6458 45.7626 40.9618 45.4209C40.5163 45.3294 40.0648 45.2562 39.6072 45.2013C39.4119 45.183 39.2167 45.1708 39.0275 45.1769C38.5089 45.1769 37.9902 45.2867 37.5082 45.4698L34.9028 46.4765L34.7319 46.4582L31.0465 46.1531L29.2831 46.0067L28.014 46.4155L26.9035 46.7694L26.1591 47.0074C26.1469 47.0074 18.0011 49.6128 18.0011 49.6128L17.7998 50.1803L17.1408 52.0474C17.1408 52.0596 15.4262 56.9531 15.4262 56.9531C15.3591 57.2521 15.3042 57.5511 15.2493 57.8501C14.9381 59.6806 14.9564 61.444 15.4262 63.0853L15.4201 63.067Z" fill="#E38C34"/>
    <path d="M10.5021 8.37146L10.911 8.78027C16.555 6.82773 21.6011 20.9348 25.7686 30.3253C28.8133 37.1958 33.2309 45.3904 33.1638 48.9538C29.0452 48.4656 18.5808 27.067 10.0262 11.9531L10.5082 8.37756L10.5021 8.37146Z" fill="#1A1A1A"/>
    <path d="M9.11099 14.7843C9.5198 15.8521 9.91031 16.9138 10.2825 17.9816C10.3374 18.1463 10.3984 18.3111 10.4595 18.4758C10.5144 18.6467 10.5754 18.8114 10.6303 18.9762C10.6974 19.1592 10.7584 19.3545 10.8195 19.5375C11.0452 20.2026 11.2649 20.8616 11.4784 21.5267C12.1252 23.5036 12.7171 25.4867 13.2601 27.4819C13.5713 28.629 13.8703 29.7883 14.1449 30.9416C14.4683 32.2717 14.7611 33.6019 15.0357 34.9321C15.1517 35.5117 15.2737 36.0853 15.3835 36.6649C15.713 38.4222 15.9998 40.1734 16.2439 41.9368C16.311 42.4066 16.372 42.8703 16.4269 43.3341C16.5123 44.0114 16.5916 44.6947 16.6588 45.372C16.7076 45.7625 16.7442 46.1469 16.7747 46.5436C16.7991 46.7815 16.8235 47.0195 16.8418 47.2575C16.8906 47.7517 16.9272 48.2398 16.9578 48.7341C17.0066 49.4114 17.0493 50.0886 17.0859 50.7659C17.1164 51.4371 17.1408 52.1022 17.1652 52.7734C17.1896 53.5849 17.214 54.4025 17.214 55.2201C17.2262 56.0317 17.214 56.8432 17.2018 57.6547C17.1896 58.0086 17.1835 58.3686 17.1774 58.7286C17.4703 58.7835 17.7632 58.8384 18.0499 58.8812C18.8676 59.0154 19.6547 59.1069 20.4113 59.1618C20.7103 59.1862 21.0032 59.2045 21.2899 59.2107C21.3876 59.2107 21.4852 59.2107 21.5767 59.2107C21.8574 59.2107 22.132 59.2107 22.4005 59.2107C23.7672 59.1679 25.0181 58.9666 26.1469 58.6005C26.6777 58.4235 27.1842 58.2222 27.654 57.9659C28.2886 57.6425 28.8682 57.252 29.4052 56.7822C29.8689 56.3795 30.296 55.9279 30.6804 55.4154C31.0587 54.9151 31.4065 54.3598 31.7116 53.7496C32.0106 53.1639 32.273 52.5171 32.4865 51.8337C32.6269 51.4127 32.7489 50.9734 32.8526 50.5158C32.9686 50.0154 33.0723 49.4907 33.1577 48.9415C32.694 48.4595 32.2181 47.8676 31.7482 47.1903C30.7415 45.7686 29.7164 43.9503 28.6791 41.888C28.496 41.528 28.3069 41.1619 28.1238 40.7836C27.7089 39.9293 27.2818 39.0385 26.8547 38.1232C26.5923 37.5558 26.3238 36.9761 26.0615 36.3904C25.2316 34.566 24.3957 32.6744 23.5537 30.7768C23.1693 29.8982 22.7788 29.0195 22.3821 28.1531C21.3998 25.9748 20.4174 23.8453 19.435 21.8745C18.7516 20.5016 18.0683 19.208 17.391 18.0304C16.6832 16.7918 15.9754 15.6874 15.2737 14.7477C15.0662 14.4731 14.8649 14.2229 14.6635 13.9789C14.1388 13.3504 13.6201 12.8318 13.1015 12.4352C12.8513 12.2399 12.6073 12.0752 12.3571 11.9409L11.8995 12.3375L9.09878 14.7721L9.11099 14.7843Z" fill="#E38C34"/>
    <path d="M54.3429 89.469L54.7639 91.6595C54.7639 92.8371 52.2683 93.3192 50.7246 92.8676C50.566 92.8188 50.7612 92.3063 50.6209 92.2392C50.4622 92.1598 49.9741 92.5259 49.8582 92.4222C49.6446 92.2209 49.5165 91.9646 49.5226 91.6595C49.5226 91.3971 50.3402 90.1585 50.3402 90.1585L54.3368 89.469H54.3429Z" fill="#4A2B0B"/>
    <path d="M54.3429 89.469L54.7639 91.6595C54.7639 92.8371 52.2683 93.3192 50.7246 92.8676C50.566 92.8188 51.1883 91.0188 51.0541 90.9517C50.8955 90.8724 49.9802 92.5259 49.8643 92.4161C49.6507 92.2148 49.5226 91.9585 49.5287 91.6534C49.5287 91.391 50.3463 90.1524 50.3463 90.1524L54.3429 89.4629V89.469Z" fill="#AD651A"/>
    <path d="M39.8329 64.0371C39.8146 64.8792 39.9305 65.6846 40.1746 66.4595C40.7298 68.2717 41.9563 69.8764 43.622 71.1395C46.3617 73.2324 48.5827 75.0507 50.1325 76.8629C50.8098 77.65 51.1515 79.5903 51.3162 81.6222C51.5237 84.2398 51.4322 86.9856 51.3345 87.5896C51.1637 88.6574 50.3583 90.1584 50.3583 90.1584C50.4864 91.4947 53.6227 91.4947 54.3976 89.8595L54.2206 88.0961C55.0871 86.7171 55.1908 85.6188 54.2206 84.9232L53.4518 74.0744C53.4152 73.5313 53.1772 73.0249 52.7928 72.6466C52.7928 72.6466 50.0715 67.808 49.5223 66.3009C48.9732 64.7876 50.401 59.2229 50.401 59.2229L40.6139 60.7056C40.1074 61.8466 39.8573 62.9693 39.839 64.031L39.8329 64.0371Z" fill="#E38C34"/>
    <path d="M53.1347 54.7016C54.2635 56.3612 55.7462 58.0331 57.7415 58.2771C56.2893 58.5151 54.9042 57.5449 53.9401 56.4283C52.9821 55.3117 52.2316 53.9816 51.0662 53.0846C50.5049 52.6514 49.6567 52.2548 49.4066 51.5348C49.071 50.5707 49.4554 50.2717 50.0106 50.7477C51.1516 51.73 52.2988 53.469 53.1347 54.7016Z" fill="#E38C34"/>
    <path d="M59.3158 58.1368C60.17 58.3199 60.9877 58.6555 61.7992 58.985C61.6161 59.0216 61.427 59.0643 61.2439 59.1009C62.0128 59.3389 62.8365 59.3999 63.6358 59.2962C63.1965 59.5219 62.7206 59.6806 62.2263 59.766C62.7267 60.0162 63.2819 60.1687 63.8433 60.2053C63.2636 60.2175 62.6778 60.2297 62.0982 60.2419C62.3789 60.4067 62.6595 60.5714 62.9341 60.7362C62.4216 60.8216 61.8968 60.8338 61.3843 60.7728C61.4819 60.8704 61.5734 60.968 61.6711 61.0657C61.5856 60.9802 61.067 60.9863 60.9267 60.9558C60.646 60.9009 60.3775 60.8277 60.1029 60.7423C59.5843 60.5775 59.0839 60.3518 58.6141 60.0772C58.1992 59.8392 56.1795 58.6372 57.2046 58.1002C57.7477 57.8135 58.7423 58.0148 59.3097 58.1368H59.3158Z" fill="#1A1A1A"/>
    <path d="M0.574856 24.0223C0.849432 24.1748 1.11791 24.3213 1.38638 24.4494C2.06367 24.785 2.72265 25.0108 3.35723 25.0657C4.364 24.8704 5.34637 24.2236 6.31044 23.2108C6.58501 22.924 6.74366 22.5335 6.74366 22.1369V21.1972L7.91518 19.6657C8.86094 19.8548 9.83111 19.8121 10.8257 19.5376C11.1064 19.4643 11.3809 19.3728 11.6677 19.2569L14.084 16.2365L14.206 15.7728L14.6819 13.9911L15.3348 11.526C15.6765 9.80537 16.3172 8.37758 17.3179 7.29148L18.1538 7.09012C18.1538 7.09012 18.8372 6.15657 18.8006 5.71724C18.7579 5.27792 18.1538 4.78979 18.1538 4.78979C17.5009 4.31386 16.9152 4.50301 16.3843 5.31453L16.2257 6.60199C15.4325 7.86504 14.328 8.79859 12.7599 9.22571L11.5091 8.4569C11.747 7.023 12.0582 5.69894 12.7599 4.85691L13.1504 4.77759L13.8155 4.05149C13.8155 4.05149 13.9253 3.16064 13.602 2.77623C13.2786 2.39183 12.3938 2.33081 12.3938 2.33081L11.5884 2.97149L11.503 4.17962C11.0881 5.1925 10.0813 6.49216 8.96467 7.84673L8.7145 7.94436L7.2379 8.53012C7.2379 8.53012 7.20128 8.54843 7.14027 8.59114C7.09145 8.62775 7.02434 8.67046 6.95112 8.71927C6.91451 8.74368 6.87179 8.77419 6.83518 8.79859C6.1762 9.26232 4.93146 10.202 4.74231 10.8244C4.48604 11.6786 5.19993 12.4047 5.084 13.2894C4.96807 14.1742 3.6196 16.7674 2.60672 17.463C1.59994 18.1464 0.184347 19.0982 0.00739861 20.6054C-0.0780239 21.2887 0.593161 24.004 0.593161 24.004L0.574856 24.0223Z" fill="#E38C34"/>
    <path d="M4.88255 7.64541C5.4012 8.13354 6.10289 8.36541 6.75577 8.65219C6.81679 8.67659 6.8717 8.701 6.93882 8.73761C6.96322 8.74981 6.98763 8.76202 7.01814 8.77422C7.5856 9.04879 8.12255 9.4149 8.39102 9.97625C8.33 9.86032 9.3978 9.18303 9.45271 9.01219C9.54424 8.68269 9.10491 8.49964 8.89746 8.23727C8.82424 8.15185 8.76322 8.05422 8.70831 7.95659C8.36051 7.40744 8.21407 6.72405 8.15915 6.08948C8.05543 5.02168 8.14085 3.91118 7.73814 2.92271C7.18289 1.57423 5.84662 0.738304 4.59577 0C4.6751 0.610168 4.61408 1.22644 4.50425 1.83661C4.38221 2.5322 4.19917 3.22779 4.07713 3.92338C3.85137 5.22914 3.92459 6.74236 4.88865 7.64541H4.88255Z" fill="#E38C34"/>
    <path d="M17.22 11.1173C17.9095 10.7573 18.538 10.2936 19.2397 9.96413C21.2105 9.03057 23.6878 9.26244 25.4451 10.5499C24.4932 11.4041 23.9929 12.6611 23.0837 13.5641C21.5827 15.0529 19.0932 15.297 17.1895 14.3817C16.1949 13.8997 15.298 13.137 14.1997 13.0211C14.1081 13.015 14.4803 12.1851 14.5292 12.118C14.6939 11.8801 14.8587 11.7092 15.1393 11.6421C15.4444 11.5628 15.8044 11.6238 16.1217 11.5506C16.5061 11.459 16.8661 11.3065 17.2139 11.1234L17.22 11.1173Z" fill="#E38C34"/>
    <path d="M13.1077 12.118C13.1504 12.5573 13.0894 13.015 12.8636 13.3872C12.827 13.4482 12.766 13.5153 12.6927 13.5153C12.6195 13.5153 12.5768 13.4421 12.5402 13.3811C12.2961 12.9784 12.0582 12.5817 11.8141 12.179C11.6921 11.9777 11.5639 11.758 11.5883 11.52C11.6127 11.2577 11.8202 11.038 12.0643 10.9404C12.3816 10.8062 12.6989 10.7451 12.8575 11.038C13.0222 11.3248 13.0772 11.7946 13.1077 12.118Z" fill="#693A0A"/>
    <path d="M15.0783 11.6359C15.0783 11.7579 15.0417 11.9226 14.9197 11.9165C14.8709 11.9165 14.8343 11.886 14.7977 11.8555C14.517 11.6298 14.2424 11.3979 13.9617 11.1721C13.9007 11.1233 13.8397 11.0684 13.8275 10.9952C13.8092 10.8732 13.919 10.7816 14.0227 10.7145C14.2241 10.5864 14.7305 10.2142 14.9624 10.4399C15.1577 10.623 15.0722 11.3857 15.0783 11.642V11.6359Z" fill="#693A0A"/>
    <path d="M11.6678 9.99454C11.7532 10.1105 11.7349 10.2813 11.6617 10.4034C11.5885 10.5254 11.4665 10.6169 11.3505 10.7023C10.8868 11.0501 10.417 11.3979 9.95325 11.7457C9.57494 12.0264 9.19664 12.3071 8.85494 12.6305C8.48884 12.9783 8.15935 13.3688 7.83596 13.7593C7.38444 14.3023 6.93902 14.8393 6.48749 15.3823C6.40817 15.4739 6.31054 15.5776 6.18851 15.5593C5.99936 15.5349 5.98105 15.2603 6.03597 15.0772C6.5119 13.503 8.25088 12.5206 8.58647 10.9159C8.75122 10.141 8.57427 9.26234 9.00139 8.59116C9.17223 8.32879 9.52003 8.10912 9.7885 8.27997C9.99596 8.41421 10.0204 8.70709 9.97765 8.95116C9.92884 9.19522 9.83731 9.43929 9.88002 9.67726C9.92274 9.92132 10.1241 10.1349 10.3621 10.1898C10.7526 10.2874 11.3383 9.56743 11.6556 9.99454H11.6678Z" fill="#693A0A"/>
    <path d="M13.486 13.8631C13.547 13.8631 13.5958 13.9058 13.6385 13.9424C13.8948 14.1621 14.084 14.4549 14.1755 14.7722C14.2731 15.1017 14.267 15.4556 14.267 15.7973C14.2609 16.3648 14.2548 16.9322 14.2487 17.4936C14.2487 17.579 14.2426 17.6766 14.1755 17.7255C14.0779 17.8048 13.9314 17.7255 13.8277 17.6461C13.4677 17.3655 13.1077 17.0787 12.7416 16.798C12.5402 16.6394 12.3267 16.4624 12.2901 16.2122C12.2474 15.9316 12.4304 15.6753 12.6074 15.4556C12.8148 15.1933 13.187 14.876 13.2907 14.5587C13.3457 14.4 13.1931 13.8509 13.486 13.857V13.8631Z" fill="#693A0A"/>
    <path d="M22.9133 12.9782C22.3275 13.6006 21.6869 14.2474 20.857 14.4304C20.1797 14.583 19.4781 14.3999 18.8313 14.1681C18.1845 13.9362 17.5438 13.6372 16.8604 13.5518C16.6042 13.5213 16.2625 13.4297 16.2808 13.1735C16.2869 13.0392 16.4028 12.9355 16.5187 12.8562C17.5194 12.124 18.697 11.6908 19.8625 11.2698C20.7289 10.9525 21.6319 10.6352 22.5472 10.7511C22.9194 10.7999 23.8713 10.9952 23.9201 11.4467C23.9811 11.9592 23.2306 12.6548 22.9194 12.9843L22.9133 12.9782Z" fill="#693A0A"/>
    <path d="M4.23575 21.3254C4.22355 21.4657 4.10762 21.5755 3.99779 21.6671C3.62558 21.9905 3.24728 22.3138 2.87508 22.6372C2.83237 22.6738 2.76525 22.7166 2.71643 22.6799C2.68593 22.6555 2.67982 22.6128 2.68592 22.5701C2.70423 22.1064 2.90559 21.6488 3.22288 21.3132C3.33881 21.185 3.60728 20.9044 3.79033 20.8922C3.99169 20.8739 4.26016 21.0996 4.23575 21.3315V21.3254Z" fill="#693A0A"/>
    <path d="M1.33119 21.539C1.18475 21.5268 1.12373 21.3315 1.16645 21.1912C1.21526 21.0508 1.32509 20.9349 1.38 20.8007C1.46543 20.5871 1.24577 19.0739 1.83763 19.8976C2.0756 20.221 1.75831 21.5756 1.33119 21.5451V21.539Z" fill="#693A0A"/>
    <path d="M9.48919 18.4209C9.42207 18.5246 9.31835 18.6406 9.19631 18.604C9.04987 18.5673 9.03157 18.3477 8.90343 18.2623C8.83021 18.2135 8.73869 18.2196 8.64716 18.2073C8.56174 18.1951 8.46411 18.1524 8.4397 18.0731C8.41529 17.9755 8.51292 17.8901 8.59224 17.829C8.7997 17.6826 9.48919 17.0114 9.75767 17.2799C9.98343 17.5057 9.60513 18.2257 9.48309 18.4209H9.48919Z" fill="#693A0A"/>
    <path d="M11.753 17.0665C11.9421 17.097 12.1496 17.1336 12.2777 17.2739C12.3937 17.4082 12.412 17.5973 12.3815 17.7682C12.3204 18.1526 12.0581 18.4882 11.7225 18.6895C11.3869 18.8909 10.9903 18.9702 10.5998 18.9763C10.5082 18.9763 10.3984 18.9702 10.3496 18.8909C10.1604 18.6102 10.8682 18.1037 10.9842 17.8536C11.1977 17.4082 11.0818 16.9627 11.753 17.0665Z" fill="#693A0A"/>
    <path d="M16.372 93.2521L16.793 95.4426C16.793 96.6202 14.2974 97.1022 12.7537 96.6507C12.595 96.6019 12.7903 96.0894 12.6499 96.0222C12.4913 95.9429 12.0031 96.309 11.8872 96.2053C11.6737 96.0039 11.5455 95.7477 11.5516 95.4426C11.5516 95.1802 12.3692 93.9416 12.3692 93.9416L16.3659 93.2521H16.372Z" fill="#4A2B0B"/>
    <path d="M16.372 93.2521L16.793 95.4426C16.793 96.6202 14.2974 97.1022 12.7537 96.6507C12.595 96.6019 13.2174 94.8019 13.0831 94.7348C12.9245 94.6555 12.0093 96.309 11.8933 96.1992C11.6798 95.9978 11.5516 95.7416 11.5577 95.4365C11.5577 95.1741 12.3754 93.9355 12.3754 93.9355L16.372 93.246V93.2521Z" fill="#AD651A"/>
    <path d="M23.3096 57.8683C23.2486 60.4921 22.1136 62.5849 20.3014 64.3483L18.4709 77.5646C19.4045 79.4195 18.892 81.1524 17.6533 82.8242L16.7014 88.932C17.5496 89.7679 17.2811 90.8357 16.2133 92.0683L16.4086 93.6425C15.6337 95.2717 12.5035 95.2717 12.3754 93.9415L13.6506 91.2323L15.0784 82.5924C14.4926 81.0181 14.3401 79.2303 15.7923 77.5158L16.5184 64.1653C14.7733 61.7368 14.9747 59.4548 15.4506 56.825L23.3096 57.8622V57.8683Z" fill="#E38C34"/>
    <g style="mix-blend-mode:multiply" opacity="0.3">
        <path d="M15.4202 63.067C18.5381 67.6189 21.9673 70.5172 25.8053 71.3348C25.9456 71.3653 26.0859 71.3897 26.2202 71.4141C26.4947 71.4629 26.7632 71.4996 27.0439 71.5301C27.7517 71.585 28.4473 71.6216 29.1185 71.6338H29.271C33.8961 71.6582 37.7706 70.3646 40.1625 66.4657C40.7178 68.2779 41.9442 69.8826 43.61 71.1457C46.3496 73.2385 48.5706 75.0568 50.1205 76.869C50.7977 77.6562 51.1394 79.5965 51.3042 81.6283C51.3835 81.1158 51.4628 80.6155 51.5177 80.1029C51.7374 78.2724 51.6642 76.2711 50.572 74.7823C49.6628 73.5436 48.1984 72.8724 46.9354 71.9938C44.4825 70.2914 42.713 67.6738 41.9686 64.7877C41.6879 63.7443 41.5537 62.6643 41.572 61.5843C41.1022 62.4813 40.5103 63.305 39.8208 64.0433C37.0995 66.9538 32.9015 68.4914 28.9598 67.7897C26.1775 67.2955 23.6575 65.825 21.4792 64.0311C19.307 62.2311 17.4337 60.1077 15.4812 58.0698C15.408 57.9904 15.3287 57.9172 15.2371 57.8379C14.9259 59.6684 14.9443 61.4318 15.4141 63.0731L15.4202 63.067Z" fill="#603813"/>
    </g>
    <path d="M29.7836 102.868L30.2046 105.059C30.2046 106.236 27.709 106.718 26.1653 106.267C26.0066 106.218 26.2019 105.706 26.0615 105.638C25.9029 105.559 25.4148 105.925 25.2988 105.821C25.0853 105.62 24.9571 105.364 24.9632 105.059C24.9632 104.796 25.7809 103.558 25.7809 103.558L29.7775 102.868H29.7836Z" fill="#4A2B0B"/>
    <path d="M29.7836 102.868L30.2046 105.059C30.2046 106.236 27.709 106.718 26.1653 106.267C26.0066 106.218 26.629 104.418 26.4948 104.351C26.3361 104.272 25.4209 105.925 25.3049 105.815C25.0914 105.614 24.9632 105.358 24.9693 105.053C24.9693 104.79 25.787 103.552 25.787 103.552L29.7836 102.862V102.868Z" fill="#AD651A"/>
    <path d="M31.852 66.545C32.1937 69.1443 31.3943 71.3898 29.875 73.4094L29.6492 86.8148C30.8513 88.505 30.6194 90.2989 29.6492 92.1355V98.3165C30.6133 99.0121 30.5157 100.11 29.6492 101.489L29.8201 103.247C29.0452 104.876 25.915 104.876 25.7869 103.546L26.9889 101.056L27.0743 92.3002C26.2567 90.8358 25.8296 89.0907 27.0011 87.1748L26.1164 73.806C24.0174 71.6765 23.5049 67.4969 23.572 64.8243L31.8581 66.5328L31.852 66.545Z" fill="#E38C34"/>
    <path d="M14.8831 17.7559C14.9746 18.9397 15.298 20.0868 15.6214 21.2339C16.1278 21.2156 16.6709 21.0875 16.9821 20.6847C17.3421 20.2271 17.2627 19.6047 17.2627 19.0556C17.2627 18.7871 17.2444 18.5125 17.3116 18.2502C17.3299 18.1831 17.3604 18.1098 17.4031 18.0366C16.6953 16.798 15.9875 15.6936 15.2858 14.7539C14.9014 15.6875 14.8099 16.737 14.8892 17.7498L14.8831 17.7559Z" fill="#693A0A"/>
    <path d="M11.4784 21.5267C12.1252 23.5037 12.717 25.4867 13.2601 27.482C13.4248 27.4698 13.5835 27.4149 13.736 27.3599C14.1937 27.1952 14.6879 26.9877 14.9076 26.5545C15.0662 26.2433 15.0479 25.8711 15.0235 25.5172C14.9259 24.1139 14.8343 22.7105 14.7428 21.3071C14.7245 21.0935 14.7123 20.88 14.6208 20.6847C14.5354 20.4956 14.3462 20.3308 14.1387 20.3308C14.0106 20.3308 13.8886 20.3796 13.7787 20.4284C13.132 20.7213 12.473 21.002 11.8201 21.3071C11.6615 21.3803 11.5455 21.4535 11.4723 21.5267H11.4784Z" fill="#693A0A"/>
    <path d="M18.3245 23.5831C18.3001 23.8027 18.2085 24.0041 18.117 24.1993C17.9584 24.541 17.7997 24.8827 17.6411 25.2244C17.5556 25.4136 17.4214 25.6271 17.214 25.6271C16.9699 25.6271 16.854 25.3281 16.7807 25.0902C16.6465 24.6692 16.4268 24.2726 16.1462 23.9309C16.0302 23.7905 15.896 23.6563 15.8045 23.4976C15.7129 23.339 15.658 23.1437 15.7129 22.9729C16.0363 21.9112 18.4465 22.32 18.3184 23.5831H18.3245Z" fill="#693A0A"/>
    <path d="M18.8675 27.4087C19.0811 27.7565 19.5082 27.8908 19.9109 27.9762C20.7224 28.1409 21.5584 28.202 22.3821 28.1592C21.3997 25.9809 20.4173 23.8515 19.435 21.8806C19.1177 22.2528 19.0689 23.1376 19.0384 23.4854C18.9407 24.4616 18.8492 25.444 18.7516 26.4203C18.7211 26.7559 18.6967 27.1159 18.8675 27.4026V27.4087Z" fill="#693A0A"/>
    <path d="M17.7816 28.4339C17.9646 28.8122 17.9585 29.2516 17.9524 29.6726C17.9402 30.2217 17.928 30.7709 17.9158 31.3139C17.9158 31.5214 17.8975 31.741 17.7571 31.8936C17.5924 32.0644 17.3117 32.0644 17.1043 31.9607C16.8968 31.857 16.7382 31.6678 16.5917 31.4848C16.1219 30.9051 15.6521 30.3194 15.1822 29.7397C14.9687 29.4773 14.749 29.1722 14.8039 28.8427C14.871 28.4461 15.2677 28.257 15.4629 27.9336C15.6399 27.6407 15.591 27.1953 15.9694 27.0794C16.5673 26.9024 17.568 27.9885 17.7816 28.4339Z" fill="#693A0A"/>
    <path d="M21.5828 31.3566C21.5828 32.162 21.2594 32.9308 20.8872 33.6447C20.8201 33.7728 20.7407 33.9071 20.6004 33.9376C20.4601 33.9681 20.3136 33.8643 20.2465 33.7362C20.1794 33.6081 20.1672 33.4555 20.1428 33.3091C20.0573 32.7416 19.8011 32.1986 19.4167 31.7715C19.1665 31.4908 18.8492 31.2345 18.7455 30.8684C18.5319 30.0874 19.5204 29.1355 20.2953 29.2515C21.1251 29.3796 21.5828 30.6427 21.5828 31.3504V31.3566Z" fill="#693A0A"/>
    <path d="M14.1449 30.9416C14.4682 32.2718 14.7611 33.6019 15.0357 34.9321C15.054 34.9138 15.0662 34.8833 15.0845 34.865C15.414 34.2975 15.7435 33.7362 16.073 33.1687C16.4635 32.3938 15.1516 31.6555 14.6452 31.1796C14.5476 31.0819 14.4377 30.9843 14.2974 30.9416C14.2486 30.9233 14.1937 30.9233 14.1449 30.9416Z" fill="#693A0A"/>
    <path d="M22.2541 34.1572C22.3334 34.8162 23.0473 35.2067 23.267 35.8291C23.4439 36.3172 23.328 36.9701 23.7612 37.2507C24.048 37.4399 24.4324 37.3545 24.7619 37.2507C25.2622 37.0799 25.8053 36.8419 26.0676 36.4087C25.2378 34.5843 24.4019 32.6928 23.5598 30.7952C23.4683 30.9111 23.3768 31.1125 23.2853 31.3443C23.0351 31.9606 22.7788 32.5769 22.5042 33.1809C22.3639 33.4921 22.2175 33.8216 22.2541 34.1572Z" fill="#693A0A"/>
    <path d="M22.5226 36.9639C22.7789 37.3117 22.907 37.7388 22.9742 38.1598C23.1145 38.9713 23.0718 39.8073 22.8643 40.6005C22.785 40.8934 22.5959 41.2351 22.2969 41.1924C22.1321 41.1679 22.0101 41.0215 21.9491 40.869C21.8942 40.7103 21.8881 40.5395 21.8697 40.3747C21.7904 39.7279 21.4304 39.1239 20.8996 38.7456C20.5884 38.5259 20.1796 38.2941 20.204 37.9158C20.2162 37.7388 20.326 37.5924 20.4359 37.452C20.6616 37.1591 21.0094 36.4574 21.3877 36.3415C21.7782 36.2256 22.3152 36.6771 22.5226 36.9578V36.9639Z" fill="#693A0A"/>
    <path d="M15.3833 36.6711C15.7128 38.4283 15.9996 40.1795 16.2437 41.9429C16.622 42.1504 17.1162 42.1504 17.5189 41.9795C18.0132 41.7782 18.3915 41.3694 18.6599 40.9056C19.0199 40.2894 19.203 39.5633 19.1725 38.8433C19.1481 38.0561 18.904 37.1653 19.4104 36.5551C19.7704 36.128 20.6247 35.6582 19.9901 35.0907C19.7765 34.9016 19.5447 34.8283 19.3372 34.5965C19.0199 34.2243 18.7454 33.7972 18.4525 33.4067C18.3854 33.3212 18.306 33.2236 18.2023 33.1931C18.0071 33.1382 17.824 33.309 17.6898 33.4738C17.2199 34.0412 16.7501 34.6087 16.2864 35.1761C15.9142 35.6277 15.5298 36.1036 15.3772 36.6711H15.3833Z" fill="#693A0A"/>
    <path d="M23.7672 40.7287C23.816 40.9117 24.0173 41.0032 24.2004 41.0398C24.3834 41.0703 24.5726 41.0642 24.7434 41.1314C25.1218 41.2778 25.2987 41.7476 25.677 41.9002C26.0614 42.0588 26.4885 41.827 26.8485 41.6073C27.2756 41.3388 27.7028 41.0703 28.1299 40.7958C27.715 39.9415 27.2878 39.0507 26.8607 38.1354C26.4458 38.0927 26.0004 38.6114 25.5489 38.6114C24.7862 38.9531 24.1638 39.5815 23.8343 40.3442C23.7855 40.4663 23.7367 40.6066 23.7733 40.7348L23.7672 40.7287Z" fill="#693A0A"/>
    <path d="M16.4208 43.3402C16.6465 45.1341 16.8296 46.9341 16.9577 48.7402C17.4641 48.9782 18.1292 48.9538 18.6601 48.7219C19.4716 48.3619 20.0513 47.648 20.6675 47.0196C21.0275 46.6535 21.4241 46.2935 21.6194 45.8175C21.8696 45.2257 21.778 44.5545 21.6865 43.9199C21.5889 43.267 21.4913 42.608 21.3936 41.9491C21.3692 41.766 21.3387 41.5769 21.235 41.4304C20.8384 40.8264 20.5394 41.6196 20.3441 41.9186C20.0391 42.3884 19.7035 42.8399 19.2519 43.1877C18.593 43.6941 17.6411 43.9199 16.915 43.505C16.7686 43.4257 16.5733 43.3097 16.4269 43.3402H16.4208Z" fill="#693A0A"/>
    <path d="M26.5742 45.4759C26.8 45.7749 27.1478 46.0739 27.0807 46.44C27.0379 46.6535 26.861 46.8183 26.6596 46.8976C26.4583 46.9769 26.2386 46.9891 26.0251 47.0013C25.122 47.044 24.219 47.0867 23.3098 47.1294C23.1451 47.1355 22.962 47.1355 22.84 47.0257C22.6203 46.8122 22.8156 46.4522 22.9559 46.1776C23.3586 45.3661 23.1085 44.3959 22.8278 43.5356C22.6264 42.9193 22.5837 42.2176 23.3586 42.0651C23.8529 41.9674 24.6034 42.1505 25.0488 42.4006C26.141 43.0169 25.8969 44.5789 26.5742 45.482V45.4759Z" fill="#693A0A"/>
    <path d="M27.4832 44.524C27.7944 45.6406 28.1117 46.7572 28.4229 47.8738C29.0941 47.9592 29.7713 48.0447 30.4303 47.9165C30.8147 47.8372 31.4737 47.5992 31.7544 47.2026C30.7476 45.7809 29.7225 43.9626 28.6852 41.9003C28.0751 42.242 27.4771 42.6752 27.349 43.3342C27.2697 43.7308 27.3795 44.1335 27.4893 44.5179L27.4832 44.524Z" fill="#693A0A"/>
    <path d="M27.2208 48.1849C27.5381 48.4839 27.6601 48.9476 27.6418 49.3869C27.6235 49.8262 27.4709 50.2412 27.3184 50.6561C26.7753 52.1205 26.153 53.5483 25.4513 54.9456C25.3109 55.2201 25.012 55.5435 24.7557 55.3727C24.6642 55.3117 24.6214 55.2079 24.5787 55.1042C23.8587 53.3408 23.1326 51.5774 22.4126 49.814C22.2845 49.4968 22.1503 49.1185 22.3211 48.8195C22.4614 48.5693 22.7604 48.4656 23.035 48.3863C23.8526 48.1605 24.6581 48.1056 25.5001 48.0568C26.0859 48.0201 26.7021 47.709 27.2086 48.1849H27.2208Z" fill="#693A0A"/>
    <path d="M17.086 50.7721C17.1165 51.4433 17.1409 52.1084 17.1653 52.7795C17.2141 52.8161 17.2752 52.8467 17.3301 52.8772C17.6718 53.0602 18.0501 53.1578 18.4162 53.2799C19.5572 53.6826 20.5701 54.4453 21.2718 55.4338C21.3938 55.6107 21.5158 55.7938 21.6867 55.9219C21.8575 56.05 22.1016 56.105 22.2907 56.0073C22.4738 55.9036 22.547 55.6778 22.5775 55.4643C22.6996 54.5795 22.2846 53.707 21.8331 52.9321C21.3816 52.1572 20.8751 51.3639 20.8019 50.4731C20.7165 49.5395 20.6982 48.9233 19.6609 49.265C18.7823 49.5517 17.9768 49.9423 17.2935 50.5707C17.2202 50.6317 17.1531 50.705 17.0921 50.7782L17.086 50.7721Z" fill="#693A0A"/>
    <path d="M33.0661 51.2237C33.1088 51.3335 33.1515 51.4617 33.0966 51.5654C33.0478 51.6691 32.9196 51.7118 32.8098 51.7484C31.2783 52.2122 29.7528 52.6759 28.2213 53.1396C28.142 53.164 28.0566 53.1884 27.9773 53.1579C27.782 53.0908 27.8125 52.804 27.8857 52.6027C28.203 51.7179 28.5203 50.8332 28.8437 49.9484C28.9352 49.6983 29.0328 49.4359 29.2525 49.2833C29.6003 49.0393 30.0701 49.1918 30.4911 49.2711C30.8328 49.3322 31.1745 49.3383 31.5162 49.2956C31.7176 49.2711 32.0471 49.1186 32.2423 49.2284C32.6511 49.4603 32.9074 50.7844 33.0661 51.2176V51.2237Z" fill="#693A0A"/>
    <path d="M20.8265 56.9835C20.9302 57.13 21.0339 57.3252 20.9302 57.4778C20.8142 57.6486 20.5519 57.5815 20.3505 57.5144C19.8563 57.3496 19.3132 57.3496 18.819 57.5083C18.5444 57.5998 18.2821 57.734 17.9953 57.8012C17.7085 57.8683 17.3851 57.8439 17.1715 57.6486C16.9092 57.4106 16.897 57.0079 16.9092 56.654C16.9153 56.3306 16.9275 55.9951 17.0129 55.6839C17.0983 55.3666 17.2753 55.0676 17.5559 54.8967C17.9343 54.6588 18.4407 54.7076 18.8434 54.9029C19.7465 55.3483 20.2773 56.2025 20.8326 56.9957L20.8265 56.9835Z" fill="#693A0A"/>
    <path d="M20.4723 60.9131C20.454 61.029 20.4296 61.1572 20.332 61.2243C20.2038 61.3219 20.0086 61.2548 19.8926 61.1389C19.7767 61.029 19.7035 60.8765 19.5815 60.7666C19.3984 60.6019 19.1421 60.5531 18.8981 60.547C18.654 60.5348 18.4038 60.5592 18.1659 60.4982C17.9279 60.4372 17.696 60.2785 17.6411 60.0406C17.5984 59.8392 17.6838 59.6378 17.7632 59.4548C17.934 59.0765 18.111 58.6799 18.416 58.3992C19.0018 57.8561 19.7096 58.0575 20.1367 58.6677C20.6126 59.3511 20.5882 60.126 20.4662 60.9131H20.4723Z" fill="#693A0A"/>
    <path d="M26.0555 58.2833C26.1837 58.5396 26.202 58.8813 26.0128 59.0949C25.8298 59.3023 25.5186 59.3328 25.2379 59.3511C24.5484 59.3877 23.8528 59.4305 23.1633 59.4671C22.8765 59.4854 22.5226 59.4671 22.4006 59.1986C22.2786 58.9362 22.486 58.6494 22.6813 58.442C23.1572 57.9233 23.9199 57.0203 24.7131 57.0508C25.2257 57.0691 25.8481 57.8501 26.0616 58.2833H26.0555Z" fill="#693A0A"/>
    <path d="M24.0785 62.9266C24.0236 63.0487 23.9504 63.1829 23.8223 63.2073C23.6819 63.2317 23.5538 63.1097 23.4623 62.9998C23.1633 62.6398 22.8704 62.2798 22.5714 61.9259C22.4006 61.7246 22.2236 61.4622 22.3212 61.2181C22.3945 61.029 22.608 60.9375 22.8094 60.8765C23.2365 60.7483 24.4751 60.3639 24.7802 60.8581C25.067 61.328 24.2738 62.4995 24.0785 62.9327V62.9266Z" fill="#693A0A"/>
    <path d="M26.0858 64.2506C26.159 64.3666 26.2383 64.4764 26.2749 64.6106C26.3115 64.7449 26.281 64.9035 26.1651 64.9767C26.037 65.0561 25.8722 65.0011 25.738 64.9462C25.3902 64.8059 24.9936 64.6045 24.9326 64.2384C24.8837 63.97 25.0363 63.7076 25.1278 63.4513C25.2315 63.1584 25.4695 62.4995 25.7685 62.9388C25.982 63.25 25.8539 63.8723 26.0858 64.2567V64.2506Z" fill="#693A0A"/>
    <path d="M27.9346 66.8989C27.9346 67.0331 27.9041 67.1978 27.7821 67.2528C27.6845 67.2955 27.5746 67.2406 27.5075 67.1612C27.4404 67.0819 27.416 66.9782 27.3916 66.8745L27.0804 65.6419C27.056 65.5565 27.0377 65.465 27.0621 65.3734C27.117 65.2087 27.3184 65.1538 27.4953 65.1477C27.6723 65.1477 27.8309 65.1355 27.9896 65.0684C28.1421 65.5992 27.9591 66.3497 27.9407 66.8989H27.9346Z" fill="#693A0A"/>
    <path d="M30.7719 63.5002C30.9122 63.61 31.022 63.7626 31.1258 63.909C31.2905 64.1409 31.4553 64.4094 31.3942 64.6839C31.3393 64.9036 31.1441 65.0622 30.961 65.1965C30.4607 65.5626 29.9481 65.9104 29.4234 66.2338C29.277 66.3253 29.1 66.4168 28.9475 66.3497C28.7888 66.2826 28.7339 66.0812 28.7217 65.9043C28.6912 65.3795 28.8742 64.8487 29.1671 64.4094C29.4783 63.9456 30.1617 63.0304 30.7719 63.5002Z" fill="#693A0A"/>
    <path d="M29.7406 60.8765C30.003 61.1267 30.247 61.4684 30.1799 61.8223C30.125 62.0968 29.9053 62.2982 29.6979 62.4812C29.2097 62.9145 28.7155 63.3477 28.2274 63.7809C27.9833 63.9945 27.666 64.2263 27.367 64.1043C27.0864 63.9884 27.007 63.6345 26.9643 63.3355L26.586 60.6263C26.5677 60.5043 26.5494 60.3762 26.586 60.2541C26.6653 59.9307 27.0436 59.7843 27.3731 59.7416C27.8064 59.6867 28.5447 59.6867 28.923 59.9612C29.2158 60.1748 29.4599 60.6019 29.7467 60.8765H29.7406Z" fill="#693A0A"/>
    <path d="M32.2668 59.1253C32.3462 59.229 32.4316 59.3389 32.4438 59.4731C32.4743 59.7599 32.1875 59.9551 32.0167 60.187C31.919 60.3151 31.8519 60.4677 31.7604 60.6019C31.6628 60.7362 31.5285 60.8521 31.3638 60.8582C31.1563 60.8643 30.9855 60.6995 30.8757 60.5226C30.7658 60.3456 30.6926 60.1443 30.5401 60.0039C30.3692 59.8453 30.1313 59.7843 29.9665 59.6195C29.7346 59.3938 29.7163 59.0155 29.8262 58.7104C29.9421 58.4053 30.1618 58.1612 30.3814 57.9233C31.1746 57.0568 31.8031 58.5273 32.2607 59.1192L32.2668 59.1253Z" fill="#693A0A"/>
    <path d="M29.5823 55.6595C29.4542 56.6114 29.3138 57.5816 28.9355 58.4663C28.8806 58.5944 28.7891 58.747 28.6427 58.747C28.5572 58.747 28.484 58.686 28.4169 58.6311C27.9471 58.2283 27.4711 57.8256 27.0013 57.4168C26.8305 57.2704 26.6596 57.1178 26.5742 56.9165C26.4338 56.5748 26.5742 56.1904 26.7145 55.8487C26.8976 55.3972 27.1111 54.9151 27.526 54.665C27.9715 54.3904 28.6793 54.427 29.1552 54.6222C29.6189 54.8175 29.6494 55.1836 29.5823 55.6656V55.6595Z" fill="#693A0A"/>
    <path d="M17.214 60.9924C17.2689 61.1572 17.3177 61.3341 17.275 61.505C17.214 61.7368 16.9821 61.8772 16.7747 61.9931C16.6282 62.0724 16.4452 62.1578 16.3048 62.0663C16.2194 62.0114 16.1767 61.9138 16.1401 61.8161C16.0058 61.4744 15.8777 61.1328 15.7435 60.7911C15.6397 60.5165 15.5299 60.2175 15.6336 59.9429C15.7069 59.7477 15.8716 59.6012 16.0303 59.467C16.494 59.0765 16.5733 59.0338 16.7869 59.6256C16.9455 60.0711 17.0736 60.5348 17.214 60.9863V60.9924Z" fill="#693A0A"/>
    <path d="M36.3979 53.7374C36.5871 53.9144 36.7884 54.1828 36.6664 54.4147C36.5749 54.5856 36.3552 54.6344 36.16 54.6588C34.3356 54.915 32.5112 55.1652 30.6868 55.4215C30.583 55.1408 30.6562 54.8113 30.821 54.555C30.9857 54.2988 31.2237 54.1035 31.4739 53.9266C32.2671 53.3591 33.2251 52.8283 34.1891 52.6147C35.0556 52.4195 35.8122 53.1822 36.404 53.7374H36.3979Z" fill="#693A0A"/>
    <path d="M39.7537 56.9715C39.6073 57.2949 39.2534 57.5084 38.8995 57.4962C38.4906 57.4779 38.1428 57.1789 37.7401 57.1179C37.1361 57.0203 36.5808 57.4535 36.1476 57.8867C35.7144 58.32 35.2568 58.8142 34.6466 58.8874C34.1646 58.9484 33.6886 58.7227 33.3347 58.3932C32.9808 58.0637 32.7246 57.6427 32.4805 57.2278C32.334 56.9837 32.1937 56.6542 32.3707 56.4345C32.4439 56.3491 32.5537 56.3003 32.6574 56.2576C33.9815 55.7328 35.4215 55.4949 36.8432 55.5376C37.612 55.562 40.3883 55.562 39.7537 56.9715Z" fill="#693A0A"/>
    <path d="M41.1936 50.5768C41.1936 50.8148 41.1021 51.0467 41.0228 51.2663C40.7238 52.0778 40.5529 52.9382 40.5285 53.8046C40.5163 54.2561 40.5102 54.7748 40.1563 55.0494C39.7475 55.3667 39.1556 55.1531 38.6858 54.9212C38.3685 54.7687 38.0451 54.61 37.795 54.3599C37.5448 54.1097 37.3801 53.7497 37.4533 53.408C37.5204 53.0846 37.7767 52.8467 38.0146 52.6209C38.6065 52.0717 39.2045 51.5226 39.7963 50.9795C40.1075 50.6928 41.1631 49.4602 41.1936 50.5768Z" fill="#693A0A"/>
    <path d="M39.2044 50.4426C38.7895 50.8148 38.3746 51.187 37.9597 51.5592C37.4959 51.9741 36.9529 52.4134 36.3366 52.3402C35.7997 52.2731 35.3848 51.8155 35.1834 51.3151C34.982 50.8148 34.9454 50.2656 34.8539 49.7348C34.7624 49.2039 34.5976 48.6548 34.201 48.2826C34.0973 48.185 33.9814 48.0995 33.9204 47.9775C33.8593 47.8555 33.8776 47.6724 34.0058 47.6114C34.0973 47.5687 34.2071 47.6114 34.2987 47.6419C35.7448 48.1911 37.0871 48.1605 38.5942 48.2277C39.8573 48.2826 40.0647 49.6677 39.2044 50.4426Z" fill="#693A0A"/>
    <path d="M34.7321 46.4399C34.7199 46.5742 34.7504 46.7023 34.8236 46.8182C36.0866 47.5077 37.612 47.7091 39.0093 47.3613C39.3266 47.282 39.6866 47.1294 39.7598 46.8121C39.8148 46.5681 39.6866 46.3362 39.5707 46.1165C39.3876 45.8114 39.2473 45.4392 39.0276 45.1586C38.509 45.1586 37.9904 45.2684 37.5083 45.4514L34.9029 46.4582L34.7321 46.4399Z" fill="#693A0A"/>
    <path d="M39.5521 58.8752C39.7108 59.0827 39.7535 59.3572 39.7657 59.6135C39.7718 59.7722 39.7657 59.943 39.662 60.065C39.5216 60.2298 39.2715 60.2298 39.0518 60.2115C38.6918 60.181 38.3379 60.1566 37.9779 60.1261C37.6301 60.0955 37.2152 60.0345 37.0565 59.7233C36.9223 59.4671 37.0321 59.1315 37.2518 58.9423C37.4715 58.7532 37.7765 58.6922 38.0633 58.6861C38.4843 58.68 39.2654 58.4969 39.5521 58.8752Z" fill="#693A0A"/>
    <path d="M35.0554 62.0297C34.6771 62.2433 34.2439 62.347 33.829 62.4751C33.4141 62.6033 32.993 62.768 32.6758 63.067C32.4805 63.25 32.3036 63.4941 32.0351 63.5307C31.6568 63.5795 31.3578 63.1463 31.4066 62.7619C31.4493 62.3836 31.7117 62.0724 31.968 61.7856C32.3463 61.3585 32.7185 60.9314 33.1273 60.5348C33.6947 59.9917 34.7564 59.3145 35.5252 59.9185C36.2941 60.5226 35.751 61.6453 35.0615 62.0297H35.0554Z" fill="#693A0A"/>
    <path d="M38.7223 62.3958C38.3562 63.5246 37.9535 64.7083 37.0749 65.5137C36.599 65.947 36.0193 66.2398 35.4457 66.5266C35.2505 66.6242 35.0125 66.7219 34.8234 66.6059C34.5427 66.4351 34.6708 66.0141 34.6342 65.6846C34.5976 65.3429 34.3596 65.0683 34.1644 64.7876C33.9691 64.507 33.8044 64.147 33.9386 63.8358C34.0423 63.5795 34.3108 63.4331 34.561 63.311C35.4701 62.8595 36.3732 62.4019 37.2823 61.9504C37.5691 61.81 38.1427 61.3524 38.4661 61.4134C38.9298 61.4927 38.8261 62.0846 38.7223 62.4019V62.3958Z" fill="#693A0A"/>
    <path d="M33.3712 66.2093C33.3407 66.368 33.2492 66.5571 33.0905 66.551C32.8831 66.5388 32.8526 66.252 32.7183 66.0934C32.5658 65.9104 32.2668 65.9104 32.1082 65.7334C31.7177 65.2941 32.4438 64.7815 32.8526 64.8365C33.4261 64.9158 33.4505 65.7395 33.3712 66.2093Z" fill="#693A0A"/>
    <path d="M40.9618 45.4087C41.035 46.0616 41.1082 46.7144 41.1753 47.3734C41.2547 48.0629 41.3645 48.8317 41.9076 49.2711C42.2859 49.5822 42.7923 49.6616 43.2743 49.7165C44.2567 49.8385 45.2513 49.9117 46.2397 49.9361C45.8981 49.2588 45.7272 48.5022 45.7272 47.7395C45.7272 47.526 45.7272 47.3551 45.715 47.2026C44.2323 46.3361 42.6459 45.7443 40.9618 45.4026V45.4087Z" fill="#693A0A"/>
    <path d="M47.4967 50.3694C47.7224 50.7904 47.9543 51.2419 47.9238 51.7179C47.8811 52.2731 47.4784 52.8284 47.6919 53.347C47.9055 53.8412 48.534 53.9572 49.0648 53.9938C49.4431 54.0243 49.9007 54.0182 50.1082 53.707C50.2058 53.5606 50.2241 53.3714 50.2363 53.1945C50.2485 53.0907 50.2546 52.987 50.2668 52.8833C50.1997 52.1511 50.1143 51.4372 49.9984 50.7477C49.1807 49.8324 48.3204 49.0331 47.4174 48.3436C47.216 48.5084 47.0879 48.7768 47.0696 49.0209C47.0269 49.5029 47.2648 49.9484 47.4906 50.3694H47.4967Z" fill="#693A0A"/>
    <path d="M46.2582 52.9321C46.2765 53.0358 46.2948 53.1456 46.246 53.2372C46.1667 53.3836 45.9592 53.3836 45.7945 53.3714C44.7694 53.2799 43.7443 53.1944 42.7192 53.1029C42.5667 53.0907 42.4081 53.0724 42.2799 52.987C42.1396 52.8955 42.0603 52.7368 42.0298 52.5721C41.9321 52.0778 42.2311 51.5653 42.6582 51.2907C43.3477 50.8453 44.5986 50.7843 45.3918 50.9002C46.185 51.0161 46.1301 52.2914 46.2521 52.9321H46.2582Z" fill="#693A0A"/>
    <path d="M49.4371 56.2331C49.376 56.9592 49.315 57.6853 49.2601 58.4053C49.2296 58.7409 49.1991 59.0887 49.0221 59.3755C48.8452 59.6623 48.4669 59.8514 48.1618 59.7172C47.814 59.5646 47.7408 59.1131 47.6737 58.7409C47.4906 57.7341 47.0208 56.7823 46.3252 56.0318C46.0567 55.745 45.7333 55.3728 45.8859 55.0128C46.0079 54.726 46.3618 54.6345 46.6669 54.5979C48.0825 54.4453 49.5774 54.4453 49.431 56.227L49.4371 56.2331Z" fill="#693A0A"/>
    <path d="M44.922 55.4094C45.0623 55.6352 45.1294 55.9159 45.0379 56.166C44.8976 56.5505 44.4521 56.703 44.0677 56.8555C43.3843 57.124 42.7559 57.5206 42.2189 58.021C41.9626 58.2589 41.6454 58.5457 41.3098 58.4359C41.1206 58.3749 40.9864 58.1918 40.9315 58.0027C40.8765 57.8135 40.8888 57.606 40.9071 57.4047C40.9803 56.5199 41.1328 55.6352 41.3708 54.7749C41.4318 54.5552 41.5111 54.3172 41.7064 54.2013C41.9321 54.0671 42.2128 54.1464 42.463 54.2257C43.2562 54.482 44.4704 54.6101 44.9281 55.4033L44.922 55.4094Z" fill="#693A0A"/>
    <path d="M46.5508 59.8881C46.5447 60.3823 46.1847 60.7972 45.8491 61.1633C44.9216 62.1579 43.8843 63.2135 42.542 63.4026C42.2735 63.4392 41.9501 63.4148 41.8098 63.183C41.6938 62.9877 41.7549 62.7436 41.822 62.5301C42.0905 61.6819 42.3589 60.8399 42.6213 59.9918C42.786 59.4792 42.9508 58.9484 43.2925 58.5335C43.683 58.0636 44.7935 57.4474 45.4037 57.8562C45.6538 58.0209 45.8796 58.5457 46.0626 58.7958C46.3006 59.1253 46.5508 59.4609 46.5447 59.8881H46.5508Z" fill="#693A0A"/>
    <path d="M41.2425 61.0473C41.0107 61.6758 40.3334 61.987 39.7171 62.2432C39.65 61.9076 39.589 61.5476 39.7293 61.2364C39.8513 60.968 40.0954 60.7849 40.3273 60.6141C40.6018 60.4127 40.9374 60.0649 41.2608 59.9917C41.4012 60.2663 41.3462 60.7605 41.2364 61.0534L41.2425 61.0473Z" fill="#693A0A"/>
    <path d="M48.955 63.189C48.9367 63.3598 48.9184 63.5368 48.8513 63.6954C48.7841 63.8541 48.6438 63.9944 48.473 64.0188C48.2899 64.0493 48.113 63.9456 47.9848 63.8114C47.8567 63.6771 47.7713 63.5124 47.6675 63.3598C47.4601 63.0731 47.1733 62.8534 46.8438 62.7253C46.6485 62.6459 46.3923 62.5422 46.4045 62.3348C46.4106 62.2249 46.5021 62.1395 46.5814 62.0602C46.9353 61.7429 47.2953 61.4195 47.7224 61.2059C48.0275 61.0595 48.9062 60.7788 49.138 61.1754C49.3455 61.5293 48.9977 62.768 48.9611 63.1829L48.955 63.189Z" fill="#693A0A"/>
    <path d="M46.7036 64.0128C46.8317 64.1165 46.9599 64.2263 47.0392 64.3728C47.1124 64.5192 47.1246 64.7084 47.027 64.8426C46.8623 65.0501 46.5389 64.9951 46.2826 64.928C45.8372 64.8182 45.3734 64.7633 44.9158 64.7572C44.6412 64.7572 44.3362 64.7572 44.1348 64.5741C43.9212 64.3789 43.9151 64.0311 44.0555 63.7809C44.7389 62.6155 46.008 63.4453 46.7097 64.0128H46.7036Z" fill="#693A0A"/>
    <path d="M49.1137 66.5022C49.132 66.5815 49.1442 66.6791 49.0893 66.7402C49.0405 66.7951 48.9551 66.8073 48.8879 66.789C48.8147 66.7646 48.7598 66.7158 48.6988 66.673C48.351 66.3802 48.0032 66.0934 47.6554 65.8005C47.5212 65.6907 47.3747 65.5442 47.4174 65.3734C47.4662 65.1659 47.7408 65.1171 47.869 64.9463C48.0398 64.7205 48.0581 64.5863 48.3815 64.6839C48.5523 64.7327 48.6927 64.7998 48.772 64.9524C48.9978 65.3734 49.01 66.0324 49.1076 66.5022H49.1137Z" fill="#693A0A"/>
    <path d="M46.6424 66.7891C46.6607 66.8562 46.6729 66.9355 46.6302 66.9965C46.5814 67.0637 46.4838 67.0698 46.4044 67.0454C46.3251 67.0148 46.2641 66.9599 46.197 66.9172C45.8065 66.6671 45.2512 66.8135 44.8729 66.5511C44.7387 66.4596 44.6349 66.301 44.6594 66.1362C44.6777 66.0203 44.757 65.9165 44.8363 65.825C44.9644 65.6786 45.0987 65.5199 45.2817 65.465C46.0505 65.2332 46.5021 66.2216 46.6424 66.7891Z" fill="#693A0A"/>
    <path d="M43.6525 64.9158C43.6891 65.0379 43.6525 65.166 43.6281 65.288C43.5304 65.703 43.4267 66.124 43.3291 66.5389C43.3108 66.6243 43.2803 66.7158 43.2071 66.7524C43.1033 66.8135 42.9752 66.7341 42.8837 66.6548C42.603 66.4168 42.365 66.1362 42.1637 65.8311C42.066 65.6846 41.9806 65.5138 41.9989 65.3369C42.0172 65.1782 42.121 65.044 42.2186 64.9158C42.3406 64.7572 42.8288 63.9213 43.0972 64.0738C43.1888 64.1287 43.2071 64.3606 43.2681 64.446C43.384 64.6169 43.5915 64.7084 43.6525 64.9158Z" fill="#693A0A"/>
    <path d="M48.7719 67.5762C48.8757 67.6982 48.955 67.8447 48.9489 68.0094C48.9489 68.1253 48.9062 68.2352 48.8635 68.345C48.8208 68.4487 48.7597 68.5708 48.6499 68.5769C48.5706 68.5769 48.5096 68.5219 48.4547 68.4731C48.296 68.3267 48.1374 68.1741 47.9787 68.0277C47.9055 67.9606 47.8262 67.8752 47.8323 67.7775C47.8323 67.7165 47.8689 67.6616 47.9116 67.6128C48.0519 67.4358 48.2533 67.2833 48.473 67.2162C48.4486 67.3809 48.6743 67.4664 48.778 67.5823L48.7719 67.5762Z" fill="#693A0A"/>
    <path d="M45.3489 68.4914C45.2635 68.5036 45.172 68.4792 45.0866 68.4914C44.8364 68.5036 44.6167 68.7232 44.3727 68.6805C44.2018 68.65 44.0798 68.5036 43.9211 68.4365C43.6161 68.3083 43.5428 68.1253 43.7259 67.808C43.8601 67.5761 44.0981 67.4114 44.3666 67.4785C44.6228 67.5395 44.8669 67.7775 45.0866 67.9178C45.2147 68.0032 45.8371 68.4365 45.3428 68.4914H45.3489Z" fill="#693A0A"/>
    <path d="M39.5826 65.0744C39.546 65.1782 39.4972 65.2819 39.4179 65.349C39.3386 65.4222 39.2104 65.4527 39.1189 65.3917C39.0274 65.3307 39.0091 65.2087 38.9725 65.1049C38.9175 64.9402 38.8077 64.7999 38.6674 64.7022C38.5942 64.6534 38.5087 64.6046 38.4904 64.5253C38.4782 64.4643 38.5087 64.3971 38.5392 64.3422C38.7284 63.9822 39.0518 63.2256 39.6131 63.4148C40.1684 63.6039 39.7108 64.7266 39.5765 65.0744H39.5826Z" fill="#693A0A"/>
    <path d="M30.6196 66.5877C30.3572 66.7463 30.0887 66.9111 29.8264 67.0697C29.686 67.1551 29.5457 67.2405 29.4664 67.3809C29.3748 67.5456 29.3809 67.747 29.3931 67.9361C29.4053 68.168 29.4175 68.3999 29.4297 68.6317C29.4297 68.6927 29.4358 68.7538 29.4725 68.8026C29.5518 68.9063 29.7165 68.8697 29.8325 68.8026C30.0765 68.6744 30.2779 68.4853 30.4853 68.2961C30.6501 68.1436 30.8148 67.991 30.9369 67.808C31.0589 67.6249 31.1382 67.3992 31.1077 67.1795C31.0772 66.9843 30.9674 66.8073 30.8636 66.6426C30.8209 66.5816 30.7721 66.5083 30.6989 66.5022C30.5403 66.4839 30.4731 66.7524 30.3145 66.7524L30.6257 66.5816L30.6196 66.5877Z" fill="#693A0A"/>
    <path d="M26.6349 66.9599C26.5983 66.8989 26.5556 66.8318 26.4824 66.8074C26.342 66.7647 26.2261 66.9233 26.1712 67.0576C26.0735 67.2711 25.982 67.4969 25.982 67.7287C25.982 67.9423 26.0674 68.1498 26.1468 68.345C26.2871 68.6867 26.4274 69.0223 26.5678 69.364C26.5922 69.4189 26.6166 69.4799 26.6715 69.5043C26.7386 69.5409 26.8302 69.4982 26.8729 69.4372C26.9156 69.3762 26.9278 69.2908 26.94 69.2176C26.9949 68.8026 27.0376 68.3816 27.0681 67.9606C27.0986 67.564 26.8363 67.2833 26.6288 66.9538L26.6349 66.9599Z" fill="#693A0A"/>
    <path d="M28.7644 69.303C28.6851 69.7606 28.4776 70.1816 28.2701 70.5965C28.2274 70.682 28.1603 70.7796 28.0688 70.7735C27.9895 70.7674 27.9407 70.682 27.904 70.6149C27.6966 70.1938 27.4891 69.7545 27.5074 69.2908C27.5318 68.8271 27.8369 68.3084 28.2701 68.1193C28.8193 67.8813 28.8193 68.9796 28.7644 69.3091V69.303Z" fill="#693A0A"/>
    <path d="M30.1495 70.5536C30.1312 70.6573 30.058 70.7489 29.9848 70.8282C29.82 71.0174 29.6614 71.2065 29.4966 71.3957C29.399 71.5055 29.3014 71.6214 29.1732 71.7007C28.9841 71.3957 28.9475 70.999 29.0817 70.6696C29.1854 70.4194 29.4295 70.1143 29.7041 70.0411C29.942 69.9801 30.1922 70.2974 30.1495 70.5475V70.5536Z" fill="#693A0A"/>
    <path d="M26.0615 71.7802C25.915 71.5179 25.7686 71.2616 25.6221 70.9992C25.5916 70.9443 25.555 70.8833 25.5611 70.8223C25.5611 70.4806 26.1042 70.3158 26.2384 70.6697C26.3055 70.8467 26.3177 71.0602 26.2933 71.2433C26.2811 71.3165 26.0737 71.7863 26.0676 71.7802H26.0615Z" fill="#693A0A"/>
    <path d="M21.8879 61.9932C22.0161 62.3593 22.071 62.7559 21.9733 63.1281C21.9428 63.2501 21.8757 63.3843 21.7537 63.4026C21.6683 63.4148 21.5889 63.366 21.5218 63.3172C21.1862 63.0609 20.9605 62.6643 20.9116 62.2433C20.8872 62.0115 20.93 61.2182 21.2228 61.1145C21.5706 60.9925 21.8086 61.743 21.894 61.987L21.8879 61.9932Z" fill="#693A0A"/>
    <path d="M21.5158 58.6067C21.7538 58.8263 21.6684 59.2901 21.3633 59.4121L21.0033 58.4114C21.2168 58.3321 21.4243 58.2589 21.6379 58.1796C21.6684 58.3809 21.6378 58.5884 21.5585 58.7775L21.5158 58.6067Z" fill="#693A0A"/>
    <path d="M17.0249 64.3911C16.6954 64.1897 16.0425 63.189 16.7808 63.1219C17.3361 63.0731 17.7083 64.0982 17.7998 64.4826C17.5618 64.6351 17.2446 64.5253 17.0188 64.3911H17.0249Z" fill="#693A0A"/>
    <g style="mix-blend-mode:multiply" opacity="0.3">
        <path d="M17.0371 45.8786C16.9456 45.7748 16.8541 45.6711 16.7808 45.5613C16.7808 45.8908 16.7808 46.2142 16.7808 46.5437C16.7808 46.9891 16.7686 47.4223 16.7625 47.8677L16.848 47.2575L17.0432 45.8786H17.0371Z" fill="#603813"/>
    </g>
    <g style="mix-blend-mode:multiply" opacity="0.3">
        <path d="M1.39232 24.4494C2.06961 24.785 2.72859 25.0107 3.35707 25.0656C4.36384 24.8704 5.34621 24.2236 6.31028 23.2107C6.58485 22.9239 6.7435 22.5334 6.7435 22.1368V21.1972L7.91502 19.6656C8.86078 19.8548 9.83095 19.8121 10.8255 19.5375C11.0513 20.2026 11.2709 20.8616 11.4845 21.5267C12.1313 23.5036 12.7231 25.4866 13.2662 27.4819C13.5774 28.629 13.8764 29.7883 14.1509 30.9416C14.4743 32.2717 14.7672 33.6019 15.0418 34.9321C15.1577 35.5117 15.2797 36.0853 15.3896 36.6649C15.7191 38.4222 16.0059 40.1734 16.2499 41.9368C16.317 42.4066 16.3781 42.8703 16.433 43.3341C16.5184 44.0114 16.5977 44.6947 16.6648 45.372L16.7869 45.5551C16.7869 38.9409 16.1462 32.3327 14.8892 25.8344C14.2608 22.6006 13.4798 19.2812 14.1753 16.0595C14.1937 15.968 14.212 15.8643 14.212 15.7667C14.212 15.608 14.1631 15.4555 14.0289 15.3884C13.8276 15.2968 13.614 15.4677 13.4492 15.6202C12.4669 16.5538 11.4296 17.3836 10.2947 17.9816C9.26349 18.5246 8.15909 18.8907 6.93265 18.9762C6.34689 19.0189 5.60249 20.6419 5.55977 21.2338C5.54147 21.4229 5.11435 24.5531 1.40452 24.4494H1.39232Z" fill="#603813"/>
    </g>
    <g style="mix-blend-mode:multiply" opacity="0.3">
        <path d="M4.8824 7.64547C5.40105 8.13361 6.10274 8.36547 6.75562 8.65225C6.81664 8.67666 6.87155 8.70106 6.93867 8.73767C6.90206 8.76208 6.85935 8.79259 6.82274 8.817C6.88986 8.8292 6.95697 8.817 7.01799 8.76818C7.0485 8.74378 7.07901 8.71327 7.10341 8.65835C7.11562 8.64005 7.12172 8.62174 7.12172 8.60344C7.20714 8.41429 7.14002 8.17632 7.01189 7.99937C6.87155 7.81022 6.67629 7.66988 6.49934 7.52344C5.73053 6.87056 5.30952 5.90039 5.06545 4.92412C4.82748 3.94785 4.74816 2.94108 4.5224 1.95871C4.5102 1.91599 4.5041 1.87938 4.4919 1.84277C4.36986 2.53837 4.18681 3.23396 4.06477 3.92955C3.83901 5.23531 3.91223 6.74853 4.8763 7.65158L4.8824 7.64547Z" fill="#603813"/>
    </g>
    <path d="M9.06815 14.3572C9.39154 14.2839 9.74543 14.3267 10.0749 14.3633C10.4776 14.4121 10.4776 14.9429 10.0749 14.9917C9.75153 15.0284 9.39154 15.0711 9.06815 14.9978C8.75086 14.9246 8.75086 14.4243 9.06815 14.3572Z" fill="#333333"/>
    <path d="M5.18754 12.4901C5.18754 12.4901 5.21805 12.484 5.23025 12.4779C5.35229 12.4535 5.49872 12.4779 5.58415 12.5694C5.7916 12.8074 5.88313 13.0636 5.90144 13.3809C5.91974 13.747 5.33398 13.8325 5.25466 13.4664C5.19974 13.2162 4.94347 13.027 4.97398 12.7708C4.98618 12.6426 5.0533 12.5145 5.19364 12.484L5.18754 12.4901Z" fill="#333333"/>
</svg>
