<svg width="85" height="94" viewBox="0 0 85 94" fill="none" xmlns="http://www.w3.org/2000/svg">
    <defs>
        <linearGradient id="paint0_linear_245_12607" x1="57.9301" y1="57.8866" x2="64.1716" y2="68.7641" gradientUnits="userSpaceOnUse">
            <stop stop-color="#948D80"/>
            <stop offset="0.59" stop-color="#928B7E"/>
            <stop offset="0.81" stop-color="#8B8477"/>
            <stop offset="0.96" stop-color="#7F796C"/>
            <stop offset="1" stop-color="#7B7568"/>
        </linearGradient>
        <linearGradient id="paint1_linear_245_12607" x1="19.8325" y1="68.6689" x2="26.0849" y2="57.7503" gradientUnits="userSpaceOnUse">
            <stop stop-color="#989284"/>
            <stop offset="0.07" stop-color="#A6A092"/>
            <stop offset="0.17" stop-color="#B7B1A3"/>
            <stop offset="0.3" stop-color="#C3BDAF"/>
            <stop offset="0.49" stop-color="#CAC4B6"/>
            <stop offset="1" stop-color="#CCC6B8"/>
        </linearGradient>
        <linearGradient id="paint2_linear_245_12607" x1="22.1896" y1="39.7004" x2="25.6493" y2="33.6586" gradientUnits="userSpaceOnUse">
            <stop stop-color="#989284"/>
            <stop offset="0.07" stop-color="#A6A092"/>
            <stop offset="0.17" stop-color="#B7B1A3"/>
            <stop offset="0.3" stop-color="#C3BDAF"/>
            <stop offset="0.49" stop-color="#CAC4B6"/>
            <stop offset="1" stop-color="#CCC6B8"/>
        </linearGradient>
        <linearGradient id="paint3_linear_245_12607" x1="36.0252" y1="47.6548" x2="39.4873" y2="41.6089" gradientUnits="userSpaceOnUse">
            <stop stop-color="#989284"/>
            <stop offset="0.07" stop-color="#A6A092"/>
            <stop offset="0.17" stop-color="#B7B1A3"/>
            <stop offset="0.3" stop-color="#C3BDAF"/>
            <stop offset="0.49" stop-color="#CAC4B6"/>
            <stop offset="1" stop-color="#CCC6B8"/>
        </linearGradient>
        <linearGradient id="paint4_linear_245_12607" x1="6.48843" y1="65.5668" x2="3.096" y2="71.479" gradientUnits="userSpaceOnUse">
            <stop stop-color="#8D8168"/>
            <stop offset="0.6" stop-color="#8B7F66"/>
            <stop offset="0.81" stop-color="#847961"/>
            <stop offset="0.97" stop-color="#786E59"/>
            <stop offset="1" stop-color="#756B57"/>
        </linearGradient>
        <linearGradient id="paint5_linear_245_12607" x1="35.8463" y1="82.4378" x2="32.4522" y2="88.3528" gradientUnits="userSpaceOnUse">
            <stop stop-color="#8D8168"/>
            <stop offset="0.6" stop-color="#8B7F66"/>
            <stop offset="0.81" stop-color="#847961"/>
            <stop offset="0.97" stop-color="#786E59"/>
            <stop offset="1" stop-color="#756B57"/>
        </linearGradient>
        <linearGradient id="paint6_linear_245_12607" x1="50.7603" y1="38.288" x2="54.1892" y2="44.1393" gradientUnits="userSpaceOnUse">
            <stop stop-color="#948D80"/>
            <stop offset="0.45" stop-color="#918A7D"/>
            <stop offset="0.69" stop-color="#898275"/>
            <stop offset="0.89" stop-color="#7C7568"/>
            <stop offset="1" stop-color="#706A5C"/>
        </linearGradient>
        <linearGradient id="paint7_linear_245_12607" x1="33.6622" y1="16.7597" x2="35.7858" y2="20.3244" gradientUnits="userSpaceOnUse">
            <stop stop-color="#948D80"/>
            <stop offset="0.45" stop-color="#918A7D"/>
            <stop offset="0.69" stop-color="#898275"/>
            <stop offset="0.89" stop-color="#7C7568"/>
            <stop offset="1" stop-color="#706A5C"/>
        </linearGradient>
        <linearGradient id="paint8_linear_245_12607" x1="10.1338" y1="33.7849" x2="12.3158" y2="37.4543" gradientUnits="userSpaceOnUse">
            <stop stop-color="#948D80"/>
            <stop offset="0.45" stop-color="#918A7D"/>
            <stop offset="0.69" stop-color="#898275"/>
            <stop offset="0.89" stop-color="#7C7568"/>
            <stop offset="1" stop-color="#706A5C"/>
        </linearGradient>
        <linearGradient id="paint9_linear_245_12607" x1="14.4455" y1="31.5042" x2="16.5105" y2="34.976" gradientUnits="userSpaceOnUse">
            <stop stop-color="#948D80"/>
            <stop offset="0.45" stop-color="#918A7D"/>
            <stop offset="0.69" stop-color="#898275"/>
            <stop offset="0.89" stop-color="#7C7568"/>
            <stop offset="1" stop-color="#706A5C"/>
        </linearGradient>
    </defs>
    <path fill-rule="evenodd" clip-rule="evenodd" d="M68.1655 63.709L72.8764 61.0015V60.0242L72.4463 59.7772V54.7613L72.0162 54.5144L67.3054 57.2216V63.2152L68.1652 63.7093L68.1655 63.709ZM50.9656 73.5942L55.6768 70.8871V69.9094L55.2464 69.6625V64.6466L54.8163 64.3996L50.1054 67.1071V73.1004L50.9653 73.5942H50.9656ZM42.0003 77.5862L46.0574 75.2542V73.1305L45.8424 73.0067L44.3579 73.8598V71.983L44.1428 71.8592L42.0003 73.0907V70.2016L44.3579 68.847V66.7226L44.1428 66.5991L42.0003 67.8303V66.9975L56.4477 58.6941V60.8185L56.6624 60.942L60.7195 58.6104V56.4867L60.5048 56.3629L80.122 45.0881V50.215L76.28 52.4228V54.5469L76.495 54.6707L77.9795 53.8172V55.6944L78.1946 55.8178L80.1217 54.7101V59.5895L62.3968 69.7766V67.8998L64.4253 66.734V64.6099L64.2103 64.4864L60.1536 66.818V68.9421L58.125 70.1079V72.2317L42 81.4996V77.5862H42.0003Z" fill="url(#paint0_linear_245_12607)"/>
    <path opacity="0.03" d="M67.1723 57.0881L72.6527 53.9379L73.022 54.1309L73.3503 54.3024L73.9152 54.6271V60.3541V60.9171V62.0362L68.8583 64.9422L68.735 64.8779L68.3028 64.6517L67.1723 64.0023V57.0881Z" fill="#221E1F"/>
    <path opacity="0.04" d="M67.1806 57.0964L72.5797 53.9929L72.9435 54.1637L73.2669 54.3159L73.8235 54.6354V60.3178V60.8767V61.9871L68.8416 64.8499L68.72 64.7928L68.2941 64.5929L67.1806 63.9532V57.0964Z" fill="#221E1F"/>
    <path opacity="0.06" d="M67.189 57.1047L72.5068 54.0482L72.8653 54.1969L73.1835 54.329L73.7318 54.6441V60.2818V60.8362V61.938L68.8249 64.7576L68.7051 64.7081L68.2854 64.5338L67.189 63.9037V57.1047Z" fill="#221E1F"/>
    <path opacity="0.08" d="M67.1973 57.113L72.4338 54.1032L72.7868 54.2298L73.1002 54.3422L73.6397 54.6524V60.2459V60.7957V61.8885L68.8079 64.6652L68.6901 64.623L68.2771 64.475L67.1973 63.8546V57.113Z" fill="#221E1F"/>
    <path opacity="0.1" d="M67.2057 57.1213L72.3609 54.1582L72.7083 54.2626L73.0168 54.3553L73.548 54.6607V60.2095V60.7553V61.8394L68.7912 64.5729L68.6752 64.538L68.2684 64.4159L67.2057 63.8051V57.1213Z" fill="#221E1F"/>
    <path opacity="0.11" d="M67.214 57.1296L72.2879 54.2135L72.6298 54.2955L72.9334 54.3684L73.4563 54.669V61.7903L68.7746 64.4805L68.6603 64.4532L68.26 64.3571L67.214 63.756V57.1296Z" fill="#221E1F"/>
    <path opacity="0.13" d="M67.2223 57.1379L72.215 54.2685L72.5516 54.3283L72.8504 54.3816L73.3649 54.6773V61.7409L68.7582 64.3879L68.6457 64.3682L68.2517 64.298L67.2227 63.7066V57.1375L67.2223 57.1379Z" fill="#221E1F"/>
    <path opacity="0.15" d="M67.2307 57.1462L72.1417 54.3235L72.4727 54.3612L72.7667 54.3947L73.2725 54.6856V61.6918L68.7409 64.2959L68.63 64.2834L68.2427 64.2392L67.2307 63.6578V57.1462Z" fill="#221E1F"/>
    <path opacity="0.16" d="M67.239 57.1545L72.0687 54.3788L72.3942 54.3944L72.6833 54.4082L73.1808 54.6942V61.6427L68.7242 64.2035L68.6151 64.1987L68.234 64.1804L67.2387 63.6087V57.1548L67.239 57.1545Z" fill="#221E1F"/>
    <path opacity="0.18" d="M67.2473 57.1628L71.9957 54.4338L72.3161 54.4272L72.6002 54.4214L73.0894 54.7025V61.5936L68.7079 64.1112L68.6005 64.1136L68.2256 64.1212L67.2473 63.5593V57.1628Z" fill="#221E1F"/>
    <path opacity="0.2" d="M67.2557 57.1711L71.9228 54.4888L72.2375 54.4597L72.5169 54.4342L72.9973 54.7101V61.5434L68.6908 64.0182L68.5852 64.0282L68.217 64.0621L67.2557 63.5098V57.1707V57.1711Z" fill="#221E1F"/>
    <path opacity="0.21" d="M67.264 57.1794L71.8495 54.5441L72.1587 54.4929L72.4331 54.4476L72.9053 54.7188V61.4946L68.6738 63.9262L68.5703 63.9435L68.2083 64.0033L67.2637 63.4607V57.1794H67.264Z" fill="#221E1F"/>
    <path opacity="0.23" d="M67.2724 57.1877L71.7765 54.5991L72.0805 54.5258L72.3501 54.4611L72.8139 54.7274V61.4455L68.6575 63.8338L68.5557 63.8587L68.2003 63.9445L67.2727 63.4116V57.1877H67.2724Z" fill="#221E1F"/>
    <path opacity="0.25" d="M67.2807 57.196L71.7036 54.6541L72.002 54.5587L72.2667 54.4743L72.7218 54.7357V61.3964L68.6405 63.7415L68.5404 63.7737L68.1913 63.8854L67.2807 63.3621V57.196Z" fill="#221E1F"/>
    <path opacity="0.27" d="M67.289 57.2043L71.6306 54.7091L71.9235 54.5915L72.1833 54.4874L72.6301 54.744V61.3473L68.6238 63.6495L68.5255 63.6889L68.1826 63.8266L67.289 63.313V57.2043Z" fill="#221E1F"/>
    <path opacity="0.28" d="M67.2974 57.2126L71.5577 54.7644L71.8453 54.6247L72.1 54.5009L72.5384 54.7527V61.2982L68.6071 63.5572L68.5105 63.6042L68.1742 63.7678L67.2974 63.2639V57.2126Z" fill="#221E1F"/>
    <path opacity="0.3" d="M72.0166 54.5137L71.7665 54.6572L67.3057 57.2209V57.2212V63.2145L68.1656 63.7087L68.4956 63.5188L72.4463 61.2488V60.2701V59.7766V54.7606L72.0166 54.5137Z" fill="#221E1F"/>
    <path opacity="0.03" d="M49.972 66.9729L55.4528 63.8231L55.8221 64.0161L56.15 64.1876L56.7153 64.5124V70.239V70.8023V71.9214L51.6584 74.8275L51.535 74.7628L51.1025 74.537L49.972 73.8875V66.9729Z" fill="#221E1F"/>
    <path opacity="0.04" d="M49.9804 66.9812L55.3798 63.8781L55.7435 64.0489L56.0666 64.2008L56.6232 64.5207V70.203V70.7619V71.8723L51.6413 74.7351L51.5201 74.6781L51.0942 74.4778L49.9804 73.838V66.9812Z" fill="#221E1F"/>
    <path opacity="0.06" d="M49.9887 66.9896L55.3069 63.9331L55.665 64.0818L55.9833 64.2143L56.5315 64.529V70.167V70.7214V71.8229L51.6247 74.6428L51.5051 74.593L51.0855 74.419L49.9887 73.7889V66.9896Z" fill="#221E1F"/>
    <path opacity="0.08" d="M49.997 66.9978L55.2336 63.9884L55.5865 64.1147L55.8999 64.2274L56.4398 64.5373V70.1307V70.681V71.7738L51.608 74.5505L51.4899 74.5083L51.0768 74.3599L49.997 73.7398V66.9978Z" fill="#221E1F"/>
    <path opacity="0.1" d="M50.0054 67.0061L55.1606 64.0434L55.508 64.1479L55.8165 64.2405L56.348 64.5456V70.0948V70.6405V71.7247L51.5913 74.4578L51.4749 74.4232L51.0684 74.3011L50.0054 73.6904V67.0061Z" fill="#221E1F"/>
    <path opacity="0.11" d="M50.0137 67.0144L55.0876 64.0984L55.4295 64.1804L55.7331 64.2533L56.256 64.5539V71.6752L51.5743 74.3654L51.46 74.3381L51.0598 74.242L50.0137 73.6409V67.0144Z" fill="#221E1F"/>
    <path opacity="0.13" d="M50.022 67.0227L55.0147 64.1534L55.3513 64.2132L55.6501 64.2665L56.1646 64.5622V71.6258L51.5579 74.2727L51.4454 74.253L51.0514 74.1828L50.0224 73.5915V67.0224L50.022 67.0227Z" fill="#221E1F"/>
    <path opacity="0.15" d="M50.0304 67.031L54.9414 64.2084L55.2725 64.2461L55.5664 64.2796L56.0722 64.5705V71.5766L51.5406 74.1808L51.4298 74.1683L51.0424 74.124L50.0304 73.5427V67.031Z" fill="#221E1F"/>
    <path opacity="0.16" d="M50.0387 67.0394L54.8684 64.2637L55.1939 64.2793L55.483 64.2931L55.9805 64.5791V71.5275L51.5239 74.0884L51.4148 74.0836L51.0337 74.0653L50.0384 73.4936V67.0397L50.0387 67.0394Z" fill="#221E1F"/>
    <path opacity="0.18" d="M50.0471 67.048L54.7955 64.319L55.1158 64.3125L55.4 64.3066L55.8891 64.5878V71.4788L51.5076 73.9964L51.4002 73.9989L51.0254 74.0065L50.0471 73.4445V67.048Z" fill="#221E1F"/>
    <path opacity="0.2" d="M50.0554 67.0563L54.7225 64.374L55.0373 64.345L55.3166 64.3194L55.797 64.5954V71.4286L51.4906 73.9034L51.3849 73.9134L51.0167 73.9473L50.0554 73.395V67.056V67.0563Z" fill="#221E1F"/>
    <path opacity="0.21" d="M50.0637 67.0646L54.6492 64.4294L54.9584 64.3782L55.2329 64.3329L55.705 64.604V71.3799L51.4735 73.8114L51.37 73.8287L51.008 73.8885L50.0634 73.3459V67.0646H50.0637Z" fill="#221E1F"/>
    <path opacity="0.23" d="M50.0721 67.0729L54.5762 64.4843L54.8802 64.411L55.1498 64.3464L55.6136 64.6126V71.3308L51.4572 73.7191L51.3554 73.744L51 73.8297L50.0724 73.2968V67.0729H50.0721Z" fill="#221E1F"/>
    <path opacity="0.25" d="M50.0804 67.0812L54.5033 64.5393L54.8017 64.4439L55.0664 64.3595L55.5216 64.621V71.2817L51.4402 73.6267L51.3401 73.6589L50.991 73.7706L50.0804 73.2474V67.0812Z" fill="#221E1F"/>
    <path opacity="0.27" d="M50.0888 67.0895L54.4303 64.5943L54.7232 64.4767L54.9831 64.3726L55.4298 64.6293V71.2325L51.4235 73.5347L51.3252 73.5742L50.9823 73.7118L50.0888 73.1983V67.0895Z" fill="#221E1F"/>
    <path opacity="0.28" d="M50.0971 67.0978L54.3574 64.6497L54.645 64.5099L54.8997 64.3861L55.3381 64.6379V71.1834L51.4068 73.4424L51.3102 73.4894L50.974 73.653L50.0971 73.1491V67.0978Z" fill="#221E1F"/>
    <path opacity="0.3" d="M54.8163 64.3989L54.5665 64.5424L50.1054 67.1061V67.1064V73.0997L50.9656 73.5935L51.2953 73.404L55.2464 71.1336V70.1553V69.6618V64.6458L54.8163 64.3989Z" fill="#221E1F"/>
    <path fill-rule="evenodd" clip-rule="evenodd" d="M3.87764 48.6979L7.71965 50.9063V53.0308L7.5046 53.1542L6.02012 52.3011V54.1779L5.80507 54.3017L3.87764 53.194V59.5901L18.069 67.7466V63.0706L19.2485 62.3928L21.0102 61.3802L24.8675 63.5969L26.9485 67.1849V72.8497L42 81.4999V77.5865L35.5851 73.8999V71.7755L35.8001 71.652L37.9426 72.8832V71.0064L38.1573 70.8826L41.9996 73.091V70.202L37.9426 67.8704V65.7463L38.1573 65.6225L41.9996 67.831V66.9982L3.87764 45.0877V48.6979ZM28.3232 69.9094L28.7533 69.6625V64.6465L29.1833 64.3996L33.8942 67.1068V73.1004L33.0344 73.5946L28.3235 70.8874V69.9097L28.3232 69.9094ZM18.0812 56.0762L18.2962 55.9524L20.1097 56.9943V55.1175L20.3247 54.9937L24.3814 57.3256V59.4494L26.41 60.6152V62.7396L26.1953 62.8634L18.0808 58.1996V56.0758L18.0812 56.0762ZM11.1232 60.0245L11.5533 59.7772V54.7617L11.9834 54.5144L16.6943 57.2219V63.2151L15.8341 63.7097L11.1236 61.0022V60.0249L11.1232 60.0245Z" fill="url(#paint1_linear_245_12607)"/>
    <path fill-rule="evenodd" clip-rule="evenodd" d="M26.6928 37.6779L29.0861 36.3026L29.6332 35.9879L21.1245 31.0975V39.1536L26.6928 42.3543V37.6779Z" fill="url(#paint2_linear_245_12607)"/>
    <path fill-rule="evenodd" clip-rule="evenodd" d="M33.4905 38.205L35.5715 41.793V47.457L42 51.1515V43.0951L33.4905 38.205Z" fill="url(#paint3_linear_245_12607)"/>
    <path fill-rule="evenodd" clip-rule="evenodd" d="M33.034 73.5942L33.8946 73.1V70.8812V67.1068L34.3243 68.053V73.0689L34.7544 74.0148V74.9921L30.0435 72.2849L29.7913 71.7305L33.034 73.5942Z" fill="#9B978C"/>
    <path fill-rule="evenodd" clip-rule="evenodd" d="M53.9057 6.99167V1.64858L56.775 0V1.06862L55.3729 1.87406V2.94268L56.775 2.13724V3.20551L55.3729 4.01129V5.07957L56.775 4.27413V5.34274L53.9057 6.99167Z" fill="#D97227"/>
    <path d="M46.9798 3.2975H42.9227V8.64059H46.9798V3.2975Z" fill="#E43125"/>
    <path fill-rule="evenodd" clip-rule="evenodd" d="M49.849 1.64857V6.99166L46.9798 8.64059V3.2975L49.849 1.64857Z" fill="#D97227"/>
    <path d="M53.9057 1.64857H49.849V6.99166H53.9057V1.64857Z" fill="#E43125"/>
    <path fill-rule="evenodd" clip-rule="evenodd" d="M37.9429 65.7456L42 68.0772V70.2016L37.9429 67.8697V65.7456Z" fill="#ADA699"/>
    <path fill-rule="evenodd" clip-rule="evenodd" d="M42 70.2016V68.0772L44.3572 66.7226V68.8467L42 70.2016Z" fill="#8F887B"/>
    <path fill-rule="evenodd" clip-rule="evenodd" d="M37.9429 65.7456L38.1576 65.6218L42 67.8303L44.1425 66.5988L44.3572 66.7226L42 68.0772L37.9429 65.7456Z" fill="#B0A99B"/>
    <path fill-rule="evenodd" clip-rule="evenodd" d="M7.50495 51.0298V53.1535L3.44789 50.8219V48.6979L7.50495 51.0298Z" fill="#A0998C"/>
    <path fill-rule="evenodd" clip-rule="evenodd" d="M7.50494 51.0298L7.71999 50.906V53.0304L7.50494 53.1535V51.0298Z" fill="#8F887B"/>
    <path fill-rule="evenodd" clip-rule="evenodd" d="M3.44789 48.6979L3.87764 48.4506V48.6979L7.71999 50.906L7.50495 51.0298L3.44789 48.6979Z" fill="#B0A99B"/>
    <path fill-rule="evenodd" clip-rule="evenodd" d="M3.44789 50.822L5.80542 52.1769V54.301L3.44789 52.9464V50.822Z" fill="#ADA699"/>
    <path fill-rule="evenodd" clip-rule="evenodd" d="M6.02047 52.3004V54.1775L5.80542 54.301V52.1769L6.02047 52.3004Z" fill="#8F887B"/>
    <path fill-rule="evenodd" clip-rule="evenodd" d="M60.1532 66.8177L64.2106 64.4857L64.4257 64.6095L60.3686 66.9411L60.1532 66.8177Z" fill="#B5A084"/>
    <path fill-rule="evenodd" clip-rule="evenodd" d="M60.3686 66.9411L64.4257 64.6095V66.7336L60.3686 69.0652V66.9411Z" fill="#8F887B"/>
    <path fill-rule="evenodd" clip-rule="evenodd" d="M60.3686 66.9411V69.0652L60.1532 68.9418V66.8177L60.3686 66.9411Z" fill="#6F6A67"/>
    <path fill-rule="evenodd" clip-rule="evenodd" d="M56.4477 58.6941L56.6624 58.8179V60.9417L56.4477 60.8185V58.6941Z" fill="#6F6A67"/>
    <path fill-rule="evenodd" clip-rule="evenodd" d="M56.6624 58.8179L60.7195 56.486V58.6101L56.6624 60.9417V58.8179Z" fill="#8F887B"/>
    <path fill-rule="evenodd" clip-rule="evenodd" d="M60.5045 56.3625L60.7195 56.486L56.6624 58.8179L56.4477 58.6941L60.5045 56.3625Z" fill="#B5A084"/>
    <path fill-rule="evenodd" clip-rule="evenodd" d="M24.1674 57.4491L24.3821 57.3256V59.4497L24.1674 59.5732V57.4491Z" fill="#8F887B"/>
    <path fill-rule="evenodd" clip-rule="evenodd" d="M24.1674 57.4491V59.5732L20.11 57.2416V55.1175L24.1674 57.4491Z" fill="#A0998C"/>
    <path fill-rule="evenodd" clip-rule="evenodd" d="M20.11 55.1175L20.3254 54.9937L24.3821 57.3256L24.1674 57.4491L20.11 55.1175Z" fill="#B0A99B"/>
    <path fill-rule="evenodd" clip-rule="evenodd" d="M80.122 50.2143V49.9674L80.5518 50.2143L76.4947 52.5463L76.28 52.4228L80.122 50.2143Z" fill="#B5A084"/>
    <path fill-rule="evenodd" clip-rule="evenodd" d="M80.5518 50.2143V52.3384L76.4947 54.6704V52.5463L80.5518 50.2143Z" fill="#8F887B"/>
    <path fill-rule="evenodd" clip-rule="evenodd" d="M76.4947 52.5463V54.6704L76.28 54.5469V52.4228L76.4947 52.5463Z" fill="#6F6A67"/>
    <path fill-rule="evenodd" clip-rule="evenodd" d="M35.5715 41.793V47.457L34.7117 47.9516V42.2868L35.5715 41.793Z" fill="#B5A084"/>
    <path fill-rule="evenodd" clip-rule="evenodd" d="M50.0822 38.4498L50.5122 38.6975V43.713L50.942 43.9603V44.9376L50.0822 44.4434V38.4498Z" fill="#C8B396"/>
    <path fill-rule="evenodd" clip-rule="evenodd" d="M29.6041 66.1122L31.3237 67.1013V69.1621L29.6041 70.1508V66.1122Z" fill="#B5A084"/>
    <path fill-rule="evenodd" clip-rule="evenodd" d="M12.4038 60.2656V56.2273L14.1242 57.2157V59.2772L12.4038 60.2656Z" fill="#B5A084"/>
    <path fill-rule="evenodd" clip-rule="evenodd" d="M33.034 72.6169V73.5942L28.3235 70.8871V69.9094L33.034 72.6169Z" fill="#D8C3A4"/>
    <path fill-rule="evenodd" clip-rule="evenodd" d="M67.7355 62.4844V57.4681L72.4463 54.761V59.7766L71.5959 60.2656V56.2273L68.5859 57.9571V61.9954L67.7355 62.4844Z" fill="#B5A084"/>
    <path fill-rule="evenodd" clip-rule="evenodd" d="M18.069 63.0696L19.8168 64.9066V69.7386L18.069 68.7343V63.0696Z" fill="#D8C3A4"/>
    <path fill-rule="evenodd" clip-rule="evenodd" d="M71.5959 56.2273V60.2656L69.8758 59.2772V57.2157L71.5959 56.2273Z" fill="#C8B396"/>
    <path fill-rule="evenodd" clip-rule="evenodd" d="M28.7734 36.4821L32.6307 38.6988L31.907 40.2921L29.4974 38.907L28.7734 36.4821Z" fill="#D8C3A4"/>
    <path fill-rule="evenodd" clip-rule="evenodd" d="M50.5355 72.3693L51.3856 71.8806V69.9035L52.6759 69.1621L54.3959 70.1508L55.2464 69.6621L55.6761 69.9094L50.9656 72.6169L50.5355 72.3693Z" fill="#C8B396"/>
    <path fill-rule="evenodd" clip-rule="evenodd" d="M42 82.4876V84.1037L27.8083 75.9476V74.3315L42 82.4876Z" fill="#8D8168"/>
    <path fill-rule="evenodd" clip-rule="evenodd" d="M11.5533 54.761L16.2645 57.4681V62.4844L15.4137 61.9954V57.9571L12.4038 56.2273V60.2656L11.5533 59.7766V54.761Z" fill="#D8C3A4"/>
    <path fill-rule="evenodd" clip-rule="evenodd" d="M68.5859 61.9954V60.0186L69.8758 59.2772L71.5959 60.2656L72.4463 59.7766L72.8764 60.0242L68.1655 62.7313L67.7355 62.4844L68.5859 61.9954Z" fill="#C8B396"/>
    <path fill-rule="evenodd" clip-rule="evenodd" d="M50.5355 67.3537L55.2464 64.6462V69.6621L54.3959 70.1508V66.1122L51.3856 67.8424V71.8806L50.5355 72.3693V67.3537Z" fill="#B5A084"/>
    <path fill-rule="evenodd" clip-rule="evenodd" d="M50.9656 73.5942V72.6169L55.6762 69.9094V70.8871L50.9656 73.5942Z" fill="#B5A084"/>
    <path fill-rule="evenodd" clip-rule="evenodd" d="M26.0886 67.6785L26.9485 67.1839V72.8486L26.0886 73.3432V67.6785Z" fill="#B5A084"/>
    <path fill-rule="evenodd" clip-rule="evenodd" d="M26.0886 73.3432L24.5096 74.2503L24.3408 72.3385L26.0886 73.3432Z" fill="#9F937A"/>
    <path fill-rule="evenodd" clip-rule="evenodd" d="M80.122 58.6229V58.6007L80.9819 59.0953L80.122 58.6229Z" fill="#9F937A"/>
    <path fill-rule="evenodd" clip-rule="evenodd" d="M80.122 58.6395V58.6229L80.9819 59.0953L80.122 58.6395Z" fill="#696150"/>
    <path fill-rule="evenodd" clip-rule="evenodd" d="M80.122 58.6488V58.6395L80.9819 59.0953L80.122 58.6488Z" fill="#696150"/>
    <path fill-rule="evenodd" clip-rule="evenodd" d="M80.9819 59.0953L80.122 59.5895V58.6488L80.9819 59.0953Z" fill="#696150"/>
    <path fill-rule="evenodd" clip-rule="evenodd" d="M24.3408 72.3385V67.5062L24.181 67.2306L19.8168 69.7386L18.069 68.7343V68.0751V67.7459L3.87764 59.5895V58.6007L2.15796 59.5895L16.3493 67.7459L14.7703 68.653L16.4904 69.6414L24.5096 74.2503L24.3408 72.3385Z" fill="#9F937A"/>
    <path fill-rule="evenodd" clip-rule="evenodd" d="M56.0448 19.8673L59.0544 18.1371L63.5405 20.7149L59.0544 23.2934L56.0448 21.5633L57.5206 20.7149L56.0448 19.8673Z" fill="#DFD5C1"/>
    <path fill-rule="evenodd" clip-rule="evenodd" d="M23.5213 42.4234L27.7114 44.8311L24.7011 46.561L20.5116 44.1533L23.5213 42.4234Z" fill="#DFD5C1"/>
    <path fill-rule="evenodd" clip-rule="evenodd" d="M42 85.919L84.9996 61.2055V69.2866L42 94V85.919Z" fill="#766B53"/>
    <path fill-rule="evenodd" clip-rule="evenodd" d="M73.0467 37.6714L76.4867 39.6481L72.2973 42.0558V40.0791L71.8672 39.3376L71.0074 38.8434L73.0467 37.6714Z" fill="#DFD5C1"/>
    <path fill-rule="evenodd" clip-rule="evenodd" d="M37.5142 10.9137L41.0769 8.86572V12.3258L40.5239 12.6436L37.5142 10.9137Z" fill="#DFD5C1"/>
    <path fill-rule="evenodd" clip-rule="evenodd" d="M42.9227 12.3258V8.86572L46.4861 10.9137L43.4758 12.6436L42.9227 12.3258Z" fill="#DFD5C1"/>
    <path fill-rule="evenodd" clip-rule="evenodd" d="M11.7024 40.0791L12.1325 39.3376L16.3219 41.7456L15.8921 42.4867L11.7024 40.0791Z" fill="#F2E6CB"/>
    <path fill-rule="evenodd" clip-rule="evenodd" d="M56.0448 24.0349L59.4845 26.0117L55.295 28.4197V26.4426L54.8649 25.7011L54.0048 25.2069L56.0448 24.0349Z" fill="#DFD5C1"/>
    <path fill-rule="evenodd" clip-rule="evenodd" d="M43.4758 15.1149V12.6436L46.4861 10.9137L46.9159 11.1607V13.1378L43.4758 15.1149Z" fill="#9D968A"/>
    <path fill-rule="evenodd" clip-rule="evenodd" d="M46.9159 13.1378L48.9555 14.3098L47.6656 15.0513V17.5226L43.4758 15.1149L46.9159 13.1378Z" fill="#DFD5C1"/>
    <path fill-rule="evenodd" clip-rule="evenodd" d="M28.6292 24.4222L41.0769 17.2684V23.3031L38.4238 24.8276V25.6579L42 27.7132L45.5759 25.6579V24.8276L42.9227 23.3031V17.2684L55.3704 24.4222L54.0048 25.2069L51.855 23.9713L47.6656 26.3793V28.8506L45.6256 30.023L43.4758 28.787L42 29.6353L40.5239 28.787L38.3741 30.023L36.3344 28.8506V26.3793L32.145 23.9716L29.9949 25.2069L28.6292 24.4222Z" fill="#756E5F"/>
    <path fill-rule="evenodd" clip-rule="evenodd" d="M12.1324 39.3376L15.1424 37.6074L19.3318 40.0158L16.3219 41.7456L12.1324 39.3376Z" fill="#DFD5C1"/>
    <path fill-rule="evenodd" clip-rule="evenodd" d="M51.855 19.9302L55.295 17.9535L57.3343 19.1258L56.0447 19.8673V21.4854V22.3383L51.855 19.9302Z" fill="#DFD5C1"/>
    <path fill-rule="evenodd" clip-rule="evenodd" d="M7.94303 31.4931L10.953 33.2229L9.23297 34.2113L10.953 35.1997L7.94303 36.9299L3.21304 34.2113L7.94303 31.4931Z" fill="#DFD5C1"/>
    <path fill-rule="evenodd" clip-rule="evenodd" d="M26.2297 75.239L27.8083 74.3315V75.9476L26.2297 76.8554V84.9364L18.3348 89.4737V87.8573L26.2297 75.239Z" fill="#766B53"/>
    <path fill-rule="evenodd" clip-rule="evenodd" d="M16.6151 86.869V88.4854L8.59581 83.8765V82.2601L16.6151 86.869Z" fill="#8D8168"/>
    <path fill-rule="evenodd" clip-rule="evenodd" d="M28.4402 44.347V39.515L29.4974 38.907L31.0201 39.7827V42.8644L28.4402 44.347Z" fill="#B5A084"/>
    <path fill-rule="evenodd" clip-rule="evenodd" d="M11.5533 54.761L11.9834 54.5137L16.6943 57.2212L16.2645 57.4681L11.5533 54.761Z" fill="#DFD5C1"/>
    <path fill-rule="evenodd" clip-rule="evenodd" d="M-1 61.2055L3.87764 58.4022V58.6007L2.15796 59.5895V61.2055L14.9433 68.5537L14.7703 68.653L14.0269 69.842L-1 61.2055Z" fill="#9F937A"/>
    <path fill-rule="evenodd" clip-rule="evenodd" d="M26.2297 76.8554L27.8083 75.9476L42 84.1037L48.2343 80.5209L56.2886 75.8916L59.8176 73.8636L81.842 61.2055V59.5895L80.122 58.6007V58.4022L84.9996 61.2055L42 85.919L26.2297 76.8554Z" fill="#9F937A"/>
    <path fill-rule="evenodd" clip-rule="evenodd" d="M8.59581 82.2601L10.1748 79.7362V81.3526L8.59581 82.2601Z" fill="#766B53"/>
    <path fill-rule="evenodd" clip-rule="evenodd" d="M56.0448 21.5633L59.0544 23.2935L59.4845 24.0349V26.0117L56.0448 24.0349V21.5633Z" fill="#CCC6B8"/>
    <path fill-rule="evenodd" clip-rule="evenodd" d="M2.15796 59.5895L16.3493 67.7459L14.9433 68.5538L2.15796 61.2055V59.5895Z" fill="#8D8168"/>
    <path fill-rule="evenodd" clip-rule="evenodd" d="M47.9094 52.1185L51.3495 54.0952L47.1601 56.5029V54.5262L46.7296 53.7847L45.8698 53.2905L47.9094 52.1185Z" fill="#DFD5C1"/>
    <path fill-rule="evenodd" clip-rule="evenodd" d="M10.1748 79.7362L11.7534 77.2123V78.8287L10.1748 79.7362Z" fill="#766B53"/>
    <path fill-rule="evenodd" clip-rule="evenodd" d="M16.4904 69.6414V71.2578L14.9114 72.1653L16.4904 69.6414Z" fill="#766B53"/>
    <path fill-rule="evenodd" clip-rule="evenodd" d="M8.59582 82.2601V83.8765L6.87579 82.8874V81.2713L8.59582 82.2601Z" fill="#8D8168"/>
    <path fill-rule="evenodd" clip-rule="evenodd" d="M14.7703 68.653L16.4904 69.6414L8.59582 82.2601L6.87579 81.2713L14.7703 68.653Z" fill="#ADA084"/>
    <path fill-rule="evenodd" clip-rule="evenodd" d="M11.7534 77.2123L13.3324 74.6891V76.3052L11.7534 77.2123Z" fill="#766B53"/>
    <path fill-rule="evenodd" clip-rule="evenodd" d="M14.9114 72.1653V73.7813L13.3324 74.6891L14.9114 72.1653Z" fill="#766B53"/>
    <path fill-rule="evenodd" clip-rule="evenodd" d="M15.8341 62.7313L16.2645 62.4844V57.4681L16.6943 57.2212V63.2145L15.8341 63.709V62.7313Z" fill="#B5A084"/>
    <path fill-rule="evenodd" clip-rule="evenodd" d="M67.7355 57.4681V62.4844L68.1656 62.7313V63.709L67.3057 63.2145V57.2212L67.7355 57.4681Z" fill="#C8B396"/>
    <path fill-rule="evenodd" clip-rule="evenodd" d="M67.3057 57.2212L72.0166 54.5137L72.4463 54.761L67.7355 57.4681L67.3057 57.2212Z" fill="#C8B396"/>
    <path fill-rule="evenodd" clip-rule="evenodd" d="M33.034 72.6169L33.4641 72.3693V67.3537L33.8942 67.1064V73.1L33.034 73.5942V72.6169Z" fill="#B5A084"/>
    <path fill-rule="evenodd" clip-rule="evenodd" d="M28.7532 69.6621L29.6041 70.1508L31.3237 69.1621L32.614 69.9035V71.8806L33.4641 72.3693L33.034 72.6169L28.3235 69.9094L28.7532 69.6621Z" fill="#DFD5C1"/>
    <path fill-rule="evenodd" clip-rule="evenodd" d="M24.5096 74.2503L26.2297 75.239L18.3348 87.8573L16.6151 86.869L24.5096 74.2503Z" fill="#ADA084"/>
    <path fill-rule="evenodd" clip-rule="evenodd" d="M68.5859 57.9571L69.8758 57.2157V59.2772L68.5859 60.0186V57.9571Z" fill="#9D968A"/>
    <path fill-rule="evenodd" clip-rule="evenodd" d="M50.5355 67.3537V72.3693L50.9656 72.6169V73.5942L50.1054 73.1V67.1064L50.5355 67.3537Z" fill="#C8B396"/>
    <path fill-rule="evenodd" clip-rule="evenodd" d="M28.7533 64.6462L29.1833 64.3993L33.8942 67.1064L33.4641 67.3537L28.7533 64.6462Z" fill="#DFD5C1"/>
    <path d="M54.8658 25.7058L50.6758 28.1129L51.1057 28.8545L55.2957 26.4474L54.8658 25.7058Z" fill="#9B978C"/>
    <path fill-rule="evenodd" clip-rule="evenodd" d="M3.21305 34.2113L7.94304 36.9299L7.51294 37.6714L2.35286 34.7055L3.21305 34.2113Z" fill="#F2E6CB"/>
    <path fill-rule="evenodd" clip-rule="evenodd" d="M29.1347 25.7011L32.145 23.9716L36.3344 26.3793L33.3245 28.1091L29.1347 25.7011Z" fill="#DFD5C1"/>
    <path fill-rule="evenodd" clip-rule="evenodd" d="M60.4784 42.4234L63.488 44.1533L59.2986 46.561L56.2886 44.8311L60.4784 42.4234Z" fill="#DFD5C1"/>
    <path fill-rule="evenodd" clip-rule="evenodd" d="M19.5993 26.6197L42 39.4936V43.0951L21.1245 31.0975L19.5993 26.6197Z" fill="#B6B0A3"/>
    <path d="M33.4905 38.2068L32.6305 38.7009L34.7109 42.2892L35.5709 41.7952L33.4905 38.2068Z" fill="#C8B396"/>
    <path fill-rule="evenodd" clip-rule="evenodd" d="M24.5152 26.0117V24.0349L24.9453 23.2935L27.9549 21.5633V24.0349L24.5152 26.0117Z" fill="#9D968A"/>
    <path fill-rule="evenodd" clip-rule="evenodd" d="M42 34.0837L46.9159 31.2583V33.2354L51.1053 30.8277V28.8506L55.295 26.4426V28.4197L59.4845 26.0117V24.0349L64.4003 21.2095V26.6197L42 39.4936V34.0837Z" fill="#9D968A"/>
    <path fill-rule="evenodd" clip-rule="evenodd" d="M28.7046 26.4426L29.1347 25.7011L33.3245 28.1091L32.8944 28.8506L28.7046 26.4426Z" fill="#F2E6CB"/>
    <path fill-rule="evenodd" clip-rule="evenodd" d="M11.7024 31.3091L15.1424 33.2862L10.953 35.6939V33.223L9.66306 32.4815L11.7024 31.3091Z" fill="#DFD5C1"/>
    <path fill-rule="evenodd" clip-rule="evenodd" d="M50.0822 38.4498V44.4434L50.942 44.9376L55.6532 42.2305V41.2528L55.2228 41.0059V35.9896L54.793 35.7427L62.8755 31.0975V39.1536L42 51.1515V43.095L50.0822 38.4498Z" fill="#9D968A"/>
    <path fill-rule="evenodd" clip-rule="evenodd" d="M42 66.9975V63.396L81.6468 40.6099L80.122 45.0877L42 66.9975Z" fill="#9D968A"/>
    <path fill-rule="evenodd" clip-rule="evenodd" d="M54.8649 15.7291L55.295 15.9764V17.9535L51.855 19.9302V17.4589L54.8649 15.7291Z" fill="#9D968A"/>
    <path fill-rule="evenodd" clip-rule="evenodd" d="M19.5993 21.2095L24.5152 24.0349V26.0117L28.7046 28.4197V26.4426L32.8944 28.8506V30.8277L37.0838 33.2354V31.2583L42 34.0837V39.4936L19.5993 26.6197V21.2095Z" fill="#CCC6B8"/>
    <path fill-rule="evenodd" clip-rule="evenodd" d="M47.6656 26.3793L50.6755 28.1091L51.1053 28.8506V30.8277L47.6656 28.8506V26.3793Z" fill="#CCC6B8"/>
    <path fill-rule="evenodd" clip-rule="evenodd" d="M42 63.396V57.4917L47.1601 54.5262V56.5029L51.3495 54.0952V52.1185L55.5389 49.7101V51.6876L59.7287 49.2795V47.3024L63.9181 44.8948V46.8719L68.1075 44.4639V42.4867L72.2973 40.0791V42.0558L76.4867 39.6482V37.6714L81.6468 34.7055V40.6099L42 63.396Z" fill="#9D968A"/>
    <path fill-rule="evenodd" clip-rule="evenodd" d="M20.4592 20.7149L24.9453 23.2935L24.5152 24.0349L19.5993 21.2095L20.4592 20.7149Z" fill="#F2E6CB"/>
    <path fill-rule="evenodd" clip-rule="evenodd" d="M37.0838 31.2583L37.5142 30.5168L42 33.0953V34.0837L37.0838 31.2583Z" fill="#F2E6CB"/>
    <path fill-rule="evenodd" clip-rule="evenodd" d="M47.6656 15.0513L50.6755 13.3214L54.8649 15.7291L51.855 17.4589L47.6656 15.0513Z" fill="#DFD5C1"/>
    <path fill-rule="evenodd" clip-rule="evenodd" d="M51.855 23.9713L54.8649 25.7011L50.6755 28.1092L47.6656 26.3793L51.855 23.9713Z" fill="#DFD5C1"/>
    <path fill-rule="evenodd" clip-rule="evenodd" d="M11.7024 29.3324L12.1325 29.0847L15.1424 30.8149V33.2862L11.7024 31.3091V29.3324Z" fill="#CCC6B8"/>
    <path fill-rule="evenodd" clip-rule="evenodd" d="M33.3245 28.1091L36.3344 26.3793V28.8506L32.8944 30.8277V28.8506L33.3245 28.1091Z" fill="#9D968A"/>
    <path fill-rule="evenodd" clip-rule="evenodd" d="M40.28 52.0548L42 53.0432L43.7197 52.0548L46.7296 53.7847L42 56.5029L37.27 53.7847L40.28 52.0548Z" fill="#DFD5C1"/>
    <path fill-rule="evenodd" clip-rule="evenodd" d="M24.3408 67.5062L26.0886 67.6784V73.3432L24.3408 72.3385V67.5062Z" fill="#D8C3A4"/>
    <path fill-rule="evenodd" clip-rule="evenodd" d="M8.59581 82.2601L10.1748 81.3526L17.4503 85.5337L16.6151 86.869L8.59581 82.2601Z" fill="#9F937A"/>
    <path fill-rule="evenodd" clip-rule="evenodd" d="M14.9114 72.1653L22.9306 76.7741L22.1868 77.9628L14.9114 73.7813V72.1653Z" fill="#8D8168"/>
    <path fill-rule="evenodd" clip-rule="evenodd" d="M13.3324 76.3052V74.6891L21.3517 79.298L20.6079 80.4866L13.3324 76.3052Z" fill="#8D8168"/>
    <path fill-rule="evenodd" clip-rule="evenodd" d="M13.3324 74.6891L14.9114 73.7813L22.1869 77.9628L21.3517 79.298L13.3324 74.6891Z" fill="#9F937A"/>
    <path fill-rule="evenodd" clip-rule="evenodd" d="M11.1236 60.0242L11.5533 59.7766L12.4038 60.2656L14.1241 59.2772L15.4137 60.0186V61.9954L16.2645 62.4844L15.8341 62.7313L11.1236 60.0242Z" fill="#DFD5C1"/>
    <path fill-rule="evenodd" clip-rule="evenodd" d="M42 82.4876L81.842 59.5895V61.2055L42 84.1037V82.4876Z" fill="#766B53"/>
    <path fill-rule="evenodd" clip-rule="evenodd" d="M16.4904 71.2578V69.6414L24.5096 74.2503L23.7658 75.4392L16.4904 71.2578Z" fill="#8D8168"/>
    <path fill-rule="evenodd" clip-rule="evenodd" d="M19.7727 81.8212L19.0289 83.0105L11.7534 78.8287V77.2123L19.7727 81.8212Z" fill="#8D8168"/>
    <path fill-rule="evenodd" clip-rule="evenodd" d="M52.6759 69.1621V67.1013L54.3959 66.1122V70.1508L52.6759 69.1621Z" fill="#C8B396"/>
    <path fill-rule="evenodd" clip-rule="evenodd" d="M11.7534 77.2123L13.3324 76.3052L20.6079 80.4867L19.7727 81.8212L11.7534 77.2123Z" fill="#9F937A"/>
    <path fill-rule="evenodd" clip-rule="evenodd" d="M11.1236 60.0242L15.8341 62.7313V63.709L11.1236 61.0015V60.0242Z" fill="#D8C3A4"/>
    <path fill-rule="evenodd" clip-rule="evenodd" d="M18.3348 87.8573V89.4738L16.6151 88.4854V86.869L18.3348 87.8573Z" fill="#8D8168"/>
    <path fill-rule="evenodd" clip-rule="evenodd" d="M18.1937 84.3451L17.4503 85.5337L10.1748 81.3526V79.7362L18.1937 84.3451Z" fill="#8D8168"/>
    <path fill-rule="evenodd" clip-rule="evenodd" d="M-1 69.2866L10.3079 75.7858L14.0269 69.842L-1 61.2055V69.2866Z" fill="url(#paint4_linear_245_12607)"/>
    <path fill-rule="evenodd" clip-rule="evenodd" d="M26.2297 76.8554V84.9365L42 94V85.919L26.2297 76.8554Z" fill="url(#paint5_linear_245_12607)"/>
    <path fill-rule="evenodd" clip-rule="evenodd" d="M16.4904 71.2578L23.7658 75.4392L22.9306 76.7741L14.9114 72.1653L16.4904 71.2578Z" fill="#9F937A"/>
    <path fill-rule="evenodd" clip-rule="evenodd" d="M11.7534 78.8287L19.0289 83.0105L18.1937 84.3451L10.1748 79.7362L11.7534 78.8287Z" fill="#9F937A"/>
    <path fill-rule="evenodd" clip-rule="evenodd" d="M50.1054 67.1064L54.8163 64.3993L55.2464 64.6462L50.5355 67.3537L50.1054 67.1064Z" fill="#C8B396"/>
    <path fill-rule="evenodd" clip-rule="evenodd" d="M11.3831 37.9183L21.1245 32.3196V39.1536L26.6928 42.3543V43.3427L28.4402 44.347L31.0201 42.8644V39.7827L31.907 40.2921L32.9639 42.1146V46.9469L34.7117 47.9516L35.5715 47.457L42 51.1515L62.8755 39.1536V32.3196L64.9534 33.5138L69.855 36.3309L72.6169 37.9183L71.0074 38.8434L68.8572 37.6074L64.6678 40.0158V42.4867L62.6282 43.6588L60.4784 42.4234L56.2886 44.8311V47.3024L54.249 48.4748L52.0992 47.2391L47.9094 49.6472V52.1185L45.8698 53.2905L43.7197 52.0548L42 53.0432L40.28 52.0548L38.1298 53.2905L36.0906 52.1185V49.6472L31.9008 47.2391L29.7507 48.4748L27.7114 47.3024V44.8311L23.5213 42.4234L21.3718 43.6588L19.3318 42.4867V40.0158L15.1424 37.6074L12.9926 38.8434L11.3831 37.9183Z" fill="#756E5F"/>
    <path fill-rule="evenodd" clip-rule="evenodd" d="M51.3627 40.7531V39.1858L52.2225 38.6916V40.2585L51.3627 40.7531Z" fill="#756E5F"/>
    <path fill-rule="evenodd" clip-rule="evenodd" d="M54.3727 37.4559V41.4942L52.2225 40.2585V38.6916L54.3727 37.4559Z" fill="#C8B396"/>
    <path fill-rule="evenodd" clip-rule="evenodd" d="M23.2833 65.6837L24.0076 64.0905L26.0886 67.6785L24.3408 67.5062L23.2833 65.6837Z" fill="#D8C3A4"/>
    <path fill-rule="evenodd" clip-rule="evenodd" d="M20.1503 61.8737L21.0102 61.3795L24.8675 63.5963L24.0076 64.0904L20.1503 61.8737Z" fill="#DFD5C1"/>
    <path fill-rule="evenodd" clip-rule="evenodd" d="M18.069 63.0696L20.1503 61.8737L20.8743 64.2986L19.8168 64.9066L18.069 63.0696Z" fill="#D8C3A4"/>
    <path fill-rule="evenodd" clip-rule="evenodd" d="M28.7533 69.6621V64.6462L33.4641 67.3537V72.3693L32.614 71.8806V67.8424L29.6041 66.1122V70.1508L28.7533 69.6621Z" fill="#D8C3A4"/>
    <path d="M24.8681 63.5955L24.0082 64.0896L26.0892 67.6776L26.949 67.1834L24.8681 63.5955Z" fill="#C8B396"/>
    <path fill-rule="evenodd" clip-rule="evenodd" d="M72.8764 60.0242V61.0015L68.1656 63.709V62.7313L72.8764 60.0242Z" fill="#B5A084"/>
    <path fill-rule="evenodd" clip-rule="evenodd" d="M19.8168 69.7386V64.9066L20.8743 64.2986L23.2833 65.6837L24.181 67.2306L19.8168 69.7386Z" fill="#B5A084"/>
    <path fill-rule="evenodd" clip-rule="evenodd" d="M31.3237 68.3252V67.1013L32.3886 67.713L31.3237 68.3252Z" fill="#9B978C"/>
    <path fill-rule="evenodd" clip-rule="evenodd" d="M24.0076 64.0904L23.2833 65.6837L20.8743 64.2986L20.1503 61.8737L24.0076 64.0904Z" fill="#D8C3A4"/>
    <path fill-rule="evenodd" clip-rule="evenodd" d="M28.8908 48.9693L31.9008 47.2391L36.0906 49.6472L33.0806 51.377L28.8908 48.9693Z" fill="#DFD5C1"/>
    <path fill-rule="evenodd" clip-rule="evenodd" d="M56.2886 44.8311L59.2986 46.561L59.7287 47.3024V49.2795L56.2886 47.3024V44.8311Z" fill="#CCC6B8"/>
    <path fill-rule="evenodd" clip-rule="evenodd" d="M73.0467 35.1997L76.0566 36.9299L76.4867 37.6714V39.6481L73.0467 37.6714V35.1997Z" fill="#CCC6B8"/>
    <path fill-rule="evenodd" clip-rule="evenodd" d="M36.8399 54.5261L37.27 53.7847L42 56.5029V57.4916L36.8399 54.5261Z" fill="#F2E6CB"/>
    <path fill-rule="evenodd" clip-rule="evenodd" d="M32.6501 52.1185L28.4607 49.7101L28.8908 48.9693L33.0806 51.377L32.6501 52.1185Z" fill="#F2E6CB"/>
    <path fill-rule="evenodd" clip-rule="evenodd" d="M43.4758 12.6436V15.1149L47.6656 17.5226V15.0513L51.855 17.4589V19.9302L56.0448 22.3383V24.0349L55.3704 24.4222L42.9227 17.2684V12.3258L43.4758 12.6436Z" fill="#CCC6B8"/>
    <path fill-rule="evenodd" clip-rule="evenodd" d="M56.0448 19.8673L57.5206 20.7149L56.0448 21.5633V19.8673Z" fill="#CCC6B8"/>
    <path fill-rule="evenodd" clip-rule="evenodd" d="M18.0423 27.6654L19.6424 26.7459L20.7684 30.0531L19.3318 30.8786V28.4069L18.0423 27.6654Z" fill="#DFD5C1"/>
    <path fill-rule="evenodd" clip-rule="evenodd" d="M68.8572 33.2862L72.2973 31.3091L74.3369 32.4815L73.0467 33.223V35.6939L68.8572 33.2862Z" fill="#DFD5C1"/>
    <path fill-rule="evenodd" clip-rule="evenodd" d="M10.953 37.6714L12.9926 38.8434L12.1325 39.3376L11.7024 40.0791V42.0558L7.51294 39.6481L10.953 37.6714Z" fill="#DFD5C1"/>
    <path d="M63.4884 44.1517L59.2988 46.5596L59.7289 47.3011L63.9185 44.8933L63.4884 44.1517Z" fill="#B3AB9B"/>
    <path fill-rule="evenodd" clip-rule="evenodd" d="M71.8672 39.3376L72.2973 40.0791L68.1075 42.4867L67.6778 41.7456L71.8672 39.3376Z" fill="#B3AB9B"/>
    <path fill-rule="evenodd" clip-rule="evenodd" d="M76.0566 36.9299L80.7866 34.2113L81.6468 34.7055L76.4867 37.6714L76.0566 36.9299Z" fill="#B3AB9B"/>
    <path fill-rule="evenodd" clip-rule="evenodd" d="M42 56.5029L46.7296 53.7847L47.1601 54.5261L42 57.4916V56.5029Z" fill="#B3AB9B"/>
    <path fill-rule="evenodd" clip-rule="evenodd" d="M2.35286 40.6099L42 63.396V66.9975L3.87764 45.0877L2.35286 40.6099Z" fill="#B6B0A3"/>
    <path fill-rule="evenodd" clip-rule="evenodd" d="M2.35286 40.6099V34.7055L7.51294 37.6714V39.6482L11.7024 42.0558V40.0791L15.8921 42.4867V44.4639L20.0815 46.8719V44.8948L24.271 47.3024V49.2795L28.4607 51.6876V49.7101L32.6502 52.1185V54.0952L36.8399 56.5029V54.5262L42 57.4917V63.396L2.35286 40.6099Z" fill="#CCC6B8"/>
    <path fill-rule="evenodd" clip-rule="evenodd" d="M68.8572 30.8149L71.8672 29.0847L72.2973 29.3324V31.3091L68.8572 33.2862V30.8149Z" fill="#9D968A"/>
    <path fill-rule="evenodd" clip-rule="evenodd" d="M59.0544 23.2935L63.5405 20.7149L64.4003 21.2095L59.4845 24.0349L59.0544 23.2935Z" fill="#9B978C"/>
    <path fill-rule="evenodd" clip-rule="evenodd" d="M27.9549 19.8673V21.5633L26.4795 20.7149L27.9549 19.8673Z" fill="#9D968A"/>
    <path fill-rule="evenodd" clip-rule="evenodd" d="M32.145 19.9302V17.4589L36.3344 15.0513V17.5226L40.5239 15.1149V12.6436L41.0769 12.3258V17.2684L28.6292 24.4222L27.9549 24.0349V22.3383L32.145 19.9302Z" fill="#9D968A"/>
    <path fill-rule="evenodd" clip-rule="evenodd" d="M64.4003 26.6197L62.8755 31.0975L42 43.0951V39.4936L64.4003 26.6197Z" fill="#9D968A"/>
    <path fill-rule="evenodd" clip-rule="evenodd" d="M7.94303 36.9299L10.953 35.1997V37.6714L7.51294 39.6481V37.6714L7.94303 36.9299Z" fill="#9D968A"/>
    <path fill-rule="evenodd" clip-rule="evenodd" d="M67.6778 26.6771L71.8672 29.0847L68.8572 30.8149L64.6678 28.4069L67.6778 26.6771Z" fill="#DFD5C1"/>
    <path fill-rule="evenodd" clip-rule="evenodd" d="M24.9453 18.1371L27.9549 19.8673L26.4795 20.7149L27.9549 21.5633L24.9453 23.2934L20.4592 20.7149L24.9453 18.1371Z" fill="#DFD5C1"/>
    <path fill-rule="evenodd" clip-rule="evenodd" d="M64.3572 26.7459L65.9574 27.6654L64.6678 28.4069V30.8786L63.2313 30.0531L64.3572 26.7459Z" fill="#DFD5C1"/>
    <path fill-rule="evenodd" clip-rule="evenodd" d="M32.6501 54.0952L36.0906 52.1185L38.1298 53.2905L37.27 53.7847L36.8399 54.5262V56.5029L32.6501 54.0952Z" fill="#DFD5C1"/>
    <path fill-rule="evenodd" clip-rule="evenodd" d="M50.5122 43.7131L51.3627 43.224V40.7531L52.2225 40.2585L54.3727 41.4942L55.2228 41.0059L55.6532 41.2528L50.942 43.9603L50.5122 43.7131Z" fill="#C8B396"/>
    <path fill-rule="evenodd" clip-rule="evenodd" d="M36.0906 49.6472V52.1185L32.6501 54.0952V52.1185L33.0806 51.377L36.0906 49.6472Z" fill="#9D968A"/>
    <path fill-rule="evenodd" clip-rule="evenodd" d="M34.7117 42.2868V47.9516L32.9639 46.9469V42.1146L34.7117 42.2868Z" fill="#D8C3A4"/>
    <path fill-rule="evenodd" clip-rule="evenodd" d="M50.0822 38.4498L54.793 35.7427L55.2228 35.9896L50.5122 38.6975L50.0822 38.4498Z" fill="#C8B396"/>
    <path fill-rule="evenodd" clip-rule="evenodd" d="M46.4861 30.5168L46.9159 31.2583L42 34.0837V33.0953L46.4861 30.5168Z" fill="#9B978C"/>
    <path fill-rule="evenodd" clip-rule="evenodd" d="M62.8755 31.0975L63.2313 30.0531L64.6678 30.8786V28.4069L68.8572 30.8149V33.2862L73.0467 35.6939V37.6714L72.6169 37.9183L62.8755 32.3196V31.0975Z" fill="#CCC6B8"/>
    <path fill-rule="evenodd" clip-rule="evenodd" d="M74.767 34.2113L73.0467 35.1997V33.2229L74.767 34.2113Z" fill="#CCC6B8"/>
    <path fill-rule="evenodd" clip-rule="evenodd" d="M31.907 40.2921L32.6307 38.6988L34.7117 42.2868L32.9639 42.1146L31.907 40.2921Z" fill="#D8C3A4"/>
    <path fill-rule="evenodd" clip-rule="evenodd" d="M31.3237 69.1621V68.3252L32.3886 67.713L32.614 67.8424V69.9035L31.3237 69.1621Z" fill="#DFD5C1"/>
    <path fill-rule="evenodd" clip-rule="evenodd" d="M52.6759 67.1013V69.1621L51.3856 69.9035V67.8424L52.6759 67.1013Z" fill="#DFD5C1"/>
    <path fill-rule="evenodd" clip-rule="evenodd" d="M29.1347 15.7291L33.3245 13.3214L36.3344 15.0513L32.145 17.4589L29.1347 15.7291Z" fill="#DFD5C1"/>
    <path fill-rule="evenodd" clip-rule="evenodd" d="M15.8921 42.4867L16.3219 41.7456L19.3318 40.0158V42.4867L15.8921 44.4638V42.4867Z" fill="#9D968A"/>
    <path fill-rule="evenodd" clip-rule="evenodd" d="M55.5389 49.7101L51.3495 52.1185L50.9198 51.377L55.1092 48.9693L55.5389 49.7101Z" fill="#B3AB9B"/>
    <path fill-rule="evenodd" clip-rule="evenodd" d="M36.3344 28.8506L38.3741 30.023L37.5142 30.5168L37.0838 31.2583V33.2354L32.8944 30.8277L36.3344 28.8506Z" fill="#DFD5C1"/>
    <path fill-rule="evenodd" clip-rule="evenodd" d="M24.5152 26.0117L27.9549 24.0349L29.9949 25.2069L29.1347 25.7011L28.7046 26.4426V28.4197L24.5152 26.0117Z" fill="#DFD5C1"/>
    <path fill-rule="evenodd" clip-rule="evenodd" d="M12.1324 29.0847L16.3219 26.6771L19.3318 28.4069L15.1424 30.8149L12.1324 29.0847Z" fill="#DFD5C1"/>
    <path fill-rule="evenodd" clip-rule="evenodd" d="M64.6678 42.4867L68.1075 44.4638L63.9181 46.8719V44.8948L63.488 44.1533L62.6282 43.6588L64.6678 42.4867Z" fill="#DFD5C1"/>
    <path d="M20.5117 44.1542L20.0816 44.8957L24.2712 47.3036L24.7013 46.562L20.5117 44.1542Z" fill="#F2E6CB"/>
    <path fill-rule="evenodd" clip-rule="evenodd" d="M74.767 34.2113L73.0467 33.2229L76.0566 31.4931L80.7866 34.2113L76.0566 36.9299L73.0467 35.1997L74.767 34.2113Z" fill="#DFD5C1"/>
    <path fill-rule="evenodd" clip-rule="evenodd" d="M29.6332 35.9879L33.4905 38.205L32.6307 38.6988L28.7734 36.4821L29.6332 35.9879Z" fill="#DFD5C1"/>
    <path fill-rule="evenodd" clip-rule="evenodd" d="M10.953 33.2229V35.1997L9.23297 34.2113L10.953 33.2229Z" fill="#9D968A"/>
    <path fill-rule="evenodd" clip-rule="evenodd" d="M10.953 35.6939L15.1424 33.2862V30.8149L19.3318 28.4069V30.8786L20.7684 30.0531L21.1245 31.0975V32.3196L11.3831 37.9183L10.953 37.6714V35.6939Z" fill="#9D968A"/>
    <path fill-rule="evenodd" clip-rule="evenodd" d="M50.942 43.9603L55.6532 41.2528V42.2305L50.942 44.9376V43.9603Z" fill="#B5A084"/>
    <path fill-rule="evenodd" clip-rule="evenodd" d="M28.4402 39.515V44.347L26.6928 43.3427V37.6779L28.4402 39.515Z" fill="#D8C3A4"/>
    <path fill-rule="evenodd" clip-rule="evenodd" d="M28.7734 36.4821L29.4974 38.907L28.4402 39.515L26.6928 37.678L28.7734 36.4821Z" fill="#D8C3A4"/>
    <path fill-rule="evenodd" clip-rule="evenodd" d="M50.5122 38.6975L55.2228 35.9896V41.0059L54.3727 41.4942V37.4559L51.3627 39.1858V43.224L50.5122 43.713V38.6975Z" fill="#B5A084"/>
    <path fill-rule="evenodd" clip-rule="evenodd" d="M68.8572 37.6074L71.8672 39.3376L67.6778 41.7456L64.6678 40.0158L68.8572 37.6074Z" fill="#DFD5C1"/>
    <path fill-rule="evenodd" clip-rule="evenodd" d="M47.9094 49.6472L52.0992 47.2391L55.1092 48.9693L50.9198 51.377L47.9094 49.6472Z" fill="#DFD5C1"/>
    <path fill-rule="evenodd" clip-rule="evenodd" d="M15.8921 44.4638L19.3318 42.4867L21.3718 43.6588L20.5116 44.1533L20.0815 44.8948V46.8719L15.8921 44.4638Z" fill="#DFD5C1"/>
    <path fill-rule="evenodd" clip-rule="evenodd" d="M50.9198 51.377L51.3495 52.1185V54.0952L47.9094 52.1185V49.6472L50.9198 51.377Z" fill="#CCC6B8"/>
    <path fill-rule="evenodd" clip-rule="evenodd" d="M26.6653 19.1258L28.7046 17.9535L32.145 19.9302L27.9549 22.3383V19.8673L26.6653 19.1258Z" fill="#DFD5C1"/>
    <path fill-rule="evenodd" clip-rule="evenodd" d="M37.0838 11.1607L37.5142 10.9137L40.5239 12.6436V15.1149L37.0838 13.1378V11.1607Z" fill="#CCC6B8"/>
    <path fill-rule="evenodd" clip-rule="evenodd" d="M35.0442 14.3098L37.0838 13.1378L40.5239 15.1149L36.3344 17.5226V15.0513L35.0442 14.3098Z" fill="#DFD5C1"/>
    <path fill-rule="evenodd" clip-rule="evenodd" d="M37.5142 30.5168L40.5239 28.787L42 29.6353L43.4758 28.787L46.4861 30.5168L42 33.0953L37.5142 30.5168Z" fill="#DFD5C1"/>
    <path fill-rule="evenodd" clip-rule="evenodd" d="M28.7046 15.9764L29.1347 15.7291L32.145 17.4589V19.9302L28.7046 17.9535V15.9764Z" fill="#CCC6B8"/>
    <path fill-rule="evenodd" clip-rule="evenodd" d="M24.271 49.2795V47.3024L24.7011 46.561L27.7114 44.8311V47.3024L24.271 49.2795Z" fill="#9D968A"/>
    <path fill-rule="evenodd" clip-rule="evenodd" d="M45.6256 30.023L47.6656 28.8506L51.1053 30.8277L46.9159 33.2354V31.2583L46.4861 30.5168L45.6256 30.023Z" fill="#DFD5C1"/>
    <path fill-rule="evenodd" clip-rule="evenodd" d="M64.6678 40.0158L67.6778 41.7456L68.1075 42.4867V44.4638L64.6678 42.4867V40.0158Z" fill="#CCC6B8"/>
    <path fill-rule="evenodd" clip-rule="evenodd" d="M54.249 48.4748L56.2886 47.3024L59.7287 49.2795L55.5389 51.6876V49.7101L55.1092 48.9693L54.249 48.4748Z" fill="#DFD5C1"/>
    <path fill-rule="evenodd" clip-rule="evenodd" d="M27.7114 47.3024L29.7507 48.4748L28.8908 48.9693L28.4607 49.7101V51.6876L24.271 49.2795L27.7114 47.3024Z" fill="#DFD5C1"/>
    <path fill-rule="evenodd" clip-rule="evenodd" d="M24.5096 74.2503L26.9484 72.8486L42 81.4993L58.1247 72.2317L58.3397 72.3555L62.3971 70.0235V69.7763L80.9818 59.0953L81.842 59.5895L42 82.4876L27.8083 74.3316L26.2297 75.239L24.5096 74.2503Z" fill="#9F937A"/>
    <path fill-rule="evenodd" clip-rule="evenodd" d="M18.2966 55.952L20.11 56.9943V57.2416L18.0815 56.0758L18.2966 55.952Z" fill="#B0A99B"/>
    <path fill-rule="evenodd" clip-rule="evenodd" d="M18.0815 56.0758L22.1386 58.4074V60.5319L18.0815 58.1996V56.0758Z" fill="#ADA699"/>
    <path fill-rule="evenodd" clip-rule="evenodd" d="M24.3821 59.4498L26.4107 60.6155L26.196 60.7394L24.1674 59.5732L24.3821 59.4498Z" fill="#B0A99B"/>
    <path fill-rule="evenodd" clip-rule="evenodd" d="M26.196 60.7393L26.4107 60.6155V62.7396L26.196 62.8634V60.7393Z" fill="#8F887B"/>
    <path fill-rule="evenodd" clip-rule="evenodd" d="M22.1386 58.4074L26.196 60.7393V62.8634L22.1386 60.5318V58.4074Z" fill="#ADA699"/>
    <path fill-rule="evenodd" clip-rule="evenodd" d="M62.3972 67.8994V70.0235L58.3398 72.3555V70.231L62.3972 67.8994Z" fill="#8F887B"/>
    <path fill-rule="evenodd" clip-rule="evenodd" d="M58.3397 70.231V72.3555L58.1247 72.2317V70.1076L58.3397 70.231Z" fill="#6F6A67"/>
    <path fill-rule="evenodd" clip-rule="evenodd" d="M60.3686 69.0652L58.3397 70.231L58.1247 70.1076L60.1532 68.9418L60.3686 69.0652Z" fill="#B5A084"/>
    <path fill-rule="evenodd" clip-rule="evenodd" d="M78.1942 53.6934L80.5518 52.3384V54.4629L78.1942 55.8175V53.6934Z" fill="#8F887B"/>
    <path fill-rule="evenodd" clip-rule="evenodd" d="M77.9795 55.694V53.8172L78.1942 53.6934V55.8175L77.9795 55.694Z" fill="#6F6A67"/>
    <path fill-rule="evenodd" clip-rule="evenodd" d="M42 26.8825L45.5759 24.8276V25.6579L42 27.7132V26.8825Z" fill="#997B43"/>
    <path fill-rule="evenodd" clip-rule="evenodd" d="M38.4238 25.6579V24.8276L42 26.8825V27.7132L38.4238 25.6579Z" fill="#D3AE6B"/>
    <path fill-rule="evenodd" clip-rule="evenodd" d="M38.4238 24.8276L41.0769 23.3031V24.8276L42 25.3581L42.9227 24.8276V23.3031L45.5759 24.8276L42 26.8825L38.4238 24.8276Z" fill="#E3C48E"/>
    <path fill-rule="evenodd" clip-rule="evenodd" d="M41.0769 3.2975L42 3.82766V25.3581L41.0769 24.8276V3.2975Z" fill="#D3AE6B"/>
    <path fill-rule="evenodd" clip-rule="evenodd" d="M42 3.82766L42.9227 3.2975V24.8276L42 25.3581V3.82766Z" fill="#997B43"/>
    <path fill-rule="evenodd" clip-rule="evenodd" d="M42 2.76699L42.9227 3.2975L42 3.82766L41.0769 3.2975L42 2.76699Z" fill="#E3C48E"/>
    <path fill-rule="evenodd" clip-rule="evenodd" d="M42 75.4617L46.0567 73.1298V75.2539L42 77.5855V75.4617Z" fill="#8F887B"/>
    <path fill-rule="evenodd" clip-rule="evenodd" d="M39.6425 76.2309V74.1064L42 75.4617V77.5855L39.6425 76.2309Z" fill="#A0998C"/>
    <path fill-rule="evenodd" clip-rule="evenodd" d="M44.3572 73.8595L45.842 73.0063L46.0567 73.1298L44.3572 74.1064V73.8595Z" fill="#B5A084"/>
    <path fill-rule="evenodd" clip-rule="evenodd" d="M35.5854 71.7748L39.6425 74.1064V76.2308L35.5854 73.8993V71.7748Z" fill="#ADA699"/>
    <path fill-rule="evenodd" clip-rule="evenodd" d="M35.8005 71.6517L37.9429 72.8825V73.1298L35.5854 71.7748L35.8005 71.6517Z" fill="#B0A99B"/>
    <path fill-rule="evenodd" clip-rule="evenodd" d="M37.9429 71.0057L42 73.3376V75.4617L37.9429 73.1298V71.0057Z" fill="#A0998C"/>
    <path fill-rule="evenodd" clip-rule="evenodd" d="M42 75.4617V73.3376L44.3572 71.9827V74.1064L42 75.4617Z" fill="#8F887B"/>
    <path fill-rule="evenodd" clip-rule="evenodd" d="M37.9429 71.0057L38.1576 70.8822L42 73.0904L44.1425 71.8589L44.3572 71.9827L42 73.3376L37.9429 71.0057Z" fill="#B0A99B"/>
    <path fill-rule="evenodd" clip-rule="evenodd" d="M53.9061 6.99167V1.64858L56.775 0V1.06862L55.3732 1.87406V2.94268L56.775 2.13724V3.20551L55.3732 4.01164V5.07991L56.775 4.27413V5.34274L53.9061 6.99167Z" fill="#D97227"/>
    <path d="M46.9801 3.29784H42.9231V8.64059H46.9801V3.29784Z" fill="#F7902A"/>
    <path fill-rule="evenodd" clip-rule="evenodd" d="M49.849 1.64857V6.99166L46.9801 8.64059V3.29784L49.849 1.64857Z" fill="#D97227"/>
    <path d="M53.9061 1.64857H49.849V6.99166H53.9061V1.64857Z" fill="#F7902A"/>
    <path fill-rule="evenodd" clip-rule="evenodd" d="M42 70.2016V68.0775L44.3575 66.7226V68.8467L42 70.2016Z" fill="#8F887B"/>
    <path fill-rule="evenodd" clip-rule="evenodd" d="M44.3575 66.7226L42.4301 67.8303H42L44.1425 66.5991L44.3575 66.7226Z" fill="#8A8479"/>
    <path fill-rule="evenodd" clip-rule="evenodd" d="M7.50494 51.0298L7.71999 50.906V53.0304L7.50494 53.1535V51.0298Z" fill="#8F887B"/>
    <path fill-rule="evenodd" clip-rule="evenodd" d="M6.02047 52.3004V54.1779L5.80542 54.301V52.1773L6.02047 52.3004Z" fill="#8F887B"/>
    <path fill-rule="evenodd" clip-rule="evenodd" d="M60.1536 66.8177L64.2106 64.4861L64.4257 64.6095L60.3686 66.9415L60.1536 66.8177Z" fill="#9D9688"/>
    <path fill-rule="evenodd" clip-rule="evenodd" d="M60.3686 66.9415L64.4257 64.6095V66.7336L60.3686 69.0652V66.9415Z" fill="#968E81"/>
    <path fill-rule="evenodd" clip-rule="evenodd" d="M60.3686 66.9415V69.0652L60.1536 68.9421V66.8177L60.3686 66.9415Z" fill="#8A8377"/>
    <path fill-rule="evenodd" clip-rule="evenodd" d="M56.4477 58.6941L56.6624 58.8179V60.9417L56.4477 60.8185V58.6941Z" fill="#6F6A67"/>
    <path fill-rule="evenodd" clip-rule="evenodd" d="M56.6624 58.8179L60.7195 56.4863V58.6101L56.6624 60.9417V58.8179Z" fill="#847E72"/>
    <path fill-rule="evenodd" clip-rule="evenodd" d="M60.5048 56.3625L60.7195 56.4863L56.6624 58.8179L56.4477 58.6941L60.5048 56.3625Z" fill="#8A8479"/>
    <path fill-rule="evenodd" clip-rule="evenodd" d="M24.1674 57.4495L24.3825 57.3256V59.4501L24.1674 59.5732V57.4495Z" fill="#8F887B"/>
    <path fill-rule="evenodd" clip-rule="evenodd" d="M80.122 50.2147V49.9674L80.5518 50.2147L76.4951 52.5463L76.28 52.4228L80.122 50.2147Z" fill="#9D9688"/>
    <path fill-rule="evenodd" clip-rule="evenodd" d="M80.5518 50.2147V52.3384L76.495 54.6707V52.5463L80.5518 50.2147Z" fill="#968E81"/>
    <path fill-rule="evenodd" clip-rule="evenodd" d="M76.4951 52.5463V54.6707L76.28 54.5469V52.4228L76.4951 52.5463Z" fill="#8A8377"/>
    <path fill-rule="evenodd" clip-rule="evenodd" d="M35.5719 41.793V47.4574L34.7117 47.9516V42.2872L35.5719 41.793Z" fill="#B5A084"/>
    <path fill-rule="evenodd" clip-rule="evenodd" d="M50.0822 38.4502L50.5126 38.6975V43.713L50.9427 43.9603V44.9376L50.0822 44.4434V38.4502Z" fill="#C8B396"/>
    <path fill-rule="evenodd" clip-rule="evenodd" d="M29.6041 66.1129L31.3237 67.1013V69.1628L29.6041 70.1511V66.1129Z" fill="#B5A084"/>
    <path fill-rule="evenodd" clip-rule="evenodd" d="M12.4041 60.2656V56.2273L14.1242 57.2157V59.2772L12.4041 60.2656Z" fill="#B5A084"/>
    <path fill-rule="evenodd" clip-rule="evenodd" d="M67.7355 62.4844V57.4688L72.4463 54.761V59.7773L71.5962 60.2656V56.2273L68.5859 57.9571V61.9954L67.7355 62.4844Z" fill="#B5A084"/>
    <path fill-rule="evenodd" clip-rule="evenodd" d="M71.5962 56.2273V60.2656L69.8758 59.2772V57.2157L71.5962 56.2273Z" fill="#C0AA8C"/>
    <path fill-rule="evenodd" clip-rule="evenodd" d="M50.5355 72.3696L51.386 71.881V69.9039L52.6759 69.1628L54.3959 70.1511L55.2464 69.6621L55.6765 69.9094L50.9656 72.6169L50.5355 72.3696Z" fill="#C8B396"/>
    <path fill-rule="evenodd" clip-rule="evenodd" d="M27.8086 74.3315L28.8029 76.5196L27.8086 75.9476V74.3315Z" fill="#6B6250"/>
    <path fill-rule="evenodd" clip-rule="evenodd" d="M68.5859 61.9954V60.0186L69.8758 59.2772L71.5962 60.2656L72.4463 59.7772L72.8764 60.0242L68.1655 62.7313L67.7355 62.4844L68.5859 61.9954Z" fill="#C8B396"/>
    <path fill-rule="evenodd" clip-rule="evenodd" d="M50.5355 67.3537L55.2464 64.6462V69.6621L54.3959 70.1511V66.1129L51.386 67.8427V71.881L50.5355 72.3696V67.3537Z" fill="#B5A084"/>
    <path fill-rule="evenodd" clip-rule="evenodd" d="M50.9656 73.5942V72.6169L55.6765 69.9094V70.8871L50.9656 73.5942Z" fill="#B5A084"/>
    <path fill-rule="evenodd" clip-rule="evenodd" d="M26.0886 67.6784L26.9485 67.1846V72.8486L26.0886 73.3432V67.6784Z" fill="#B5A084"/>
    <path fill-rule="evenodd" clip-rule="evenodd" d="M24.3408 67.5062V69.7386H19.8172L24.181 67.2309L24.3408 67.5062Z" fill="#696150"/>
    <path fill-rule="evenodd" clip-rule="evenodd" d="M80.122 58.6229V58.6007L80.9822 59.0953L80.122 58.6229Z" fill="#696150"/>
    <path fill-rule="evenodd" clip-rule="evenodd" d="M80.122 58.6395V58.6229L80.9822 59.0953L80.122 58.6395Z" fill="#696150"/>
    <path fill-rule="evenodd" clip-rule="evenodd" d="M80.122 58.6491V58.6395L80.9822 59.0953L80.122 58.6491Z" fill="#696150"/>
    <path fill-rule="evenodd" clip-rule="evenodd" d="M80.9822 59.0953L80.122 59.5895V58.6491L80.9822 59.0953Z" fill="#696150"/>
    <path fill-rule="evenodd" clip-rule="evenodd" d="M62.6174 20.1851L63.5405 20.7156L62.6174 21.2458H56.5975L57.5205 20.7156L56.5975 20.1851H62.6174Z" fill="#8F887C"/>
    <path fill-rule="evenodd" clip-rule="evenodd" d="M42 85.919L85 61.2055V69.2873L42 94V85.919Z" fill="#736A58"/>
    <path fill-rule="evenodd" clip-rule="evenodd" d="M76.2428 39.5081H76.0893L73.4969 40.9983L73.8179 41.1823L72.2976 42.0562V40.0791L71.8672 39.3376L71.0074 38.8434L73.0467 37.6714L76.2428 39.5081Z" fill="#8F887C"/>
    <path fill-rule="evenodd" clip-rule="evenodd" d="M56.8153 27.5458L55.295 28.4197V26.6722L56.8153 27.5458Z" fill="#8F887C"/>
    <path fill-rule="evenodd" clip-rule="evenodd" d="M43.4762 15.1149V12.6436L46.4861 10.9137L46.9159 11.1607V13.1381L43.4762 15.1149Z" fill="#9D968A"/>
    <path fill-rule="evenodd" clip-rule="evenodd" d="M46.9159 13.1381L48.4361 14.0117L46.5167 15.1149H43.5644H43.4762L46.9159 13.1381Z" fill="#8F887C"/>
    <path fill-rule="evenodd" clip-rule="evenodd" d="M43.5203 17.6115L42.9231 17.9552V17.2684L43.5203 17.6115Z" fill="#595448"/>
    <path fill-rule="evenodd" clip-rule="evenodd" d="M41.0769 19.0159L40.8952 19.1203L41.0769 19.2244V20.7637L38.2261 22.4019H35.1856L32.5161 23.936L34.0363 24.8099L33.8202 24.9341L32.145 23.9716L29.9949 25.2069L28.6296 24.4222L41.0769 17.2684V19.0159Z" fill="#595448"/>
    <path fill-rule="evenodd" clip-rule="evenodd" d="M45.6749 25.1274H49.8435L47.9977 26.1884H45.6749L43.0217 27.7132H42L45.5759 25.6579V25.071L45.6749 25.1274Z" fill="#595448"/>
    <path fill-rule="evenodd" clip-rule="evenodd" d="M54.0051 25.2069L53.8665 25.1274H54.1434L54.0051 25.2069Z" fill="#595448"/>
    <path fill-rule="evenodd" clip-rule="evenodd" d="M39.2648 29.5108L38.3741 30.023L36.4453 28.9139H38.2261L39.2648 29.5108Z" fill="#595448"/>
    <path fill-rule="evenodd" clip-rule="evenodd" d="M55.295 17.9535L56.8153 18.8274L54.8955 19.9302H51.855L55.295 17.9535Z" fill="#8F887C"/>
    <path fill-rule="evenodd" clip-rule="evenodd" d="M26.2297 75.239L27.8086 74.3315V75.9476L26.2297 76.8554V84.9364L18.3351 89.4737V87.8573L26.2297 75.239Z" fill="#766B53"/>
    <path fill-rule="evenodd" clip-rule="evenodd" d="M28.4406 44.347V39.515L29.4974 38.9074L31.0205 39.7827V42.8647L28.4406 44.347Z" fill="#B5A084"/>
    <path fill-rule="evenodd" clip-rule="evenodd" d="M85 61.2055L46.8776 83.1157H45.7086L43.9886 84.104H42L81.842 61.2055V59.5895L80.122 58.6007V58.4022L85 61.2055Z" fill="#696150"/>
    <path fill-rule="evenodd" clip-rule="evenodd" d="M27.8086 75.9476L28.8029 76.5196L28.2182 76.8554L26.8397 77.2061L26.2297 76.8554L27.8086 75.9476Z" fill="#696150"/>
    <path fill-rule="evenodd" clip-rule="evenodd" d="M8.59581 82.2601L10.1748 79.7362V81.3526L8.59581 82.2601Z" fill="#766B53"/>
    <path fill-rule="evenodd" clip-rule="evenodd" d="M48.6803 55.6293L47.1601 56.5033V54.7558L48.6803 55.6293Z" fill="#8F887C"/>
    <path fill-rule="evenodd" clip-rule="evenodd" d="M10.1748 79.7362L11.7538 77.213V78.8291L10.1748 79.7362Z" fill="#766B53"/>
    <path fill-rule="evenodd" clip-rule="evenodd" d="M16.4904 69.6417V71.2581L14.9114 72.1653L16.4904 69.6417Z" fill="#766B53"/>
    <path fill-rule="evenodd" clip-rule="evenodd" d="M11.7538 77.213L13.3327 74.6891V76.3052L11.7538 77.213Z" fill="#766B53"/>
    <path fill-rule="evenodd" clip-rule="evenodd" d="M14.9114 72.1653V73.7813L13.3327 74.6891L14.9114 72.1653Z" fill="#766B53"/>
    <path fill-rule="evenodd" clip-rule="evenodd" d="M15.8345 62.7313L16.2646 62.4844V57.4688L16.6943 57.2212V63.2148L15.8345 63.709V62.7313Z" fill="#B5A084"/>
    <path fill-rule="evenodd" clip-rule="evenodd" d="M67.7355 57.4688V62.4844L68.1656 62.7313V63.709L67.3057 63.2148V57.2212L67.7355 57.4688Z" fill="#C8B396"/>
    <path fill-rule="evenodd" clip-rule="evenodd" d="M67.3057 57.2212L72.0166 54.514L72.4463 54.761L67.7355 57.4688L67.3057 57.2212Z" fill="#C8B396"/>
    <path fill-rule="evenodd" clip-rule="evenodd" d="M33.034 72.6169L33.4641 72.3696V67.3537L33.8946 67.1068V73.1L33.034 73.5942V72.6169Z" fill="#B5A084"/>
    <path fill-rule="evenodd" clip-rule="evenodd" d="M32.614 69.9039V70.1511H29.6041L31.3237 69.1628L32.614 69.9039Z" fill="#C8B396"/>
    <path fill-rule="evenodd" clip-rule="evenodd" d="M68.5859 57.9571L69.8758 57.2157V59.2772L68.5859 60.0186V57.9571Z" fill="#49433D"/>
    <path fill-rule="evenodd" clip-rule="evenodd" d="M50.5355 67.3537V72.3696L50.9656 72.6169V73.5942L50.1054 73.1V67.1068L50.5355 67.3537Z" fill="#C8B396"/>
    <path fill-rule="evenodd" clip-rule="evenodd" d="M35.5719 41.793L36.4317 43.685V47.9516L35.5719 47.4574V41.793Z" fill="#9B978C"/>
    <path fill-rule="evenodd" clip-rule="evenodd" d="M60.4784 42.4234L62.0768 43.3423L62.0004 43.3866L63.0906 44.0132L62.9127 44.2602L59.1037 46.4493L56.2886 44.8311L60.4784 42.4234Z" fill="#8F887C"/>
    <path fill-rule="evenodd" clip-rule="evenodd" d="M24.5152 26.012V24.0349L24.9456 23.2935L27.9556 21.5633V24.0349L24.5152 26.012Z" fill="#9D968A"/>
    <path fill-rule="evenodd" clip-rule="evenodd" d="M42 34.0837L46.9159 31.2583V33.2357L51.1053 30.8277V28.8506L55.295 26.4429V28.4197L59.4845 26.012V24.0349L64.4003 21.2095V26.6193L42 39.4936V34.0837Z" fill="#9D968A"/>
    <path fill-rule="evenodd" clip-rule="evenodd" d="M10.9836 33.9644L12.4733 34.8203L10.953 35.6943V33.9572L10.9836 33.9644Z" fill="#8F887C"/>
    <path fill-rule="evenodd" clip-rule="evenodd" d="M50.0822 38.4502V44.4434L50.9427 44.9376L55.6532 42.2305V41.2528L55.2235 41.0059V35.9896L54.7934 35.7427L62.8755 31.0975V39.1543L42 51.1519V43.095L50.0822 38.4502Z" fill="url(#paint6_linear_245_12607)"/>
    <path fill-rule="evenodd" clip-rule="evenodd" d="M42 66.9975V63.396L81.6471 40.6099L80.122 45.0877L42 66.9975Z" fill="#827B70"/>
    <path fill-rule="evenodd" clip-rule="evenodd" d="M54.8649 15.7294L55.295 15.9764V17.9535L51.855 19.9302V17.4593L54.8649 15.7294Z" fill="#9D968A"/>
    <path fill-rule="evenodd" clip-rule="evenodd" d="M42 63.396V57.492L47.1601 54.5261V56.5033L51.3495 54.0952V52.1185L55.5389 49.7108V51.6876L59.7287 49.2799V47.3024L63.9181 44.8947V46.8719L68.1075 44.4638V42.4871L72.2976 40.0791V42.0562L76.4871 39.6481V37.6714L81.6471 34.7059V40.6099L42 63.396Z" fill="#9D968A"/>
    <path fill-rule="evenodd" clip-rule="evenodd" d="M33.3245 28.1091L36.3344 26.3793V28.8506L32.8947 30.8277V28.8506L33.3245 28.1091Z" fill="#9D968A"/>
    <path fill-rule="evenodd" clip-rule="evenodd" d="M10.7848 81.7033L8.59581 82.2601L10.1748 81.3526L10.7848 81.7033Z" fill="#696150"/>
    <path fill-rule="evenodd" clip-rule="evenodd" d="M14.9114 73.7813V72.1653L15.5214 74.1323L14.9114 73.7813Z" fill="#6B6250"/>
    <path fill-rule="evenodd" clip-rule="evenodd" d="M13.3327 76.3052V74.6891L13.9428 76.6559L13.3327 76.3052Z" fill="#6B6250"/>
    <path fill-rule="evenodd" clip-rule="evenodd" d="M15.5214 74.1323L13.3327 74.6891L14.9114 73.7813L15.5214 74.1323Z" fill="#696150"/>
    <path fill-rule="evenodd" clip-rule="evenodd" d="M14.1242 59.2772L15.4141 60.0186V60.2656H12.4041L14.1242 59.2772Z" fill="#C8B396"/>
    <path fill-rule="evenodd" clip-rule="evenodd" d="M42 82.488L81.842 59.5895V61.2055L42 84.104V82.488Z" fill="#736A58"/>
    <path fill-rule="evenodd" clip-rule="evenodd" d="M16.4904 71.2581V69.6417L17.1004 71.6085L16.4904 71.2581Z" fill="#6B6250"/>
    <path fill-rule="evenodd" clip-rule="evenodd" d="M11.7538 77.213L12.3638 79.1794L11.7538 78.8291V77.213Z" fill="#6B6250"/>
    <path fill-rule="evenodd" clip-rule="evenodd" d="M52.6759 69.1628V67.1013L54.3959 66.1129V70.1511L52.6759 69.1628Z" fill="#C0AA8C"/>
    <path fill-rule="evenodd" clip-rule="evenodd" d="M13.9428 76.6559L11.7538 77.213L13.3327 76.3052L13.9428 76.6559Z" fill="#696150"/>
    <path fill-rule="evenodd" clip-rule="evenodd" d="M10.1748 79.7362L10.7848 81.7033L10.1748 81.3526V79.7362Z" fill="#6B6250"/>
    <path fill-rule="evenodd" clip-rule="evenodd" d="M26.2297 76.8554L26.8397 77.2061L29.8903 87.0405L26.2297 84.9365V76.8554Z" fill="#6B6250"/>
    <path fill-rule="evenodd" clip-rule="evenodd" d="M17.1004 71.6085L14.9114 72.1653L16.4904 71.2581L17.1004 71.6085Z" fill="#696150"/>
    <path fill-rule="evenodd" clip-rule="evenodd" d="M12.3638 79.1794L10.1748 79.7362L11.7538 78.8291L12.3638 79.1794Z" fill="#696150"/>
    <path fill-rule="evenodd" clip-rule="evenodd" d="M50.1054 67.1068L54.8163 64.3993L55.2464 64.6462L50.5355 67.3537L50.1054 67.1068Z" fill="#C8B396"/>
    <path fill-rule="evenodd" clip-rule="evenodd" d="M62.8755 32.3196L72.6169 37.9183L71.0074 38.8434L68.8572 37.6074L64.6678 40.0158V42.4871L62.6282 43.6594L60.4784 42.4234L56.2886 44.8311V47.3024L54.2493 48.4748L52.0992 47.2391L47.9098 49.6472V51.1519H42L62.8755 39.1543V32.3196Z" fill="#595448"/>
    <path fill-rule="evenodd" clip-rule="evenodd" d="M21.1245 35.7575H18.1833L15.5138 37.2917L17.0341 38.1656L16.5734 38.4301L15.1424 37.6074L12.9926 38.8434L11.3831 37.9183L21.1245 32.3196V35.7575Z" fill="#595448"/>
    <path fill-rule="evenodd" clip-rule="evenodd" d="M31.0205 39.7827L31.907 40.2921L32.9639 42.1146V44.347H28.4406L31.0205 42.8647V39.7827Z" fill="#595448"/>
    <path fill-rule="evenodd" clip-rule="evenodd" d="M22.2622 43.1473L21.3718 43.6594L19.4427 42.5504H21.2238L22.2622 43.1473Z" fill="#595448"/>
    <path fill-rule="evenodd" clip-rule="evenodd" d="M27.8215 47.3661H29.6027L30.6411 47.963L29.7507 48.4748L27.8215 47.3661Z" fill="#595448"/>
    <path fill-rule="evenodd" clip-rule="evenodd" d="M35.5719 47.4574L36.4317 47.9516H34.7117L35.5719 47.4574Z" fill="#595448"/>
    <path fill-rule="evenodd" clip-rule="evenodd" d="M39.0206 52.7787L38.1299 53.2905L36.201 52.1821H37.9819L39.0206 52.7787Z" fill="#595448"/>
    <path fill-rule="evenodd" clip-rule="evenodd" d="M51.3627 40.7531V39.1861L52.2225 38.6916V40.2585L51.3627 40.7531Z" fill="#49433D"/>
    <path fill-rule="evenodd" clip-rule="evenodd" d="M54.3727 37.4563V41.4945L52.2225 40.2585V38.6916L54.3727 37.4563Z" fill="#C0AA8C"/>
    <path fill-rule="evenodd" clip-rule="evenodd" d="M72.8764 60.0242V61.0015L68.1656 63.709V62.7313L72.8764 60.0242Z" fill="#B5A084"/>
    <path fill-rule="evenodd" clip-rule="evenodd" d="M19.8172 69.7386V64.9066L20.8743 64.2986L23.2836 65.6837L24.181 67.2309L19.8172 69.7386Z" fill="#B5A084"/>
    <path fill-rule="evenodd" clip-rule="evenodd" d="M31.3237 68.3252V67.1013L32.3886 67.7134L31.3237 68.3252Z" fill="#544F46"/>
    <path fill-rule="evenodd" clip-rule="evenodd" d="M56.2886 44.8311L59.1037 46.4493L59.7287 47.8243V49.2799L56.2886 47.3024V44.8311Z" fill="#9B978C"/>
    <path fill-rule="evenodd" clip-rule="evenodd" d="M75.8621 36.8175L76.2428 37.6555V39.5081L73.0467 37.6714V35.1997L75.8621 36.8175Z" fill="#9B978C"/>
    <path fill-rule="evenodd" clip-rule="evenodd" d="M42.9231 13.8263L43.4761 15.043V15.1149V17.5143L43.5203 17.6114L42.9231 17.2684V13.8263Z" fill="#9B978C"/>
    <path fill-rule="evenodd" clip-rule="evenodd" d="M56.5975 21.2458V20.1851L57.5205 20.7156L56.5975 21.2458Z" fill="#9B978C"/>
    <path fill-rule="evenodd" clip-rule="evenodd" d="M19.3628 29.1484L20.7277 29.9331L20.7684 30.0531L19.3322 30.8786V29.1415L19.3628 29.1484Z" fill="#8F887C"/>
    <path fill-rule="evenodd" clip-rule="evenodd" d="M72.2976 31.3091L73.8179 32.183L73.4969 32.3674L74.0159 32.6662L73.0467 33.223V35.6943L68.8572 33.2862L72.2976 31.3091Z" fill="#8F887C"/>
    <path fill-rule="evenodd" clip-rule="evenodd" d="M10.953 37.6714L12.4733 38.5449L10.9836 39.4012L9.94551 39.6481H7.51294L10.953 37.6714Z" fill="#8F887C"/>
    <path fill-rule="evenodd" clip-rule="evenodd" d="M80.7866 34.2113L81.3692 34.5461L80.4461 35.0766L79.8642 34.7418L80.7866 34.2113Z" fill="#9D968A"/>
    <path fill-rule="evenodd" clip-rule="evenodd" d="M68.8572 30.8153L71.8672 29.0851L72.2976 29.3324V31.3091L68.8572 33.2862V30.8153Z" fill="#9D968A"/>
    <path fill-rule="evenodd" clip-rule="evenodd" d="M63.5405 20.7156L64.4003 21.2095L63.4776 21.74L62.6174 21.2458L63.5405 20.7156Z" fill="#9D968A"/>
    <path fill-rule="evenodd" clip-rule="evenodd" d="M27.9556 19.867V21.5633L26.4795 20.7156L27.9556 19.867Z" fill="#9D968A"/>
    <path fill-rule="evenodd" clip-rule="evenodd" d="M32.145 19.9302V17.4593L36.3344 15.0513V17.5226L40.5242 15.1149V12.6436L41.0769 12.3258V17.2684L28.6296 24.4222L27.9556 24.0349V22.3386L32.145 19.9302Z" fill="url(#paint7_linear_245_12607)"/>
    <path fill-rule="evenodd" clip-rule="evenodd" d="M64.4003 26.6193L62.8755 31.0975L42 43.095V39.4936L64.4003 26.6193Z" fill="#827B70"/>
    <path fill-rule="evenodd" clip-rule="evenodd" d="M7.94303 36.9299L10.953 35.1997V37.6714L7.51294 39.6481V37.6714L7.94303 36.9299Z" fill="#9D968A"/>
    <path fill-rule="evenodd" clip-rule="evenodd" d="M67.4829 26.7891L71.2915 28.9782L71.4698 29.2255L70.3796 29.8518L70.4564 29.8961L68.8572 30.8153L64.6678 28.4069L67.4829 26.7891Z" fill="#8F887C"/>
    <path fill-rule="evenodd" clip-rule="evenodd" d="M65.4384 27.3673L65.1177 27.552L65.6371 27.8501L64.6678 28.4069V30.8786L63.2313 30.0531L64.3572 26.7459L65.4384 27.3673Z" fill="#8F887C"/>
    <path fill-rule="evenodd" clip-rule="evenodd" d="M37.6105 52.992L36.1208 53.8483L35.0831 54.0952H32.6505L36.0906 52.1185L37.6105 52.992Z" fill="#8F887C"/>
    <path fill-rule="evenodd" clip-rule="evenodd" d="M50.5126 43.7131L51.3627 43.2244V40.7531L52.2225 40.2585L54.3727 41.4945L55.2235 41.0059L55.6532 41.2528L50.9427 43.9603L50.5126 43.7131Z" fill="#C8B396"/>
    <path fill-rule="evenodd" clip-rule="evenodd" d="M36.0906 49.6472V52.1185L32.6505 54.0952V52.1185L33.0806 51.377L36.0906 49.6472Z" fill="#9D968A"/>
    <path fill-rule="evenodd" clip-rule="evenodd" d="M50.0822 38.4502L54.7934 35.7427L55.2235 35.9896L50.5126 38.6975L50.0822 38.4502Z" fill="#C8B396"/>
    <path fill-rule="evenodd" clip-rule="evenodd" d="M62.8755 31.0975L63.2313 30.0531L64.6678 30.8786V28.4069L68.8572 30.8153V33.2862L73.0467 35.6943V37.6714L72.6169 37.9183L62.8755 32.3196V31.0975Z" fill="#9B978C"/>
    <path fill-rule="evenodd" clip-rule="evenodd" d="M74.767 34.2113L73.0467 35.1997V33.2229L74.767 34.2113Z" fill="#9B978C"/>
    <path fill-rule="evenodd" clip-rule="evenodd" d="M31.3237 69.1628V68.3252L32.3886 67.7134L32.614 67.8427V69.9039L31.3237 69.1628Z" fill="#544F46"/>
    <path fill-rule="evenodd" clip-rule="evenodd" d="M52.6759 67.1013V69.1628L51.386 69.9039V67.8427L52.6759 67.1013Z" fill="#49433D"/>
    <path fill-rule="evenodd" clip-rule="evenodd" d="M15.8921 42.4871L16.3222 41.7456L19.3322 40.0158V42.4871L15.8921 44.4638V42.4871Z" fill="#9D968A"/>
    <path fill-rule="evenodd" clip-rule="evenodd" d="M36.3344 28.8506L37.8547 29.7242L36.365 30.5805L35.3269 30.8277H32.8947L36.3344 28.8506Z" fill="#8F887C"/>
    <path fill-rule="evenodd" clip-rule="evenodd" d="M29.4759 24.9088L27.9862 25.7648L26.9481 26.012H24.5152L27.9556 24.0349L29.4759 24.9088Z" fill="#8F887C"/>
    <path fill-rule="evenodd" clip-rule="evenodd" d="M67.864 44.3238H67.7104L65.1177 45.8136L65.4384 45.9983L63.9181 46.8719V44.8948L63.488 44.1533L62.6282 43.6594L64.6678 42.4871L67.864 44.3238Z" fill="#8F887C"/>
    <path fill-rule="evenodd" clip-rule="evenodd" d="M14.4045 57.3768L14.1242 57.2157V58.0177V59.2772L14.5834 59.541L15.2703 59.936L15.4137 60.0186V60.0183L15.4141 60.0186V59.8537V57.9571L14.4045 57.3768Z" fill="#544F46"/>
    <path fill-rule="evenodd" clip-rule="evenodd" d="M75.8621 31.6052L79.4189 33.6494L79.6141 33.5373L80.7866 34.2113L79.8642 34.7418H79.4741L75.8621 36.8175L73.0467 35.1997L74.767 34.2113L73.0467 33.223L75.8621 31.6052Z" fill="#8F887C"/>
    <path fill-rule="evenodd" clip-rule="evenodd" d="M10.953 33.2229L9.23297 34.2113L10.953 35.1997V33.2229Z" fill="url(#paint8_linear_245_12607)"/>
    <path fill-rule="evenodd" clip-rule="evenodd" d="M20.7684 30.0531L19.3322 30.8786V28.4069L15.1424 30.8153V33.2862L10.953 35.6943V37.6714L11.3831 37.9183L21.1245 32.3196V31.0975L20.7684 30.0531Z" fill="url(#paint9_linear_245_12607)"/>
    <path fill-rule="evenodd" clip-rule="evenodd" d="M50.9427 43.9603L55.6532 41.2528V42.2305L50.9427 44.9376V43.9603Z" fill="#B5A084"/>
    <path fill-rule="evenodd" clip-rule="evenodd" d="M50.5126 38.6975L55.2235 35.9896V41.0059L54.3727 41.4945V37.4563L51.3627 39.1861V43.2244L50.5126 43.713V38.6975Z" fill="#B5A084"/>
    <path fill-rule="evenodd" clip-rule="evenodd" d="M68.8572 37.6074L70.4564 38.527L70.3796 38.5709L71.4698 39.1975L71.2915 39.4445L67.4829 41.6336L64.6678 40.0158L68.8572 37.6074Z" fill="#8F887C"/>
    <path fill-rule="evenodd" clip-rule="evenodd" d="M20.8524 43.3606L19.3627 44.2169L18.3247 44.4638H15.8921L19.3322 42.4871L20.8524 43.3606Z" fill="#8F887C"/>
    <path fill-rule="evenodd" clip-rule="evenodd" d="M27.9862 20.6084L29.4759 21.4647L27.9556 22.3386V20.6015L27.9862 20.6084Z" fill="#8F887C"/>
    <path fill-rule="evenodd" clip-rule="evenodd" d="M36.365 15.7927L37.8547 16.649L36.3344 17.5226V15.7855L36.365 15.7927Z" fill="#8F887C"/>
    <path fill-rule="evenodd" clip-rule="evenodd" d="M24.2717 49.2799V47.3024L24.7014 46.561L27.7114 44.8311V47.3024L24.2717 49.2799Z" fill="#9D968A"/>
    <path fill-rule="evenodd" clip-rule="evenodd" d="M46.9159 31.4883L48.4361 32.3618L46.9159 33.2357V31.4883Z" fill="#8F887C"/>
    <path fill-rule="evenodd" clip-rule="evenodd" d="M67.4829 41.6336L67.864 42.4715V44.3238L64.6678 42.4871V40.0158L67.4829 41.6336Z" fill="#9B978C"/>
    <path fill-rule="evenodd" clip-rule="evenodd" d="M59.7287 49.2799L59.2465 49.5569H55.4503L55.1092 48.9693L54.2493 48.4748L56.2886 47.3024L59.7287 49.2799Z" fill="#8F887C"/>
    <path fill-rule="evenodd" clip-rule="evenodd" d="M55.5389 49.9401L57.0592 50.814L55.5389 51.6876V49.9401Z" fill="#8F887C"/>
    <path fill-rule="evenodd" clip-rule="evenodd" d="M27.7114 47.3024L29.2316 48.1763L27.7419 49.0323L26.7039 49.2799H24.2717L27.7114 47.3024Z" fill="#8F887C"/>
    <path fill-rule="evenodd" clip-rule="evenodd" d="M80.9822 59.0953L81.842 59.5895L43.72 81.4996H42L58.125 72.2317L58.3397 72.3555L62.3971 70.0239V69.7763L80.9822 59.0953Z" fill="#696150"/>
    <path fill-rule="evenodd" clip-rule="evenodd" d="M27.8086 73.3432H26.0886L26.9485 72.8486L27.8086 73.3432Z" fill="#696150"/>
    <path fill-rule="evenodd" clip-rule="evenodd" d="M3.87799 53.1933L5.80542 54.301L6.02047 54.1779V52.3004L7.50495 53.1535L7.72 53.0304V50.906L7.93505 51.3794V53.5032L6.23552 52.5266V54.6507L3.87799 53.2957V53.1933Z" fill="#9B978C"/>
    <path fill-rule="evenodd" clip-rule="evenodd" d="M12.5917 61.8453L15.8345 63.709L16.6943 63.2148V62.216V57.2212L17.1244 58.1677V63.1833L17.5545 64.1292V65.1068L12.8436 62.3993L12.5917 61.8453Z" fill="#9B978C"/>
    <path fill-rule="evenodd" clip-rule="evenodd" d="M26.196 62.8634L26.411 62.7396V60.6159L26.6257 61.0886V63.2131L18.5116 58.5496L18.4487 58.4109L26.196 62.8634Z" fill="#9B978C"/>
    <path fill-rule="evenodd" clip-rule="evenodd" d="M24.3825 57.3256L24.5972 57.7991V59.5732L24.3825 59.4501V57.3256Z" fill="#9B978C"/>
    <path fill-rule="evenodd" clip-rule="evenodd" d="M26.9485 72.8486V67.1846L27.8086 69.0766V73.3432L26.9485 72.8486Z" fill="#9B978C"/>
    <path fill-rule="evenodd" clip-rule="evenodd" d="M42 77.5862V77.6882L36.0152 74.2485L35.9523 74.1102L42 77.5862Z" fill="#9B978C"/>
    <path fill-rule="evenodd" clip-rule="evenodd" d="M38.3102 68.081L42 70.2016V70.304L38.3727 68.2193L38.3102 68.081Z" fill="#9B978C"/>
    <path fill-rule="evenodd" clip-rule="evenodd" d="M24.3825 59.4501L24.5972 59.5732H24.1674L24.3825 59.4501Z" fill="#B5A084"/>
    <path fill-rule="evenodd" clip-rule="evenodd" d="M26.196 60.739L26.411 60.6159V62.7396L26.196 62.8634V60.739Z" fill="#8F887B"/>
    <path fill-rule="evenodd" clip-rule="evenodd" d="M62.3972 67.8994V70.0239L58.3398 72.3555V70.231L62.3972 67.8994Z" fill="#847E72"/>
    <path fill-rule="evenodd" clip-rule="evenodd" d="M58.3397 70.231V72.3555L58.125 72.2317V70.1079L58.3397 70.231Z" fill="#6F6A67"/>
    <path fill-rule="evenodd" clip-rule="evenodd" d="M60.3686 69.0652L58.3397 70.231L58.125 70.1079L60.1536 68.9421L60.3686 69.0652Z" fill="#8A8479"/>
    <path fill-rule="evenodd" clip-rule="evenodd" d="M78.1946 53.6937L80.5518 52.3384V54.4629L78.1946 55.8175V53.6937Z" fill="#847E72"/>
    <path fill-rule="evenodd" clip-rule="evenodd" d="M77.9795 55.6944V53.8172L78.1946 53.6937V55.8175L77.9795 55.6944Z" fill="#6F6A67"/>
    <path fill-rule="evenodd" clip-rule="evenodd" d="M42 26.8828L45.5759 24.8276V25.6579L42 27.7132V26.8828Z" fill="#997B43"/>
    <path fill-rule="evenodd" clip-rule="evenodd" d="M45.5759 24.8276L44.6528 25.3581H42L42.9231 24.8276V24.2971H44.6528L45.5759 24.8276Z" fill="#AB946B"/>
    <path fill-rule="evenodd" clip-rule="evenodd" d="M42 3.82766L42.9231 3.29784V24.8276L42 25.3581V3.82766Z" fill="#997B43"/>
    <path fill-rule="evenodd" clip-rule="evenodd" d="M42 75.4617L46.0574 73.1301V75.2539L42 77.5862V75.4617Z" fill="#847E72"/>
    <path fill-rule="evenodd" clip-rule="evenodd" d="M44.3575 73.8595L45.842 73.0063L46.0574 73.1301L44.3575 74.1071V73.8595Z" fill="#8A8479"/>
    <path fill-rule="evenodd" clip-rule="evenodd" d="M42 75.4617V73.3376L44.3575 71.9827V74.1071L42 75.4617Z" fill="#968E81"/>
    <path fill-rule="evenodd" clip-rule="evenodd" d="M44.3575 71.9827L42.4301 73.0904H42L44.1425 71.8589L44.3575 71.9827Z" fill="#8A8479"/>
    <path opacity="0.3" fill-rule="evenodd" clip-rule="evenodd" d="M26.2297 84.9365L29.8903 87.0405L20.3237 89.4738H18.3351L26.2297 84.9365Z" fill="black"/>
</svg>
