<svg width="265" height="310" viewBox="0 0 265 310" fill="none" xmlns="http://www.w3.org/2000/svg">
    <defs>
        <linearGradient id="paint0_linear_340_3816" x1="143.535" y1="177.185" x2="135.05"
            y2="253.428" gradientUnits="userSpaceOnUse">
            <stop offset="0.04" stop-color="#697489" />
            <stop offset="0.14" stop-color="#5E667A" />
            <stop offset="0.27" stop-color="#555B6E" />
            <stop offset="0.47" stop-color="#505567" />
            <stop offset="1" stop-color="#4F5466" />
        </linearGradient>
        <linearGradient id="paint1_linear_340_3816" x1="205.377" y1="125.553" x2="204.872"
            y2="130.055" gradientUnits="userSpaceOnUse">
            <stop offset="0.04" stop-color="#697489" />
            <stop offset="0.14" stop-color="#5E667A" />
            <stop offset="0.27" stop-color="#555B6E" />
            <stop offset="0.47" stop-color="#505567" />
            <stop offset="1" stop-color="#4F5466" />
        </linearGradient>
        <linearGradient id="paint2_linear_340_3816" x1="204.351" y1="108.837" x2="203.846"
            y2="113.339" gradientUnits="userSpaceOnUse">
            <stop offset="0.04" stop-color="#697489" />
            <stop offset="0.14" stop-color="#5E667A" />
            <stop offset="0.27" stop-color="#555B6E" />
            <stop offset="0.47" stop-color="#505567" />
            <stop offset="1" stop-color="#4F5466" />
        </linearGradient>
        <linearGradient id="paint3_linear_340_3816" x1="203.85" y1="92.3372" x2="203.441"
            y2="96.0009" gradientUnits="userSpaceOnUse">
            <stop offset="0.04" stop-color="#697489" />
            <stop offset="0.14" stop-color="#5E667A" />
            <stop offset="0.27" stop-color="#555B6E" />
            <stop offset="0.47" stop-color="#505567" />
            <stop offset="1" stop-color="#4F5466" />
        </linearGradient>
        <linearGradient id="paint4_linear_340_3816" x1="202.967" y1="77.2979" x2="202.606"
            y2="80.6024" gradientUnits="userSpaceOnUse">
            <stop offset="0.04" stop-color="#697489" />
            <stop offset="0.14" stop-color="#5E667A" />
            <stop offset="0.27" stop-color="#555B6E" />
            <stop offset="0.47" stop-color="#505567" />
            <stop offset="1" stop-color="#4F5466" />
        </linearGradient>
        <linearGradient id="paint5_linear_340_3816" x1="201.798" y1="62.6417" x2="201.486"
            y2="65.4912" gradientUnits="userSpaceOnUse">
            <stop offset="0.04" stop-color="#697489" />
            <stop offset="0.14" stop-color="#5E667A" />
            <stop offset="0.27" stop-color="#555B6E" />
            <stop offset="0.47" stop-color="#505567" />
            <stop offset="1" stop-color="#4F5466" />
        </linearGradient>
        <linearGradient id="paint6_linear_340_3816" x1="200.581" y1="48.4167" x2="200.317"
            y2="50.7873" gradientUnits="userSpaceOnUse">
            <stop offset="0.04" stop-color="#697489" />
            <stop offset="0.14" stop-color="#5E667A" />
            <stop offset="0.27" stop-color="#555B6E" />
            <stop offset="0.47" stop-color="#505567" />
            <stop offset="1" stop-color="#4F5466" />
        </linearGradient>
        <linearGradient id="paint7_linear_340_3816" x1="199.794" y1="33.8085" x2="199.529"
            y2="36.1792" gradientUnits="userSpaceOnUse">
            <stop offset="0.04" stop-color="#697489" />
            <stop offset="0.14" stop-color="#5E667A" />
            <stop offset="0.27" stop-color="#555B6E" />
            <stop offset="0.47" stop-color="#505567" />
            <stop offset="1" stop-color="#4F5466" />
        </linearGradient>
        <linearGradient id="paint8_linear_340_3816" x1="198.983" y1="15.9194" x2="198.718"
            y2="18.29" gradientUnits="userSpaceOnUse">
            <stop offset="0.04" stop-color="#697489" />
            <stop offset="0.14" stop-color="#5E667A" />
            <stop offset="0.27" stop-color="#555B6E" />
            <stop offset="0.47" stop-color="#505567" />
            <stop offset="1" stop-color="#4F5466" />
        </linearGradient>
        <linearGradient id="paint9_linear_340_3816" x1="200.366" y1="6.07674" x2="186.258"
            y2="133.085" gradientUnits="userSpaceOnUse">
            <stop offset="0.04" stop-color="#697489" />
            <stop offset="0.14" stop-color="#5E667A" />
            <stop offset="0.27" stop-color="#555B6E" />
            <stop offset="0.47" stop-color="#505567" />
            <stop offset="1" stop-color="#4F5466" />
        </linearGradient>
        <linearGradient id="paint10_linear_340_3816" x1="206.498" y1="148.088" x2="135.924"
            y2="148.088" gradientUnits="userSpaceOnUse">
            <stop stop-color="#4F5466" />
            <stop offset="0.49" stop-color="#505568" />
            <stop offset="0.72" stop-color="#565C6F" />
            <stop offset="0.89" stop-color="#5F687C" />
            <stop offset="1" stop-color="#697489" />
        </linearGradient>
        <linearGradient id="paint11_linear_340_3816" x1="180.754" y1="164.66" x2="160.498"
            y2="164.66" gradientUnits="userSpaceOnUse">
            <stop stop-color="#F2EFE6" />
            <stop offset="1" stop-color="#C4BFB0" />
        </linearGradient>
        <linearGradient id="paint12_linear_340_3816" x1="181.16" y1="152.518" x2="160.093"
            y2="152.518" gradientUnits="userSpaceOnUse">
            <stop stop-color="#FF8563" />
            <stop offset="1" stop-color="#B34D2D" />
        </linearGradient>
        <linearGradient id="paint13_linear_340_3816" x1="264.618" y1="128.115" x2="262.232"
            y2="128.115" gradientUnits="userSpaceOnUse">
            <stop stop-color="#F2EFE6" />
            <stop offset="1" stop-color="#C4BFB0" />
        </linearGradient>
        <linearGradient id="paint14_linear_340_3816" x1="180.754" y1="102.587" x2="160.498"
            y2="102.587" gradientUnits="userSpaceOnUse">
            <stop stop-color="#FF8563" />
            <stop offset="1" stop-color="#B34D2D" />
        </linearGradient>
        <linearGradient id="paint15_linear_340_3816" x1="180.23" y1="57.6127" x2="161.023"
            y2="57.6127" gradientUnits="userSpaceOnUse">
            <stop stop-color="#FF8563" />
            <stop offset="1" stop-color="#B34D2D" />
        </linearGradient>
        <linearGradient id="paint16_linear_340_3816" x1="178.87" y1="80.004" x2="162.383"
            y2="80.004" gradientUnits="userSpaceOnUse">
            <stop stop-color="#F2EFE6" />
            <stop offset="1" stop-color="#C4BFB0" />
        </linearGradient>
        <linearGradient id="paint17_linear_340_3816" x1="173.311" y1="82.0636" x2="167.751"
            y2="82.0636" gradientUnits="userSpaceOnUse">
            <stop stop-color="#6C6D69" />
            <stop offset="1" stop-color="#2C2A26" />
        </linearGradient>
        <linearGradient id="paint18_linear_340_3816" x1="173.311" y1="82.0875" x2="167.751"
            y2="82.0875" gradientUnits="userSpaceOnUse">
            <stop stop-color="#6C6D69" />
            <stop offset="1" stop-color="#2C2A26" />
        </linearGradient>
        <linearGradient id="paint19_linear_340_3816" x1="180.253" y1="47.6265" x2="160.975"
            y2="47.6265" gradientUnits="userSpaceOnUse">
            <stop stop-color="#F2EFE6" />
            <stop offset="1" stop-color="#C4BFB0" />
        </linearGradient>
        <linearGradient id="paint20_linear_340_3816" x1="173.31" y1="45.8543" x2="167.751"
            y2="45.8543" gradientUnits="userSpaceOnUse">
            <stop stop-color="#6C6D69" />
            <stop offset="1" stop-color="#2C2A26" />
        </linearGradient>
        <linearGradient id="paint21_linear_340_3816" x1="173.31" y1="51.8173" x2="167.751"
            y2="51.8173" gradientUnits="userSpaceOnUse">
            <stop stop-color="#6C6D69" />
            <stop offset="1" stop-color="#2C2A26" />
        </linearGradient>
        <linearGradient id="paint22_linear_340_3816" x1="180.253" y1="39.7954" x2="160.975"
            y2="39.7954" gradientUnits="userSpaceOnUse">
            <stop stop-color="#FF8563" />
            <stop offset="1" stop-color="#B34D2D" />
        </linearGradient>
        <linearGradient id="paint23_linear_340_3816" x1="180.253" y1="33.4732" x2="160.976"
            y2="33.4732" gradientUnits="userSpaceOnUse">
            <stop stop-color="#F2EFE6" />
            <stop offset="1" stop-color="#C4BFB0" />
        </linearGradient>
        <linearGradient id="paint24_linear_340_3816" x1="177.128" y1="26.217" x2="163.695"
            y2="26.217" gradientUnits="userSpaceOnUse">
            <stop stop-color="#6C6D69" />
            <stop offset="1" stop-color="#2C2A26" />
        </linearGradient>
        <linearGradient id="paint25_linear_340_3816" x1="178.631" y1="22.4332" x2="162.598"
            y2="22.4332" gradientUnits="userSpaceOnUse">
            <stop stop-color="#FF8563" />
            <stop offset="1" stop-color="#B34D2D" />
        </linearGradient>
        <linearGradient id="paint26_linear_340_3816" x1="178.631" y1="14.3388" x2="162.598"
            y2="14.3388" gradientUnits="userSpaceOnUse">
            <stop stop-color="#F2EFE6" />
            <stop offset="1" stop-color="#C4BFB0" />
        </linearGradient>
        <linearGradient id="paint27_linear_340_3816" x1="173.31" y1="4.13699" x2="167.751"
            y2="4.13699" gradientUnits="userSpaceOnUse">
            <stop stop-color="#6C6D69" />
            <stop offset="1" stop-color="#2C2A26" />
        </linearGradient>
        <linearGradient id="paint28_linear_340_3816" x1="163.886" y1="181.208" x2="147.734"
            y2="181.208" gradientUnits="userSpaceOnUse">
            <stop stop-color="#6C6D69" />
            <stop offset="1" stop-color="#2C2A26" />
        </linearGradient>
        <linearGradient id="paint29_linear_340_3816" x1="159.902" y1="139.083" x2="151.718"
            y2="139.083" gradientUnits="userSpaceOnUse">
            <stop stop-color="#E7E4DB" />
            <stop offset="1" stop-color="#C4BFB0" />
        </linearGradient>
        <linearGradient id="paint30_linear_340_3816" x1="159.544" y1="168.947" x2="151.838"
            y2="168.947" gradientUnits="userSpaceOnUse">
            <stop stop-color="#6C6D69" />
            <stop offset="1" stop-color="#2C2A26" />
        </linearGradient>
        <linearGradient id="paint31_linear_340_3816" x1="159.544" y1="162.145" x2="151.838"
            y2="162.145" gradientUnits="userSpaceOnUse">
            <stop stop-color="#6C6D69" />
            <stop offset="1" stop-color="#2C2A26" />
        </linearGradient>
        <linearGradient id="paint32_linear_340_3816" x1="159.544" y1="155.368" x2="151.838"
            y2="155.368" gradientUnits="userSpaceOnUse">
            <stop stop-color="#6C6D69" />
            <stop offset="1" stop-color="#2C2A26" />
        </linearGradient>
        <linearGradient id="paint33_linear_340_3816" x1="159.544" y1="106.443" x2="151.838"
            y2="106.443" gradientUnits="userSpaceOnUse">
            <stop stop-color="#6C6D69" />
            <stop offset="1" stop-color="#2C2A26" />
        </linearGradient>
        <linearGradient id="paint34_linear_340_3816" x1="159.902" y1="99.6652" x2="151.718"
            y2="99.6652" gradientUnits="userSpaceOnUse">
            <stop stop-color="#FF8563" />
            <stop offset="1" stop-color="#B34D2D" />
        </linearGradient>
        <linearGradient id="paint35_linear_340_3816" x1="193.495" y1="182.549" x2="177.319"
            y2="182.549" gradientUnits="userSpaceOnUse">
            <stop stop-color="#6C6D69" />
            <stop offset="1" stop-color="#2C2A26" />
        </linearGradient>
        <linearGradient id="paint36_linear_340_3816" x1="189.511" y1="140.425" x2="181.303"
            y2="140.425" gradientUnits="userSpaceOnUse">
            <stop stop-color="#E7E4DB" />
            <stop offset="1" stop-color="#C4BFB0" />
        </linearGradient>
        <linearGradient id="paint37_linear_340_3816" x1="189.153" y1="170.288" x2="181.423"
            y2="170.288" gradientUnits="userSpaceOnUse">
            <stop stop-color="#6C6D69" />
            <stop offset="1" stop-color="#2C2A26" />
        </linearGradient>
        <linearGradient id="paint38_linear_340_3816" x1="189.153" y1="163.511" x2="181.423"
            y2="163.511" gradientUnits="userSpaceOnUse">
            <stop stop-color="#6C6D69" />
            <stop offset="1" stop-color="#2C2A26" />
        </linearGradient>
        <linearGradient id="paint39_linear_340_3816" x1="189.153" y1="156.709" x2="181.423"
            y2="156.709" gradientUnits="userSpaceOnUse">
            <stop stop-color="#6C6D69" />
            <stop offset="1" stop-color="#2C2A26" />
        </linearGradient>
        <linearGradient id="paint40_linear_340_3816" x1="189.511" y1="107.784" x2="181.303"
            y2="107.784" gradientUnits="userSpaceOnUse">
            <stop stop-color="#6C6D69" />
            <stop offset="1" stop-color="#2C2A26" />
        </linearGradient>
        <linearGradient id="paint41_linear_340_3816" x1="189.511" y1="101.006" x2="181.303"
            y2="101.006" gradientUnits="userSpaceOnUse">
            <stop stop-color="#FF8563" />
            <stop offset="1" stop-color="#B34D2D" />
        </linearGradient>
        <linearGradient id="paint42_linear_340_3816" x1="178.703" y1="194.092" x2="162.526"
            y2="194.092" gradientUnits="userSpaceOnUse">
            <stop stop-color="#6C6D69" />
            <stop offset="1" stop-color="#2C2A26" />
        </linearGradient>
        <linearGradient id="paint43_linear_340_3816" x1="174.718" y1="151.967" x2="166.535"
            y2="151.967" gradientUnits="userSpaceOnUse">
            <stop stop-color="#E7E4DB" />
            <stop offset="1" stop-color="#C4BFB0" />
        </linearGradient>
        <linearGradient id="paint44_linear_340_3816" x1="174.36" y1="181.831" x2="166.654"
            y2="181.831" gradientUnits="userSpaceOnUse">
            <stop stop-color="#6C6D69" />
            <stop offset="1" stop-color="#2C2A26" />
        </linearGradient>
        <linearGradient id="paint45_linear_340_3816" x1="174.36" y1="175.053" x2="166.654"
            y2="175.053" gradientUnits="userSpaceOnUse">
            <stop stop-color="#6C6D69" />
            <stop offset="1" stop-color="#2C2A26" />
        </linearGradient>
        <linearGradient id="paint46_linear_340_3816" x1="174.36" y1="168.252" x2="166.654"
            y2="168.252" gradientUnits="userSpaceOnUse">
            <stop stop-color="#6C6D69" />
            <stop offset="1" stop-color="#2C2A26" />
        </linearGradient>
        <linearGradient id="paint47_linear_340_3816" x1="174.718" y1="119.327" x2="166.535"
            y2="119.327" gradientUnits="userSpaceOnUse">
            <stop stop-color="#6C6D69" />
            <stop offset="1" stop-color="#2C2A26" />
        </linearGradient>
        <linearGradient id="paint48_linear_340_3816" x1="174.718" y1="112.549" x2="166.511"
            y2="112.549" gradientUnits="userSpaceOnUse">
            <stop stop-color="#FF8563" />
            <stop offset="1" stop-color="#B34D2D" />
        </linearGradient>
        <linearGradient id="paint49_linear_340_3816" x1="208.121" y1="173.209" x2="133.991"
            y2="173.209" gradientUnits="userSpaceOnUse">
            <stop stop-color="#697489" />
            <stop offset="1" stop-color="#4F5466" />
        </linearGradient>
        <linearGradient id="paint50_linear_340_3816" x1="131.343" y1="212.556" x2="121.536"
            y2="300.724" gradientUnits="userSpaceOnUse">
            <stop offset="0.04" stop-color="#697489" />
            <stop offset="0.14" stop-color="#5E667A" />
            <stop offset="0.27" stop-color="#555B6E" />
            <stop offset="0.47" stop-color="#505567" />
            <stop offset="1" stop-color="#4F5466" />
        </linearGradient>
        <linearGradient id="paint51_linear_340_3816" x1="236.847" y1="229.415" x2="232.953"
            y2="264.328" gradientUnits="userSpaceOnUse">
            <stop offset="0.04" stop-color="#697489" />
            <stop offset="0.14" stop-color="#5E667A" />
            <stop offset="0.27" stop-color="#555B6E" />
            <stop offset="0.47" stop-color="#505567" />
            <stop offset="1" stop-color="#4F5466" />
        </linearGradient>
    </defs>
    <g style="mix-blend-mode:multiply">
        <path
            d="M246.151 267.229H226.396L179.371 294.027L172.332 310H112.995L-1.52588e-05 244.143L78.3285 199.432H204.947L246.151 267.229Z"
            fill="#A79891" />
    </g>
    <path d="M172.332 165.378V213.633L97.5826 256.62V208.365L172.332 165.378Z" fill="#7A879E" />
    <path d="M246.151 208.173V256.428L172.332 213.633V165.378L246.151 208.173Z" fill="#9F9A8D" />
    <path
        d="M241.427 211.143L246.39 208.269L172.356 165.354L100.78 206.832C96.4612 206.401 93.1926 203.216 93.622 200.414L172.356 154.793L264.618 208.269L248.347 217.705C244.291 216.723 242.143 214.567 241.427 211.143Z"
        fill="#9EAECC" />
    <path
        d="M241.427 211.143L246.39 208.269L172.356 165.354L100.78 206.832C96.4612 206.401 93.1926 203.216 93.622 200.414L172.356 154.793L264.618 208.269L248.347 217.705C244.291 216.723 242.143 214.567 241.427 211.143Z"
        fill="#9EAECC" />
    <path d="M172.332 143.298V178.071L118.459 209.059V174.287L172.332 143.298Z" fill="#E5DFD7" />
    <path d="M225.537 174.143V208.916L172.332 178.071V143.298L225.537 174.143Z" fill="#CCC6B6" />
    <path
        d="M115.62 168.563C117.314 170.12 119.127 171.557 120.773 173.185L119.008 174.215L172.356 205.132L222.15 176.275C223.51 178.167 225.275 179.651 227.136 180.992L172.356 212.723L105.862 174.191L115.62 168.539V168.563Z"
        fill="#9EAECC" />
    <path
        d="M222.126 176.299L225.704 174.239L172.356 143.322L120.773 173.209C117.648 172.898 115.31 170.599 115.62 168.587L172.356 135.707L238.851 174.239L227.136 181.04C224.201 180.346 222.651 178.789 222.15 176.323L222.126 176.299Z"
        fill="#9EAECC" />
    <path d="M172.332 212.771V260.715L105.838 222.183V174.215L172.332 212.771Z"
        fill="url(#paint0_linear_340_3816)" />
    <path d="M238.827 174.215V222.183L172.332 260.715V212.771L238.827 174.215Z" fill="#7A879E" />
    <path d="M225.848 156.206V167.773L172.499 137.503V125.266L225.848 156.206Z" fill="#D17D66" />
    <path d="M172.499 125.266V137.503L118.626 167.773L119.151 156.206L172.499 125.266Z"
        fill="#EB8D73" />
    <path
        d="M222.269 158.266L225.848 156.206L172.499 125.29L120.917 155.177C117.791 154.865 115.453 152.566 115.763 150.555L172.499 117.674L238.994 156.206L227.279 163.007C224.345 162.313 222.794 160.756 222.293 158.29L222.269 158.266Z"
        fill="#FF997D" />
    <path
        d="M171.044 191.889C150.58 191.889 133.991 182.271 133.991 170.407C133.991 158.544 150.58 148.926 171.044 148.926C191.508 148.926 208.097 158.544 208.097 170.407C208.097 182.271 191.508 191.889 171.044 191.889Z"
        fill="#4C5262" />
    <path
        d="M198.672 139.706L204.637 136.258L211.294 140.065L200.08 9.40552L196.215 11.6566L198.672 139.706Z"
        fill="#7A879E" />
    <path
        d="M204.589 132.282C202.919 133.264 201.559 132.665 201.559 130.989C201.559 130.079 201.965 129.049 202.585 128.139L206.522 130.414C205.997 131.157 205.329 131.851 204.589 132.282Z"
        fill="#9EAECC" />
    <path
        d="M204.589 126.2C206.259 125.218 207.619 125.816 207.619 127.493C207.619 128.427 207.166 129.504 206.498 130.438L202.561 128.163C203.086 127.373 203.778 126.655 204.566 126.2H204.589Z"
        fill="url(#paint1_linear_340_3816)" />
    <path
        d="M203.564 115.567C201.893 116.548 200.533 115.95 200.533 114.273C200.533 113.363 200.939 112.334 201.559 111.424L205.496 113.699C204.971 114.441 204.303 115.136 203.564 115.567Z"
        fill="#9EAECC" />
    <path
        d="M203.563 109.46C205.234 108.478 206.594 109.077 206.594 110.753C206.594 111.687 206.14 112.765 205.472 113.699L201.535 111.424C202.06 110.633 202.752 109.915 203.54 109.46H203.563Z"
        fill="url(#paint2_linear_340_3816)" />
    <path
        d="M203.206 97.8212C201.846 98.6115 200.724 98.1326 200.724 96.7675C200.724 96.0251 201.058 95.187 201.559 94.4446L204.756 96.3125C204.327 96.9352 203.802 97.486 203.182 97.8212H203.206Z"
        fill="#9EAECC" />
    <path
        d="M203.206 92.8641C204.566 92.0738 205.687 92.5527 205.687 93.9178C205.687 94.6841 205.329 95.5462 204.78 96.3365L201.583 94.4686C202.013 93.822 202.585 93.2472 203.229 92.8641H203.206Z"
        fill="url(#paint3_linear_340_3816)" />
    <path
        d="M202.394 82.2311C201.178 82.9495 200.176 82.5184 200.176 81.2971C200.176 80.6265 200.486 79.8842 200.939 79.2136L203.826 80.89C203.444 81.4408 202.967 81.9437 202.418 82.255L202.394 82.2311Z"
        fill="#9EAECC" />
    <path
        d="M202.394 77.7768C203.611 77.0584 204.613 77.4895 204.613 78.7108C204.613 79.4053 204.279 80.1716 203.802 80.8661L200.915 79.1898C201.297 78.615 201.822 78.0882 202.394 77.7529V77.7768Z"
        fill="url(#paint4_linear_340_3816)" />
    <path
        d="M201.297 66.9044C200.223 67.527 199.364 67.1439 199.364 66.0902C199.364 65.5154 199.627 64.8688 200.009 64.2941L202.49 65.7309C202.156 66.2099 201.75 66.641 201.273 66.9044H201.297Z"
        fill="#9EAECC" />
    <path
        d="M201.297 63.0488C202.371 62.4261 203.229 62.8093 203.229 63.863C203.229 64.4617 202.943 65.1323 202.514 65.731L200.032 64.2941C200.366 63.7912 200.82 63.3362 201.297 63.0488Z"
        fill="url(#paint5_linear_340_3816)" />
    <path
        d="M200.175 51.961C199.293 52.4639 198.577 52.1765 198.577 51.2904C198.577 50.8115 198.792 50.2846 199.126 49.8057L201.178 51.0031C200.891 51.3862 200.557 51.7454 200.175 51.9849V51.961Z"
        fill="#9EAECC" />
    <path
        d="M200.176 48.752C201.058 48.249 201.774 48.5364 201.774 49.4225C201.774 49.9254 201.535 50.4762 201.201 50.9791L199.15 49.7817C199.436 49.3746 199.794 48.9914 200.199 48.752H200.176Z"
        fill="url(#paint6_linear_340_3816)" />
    <path
        d="M199.388 37.3528C198.505 37.8557 197.79 37.5684 197.79 36.6823C197.79 36.2033 198.004 35.6765 198.338 35.1975L200.39 36.3949C200.104 36.7781 199.77 37.1373 199.388 37.3768V37.3528Z"
        fill="#9EAECC" />
    <path
        d="M199.388 34.1438C200.271 33.6409 200.987 33.9283 200.987 34.8143C200.987 35.3172 200.748 35.868 200.414 36.371L198.362 35.1736C198.649 34.7664 199.006 34.3833 199.412 34.1438H199.388Z"
        fill="url(#paint7_linear_340_3816)" />
    <path
        d="M198.577 19.4396C197.694 19.9425 196.978 19.6551 196.978 18.7691C196.978 18.2901 197.193 17.7633 197.527 17.2843L199.579 18.4817C199.293 18.8649 198.959 19.2241 198.577 19.4636V19.4396Z"
        fill="#9EAECC" />
    <path
        d="M198.577 16.2546C199.46 15.7517 200.176 16.0391 200.176 16.9252C200.176 17.4281 199.937 17.9789 199.603 18.4818L197.551 17.2844C197.837 16.8773 198.195 16.4941 198.601 16.2546H198.577Z"
        fill="url(#paint8_linear_340_3816)" />
    <path d="M196.215 11.6566L187.268 6.65149L185.526 132.091L198.672 139.706L196.215 11.6566Z"
        fill="url(#paint9_linear_340_3816)" />
    <path d="M191.133 4.40039L200.08 9.40551L196.215 11.6566L187.268 6.65149L191.133 4.40039Z"
        fill="#9EAECC" />
    <path d="M166.177 18.8649L175.124 23.87L196.215 11.6566L187.268 6.65149L166.177 18.8649Z"
        fill="#9EAECC" />
    <path d="M175.124 23.8701L175.195 28.5878L196.287 16.3504L196.215 11.6566L175.124 23.8701Z"
        fill="#7A879E" />
    <path d="M167.346 54.7868L177.557 60.3906L196.931 49.207L186.719 43.6031L167.346 54.7868Z"
        fill="#9EAECC" />
    <path d="M177.557 60.3906L177.653 65.9705L197.026 54.7868L196.931 49.2069L177.557 60.3906Z"
        fill="#7A879E" />
    <path
        d="M170.185 133.049C170.185 133.049 170.257 133.719 170.257 133.743C170.352 134.773 170.519 135.228 170.543 136.258C161.787 136.473 152.577 138.509 146.398 142.077L144.823 139.323C151.623 135.396 161.286 133.264 170.185 133.025V133.049Z"
        fill="#9EAECC" />
    <path
        d="M171.044 133.049C180.54 133.049 190.012 135.156 197.241 139.347L195.666 142.101C189.153 138.317 179.896 136.282 170.567 136.282C170.519 135.252 170.066 135.036 169.97 134.006C169.97 133.959 170.209 133.096 170.209 133.073H171.068L171.044 133.049Z"
        fill="#9EAECC" />
    <path
        d="M146.422 142.077C152.577 138.509 161.787 136.473 170.567 136.258C179.896 136.258 189.153 138.317 195.666 142.077C201.655 145.549 204.947 149.956 204.947 154.506C204.947 156.35 204.399 158.146 203.373 159.894C201.75 158.218 199.722 156.637 197.265 155.224C182.782 146.843 159.329 146.843 144.847 155.224C142.389 156.661 140.361 158.218 138.739 159.894C137.713 158.146 137.164 156.35 137.164 154.506C137.164 149.956 140.457 145.526 146.445 142.077H146.422Z"
        fill="url(#paint10_linear_340_3816)" />
    <path
        d="M170.614 156.637C165.014 156.637 160.474 154.011 160.474 150.77C160.474 147.53 165.014 144.903 170.614 144.903C176.215 144.903 180.754 147.53 180.754 150.77C180.754 154.011 176.215 156.637 170.614 156.637Z"
        fill="#F9F4F0" />
    <path
        d="M163.457 154.937C167.417 157.236 173.835 157.236 177.772 154.937C179.752 153.788 180.731 152.279 180.731 150.794V172.683C180.731 174.191 179.752 175.676 177.772 176.826C173.812 179.125 167.394 179.125 163.457 176.826C161.477 175.676 160.498 174.167 160.498 172.683V150.794C160.498 152.303 161.477 153.788 163.457 154.937Z"
        fill="url(#paint11_linear_340_3816)" />
    <path
        d="M163.171 143.777C159.067 146.172 159.067 150.028 163.171 152.399C167.274 154.793 173.955 154.793 178.058 152.399C182.162 150.004 182.162 146.148 178.058 143.777C173.955 141.383 167.274 141.383 163.171 143.777Z"
        fill="#FF997D" />
    <path
        d="M163.171 152.399C167.274 154.793 173.955 154.793 178.058 152.399C180.11 151.201 181.136 149.645 181.136 148.088V150.818C181.136 152.375 180.11 153.931 178.058 155.129C173.955 157.523 167.274 157.523 163.171 155.129C161.119 153.931 160.093 152.375 160.093 150.818V148.088C160.093 149.645 161.119 151.201 163.171 152.399Z"
        fill="url(#paint12_linear_340_3816)" />
    <path
        d="M163.457 107.089C167.417 109.388 173.835 109.388 177.772 107.089C179.752 105.94 180.731 104.431 180.731 102.946V147.417C180.731 148.926 179.752 150.411 177.772 151.56C173.812 153.859 167.394 153.859 163.457 151.56C161.477 150.411 160.498 148.902 160.498 147.417V102.946C160.498 104.455 161.477 105.94 163.457 107.089Z"
        fill="url(#paint13_linear_340_3816)" />
    <path
        d="M163.457 109.053V112.382C161.477 111.232 160.498 109.723 160.498 108.239V104.91C160.498 106.419 161.477 107.903 163.457 109.053Z"
        fill="#2D2926" />
    <path
        d="M180.754 104.91V108.239C180.754 109.747 179.776 111.232 177.796 112.382V109.053C179.776 107.903 180.754 106.395 180.754 104.91Z"
        fill="#5B534F" />
    <path
        d="M163.457 117.818V121.147C161.477 119.997 160.498 118.488 160.498 117.004V113.675C160.498 115.184 161.477 116.668 163.457 117.818Z"
        fill="#2D2926" />
    <path
        d="M180.754 113.651V116.98C180.754 118.488 179.776 119.973 177.796 121.123V117.794C179.776 116.644 180.754 115.136 180.754 113.651Z"
        fill="#5B534F" />
    <path
        d="M163.457 126.559V129.888C161.477 128.738 160.498 127.229 160.498 125.745V122.416C160.498 123.924 161.477 125.409 163.457 126.559Z"
        fill="#2D2926" />
    <path
        d="M180.754 122.416V125.745C180.754 127.253 179.776 128.738 177.796 129.888V126.559C179.776 125.409 180.754 123.901 180.754 122.416Z"
        fill="#5B534F" />
    <path
        d="M160.689 101.797L162.55 96.3364H178.726L180.587 101.797C181.208 103.641 180.301 105.652 177.82 107.089C173.859 109.388 167.441 109.388 163.505 107.089C161.023 105.652 160.093 103.664 160.737 101.797H160.689Z"
        fill="url(#paint14_linear_340_3816)" />
    <path
        d="M161.023 52.7992H180.23L178.846 58.1156C178.679 59.1933 177.868 60.2231 176.46 61.0373C173.239 62.9052 168.014 62.9052 164.793 61.0373C163.385 60.2231 162.598 59.1933 162.407 58.1156L161.023 52.7992Z"
        fill="url(#paint15_linear_340_3816)" />
    <path
        d="M162.407 58.0917C162.574 59.1693 163.385 60.1991 164.793 61.0133C168.014 62.8813 173.239 62.8813 176.46 61.0133C177.868 60.1991 178.655 59.1693 178.846 58.0917L178.893 57.948V97.2705C178.893 98.4918 178.082 99.7132 176.484 100.647C173.263 102.515 168.038 102.515 164.817 100.647C163.218 99.7132 162.407 98.4918 162.407 97.2705V57.948L162.455 58.0917H162.407Z"
        fill="url(#paint16_linear_340_3816)" />
    <path
        d="M162.407 68.1976C162.574 69.2753 163.385 70.3051 164.793 71.1193V91.3553C163.194 90.4213 162.383 89.2 162.383 87.9786V68.054L162.431 68.1976H162.407Z"
        fill="#2D2926" />
    <path
        d="M178.822 68.1976L178.87 68.054V87.9786C178.87 89.2 178.058 90.4213 176.46 91.3553V71.1193C177.868 70.3051 178.655 69.2753 178.846 68.1976H178.822Z"
        fill="#5B534F" />
    <path
        d="M173.573 72.197V91.6667C171.664 92.0977 169.565 92.0977 167.656 91.6667V72.197C169.565 72.6281 171.664 72.6281 173.573 72.197Z"
        fill="url(#paint17_linear_340_3816)" />
    <path
        d="M173.573 72.197V91.6667C171.664 92.0977 169.565 92.0977 167.656 91.6667V72.197C169.565 72.6281 171.664 72.6281 173.573 72.197Z"
        fill="url(#paint18_linear_340_3816)" />
    <path
        d="M170.614 42.9805C165.291 42.9805 160.975 40.4823 160.975 37.4007C160.975 34.319 165.291 31.8208 170.614 31.8208C175.938 31.8208 180.253 34.319 180.253 37.4007C180.253 40.4823 175.938 42.9805 170.614 42.9805Z"
        fill="#F9F4F0" />
    <path
        d="M163.791 41.3522C167.561 43.5314 173.668 43.5314 177.438 41.3522C179.323 40.2506 180.253 38.8376 180.253 37.4008V52.2724C180.253 53.7093 179.323 55.1222 177.438 56.2238C173.668 58.4031 167.561 58.4031 163.791 56.2238C161.906 55.1222 160.975 53.7093 160.975 52.2724V37.4008C160.975 38.8376 161.906 40.2506 163.791 41.3522Z"
        fill="url(#paint19_linear_340_3816)" />
    <path
        d="M173.573 44.7288V46.7164C171.64 47.0757 169.589 47.0757 167.656 46.7164V44.7288C169.565 45.088 171.64 45.088 173.573 44.7288Z"
        fill="url(#paint20_linear_340_3816)" />
    <path
        d="M173.573 47.363V56.0082C171.64 56.3675 169.589 56.3675 167.656 56.0082V47.363C169.565 47.7223 171.64 47.7223 173.573 47.363Z"
        fill="url(#paint21_linear_340_3816)" />
    <path
        d="M163.791 39.6996C167.561 41.8788 173.668 41.8788 177.438 39.6996C179.323 38.598 180.253 37.185 180.253 35.7482V38.2627C180.253 39.6996 179.323 41.1125 177.438 42.2141C173.668 44.3934 167.561 44.3934 163.791 42.2141C161.906 41.1125 160.975 39.6996 160.975 38.2627V35.7482C160.975 37.185 161.906 38.598 163.791 39.6996Z"
        fill="url(#paint22_linear_340_3816)" />
    <path
        d="M160.999 35.4369L163.505 25.6183H177.748L180.253 35.4369C180.397 36.9696 179.466 38.5262 177.462 39.6997C173.692 41.8789 167.584 41.8789 163.815 39.6997C161.787 38.5262 160.88 36.9696 161.023 35.4369H160.999Z"
        fill="url(#paint23_linear_340_3816)" />
    <path
        d="M165.58 25.3788C168.372 26.9833 172.881 26.9833 175.673 25.3788C177.056 24.5646 177.772 23.5109 177.772 22.4572V25.8578C177.772 26.9115 177.08 27.9652 175.673 28.7794C172.881 30.3839 168.372 30.3839 165.58 28.7794C164.196 27.9652 163.481 26.9115 163.481 25.8578V22.4572C163.481 23.5109 164.173 24.5646 165.58 25.3788Z"
        fill="url(#paint24_linear_340_3816)" />
    <path
        d="M164.936 18.7452C161.811 20.5652 161.811 23.5108 164.936 25.3308C168.062 27.1509 173.144 27.1509 176.293 25.3308C179.418 23.5108 179.418 20.5652 176.293 18.7452C173.167 16.9251 168.085 16.9251 164.936 18.7452Z"
        fill="#F9F4F0" />
    <path
        d="M164.936 15.0093C161.811 16.8294 161.811 19.775 164.936 21.595C168.062 23.415 173.144 23.415 176.293 21.595C179.418 19.775 179.418 16.8294 176.293 15.0093C173.167 13.1893 168.085 13.1893 164.936 15.0093Z"
        fill="#F9F4F0" />
    <path
        d="M164.936 21.4992C168.062 23.3193 173.144 23.3193 176.293 21.4992C177.868 20.5892 178.631 19.3918 178.631 18.2184V22.0501C178.631 23.2474 177.844 24.4209 176.293 25.3309C173.167 27.151 168.085 27.151 164.936 25.3309C163.361 24.4209 162.598 23.2235 162.598 22.0501V18.2184C162.598 19.4158 163.385 20.5892 164.936 21.4992Z"
        fill="url(#paint25_linear_340_3816)" />
    <path
        d="M162.622 17.7873L167.656 5.78943V5.98101C167.656 6.43602 167.918 6.86708 168.515 7.2263C169.66 7.89685 171.545 7.89685 172.69 7.2263C173.287 6.89103 173.573 6.43602 173.549 5.98101V5.78943L178.583 17.7873C178.798 19.1284 178.035 20.4935 176.269 21.4993C173.144 23.3193 168.062 23.3193 164.912 21.4993C163.147 20.4695 162.383 19.1045 162.598 17.7873H162.622Z"
        fill="url(#paint26_linear_340_3816)" />
    <path
        d="M176.078 11.968V11.7764L178.583 17.7873C178.798 19.1284 178.035 20.4934 176.269 21.4992L175.195 13.1893C175.792 12.854 176.078 12.399 176.054 11.944L176.078 11.968Z"
        fill="#5B534F" />
    <path
        d="M165.151 11.968V11.7764L162.646 17.7873C162.431 19.1284 163.194 20.4934 164.96 21.4992L166.034 13.1893C165.437 12.854 165.151 12.399 165.175 11.944L165.151 11.968Z"
        fill="#2D2926" />
    <path
        d="M167.68 5.98098L169.636 0.5448H171.64L173.597 5.98098C173.597 6.43599 173.334 6.86705 172.738 7.22627C171.593 7.89681 169.708 7.89681 168.563 7.22627C167.966 6.891 167.68 6.43599 167.704 5.98098H167.68Z"
        fill="url(#paint27_linear_340_3816)" />
    <path
        d="M169.923 0.161648C169.541 0.37718 169.541 0.760346 169.923 0.975878C170.304 1.19141 170.948 1.19141 171.33 0.975878C171.712 0.760346 171.712 0.37718 171.33 0.161648C170.948 -0.0538828 170.304 -0.0538828 169.923 0.161648Z"
        fill="#7B7A76" />
    <path
        d="M147.901 183.914L151.814 172.85H159.83L163.743 183.914C164.268 185.399 163.528 187.003 161.548 188.177C158.399 189.997 153.269 189.997 150.12 188.177C148.116 187.027 147.4 185.399 147.925 183.914H147.901Z"
        fill="url(#paint28_linear_340_3816)" />
    <path
        d="M152.911 171.653C151.313 172.587 151.313 174.071 152.911 175.005C154.51 175.939 157.11 175.939 158.709 175.005C160.307 174.071 160.307 172.587 158.709 171.653C157.11 170.719 154.51 170.719 152.911 171.653Z"
        fill="#F9F4F0" />
    <path
        d="M152.911 103.952C154.51 104.886 157.11 104.886 158.709 103.952C159.52 103.497 159.902 102.874 159.902 102.276V173.473C159.902 174.071 159.496 174.694 158.709 175.149C157.11 176.083 154.51 176.083 152.911 175.149C152.1 174.694 151.718 174.071 151.718 173.473V102.276C151.718 102.874 152.124 103.497 152.911 103.952Z"
        fill="url(#paint29_linear_340_3816)" />
    <path
        d="M152.911 168.396C154.51 169.33 157.11 169.33 158.709 168.396C159.52 167.941 159.902 167.318 159.902 166.719V168.827C159.902 169.426 159.496 170.048 158.709 170.503C157.11 171.437 154.51 171.437 152.911 170.503C152.1 170.048 151.718 169.426 151.718 168.827V166.719C151.718 167.318 152.124 167.941 152.911 168.396Z"
        fill="url(#paint30_linear_340_3816)" />
    <path
        d="M152.911 161.595C154.51 162.529 157.11 162.529 158.709 161.595C159.52 161.14 159.902 160.517 159.902 159.918V162.026C159.902 162.624 159.496 163.247 158.709 163.702C157.11 164.636 154.51 164.636 152.911 163.702C152.1 163.247 151.718 162.624 151.718 162.026V159.918C151.718 160.517 152.124 161.14 152.911 161.595Z"
        fill="url(#paint31_linear_340_3816)" />
    <path
        d="M152.911 154.793C154.51 155.727 157.11 155.727 158.709 154.793C159.52 154.338 159.902 153.716 159.902 153.117V155.224C159.902 155.823 159.496 156.446 158.709 156.901C157.11 157.835 154.51 157.835 152.911 156.901C152.1 156.446 151.718 155.823 151.718 155.224V153.117C151.718 153.716 152.124 154.338 152.911 154.793Z"
        fill="url(#paint32_linear_340_3816)" />
    <path
        d="M152.911 106.323C154.51 107.257 157.11 107.257 158.709 106.323C159.52 105.868 159.902 105.245 159.902 104.646V105.868C159.902 106.467 159.496 107.089 158.709 107.544C157.11 108.478 154.51 108.478 152.911 107.544C152.1 107.089 151.718 106.467 151.718 105.868V104.646C151.718 105.245 152.124 105.868 152.911 106.323Z"
        fill="url(#paint33_linear_340_3816)" />
    <path
        d="M151.885 101.701L155.512 94.5643H156.132L159.759 101.701C160.164 102.515 159.806 103.401 158.709 104.048C157.11 104.982 154.51 104.982 152.911 104.048C151.814 103.401 151.456 102.515 151.885 101.701Z"
        fill="url(#paint34_linear_340_3816)" />
    <path
        d="M155.583 94.3968C155.464 94.4686 155.464 94.5884 155.583 94.6602C155.703 94.7321 155.917 94.7321 156.037 94.6602C156.156 94.5884 156.156 94.4686 156.037 94.3968C155.917 94.3249 155.703 94.3249 155.583 94.3968Z"
        fill="#FF997D" />
    <path
        d="M177.486 185.255L181.399 174.191H189.415L193.328 185.255C193.853 186.74 193.113 188.344 191.133 189.518C187.984 191.338 182.854 191.338 179.705 189.518C177.701 188.368 176.985 186.74 177.51 185.255H177.486Z"
        fill="url(#paint35_linear_340_3816)" />
    <path
        d="M182.52 172.994C180.921 173.928 180.921 175.413 182.52 176.347C184.119 177.28 186.719 177.28 188.318 176.347C189.916 175.413 189.916 173.928 188.318 172.994C186.719 172.06 184.119 172.06 182.52 172.994Z"
        fill="#F9F4F0" />
    <path
        d="M182.52 105.317C184.119 106.251 186.719 106.251 188.318 105.317C189.129 104.862 189.511 104.239 189.511 103.641V174.838C189.511 175.437 189.105 176.059 188.318 176.514C186.719 177.448 184.119 177.448 182.52 176.514C181.709 176.059 181.327 175.437 181.327 174.838V103.641C181.327 104.239 181.733 104.862 182.52 105.317Z"
        fill="url(#paint36_linear_340_3816)" />
    <path
        d="M182.52 169.737C184.119 170.671 186.719 170.671 188.318 169.737C189.129 169.282 189.511 168.659 189.511 168.061V170.168C189.511 170.767 189.105 171.389 188.318 171.844C186.719 172.778 184.119 172.778 182.52 171.844C181.709 171.389 181.327 170.767 181.327 170.168V168.061C181.327 168.659 181.733 169.282 182.52 169.737Z"
        fill="url(#paint37_linear_340_3816)" />
    <path
        d="M182.52 162.936C184.119 163.87 186.719 163.87 188.318 162.936C189.129 162.481 189.511 161.858 189.511 161.259V163.367C189.511 163.966 189.105 164.588 188.318 165.043C186.719 165.977 184.119 165.977 182.52 165.043C181.709 164.588 181.327 163.966 181.327 163.367V161.259C181.327 161.858 181.733 162.481 182.52 162.936Z"
        fill="url(#paint38_linear_340_3816)" />
    <path
        d="M182.52 156.134C184.119 157.068 186.719 157.068 188.318 156.134C189.129 155.679 189.511 155.057 189.511 154.458V156.566C189.511 157.164 189.105 157.787 188.318 158.242C186.719 159.176 184.119 159.176 182.52 158.242C181.709 157.787 181.327 157.164 181.327 156.566V154.458C181.327 155.057 181.733 155.679 182.52 156.134Z"
        fill="url(#paint39_linear_340_3816)" />
    <path
        d="M182.52 107.664C184.119 108.598 186.719 108.598 188.318 107.664C189.129 107.209 189.511 106.586 189.511 105.988V107.209C189.511 107.808 189.105 108.43 188.318 108.885C186.719 109.819 184.119 109.819 182.52 108.885C181.709 108.43 181.327 107.808 181.327 107.209V105.988C181.327 106.586 181.733 107.209 182.52 107.664Z"
        fill="url(#paint40_linear_340_3816)" />
    <path
        d="M181.47 103.042L185.097 95.9055H185.717L189.344 103.042C189.749 103.856 189.391 104.742 188.294 105.389C186.695 106.323 184.095 106.323 182.496 105.389C181.399 104.742 181.041 103.856 181.47 103.042Z"
        fill="url(#paint41_linear_340_3816)" />
    <path
        d="M185.168 95.7378C185.049 95.8097 185.049 95.9294 185.168 96.0013C185.288 96.0731 185.502 96.0731 185.622 96.0013C185.741 95.9294 185.741 95.8097 185.622 95.7378C185.502 95.666 185.288 95.666 185.168 95.7378Z"
        fill="#FF997D" />
    <path
        d="M162.693 196.798L166.606 185.734H174.623L178.536 196.798C179.06 198.283 178.321 199.887 176.341 201.061C173.191 202.881 168.062 202.881 164.912 201.061C162.908 199.911 162.192 198.283 162.717 196.798H162.693Z"
        fill="url(#paint42_linear_340_3816)" />
    <path
        d="M170.614 188.584C168.348 188.584 166.511 187.523 166.511 186.213C166.511 184.904 168.348 183.842 170.614 183.842C172.881 183.842 174.718 184.904 174.718 186.213C174.718 187.523 172.881 188.584 170.614 188.584Z"
        fill="#F9F4F0" />
    <path
        d="M167.728 116.86C169.326 117.794 171.927 117.794 173.525 116.86C174.336 116.405 174.718 115.782 174.718 115.183V186.381C174.718 186.979 174.313 187.602 173.525 188.057C171.927 188.991 169.326 188.991 167.728 188.057C166.916 187.602 166.535 186.979 166.535 186.381V115.183C166.535 115.782 166.94 116.405 167.728 116.86Z"
        fill="url(#paint43_linear_340_3816)" />
    <path
        d="M167.728 181.28C169.326 182.214 171.927 182.214 173.525 181.28C174.336 180.825 174.718 180.202 174.718 179.604V181.711C174.718 182.31 174.313 182.932 173.525 183.387C171.927 184.321 169.326 184.321 167.728 183.387C166.916 182.932 166.535 182.31 166.535 181.711V179.604C166.535 180.202 166.94 180.825 167.728 181.28Z"
        fill="url(#paint44_linear_340_3816)" />
    <path
        d="M167.728 174.479C169.326 175.413 171.927 175.413 173.525 174.479C174.336 174.024 174.718 173.401 174.718 172.802V174.91C174.718 175.508 174.313 176.131 173.525 176.586C171.927 177.52 169.326 177.52 167.728 176.586C166.916 176.131 166.535 175.508 166.535 174.91V172.802C166.535 173.401 166.94 174.024 167.728 174.479Z"
        fill="url(#paint45_linear_340_3816)" />
    <path
        d="M167.728 167.677C169.326 168.611 171.927 168.611 173.525 167.677C174.336 167.222 174.718 166.6 174.718 166.001V168.109C174.718 168.707 174.313 169.33 173.525 169.785C171.927 170.719 169.326 170.719 167.728 169.785C166.916 169.33 166.535 168.707 166.535 168.109V166.001C166.535 166.6 166.94 167.222 167.728 167.677Z"
        fill="url(#paint46_linear_340_3816)" />
    <path
        d="M167.728 119.207C169.326 120.141 171.927 120.141 173.525 119.207C174.336 118.752 174.718 118.129 174.718 117.531V118.752C174.718 119.351 174.313 119.973 173.525 120.428C171.927 121.362 169.326 121.362 167.728 120.428C166.916 119.973 166.535 119.351 166.535 118.752V117.531C166.535 118.129 166.94 118.752 167.728 119.207Z"
        fill="url(#paint47_linear_340_3816)" />
    <path
        d="M166.678 114.585L170.304 107.448H170.925L174.551 114.585C174.957 115.399 174.599 116.285 173.501 116.932C171.903 117.866 169.302 117.866 167.704 116.932C166.606 116.285 166.248 115.399 166.678 114.585Z"
        fill="url(#paint48_linear_340_3816)" />
    <path
        d="M170.4 107.281C170.28 107.353 170.28 107.472 170.4 107.544C170.519 107.616 170.734 107.616 170.853 107.544C170.972 107.472 170.972 107.353 170.853 107.281C170.734 107.209 170.519 107.209 170.4 107.281Z"
        fill="#FF997D" />
    <path
        d="M144.847 139.323L146.422 142.077C140.433 145.549 137.141 149.956 137.141 154.506C137.141 159.056 140.433 163.486 146.422 166.935C152.959 170.719 161.691 172.802 171.044 172.802C180.397 172.802 189.153 170.719 195.666 166.935C201.655 163.462 204.947 159.056 204.947 154.506C204.947 149.956 201.655 145.526 195.666 142.077L197.241 139.323C211.723 147.705 211.723 161.307 197.241 169.689C190.012 173.88 180.516 175.987 171.044 175.987C161.572 175.987 152.076 173.88 144.847 169.689C130.365 161.307 130.365 147.705 144.847 139.323Z"
        fill="#9EAECC" />
    <path
        d="M144.847 169.713C152.076 173.904 161.572 176.011 171.044 176.011C180.516 176.011 190.012 173.904 197.241 169.713C204.47 165.522 208.097 160.014 208.097 154.53V170.431L208.049 170.503C208.025 175.963 204.446 181.424 197.241 185.614C190.012 189.805 180.516 191.913 171.044 191.913C161.572 191.913 152.076 189.805 144.847 185.614C137.642 181.448 134.063 175.963 134.039 170.503L133.991 170.431V154.53C133.991 160.038 137.618 165.522 144.847 169.713Z"
        fill="url(#paint49_linear_340_3816)" />
    <path
        d="M115.763 150.531C117.457 152.087 119.27 153.524 120.917 155.153L119.151 156.182L172.499 187.099L222.293 158.242C223.653 160.134 225.418 161.619 227.279 162.96L172.499 194.691L106.005 156.158L115.763 150.507V150.531Z"
        fill="#FF997D" />
    <path d="M172.499 194.738V208.796L106.005 170.264V156.206L172.499 194.738Z" fill="#D17D66" />
    <path d="M238.994 156.206V170.264L172.499 208.796V194.738L238.994 156.206Z" fill="#EB8D73" />
    <path
        d="M93.622 200.414C95.984 202.569 98.5131 204.581 100.78 206.832L98.3222 208.269L172.356 251.184L241.451 211.143C243.36 213.777 245.794 215.813 248.37 217.705L172.356 261.745L80.0702 208.269L93.622 200.414Z"
        fill="#9EAECC" />
    <path d="M116.025 230.78L121.489 251.974L97.4156 266.582V238.036L116.025 230.78Z"
        fill="#7A879E" />
    <path
        d="M80.0464 208.269L172.332 261.745V310L148.306 296.086V267.516L97.4156 238.036V266.582L80.0464 256.524V208.269Z"
        fill="url(#paint50_linear_340_3816)" />
    <path d="M145.968 245.388L153.15 249.555L160.307 245.388L153.15 241.245L145.968 245.388Z"
        fill="#2A2F3A" />
    <path d="M153.15 211.885V248.741L147.09 245.221V208.365L153.15 211.885Z" fill="#D17D66" />
    <path d="M159.21 208.365V245.221L153.15 248.741V211.885L159.21 208.365Z" fill="#EB8D73" />
    <path d="M161.882 206.808V212.388L159.21 213.945V208.365L161.882 206.808Z" fill="#EB8D73" />
    <path d="M147.09 208.365L153.15 211.885L159.21 208.365L153.15 204.869L147.09 208.365Z"
        fill="#FF997D" />
    <path d="M153.15 204.869L159.21 208.365L161.882 206.808L155.822 203.312L153.15 204.869Z"
        fill="#FF997D" />
    <path d="M183.618 245.939L190.775 250.082L197.957 245.939L190.775 241.772L183.618 245.939Z"
        fill="#2A2F3A" />
    <path d="M190.775 212.436V249.292L184.715 245.772V208.916L190.775 212.436Z" fill="#D17D66" />
    <path d="M196.835 208.916V245.772L190.775 249.292V212.436L196.835 208.916Z" fill="#EB8D73" />
    <path d="M184.715 208.916L190.775 212.436L196.835 208.916L190.775 205.395L184.715 208.916Z"
        fill="#FF997D" />
    <path d="M182.067 207.455L182.019 212.915L184.715 214.448L184.787 208.964L182.067 207.455Z"
        fill="#D17D66" />
    <path d="M190.775 205.395L184.787 208.964L182.067 207.455L188.079 203.887L190.775 205.395Z"
        fill="#FF997D" />
    <path d="M228.305 220.482L235.487 224.649L242.644 220.482L235.487 216.339L228.305 220.482Z"
        fill="#2A2F3A" />
    <path d="M235.487 186.979V223.835L229.427 220.339V183.483L235.487 186.979Z" fill="#D17D66" />
    <path d="M241.547 183.483V220.339L235.487 223.835V186.979L241.547 183.483Z" fill="#EB8D73" />
    <path d="M229.427 183.483L235.487 186.979L241.547 183.483L235.487 179.963L229.427 183.483Z"
        fill="#FF997D" />
    <path d="M226.778 181.998L226.73 187.482L229.426 188.991L229.498 183.531L226.778 181.998Z"
        fill="#D17D66" />
    <path d="M235.487 179.963L229.498 183.531L226.778 181.998L232.791 178.454L235.487 179.963Z"
        fill="#FF997D" />
    <path d="M106.53 222.542L113.711 226.685L120.869 222.542L113.711 218.375L106.53 222.542Z"
        fill="#2A2F3A" />
    <path d="M113.711 189.039V225.895L107.651 222.374V185.519L113.711 189.039Z" fill="#D17D66" />
    <path d="M119.771 185.519V222.374L113.711 225.895V189.039L119.771 185.519Z" fill="#EB8D73" />
    <path d="M122.444 183.962V189.542L119.771 191.098V185.519L122.444 183.962Z" fill="#EB8D73" />
    <path d="M107.651 185.518L113.711 189.039L119.771 185.518L113.711 182.022L107.651 185.518Z"
        fill="#FF997D" />
    <path d="M113.711 182.022L119.771 185.518L122.444 183.962L116.383 180.442L113.711 182.022Z"
        fill="#FF997D" />
    <path d="M246.151 238.898V267.229L220.766 252.788L228.949 229.104L246.151 238.898Z"
        fill="url(#paint51_linear_340_3816)" />
    <path
        d="M172.332 261.745L264.618 208.269V256.524L246.151 267.229V238.898L195.261 268.378V296.733L172.332 310V261.745Z"
        fill="#7A879E" />
</svg>