<svg width="99" height="50" viewBox="0 0 99 50" fill="none" xmlns="http://www.w3.org/2000/svg"><defs><linearGradient id="b" x1="34.008" y1="18.475" x2="58.353" y2="44.65" gradientUnits="userSpaceOnUse"><stop stop-color="#9CB8C6"/><stop offset="1" stop-color="#636D76"/></linearGradient><linearGradient id="c" x1="55.971" y1="21.904" x2="65.944" y2="33.798" gradientUnits="userSpaceOnUse"><stop stop-color="#9CB8C6"/><stop offset="1" stop-color="#636D76"/></linearGradient><linearGradient id="d" x1="31.633" y1="22.365" x2="43.842" y2="43.568" gradientUnits="userSpaceOnUse"><stop stop-color="#9CB8C6"/><stop offset="1" stop-color="#636D76"/></linearGradient><linearGradient id="e" x1="12.844" y1="36.415" x2="24.554" y2="44.193" gradientUnits="userSpaceOnUse"><stop stop-color="#9CB8C6"/><stop offset=".3" stop-color="#99B1C0"/><stop offset="1" stop-color="#95A6B8"/></linearGradient><linearGradient id="f" x1="91.552" y1=".971" x2="81.159" y2="19.484" gradientUnits="userSpaceOnUse"><stop stop-color="#9CB8C6"/><stop offset=".4" stop-color="#80949F"/><stop offset=".78" stop-color="#6B7781"/><stop offset="1" stop-color="#636D76"/></linearGradient><linearGradient id="g" x1="91.552" y1=".971" x2="81.159" y2="19.484" gradientUnits="userSpaceOnUse"><stop stop-color="#9CB8C6"/><stop offset=".4" stop-color="#80949F"/><stop offset=".78" stop-color="#6B7781"/><stop offset="1" stop-color="#636D76"/></linearGradient><linearGradient id="h" x1="90.153" y1="4.089" x2="78.657" y2="16.947" gradientUnits="userSpaceOnUse"><stop stop-color="#9CB8C6"/><stop offset="1" stop-color="#636D76"/></linearGradient><linearGradient id="i" x1="70.411" y1="7.05" x2="73.436" y2="9.356" gradientUnits="userSpaceOnUse"><stop stop-color="#9CB8C6"/><stop offset=".4" stop-color="#80949F"/><stop offset=".78" stop-color="#6B7781"/><stop offset="1" stop-color="#636D76"/></linearGradient><linearGradient id="j" x1="33.711" y1="43.361" x2="49.719" y2="40.691" gradientUnits="userSpaceOnUse"><stop stop-color="#9CB8C6"/><stop offset=".4" stop-color="#80949F"/><stop offset=".78" stop-color="#6B7781"/><stop offset="1" stop-color="#636D76"/></linearGradient><linearGradient id="k" x1="37.211" y1="42.33" x2="51.707" y2="42.33" gradientUnits="userSpaceOnUse"><stop stop-color="#9CB8C6"/><stop offset=".4" stop-color="#80949F"/><stop offset=".78" stop-color="#6B7781"/><stop offset="1" stop-color="#636D76"/></linearGradient><clipPath id="a"><path fill="#fff" d="M0 0h99v50H0z"/></clipPath></defs><g clip-path="url(#a)"><path d="M.065 46.835c-.89 1.788 7.43 5.748 24.163.675 8.565-2.596 18.462-9.051 31.342-16.35 12.88-7.297 26.012-16.683 29.132-19.95 3.12-3.268-.27-4.519-3.579-4.434-3.309.085-13.75.745-29.35 5.713-5.666 1.805-19.369 8.506-31.374 16.245-1.414.912-2.859 1.156-4.21 2.09-1.947 1.346-3.758 3.392-5.493 4.752C5.697 39.496 1.775 43.4.065 46.836Z" fill="url(#b)"/><path d="M85.884 8.542c-.012 0-4.957.133-11.15 1.272-6.199 1.14-15.118 8.628-18.514 11.76-3.395 3.133-8.712 9.977-12.54 12.514-3.827 2.537-10.237 6.144-10.623 7.511-.386 1.367-.35 1.215-.386 1.367-.089.374 4.915-2.428 10.773-5.187 6.388-3.01 19.417-10.608 21.928-13.368 2.511-2.76 7.28-6.047 10.378-7.536 1.246-.599 3.043-1.23 4.781-2.107 1.928-1.494 3.375-2.725 4.172-3.558.29-.304.523-.59.706-.86.242-.55.407-1.15.475-1.806v-.001Z" fill="url(#c)"/><path d="M10.696 35.576C5.89 39.346 2.078 43.1.272 46.437c3.524 1.692 14.812-1.573 21.954-5.604 8.823-4.98 45.576-28.433 47.162-30.707.774-1.111-.816-1.542-4.032-1.26-3.93.834-8.48 1.998-13.583 3.623-5.666 1.805-19.37 8.506-31.374 16.245-1.415.912-2.86 1.156-4.211 2.09-.186.135-.37.268-.551.402-1.74 1.326-3.372 3.119-4.942 4.35Z" fill="url(#d)"/><path d="M.272 46.437s10.043-12.82 23.033-16.552c12.99-3.732 5.973 5.375.348 8.794-5.625 3.419-15.797 9.15-23.38 7.758H.271Z" fill="url(#e)"/><path d="M41.613 38.683c-2.748 1.698-5.043 2.92-8.117 4.337-3.074 1.417-5.85 2.013-11.005 2.353-5.155.34-7.652 1.745-10.804 3.084-3.153 1.34-5.252 1.296-5.252 1.296s.043.041.128.115c4.059.398 9.972-.026 17.665-2.357 7.221-2.19 15.39-7.122 25.494-12.99-.196.036-.412.046-.608.138-3.996 1.876-4.753 2.326-7.501 4.024Z" fill="#C0D6DD"/><path d="M81.774 6.777s-1.04.011-4.134.203c-.266-.6.745-2.117 1.145-2.798C80.672.965 79.57.032 79.813.018c1.71-.108 4.825.214 6.42 2.195 2.161 2.685 1.183 3.26 1.183 3.26s3.153.13 4.785 1.3c1.633 1.169 2.443 1.772 3.863 2.147 1.4.37 2.936.525 2.936.525s-2.156 3.59-6.76 3.98c-2.813.238-5.918-.258-8.433-1.355.73-1.407 2.13-2.013 2.077-3.528-.545-.794-1.02-1.576-4.11-1.765Z" fill="url(#f)"/><path d="M81.774 6.777s-1.04.011-4.134.203c-.266-.6.745-2.117 1.145-2.798C80.672.965 79.57.032 79.813.018c1.71-.108 4.825.214 6.42 2.195 2.161 2.685 1.183 3.26 1.183 3.26s3.153.13 4.785 1.3c1.633 1.169 2.443 1.772 3.863 2.147 1.4.37 2.936.525 2.936.525s-2.156 3.59-6.76 3.98c-2.813.238-5.918-.258-8.433-1.355.73-1.407 2.13-2.013 2.077-3.528-.545-.794-1.02-1.576-4.11-1.765Z" fill="url(#g)"/><path d="M99 9.446s-1.535-.156-2.936-.526a9.098 9.098 0 0 1-.262-.073c-2.786-.362-6.893-3.034-7.64-3.17-.748-.136-3.543.85-3.543.85l.755-.361c.755-.36 2.042-.692 2.223-.963a.818.818 0 0 0 .034-.165c.004-.18-.043-.475-.15-.838-.183-.478-.554-1.123-1.249-1.986C84.7.309 81.762-.062 80.018.008l.449.949c.449.949-.172 2.309-.686 3.633-.515 1.324.686 2.151.686 2.151l.167.076c.818-.036 1.14-.04 1.14-.04 2.195.135 3.07.568 3.589 1.092.793.152 1.427.331 1.488.524.172.543-.138 1.29.48 1.834.618.543 3.072 1.612 7.826 1.412 1.229-.052 2.471-.81 3.326-1.493.347-.416.517-.7.517-.7Z" fill="url(#h)"/><path d="M.065 46.835c.082.319.27.602.5.831.117.116.245.218.382.306.138.089.285.162.435.226.303.122.624.2.95.243.324.043.654.05.982.04a8.81 8.81 0 0 0 .983-.094l.49-.07.49-.081.244-.041.244-.047.488-.092c.324-.068.648-.132.971-.205 2.586-.572 5.137-1.297 7.666-2.084.316-.099.63-.201.946-.303.314-.103.628-.207.946-.308a32.554 32.554 0 0 1 1.92-.55 27.75 27.75 0 0 1 3.93-.708c1.324-.143 2.655-.178 3.981-.208.663-.018 1.326-.04 1.986-.099.66-.057 1.317-.153 1.965-.298a13.52 13.52 0 0 1-1.958.36c-.66.078-1.325.116-1.988.152-.663.035-1.326.062-1.987.104a36.28 36.28 0 0 0-1.977.18 28.95 28.95 0 0 0-3.892.748 31.84 31.84 0 0 0-1.9.562l-.943.313a88.085 88.085 0 0 1-4.77 1.43c-.641.173-1.284.34-1.931.493l-.485.116-.486.11c-.324.076-.65.142-.975.21-.326.068-.653.127-.98.19l-.491.083-.246.042-.247.037-.494.072-.496.059c-.33.043-.666.065-1 .07a5.704 5.704 0 0 1-1.004-.071 3.969 3.969 0 0 1-.964-.283 3.005 3.005 0 0 1-.437-.246 2.399 2.399 0 0 1-.38-.326 2.044 2.044 0 0 1-.293-.401 1.598 1.598 0 0 1-.176-.46v-.002Z" fill="#666"/><path d="M69.604 9.242s3.333-2.928 3.792-2.606c.46.322.378 1.454.995 1.342.618-.111.74.051.994 0 .253-.05-2.59 1.264-5.782 1.264Z" fill="url(#i)"/><path d="M24.004 43.213c.053.17.376.222.72.115.343-.106.578-.33.524-.5-.053-.17-.376-.222-.72-.115-.343.106-.578.33-.524.5Z" fill="#1A1A1A"/><path d="M23.85 42.911c.016-.065.055-.12.09-.174a1.062 1.062 0 0 1 .46-.374.995.995 0 0 1 .397-.08.61.61 0 0 1 .204.037.337.337 0 0 1 .16.12.596.596 0 0 0-.356-.03c-.116.019-.23.057-.341.103a1.83 1.83 0 0 0-.315.172c-.05.034-.102.069-.152.107-.05.037-.102.074-.149.118l.001.001Z" fill="#666"/><path d="M24.786 42.833c0 .081.067.147.149.147a.147.147 0 0 0 .148-.147.147.147 0 0 0-.148-.147.147.147 0 0 0-.149.147Z" fill="#fff"/><path d="M14.593 47.207a25.938 25.938 0 0 1 3.706-1.09c.157-.037.316-.068.474-.099.159-.03.317-.063.476-.089.318-.05.636-.108.958-.144.64-.09 1.284-.133 1.93-.16l.486.001h.242l.241.006.483.01.483.002c.321.004.643-.002.966-.003.321-.007.643-.011.965-.02a51.133 51.133 0 0 0 1.93-.088c.642-.04 1.284-.09 1.925-.16a24.02 24.02 0 0 1-.96.12c-.32.035-.64.064-.962.092-.642.053-1.286.09-1.93.118-.645.03-1.29.038-1.935.04l-.484-.002-.483-.007-.242-.004h-.241l-.482.002a19.27 19.27 0 0 0-1.92.15c-.32.034-.637.09-.954.138-.16.025-.317.058-.475.085-.158.029-.316.057-.473.091l-.473.099-.47.109c-.157.035-.312.077-.468.116l-.234.06-.233.063c-.621.167-1.238.352-1.846.564Zm-1.156.923a31.45 31.45 0 0 1 3.35-.938c.283-.066.569-.12.854-.175l.43-.071c.072-.011.143-.025.215-.035l.217-.028.216-.029.108-.014.109-.01.435-.04c.29-.013.582-.03.875-.016.293.004.578.032.868.035.145.002.29.008.434.007h.434a50.84 50.84 0 0 0 3.473-.177 75.07 75.07 0 0 0 1.733-.153 50.3 50.3 0 0 1-3.463.352c-.58.04-1.16.063-1.741.075l-.436.003c-.145.002-.29-.003-.436-.005-.29 0-.584-.027-.87-.03-.288-.016-.576 0-.864.012l-.432.037-.108.01-.108.013-.215.027-.215.027c-.072.009-.143.022-.214.032l-.429.07c-.284.054-.57.102-.852.162-.568.115-1.132.248-1.693.394-.562.142-1.12.298-1.675.465Zm-1.935.876a27.3 27.3 0 0 1 2.794-.628c.47-.084.944-.15 1.42-.203.237-.029.476-.046.714-.068.239-.014.478-.031.716-.039.954-.032 1.909-.067 2.863-.094l1.431-.04c.478-.008.955-.02 1.432-.026-.477.03-.953.053-1.43.08l-1.43.068c-.953.044-1.907.08-2.861.12-.24.005-.476.02-.714.033-.237.02-.474.036-.71.064-.238.023-.474.054-.71.084-.236.035-.472.065-.707.103-.472.072-.94.155-1.409.248-.468.089-.934.19-1.399.298Zm-1.943.747c.379-.07.76-.132 1.14-.197l1.143-.178c.38-.06.763-.11 1.145-.162.383-.05.765-.1 1.149-.145.384-.042.768-.08 1.154-.103.194-.013.386-.018.58-.025a91.098 91.098 0 0 1 1.736-.027c.385.001.77 0 1.156.01l-1.156.042c-.386.013-.771.027-1.156.043-.385.02-.77.029-1.154.055-.382.026-.766.068-1.148.112-.766.083-1.53.184-2.294.282l-1.147.148-1.148.146Zm15.227-5.129c.397-.008.793-.02 1.189-.043.395-.02.79-.044 1.185-.078a23.491 23.491 0 0 0 2.353-.3c.195-.03.388-.075.581-.114.097-.018.192-.044.288-.068l.287-.073a62.12 62.12 0 0 0 1.14-.33 28.03 28.03 0 0 0 1.128-.37c.373-.13.744-.269 1.104-.435-.703.367-1.455.63-2.206.883-.377.126-.758.236-1.139.346l-.288.076c-.097.024-.193.052-.29.07-.195.042-.388.088-.584.12l-.294.052-.295.043c-.197.03-.395.053-.592.076-.197.025-.395.04-.592.061a29.652 29.652 0 0 1-1.784.092 23.16 23.16 0 0 1-1.19-.009v.001Z" fill="#666"/><path d="M33.499 42.624s3.62 1.369 8.315 1.897c3.547.4 6.53-.458 7.776-.9a.207.207 0 0 0-.02-.398c-.966-.239-2.787-.721-3.817-1.196-1.51-.696-3.44-.832-4.986-2.02-1.544-1.189-7.408-.148-7.269 2.617Z" fill="url(#j)"/><path d="M80.21 14.54c-.363.106-.719.235-1.072.369-.177.065-.352.135-.528.206-.176.068-.35.143-.524.215-.175.072-.348.147-.521.222-.173.074-.347.15-.519.228l-.515.233-.513.24a73.78 73.78 0 0 0-4.028 2.067c-.658.368-1.33.715-1.958 1.13-.63.413-1.233.866-1.82 1.338-.586.472-1.155.966-1.712 1.47a42.94 42.94 0 0 0-1.64 1.552 40.82 40.82 0 0 1 3.33-3.05c.585-.474 1.187-.93 1.817-1.348.629-.419 1.3-.769 1.957-1.14a74.471 74.471 0 0 1 4.038-2.05l.514-.239.518-.231c.172-.078.346-.152.52-.226.174-.074.346-.15.522-.22.175-.07.35-.142.527-.21.176-.068.352-.135.53-.2a15.05 15.05 0 0 1 1.076-.356ZM14.355 44.375c.701-.235 1.397-.48 2.085-.748a27.74 27.74 0 0 0 2.033-.876 19.56 19.56 0 0 0 1.933-1.07c.625-.389 1.234-.81 1.9-1.134a9.879 9.879 0 0 1 2.096-.725c.36-.088.723-.158 1.087-.226.364-.063.73-.122 1.093-.183a29.768 29.768 0 0 0 2.17-.446c.358-.092.715-.188 1.066-.302a9.48 9.48 0 0 0 .521-.186c.17-.07.342-.14.5-.237-.156.1-.327.172-.496.245a11.5 11.5 0 0 1-.782.282l-.265.08c-.089.027-.179.05-.267.076-.09.024-.179.049-.268.07a29.51 29.51 0 0 1-2.17.46l-1.093.188c-.363.068-.725.14-1.083.229-.18.04-.357.092-.536.14-.176.053-.353.104-.527.164a8.631 8.631 0 0 0-1.023.415c-.664.32-1.273.738-1.9 1.125a19.63 19.63 0 0 1-1.941 1.066c-1.332.64-2.728 1.138-4.132 1.593ZM32.87 42.26c.073-.194.169-.38.276-.56.055-.089.108-.18.17-.265l.089-.129.095-.125c.259-.33.559-.632.896-.889.334-.26.71-.467 1.096-.639.386-.17.785-.315 1.195-.425A6.974 6.974 0 0 1 38.575 39l.63.006c.104.001.206-.004.309-.01l.153-.017c.051-.006.103-.016.154-.023.204-.035.407-.082.608-.139.403-.11.796-.254 1.184-.414a8.997 8.997 0 0 1-1.16.49c-.2.067-.404.122-.612.167-.052.01-.104.023-.156.03l-.159.023a4.4 4.4 0 0 1-.319.02c-.21.006-.42.007-.63.01a10.02 10.02 0 0 0-.623.03 6.964 6.964 0 0 0-1.224.212 8.391 8.391 0 0 0-1.175.41c-.048.02-.097.038-.144.06l-.139.067c-.093.045-.187.087-.275.142l-.134.076c-.045.026-.09.051-.132.081-.085.058-.173.112-.257.173a5.164 5.164 0 0 0-.91.838c-.271.313-.51.656-.693 1.03l-.002-.001Z" fill="#666"/><path d="M42.404 44.242c-3.686-.43-5.697-1.246-6.624-1.857-.927-.612 1.888-2.092 3.707-2.053 1.819.04 3.672 1.578 6.624 2.325 2.951.746-.02 2.016-3.707 1.586Z" fill="url(#k)"/><path d="M23.85 28.564c1.39-1.02 2.82-1.984 4.257-2.937a161.115 161.115 0 0 1 4.377-2.764 132.95 132.95 0 0 1 4.481-2.6l1.136-.626 1.146-.608c.382-.202.764-.404 1.153-.596l1.16-.584.29-.145.293-.139.588-.277.587-.278.294-.139c.098-.046.195-.093.295-.135l1.193-.522c.199-.086.397-.174.596-.259l.6-.246 1.204-.488 1.21-.469c.403-.158.81-.306 1.216-.455.407-.148.812-.3 1.222-.44.409-.142.817-.286 1.228-.422.411-.135.822-.272 1.234-.404l1.242-.382c.416-.12.83-.244 1.247-.363l.627-.168c.209-.057.418-.113.628-.165l.63-.16c.21-.053.42-.1.632-.15.844-.193 1.69-.376 2.548-.5-.419.109-.834.225-1.247.35l-.31.092-.31.094c-.206.064-.412.126-.617.193-.822.26-1.638.534-2.452.817l-1.218.429-1.212.445-1.207.458c-.402.152-.801.314-1.202.469a154.76 154.76 0 0 0-4.77 1.97l-.592.254c-.197.086-.392.176-.587.263l-1.172.53c-.39.178-.775.367-1.163.55l-.581.278-.29.139-.289.145c-.768.384-1.54.759-2.3 1.16l-1.146.59-1.139.605c-.763.398-1.514.816-2.271 1.223-.38.202-.754.415-1.13.622-.378.208-.756.413-1.13.623a617.606 617.606 0 0 0-8.98 5.12v.002Zm12.29 13.509c.441.101.88.191 1.32.28l1.319.258 1.318.248c.22.04.44.085.658.12.218.04.436.08.655.111.877.136 1.761.242 2.65.322.89.084 1.782.148 2.685.212a13.661 13.661 0 0 1-1.348.162 17.54 17.54 0 0 1-1.357.045 18.168 18.168 0 0 1-2.714-.21c-.225-.032-.449-.078-.673-.118-.112-.02-.222-.046-.332-.07l-.33-.072c-.44-.104-.88-.21-1.313-.337a19.39 19.39 0 0 1-1.291-.415 12.908 12.908 0 0 1-.632-.248 6.966 6.966 0 0 1-.615-.289ZM80.16.31c.081.105.151.217.217.333a3.996 3.996 0 0 1 .43 1.122c.028.133.049.269.057.406a2.413 2.413 0 0 1-.081.833c-.009.034-.022.068-.033.102a.987.987 0 0 1-.04.1l-.042.099-.04.087a9.148 9.148 0 0 0-.547 1.426 4.03 4.03 0 0 0-.136.744c-.01.125-.01.252.001.379.006.063.016.126.03.189a.782.782 0 0 0 .062.184.966.966 0 0 1-.197-.35 1.841 1.841 0 0 1-.086-.398 3.01 3.01 0 0 1 .03-.81c.086-.533.27-1.043.499-1.523l.043-.09.037-.082c.013-.026.022-.054.033-.081.01-.028.022-.055.03-.084.038-.111.061-.23.08-.35.035-.238.036-.487.011-.738a5.194 5.194 0 0 0-.132-.751c-.06-.251-.136-.5-.224-.748h-.002Zm8.444 10.579a33.34 33.34 0 0 0 3.634.496c.405.027.81.055 1.214.062.81.024 1.62-.005 2.417-.121.1-.017.2-.032.297-.053.099-.018.197-.039.296-.06.196-.046.388-.103.578-.168.096-.032.19-.07.282-.108.091-.041.183-.083.272-.13.089-.048.175-.1.258-.159.082-.058.161-.121.23-.198-.108.176-.27.315-.435.438a3.274 3.274 0 0 1-.54.316 5.617 5.617 0 0 1-1.184.396 9.194 9.194 0 0 1-1.234.184c-.414.034-.83.046-1.244.037a14.308 14.308 0 0 1-2.77-.315c-.1-.023-.202-.042-.302-.066l-.3-.074-.3-.08a10.12 10.12 0 0 1-1.169-.398Z" fill="#BDD6E0"/></g></svg>