<svg width="23" height="17" viewBox="0 0 23 17" fill="none" xmlns="http://www.w3.org/2000/svg">
    <path d="M9.52556 16.1333C5.14531 16.0527 3.64924 15.9801 2.72966 15.7907C2.10751 15.6648 1.56686 15.3853 1.17044 14.9799C0.864055 14.6731 0.620399 14.205 0.431364 13.5555C0.269211 13.0144 0.206057 12.5643 0.11602 11.4646C-0.0218097 8.98282 -0.0546669 6.95378 0.11602 4.68663C0.256837 3.43464 0.325111 1.94839 1.26047 1.0813C1.70213 0.675493 2.21589 0.414342 2.79282 0.306383C3.69404 0.135269 7.53364 0 11.5085 0C15.4744 0 19.3226 0.135269 20.2246 0.306383C20.9454 0.441652 21.6213 0.847033 22.0181 1.36976C22.8716 2.71221 22.8865 4.38153 22.9731 5.68728C23.009 6.30944 23.009 9.84223 22.9731 10.4644C22.8383 12.528 22.7299 13.2581 22.4235 14.0151C22.234 14.493 22.0723 14.7452 21.7924 15.0247C21.3534 15.4548 20.7937 15.7409 20.1879 15.8449C16.3974 16.1299 13.1787 16.1918 9.52556 16.1333ZM15.3302 7.84135C13.2214 6.71439 11.2021 5.66936 9.1381 4.58763V11.0592C11.3101 9.8785 13.5999 8.79677 15.3391 7.83239L15.3302 7.84135Z" fill="#CD201F"/>
</svg>
