<svg width="45" height="45" viewBox="0 0 45 45" fill="none" xmlns="http://www.w3.org/2000/svg">
    <path d="M2.16162 3.20801C9.99533 4.60269 19.0223 8.23853 26.3285 12.1052C30.1762 14.1458 33.5483 16.2383 36.0221 18.0886C37.2594 19.0224 38.2728 19.8871 39.0017 20.6307C39.7306 21.3829 40.1586 22.04 40.2684 22.3859C41.05 24.8674 40.5641 27.3749 40.1188 29.7095C39.2931 34.0673 40.3981 37.3962 42.1058 40.63C39.9234 40.1371 38.1837 38.918 37.1773 36.5661C36.4449 34.8541 36.3879 33.3669 36.189 31.5858C35.9901 29.8046 35.6313 27.764 34.2487 25.2565L34.2314 25.222L34.2141 25.1874C33.4532 24.0979 31.9487 23.2678 29.8909 22.2994C27.8417 21.331 25.2564 20.3108 22.4549 19.2645C16.9385 17.2067 10.5919 15.0537 6.01795 13.0996C4.28865 10.497 3.07814 6.68044 2.16162 3.20801ZM6.91718 15.1574C11.3874 16.9732 16.999 18.8841 21.9188 20.7171C24.703 21.7547 27.2624 22.7663 29.2338 23.7002C31.1879 24.6253 32.5627 25.5678 32.9172 26.052C33.5051 27.1155 33.8769 28.058 34.1277 28.9313C26.9165 28.3693 17.2411 26.1817 10.6698 23.1727C8.30062 20.6047 7.4792 18.0108 6.91718 15.1574ZM11.9321 25.4295C18.7629 28.2136 27.6687 30.038 34.4822 30.4963C34.56 30.9286 34.6119 31.3437 34.6551 31.7587C34.6897 32.0613 34.7156 32.3726 34.7502 32.6752C28.4902 33.3237 22.9651 33.0211 16.9212 32.1132C14.1024 30.1677 12.6152 27.8245 11.9321 25.4295ZM18.711 33.9203C24.0977 34.6207 29.2251 34.8023 34.9318 34.2143C34.9923 34.6034 35.0701 34.9925 35.1652 35.3902C32.0612 37.0503 26.683 37.621 22.9996 37.5173C20.3884 36.4451 19.4114 35.3729 18.711 33.9203ZM35.6425 36.8947C35.742 37.0763 35.914 37.474 36.0065 37.6642C34.7934 39.4108 31.7931 40.4484 28.3605 41.0623C26.5274 40.3706 25.9135 39.7221 25.2045 39.0736C28.6371 38.9785 32.701 38.4078 35.6408 36.8947H35.6425Z" fill="black"/>
</svg>
