<svg width="48" height="48" viewBox="0 0 48 48" fill="none" xmlns="http://www.w3.org/2000/svg">
<path d="M2.32617 3.45215C10.7562 4.95299 20.4703 8.86562 28.3328 13.0267C32.4734 15.2226 36.1022 17.4743 38.7643 19.4655C40.0958 20.4704 41.1863 21.4009 41.9707 22.2011C42.755 23.0106 43.2156 23.7178 43.3338 24.0899C44.1749 26.7604 43.652 29.4587 43.1728 31.971C42.2842 36.6606 43.4734 40.2429 45.311 43.7228C42.9625 43.1925 41.0904 41.8805 40.0074 39.3496C39.2193 37.5073 39.1578 35.9069 38.9438 33.9901C38.7298 32.0734 38.3437 29.8775 36.8559 27.1791L36.8373 27.1419L36.8186 27.1047C35.9998 25.9323 34.3808 25.039 32.1663 23.9969C29.9611 22.9548 27.179 21.8568 24.1643 20.731C18.2279 18.5164 11.3982 16.1996 6.47606 14.0967C4.61512 11.296 3.31247 7.18891 2.32617 3.45215ZM7.44374 16.3112C12.2543 18.2652 18.293 20.3215 23.5874 22.2941C26.5835 23.4107 29.3377 24.4994 31.4591 25.5043C33.562 26.4999 35.0415 27.5141 35.4229 28.0351C36.0557 29.1796 36.4558 30.1938 36.7256 31.1336C28.9655 30.5288 18.5535 28.1747 11.482 24.9367C8.9325 22.1732 8.04855 19.3818 7.44374 16.3112ZM12.8405 27.3652C20.1912 30.3613 29.775 32.3246 37.1071 32.8177C37.1908 33.283 37.2467 33.7296 37.2932 34.1762C37.3304 34.5019 37.3583 34.8369 37.3955 35.1625C30.6589 35.8604 24.7132 35.5347 18.2093 34.5577C15.1759 32.4642 13.5755 29.9426 12.8405 27.3652ZM20.1353 36.5024C25.9322 37.2561 31.4498 37.4515 37.5909 36.8188C37.6561 37.2375 37.7398 37.6562 37.8422 38.0842C34.5018 39.8707 28.7143 40.4848 24.7505 40.3731C21.9405 39.2194 20.889 38.0656 20.1353 36.5024ZM38.3558 39.7032C38.4628 39.8986 38.6479 40.3266 38.7475 40.5313C37.4421 42.4109 34.2133 43.5274 30.5194 44.1881C28.5468 43.4437 27.8861 42.7458 27.1232 42.048C30.8171 41.9456 35.1903 41.3315 38.3539 39.7032H38.3558Z" fill="white"/>
</svg>
