<svg width="48" height="48" viewBox="0 0 48 48" fill="none" xmlns="http://www.w3.org/2000/svg">
<path d="M45.3138 3.45215C36.8838 4.95299 27.1697 8.86562 19.3072 13.0267C15.1667 15.2226 11.5378 17.4743 8.87576 19.4655C7.54426 20.4704 6.45375 21.4009 5.66936 22.2011C4.88498 23.0106 4.4244 23.7178 4.30623 24.0899C3.46508 26.7604 3.98801 29.4587 4.4672 31.971C5.35579 36.6606 4.16666 40.2429 2.32898 43.7228C4.67748 43.1925 6.54959 41.8805 7.63265 39.3496C8.42076 37.5073 8.48217 35.9069 8.69618 33.9901C8.91019 32.0734 9.29633 29.8775 10.7842 27.1791L10.8028 27.1419L10.8214 27.1047C11.6402 25.9323 13.2592 25.039 15.4737 23.9969C17.6789 22.9548 20.461 21.8568 23.4757 20.731C29.4121 18.5164 36.2418 16.1996 41.164 14.0967C43.0249 11.296 44.3275 7.18891 45.3138 3.45215ZM40.1963 16.3112C35.3857 18.2652 29.347 20.3215 24.0526 22.2941C21.0565 23.4107 18.3023 24.4994 16.1809 25.5043C14.078 26.4999 12.5986 27.5141 12.2171 28.0351C11.5844 29.1796 11.1843 30.1938 10.9144 31.1336C18.6745 30.5288 29.0865 28.1747 36.158 24.9367C38.7075 22.1732 39.5915 19.3818 40.1963 16.3112ZM34.7995 27.3652C27.4488 30.3613 17.865 32.3246 10.5329 32.8177C10.4492 33.283 10.3934 33.7296 10.3468 34.1762C10.3096 34.5019 10.2817 34.8369 10.2445 35.1625C16.9811 35.8604 22.9268 35.5347 29.4307 34.5577C32.4641 32.4642 34.0645 29.9426 34.7995 27.3652ZM27.5047 36.5024C21.7079 37.2561 16.1902 37.4515 10.0491 36.8188C9.98395 37.2375 9.9002 37.6562 9.79785 38.0842C13.1382 39.8707 18.9258 40.4848 22.8895 40.3731C25.6996 39.2194 26.751 38.0656 27.5047 36.5024ZM9.28423 39.7032C9.17723 39.8986 8.99207 40.3266 8.89251 40.5313C10.198 42.4109 13.4267 43.5274 17.1206 44.1881C19.0932 43.4437 19.7539 42.7458 20.5169 42.048C16.8229 41.9456 12.4497 41.3315 9.2861 39.7032H9.28423Z" fill="white"/>
</svg>
