<svg width="45" height="45" viewBox="0 0 45 45" fill="none" xmlns="http://www.w3.org/2000/svg">
    <path d="M42.8384 3.20801C35.0047 4.60269 25.9777 8.23853 18.6715 12.1052C14.8238 14.1458 11.4517 16.2383 8.97789 18.0886C7.74058 19.0224 6.72721 19.8871 5.99831 20.6307C5.26942 21.3829 4.84141 22.04 4.7316 22.3859C3.94996 24.8674 4.43589 27.3749 4.88119 29.7095C5.70693 34.0673 4.60191 37.3962 2.89423 40.63C5.0766 40.1371 6.81627 38.918 7.82272 36.5661C8.55508 34.8541 8.61215 33.3669 8.81101 31.5858C9.00988 29.8046 9.36871 27.764 10.7513 25.2565L10.7686 25.222L10.7859 25.1874C11.5468 24.0979 13.0513 23.2678 15.1091 22.2994C17.1583 21.331 19.7436 20.3108 22.5451 19.2645C28.0615 17.2067 34.4081 15.0537 38.9821 13.0996C40.7113 10.497 41.9219 6.68044 42.8384 3.20801ZM38.0828 15.1574C33.6126 16.9732 28.001 18.8841 23.0812 20.7171C20.297 21.7547 17.7376 22.7663 15.7662 23.7002C13.8121 24.6253 12.4373 25.5678 12.0828 26.052C11.4949 27.1155 11.1231 28.058 10.8723 28.9313C18.0835 28.3693 27.7589 26.1817 34.3302 23.1727C36.6994 20.6047 37.5208 18.0108 38.0828 15.1574ZM33.0679 25.4295C26.2371 28.2136 17.3313 30.038 10.5178 30.4963C10.44 30.9286 10.3881 31.3437 10.3449 31.7587C10.3103 32.0613 10.2844 32.3726 10.2498 32.6752C16.5098 33.3237 22.0349 33.0211 28.0788 32.1132C30.8976 30.1677 32.3848 27.8245 33.0679 25.4295ZM26.289 33.9203C20.9023 34.6207 15.7749 34.8023 10.0682 34.2143C10.0077 34.6034 9.92987 34.9925 9.83476 35.3902C12.9388 37.0503 18.317 37.621 22.0004 37.5173C24.6116 36.4451 25.5886 35.3729 26.289 33.9203ZM9.35747 36.8947C9.25804 37.0763 9.08597 37.474 8.99346 37.6642C10.2066 39.4108 13.2069 40.4484 16.6395 41.0623C18.4726 40.3706 19.0865 39.7221 19.7955 39.0736C16.3629 38.9785 12.299 38.4078 9.3592 36.8947H9.35747Z" fill="black"/>
</svg>
