<svg width="34" height="34" viewBox="0 0 34 34" fill="none" xmlns="http://www.w3.org/2000/svg">
    <path d="M17.7071 31.1667L23.2702 25.6036L23.6238 25.25L23.2702 24.8964L9.10355 10.7298L8.75 10.3762L8.39645 10.7298L2.83333 16.2929L1.20096 14.6605L3.19303 12.5973L3.53429 12.2438L3.18689 11.8964L1.20711 9.91667L4.35355 6.77022L4.70096 6.42281L4.3597 6.06937L2.36762 4.00615L4.00615 2.36762L6.06937 4.3597L6.42281 4.70096L6.77022 4.35355L9.91667 1.20711L11.8964 3.18689L12.2438 3.53429L12.5973 3.19303L14.6605 1.20096L16.2929 2.83333L10.7298 8.39645L10.3762 8.75L10.7298 9.10355L24.8964 23.2702L25.25 23.6238L25.6036 23.2702L31.1667 17.7071L32.799 19.3395L30.807 21.4027L30.4657 21.7561L30.8131 22.1036L32.7929 24.0833L29.6464 27.2298L29.299 27.5772L29.6403 27.9306L31.6324 29.9938L29.9938 31.6324L27.9306 29.6403L27.5772 29.299L27.2298 29.6464L24.0833 32.7929L22.1036 30.8131L21.7561 30.4657L21.4027 30.807L19.3395 32.799L17.7071 31.1667Z" fill="#E5953E" stroke="black"/>
</svg>
