<svg width="181" height="93" viewBox="0 0 181 93" fill="none" xmlns="http://www.w3.org/2000/svg">
    <path d="M0 48.1472H19.6067L23.0925 35.5137L31.2944 90L38.365 3.18381L43.272 56.539L48.2709 48.3381L78.5613 48.3028C66.4777 37.3871 57.9293 26.3442 60.4535 15.4851C62.2848 7.59532 68.0968 3.55144 74.8634 3.10605C75.3301 3.07777 75.7896 3.05656 76.2422 3.05656C83.0441 3.05656 87.7107 6.52779 90.447 11.8866C93.0631 6.75402 97.6378 3 104.072 3C104.68 3 105.309 3.03535 105.953 3.10605C113.356 3.90492 118.729 8.12555 120.44 14.7852C123.134 25.2838 115.081 37.069 102.658 48.324L135.19 48.43L139.807 56.8218L144.99 4.59776L151.869 89.1516L160.071 35.9873L163.465 48.0553H181" stroke="#FF8286" stroke-width="5" stroke-miterlimit="10" stroke-linejoin="round"/>
</svg>
