<svg width="28" height="34" viewBox="0 0 28 34" fill="none" xmlns="http://www.w3.org/2000/svg">
    <path d="M9.1663 32.961L9.15614 32.9701L9.14649 32.9798C8.99324 33.133 8.82982 33.1956 8.62586 33.1871L8.6242 33.187C8.4045 33.1786 8.22441 33.1006 8.06193 32.9381C7.92897 32.8052 7.85029 32.6405 7.83165 32.4168C7.81365 32.2008 7.86526 32.0353 7.97805 31.8903L7.98388 31.8828L7.98943 31.8751L16.0728 20.6251L16.5805 19.9185L15.7143 19.8356L2.21433 18.544L2.21434 18.5439L2.20506 18.5432C1.9232 18.5215 1.72185 18.441 1.5735 18.3249C1.4248 18.2086 1.29526 18.0299 1.20176 17.7557C1.10927 17.4829 1.1055 17.2671 1.1539 17.0906C1.20225 16.9143 1.31503 16.7322 1.5322 16.5477L1.53231 16.5478L1.54211 16.539L18.8338 1.039L18.8439 1.02989L18.8536 1.02024C19.0067 0.867139 19.171 0.803583 19.3767 0.811283C19.5951 0.820561 19.7752 0.89892 19.9382 1.0619C20.0711 1.19486 20.1498 1.35952 20.1684 1.5832C20.1864 1.79919 20.1348 1.9647 20.022 2.10971L20.0162 2.11721L20.0107 2.12493L11.9273 13.3749L11.4196 14.0815L12.2858 14.1644L25.7858 15.4561L25.7857 15.4562L25.795 15.4569C26.0769 15.4786 26.278 15.5591 26.4259 15.6749C26.5743 15.7911 26.7035 15.9697 26.7965 16.244L26.7968 16.2446C26.8898 16.5177 26.8938 16.7335 26.8456 16.9099C26.7975 17.0859 26.685 17.2678 26.4679 17.4524L26.4678 17.4522L26.458 17.461L9.1663 32.961Z" fill="#59A86B" stroke="black"/>
</svg>
