<svg width="27" height="37" viewBox="0 0 27 37" fill="none" xmlns="http://www.w3.org/2000/svg">
    <path d="M19.5 24.0476V35.8333H17.1667V26.3333V26.119L17.0115 25.9713L13.5115 22.6379L12.8742 22.0309L12.6791 22.8892L11.1207 29.7462L0.588075 27.6091L1.05811 25.259L8.56469 26.8228L9.05928 26.9259L9.15719 26.4302L11.8239 12.9302L12.0002 12.0375L11.1521 12.3673L8.15211 13.534L7.83333 13.658V14V19.1667H5.5V12.1625L11.7803 9.45957C11.7804 9.45955 11.7804 9.45952 11.7805 9.4595C12.7504 9.0438 13.4387 8.78477 13.8617 8.669C14.2855 8.55384 14.664 8.5 15 8.5C15.4909 8.5 15.9424 8.62716 16.3643 8.88497C16.7966 9.14917 17.1425 9.49507 17.4067 9.92739L17.4067 9.9274L17.4093 9.93167L19.0749 12.5965C19.0751 12.5969 19.0753 12.5972 19.0755 12.5975C19.8414 13.8344 20.8783 14.8473 22.1772 15.6358L22.1774 15.6359C23.3659 16.3567 24.6992 16.7492 26.1667 16.8212V19.1567C24.5938 19.0935 23.119 18.7304 21.7376 18.069L21.7372 18.0688C20.197 17.333 18.913 16.367 17.8778 15.1725L17.2098 14.4017L17.0097 15.4019L16.0097 20.4019L15.9557 20.6721L16.1552 20.8621L19.5 24.0476ZM17.5 6.66667C16.7171 6.66667 16.0597 6.39355 15.5005 5.83341L15.4999 5.83281C14.9398 5.27363 14.6667 4.61619 14.6667 3.83333C14.6667 3.05046 14.9398 2.39229 15.5002 1.83189C16.0593 1.27277 16.7169 1 17.5 1C18.2831 1 18.9414 1.27278 19.5017 1.83213C20.0607 2.39235 20.3333 3.05043 20.3333 3.83333C20.3333 4.61646 20.0606 5.274 19.5014 5.83311C18.941 6.39352 18.2829 6.66667 17.5 6.66667Z" fill="#E45B47" stroke="black"/>
</svg>
