<svg width="34" height="34" viewBox="0 0 34 34" fill="none" xmlns="http://www.w3.org/2000/svg">
    <path d="M14.1125 21.4042H13.6125V21.9042V27.5H6.5V24.8333H10.4458H10.9458V24.3333V18.6917H15.1667H15.6667V18.1917V12.5958H19.8875H20.3875V12.0958V6.5H27.5V9.16667H23.5542H23.0542V9.66667V15.3083H18.8333H18.3333V15.8083V21.4042H14.1125ZM3.66667 29.8333V30.3333H4.16667H29.8333H30.3333V29.8333V4.16667V3.66667H29.8333H4.16667H3.66667V4.16667V29.8333ZM4.16667 33C3.2921 33 2.55552 32.6948 1.92997 32.0705C1.3054 31.4449 1 30.7081 1 29.8333V4.16667C1 3.29199 1.30532 2.55533 1.92972 1.92972C2.55533 1.30532 3.29199 1 4.16667 1H29.8333C30.7081 1 31.4449 1.3054 32.0705 1.92997C32.6948 2.55552 33 3.2921 33 4.16667V29.8333C33 30.708 32.6947 31.4447 32.0703 32.0703C31.4447 32.6947 30.708 33 29.8333 33H4.16667Z" fill="#C8E7D8" stroke="black"/>
</svg>
