<svg width="44" height="44" viewBox="0 0 44 44" fill="none" xmlns="http://www.w3.org/2000/svg">
    <mask id="mask0_776_10709" style="mask-type:alpha" maskUnits="userSpaceOnUse" x="0" y="0" width="44" height="44">
        <rect x="0.5" y="0.5" width="43" height="43" fill="#71A3EE" stroke="black"/>
    </mask>
    <g mask="url(#mask0_776_10709)">
        <path d="M19.1125 26.4042H18.6125V26.9042V32.5H11.5V29.8333H15.4458H15.9458V29.3333V23.6917H20.1667H20.6667V23.1917V17.5958H24.8875H25.3875V17.0958V11.5H32.5V14.1667H28.5542H28.0542V14.6667V20.3083H23.8333H23.3333V20.8083V26.4042H19.1125ZM8.66667 34.8333V35.3333H9.16667H34.8333H35.3333V34.8333V9.16667V8.66667H34.8333H9.16667H8.66667V9.16667V34.8333ZM9.16667 38C8.29189 38 7.55516 37.6946 6.9295 37.0701C6.30525 36.4445 6 35.7079 6 34.8333V9.16667C6 8.29199 6.30532 7.55533 6.92972 6.92972C7.55533 6.30532 8.29199 6 9.16667 6H34.8333C35.7079 6 36.4445 6.30525 37.0701 6.9295C37.6946 7.55516 38 8.29189 38 9.16667V34.8333C38 35.708 37.6947 36.4447 37.0703 37.0703C36.4447 37.6947 35.708 38 34.8333 38H9.16667Z" fill="#71A3EE" stroke="#1F1F1F"/>
    </g>
</svg>
