<svg width="258" height="202" viewBox="0 0 258 202" fill="none" xmlns="http://www.w3.org/2000/svg">
    <path d="M248.048 17.9884H133.418C128.082 17.9884 123.756 22.3144 123.756 27.6508V192.079C123.756 197.415 128.082 201.741 133.418 201.741H248.048C253.385 201.741 257.711 197.415 257.711 192.079V27.6508C257.711 22.3144 253.385 17.9884 248.048 17.9884Z" fill="#A9BAE6"/>
    <path d="M246.117 25.3938H135.863V185.552H246.117V25.3938Z" fill="#F6F5F5"/>
    <path d="M246.116 25.3951C246.15 87.8487 248.166 163.17 241.151 179.846C210.251 182.857 174.072 183.823 135.86 184.003L150.385 25.8775L246.116 25.3951Z" fill="#E4E4E4"/>
    <path d="M236.213 174.799C188.052 182.507 155.863 182.913 129.756 180.975C133.139 144.961 134.495 85.1328 135.86 25.4017L193.896 25.5304L246.42 28.9978C247.186 90.9937 247.269 148.26 236.213 174.799Z" fill="white"/>
    <path d="M219.195 41.5377L161.195 40.1708L160.986 49.0053L218.987 50.3721L219.195 41.5377Z" fill="#708CD5"/>
    <path d="M230.377 63.1573L178.06 61.9244L177.965 65.9679L230.281 67.2008L230.377 63.1573Z" fill="#708CD5"/>
    <path d="M213.412 71.579L177.852 70.741L177.757 74.7846L213.317 75.6226L213.412 71.579Z" fill="#D3DFFF"/>
    <path d="M161.575 61.7734L149.189 61.4815L148.898 73.8669L161.283 74.1587L161.575 61.7734Z" fill="white" stroke="#708CD5" stroke-width="6" stroke-miterlimit="10"/>
    <path d="M151.21 64.734C151.593 66.1979 152.299 72.3292 155.369 70.6157C156.078 70.2205 156.677 69.1752 157.207 68.5732L160.063 65.3294L165.777 58.8431C166.264 58.2893 164.11 56.8995 163.498 57.595C161.805 59.5166 160.112 61.4395 158.42 63.361C157.573 64.3218 156.727 65.2826 155.88 66.2434C155.293 66.9104 153.934 69.0607 153.063 69.2519C153.538 69.4053 154.011 69.5574 154.485 69.7108C154.821 69.9851 154.198 68.0376 154.184 67.9843C153.947 67.0794 153.712 66.1758 153.475 65.2709C153.28 64.5234 150.922 63.625 151.212 64.7327L151.21 64.734Z" fill="#EE6F57"/>
    <path d="M220.61 85.4559L177.528 84.4406L177.433 88.4841L220.515 89.4994L220.61 85.4559Z" fill="#708CD5"/>
    <path d="M229.637 94.49L177.321 93.257L177.226 97.3006L229.542 98.5335L229.637 94.49Z" fill="#D3DFFF"/>
    <path d="M161.044 84.2908L148.659 83.9989L148.367 96.3843L160.753 96.6762L161.044 84.2908Z" fill="white" stroke="#708CD5" stroke-width="6" stroke-miterlimit="10"/>
    <path d="M150.672 87.6004C151.054 89.0643 151.76 95.1956 154.831 93.4821C155.54 93.0868 156.139 92.0416 156.668 91.4396C157.62 90.3579 158.573 89.2775 159.525 88.1958L165.239 81.7095C165.726 81.1557 163.572 79.7659 162.96 80.4614C161.267 82.383 159.574 84.3059 157.881 86.2274C157.035 87.1882 156.189 88.149 155.342 89.1098C154.754 89.7768 153.396 91.9271 152.525 92.1183C152.999 92.2717 153.473 92.4238 153.947 92.5772C154.283 92.8515 153.66 90.9039 153.645 90.8506C153.409 89.9458 153.174 89.0422 152.937 88.1373C152.742 87.3897 150.384 86.4914 150.673 87.5991L150.672 87.6004Z" fill="#EE6F57"/>
    <path d="M229.313 108.191L176.997 106.958L176.902 111.001L229.218 112.234L229.313 108.191Z" fill="#708CD5"/>
    <path d="M200.188 116.326L176.791 115.775L176.695 119.818L200.092 120.37L200.188 116.326Z" fill="#D3DFFF"/>
    <path d="M160.513 106.807L148.127 106.515L147.836 118.9L160.221 119.192L160.513 106.807Z" fill="white" stroke="#708CD5" stroke-width="6" stroke-miterlimit="10"/>
    <path d="M150.309 110.277C150.692 111.741 151.398 117.872 154.468 116.159C155.177 115.763 155.776 114.718 156.306 114.116C157.257 113.035 158.21 111.954 159.162 110.872C161.067 108.71 162.971 106.548 164.876 104.386C165.363 103.832 163.209 102.442 162.597 103.138C160.904 105.06 159.211 106.982 157.519 108.904C156.672 109.865 155.826 110.826 154.979 111.786C154.392 112.453 153.033 114.604 152.162 114.795C152.637 114.948 153.11 115.1 153.584 115.254C153.92 115.528 153.297 113.581 153.283 113.527C153.046 112.622 152.811 111.719 152.574 110.814C152.379 110.066 150.021 109.168 150.311 110.276L150.309 110.277Z" fill="#EE6F57"/>
    <path d="M228.784 130.707L176.468 129.474L176.373 133.518L228.689 134.751L228.784 130.707Z" fill="#708CD5"/>
    <path d="M217.588 139.265L176.259 138.291L176.164 142.334L217.492 143.308L217.588 139.265Z" fill="#D3DFFF"/>
    <path d="M159.982 129.323L147.597 129.031L147.305 141.417L159.691 141.708L159.982 129.323Z" fill="white" stroke="#708CD5" stroke-width="6" stroke-miterlimit="10"/>
    <path d="M149.783 132.647C150.165 134.111 150.871 140.242 153.942 138.528C154.651 138.133 155.25 137.088 155.779 136.486L158.635 133.242C160.54 131.08 162.445 128.918 164.349 126.756C164.837 126.202 162.683 124.812 162.07 125.508C160.378 127.429 158.685 129.352 156.992 131.274C156.146 132.235 155.299 133.195 154.453 134.156C153.865 134.823 152.507 136.974 151.636 137.165C152.11 137.318 152.583 137.47 153.058 137.624C153.393 137.898 152.771 135.95 152.756 135.897C152.52 134.992 152.284 134.089 152.048 133.184C151.853 132.436 149.494 131.538 149.784 132.645L149.783 132.647Z" fill="#EE6F57"/>
    <path d="M196.679 152.309L175.941 151.82L175.846 155.864L196.583 156.353L196.679 152.309Z" fill="#708CD5"/>
    <path d="M228.055 161.863L175.738 160.632L175.643 164.675C195.884 165.15 221.656 166.099 226.915 165.291C227.713 164.384 228.143 163.27 228.055 161.863Z" fill="#D3DFFF"/>
    <path d="M159.629 151.674L147.244 151.383L146.952 163.768L159.337 164.06L159.629 151.674Z" fill="white" stroke="#708CD5" stroke-width="6" stroke-miterlimit="10"/>
    <path d="M149.262 154.82C149.644 156.284 150.35 162.415 153.421 160.702C154.129 160.307 154.728 159.261 155.258 158.659L158.114 155.416C160.019 153.254 161.923 151.091 163.828 148.929C164.316 148.376 162.161 146.986 161.548 147.681C159.855 149.603 158.162 151.526 156.469 153.447C155.623 154.408 154.777 155.369 153.93 156.331C153.343 156.998 151.984 159.148 151.113 159.339C151.587 159.493 152.061 159.645 152.535 159.798C152.871 160.073 152.248 158.125 152.234 158.072C151.997 157.167 151.762 156.263 151.525 155.358C151.33 154.611 148.972 153.712 149.262 154.82Z" fill="#EE6F57"/>
    <path d="M215.565 19.1013V31.4628H165.9V19.1013C165.9 17.1303 166.701 15.3466 167.991 14.0516C168.152 13.8904 168.319 13.7396 168.495 13.5992C169.728 12.5747 171.314 11.9611 173.041 11.9611C174.336 11.9611 175.578 11.6646 176.691 11.129C177.175 10.895 177.633 10.6193 178.064 10.3021C179.484 9.25161 180.571 7.75908 181.112 5.98053C181.663 4.16557 182.791 2.64703 184.253 1.59134C185.657 0.582451 187.368 0 189.183 0H192.282C194.097 0 195.808 0.582451 197.212 1.59134C198.674 2.64703 199.802 4.16557 200.353 5.98053C200.894 7.75908 201.981 9.25161 203.401 10.3021C203.833 10.6193 204.29 10.895 204.774 11.129C205.887 11.6646 207.13 11.9611 208.425 11.9611C210.151 11.9611 211.737 12.5747 212.97 13.5992C214.556 14.9045 215.565 16.8859 215.565 19.1013Z" fill="#EE6F57"/>
    <path d="M219.595 25.3938V34.583H161.87V25.3938H165.9V31.4628H215.565V25.3938H219.595Z" fill="#E4E4E4"/>
    <path d="M190.733 11.5957C193.165 11.5957 195.137 9.72143 195.137 7.40936C195.137 5.09729 193.165 3.22299 190.733 3.22299C188.3 3.22299 186.328 5.09729 186.328 7.40936C186.328 9.72143 188.3 11.5957 190.733 11.5957Z" fill="white"/>
    <path d="M95.5307 65.2826C93.769 64.9498 92.1231 62.0063 91.551 60.8778C91.4106 60.6009 91.3664 60.2875 91.4249 59.982L92.1257 56.2663C92.1257 56.2663 93.743 56.5419 93.6182 58.6949C93.6052 58.9185 93.6507 59.1422 93.7313 59.3502L94.3502 60.9701L96.1807 59.553L95.177 56.7187C95.177 56.7187 93.834 57.088 93.1397 56.8669C91.7148 56.4119 93.5831 55.3016 94.1733 55.1833C94.7636 55.065 96.0637 54.5931 96.654 55.5967C97.2442 56.6004 97.5991 57.1907 97.5991 57.1907C97.5991 57.1907 98.2492 54.9467 97.8059 49.9269C97.7864 49.7007 98.3519 49.7059 98.5105 49.8671C98.9864 50.3508 99.7443 51.8251 99.7846 56.3053C99.7846 56.3053 99.8639 51.084 100.76 50.5471C101.498 50.1038 101.871 52.6598 101.351 56.9931C101.351 56.9931 102.315 53.2409 103.005 53.2344C104.169 53.2227 103.021 63.2557 100.095 66.246L95.5346 65.2826H95.5307Z" fill="#F9B384"/>
    <path d="M101.054 63.7471C101.002 64.2464 100.944 64.73 100.882 65.1981V65.2033C100.674 66.8674 100.414 68.3548 100.112 69.6289C100.097 69.6913 100.086 69.7485 100.071 69.8057C99.1814 73.4512 99.0202 75.235 95.9831 74.7565L92.8576 71.1994L92.8264 71.163L92.5976 70.903L93.2321 69.0308L93.3153 68.7864L93.7833 67.4239L93.8405 67.2471L94.6414 64.9016L94.9638 63.95L101.054 63.7471Z" fill="#F9B384"/>
    <path d="M42.9878 193.272L42.1922 195.758C36.7369 197.55 33.5555 199.604 33.3514 201.999H49.1257L50.3907 193.674C47.1963 194.454 44.6351 193.911 42.9878 193.272Z" fill="#1F3C88"/>
    <path d="M44.9666 187.092L42.9891 193.272C44.6364 193.911 47.1976 194.454 50.392 193.674L51.2072 188.305L44.9666 187.092Z" fill="#F9B384"/>
    <path d="M71.9362 192.997L72.399 186.702L64.9884 187.092L64.584 192.895C67.7212 193.895 70.315 193.504 71.9362 192.997Z" fill="#F9B384"/>
    <path d="M80.8498 202C80.6457 199.605 77.8595 196.322 71.749 195.542L71.9362 192.997C70.3137 193.504 67.7212 193.895 64.5841 192.895L63.9483 202H80.8498Z" fill="#1F3C88"/>
    <path d="M65.9297 66.8986L56.9901 66.961V53.4398H65.6592L65.6644 54.2667L65.706 58.5519L65.7684 65.4321L65.9297 66.8986Z" fill="#F9B384"/>
    <path d="M65.706 59.202C64.0991 60.8921 59.9075 58.9835 58.1394 57.1218L65.6644 54.9168L65.706 59.202Z" fill="#E28B6D"/>
    <path d="M67.781 50.3196C67.7758 51.3181 67.7134 52.3633 67.547 53.3618C67.1102 56.0869 65.9557 58.4427 63.293 58.5155C57.0005 58.6975 55.2063 55.0988 54.0206 52.1553C52.8349 49.2067 54.7591 42.1184 54.7591 42.1184L62.903 41.3124L67.3754 44.9787C67.3754 44.9787 67.807 47.4697 67.781 50.3196Z" fill="#F9B384"/>
    <path d="M54.2741 50.4691C54.2741 50.4691 56.0696 50.3859 56.3764 45.7523C59.5864 46.8262 61.9318 45.8472 63.791 43.7098C65.3771 45.8043 69.8157 46.4608 71.316 42.1717C72.399 39.0736 69.4088 34.4582 65.0534 37.2534C60.7851 35.0965 54.3105 35.2447 52.4475 40.5349C52.4475 40.5349 45.9703 43.5213 52.8284 50.0959C52.9662 50.2273 54.2741 50.4704 54.2741 50.4704V50.4691Z" fill="#102048"/>
    <path d="M79.0296 115.494L74.0892 190.212H62.4739L65.3784 117.708L67.1544 116.885L79.0296 115.494Z" fill="#102048"/>
    <path d="M48.7798 105.272L40.632 190.212H53.2873L65.3342 119.659L79.0296 115.498L79.6355 100.417L49.127 99.7239L48.7798 105.272Z" fill="#1F3C88"/>
    <path opacity="0.6" d="M50.5961 105.456C57.5075 107.937 73.7251 105.101 77.0924 101.645L74.7002 96.8598L48.0271 100.404L50.5974 105.455L50.5961 105.456Z" fill="#102048"/>
    <path d="M76.471 100.494C76.2474 100.587 76.0185 100.686 75.7845 100.774C73.1999 101.825 70.2564 102.745 67.1206 103.354C65.2484 103.723 63.2982 103.973 61.3116 104.066C58.3162 104.217 55.2375 104.02 52.19 103.328L56.0644 67.2055L56.5376 62.8007C56.5376 62.8007 61.6081 69.0412 67.1986 62.1506L76.471 100.494Z" fill="white"/>
    <path opacity="0.3" d="M61.3116 104.066C58.3162 104.217 55.2375 104.019 52.19 103.328L56.0644 67.2054L57.4477 65.2059C60.8644 73.5162 64.3643 91.918 61.3116 104.066Z" fill="#1F3C88"/>
    <path d="M56.9927 61.3705C60.8449 77.726 62.4298 94.556 56.7547 113.245C52.5463 114.846 47.9634 114.827 43.0606 113.418L44.2737 79.4421L15.714 99.0739L13.981 88.37C24.9592 77.8729 43.9408 62.0141 56.9927 61.3705Z" fill="#708CD5"/>
    <path opacity="0.3" d="M75.7845 100.774C73.1999 101.825 70.2564 102.745 67.1206 103.354C65.3992 93.4834 65.0196 77.2683 66.4185 69.9513L75.7845 100.774Z" fill="#1F3C88"/>
    <path opacity="0.6" d="M100.112 69.6289C100.097 69.6913 100.086 69.7485 100.071 69.8057C99.1814 73.4512 99.0202 75.235 95.9831 74.7565L92.8576 71.1994L92.8264 71.163L93.2321 69.0308L93.3153 68.7864L93.7833 67.4239L93.8405 67.247L100.112 69.6289Z" fill="#E28B6D"/>
    <path d="M99.5714 72.9416C99.5714 72.9416 91.9007 89.193 87.3503 89.583C82.9391 89.9614 80.8498 85.6827 80.8498 85.6827L83.97 109.433C80.3037 111.149 76.3046 111.987 71.6606 111.165C67.5366 97.7737 65.9778 80.4588 65.6709 61.1755C69.0096 61.3835 75.622 61.6683 77.9895 63.1907C82.237 65.9209 87.4804 75.6718 87.4804 75.6718L93.5909 67.3511L99.5714 72.9416Z" fill="#708CD5"/>
    <path d="M6.05939 50.0426C6.05939 50.0426 6.52353 42.268 7.3153 42.6346C8.10707 43.0012 9.6932 49.7618 9.6932 49.7618L7.99656 52.4999L6.05939 50.0426Z" fill="#6F3428"/>
    <path d="M29.4042 190.429L29.6344 192.988C30.04 197.504 26.7078 201.496 22.1899 201.901L21.532 201.96C17.0154 202.365 13.0241 199.033 12.6185 194.515L12.3883 191.957L29.4029 190.428L29.4042 190.429Z" fill="#EE6F57"/>
    <path d="M18.2686 66.537L1.25352 68.0646L12.3764 191.961L29.3915 190.434L18.2686 66.537Z" fill="#FBC343"/>
    <path opacity="0.3" d="M12.5572 64.5441L6.51382 65.0866L16.2634 173.687L22.3068 173.144L12.5572 64.5441Z" stroke="#6F3428" stroke-width="8" stroke-miterlimit="10"/>
    <path d="M29.4016 190.43L12.3909 191.959L11.9437 186.967L11.6317 183.498L10.6696 172.837L27.6855 171.308L28.6424 181.969L28.9544 185.438L29.4016 190.43Z" fill="#102048"/>
    <path d="M28.6543 181.964L11.6434 183.494L11.9554 186.963L28.9663 185.433L28.6543 181.964Z" fill="#FBC343"/>
    <path d="M1.25545 68.0622L5.98136 49.1209C5.98136 49.1209 7.61301 49.845 9.59178 48.6229L18.2713 66.5346L1.25545 68.0635V68.0622Z" fill="#EE6F57"/>
    <path d="M55.2154 49.6851C55.1387 49.4056 53.8698 49.022 53.5903 48.944C53.1573 48.8244 52.6854 48.7659 52.2642 48.957C50.7287 49.6513 50.9341 51.8498 51.7298 53.0056C52.1809 53.6609 52.8401 54.164 53.6072 54.3837C53.8854 54.463 56.5272 54.4955 56.4115 54.0704C56.4115 54.0691 55.218 49.6955 55.2154 49.6851Z" fill="#F9B384"/>
    <path d="M6.87326 93.8734C6.47412 92.6201 5.16101 91.918 3.9181 92.3471C1.98223 93.0153 0.29598 94.149 0.035957 96.0784C-0.201964 97.8348 0.676914 103.446 4.60066 104.166L4.28083 101.284C4.28083 101.284 6.68344 100.724 7.16318 99.6823C7.49991 98.9529 7.52201 95.9094 6.87326 93.8747V93.8734Z" fill="#F9B384"/>
    <path d="M79.6497 74.5771C79.8565 75.8044 80.032 77.0369 80.1997 78.2681C80.3739 79.4993 80.513 80.7357 80.6703 81.9696L81.0734 85.6788C81.1904 86.9165 81.3061 88.1555 81.3815 89.3984L81.18 89.4218C80.9668 88.1945 80.7939 86.9633 80.6222 85.7308L80.1581 82.0294C80.0268 80.793 79.8773 79.5578 79.7629 78.3201C79.6419 77.0824 79.5288 75.8434 79.4469 74.6005L79.6485 74.5771H79.6497Z" fill="#1F3C88"/>
    <path d="M44.678 74.3769C44.6754 75.7563 44.6416 77.1331 44.6013 78.5099C44.5662 79.8868 44.496 81.2636 44.444 82.6391L44.2191 86.7657C44.1267 88.1399 44.0318 89.5154 43.8992 90.887L43.6964 90.8779C43.6925 89.4985 43.7276 88.1217 43.7666 86.7436L43.9317 82.6144C44.011 81.2389 44.0695 79.8634 44.1644 78.4878C44.2541 77.1136 44.3504 75.7381 44.4778 74.3652L44.6806 74.3743L44.678 74.3769Z" fill="#1F3C88"/>
    <path d="M61.5262 49.5564C61.6367 50.0465 61.4339 50.5094 61.075 50.59C60.7162 50.6706 60.3353 50.3378 60.2261 49.8476C60.1155 49.3575 60.3184 48.8946 60.6772 48.814C61.036 48.7334 61.417 49.0663 61.5262 49.5564Z" fill="#102048"/>
    <path d="M66.7097 48.9505C66.6889 49.4524 66.373 49.8476 66.0051 49.832C65.6371 49.8164 65.3563 49.3965 65.3784 48.8946C65.3992 48.3928 65.7151 47.9976 66.0831 48.0132C66.451 48.0288 66.7318 48.4487 66.7097 48.9505Z" fill="#102048"/>
    <path d="M63.8196 49.3614C63.9977 49.7917 63.9691 50.2546 64.0848 50.6069C64.1433 50.785 64.2239 50.9423 64.337 51.0385C64.441 51.1334 64.6101 51.1958 64.8246 51.279C65.0456 51.3649 65.2809 51.517 65.4408 51.7432C65.6111 51.9629 65.6579 52.3451 65.5032 52.5948C65.3654 52.8444 65.1665 52.9822 64.9949 53.1083C64.8168 53.2279 64.6452 53.3566 64.4592 53.4684L64.3253 53.315C64.4618 53.146 64.6114 52.9939 64.7557 52.834C64.9039 52.6819 65.0391 52.5337 65.0911 52.3958C65.2016 52.1553 64.965 51.8927 64.6244 51.7562C64.4488 51.6756 64.1953 51.6054 63.9899 51.3961C63.7923 51.1945 63.6948 50.9436 63.6558 50.7083C63.57 50.226 63.6675 49.8138 63.622 49.4134L63.8183 49.3601L63.8196 49.3614Z" fill="#E28B6D"/>
    <path d="M59.0456 48.2394C59.1223 47.9313 59.3108 47.6387 59.576 47.4281C59.8373 47.211 60.1793 47.0927 60.5186 47.0758C61.2012 47.0342 61.8772 47.4229 62.158 47.9976L61.9994 48.1237C61.5483 47.7687 61.0503 47.575 60.5446 47.5932C60.0363 47.6062 59.5747 47.8676 59.2302 48.3265L59.0456 48.2407V48.2394Z" fill="#102048"/>
    <path d="M64.4124 47.6023C64.4891 47.3618 64.6243 47.133 64.8206 46.9458C65.0131 46.7534 65.2809 46.6259 65.5591 46.5804C66.1182 46.4881 66.7175 46.7729 66.9385 47.2682L66.776 47.3904C66.4107 47.1447 66.0116 47.0407 65.6358 47.0927C65.4473 47.1174 65.2692 47.1889 65.0924 47.2916C64.9195 47.3995 64.7608 47.5477 64.5879 47.7063L64.4124 47.6036V47.6023Z" fill="#102048"/>
    <path d="M61.5366 54.398C62.444 55.8191 63.6544 55.9738 64.5892 54.4773L61.5366 54.398Z" fill="white"/>
    <path opacity="0.4" d="M67.8044 49.9724C67.7992 50.9709 67.7121 52.3633 67.5457 53.3618C66.9164 53.159 66.4588 52.5714 66.4588 51.8693C66.4588 51.084 67.0608 50.092 67.8044 49.9724Z" fill="#FC8879"/>
    <path opacity="0.4" d="M59.3199 54.476C60.2461 54.476 60.997 53.7251 60.997 52.7989C60.997 51.8726 60.2461 51.1217 59.3199 51.1217C58.3936 51.1217 57.6427 51.8726 57.6427 52.7989C57.6427 53.7251 58.3936 54.476 59.3199 54.476Z" fill="#FC8879"/>
    <path d="M54.1168 51.3558C53.7853 51.1308 53.4811 50.8838 53.1794 50.7382C53.0299 50.6641 52.8895 50.6199 52.766 50.6303C52.6399 50.6394 52.4956 50.7135 52.3331 50.8292L52.1628 50.7187C52.233 50.5107 52.3825 50.278 52.6568 50.187C52.9285 50.092 53.2054 50.1688 53.4096 50.2741C53.8243 50.5003 54.1077 50.8331 54.2793 51.2322L54.1181 51.3558H54.1168Z" fill="#E28B6D"/>
    <path opacity="0.6" d="M7.16319 99.681L4.74887 107.015L4.25093 101.284C5.75126 100.958 6.57033 100.357 7.16319 99.681Z" fill="#6F3428"/>
</svg>
