<svg width="163" height="194" viewBox="0 0 163 194" fill="none" xmlns="http://www.w3.org/2000/svg">
    <path d="M86.279 158.725L103.355 189.792L122.087 123.949L133.61 126.83L125.994 193.141H82.3713L86.279 158.725Z" fill="#FAB3AE"/>
    <path d="M30.3347 112.657C25.5098 109.707 20.2663 107.374 14.8234 105.809C16.7872 103.816 18.9405 101.563 21.3429 98.8823C36.6648 81.7788 46.3444 18.2786 46.3444 18.2786L83.6173 15.0194C86.598 17.8102 88.2229 21.787 89.0104 25.7938C89.7979 29.8006 89.8278 33.907 90.1169 37.9835C90.2166 39.3889 90.1568 41.7411 90.5855 43.0867C91.5524 46.1466 93.8053 48.3493 96.0981 50.6018C94.553 52.7846 92.31 54.2199 90.0571 54.5787C90.0571 54.5787 90.4359 70.5061 82.2217 74.6723C74.0075 78.8385 65.0357 77.7023 65.0357 77.7023C65.0357 77.7023 60.3305 93.5499 61.9753 96.2111C63.6202 98.8624 69.6014 106.238 81.1451 118.826C84.694 122.704 87.8441 126.322 90.416 129.75C80.3077 135.76 68.136 138.92 56.4626 138.9C49.6839 128.465 40.9513 119.145 30.3247 112.667L30.3347 112.657Z" fill="#FAB3AE"/>
    <path d="M14.8234 105.809C20.2663 107.374 25.4999 109.707 30.3347 112.657C40.9613 119.145 49.6839 128.455 56.4726 138.89C68.1459 138.91 80.3177 135.751 90.426 129.74C96.2078 137.465 99.019 144.213 96.7162 150.631C93.3966 159.901 86.2192 165.672 86.2192 165.672V193.141H-3.05176e-05L7.92507 179.865C7.92507 179.865 -0.817474 151.319 1.42548 132.74C3.65847 114.152 9.54997 111.182 14.8234 105.819V105.809Z" fill="white"/>
    <path d="M65.4842 32.412C61.4868 49.9739 51.4284 62.7517 41.3102 77.6525C36.8043 84.2905 10.477 111.76 2.79114 125.116C2.79114 125.116 16.4582 34.525 22.2301 19.8335C28.002 5.14207 42.0179 -0.658765 56.7018 0.058864C91.8215 1.7732 95.9984 26.1427 89.8278 30.9568C89.429 28.8338 89.0004 26.4517 88.3125 24.3984C88.3125 24.3984 85.282 29.3222 78.1744 31.6844C70.3888 34.2758 65.4842 32.402 65.4842 32.402V32.412Z" fill="#374780"/>
    <path d="M47.152 44.203C47.6604 47.6616 49.7239 50.871 52.6647 52.7747C53.5818 53.3727 54.6086 53.8511 55.7051 53.9209C58.1674 54.0903 60.3904 52.057 61.1281 49.6948C61.8658 47.3326 61.4172 44.7711 60.6596 42.4189C59.6826 39.3789 57.8085 36.1895 54.6983 35.4818C49.6741 34.3356 46.514 39.9072 47.152 44.203Z" fill="#FAB3AE"/>
    <g style="mix-blend-mode:multiply">
        <path d="M58.5859 50.9108C57.5093 50.5919 56.5224 49.954 55.7748 49.1068C55.6252 48.9373 55.4757 48.748 55.4458 48.5287C55.376 48.1001 55.705 47.7214 56.0041 47.4124C56.6221 46.7944 57.2402 46.1765 57.8582 45.5485C57.9779 45.4289 58.1074 45.2894 58.1573 45.1299C58.2071 44.9406 58.1573 44.7512 58.0975 44.5618C57.3797 42.2195 56.5424 39.6979 54.5087 38.3224C53.9605 37.9536 53.3225 37.6746 52.6645 37.6646C51.6876 37.6546 50.7705 38.2227 50.1425 38.9802C49.5144 39.7377 49.1356 40.6647 48.7867 41.5816C48.7867 41.5816 48.2883 46.6051 51.7873 49.6151C55.2863 52.6252 58.576 50.9009 58.576 50.9009L58.5859 50.9108Z" fill="#FAB3AE"/>
    </g>
    <path d="M48.7868 41.5916C49.2653 40.6946 49.7039 39.7676 50.4017 39.0999C51.0596 38.4221 51.9767 37.9935 52.8141 38.1131C53.6515 38.2427 54.4589 38.8108 55.077 39.4886C55.705 40.1763 56.1935 41.0036 56.5723 41.9006C56.971 42.7877 57.2801 43.7345 57.5891 44.6914C57.6788 44.9505 57.6788 45.0103 57.6589 45.0203C57.629 45.0901 57.3997 45.3193 57.2402 45.4887L56.2035 46.6051C55.8845 46.9938 55.4757 47.2828 55.1867 47.8908C55.0471 48.1898 55.0571 48.6383 55.2465 48.9174C55.4259 49.1965 55.6153 49.3659 55.8147 49.5453C56.6221 50.2331 57.5692 50.7314 58.576 50.9108C57.6489 50.5022 56.8115 49.9241 56.1935 49.1766C56.044 48.9971 55.8645 48.7978 55.8047 48.6284C55.7349 48.4689 55.7549 48.3493 55.8446 48.1998C56.014 47.9008 56.4527 47.5619 56.8115 47.213L57.9181 46.1765C58.0975 45.9871 58.2769 45.8874 58.5162 45.5286C58.6358 45.3492 58.6956 45.0602 58.6657 44.8708C58.6458 44.6714 58.6059 44.5219 58.566 44.4023C58.2769 43.4255 57.9779 42.4388 57.5592 41.472C57.1305 40.5152 56.5823 39.5683 55.8147 38.7909C55.0471 38.0433 54.0801 37.3556 52.8839 37.2759C51.6677 37.2061 50.631 37.9237 49.993 38.761C49.3649 39.6381 49.026 40.6148 48.7768 41.6016L48.7868 41.5916Z" fill="#374780"/>
    <path d="M20.4757 25.2058C21.1436 22.8834 21.7318 21.0595 22.2103 19.8335C23.3268 16.9929 24.7623 14.4812 26.437 12.2884C36.2761 14.0526 46.2448 15.0194 56.2334 14.9098C66.2619 14.7902 76.3004 13.5543 85.9999 11.0126C89.2796 14.4015 91.1039 18.1092 91.8217 21.4482C79.3309 26.0031 65.9928 28.1161 52.6945 28.2756C41.8885 28.4052 31.0924 27.259 20.4757 25.2058Z" fill="#37EBA6"/>
    <path d="M27.2942 11.4313C26.5067 12.109 25.8089 12.8765 25.1509 13.6938C24.5129 14.5211 23.9547 15.4081 23.4363 16.3151C22.4095 18.1391 21.6619 20.1026 21.0039 22.0761C20.3759 24.0596 19.8675 26.0729 19.4389 28.1062C19.0002 30.1295 18.5716 32.1628 18.2127 34.206C18.8308 32.2226 19.3791 30.2292 19.9074 28.2358C20.4258 26.2324 20.9342 24.229 21.6021 22.2854C22.8282 18.3684 24.503 14.541 27.2942 11.4612V11.4313Z" fill="#374780"/>
    <path d="M92.001 23.4416C91.9611 21.8967 91.662 20.3518 91.1836 18.8667C90.7051 17.3816 89.9973 15.9762 89.1699 14.6407C88.3026 13.3449 87.3057 12.119 86.1494 11.0625C84.993 10.0159 83.717 9.09898 82.3114 8.43118C83.5675 9.32822 84.7438 10.315 85.8004 11.4113C86.8571 12.5077 87.8241 13.6938 88.6316 14.9796C89.4789 16.2454 90.1568 17.6109 90.725 19.0262C91.2932 20.4415 91.7019 21.9166 92.001 23.4416Z" fill="#374780"/>
    <path d="M69.0231 76.9946C67.0393 76.6159 65.235 75.6491 63.7497 74.3534C62.2643 73.0576 61.0382 71.4629 60.2008 69.6788C59.3136 67.9146 58.7753 65.981 58.4065 64.0275C58.0376 62.064 57.8681 60.0606 57.7286 58.0572C57.6089 60.0706 57.6488 62.0939 57.918 64.1072C58.1971 66.1206 58.7554 68.104 59.6326 69.9579C60.5597 71.7918 61.8357 73.4563 63.4506 74.7321C65.0556 75.9979 67.0094 76.875 69.0331 76.9946H69.0231Z" fill="#374780"/>
    <path d="M89.2397 63.0706C85.6909 61.6653 82.5308 59.1037 80.3776 55.7947C82.162 59.3131 85.0928 62.3231 88.7014 64.2268L89.2397 63.0706Z" fill="#374780"/>
    <path d="M81.484 41.0733C81.484 42.3591 82.2217 43.4056 83.1388 43.4056C84.0559 43.4056 84.7936 42.3591 84.7936 41.0733C84.7936 39.7876 84.0559 38.741 83.1388 38.741C82.2217 38.741 81.484 39.7876 81.484 41.0733Z" fill="#374780"/>
    <path d="M74.7752 40.7145C75.3434 39.359 76.111 38.1032 77.0879 37.0566C78.035 35.9901 79.1514 35.0931 80.3876 34.4552C81.6237 33.7974 82.9794 33.5382 84.2853 33.1495C85.6112 32.7708 86.9769 32.5316 88.5021 32.2625L88.532 32.0731C87.1463 31.2956 85.5015 31.0963 83.9165 31.2757C82.3115 31.4451 80.8661 32.2624 79.5801 33.1595C78.2842 34.0665 77.1876 35.2027 76.3303 36.4785C75.4929 37.7742 74.8749 39.1896 74.5958 40.6647L74.7752 40.7245V40.7145Z" fill="#374780"/>
    <path d="M51.1294 193.141C51.1294 193.141 39.1371 140.614 34.073 130.059C29.0089 119.514 20.0869 116.325 12.9992 118.318C5.91141 120.311 3.07034 130.657 5.30332 141.412C7.53631 152.156 21.1436 193.141 21.1436 193.141H51.1294Z" fill="#FAB3AE"/>
    <path d="M160.326 98.9521C158.911 106.019 152.072 111.471 151.983 118.677C151.953 121.189 152.77 123.621 153.159 126.092C153.817 130.279 153.229 134.654 151.494 138.521C150.079 141.671 147.786 144.571 144.646 146.017C141.765 147.342 138.385 147.332 135.365 146.375C130.998 144.98 127.32 141.581 125.585 137.335C123.851 133.089 124.1 128.096 126.243 124.039C128.157 120.411 131.487 117.551 132.793 113.654C134.687 108.002 131.856 101.833 132.524 95.9221C133.002 91.726 135.335 87.779 138.774 85.3371C148.633 78.3502 162.789 86.7125 160.326 98.9421V98.9521Z" fill="white"/>
    <path d="M137.388 86.3637L160.326 91.4569C161.513 91.716 162.679 90.9784 162.948 89.7924C163.207 88.6063 162.47 87.4401 161.283 87.171L138.345 82.0778C137.159 81.8187 135.993 82.5563 135.724 83.7423C135.465 84.9284 136.202 86.0946 137.388 86.3637Z" fill="#3D60EA"/>
    <path d="M142.606 77.5034L159.343 81.2227C160.708 81.526 161.569 82.8784 161.266 84.2433L160.768 86.4811C160.465 87.846 159.112 88.7065 157.747 88.4032L141.009 84.6839C139.644 84.3806 138.784 83.0282 139.087 81.6633L139.584 79.4255C139.888 78.0606 141.24 77.2001 142.606 77.5034Z" fill="#3D60EA"/>
    <path d="M150.813 75.9593L152.564 76.3485C152.946 76.4333 153.187 76.8114 153.102 77.1929L152.546 79.6934C152.461 80.0749 152.083 80.3155 151.702 80.2307L149.95 79.8415C149.568 79.7567 149.328 79.3786 149.413 78.9971L149.968 76.4966C150.053 76.1151 150.431 75.8745 150.813 75.9593Z" fill="#3D60EA"/>
    <path d="M138.345 82.0778C140.239 82.5762 142.143 83.0546 144.047 83.5031L149.769 84.8287L155.511 86.0547C157.425 86.4534 159.349 86.8222 161.283 87.171C159.389 86.6727 157.485 86.1942 155.581 85.7457L149.859 84.4301L144.117 83.2041C142.203 82.8054 140.279 82.4366 138.345 82.0878V82.0778Z" fill="black"/>
    <path d="M149.421 79.0179C149.919 79.2571 150.437 79.3867 150.956 79.5163C151.484 79.616 152.003 79.7256 152.561 79.7156C152.062 79.4764 151.544 79.3468 151.026 79.2173C150.497 79.1176 149.969 79.008 149.421 79.0179Z" fill="black"/>
    <path d="M157.037 94.0383C157.096 96.2111 156.528 98.3142 155.601 100.228C154.714 102.171 153.538 103.956 152.321 105.74C151.105 107.524 149.919 109.368 148.992 111.401C148.075 113.424 147.576 115.717 147.636 117.949C147.716 122.434 149.211 126.581 149.411 130.797C149.49 132.89 149.211 135.013 148.294 136.927C147.437 138.86 146.041 140.555 144.317 141.86C146.211 140.794 147.766 139.139 148.852 137.216C149.929 135.262 150.348 133 150.388 130.787C150.388 126.332 148.932 122.135 148.902 117.939C148.832 115.846 149.261 113.813 150.098 111.879C150.906 109.936 152.052 108.122 153.149 106.268C154.265 104.414 155.382 102.52 156.179 100.467C156.937 98.4238 157.396 96.1912 157.047 94.0383H157.037Z" fill="#3D60EA"/>
    <path d="M122.087 123.949C122.087 123.949 123.602 116.973 125.306 113.275C127.011 109.577 133.551 103.756 135.116 103.188C136.681 102.62 143.649 101.912 144.925 102.191C146.201 102.47 143.649 106.168 140.379 107.594C137.109 109.019 135.405 109.019 135.405 109.019L134.129 113.145C134.129 113.145 136.262 118.119 134.697 122.953C133.132 127.787 124.888 131.624 124.888 131.624L122.096 123.959L122.087 123.949Z" fill="#FAB3AE"/>
    <path d="M162.151 124.587C160.127 135.691 142.712 134.814 137.079 129.312C131.447 123.8 146.968 108.152 155.701 109.447C164.434 110.743 162.151 124.587 162.151 124.587Z" fill="#FAB3AE"/>
    <path d="M161.363 126.88C159.409 127.119 157.465 127.428 155.521 127.707C153.578 127.986 151.634 128.295 149.69 128.504C147.746 128.764 145.792 128.933 143.838 129.063C141.884 129.182 139.92 129.222 137.947 129.192C139.9 129.481 141.874 129.571 143.858 129.541C145.832 129.521 147.806 129.342 149.769 129.122C151.723 128.853 153.677 128.564 155.611 128.176C157.545 127.787 159.469 127.368 161.373 126.87L161.363 126.88Z" fill="#374780"/>
    <path d="M162.32 120.521C160.147 120.88 157.984 121.308 155.82 121.737L149.351 123.072L136.431 125.833C138.624 125.624 140.808 125.295 142.981 124.926C145.154 124.557 147.317 124.119 149.48 123.68C151.634 123.202 153.787 122.724 155.92 122.195C158.063 121.667 160.197 121.119 162.31 120.511L162.32 120.521Z" fill="#374780"/>
    <path d="M161.114 113.175L155.302 115.139C153.368 115.786 151.434 116.454 149.48 117.062C147.547 117.72 145.593 118.308 143.639 118.926L137.777 120.75C139.791 120.381 141.785 119.903 143.768 119.385C145.752 118.866 147.706 118.268 149.67 117.65C151.614 116.992 153.548 116.335 155.462 115.577C157.366 114.83 159.26 114.042 161.114 113.155V113.175Z" fill="#374780"/>
    <g opacity="0.26">
        <path d="M43.593 31.9734L40.9214 46.007C40.0043 50.6816 39.0672 55.3462 37.9308 59.9609C36.8442 64.5956 35.5782 69.1705 34.1128 73.6955L32.9764 77.0744L31.7402 80.4233L30.4343 83.7423L29.0088 87.0215L30.5739 83.8121L32.0293 80.5429L33.3552 77.2239L34.5813 73.865C36.1464 69.3599 37.4224 64.7551 38.5588 60.1204C39.6454 55.4757 40.6024 50.8012 41.4099 46.1067L42.5662 39.05L43.593 31.9834V31.9734Z" fill="white"/>
        <path d="M33.8636 39.7178L29.7664 57.2C28.3609 63.0208 26.9154 68.8216 25.2606 74.5726C23.6457 80.3336 21.8214 86.0248 19.7579 91.6362L18.1629 95.8324L16.4582 99.9787L14.6639 104.095L12.7399 108.152L14.8034 104.165L16.7473 100.108L18.5417 95.9819L20.2164 91.8157C22.3796 86.2241 24.2039 80.503 25.8687 74.752C27.4836 68.9811 28.939 63.1603 30.2449 57.3196C30.8829 54.3993 31.5209 51.469 32.129 48.5387L33.8735 39.7278L33.8636 39.7178Z" fill="white"/>
        <path d="M27.2045 33L23.9846 44.5419L20.8345 56.1037L14.624 79.2472L8.56302 102.431L5.57241 114.032L2.66156 125.654L5.87148 114.112L9.03155 102.55L15.242 79.4067L21.303 56.2233L24.2836 44.6216L27.2045 33Z" fill="white"/>
    </g>
</svg>
