<svg width="324" height="243" viewBox="0 0 324 243" fill="none" xmlns="http://www.w3.org/2000/svg">
    <g clip-path="url(#clip0_895_8340)">
        <path d="M147.753 216.625C138.322 216.647 128.89 216.817 119.476 217.595C115.927 217.889 112.452 218.537 108.892 218.799C101.786 219.32 94.8046 220.293 87.6743 220.743C81.9297 221.104 76.164 221.316 70.4371 221.776C65.0673 222.205 59.1247 222.106 53.7973 221.398C49.8521 220.874 45.8893 220.576 42.0113 219.73C37.6737 218.785 32.9614 218.109 28.44 218.134C21.9955 218.169 15.7171 218.172 9.54835 219.84C7.38486 220.424 4.73352 221.387 3.0897 222.615C-0.675195 225.43 -1.18425 232.447 2.57357 235.364C8.90495 240.274 22.4126 242.2 31.2857 242.292C41.0073 242.391 50.4531 241.853 60.1888 241.538C69.2352 241.244 78.2603 240.826 87.3243 240.84C105.834 240.869 124.348 240.84 142.822 239.92C160.179 239.053 177.583 239.35 194.979 239.35C212.375 239.35 230.539 239.456 248.25 241.223C255.967 241.991 263.829 242.264 271.585 242.802C278.531 243.283 285.206 242.791 292.124 242.345C297.932 241.97 303.705 240.858 308.983 238.978C313.161 237.491 320.606 232.868 321.89 229.317C325.481 219.362 271.274 219.599 262.952 219.624C253.641 219.649 244.258 219.879 234.954 219.613C231.041 219.504 227.184 218.934 223.366 218.307C219.562 217.684 215.73 217.843 211.87 217.581C195.782 216.491 179.658 216.65 163.517 216.65C158.263 216.65 153.01 216.615 147.753 216.629V216.625Z" fill="#F1F2F2"/>
        <path d="M54.7023 167.986C54.3418 167.459 53.9246 166.935 53.3449 166.687C52.9843 166.531 52.5848 166.5 52.1924 166.478C50.2587 166.372 48.5018 166.836 46.6069 166.97C45.1151 167.077 44.0935 166.885 43.2274 168.457C42.7572 169.311 42.5946 170.291 42.4426 171.254C40.6679 182.385 39.215 193.565 37.7621 204.741C37.4156 207.41 37.0692 210.08 36.7228 212.749C36.5884 213.793 36.4506 214.841 36.3162 215.886C35.7153 220.523 35.1108 225.157 34.5098 229.795C34.4002 230.641 33.9937 231.349 33.7144 232.117H33.6967L28.7299 235.668L27.8249 237.29L29.9919 238.338L35.0118 237.406L38.4762 235.052L38.5257 232.942C38.5327 232.167 38.6105 231.431 38.7873 230.673C39.1337 229.193 39.6781 227.752 40.1589 226.315C40.8801 223.858 41.6295 221.412 42.3577 218.958C43.945 213.609 45.4969 208.249 47.0347 202.886C48.6149 197.367 50.3895 191.901 52.0298 186.403C53.5216 181.393 57.9193 172.713 54.7023 167.986Z" fill="#3B455A"/>
        <path d="M73.6222 171.265C74.6651 171.502 75.662 171.973 76.4362 172.709C78.9108 175.049 77.3871 178.543 76.9594 181.411C76.4079 185.103 76.1145 188.828 76.0155 192.559C75.8175 199.898 75.5241 207.233 75.1282 214.565C74.8136 220.428 72.9011 227.993 74.3575 233.707L76.4539 237.346L75.5135 238.504L72.0067 238.203C71.5365 238.164 69.9528 235.41 69.822 234.868C69.3554 232.942 69.8326 231.023 69.571 229.112C69.3624 227.565 68.7685 225.979 68.4857 224.393C68.0438 221.907 67.6161 219.422 67.206 216.933C66.4 212.051 65.6682 207.155 65.0461 202.245C64.2577 195.997 63.4659 189.748 62.6775 183.503C62.3382 180.827 61.67 178.858 63.2926 176.593C64.7703 174.529 66.7323 172.475 69.1503 171.573C70.3452 171.127 71.6496 170.978 72.9187 171.137C73.1556 171.166 73.3889 171.208 73.6222 171.261V171.265Z" fill="#3B455A"/>
        <path d="M78.43 183.769C76.6059 183.797 74.7817 183.779 72.9647 183.62C68.8781 183.262 64.887 182.374 60.758 182.385C60.3196 180.105 59.6197 177.726 59.4182 175.428C59.1919 172.844 59.6939 170.135 59.8035 167.547C60.0686 161.419 60.507 155.298 61.115 149.195C66.5555 148.983 71.9572 149.588 77.373 149.563C78.7481 149.556 80.6394 149.184 81.2828 150.448C82.2125 152.279 81.8202 154.732 82.057 156.714C82.414 159.741 82.6933 162.765 82.7746 165.813C82.9302 171.799 82.4741 177.8 81.403 183.691C80.4132 183.723 79.4233 183.751 78.43 183.769Z" fill="#C5CCD3"/>
        <path d="M40.6821 182.505C39.42 182.377 38.1651 182.225 36.9066 182.052C36.4682 181.992 36.0051 181.917 35.6764 181.623C35.0648 181.082 35.1956 180.108 35.3794 179.312C37.147 171.679 38.8756 164.039 40.6785 156.417C40.9649 155.203 43.7576 142.918 44.4717 142.911C49.5517 142.964 54.6316 143.017 59.708 143.07C60.1676 143.074 60.6696 143.095 61.0231 143.389C61.3731 143.683 61.4827 144.168 61.5675 144.614C62.8437 151.379 63.7204 158.329 64.1941 165.19C64.6006 171.045 61.3589 176.423 58.4884 181.383C58.1986 181.885 57.8769 182.409 57.3713 182.696C56.9153 182.954 56.3709 182.983 55.8477 183.001C50.789 183.185 45.7161 183.015 40.6785 182.501L40.6821 182.505Z" fill="#C5CCD3"/>
        <path d="M126.702 83.2303C126.656 82.9577 126.621 82.6816 126.589 82.409C125.945 76.9819 126.409 71.93 126.656 66.563C126.858 62.2333 127.42 57.2169 130.827 54.1298C131.351 53.6554 133.903 51.4959 131.524 51.287C130.944 51.2374 130.378 51.7472 130.364 52.3278C131.188 50.9224 131.789 49.3859 132.142 47.7964C132.196 47.5592 132.241 47.3043 132.142 47.0848C132.065 46.9113 131.913 46.7839 131.764 46.667C131.195 46.2139 130.626 45.7572 130.057 45.3041C129.979 45.2403 129.891 45.1766 129.792 45.1731C129.671 45.1695 129.569 45.251 129.481 45.3288C128.466 46.2103 127.451 47.0883 126.437 47.9698C124.719 49.4603 125.355 51.8747 125.03 53.8395C124.666 56.0344 123.842 57.0115 122.873 58.856C120.141 64.0459 118.529 69.9014 117.277 75.633C116.765 77.9767 116.341 80.384 116.634 82.763C116.963 85.4217 118.165 87.8857 119.512 90.201C121.208 93.3164 123.315 96.3362 125.666 98.9878C126.939 100.425 128.325 101.717 129.848 102.878C131.354 104.026 131.877 105.13 132.807 106.822C132.927 107.038 133.051 107.265 133.26 107.399C133.846 107.785 134.585 107.244 135.062 106.73C137.891 103.714 140.471 100.464 142.766 97.0265C143.108 96.5097 143.455 95.9715 143.572 95.3626C143.805 94.1236 143.013 92.8809 141.974 92.1694C140.934 91.4578 139.676 91.1639 138.467 90.817C135.271 89.9001 132.196 88.5548 129.357 86.8236C128.607 86.367 127.854 85.8642 127.374 85.1314C127.002 84.565 126.822 83.903 126.705 83.2268L126.702 83.2303Z" fill="#EFBFA5"/>
        <path d="M175.306 87.914C179.032 85.8855 178.82 81.5735 179.686 76.3588C180.559 71.098 182.087 63.9291 178.569 59.2737C178.145 58.7108 176.038 56.1123 178.414 56.353C178.993 56.4132 179.456 57.0186 179.357 57.5921C178.813 56.0557 178.506 54.4378 178.452 52.8058C178.445 52.565 178.449 52.3066 178.583 52.1048C178.689 51.949 178.866 51.8534 179.032 51.7649C179.676 51.4251 180.319 51.0852 180.962 50.7454C181.051 50.6993 181.15 50.6498 181.249 50.6639C181.365 50.6816 181.45 50.7808 181.524 50.8763C182.359 51.9313 183.19 52.9828 184.024 54.0413C185.434 55.8256 184.36 58.0807 184.314 60.0703C184.264 62.2971 184.89 63.4087 185.498 65.4018C187.216 71.0131 187.711 77.0633 187.874 82.9294C187.941 85.3261 187.909 87.7724 187.177 90.0558C186.361 92.6048 184.72 94.8033 182.967 96.8247C179.216 101.151 173.928 106.397 168.324 108.199C158.26 111.435 158.316 91.1285 167.515 89.3549C168.628 89.1389 169.777 89.1708 170.909 89.0717C172.789 88.9053 174.214 88.5088 175.299 87.9176L175.306 87.914Z" fill="#EFBFA5"/>
        <path d="M161.601 190.924L160.936 205.711C160.586 209.803 160.703 213.91 160.699 218.013C160.699 221.822 159.692 225.685 161.275 229.314C161.77 230.45 162.923 231.293 163.916 230.075C164.68 229.137 164.46 227.42 164.704 226.29C166.536 217.808 169.48 209.609 171.22 201.102C173.044 192.194 169.555 192.216 161.604 190.927L161.601 190.924Z" fill="#EFBFA5"/>
        <path d="M160.24 226.708L159.14 229.115L163.555 233.516L167.819 233.955L169.339 231.781L163.898 226.421L160.24 226.708Z" fill="#3B455A"/>
        <path d="M136.745 190.29L138.29 205.01C138.711 211.574 140.33 218.063 140.751 224.626C140.846 226.134 140.609 227.759 141.122 229.218C141.624 230.645 142.811 230.793 143.936 229.94C145.445 228.8 144.968 226.513 145.077 224.8C145.802 213.397 147.58 202.238 148.694 190.846C148.708 190.697 148.715 190.523 148.609 190.421C148.521 190.336 148.386 190.329 148.266 190.325C147.153 190.311 136.777 190.608 136.745 190.29Z" fill="#EFBFA5"/>
        <path d="M144.915 227.317L146.219 229.614L142.207 234.387L138 235.197L136.293 233.165L141.245 227.349L144.915 227.317Z" fill="#3B455A"/>
        <path d="M174.256 200.617L177.3 179.765C176.452 167.792 171.251 155.681 170.424 143.665C170.371 142.901 170.283 142.054 169.728 141.527C169.297 141.12 168.678 140.992 168.091 140.897C162.523 139.969 156.849 139.973 151.204 139.976C145.703 139.983 134.896 138.808 132.142 144.228C129.311 149.804 130.142 162.333 129.919 168.645C129.572 178.515 129.491 189.946 130.541 199.77L151.904 199.416L153.7 176.157L156.945 191.32L156.807 200.62H174.256V200.617Z" fill="#C4C9CE"/>
        <path d="M166.825 93.8368C166.532 93.0296 166.129 92.2012 165.581 91.3197C163.237 87.5565 155.944 84.9544 151.547 85.5421C147.75 86.0483 144.017 86.1085 140.443 87.6839C137.76 88.8663 135.328 92.711 133.945 95.1077C129.205 103.346 131.128 113.425 131.139 122.512C131.142 127.302 130.679 132.117 130.485 136.9C130.357 140.026 130.241 143.155 130.223 146.281C130.216 147.393 129.679 150.909 130.502 151.84C131.223 152.657 135.815 151.811 137.198 151.769C140.581 151.663 143.967 151.613 147.354 151.62C151.366 151.627 155.379 151.716 159.388 151.882C163.506 152.056 167.296 152.902 171.421 151.967C171.955 151.847 172.517 151.677 172.867 151.259C173.337 150.7 173.281 149.889 173.199 149.167C172.33 141.569 171.259 133.997 169.986 126.456C169.396 122.962 168.183 119.181 168.148 115.641C168.119 112.653 168.169 109.672 167.964 106.645C167.695 102.631 168.197 97.6283 166.818 93.8262L166.825 93.8368Z" fill="#EBB044"/>
        <path d="M159.303 65.0691C160.225 66.6905 160.671 68.5562 160.752 70.4183C160.773 70.9139 160.809 71.4875 161.208 71.7778C161.636 72.0893 161.261 72.7796 161.586 72.3583C161.912 71.9406 163.018 70.4856 163.068 69.9545C163.184 68.7155 163.181 67.4658 163.061 66.2267C162.955 65.1505 162.735 64.0247 162.032 63.2034C161.615 62.7148 161.056 62.375 160.508 62.0422C159.713 61.5607 158.893 61.0757 157.981 60.9058C156.408 60.6119 155.439 61.1784 156.828 62.2758C157.825 63.0618 158.666 63.9539 159.296 65.062L159.303 65.0691Z" fill="#32376B"/>
        <path d="M149.465 86.2147C149.475 86.9759 149.32 87.7689 149.991 88.3601C150.313 88.6433 150.751 88.7601 151.176 88.8274C152.275 89.0009 153.41 88.9194 154.474 88.5937C154.912 88.4592 155.347 88.2751 155.676 87.96C156.065 87.5848 156.086 87.2307 156.103 86.7387C156.125 86.1651 156.241 85.5775 156.316 84.9969C156.478 83.7224 156.552 82.4373 156.591 81.1522C158.479 80.8265 160.696 80.2176 161.343 78.2386C161.544 77.6155 161.551 76.9358 161.558 76.2738C161.579 73.5337 161.597 70.79 161.618 68.0499C161.625 67.1011 161.629 66.124 161.304 65.2461C160.734 63.7025 159.289 62.7821 157.871 62.2015C154.255 60.7252 150.037 60.7818 146.697 62.8847C145.809 63.4441 144.968 64.1627 144.459 65.1398C143.671 66.6444 143.769 68.5066 143.89 70.2413C144.003 71.845 144.116 73.4487 144.229 75.0524C144.36 76.8969 144.636 79.021 146.067 79.9946C146.827 80.5114 147.81 80.607 148.464 81.2761C149.606 82.4444 149.062 84.1897 149.401 85.6058C149.447 85.804 149.465 86.0094 149.465 86.2147Z" fill="#EFBFA5"/>
        <path d="M162.223 75.1764C162.191 74.6666 161.972 73.1797 161.208 74.1143C161.01 74.3586 160.961 74.7055 160.947 75.0312C160.936 75.3569 160.947 75.6932 160.848 76.0012C160.611 76.7057 159.833 77.0279 159.14 77.0137C158.864 77.0102 158.582 76.9642 158.338 76.8261C158.101 76.6916 157.913 76.4756 157.73 76.2667C157.284 75.7569 156.839 75.2436 156.393 74.7338C155.63 73.8559 154.11 74.2347 153.081 74.3692C151.893 74.525 150.705 74.8825 149.733 75.6649C149.634 75.7428 149.539 75.8277 149.443 75.9092C149.21 76.111 148.973 76.3128 148.701 76.4437C147.782 76.8898 146.647 76.4225 146.004 75.587C145.71 75.2047 145.435 74.709 144.975 74.6453C144.618 74.5958 144.268 74.8507 144.084 75.187C143.9 75.5233 143.851 75.9233 143.826 76.3128C143.734 77.7288 143.932 79.1874 144.544 80.4442C145.873 83.1666 148.443 83.5029 151.024 83.4427C152.045 83.418 153.067 83.3932 154.085 83.3719C155.952 83.3295 157.924 83.2516 159.497 82.1647C160.883 81.2053 161.707 79.5768 162.046 77.8705C162.219 76.9889 162.272 76.0791 162.219 75.1799L162.223 75.1764ZM155.396 79.0352C154.414 79.6972 153.332 79.7326 152.236 79.4034C151.769 79.2618 151.967 78.4794 152.434 78.621C153.343 78.8936 154.198 78.8865 155.018 78.3378C155.428 78.0616 155.807 78.7626 155.4 79.0387L155.396 79.0352Z" fill="#3B455A"/>
        <path d="M162.615 60.3181C162.795 59.6525 162.93 58.9763 163.015 58.2931C162.382 58.5161 161.696 58.5728 161.035 58.463C161.035 58.07 161.035 57.6735 161.031 57.2806C161.031 56.9513 156.598 56.7248 156.238 56.6929C152.869 56.4168 149.786 56.1513 146.739 57.9638C144.137 59.5109 142.469 61.8191 142.069 64.8283C141.687 67.6994 142.628 71.452 144.286 73.8346C144.275 73.0699 143.837 71.2644 144.017 70.5387C144.127 69.8094 144.378 69.1084 144.724 68.4606C145.417 67.1648 146.488 66.078 147.725 65.2992C149.701 64.0601 151.996 63.4051 154.29 63.083C156.39 62.7891 158.953 62.5201 161.028 63.0759C162.025 63.345 162.191 63.5928 162.795 62.5874C162.902 62.4103 163.746 60.3322 163.665 60.3322C163.315 60.3287 162.965 60.3216 162.615 60.3181Z" fill="#3B455A"/>
        <path d="M172.605 85.5067C173.185 85.3545 173.8 85.1881 174.376 85.3509C175.048 85.5385 175.522 86.1262 175.935 86.6891C178.679 90.4524 180.722 94.7254 181.931 99.225C182.097 99.841 182.242 100.517 181.991 101.105C181.79 101.572 181.372 101.901 180.977 102.224C175.218 106.921 171.63 113.899 165.761 118.459C164.641 112.628 163.852 106.734 163.403 100.811C163.216 98.3435 163.078 95.8299 162.255 93.4969C161.417 91.1321 156.963 88.2645 159.292 86.5935C160.151 85.9775 164.528 86.7281 165.694 86.6431C168.024 86.4732 170.343 86.0908 172.602 85.5031L172.605 85.5067Z" fill="#EBB044"/>
        <path d="M145.353 87.2732C145.268 87.0113 145.152 86.7493 144.961 86.551C144.554 86.1227 143.907 86.0483 143.317 85.9952C140.814 85.758 138.332 85.3509 135.886 84.7774C134.454 84.4411 132.454 83.4321 130.7 82.8905C130.601 82.7665 130.499 82.6462 130.4 82.5187C130.279 82.363 130.163 82.2107 130.046 82.0514C129.466 81.269 128.643 81.8532 127.869 82.7099C126.561 83.2339 125.836 84.834 124.966 85.8996C123.538 87.6556 121.47 89.0221 119.791 90.5338C119.448 90.8382 119.08 91.1922 119.045 91.6489C119.017 92.0277 119.225 92.3782 119.423 92.7004C124.132 100.273 128.841 107.849 133.546 115.421C133.359 115.121 138.693 106.56 139.146 105.523C140.28 102.914 140.758 99.8941 141.963 97.3664C142.214 96.8424 144.685 93.7766 144.24 92.5163C144.434 92.2047 144.621 91.8897 144.784 91.5604C145.452 90.2399 145.806 88.6787 145.35 87.2697L145.353 87.2732Z" fill="#EBB044"/>
        <path d="M114.905 25.7479L132.637 27.9606C133.263 27.0755 134.31 26.5551 135.42 26.6932L182.217 32.5345C183.327 32.6726 184.215 33.4337 184.604 34.4462L202.336 36.6589L199.992 55.4892L182.454 53.3014C181.889 54.4343 180.701 55.1423 179.425 54.983L132.627 49.1416C131.354 48.9823 130.375 48.0017 130.103 46.7662L112.565 44.5783L114.909 25.7479H114.905Z" fill="#474EBB"/>
        <path d="M234.463 41.3072L232.723 40.5071C232.455 40.3832 232.183 40.3265 231.91 40.3159L233.784 25.2629C234.35 20.7138 231.101 16.5646 226.526 15.9947L225.494 15.8672C221.252 15.3362 217.36 18.0763 216.367 22.1051C216.391 17.9559 213.291 14.3449 209.045 13.8139L208.013 13.6864C203.439 13.1165 199.271 16.3381 198.705 20.8872L192.554 70.3404C191.988 74.8896 195.237 79.0387 199.812 79.6087L200.844 79.7361C205.086 80.2672 208.978 77.5306 209.972 73.4983C209.947 77.6474 213.047 81.2584 217.293 81.7895L218.325 81.9169C222.899 82.4869 227.067 79.2653 227.633 74.7161L229.507 59.6631C229.772 59.7198 230.051 59.7304 230.341 59.6773L232.225 59.3304C233.593 59.0755 234.731 57.5638 234.965 55.6804L236.23 45.5165C236.464 43.6366 235.732 41.8878 234.466 41.3072H234.463Z" fill="#474EBB"/>
        <path d="M117.444 2.37547L116.411 2.24802C112.169 1.71699 108.277 4.45358 107.284 8.48587C107.308 4.33675 104.208 0.725735 99.9624 0.194703L98.9301 0.0672557C94.3557 -0.502718 90.1878 2.71887 89.6222 7.26804L87.7486 22.321C87.4834 22.2644 87.2042 22.2537 86.9143 22.3069L85.0301 22.6538C83.6584 22.9087 82.5237 24.4204 82.2868 26.3038L81.0212 36.4677C80.7879 38.3475 81.5197 40.0964 82.7853 40.677L84.5245 41.4771C84.7932 41.601 85.0654 41.6576 85.3376 41.6683L83.464 56.7212C82.8984 61.2704 86.1472 65.4195 90.7216 65.9895L91.7538 66.1169C95.996 66.648 99.8881 63.9114 100.882 59.8791C100.857 64.0282 103.957 67.6392 108.203 68.1703L109.235 68.2977C113.809 68.8677 117.977 65.6461 118.543 61.0969L124.694 11.6437C125.26 7.09457 122.011 2.94545 117.436 2.37547H117.444Z" fill="#474EBB"/>
        <path d="M81.5338 98.5948C82.6544 101.031 82.8595 103.728 83.2307 106.663C83.8705 111.75 84.1887 116.869 84.2594 121.985C84.3442 127.933 84.0932 133.873 83.6231 139.799C83.3898 142.762 83.0999 145.719 82.7676 148.675C82.5979 150.204 83.2696 154.134 81.6187 154.937C80.6995 155.383 79.5895 155.288 78.5502 155.178C72.2789 154.52 66.0041 153.858 59.7328 153.199C54.4549 152.643 48.8835 152.286 43.846 150.519C43.5773 150.424 43.3016 150.317 43.1107 150.101C42.9057 149.868 42.8385 149.549 42.7855 149.245C41.9406 144.522 43.1531 140.819 43.9627 136.323C44.9171 131.02 45.0479 125.221 45.4368 119.836C45.8822 113.669 46.8685 105.399 49.2052 99.5365C50.2552 97.0619 51.7364 94.7608 53.7585 92.8703C56.1659 90.6187 59.4182 88.6929 62.7376 88.6929C65.8627 88.6929 69.0832 88.9973 71.8547 90.4417C74.4 91.7658 76.5458 92.9128 78.7446 94.8635C80.0597 96.0282 80.9328 97.2743 81.5409 98.5948H81.5338Z" fill="#474EBB"/>
        <path d="M78.985 81.7788C77.4402 83.3259 75.6903 84.6641 73.7955 85.7509C75.563 82.3453 76.8604 78.6988 77.6381 74.9427C77.6982 74.6559 77.776 74.3373 78.0235 74.1815C78.2568 74.0364 78.5537 74.0895 78.8189 74.1568C83.5418 75.3604 81.6752 79.0847 78.985 81.7788Z" fill="#3B455A"/>
        <path d="M65.3466 86.5192C65.0638 86.1935 64.8163 85.8465 64.6077 85.5031C61.7549 80.7415 61.8857 62.8741 74.6369 65.2248C86.2179 67.3596 78.7482 81.046 73.8768 85.8784C72.9541 86.7953 71.7876 87.7193 70.4124 88.1193C70.0447 88.2255 70.1543 91.8189 69.8291 92.357C69.1751 93.4403 67.6338 93.7589 66.5273 93.2562C65.5728 92.8207 64.6431 91.4967 64.431 90.4913C64.279 89.7655 65.6082 86.8272 65.343 86.5227L65.3466 86.5192Z" fill="#EFBFA5"/>
        <path d="M65.2087 81.3611C64.0456 81.9842 62.674 80.9752 61.8857 79.9167C58.6369 75.5728 58.7006 69.0447 62.0306 64.7646C64.8163 61.1819 71.3209 60.6969 69.8786 66.1382C69.366 68.0676 67.0964 69.9616 66.3717 72.0256C65.3395 74.9745 65.3112 78.274 65.2087 81.3611Z" fill="#3B455A"/>
        <path d="M87.2713 65.4549C90.7923 70.8502 89.8131 78.1041 92.5634 83.9313C87.4799 83.6445 82.5519 81.1876 79.2572 77.3005C76.0261 73.4877 66.8278 67.3454 71.1053 62.3289C75.457 57.2239 84.1852 60.7252 87.2749 65.4549H87.2713Z" fill="#3B455A"/>
        <path d="M102.978 108.352C98.6048 103.877 93.1997 103.788 89.2262 104.61C86.3522 105.204 83.3579 104.592 80.9116 102.963C77.5108 100.701 72.3637 98.701 66.5626 101.324C58.7854 104.843 55.8335 113.156 55.7558 121.22C55.6992 127.189 56.583 133.537 59.0364 139.067C61.4084 144.419 66.6934 150.615 73.2263 149.719C75.2201 149.446 77.2528 149.818 78.9673 150.873C87.1723 155.918 95.5647 147.145 99.9164 141.021C104.463 134.624 108.369 126.449 107.581 118.385C107.209 114.593 105.636 111.071 102.974 108.348L102.978 108.352Z" fill="#D34E4E"/>
        <path d="M83.6336 97.462C84.8603 95.4086 86.8895 93.8155 88.8762 92.927C90.8629 92.0348 92.8285 91.7658 94.7091 91.6489C96.3777 91.5463 98.0145 91.5569 99.6017 91.6808C98.9831 93.065 98.1241 94.3961 97.2438 95.6989C95.9747 97.5788 94.6278 99.448 93.0194 101.048C91.4144 102.648 89.5125 103.976 87.6637 104.45C83.8493 105.431 81.0459 101.781 83.6301 97.462H83.6336Z" fill="#7FC5A3"/>
        <path d="M29.5465 63.3627C29.4157 62.2758 29.4404 61.1996 29.4369 60.0596C29.4369 59.7906 29.4369 59.5145 29.5217 59.2596C29.6243 58.9516 29.8399 58.6967 30.052 58.4489C30.3596 58.0913 30.6636 57.7337 30.9711 57.3726C31.162 57.1496 31.3565 56.923 31.6039 56.7637C32.2438 56.3566 33.071 56.4911 33.8134 56.6363C33.9654 56.6681 34.1244 56.7 34.2411 56.7991C34.4391 56.9655 34.4709 57.27 34.379 57.5142C34.0926 58.2825 33.8558 58.4701 33.8558 59.3976C33.8558 60.1871 33.877 60.9872 34.082 61.7554C34.4037 61.6386 34.5946 61.3164 34.8244 61.0261C35.0188 60.7854 35.2734 60.5163 35.5809 60.5588C35.991 60.6155 36.1147 61.1571 36.0405 61.5642C35.892 62.382 35.3617 63.0688 35.0047 63.8158C34.4744 64.931 34.3613 67.1117 33.0392 67.356C32.2367 67.5047 31.2363 67.3065 30.4161 67.2817C30.1969 66.386 29.9813 65.4903 29.7621 64.5982C29.6596 64.1804 29.5889 63.7698 29.5394 63.3591L29.5465 63.3627Z" fill="#EFBFA5"/>
        <path d="M63.3563 89.2735C55.6533 88.8734 47.9609 88.3247 40.2826 87.6273C39.7276 87.5777 39.1301 87.5069 38.7271 87.1246C38.3312 86.7528 38.2216 86.1722 38.1332 85.6377C37.1646 79.6866 36.4541 73.693 36.0016 67.6782C35.9627 67.1542 35.8814 66.5559 35.443 66.2692C35.1496 66.078 34.7749 66.0851 34.4284 66.1028C32.8023 66.1701 30.8297 65.7948 29.6278 67.2003C28.4718 68.5491 28.995 70.9281 28.9596 72.6239C28.8536 77.6439 28.5425 82.6639 28.0264 87.6591C27.8602 89.2593 27.5527 91.6348 28.5955 93.0296C29.5146 94.2545 31.5297 95.0617 32.8306 95.9149C38.0413 99.3383 43.2556 102.762 48.4664 106.182C49.5658 106.904 50.7465 107.651 52.0616 107.661C54.1685 107.679 54.1756 106.206 54.7624 104.811C55.4906 103.08 56.8623 101.721 57.9475 100.16C60.2666 96.8212 62.1013 93.1429 63.3633 89.277L63.3563 89.2735Z" fill="#474EBB"/>
        <path d="M95.4763 152.385C94.543 152.402 93.532 152.017 93.1184 151.181C92.8073 150.551 92.8886 149.804 93.0229 149.114C93.2456 147.977 93.5991 146.862 94.0728 145.804C95.2536 143.148 98.9866 142.249 100.065 145.51C101.023 148.409 98.5448 152.321 95.4798 152.385H95.4763Z" fill="#474EBB"/>
        <path d="M89.5762 147.995C89.1449 147.375 88.7278 146.54 89.0106 145.736C89.2898 144.94 90.1453 144.111 90.8205 143.644C91.5417 143.148 92.1427 143.807 92.5103 144.377C92.8532 144.908 93.2173 145.442 93.7759 145.747C94.2567 145.057 93.6769 144.349 94.0905 143.651C94.2637 143.354 94.5395 143.127 94.8223 142.943C94.9177 142.879 95.0379 142.819 95.1298 142.862C95.1935 142.89 95.2253 142.961 95.2571 143.024C95.9571 144.526 97.3322 145.283 97.6893 147.039C98.0711 148.908 96.9716 150.356 95.0768 150.643C93.03 150.951 90.9089 149.751 89.7671 148.264C89.7034 148.183 89.6398 148.094 89.5726 147.998L89.5762 147.995Z" fill="#EFBFA5"/>
        <path d="M17.1984 14.2352L22.0415 59.4472C22.1899 60.835 28.6132 61.9501 36.394 61.9608C44.1713 61.9749 50.6016 60.881 50.7536 59.4932L55.7558 14.2989L17.1984 14.2316V14.2352Z" fill="#8EC3CB"/>
        <g opacity="0.64">
            <path d="M52.3409 22.9653C52.394 22.9264 52.4187 22.891 52.4187 22.8521C52.4187 22.2219 45.2955 21.7015 36.5072 21.6873C27.7189 21.6732 20.5921 22.1688 20.5921 22.7989C20.5921 22.8379 20.6204 22.8768 20.6699 22.9122H20.5426L24.555 58.3285C24.6787 59.4153 29.9955 60.2898 36.4365 60.3004C42.8774 60.311 48.1978 59.4578 48.325 58.371L52.4611 22.9689H52.3339L52.3409 22.9653Z" fill="white"/>
        </g>
        <path d="M55.6957 14.1573C55.6957 14.9609 47.0877 15.5982 36.4718 15.5769C25.8559 15.5592 17.2514 14.8937 17.2549 14.09C17.2549 13.2864 25.8629 12.6492 36.4789 12.6704C47.0948 12.6881 55.6993 13.3537 55.6957 14.1573Z" fill="#7BB1B7"/>
        <g opacity="0.51">
            <path d="M52.4681 22.7604C52.4691 22.1915 45.3033 21.7177 36.4629 21.7023C27.6225 21.6868 20.4552 22.1355 20.4542 22.7045C20.4532 23.2734 27.619 23.7472 36.4593 23.7627C45.2997 23.7781 52.4671 23.3294 52.4681 22.7604Z" fill="white"/>
        </g>
        <path d="M34.0856 39.5725C34.1669 38.3228 34.2199 37.0695 34.2482 35.8163C34.2623 35.1189 33.1735 35.0835 33.1594 35.7844C33.1346 36.9279 33.0887 38.0714 33.018 39.2149L30.3207 39.1335C30.3348 38.3192 30.349 37.505 30.3631 36.6943C30.3737 35.9968 29.2849 35.9614 29.2743 36.6624L29.1647 42.9888C29.1541 43.6862 30.2429 43.7216 30.2535 43.0206C30.2712 42.086 30.2853 41.1549 30.303 40.2203L32.9473 40.2982C32.8659 41.4134 32.7634 42.5285 32.6397 43.6402C32.5619 44.334 33.6507 44.3624 33.7285 43.672C33.8629 42.4648 33.9724 41.2541 34.0573 40.0433C34.1315 39.9017 34.1421 39.7247 34.0891 39.5725H34.0856Z" fill="white"/>
        <path d="M36.6273 47.5663C36.5389 47.5592 35.8354 47.5061 35.5703 47.4778C35.7152 47.3857 35.9662 47.0883 35.9662 47.0919C36.0687 46.9821 36.1748 46.8795 36.2738 46.7697C36.6874 46.3024 36.9949 45.7218 36.8253 45.0846C36.5177 43.9482 34.9128 43.8951 34.6335 45.0775C34.4744 45.7537 35.5173 46.0758 35.6763 45.3961C35.8672 45.3961 35.8778 45.5059 35.7046 45.7289C35.6162 45.8811 35.5031 46.0192 35.3759 46.1431C35.2238 46.3059 35.0612 46.4617 34.9198 46.6316C34.6618 46.9467 34.4037 47.3397 34.4603 47.768C34.5875 48.7239 35.8991 48.5858 36.5919 48.6496C37.2919 48.7133 37.3202 47.63 36.6238 47.5663H36.6273Z" fill="white"/>
        <path d="M41.3962 36.5491C41.3715 36.3084 41.2053 36.0924 40.8907 36.0924C39.063 36.0924 38.1651 38.7971 38.1368 40.2699C38.1015 41.9161 38.9287 43.9198 40.8553 43.9234C42.7466 43.9234 43.8814 42.1497 44.0228 40.4433C44.1465 38.96 43.0188 36.7969 41.3997 36.5456L41.3962 36.5491ZM42.9057 40.6487C42.7395 41.7249 41.9583 42.9817 40.6927 42.833C39.4519 42.6843 39.1691 41.1018 39.2327 40.0964C39.2645 39.5972 39.3883 39.0981 39.5862 38.6378C39.7382 38.2874 40.0705 37.5935 40.4877 37.3067C40.5973 37.4943 40.7988 37.6324 41.0674 37.5935C41.6543 37.5156 42.3436 38.4502 42.6052 38.875C42.934 39.4131 43.0011 40.0327 42.9057 40.6451V40.6487Z" fill="white"/>
        <path d="M282.339 16.6956C281.43 15.7327 279.051 15.4247 279.051 15.4247L268.273 15.1733C267.131 15.145 265.978 14.7096 265.013 13.959C265.349 13.6121 265.36 13.0634 265.027 12.7129C264.684 12.3518 264.115 12.3376 263.751 12.681L263.723 12.7058L262.638 11.5588L255.815 18.0338L256.9 19.1808L256.656 19.411C256.296 19.7544 256.278 20.3279 256.617 20.6854C256.96 21.0465 257.529 21.0607 257.89 20.7173L258.088 20.5297C258.848 21.5917 259.24 22.8485 259.17 24.0593L258.558 34.8675C258.558 34.8675 258.738 37.2607 259.65 38.2236L264.31 43.1445C264.31 43.1445 273.533 43.3888 273.512 52.7668L301.315 82.2497C301.315 82.2497 317.11 79.2901 323.996 60.7217L296.09 31.3379C287.086 30.9096 286.991 21.6201 286.991 21.6201L282.332 16.6992L282.339 16.6956Z" fill="#8EC3CB"/>
        <path d="M310.429 46.3803L296.37 31.5256L291.329 37.1439C287.185 41.4381 283.919 44.4084 279.249 48.6071L273.685 53.05L287.744 67.9048L287.673 67.972C303.252 60.9659 310.496 46.3095 310.496 46.3095L310.425 46.3767L310.429 46.3803Z" fill="#EBB044"/>
        <path d="M287.362 45.7289L291.449 41.8488L291.283 48.8974L296.225 46.8936L295.171 58.1621L292.891 51.5702L289.193 53.9138L287.362 45.7289Z" fill="white"/>
        <path d="M259.014 6.56875L250.813 14.3514C250.549 14.6016 250.538 15.0183 250.788 15.2823L254.892 19.6199C255.142 19.8839 255.558 19.8951 255.822 19.645L264.023 11.8623C264.286 11.6121 264.298 11.1954 264.048 10.9314L259.943 6.59378C259.693 6.32981 259.277 6.31861 259.014 6.56875Z" fill="#3B455A"/>
        <g style="mix-blend-mode:multiply" opacity="0.15">
            <path d="M258.155 20.6182L264.985 13.9909C264.985 13.9909 265.451 14.3095 265.823 14.4972L258.155 20.6182Z" fill="#080A0A"/>
        </g>
        <g opacity="0.06">
            <path d="M287.125 21.7546L287.062 21.6873L264.38 43.2153L264.444 43.2826C264.444 43.2826 273.667 43.5269 273.646 52.9049L273.741 53.0076L284.195 43.9977C284.863 43.4207 285.506 42.8117 286.118 42.1781L296.317 31.5787L296.221 31.4795C287.217 31.0512 287.122 21.7617 287.122 21.7617L287.125 21.7546Z" fill="#080A0A"/>
        </g>
        <path d="M310.503 46.317L310.499 46.3095L310.503 46.317Z" fill="#A4A6A9"/>
        <path d="M250.13 139.952C250.077 139.541 250.092 139.502 249.742 139.275C249.353 139.024 248.928 138.815 248.522 138.599C247.005 136.971 246.348 135.321 245.786 133.126C245.39 131.586 244.623 130.074 244.054 128.591C242.919 125.628 241.809 122.654 240.723 119.67C240.557 119.213 240.391 118.724 240.494 118.25C240.571 117.889 240.798 117.585 241.02 117.298C242.084 115.928 243.23 114.632 244.453 113.414C245.545 112.327 246.489 111.761 247.765 111.056C249.116 110.309 248.617 108.851 248.122 107.598C247.924 107.091 245.835 102.716 246.051 102.496C241.872 106.727 237.715 110.982 233.583 115.262C233.314 115.542 233.031 115.839 232.929 116.222C232.794 116.714 232.978 117.238 233.165 117.716C234.731 121.727 236.552 125.624 238.588 129.395C239.603 131.275 240.67 133.126 241.788 134.939C242.438 135.997 244.64 138.15 244.156 139.523C244.103 139.679 244.011 139.821 243.979 139.983C243.94 140.168 243.979 140.369 244.018 140.564C244.167 141.276 244.372 141.998 244.669 142.67C244.941 143.283 245.422 143.357 245.962 143.602C246.528 143.856 246.892 144.409 247.426 144.71C247.963 145.014 248.43 144.802 248.925 144.469C249.155 144.317 249.377 144.154 249.6 143.991C249.731 143.892 249.862 143.793 249.989 143.694C250.067 143.633 250.145 143.57 250.194 143.481C250.24 143.396 250.254 143.294 250.268 143.198C250.403 142.086 250.286 141.045 250.141 139.948L250.13 139.952Z" fill="#D8A38B"/>
        <path d="M283.604 87.2662C284.389 86.8909 285.202 86.4802 285.701 85.7651C286.033 85.2836 286.192 84.7066 286.344 84.1402C287.44 80.0831 288.536 76.0224 289.628 71.9654C288.539 70.7865 288.504 68.2021 290.622 69.6253C290.809 69.7527 291.014 69.912 291.237 69.866C291.403 69.8306 291.519 69.689 291.625 69.5545C292.053 69.0022 292.485 68.4499 292.912 67.8977C293.061 67.7065 293.22 67.5082 293.45 67.4233C293.623 67.3596 293.814 67.3737 293.994 67.3985C295.39 67.5684 296.73 68.1596 297.798 69.0766C297.045 70.1776 296.168 71.1901 295.185 72.0893C294.818 72.4256 294.429 72.7513 294.121 73.1443C292.842 74.7869 293.107 77.9731 292.884 79.9556C292.58 82.6639 292.276 85.3686 291.972 88.0769C291.926 88.4734 291.88 88.877 291.686 89.2239C291.452 89.6452 291.032 89.9249 290.629 90.1868C283.77 94.6156 276.442 98.3081 268.81 101.19C268.159 99.3701 267.071 96.8637 267.124 94.9095C267.173 93.0615 269.867 92.9093 271.376 92.3676C275.534 90.8772 279.617 89.1743 283.601 87.2697L283.604 87.2662Z" fill="#D8A38B"/>
        <path d="M254.998 95.2989C252.156 96.237 250.724 97.8868 250.639 101.774C250.537 106.482 250.438 111.219 251.156 115.875C251.559 118.491 252.22 121.065 252.601 123.684C253.383 129.012 252.99 134.478 251.679 139.69C251.237 141.446 249.438 144.334 250.774 145.874C252.05 147.351 254.5 146.416 256.122 146.335C261.485 146.076 266.851 145.814 272.214 145.556C275.498 145.396 282.261 145.226 281.416 140.146C281.024 137.796 278.747 135.332 277.881 133.059C276.919 130.545 276.276 127.833 276.403 125.129C276.591 121.16 275.926 117.291 275.611 113.283C275.18 107.775 274.993 102.075 272.674 96.9628C270.722 92.665 261.004 94.0032 257.278 94.7289C256.441 94.8918 255.681 95.0759 255.002 95.2989H254.998Z" fill="#D8A38B"/>
        <path d="M282.777 225.596C283.809 225.734 284.785 225.433 285.8 225.391C285.994 221.826 285.839 218.388 285.312 214.82C283.629 216.455 282.378 215.354 282.211 218.626C282.158 219.684 283.092 224 282.777 225.596Z" fill="#D8A38B"/>
        <path d="M286.146 223.632C287.355 223.288 287.433 226.131 287.394 226.796C287.373 227.196 287.298 227.6 287.373 227.993C287.454 228.425 287.712 228.8 287.96 229.165C288.483 229.922 289.006 230.684 289.529 231.441C289.766 231.781 290.003 232.132 290.116 232.532C290.392 233.519 289.752 234.627 288.804 235.027C285.527 236.415 282.894 232.337 282.381 229.728C282.303 229.328 282.254 228.924 282.204 228.517C282.102 227.681 281.6 225.837 281.982 225.051C282.427 224.134 283.541 224.895 284.322 224.591C285.047 224.308 285.658 223.773 286.146 223.632Z" fill="#3B455A"/>
        <path d="M261.093 225.876C260.096 226.184 259.085 226.049 258.077 226.173C257.296 222.69 256.879 219.273 256.808 215.666C258.738 216.997 259.788 215.705 260.495 218.905C260.725 219.943 260.516 224.354 261.089 225.876H261.093Z" fill="#D8A38B"/>
        <path d="M257.13 225.079C256.996 227.009 255.338 228.984 254.383 230.666C254.27 230.864 254.157 231.069 254.136 231.296C254.107 231.632 254.291 231.947 254.471 232.234C254.719 232.631 254.991 233.052 255.415 233.25C255.832 233.448 256.317 233.395 256.773 233.328C257.533 233.215 258.289 233.066 259.039 232.882C259.226 232.836 259.417 232.786 259.573 232.677C259.76 232.546 259.88 232.344 259.993 232.146C260.58 231.137 261.072 230.425 261.125 229.26C261.178 228.057 261.11 226.804 261.411 225.628C261.559 225.058 261.754 224.329 261.28 223.978C260.916 223.706 260.191 223.996 259.774 224.039C259.032 224.109 258.357 224.017 257.657 224.357C257.515 224.428 257.374 224.513 257.278 224.64C257.183 224.771 257.148 224.924 257.137 225.083L257.13 225.079Z" fill="#3B455A"/>
        <path d="M259.159 94.7431C259.23 94.867 259.318 94.9803 259.438 95.09C259.912 95.5184 260.552 95.745 261.178 95.8087C262.005 95.8901 262.836 95.7166 263.642 95.5255C264.734 95.267 264.667 94.6227 264.783 93.6137C264.847 93.0615 264.879 92.5092 264.897 91.9534C264.907 91.6489 264.741 90.5692 264.925 90.3497C265.049 90.201 265.582 90.2258 265.812 90.0948C266.173 89.8859 266.466 89.5142 266.675 89.1602C267.011 88.5867 267.177 87.9353 267.343 87.2909C267.633 86.1722 267.919 85.0535 268.209 83.9348C268.502 82.7913 268.799 81.6408 268.859 80.4619C268.948 78.6847 268.555 76.1995 267.166 74.9639C265.897 73.8346 264.105 73.4983 262.468 73.3602C260.301 73.1761 258.084 73.6682 256.271 74.8967C255.539 75.3923 254.853 76.0224 254.443 76.8686C253.814 78.1714 253.934 79.7574 254.072 81.2372C254.199 82.6037 254.327 83.9738 254.454 85.3403C254.599 86.9121 254.874 88.7212 256.091 89.5248C256.737 89.9532 257.558 90.0134 258.12 90.5727C258.823 91.2737 258.827 92.3676 258.894 93.2916C258.933 93.8191 258.915 94.3218 259.156 94.7466L259.159 94.7431Z" fill="#D8A38B"/>
        <path d="M265.218 76.734C265.3 76.8579 265.367 76.9889 265.42 77.127C265.703 77.8421 265.568 78.6705 265.844 79.3892C266.282 80.5291 267.657 81.1628 267.912 82.3559C268.121 83.333 267.491 84.2959 267.477 85.2943C267.463 86.3846 268.202 87.383 268.142 88.4627C268.089 89.4009 267.555 90.7356 267.032 91.5073C267.194 91.2701 268.757 91.2843 269.149 91.0188C269.754 90.6117 269.814 90.3709 269.969 89.716C270.125 89.0646 269.955 88.4415 270.213 87.7689C270.528 86.9475 271.221 86.3245 271.437 85.4536C271.73 84.2641 271.051 83.0533 271.048 81.8284C271.041 79.9769 272.564 78.1643 271.907 76.4296C271.521 75.4135 270.493 74.7975 269.892 73.8912C269.436 73.2044 269.241 72.3796 268.912 71.622C268.584 70.8644 268.039 70.1174 267.24 69.9191C266.795 69.8094 266.325 69.8802 265.872 69.8165C265.087 69.7067 264.419 69.1969 263.659 68.9739C262.57 68.6553 260.729 69.8235 260.142 70.7617C259.559 71.6928 259.905 72.4468 260.577 73.2151C261.69 74.5002 264.285 75.2578 265.222 76.734H265.218Z" fill="#3B455A"/>
        <path d="M250.551 71.891C249.929 72.3902 249.151 72.7655 248.589 73.3425C247.493 74.4683 247.348 76.1959 247.377 77.7678C247.401 79.1662 246.843 80.4371 247.058 81.8886C247.203 82.8621 247.659 83.8357 248.479 84.3773C249.501 85.0535 251.06 85.1066 251.551 86.2289C252.085 87.4503 250.869 89.0681 251.693 90.1125C252.149 90.6895 252.994 90.7391 253.627 91.1144C254.334 91.5321 254.719 92.311 255.168 92.9978C255.617 93.6846 256.278 94.3607 257.095 94.343C257.073 93.0969 257.07 92.1056 256.486 90.9905C256.147 90.3391 255.186 89.1566 255.854 88.4061C256.271 87.7901 257.303 87.5494 257.3 86.8059C257.3 86.4554 257.042 86.1687 256.836 85.8855C256.045 84.788 255.907 83.2905 256.356 82.016C256.805 80.7415 257.798 79.6936 258.986 79.0529C260.379 78.3023 260.135 77.9625 260.488 76.5818C260.813 75.3109 261.513 74.9852 262.623 74.4789C263.62 74.0258 263.935 73.7532 264.267 72.7867C264.511 72.0787 264.812 71.2325 264.38 70.4749C264.037 69.8731 263.451 69.4554 262.885 69.0589C261.697 68.2305 260.368 67.3631 258.933 67.5295C258.134 67.6215 257.399 68.0322 256.6 68.1101C256.066 68.1632 255.528 68.0676 254.995 68.0747C254.083 68.0853 253.132 68.4039 252.418 68.9774C251.696 69.558 251.742 70.1315 251.361 70.9281C251.173 71.3175 250.887 71.622 250.551 71.891Z" fill="#3B455A"/>
        <path d="M253.556 66.6303C253.658 65.7558 253.521 64.6301 252.679 64.3716C252.22 64.23 251.718 64.4283 251.244 64.3539C250.229 64.1911 249.837 62.9909 249.271 62.1307C249.187 62.0032 249.088 61.8722 248.946 61.8156C248.741 61.7342 248.515 61.8227 248.299 61.8616C247.306 62.028 246.503 61.0721 245.545 60.7535C244.361 60.3606 242.926 61.1536 242.625 62.3679C242.502 62.867 242.551 63.3945 242.434 63.8937C241.971 65.9222 239.08 66.8993 239.094 68.981C239.104 70.3864 240.533 71.6715 240.055 72.9956C239.751 73.8417 238.708 74.4541 238.868 75.3392C238.97 75.9092 239.596 76.2703 240.172 76.2384C240.748 76.2065 241.264 75.8667 241.681 75.4666C242.346 74.8329 242.83 74.0364 243.46 73.3708C244.089 72.7053 244.944 72.1495 245.856 72.2238C246.74 72.2946 247.567 72.946 248.437 72.7619C249.13 72.6132 249.625 71.9654 250.304 71.76C250.94 71.5689 251.619 71.7919 252.283 71.8025C252.948 71.8131 253.747 71.4343 253.736 70.7688C253.736 70.6059 253.68 70.4431 253.726 70.2873C253.849 69.8519 254.581 69.8448 254.701 69.4093C254.334 68.8889 253.853 69.1013 253.574 68.4145C253.358 67.8835 253.489 67.179 253.552 66.6303H253.556Z" fill="#3B455A"/>
        <path d="M248.978 122.59C248.989 123.387 248.829 126.821 250.109 126.906C256.462 127.313 262.705 124.817 268.895 123.808C270.507 123.546 272.133 123.362 273.766 123.337C275.237 123.316 276.591 123.992 276.987 122.435C277.379 120.888 277.103 118.831 277.114 117.234C277.132 113.8 276.714 110.67 277.506 107.311C278.305 103.926 279.588 100.652 281.31 97.6284C281.483 97.3239 281.664 97.0124 281.692 96.6654C281.738 96.1096 281.398 95.5042 281.253 94.9767C281.027 94.159 280.904 93.3058 280.702 92.4809C280.32 90.8949 279.875 89.3195 279.373 87.7653C278.401 88.5406 277.312 89.1673 276.152 89.6204C274.353 90.3284 272.416 90.6152 270.616 91.3162C269.69 91.6773 268.987 92.3039 268.124 92.7358C267.307 93.1429 266.417 93.1252 265.939 94.0846C265.558 94.8564 265.865 96.5061 265.858 97.3628C265.847 98.4851 265.837 99.6073 265.646 100.719C265.399 102.135 264.723 103.813 263.295 103.955C262.376 104.047 261.538 103.417 260.941 102.716C259.304 100.793 259.562 98.3081 258.371 96.2583C258.134 95.8512 257.169 94.3395 256.826 94.2014C256.076 93.8899 253.8 95.3378 253.043 95.6635C251.074 96.5132 249.264 97.1894 247.479 98.4709C245.722 99.7312 244.128 101.208 242.643 102.776C241.346 104.149 240.094 105.59 238.931 107.081C237.655 108.716 239.094 109.516 240.225 110.794C241.006 111.679 241.826 112.526 242.689 113.333C243.396 113.995 244.312 115.103 245.202 115.499C246.397 116.027 247.688 114.713 248.472 113.956C248.137 114.278 248.967 117.1 249.031 117.708C249.197 119.298 248.946 120.99 248.971 122.594L248.978 122.59Z" fill="#7FC5A3"/>
        <path d="M287.408 217.829C287.316 215.124 287.182 212.416 287.04 209.704C286.797 205.01 286.57 200.394 286.093 195.731C284.619 181.358 284.025 166.836 283.003 152.42C283.003 148.154 282.95 143.676 282.052 139.488C281.999 139.254 281.943 139.013 281.819 138.808C281.405 138.132 280.462 138.079 279.67 138.114C276.573 138.245 273.331 138.918 270.259 138.84C266.809 138.755 263.157 138.458 259.59 138.659C257.14 138.797 254.666 137.87 252.167 138.337C250.947 138.564 250.982 139.587 250.777 140.78C250.555 142.072 250.48 143.386 250.42 144.692C250.311 147.039 250.243 149.386 250.222 151.733C250.169 157.546 251.074 163.416 251.361 169.226C251.661 175.318 251.923 181.411 252.152 187.507C252.442 195.221 253.549 202.896 254.5 210.522C254.836 213.216 255.178 215.91 255.567 218.594C255.688 219.433 255.712 220.796 256.062 221.529C256.752 222.966 258.583 222.807 259.725 222.633C260.722 222.481 261.708 222.233 262.673 221.893C262.305 211.251 263.419 200.44 263.369 189.723C263.338 182.6 264.133 175.516 264.858 168.44C264.992 167.123 265.094 165.735 265.381 164.439C265.653 163.207 266.151 162.035 266.357 160.768C266.583 159.387 267.682 159.299 268.181 160.499C268.817 162.035 269.05 163.894 269.464 165.505C271.61 173.81 274.084 181.992 275.488 190.552C277.223 201.126 280.034 211.616 281.466 222.166C282.406 222.353 283.346 222.449 284.28 222.446C285.351 222.446 287.051 222.318 287.44 220.796C287.638 220.017 287.433 218.672 287.405 217.826L287.408 217.829Z" fill="#3B455A"/>
        <path d="M281.922 139.463C281.922 138.865 280.72 137.831 280.455 137.254C280.158 136.606 279.9 135.955 279.557 135.314C279.539 135.282 279.521 135.247 279.489 135.225C279.376 135.144 279.238 135.278 279.136 135.371C278.772 135.696 277.807 135.48 277.354 135.484C276.573 135.491 275.795 135.498 275.014 135.505C273.505 135.519 271.991 135.533 270.482 135.548C264.419 135.604 258.417 135.941 252.361 135.565C252.121 136.171 251.262 138.249 251.629 138.861C251.764 139.088 251.993 139.042 252.262 139.07C252.884 139.13 253.513 139.141 254.136 139.169C256.158 139.254 258.183 139.307 260.209 139.357C265.211 139.481 270.213 139.562 275.216 139.59C275.601 139.59 281.922 139.679 281.922 139.463Z" fill="#343F51"/>
        <path d="M205.623 204.702C208.183 206.49 225.682 229.724 225.682 229.724L215.652 237.438L174.157 228.783V221.068L190.065 219.826C190.065 219.826 178.474 218.13 175.32 210.423C172.171 202.719 205.623 204.698 205.623 204.698V204.702Z" fill="#474EBB"/>
        <path d="M169.141 224.347C168.268 226.669 167.373 229.753 168.08 232.34C168.862 235.208 173.33 237.208 174.543 233.611C174.776 232.917 174.716 232.075 174.2 231.555C173.1 230.45 172.181 229.239 174.256 228.503C175.027 228.23 175.872 228.266 176.664 228.071C176.939 228.004 177.219 227.901 177.406 227.685C177.639 227.412 177.668 227.027 177.682 226.669C177.724 225.306 177.653 223.94 177.477 222.591C177.42 222.176 173.51 221.837 173.104 221.879C171.63 222.035 169.707 222.846 169.144 224.343L169.141 224.347Z" fill="#3B455A"/>
        <path d="M212.768 218.562L228.064 227.253L232.094 223.968V220.144L212.768 204.702L201.116 217.348L212.768 218.562Z" fill="#474EBB"/>
        <path d="M192.462 154.778C192.904 154.505 193.364 154.265 193.848 154.073C201.901 150.887 207.801 154.484 210.396 162.276C216.214 179.751 217.063 195.738 213.093 213.404C204.032 213.935 193.25 214.331 184.208 213.588C180.994 213.322 177.477 212.827 175.32 210.427C174.359 209.354 173.775 208.001 173.295 206.646C170.226 197.993 170.859 188.272 174.062 179.669C177.265 171.066 182.9 163.519 189.535 157.178C190.447 156.307 191.398 155.444 192.466 154.782L192.462 154.778Z" fill="#7FC5A3"/>
        <path d="M211.456 137.226C207.267 138.309 202.834 135.509 198.783 137.137C196.149 138.196 194.339 141.014 193.883 143.906C193.671 145.255 193.721 146.671 194.269 147.871C194.626 148.65 195.177 149.312 195.796 149.875C196.626 150.629 197.592 151.206 198.634 151.592C198.719 151.624 197.312 154.105 197.174 154.321C197.818 154.728 197.521 156.038 198.115 156.7C198.73 157.387 199.815 157.55 200.727 157.32C201.639 157.09 202.413 156.541 203.145 155.985C203.81 155.482 203.463 152.08 204.146 151.917C204.729 151.779 205.302 151.588 205.853 151.333C209.197 149.793 211.654 146.2 211.941 142.44C212.075 140.677 211.767 138.936 211.449 137.222L211.456 137.226Z" fill="#EFBFA5"/>
        <path d="M201.431 137.236C201.59 137.229 201.752 137.226 201.911 137.222C204.22 137.197 206.507 137.704 208.586 138.649C209.353 138.996 210.106 139.417 210.664 140.044C211.492 140.971 211.813 142.281 211.771 143.548C211.728 144.816 211.361 146.058 210.947 147.266C211.474 147.29 211.972 147.004 212.414 146.699C213.719 145.811 215.136 144.646 215.935 143.255C217.388 140.727 217.452 138.925 219.926 137.112C221.98 135.611 224.589 136.51 226.24 133.962C227.59 131.876 226.795 128.495 224.405 127.823C223.338 127.522 222.122 127.809 221.302 128.559C220.418 129.366 219.46 130.775 218.424 130.177C218.01 129.94 217.83 129.448 217.618 129.023C215.854 125.479 212.078 126.095 209.063 127.416C207.363 128.159 205.712 129.165 203.88 129.356C202.413 129.511 200.957 129.122 199.483 129.168C197.029 129.239 194.633 130.566 193.109 132.545C191.402 134.765 190.525 137.962 191.674 140.497C192.25 141.768 192.618 143.106 192.996 144.448C193.127 144.915 194.155 146.809 194.551 145.29C194.859 144.111 194.785 142.869 195.099 141.69C195.87 138.822 198.677 137.371 201.427 137.233L201.431 137.236Z" fill="#3B455A"/>
        <path d="M244.343 164.11C238.206 163.572 230.468 166.871 228.598 172.192C226.781 166.854 217.381 163.526 211.241 164.007C195.036 165.275 189.457 183.627 196.266 196.014C199.928 202.684 205.21 208.522 210.979 213.772C215.811 218.169 228.28 227.501 228.319 227.469C228.358 227.501 240.921 218.286 245.796 213.935C251.619 208.741 256.96 202.95 260.69 196.315C267.619 183.988 260.538 165.53 244.343 164.11Z" fill="#D34E4E"/>
        <g style="mix-blend-mode:multiply" opacity="0.12">
            <path d="M257.183 197.586C253.121 202.528 248.423 207.166 243.325 211.142C238.397 214.986 232.632 218.328 226.297 219.426C223.253 219.953 220.276 219.865 217.462 219.192C222.61 223.274 228.202 227.444 228.23 227.427C228.269 227.458 240.833 218.243 245.708 213.892C251.53 208.699 256.872 202.907 260.601 196.273C261.807 194.127 262.588 191.794 262.973 189.398C261.28 192.269 259.315 195.002 257.186 197.59L257.183 197.586Z" fill="#000100"/>
        </g>
        <path d="M257.285 192.637C253.043 192.725 248.801 192.818 244.559 192.906C243.053 187.235 241.547 181.563 240.041 175.892C239.822 175.07 238.627 175.127 238.369 175.885C235.035 185.73 231.702 195.575 228.368 205.421C228.174 205.991 227.983 206.561 227.788 207.131C225.59 200.631 223.387 194.127 221.188 187.628C220.835 186.583 220.481 185.542 220.131 184.498C219.919 183.868 218.901 183.617 218.548 184.293C216.907 187.44 215.271 190.584 213.63 193.731C208.883 193.71 204.135 193.688 199.391 193.664C198.277 193.66 198.267 195.317 199.384 195.32C204.308 195.342 209.236 195.366 214.161 195.388C214.45 195.388 214.776 195.235 214.91 194.981C216.313 192.283 217.72 189.589 219.124 186.891C221.383 193.561 223.638 200.231 225.897 206.9C226.251 207.945 226.604 208.986 226.954 210.03C227.219 210.812 228.358 210.83 228.626 210.037C231.96 200.192 235.293 190.346 238.627 180.501C238.786 180.03 238.945 179.559 239.104 179.089C240.419 184.045 241.738 189.005 243.053 193.961C243.145 194.304 243.509 194.581 243.884 194.573C248.349 194.478 252.813 194.386 257.275 194.29C258.388 194.265 258.399 192.609 257.282 192.63L257.285 192.637Z" fill="white"/>
        <path d="M191.614 193.196C192.611 195.876 194.06 198.248 196.291 199.87C198.143 201.215 199.992 202.56 201.844 203.902C202.35 204.27 202.869 204.652 203.202 205.183C203.668 205.934 203.693 206.869 203.82 207.743C204.096 209.648 205.058 211.595 206.793 212.42C208.529 213.248 211.036 212.423 211.453 210.547C210.654 209.474 209.897 208.341 209.042 207.315C208.579 206.759 207.557 205.421 209.211 205.863C209.466 205.93 209.728 206.023 209.989 205.987C210.396 205.93 210.707 205.573 210.838 205.183C210.961 204.805 210.979 204.38 210.898 203.994C207.133 203.923 202.983 200.266 200.939 197.345C195.477 189.539 197.669 179.637 195.838 170.872C195.47 169.105 194.785 167.303 193.392 166.156C191.999 165.006 189.758 164.751 188.443 165.986C187.032 167.31 187.237 169.569 187.548 171.481C187.997 174.224 188.446 176.968 188.899 179.712C189.567 183.783 190.005 188.888 191.61 193.196H191.614Z" fill="#EFBFA5"/>
        <path d="M185.551 166.454C185.084 170.164 185.035 173.927 185.41 177.648C189.874 176.979 194.375 176.571 198.885 176.426C198.472 172.497 197.786 168.599 196.828 164.765C196.128 161.958 193.685 160.467 190.783 160.584C187.584 160.711 185.908 163.636 185.551 166.454Z" fill="#7FC5A3"/>
        <path d="M219.219 165.307C219.453 165.282 219.718 165.264 219.898 165.416C220.078 165.569 220.11 165.83 220.114 166.064C220.117 166.992 219.827 167.916 219.297 168.677C219.173 168.854 219.028 169.052 219.081 169.261C219.134 169.48 219.371 169.59 219.583 169.672C220.131 169.88 220.683 170.093 221.231 170.302C221.34 170.344 221.461 170.387 221.577 170.366C221.726 170.337 221.839 170.213 221.934 170.096C222.698 169.183 223.483 168.234 223.804 167.084C224.126 165.937 223.85 164.531 222.846 163.89C221.213 162.843 216.08 162.163 215.949 165.112C216.918 165.629 218.173 165.409 219.223 165.303L219.219 165.307Z" fill="#EFBFA5"/>
    </g>
    <defs>
        <clipPath id="clip0_895_8340">
            <rect width="324" height="243" fill="white"/>
        </clipPath>
    </defs>
</svg>
