<svg width="95" height="243" viewBox="0 0 95 243" fill="none" xmlns="http://www.w3.org/2000/svg">
    <defs>
        <clipPath id="clip0_440_13121">
            <rect width="95" height="243" fill="white"/>
        </clipPath>
    </defs>
    <g clip-path="url(#clip0_440_13121)">
        <path d="M95 237.957H85.0551V240.145C85.0838 240.87 85.5718 241.594 86.5189 242.145C88.4706 243.275 91.6133 243.29 93.5506 242.145C94.4977 241.594 94.9857 240.87 95 240.131V237.943V237.957Z" fill="#EA365D"/>
        <path d="M93.565 240.015C91.6277 241.145 88.4849 241.131 86.5332 240.015C84.5816 238.899 84.5816 237.044 86.5045 235.914C88.4419 234.784 91.5846 234.798 93.5363 235.914C95.4879 237.044 95.4879 238.884 93.565 240.015Z" fill="#FF5E81"/>
        <path d="M9.94486 188.311H0V190.499C0.0287009 191.224 0.516616 191.948 1.46375 192.499C3.41541 193.629 6.55816 193.644 8.49547 192.499C9.4426 191.948 9.93051 191.224 9.94486 190.485V188.296V188.311Z" fill="#EA365D"/>
        <path d="M8.49547 190.369C6.55816 191.499 3.41541 191.484 1.46375 190.369C-0.487909 189.238 -0.487909 187.398 1.43505 186.268C3.37236 185.137 6.51511 185.152 8.46677 186.268C10.4184 187.398 10.4184 189.238 8.49547 190.369Z" fill="#FF5E81"/>
        <path d="M55.4215 69.5424C55.0627 70.5712 54.3595 72.3246 55.565 73.1361C55.8376 73.3245 57.1722 73.7738 57.287 73.2376C57.0574 74.2809 56.3399 75.1649 55.4358 75.7155C54.5317 76.2517 53.4555 76.4691 52.4079 76.4401C49.7387 76.3532 47.0982 74.4548 46.5529 71.8175C46.2802 70.4843 46.5098 69.1221 46.4237 67.7745C46.352 66.5862 45.9358 65.6153 45.9215 64.427C45.9215 62.9779 45.9502 61.1955 45.0604 59.9638C44.099 58.6451 42.6209 57.6307 41.5015 56.457C39.6503 54.5152 38.8323 51.5445 41.0854 49.5303C41.9177 48.7912 42.9653 48.3565 44.0559 48.1391C44.2281 48.1101 44.4003 48.0812 44.5725 48.0522C46.1941 47.8348 47.8875 48.0232 49.423 48.6173C53.1541 50.0519 55.7228 53.7472 56.5695 57.6887C57.4162 61.6303 56.7274 65.7602 55.4358 69.5569L55.4215 69.5424Z" fill="#FF836E"/>
        <path d="M26.3331 167.125C30.1647 165.734 34.0249 164.343 37.5838 162.328C39.9947 160.966 42.2334 159.329 44.6012 157.88C45.8928 157.083 47.2273 156.358 48.5619 155.633C50.9298 154.358 53.4985 153.083 56.1533 153.416C55.1344 151.344 53.9864 149.112 51.9056 148.142C49.7387 147.127 47.213 147.75 44.9169 148.388C39.0332 150.025 33.1639 151.663 27.2802 153.286C25.9743 153.648 24.6541 154.025 23.5347 154.793C22.6881 155.387 22.0136 156.17 21.3965 157.01C19.3875 159.749 15.7711 167.487 21.5257 168.067C23.1903 168.241 24.7832 167.675 26.3187 167.125H26.3331Z" fill="#C71E42"/>
        <path d="M21.0952 128.13C19.3301 132.868 18.1964 137.839 17.4358 142.838C16.46 149.243 15.2115 156.735 16.7757 163.125C17.034 164.169 17.4071 165.212 18.1103 166.009C19.2583 167.313 21.1669 167.748 22.8603 167.415C24.5536 167.081 26.0461 166.053 27.2802 164.835C29.4758 162.647 30.9109 159.807 32.102 156.923C33.6518 153.127 34.8142 149.185 35.9048 145.229C36.9811 141.302 37.9857 137.346 38.3014 133.274C38.3301 132.854 38.3588 132.419 38.2583 132.013C38.1292 131.462 37.7991 130.999 37.469 130.55C36.1919 128.883 34.5559 127.376 32.5468 126.796C30.6669 126.275 28.5431 127.492 26.7636 126.564C25.3286 125.825 23.9509 124.42 23.3625 122.884C23.3338 122.942 23.3051 123.014 23.2764 123.072C22.4728 124.71 21.7553 126.405 21.1095 128.115L21.0952 128.13Z" fill="#EA365D"/>
        <path d="M60.2576 177.298C60.7168 174.081 60.9894 170.806 60.6163 167.574C60.2145 164.227 59.1239 160.908 59.5257 157.561C59.5974 156.996 59.7122 156.416 59.5544 155.851C59.4539 155.474 59.2243 155.126 58.9517 154.851C58.0189 153.895 56.4547 153.648 55.2779 154.271C55.1631 154.329 55.034 154.416 54.9766 154.532C54.9192 154.648 54.9192 154.779 54.9335 154.909C54.9909 156.242 55.1775 157.561 55.3066 158.88C55.8233 164.154 55.5219 169.501 54.4169 174.689C54.0151 176.544 53.5272 178.37 53.2976 180.254C53.1971 181.123 53.1541 182.007 53.355 182.862C53.5702 183.703 54.0725 184.514 54.8331 184.934C58.5929 186.963 59.9418 179.573 60.2576 177.312V177.298Z" fill="#EA365D"/>
        <path d="M51.4177 150.156C51.389 151.228 51.719 152.359 52.5227 153.069C53.3263 153.779 54.4456 153.953 55.4645 154.242C56.4834 154.532 57.5884 155.083 57.9041 156.112C58.105 156.778 58.0045 157.633 58.5786 158.01C59.0091 158.3 59.5831 158.111 60.0567 157.894C63.2712 156.416 65.9977 153.634 69.4993 153.185C70.8195 153.011 72.1828 153.199 73.503 153.04C74.8233 152.88 76.2296 152.228 76.7319 150.982C71.4653 151.619 66.1843 150.127 61.2477 148.2C58.7651 147.229 56.2681 146.142 53.6133 146.084C52.7953 146.069 51.9773 146.287 51.9056 147.2C51.8338 148.2 51.4464 149.142 51.4177 150.156Z" fill="#CCE6E5"/>
        <path d="M53.1397 148.519C53.7137 149.692 54.9909 150.359 56.2538 150.62C57.1866 150.808 58.1624 150.823 59.0952 150.663C60.1428 150.475 61.1473 150.069 62.2092 149.881C64.1752 149.533 66.1986 149.997 68.1216 150.591C70.0446 151.185 71.9245 151.924 73.9192 152.141C74.6367 152.228 75.3973 152.228 76.0718 151.953C76.7462 151.663 77.3059 151.025 77.3059 150.286C77.3059 149.953 77.1911 149.634 77.0763 149.33C76.287 147.388 74.852 145.722 73.0582 144.649C71.2644 143.577 69.1261 143.128 67.0597 143.374C66.0551 143.49 65.065 143.765 64.0604 143.896C62.6828 144.07 61.2764 143.954 59.8988 143.751C58.5499 143.548 57.1722 143.244 55.8233 143.476C53.4985 143.881 52.0778 146.316 53.1684 148.547L53.1397 148.519Z" fill="#1A55A1"/>
        <path d="M33.6231 148.446C34.8716 150.547 36.2062 152.619 37.3255 154.779C41.7598 163.241 43.6397 172.747 47.3135 181.529C48.0884 183.384 49.0786 185.355 50.858 186.253C53.5128 187.586 56.9139 185.833 58.3346 183.195C59.5257 180.978 59.6405 178.37 59.4252 175.906C58.7364 167.936 57.5023 159.966 56.5838 151.996C56.2107 148.707 55.8233 145.432 55.3928 142.157C54.8618 138.215 54.2591 134.23 52.7379 130.55C51.719 128.057 50.1979 125.652 47.9162 124.275C47.6579 124.116 47.3422 123.971 47.0551 124.072C46.7968 124.159 46.6533 124.434 46.5242 124.666C45.8928 125.883 45.6488 127.347 44.8165 128.405C43.8119 129.666 42.4343 130.593 40.9706 131.216C39.0619 132.013 36.9668 132.303 34.886 132.332C32.7334 132.361 30.4947 132.115 28.6866 130.955C28.4426 134.824 29.0597 138.737 30.4947 142.331C31.3414 144.461 32.4607 146.461 33.6231 148.417V148.446Z" fill="#FF5E81"/>
        <path d="M27.5529 106.973C26.6057 107.161 26.0174 107.581 25.1707 107.987C24.6828 108.219 24.3814 108.19 23.9079 108.002C23.6208 107.9 22.9033 107.625 22.9464 107.19C22.1714 114.102 22.6594 121.13 21.4252 127.999C21.2961 128.738 21.4252 129.202 21.8701 129.825C22.645 130.955 23.8074 131.767 24.9985 132.433C30.179 135.259 36.3784 135.448 42.219 134.665C45.6775 134.201 49.2651 133.346 51.9056 131.028C52.1065 130.854 52.293 130.666 52.3935 130.419C52.5657 129.955 52.3505 129.448 52.1208 129.014C50.7145 126.217 49.1934 123.463 48.3036 120.464C47.1412 116.508 47.1699 112.291 47.6866 108.204C43.1662 109.61 38.2296 109.581 33.7236 108.132C31.7002 107.48 29.6337 106.552 27.5529 106.973Z" fill="#FFD3AC"/>
        <path d="M39.6073 71.1943C38.9328 69.354 37.5121 67.8759 35.9909 66.6586C34.4698 65.4269 32.8051 64.3836 31.3701 63.0504C27.9834 59.8913 25.7878 55.1238 25.0559 50.5881C24.6828 48.284 22.3867 33.764 22.2863 28.7501C22.2863 28.1705 22.2002 27.5184 22.4298 26.9532C22.6881 26.3446 23.2477 26.1128 23.75 25.736C24.8837 24.9245 25.8452 23.8666 26.6488 22.7219C26.8641 22.4031 27.0793 22.0553 27.1367 21.6785C27.1941 21.2293 27.0363 20.7801 26.8354 20.3743C26.5196 19.6932 26.0891 19.0122 25.429 18.6354C25.0415 18.418 24.5967 18.3166 24.1518 18.3021C24.0227 18.3021 23.8935 18.3021 23.7931 18.2441C23.6926 18.1862 23.6209 18.0847 23.5491 17.9978C23.0038 17.3167 22.028 17.0124 21.1956 17.2732C21.1095 17.3022 21.0378 17.3312 20.9517 17.3312C20.8656 17.3312 20.7651 17.3022 20.679 17.2732C20.1767 17.1283 19.6458 17.1283 19.1435 17.2732C19 17.3167 18.8565 17.3602 18.756 17.4616C18.6986 17.5196 18.6556 17.592 18.5838 17.6645C18.4116 17.8384 18.1677 17.9108 17.9524 18.0123C16.5461 18.7223 16.4313 20.6207 16.2878 22.0118C16.1873 23.0262 16.173 24.0405 16.1586 25.0694C16.1586 25.765 16.2017 26.475 16.1443 27.1561C16.0582 28.069 16.0725 28.982 16.0151 29.8949C15.929 31.2716 15.8573 32.6482 15.7425 34.0249C15.6133 35.5609 15.4267 37.097 15.2258 38.6185C15.0249 40.256 14.8097 41.879 14.6662 43.5165C14.494 45.4293 14.4222 47.3566 14.5514 49.2839C14.6088 50.2548 14.7236 51.2402 14.9101 52.1966C15.1254 53.2979 15.642 54.2833 15.9864 55.3122C16.4743 56.7323 21.6405 67.2962 23.7644 71.1219C24.9554 73.281 26.2183 75.4112 27.5098 77.5124C28.1125 78.4978 28.744 79.4832 29.1888 80.541C29.9351 82.309 30.179 84.2507 30.4086 86.1636C32.1307 82.7002 35.6896 80.657 39.0189 78.7297C39.2628 78.5848 39.5212 78.4254 39.679 78.1935C39.8512 77.9327 39.8943 77.5994 39.923 77.2806C40.1095 75.2373 40.2817 73.1216 39.5929 71.1943H39.6073Z" fill="#FFA857"/>
        <path d="M21.4252 93.0178C20.6073 94.9741 20.0189 97.1188 20.392 99.2055C20.6934 100.872 21.5831 102.35 22.1284 103.959C22.645 105.509 22.8316 107.161 22.6594 108.784C22.6163 109.248 22.5302 109.726 22.6594 110.175C22.7598 110.523 22.9894 110.813 23.219 111.074C25.6873 113.928 29.6337 114.957 33.3648 115.305C38.1005 115.754 43.0514 115.276 47.256 113.03C47.6579 112.813 48.0597 112.581 48.3467 112.233C48.7915 111.711 48.9351 111.016 49.1073 110.349C50.2983 105.668 52.824 101.51 54.9048 97.2202C55.9381 95.09 56.8996 92.8874 57.5023 90.5978C58.0763 88.4532 58.6647 86.323 56.6412 84.8449C54.2304 83.0915 51.6616 81.5554 48.9638 80.2802C47.6435 79.6571 46.395 79.1644 45.2039 78.3094C44.0272 77.469 42.8074 76.6575 41.4441 76.1358C38.2153 74.8896 35.0151 76.0054 32.6042 78.3094C29.7628 81.0338 26.9932 83.8885 24.6971 87.12C23.3912 88.9603 22.2576 90.9166 21.3822 93.0033L21.4252 93.0178Z" fill="#1A55A1"/>
        <path d="M50.4849 83.164C49.2077 83.5263 48.074 84.0625 47.256 85.1493C46.7251 85.8594 46.3663 86.6709 46.0363 87.4968C45.1035 89.8444 44.9887 92.3803 45.6775 94.8148C46.0793 96.2349 46.6533 97.7855 47.9449 98.539C49.1073 99.2201 50.4562 99.7563 51.7764 99.5389C53.0967 99.3215 54.2017 98.3651 54.9192 97.2203C55.5937 96.1335 55.9094 94.9452 56.3542 93.757C56.8565 92.4383 57.1722 91.0616 57.3157 89.6705C57.4449 88.3518 57.4018 86.9607 56.7991 85.7724C55.9381 84.0915 54.0438 83.1206 52.1783 82.9612C51.6473 82.9177 51.0589 82.9901 50.4705 83.1495L50.4849 83.164Z" fill="#FFA857"/>
        <path d="M48.8777 81.0337C48.7198 81.4539 48.3754 81.7727 48.0597 82.0771C43.7115 86.207 39.3059 90.3659 34.2115 93.496C32.5612 94.5103 30.7817 95.4378 28.8588 95.5827C28.4713 95.6117 28.1125 95.5827 27.7681 95.5247C27.4237 95.4668 27.0937 95.3508 26.7923 95.1624C26.4479 94.9596 26.1322 94.6842 25.8595 94.3075C24.7976 92.9019 25.142 90.8731 25.7878 89.2211C26.3761 87.743 27.1654 86.3664 28.1125 85.0912C29.7915 82.8451 31.9441 80.9757 34.3119 79.5121C35.4743 78.7876 36.7659 78.2804 37.957 77.5559C39.0619 76.8748 40.0378 76.1212 41.3293 75.8024C41.645 75.73 41.9751 75.672 42.3051 75.7445C42.7357 75.8314 43.0801 76.1357 43.4101 76.4111C44.3429 77.2081 45.3187 77.9616 46.3233 78.6717C47.0695 79.1789 47.8588 79.5991 48.5476 80.1787C48.8777 80.4686 49.0642 80.599 48.892 81.0337H48.8777Z" fill="#FFD3AC"/>
        <path d="M34.8286 90.5109C34.0393 90.4094 33.0922 90.6413 32.3603 90.8587C31.4562 91.134 30.5952 91.5687 29.849 92.1484C28.7727 92.9743 28.0838 94.2061 27.7825 95.5393C27.4381 95.4813 27.108 95.3654 26.8067 95.177C27.065 94.9017 27.2946 94.5829 27.4811 94.2496C28.5718 92.2788 28.3852 89.4965 27.4811 87.5112C28.5718 88.8154 29.0166 90.6413 28.6292 92.3078C28.7296 91.844 29.5763 91.4383 29.9351 91.2499C30.466 90.9746 31.0257 90.7717 31.5997 90.6268C32.6616 90.3515 33.7666 90.3225 34.8429 90.5254L34.8286 90.5109Z" fill="#FFA857"/>
        <path d="M41.0423 75.107C39.9086 75.788 38.6171 76.2228 37.2825 76.3097C36.4215 76.3677 34.5559 75.817 34.355 77.1647C34.2832 77.6864 34.2976 78.237 34.2689 78.7732C34.1971 79.9035 34.0106 81.0048 33.2357 81.8887C32.8769 82.2945 32.2742 82.7147 32.7908 83.3089C33.0491 83.5987 33.4509 83.7146 33.8384 83.7871C36.6798 84.3088 39.6073 83.5987 42.3051 82.5988C43.7689 82.0482 45.247 81.3961 46.3807 80.3092C46.5529 80.1353 46.7251 79.9614 46.8255 79.7441C47.0264 79.2949 46.8686 78.9905 46.5672 78.6572C45.5483 77.5125 45.3044 75.8895 45.2183 74.3534C45.1322 72.9768 45.1465 71.5856 45.2613 70.209C44.3429 72.2087 42.9079 73.9911 41.0423 75.1214V75.107Z" fill="#FFA857"/>
        <path d="M47.0838 54.66C44.5438 52.9501 41.3006 52.2835 38.3301 52.9936C36.5363 53.4138 34.8716 54.3557 33.5657 55.6599C32.1163 57.0945 31.3557 58.9204 30.5378 60.7463C30.3512 61.181 30.1503 61.6157 30.0642 62.0794C29.8489 63.1518 30.1934 64.2676 30.0642 65.3399C29.9494 66.2674 29.4902 67.1368 29.4758 68.0787C29.4758 68.6149 29.605 69.1366 29.7341 69.6438C30.3656 72.1217 31.0113 74.5997 31.6427 77.0777C31.7001 77.2805 31.7432 77.4834 31.8724 77.6428C32.0302 77.8312 32.2598 77.9181 32.4751 77.9906C34.3837 78.5702 36.4501 78.1065 38.3588 77.4979C39.7221 77.0632 41.0853 76.5705 42.2477 75.73C43.4101 74.8895 44.3572 73.6723 44.6012 72.2521C44.6156 72.1652 45.8066 71.745 45.9501 71.658C46.4094 71.4117 46.8399 71.1218 47.256 70.832C48.031 70.2814 48.5619 69.4264 49.0068 68.5859C50.815 65.195 51.6616 60.4565 49.5378 56.9931C48.9494 56.0367 47.9736 55.2832 47.0551 54.6745L47.0838 54.66Z" fill="#FFD3AC"/>
        <path d="M38.6601 71.0061C38.5597 71.977 37.6987 72.6725 36.7372 72.5711C35.7757 72.4697 35.0869 71.6002 35.1873 70.6293C35.2878 69.6584 36.1488 68.9628 37.1103 69.0643C38.0718 69.1657 38.7606 70.0352 38.6601 71.0061Z" fill="#FF9176"/>
        <path d="M39.7364 64.3546C39.3633 64.1082 38.9471 63.9343 38.5166 63.8184C37.3112 63.4851 36.034 63.6735 34.7999 63.8184C34.5128 63.8474 34.2258 63.8908 33.9532 63.8184C33.8814 63.8619 33.7953 63.9778 33.824 64.0647C33.8527 64.1372 33.9245 64.1952 33.9962 64.2386C34.2545 64.398 34.5559 64.4125 34.8573 64.398C35.6465 64.3835 36.4215 64.1952 37.2107 64.1517C38.1005 64.0937 39.0045 64.2096 39.8512 64.4705C39.7938 64.4415 39.8082 64.3835 39.7508 64.3401L39.7364 64.3546Z" fill="#FF836E"/>
        <path d="M31.5997 63.7749C31.5997 63.6589 31.5423 63.5575 31.4849 63.4561C31.284 63.0793 30.5665 61.7751 30.0211 62.2823C29.7341 62.5576 30.1647 62.746 30.3656 62.8909C30.7674 63.1808 31.1835 63.4706 31.5853 63.7604L31.5997 63.7749Z" fill="#FF836E"/>
        <path d="M49.3225 54.6747C48.7054 54.0226 47.9879 53.4719 47.213 53.0372C45.3044 51.9649 43.2236 51.4142 41.0423 51.4722C38.9471 51.5446 36.8089 52.0808 35.0582 53.2835C34.2115 53.8632 31.3844 56.3267 33.006 57.2396C34.1828 57.9062 35.5891 58.0076 36.9094 58.0221C38.5597 58.0511 40.2961 57.9786 41.7742 58.7322C42.2477 58.9785 42.6782 59.3118 42.9366 59.7755C43.4101 60.645 43.1375 61.7318 42.9079 62.7027C42.6208 64.0069 42.4773 65.427 43.0083 66.6443C43.4101 67.5572 44.142 68.2673 44.9456 68.8324C44.7591 68.0064 45.003 67.108 45.5627 66.4704C46.1224 65.8473 46.9977 65.5285 47.8301 65.6299C48.2606 65.6879 48.6767 65.8473 48.9207 66.2385C49.2508 66.7892 49.0642 67.2964 48.9207 67.876C48.6624 68.9628 48.1027 69.9772 47.3134 70.7742C47.4426 70.6438 48.1027 70.6003 48.3036 70.5279C48.8059 70.325 49.2077 70.2525 49.5808 69.8178C52.7953 66.1081 53.2115 60.6595 50.614 56.4861C50.2122 55.834 49.8248 55.2109 49.2795 54.6602L49.3225 54.6747Z" fill="#FF9482"/>
        <path d="M84.5959 51.6895C84.4955 51.2548 84.2372 50.8346 83.8497 50.6027C83.5771 50.4433 83.2183 50.3708 83.0317 50.1245C82.9169 49.9796 82.8739 49.7912 82.7734 49.6318C82.5008 49.1681 81.8981 49.0232 81.3671 48.9507C81.2236 48.9362 81.0801 48.9217 80.9366 48.8638C80.8074 48.8203 80.6783 48.7334 80.5635 48.6754C79.8459 48.2986 78.9706 48.2696 78.2387 48.5884C77.5929 48.2117 76.8467 47.9943 76.1005 47.9653C75.7848 47.9653 75.4547 47.9943 75.182 48.1682C74.7228 48.487 74.6367 49.1101 74.4358 49.6318C74.3784 49.7622 74.321 49.8926 74.2206 49.9796C73.9192 50.2259 73.503 50.1969 73.173 50.3708C72.8286 50.5592 72.5703 50.8201 72.5559 51.2403C72.5129 51.791 72.5846 52.3271 72.7281 52.8488C72.9434 53.6603 73.3308 54.4573 73.7613 55.1819C74.2206 55.9644 74.7515 56.7179 75.3255 57.428C75.713 57.9062 76.2727 57.9931 76.4305 58.5728C76.6027 59.1959 76.5597 60.0074 76.4592 60.6305C76.2153 62.3114 75.9139 63.9634 75.5408 65.6154C74.8089 68.9194 73.8474 72.1798 72.7999 75.3968C72.4411 76.5271 71.9819 77.5995 71.5944 78.7153C71.2787 79.6282 70.8626 80.7006 69.9441 81.1498C68.8965 81.657 67.8203 82.1062 66.7296 82.4974C64.5196 83.2655 62.2092 83.7437 59.8845 83.7871C57.9758 83.8161 56.0672 83.5698 54.173 83.7437C52.3074 83.9176 49.9826 84.5842 48.8059 86.1927C47.5287 87.9606 47.3852 91.0327 47.5861 93.0904C47.7583 94.9742 48.2749 98.3072 50.528 98.7129C51.6473 98.9158 52.4796 98.3216 53.4124 97.8145C54.1299 97.4232 54.8618 97.0175 55.6224 96.6987C56.1964 96.4523 56.713 96.5392 57.3157 96.4668C58.6503 96.3074 59.9706 96.0755 61.2764 95.7712C63.9313 95.1626 66.5144 94.2642 68.9683 93.1049C71.537 91.8876 73.9479 90.3951 76.3588 88.888C79.5733 86.8737 80.1329 82.6424 80.7931 79.208C81.8263 73.8318 82.6586 68.4122 83.2757 62.978C83.4622 61.3695 83.5484 59.6741 83.778 58.0511C84.0076 56.3556 84.5242 54.7326 84.6677 53.0227C84.7107 52.5735 84.7251 52.1098 84.6103 51.675L84.5959 51.6895Z" fill="#FFD3AC"/>
        <path d="M8.79683 12.5203H1.14804V188.036C1.16239 188.586 1.54985 189.151 2.26738 189.572C3.75982 190.441 6.18505 190.456 7.6775 189.572C8.40937 189.151 8.78248 188.586 8.78248 188.021V12.5203H8.79683Z" fill="#4D4D4D"/>
        <path d="M7.69185 14.0997C6.19941 14.9692 3.77418 14.9692 2.28173 14.0997C0.789286 13.2303 0.774936 11.8101 2.26738 10.9407C3.75983 10.0712 6.18506 10.0712 7.6775 10.9407C9.16995 11.8101 9.1843 13.2303 7.69185 14.0997Z" fill="#D6D6D6"/>
        <path d="M9.94486 8.78174H0V14.752C0.0287009 15.4766 0.516616 16.2011 1.46375 16.7518C3.41541 17.8821 6.55816 17.8966 8.49547 16.7518C9.4426 16.2011 9.93051 15.4766 9.94486 14.7375V8.78174Z" fill="#EA365D"/>
        <path d="M8.49547 10.8249C6.55816 11.9552 3.41541 11.9407 1.46375 10.8249C-0.487909 9.70904 -0.487909 7.85419 1.43505 6.72389C3.37236 5.59359 6.51511 5.60808 8.46677 6.72389C10.4184 7.85419 10.4184 9.69455 8.49547 10.8249Z" fill="#FF5E81"/>
        <path d="M8.79683 2.23169H1.14804V8.41936C1.16239 8.97002 1.54985 9.53517 2.26738 9.95541C3.75982 10.8249 6.18505 10.8394 7.6775 9.95541C8.40937 9.53517 8.78248 8.97002 8.78248 8.40487V2.23169H8.79683Z" fill="#4D4D4D"/>
        <path d="M7.69185 3.81114C6.19941 4.6806 3.77418 4.6806 2.28173 3.81114C0.789286 2.94168 0.774936 1.52156 2.26738 0.652096C3.75983 -0.217365 6.18506 -0.217365 7.6775 0.652096C9.16995 1.52156 9.1843 2.94168 7.69185 3.81114Z" fill="#D6D6D6"/>
        <path d="M88.1548 62.6448L90.2931 58.9061L9.52871 11.7668C9.25605 11.6219 8.88294 11.6509 8.48112 11.8827C7.6488 12.3754 6.95998 13.5492 6.95998 14.5201C6.95998 14.9983 7.11783 15.3316 7.39049 15.491L88.1548 62.6448Z" fill="#4D4D4D"/>
        <path d="M75.0529 55.24C75.4116 55.0081 75.6269 54.6169 75.6987 54.1966C75.7704 53.7764 75.6987 53.3417 75.5982 52.9359C75.5695 52.82 75.5408 52.6896 75.5982 52.5881C75.6269 52.5302 75.67 52.4867 75.713 52.4432C76.0718 52.1099 76.5597 51.994 76.9328 51.7042C77.2916 51.4144 77.5786 50.7912 77.105 50.458C76.8897 50.2985 76.5884 50.2841 76.3157 50.3275C76.0431 50.371 75.7848 50.458 75.5121 50.4869C74.9668 50.5449 74.4071 50.371 73.8905 50.5449C73.4313 50.6898 73.0725 51.11 72.9147 51.5738C72.7568 52.0375 72.7568 52.5447 72.8286 53.0374C72.9003 53.5011 73.0295 53.9648 73.2304 54.3995C73.3882 54.7618 73.6465 55.3414 74.0197 55.5153C74.3354 55.6602 74.7802 55.4284 75.0529 55.2545V55.24Z" fill="#FFA857"/>
        <path d="M19.0718 25.1855C19.1722 25.6782 19.5453 26.084 19.9902 26.3303C20.4351 26.5622 20.9373 26.6491 21.4396 26.6636C21.8414 26.6636 22.2432 26.6491 22.602 26.4752C23.0325 26.2868 23.3625 25.9245 23.6352 25.5478C23.8935 25.2 24.1088 24.7942 24.1805 24.3595C24.2379 23.9828 24.1805 23.5915 24.1088 23.2147C23.9222 22.2293 23.6496 21.2729 23.2908 20.331C23.1616 19.9832 23.0899 19.563 22.6307 19.4905C22.4728 19.4616 22.2145 19.5775 22.0423 19.592C21.6548 19.621 21.253 19.5775 20.8656 19.4616C20.6503 19.3891 20.4494 19.3022 20.2342 19.2732C20.0189 19.2442 19.7749 19.3022 19.6314 19.4905C19.4449 19.7369 19.5453 20.0992 19.7032 20.36C19.8754 20.6498 20.105 20.8962 20.392 21.0701C20.636 21.2295 20.9086 21.3454 21.1239 21.5193C21.3535 21.6932 21.5257 21.983 21.4826 22.2583C21.4396 22.5192 21.2387 22.722 21.0234 22.8959C20.2772 23.5045 18.7991 23.9248 19.0718 25.1855Z" fill="#FFD3AC"/>
        <path d="M19.0718 19.9688C19.4592 20.3166 19.9758 20.534 20.4925 20.5629C20.7938 20.5919 21.1382 20.5195 21.2961 20.2731C21.9419 20.6789 22.7598 20.7948 23.4917 20.5774C23.4917 20.9832 23.6926 21.273 23.8935 21.6063C24.037 21.8382 24.0944 22.0555 24.324 22.2004C24.8837 22.5627 25.673 22.5482 26.2326 22.2004C26.9071 21.7657 27.2515 20.8818 27.1367 20.0703C27.0076 19.2588 26.4335 18.5342 25.673 18.2444C25.5438 18.2009 25.4147 18.1574 25.3142 18.0705C25.1133 17.9111 24.9985 17.5633 24.8263 17.3749C24.6254 17.1431 24.3671 16.9547 24.0944 16.8388C23.5348 16.5924 22.8603 16.5924 22.2863 16.8388C21.7122 16.0852 20.5642 15.8534 19.7606 16.3461C19.7175 16.375 19.6745 16.404 19.6314 16.404C19.574 16.404 19.5166 16.375 19.4592 16.3316C18.9857 16.0562 18.3542 16.2446 17.9668 16.6359C17.4071 17.201 16.9048 18.4762 17.0914 19.2877C17.1632 19.6065 17.4071 19.7949 17.6654 19.9688C17.8807 20.0992 18.1103 20.1862 18.3686 20.1717C18.4547 20.1717 19.0574 19.9833 19.0574 19.9833L19.0718 19.9688Z" fill="#FFD3AC"/>
        <path d="M75.8996 52.2692C75.8996 52.2692 76.0144 52.3416 76.0574 52.3996C76.1292 52.472 76.1435 52.588 76.1866 52.6894C76.3875 53.2401 76.9184 53.6023 77.4781 53.7328C77.5786 53.7617 77.6934 53.7762 77.7938 53.8197C77.9086 53.8777 77.9947 53.9646 78.0808 54.0371C78.5257 54.4283 79.1284 54.6167 79.7024 54.5877C79.9464 54.8196 80.2621 54.979 80.5922 55.0225C80.9079 55.0804 81.2523 55.0225 81.5249 54.8486C81.7976 54.6602 81.9698 54.3269 81.9267 54.0081C81.898 53.8052 81.7832 53.6168 81.7832 53.414C81.7832 53.0372 82.142 52.7908 82.4721 52.6025C82.7734 52.4286 83.0748 52.2547 83.3761 52.0808C83.6201 51.9359 83.8928 51.7765 84.0219 51.5156C84.1511 51.2693 84.1367 50.9505 84.0219 50.6896C83.9071 50.4288 83.6632 50.2404 83.4048 50.1245C83.3618 49.7332 83.0174 49.4289 82.6443 49.3275C82.2712 49.226 81.8693 49.2695 81.4962 49.313C81.4675 49.1246 81.281 48.9942 81.1088 48.9072C80.3195 48.516 79.358 48.487 78.54 48.8203C78.21 48.516 77.8369 48.2262 77.4207 48.0668C77.0045 47.9074 76.5166 47.8639 76.1005 48.0668C75.3112 48.4435 75.0816 49.4724 75.0385 50.2694C74.9955 51.0664 75.182 51.8199 75.8709 52.2837L75.8996 52.2692Z" fill="#FFA857"/>
        <path d="M87.71 61.6593C87.71 60.6884 88.3845 59.5001 89.2311 59.0219C90.0635 58.5292 90.7523 58.9205 90.7523 59.8914C90.7523 60.8623 90.0778 62.0505 89.2311 62.5287C88.3988 63.0214 87.71 62.6302 87.71 61.6593Z" fill="#D6D6D6"/>
        <path d="M93.8663 62.1375H86.2175V237.653C86.2319 238.203 86.6193 238.769 87.3369 239.189C88.8293 240.058 91.2545 240.073 92.747 239.189C93.4789 238.769 93.852 238.203 93.852 237.638V62.1375H93.8663Z" fill="#4D4D4D"/>
        <path d="M92.747 63.7169C91.2545 64.5864 88.8293 64.5864 87.3369 63.7169C85.8444 62.8474 85.8301 61.4273 87.3225 60.5579C88.815 59.6884 91.2402 59.6884 92.7326 60.5579C94.2251 61.4273 94.2394 62.8474 92.747 63.7169Z" fill="#D6D6D6"/>
        <path d="M95 58.3988H85.0551V64.3691C85.0838 65.0936 85.5718 65.8182 86.5189 66.3688C88.4706 67.4991 91.6133 67.5136 93.5506 66.3688C94.4977 65.8182 94.9857 65.0936 95 64.3546V58.3843V58.3988Z" fill="#EA365D"/>
        <path d="M93.565 60.442C91.6277 61.5723 88.4849 61.5578 86.5332 60.442C84.5816 59.3262 84.5816 57.4714 86.5045 56.3411C88.4419 55.2108 91.5846 55.2253 93.5363 56.3411C95.4879 57.4714 95.4879 59.3117 93.565 60.442Z" fill="#FF5E81"/>
        <path d="M93.8663 51.8487H86.2175V58.0364C86.2319 58.587 86.6193 59.1522 87.3369 59.5724C88.8293 60.4419 91.2545 60.4564 92.747 59.5724C93.4789 59.1522 93.852 58.587 93.852 58.0219V51.8342L93.8663 51.8487Z" fill="#4D4D4D"/>
        <path d="M92.747 53.4283C91.2545 54.2978 88.8293 54.2978 87.3369 53.4283C85.8444 52.5589 85.8301 51.1387 87.3225 50.2693C88.815 49.3998 91.2402 49.3998 92.7326 50.2693C94.2251 51.1387 94.2394 52.5589 92.747 53.4283Z" fill="#D6D6D6"/>
    </g>
</svg>
