<svg width="160" height="130" viewBox="0 0 160 130" fill="none" xmlns="http://www.w3.org/2000/svg">
    <defs>
        <radialGradient id="paint0_radial_340_3301" cx="0" cy="0" r="1" gradientUnits="userSpaceOnUse" gradientTransform="translate(56.1302 116.091) rotate(180) scale(12.6894 12.6476)">
            <stop stop-color="#666666"/>
            <stop offset="1" stop-color="#333333"/>
        </radialGradient>
        <radialGradient id="paint1_radial_340_3301" cx="0" cy="0" r="1" gradientUnits="userSpaceOnUse" gradientTransform="translate(17.0384 93.6139) rotate(180) scale(12.6894 12.6476)">
            <stop stop-color="#666666"/>
            <stop offset="1" stop-color="#333333"/>
        </radialGradient>
    </defs>
    <path d="M7.06253 34.1169C6.72133 34.8618 6.38013 35.6392 6.38013 36.4489C6.39637 37.8739 7.50121 39.1047 8.78477 39.7201C10.0683 40.3354 11.5469 40.4326 12.9767 40.5298C13.2366 40.546 13.5291 40.5621 13.7728 40.4488C13.9353 40.3678 14.0815 40.2383 14.2115 40.1087C16.3237 38.0197 17.9647 35.5096 19.8169 33.1938C22.254 30.1332 25.0649 27.3802 27.5995 24.3843C27.7457 24.2061 27.9082 24.0118 27.9407 23.7851C27.9732 23.5908 27.9244 23.3802 27.8757 23.1859C27.6157 22.1657 27.5183 21.1131 27.5832 20.0767C27.6482 19.0726 27.8595 18.0524 27.7132 17.0646C27.4858 15.3804 26.1535 13.8905 24.4962 13.4533C20.873 12.514 19.0533 16.2549 17.2335 18.5868C14.7801 21.7123 12.408 24.8863 10.2958 28.2547C9.10972 30.1494 8.02113 32.0927 7.07877 34.1169H7.06253Z" fill="#FFA857"/>
    <path d="M18.9882 77.7924C18.9232 77.4847 18.8095 77.177 18.6308 76.9179C18.3383 76.5292 17.8834 76.2863 17.5909 75.8815C17.1685 75.2985 17.201 74.505 17.2822 73.7762C17.3635 73.0475 17.4772 72.2864 17.1685 71.6386C16.9248 71.1366 16.6161 70.7965 16.4374 70.2621C16.1449 69.4362 15.9337 68.7399 15.9174 67.8816C15.9012 66.9099 15.0726 50.2948 15.1375 46.0844C15.17 44.1573 15.2838 42.2302 15.5112 40.3193C15.6737 38.9914 15.9012 37.5987 15.4787 36.3193C15.1375 35.2667 14.4064 34.3923 13.5128 33.7283C12.8304 33.2263 12.0667 32.8376 11.2381 32.6595C10.2795 32.449 9.25591 32.5299 8.39479 32.9834C7.9561 33.2101 6.42883 32.8538 6.5913 32.1089C5.42147 37.8578 5.34024 43.5419 5.92515 49.3394C6.16886 51.8657 8.05359 61.8088 8.52477 64.3027C8.91471 66.4079 9.48338 68.4808 9.45088 70.6346C9.43463 72.1568 9.12593 73.6629 8.73599 75.1365C8.50852 75.9948 8.24856 76.8369 7.97235 77.6628C7.79362 78.2296 7.59865 78.8126 7.54991 79.4118C7.51742 79.7195 7.54991 80.0271 7.66364 80.3024C7.79362 80.5777 8.00484 80.7883 8.23231 80.9826C9.58086 82.1971 11.1081 83.3469 12.8954 83.687C13.3666 83.768 13.8865 83.8004 14.3252 83.5574C14.9588 83.2174 15.2188 82.4562 15.755 81.9866C15.9337 81.8409 16.1286 81.7113 16.2911 81.5494C16.4861 81.3389 16.6161 81.0798 16.7948 80.853C17.4447 80.0109 18.777 79.7033 19.037 78.683C19.1182 78.3753 19.0695 78.0515 19.0045 77.76L18.9882 77.7924Z" fill="#FFA857"/>
    <path d="M134.671 0.287521C135.37 0.0608038 136.117 -0.0363606 136.848 0.0122216C138.636 0.157968 140.358 1.30775 140.943 3.00812C141.3 4.06074 141.203 5.17813 141.121 6.27933C141.04 7.31575 141.121 8.30359 141.121 9.32381C141.138 11.5586 141.706 13.7286 141.934 15.931C142.194 18.3115 141.966 20.9026 140.423 22.7325C139.627 23.6718 138.554 24.3195 137.449 24.8377C135.646 25.696 133.501 26.2466 131.665 25.4693C131.145 25.2426 130.642 24.9025 130.398 24.3843C130.106 23.7527 130.236 23.024 130.382 22.3438C130.918 19.8338 131.568 17.2427 131.113 14.7164C130.837 13.2104 130.187 11.7853 129.764 10.3117C129.586 9.71247 129.456 9.0809 129.586 8.46553C129.813 7.34814 130.593 6.32791 130.95 5.22671C131.162 4.54656 131.129 3.80163 131.405 3.13768C131.974 1.77738 133.323 0.757149 134.687 0.319909L134.671 0.287521Z" fill="#1A55A1"/>
    <path d="M133.989 8.83802C133.355 7.59108 132.185 6.50607 130.772 6.27936C130.154 6.18219 129.553 6.40891 128.952 6.47369C128.156 6.57085 127.36 6.63563 126.564 6.7166C124.971 6.86234 123.379 6.95951 121.787 7.05667C118.667 7.23481 115.499 7.34817 112.412 7.54249C111.21 7.60727 109.991 7.70443 108.837 8.0769C106.01 8.99996 103.849 11.1538 101.315 12.595C100.389 13.1294 99.2026 13.4209 98.179 13.7448C96.0018 14.4088 93.7434 14.8298 91.4688 14.8136C87.4718 14.8136 83.6861 13.3886 79.8842 12.3683C78.2757 11.9311 76.4235 11.6558 74.5225 11.6072C70.7856 11.51 66.8536 12.255 64.189 14.3764C62.938 15.3804 62.0281 16.9512 61.037 18.2144C60.4521 18.9755 59.2823 19.8176 60.2084 20.6273C60.9233 21.2427 61.8819 21.5666 62.7592 21.8904C65.6838 22.9916 68.5109 24.3681 71.1917 25.9875C72.979 27.0725 74.75 28.2871 76.7809 28.8053C78.7956 29.3235 80.9241 29.0968 82.9713 28.6919C87.2606 27.8499 91.355 26.2143 95.5144 24.8054C98.9264 23.6556 102.387 22.6678 105.88 21.8419C106.222 22.2629 106.514 22.7325 106.709 23.2669C110.283 21.0645 113.955 18.9755 117.936 17.6314C121.039 16.595 124.289 16.012 127.473 15.2671C129.927 14.6841 132.364 14.0039 134.801 13.3076C134.85 11.7691 134.72 10.1821 134.037 8.80563L133.989 8.83802Z" fill="#EA365D"/>
    <path d="M130.625 7.26715C130.95 7.31573 131.275 7.36432 131.584 7.46148C133.436 8.02827 134.33 10.5384 134.476 12.2711C134.606 13.761 133.956 14.7002 133.063 15.8014C132.364 16.6759 131.665 17.5666 131.21 18.5868C130.755 19.607 130.528 20.773 130.804 21.858C131.064 22.943 131.893 23.9308 132.965 24.2061C133.696 24.4005 134.476 24.2709 135.175 23.9632C136.816 23.2669 137.969 21.6799 138.522 19.9795C139.074 18.2791 139.09 16.4654 139.025 14.6678C138.96 12.8865 138.814 11.089 139.042 9.3076C139.188 8.15783 139.269 7.28335 138.928 6.14976C138.636 5.14573 138.164 4.19028 137.466 3.38057C135.987 1.6802 132.445 0.384672 131.292 2.99192C131.015 3.60729 130.723 4.23886 130.203 4.64371C129.569 5.14573 127.701 6.0364 129.196 6.81372C129.504 6.97566 129.846 7.10521 130.187 7.16999C130.333 7.20237 130.463 7.21857 130.609 7.25096L130.625 7.26715Z" fill="#CCE6E5"/>
    <path d="M155.582 5.76109C154.25 4.98378 152.966 4.56273 151.39 4.78945C149.765 5.01616 148.352 5.61534 147.377 7.00803C146.727 7.94729 145.833 9.46953 146.256 10.6517C146.808 12.1416 147.653 13.4371 147.978 15.0241C148.287 16.514 148.254 18.0524 148.092 19.5584C147.913 21.275 147.572 22.9754 147.068 24.6434C146.841 25.3721 146.532 26.1008 146.386 26.8458C146.223 27.6069 146.288 28.4004 146.239 29.1777C146.174 30.2951 145.947 32.206 145.021 32.9509C144.485 33.3882 144.436 33.9064 144.582 34.6027C144.696 35.1533 144.956 35.7201 145.33 36.1574C145.898 36.8213 146.792 37.1452 147.637 37.2586C149.586 37.5177 151.585 37.0642 153.405 36.3031C155.078 35.6068 156.687 34.5865 157.678 33.0643C159.14 30.8457 159.562 27.6717 158.653 25.1454C158.019 23.364 157.06 21.5341 157.467 19.5746C157.629 18.7811 158.003 18.0686 158.295 17.3075C159.108 15.1537 159.14 12.433 158.62 10.1983C158.198 8.41692 157.174 6.68415 155.582 5.76109Z" fill="#1A55A1"/>
    <path d="M144.923 10.263C144.566 10.7003 144.241 11.1537 143.965 11.6395C142.584 14.02 142.096 16.9674 142.795 19.6394C143.315 21.6151 144.046 23.526 144.647 25.4854C145.2 27.283 145.931 29.4206 145.346 31.2829C145.102 32.0764 144.598 32.8537 144.68 33.6796C144.826 35.1857 146.451 35.7687 147.718 35.8011C149.586 35.8658 151.081 35.4124 152.673 34.4246C154.055 33.5663 155.354 32.4975 156.215 31.1048C157.044 29.7769 157.532 27.9146 157.467 26.3437C157.402 24.7891 156.557 23.2345 156.199 21.7284C155.582 19.1536 156.053 16.4653 156.004 13.8095C155.972 12.2387 155.826 10.4088 154.688 9.2266C153.616 8.10921 152.267 7.25092 150.691 7.08898C148.482 6.87846 146.256 8.61122 144.923 10.2306V10.263Z" fill="#CCE6E5"/>
    <path d="M150.773 14.5222C150.496 12.4494 148.937 10.5223 146.873 10.166C146.581 10.1174 146.272 10.085 145.996 10.166C145.573 10.2632 145.232 10.5385 144.875 10.7814C142.21 12.5789 138.782 12.7247 135.565 12.5789C132.348 12.4332 129.033 12.0769 125.995 13.0971C123.834 13.8259 121.868 15.0566 119.805 16.0121C117.205 17.2266 114.459 18.1497 111.665 18.7651C110.267 19.0728 108.837 19.3157 107.424 19.4614C106.01 19.6234 104.564 19.8501 103.135 19.6881C101.721 19.5262 100.372 18.9918 99.0564 18.425C93.4672 16.0283 88.008 13.421 81.7365 14.5384C79.4618 14.9433 77.3984 16.1254 75.5299 17.5019C74.0351 18.6031 72.1504 20.1416 72.0529 22.1334C71.9554 24.0605 73.4827 25.7609 74.815 26.9593C77.0897 29.0321 79.2668 31.3317 80.4854 34.1656C81.704 36.9834 81.834 40.4489 80.128 43.0076C85.181 43.7525 90.2665 44.5136 95.3682 44.2869C100.47 44.0764 105.637 42.8295 109.812 39.8983C112.509 38.0036 114.687 35.4774 117.075 33.2102C118.976 31.3964 121.446 30.2629 123.85 29.2588C126.499 28.1576 129.196 27.1536 131.893 26.1496C134.33 25.2427 136.767 24.3358 139.204 23.429C141.69 22.5059 144.209 21.5666 146.824 21.1618C147.166 21.1132 147.507 21.0646 147.815 20.9189C148.157 20.7569 148.449 20.4978 148.709 20.2225C150.139 18.7003 151.016 16.5951 150.756 14.5222H150.773Z" fill="#FF5E81"/>
    <path d="M145.118 26.3761C145.265 27.0401 145.362 27.7202 145.427 28.3842C145.524 29.3235 145.265 32.9509 147.166 31.8335C148.319 31.1534 148.319 29.3234 148.465 28.1575C148.628 26.8134 148.595 25.4531 148.4 24.109C148.222 22.8296 148.303 20.7244 146.808 20.19C146.272 19.9957 145.671 20.0442 145.151 20.2386C144.42 20.5139 143.786 21.0645 143.412 21.7446C143.364 21.8418 143.315 21.9551 143.331 22.0685C143.331 22.1819 143.412 22.2628 143.477 22.36C144.355 23.5422 144.842 24.9349 145.135 26.3599L145.118 26.3761Z" fill="#1A55A1"/>
    <path d="M87.8293 44.4002C88.3492 44.3193 88.9016 44.2221 89.3078 43.8982C89.779 43.5419 89.9902 42.9428 90.1689 42.3922C92.1999 35.5906 89.4215 27.947 84.336 22.9755C79.2668 18.0039 72.2316 15.3966 65.1801 14.3764C64.9202 14.344 64.6764 14.3116 64.4165 14.3602C64.0103 14.4412 63.6853 14.7327 63.3604 14.9594C61.7356 16.1092 59.5747 16.174 57.5762 16.0444C54.8304 15.8663 52.1008 15.429 49.3875 14.9756C53.6931 20.4006 56.0815 27.2993 56.049 34.2142C56.049 35.785 55.919 37.372 56.0977 38.9428C56.2927 40.5136 56.8289 42.1007 57.9499 43.2019C60.6308 45.8253 65.4563 44.8375 68.2997 47.299C68.9171 47.8334 69.4207 48.5135 70.0869 48.9993C71.4679 49.9872 72.5078 49.1127 73.8238 48.5459C75.3186 47.8981 76.8459 47.299 78.3894 46.7808C81.4602 45.7443 84.6123 44.9508 87.813 44.4164L87.8293 44.4002Z" fill="#FFD3AC"/>
    <path d="M29.6304 28.3519C30.0853 29.9551 30.9464 31.8822 28.9317 32.8862C28.2168 33.2425 27.5182 32.6271 26.9333 32.2223C27.2745 32.449 27.5669 34.2303 27.7456 34.6676C28.0868 35.5097 28.4768 36.3356 28.9155 37.1291C29.8091 38.7809 33.7248 44.4326 34.9596 45.5338C37.0393 47.4123 39.5576 48.0763 42.076 49.1451C44.5132 50.1815 46.9016 51.4122 49.4849 51.9952C52.0683 52.5782 54.9766 52.4163 57.1051 50.8293C57.9012 50.2463 58.4049 49.8252 59.3797 49.7119C60.4846 49.5823 61.5894 49.388 62.6942 49.226C65.1314 48.8698 67.5848 48.6269 70.0544 48.4973C72.2316 48.384 74.4412 48.3516 76.4722 47.5904C78.0645 47.0075 77.6908 44.5298 77.7395 43.1371C77.8695 38.5865 77.2358 33.955 75.4161 29.7446C74.1975 26.8944 72.4103 24.271 70.1681 22.1172C67.9585 19.9958 65.0014 17.9391 62.1743 16.7893C59.1198 15.5586 55.7078 15.6881 52.4907 15.008C50.7847 14.6517 49.16 14.0525 47.519 13.4857C44.0257 12.2712 40.4838 11.1538 36.8281 10.6518C33.3673 10.1821 30.0366 10.4251 26.6895 11.3481C25.406 11.7044 24.1874 12.2874 23.0176 12.9189C22.5302 13.178 21.7178 13.4533 21.3603 13.8744C20.9541 14.3278 21.2791 14.5869 21.604 14.9756C22.5627 16.1416 23.44 17.3399 24.3499 18.5383C25.4872 20.0443 26.5596 21.5828 27.4857 23.2346C28.3955 24.8378 29.1429 26.522 29.6629 28.2871L29.6304 28.3519Z" fill="#1A55A1"/>
    <path d="M22.92 16.0606C23.31 17.1294 24.2036 18.2144 24.5611 18.9917C25.4222 20.854 25.8934 22.8621 26.1208 24.8864C26.2833 26.3924 26.0721 28.0118 26.3483 29.4693C26.6407 31.0077 27.0794 32.6919 27.8431 34.0684C28.6067 35.4449 29.5166 36.7566 30.3777 38.0683C31.3688 39.5906 32.3274 41.1128 33.351 42.6189C34.4883 44.3031 35.382 45.9387 37.4779 46.5378C39.1839 47.0237 41.0361 46.9103 42.6771 46.2302C42.8071 46.1816 42.9696 46.1168 43.0996 46.1654C43.1808 46.1978 43.2458 46.2787 43.3108 46.3435C44.0257 47.2018 44.6106 48.1734 45.3905 48.9669C46.5928 50.1653 49.4686 51.8009 51.0771 50.4082C52.0195 49.5985 51.8408 48.0925 51.4021 46.9265C50.541 44.6431 49.0624 42.6351 48.1526 40.3679C47.5514 38.878 47.2265 37.291 46.999 35.6878C46.3978 31.6879 46.4628 27.2669 48.8837 24.0281C49.5661 23.1212 50.3947 22.3439 51.0284 21.4046C51.5971 20.5464 51.5321 19.8824 51.0934 18.9431C50.6872 18.0687 50.0535 17.3237 49.3386 16.6922C46.8853 14.4736 43.6357 13.34 40.3862 12.6436C34.992 11.4939 29.2241 11.4453 24.1061 13.5019C23.6837 13.6801 23.245 13.8744 23.0013 14.2631C22.6601 14.8137 22.7088 15.429 22.9363 16.0606H22.92Z" fill="#FFD3AC"/>
    <path d="M35.1871 36.0441C35.3658 35.9469 35.5445 35.8336 35.6907 35.6878C36.1132 35.283 36.3731 34.7486 36.5844 34.198C37.4292 32.0118 37.6729 29.6475 37.608 27.3155C37.543 24.6921 37.0393 21.9229 35.2845 19.9472C35.1221 19.7529 34.9271 19.5747 34.6996 19.4776C34.3259 19.3318 33.9035 19.4128 33.5136 19.4614C31.4176 19.6719 29.4679 18.425 27.7294 17.2428C27.7619 18.2792 28.2493 18.9432 28.5905 19.85C28.948 20.7569 28.8667 21.9391 28.8992 22.8945C28.9317 24.1091 28.948 25.3884 28.3793 26.4572C28.0056 27.186 27.3882 27.7528 26.9008 28.4005C26.0722 29.4693 25.5685 30.943 26.1209 32.1737C26.7221 33.5178 28.5093 34.8458 30.0203 34.8619C31.0602 34.8619 31.905 34.4085 32.7662 35.1858C33.1724 35.5583 33.5461 36.0279 34.0822 36.1737C34.4397 36.2708 34.8296 36.2061 35.1708 36.0441H35.1871Z" fill="#FFA857"/>
    <path d="M14.049 42.2464C14.2927 42.3921 14.5364 42.5541 14.7314 42.7808C15.1863 43.3476 15.0726 44.2382 15.5275 44.8212C16.1774 45.6795 17.5909 45.388 18.4521 44.7402C19.3132 44.0925 20.0281 43.1532 21.0679 42.8455C22.1728 42.5217 23.3588 42.9913 24.4962 42.797C25.2436 42.6674 25.926 42.2626 26.5271 41.8091C28.5581 40.3031 30.1178 38.1978 30.979 35.8335C31.4014 34.6675 31.6451 33.3558 31.2064 32.1898C31.0927 31.8822 30.9302 31.5745 30.8977 31.2506C30.849 30.7486 31.1089 30.2628 31.3039 29.7769C32.5062 26.6677 31.8888 23.1212 30.589 20.1577C29.2405 17.0808 26.9171 14.765 23.6838 13.7286C21.7666 13.1132 19.7031 12.8379 17.7209 12.9351C15.6737 13.0323 13.6428 13.4533 11.823 14.425C9.49963 15.6719 7.66365 17.7447 6.47758 20.0767C4.9503 23.0888 4.44663 26.5867 5.03154 29.9065C5.73019 33.7931 8.03735 37.3396 10.9782 39.9306C11.9368 40.7889 12.9766 41.55 14.0652 42.2464H14.049Z" fill="#FFD3AC"/>
    <path d="M1.29449 26.3438C1.35948 27.526 1.55445 28.7082 1.79817 29.8256C2.38308 32.4328 3.42293 35.2344 5.77883 36.7242C7.01365 37.5015 8.50843 37.8902 9.97071 37.8254C11.6767 37.7607 12.8628 36.8862 14.4226 36.287C16.6972 35.4125 19.1994 35.1696 21.604 35.5906C22.6276 35.7688 23.6512 36.0765 24.7073 36.0765C25.8934 36.0765 27.0794 35.6554 27.9893 34.9105C27.5344 34.9915 27.1282 34.6838 26.787 34.3761C25.8771 33.534 25.0647 32.4976 24.8048 31.283C24.2361 28.611 26.4945 26.0847 29.1104 25.8418C30.4264 25.7285 31.3363 25.939 32.0025 27.0888C32.1812 25.1779 31.9537 23.2346 31.3526 21.4046C30.7676 19.6233 29.939 17.9229 28.7529 16.4654C26.7545 14.0039 23.8137 12.336 20.6941 11.6882C16.0798 10.7327 11.2055 11.6882 7.37109 14.4574C5.82757 15.5748 4.41403 16.9675 3.39043 18.5869C1.9444 20.8702 1.11577 23.5908 1.27824 26.3114L1.29449 26.3438Z" fill="#FF836E"/>
    <path d="M8.39474 8.23877C10.8319 7.3481 13.5127 6.82989 16.0961 6.86227C18.712 6.89466 21.3441 7.57481 23.5538 8.9675C25.6659 10.3116 27.3232 12.2549 29.4679 13.5342C30.2315 13.9877 31.1576 14.3601 31.9863 14.0524C32.6524 13.7933 33.0911 13.1618 33.481 12.5626C33.3998 13.8581 33.3023 15.1536 32.9286 16.3844C32.5549 17.6151 31.84 18.7973 30.7352 19.4775C28.883 20.6596 26.4458 20.19 24.3661 19.4775C22.7251 18.9107 21.1491 18.3277 19.4269 18.101C18.0783 17.9228 17.2334 19.4289 16.4536 20.3519C13.659 23.7203 8.50847 26.2466 4.10537 24.8539C1.99319 24.1899 0.644635 22.1819 0.189702 20.0604C-0.200241 18.2467 0.0109781 16.3358 0.823358 14.6678C2.31814 11.5747 4.99899 9.5181 8.19977 8.30355C8.26476 8.27116 8.32975 8.25496 8.39474 8.22258V8.23877Z" fill="#FF9482"/>
    <path d="M22.0102 41.5986C22.2377 41.7605 22.5464 41.8253 22.8388 41.8577C22.9851 41.8577 23.1313 41.8577 23.2775 41.7929C23.4725 41.6958 23.6025 41.5014 23.7162 41.3071C23.8624 41.0318 23.9599 40.7403 23.9599 40.4488C23.9599 40.1573 23.8624 39.882 23.6675 39.7201C23.505 39.5743 23.2775 39.5258 23.0501 39.5096C22.6601 39.4772 22.2052 39.5258 21.9127 39.8658C21.4253 40.4164 21.5553 41.2585 22.0265 41.5986H22.0102Z" fill="#FF9176"/>
    <path d="M15.4624 41.6958C15.3324 41.7282 15.1862 41.7929 15.1374 41.9225C15.1049 42.052 15.2024 42.1816 15.3162 42.2302C15.4299 42.2788 15.5761 42.2788 15.7061 42.2626C16.3073 42.214 16.9084 42.1654 17.4771 42.0035C18.9881 41.5986 20.3854 40.3841 20.8728 38.8618C19.6218 40.4974 17.3634 41.1614 15.4624 41.6958Z" fill="#FF836E"/>
    <path d="M48.8513 30.279C48.6563 31.6069 48.6725 32.9834 48.8513 34.3437C49.2737 37.4368 49.9399 42.214 53.4168 43.4124C54.2292 43.6877 55.1066 43.6715 55.9352 43.5419C58.8598 43.0561 61.4756 41.0642 62.7105 38.376C63.6691 36.3032 63.7991 33.955 63.7341 31.6717C63.6528 28.6758 63.2629 25.0483 61.2807 22.6354C60.3871 21.5504 58.9573 20.935 57.56 20.9674C55.1716 20.9998 53.0594 22.4896 51.5484 24.2224C50.0211 25.9876 49.1437 28.0766 48.8188 30.2952L48.8513 30.279Z" fill="#FFA857"/>
    <path d="M42.401 119.395C42.401 121.937 43.2459 124.302 44.6594 126.197C45.1468 126.844 45.7155 127.443 46.3329 127.978C46.3329 127.978 46.3329 127.978 46.3492 127.978C46.5604 128.124 46.7716 128.253 46.9991 128.399C50.7198 130.537 56.7801 130.537 60.5333 128.383C60.9395 128.156 61.297 127.897 61.6219 127.638C62.0281 127.249 62.4018 126.844 62.7593 126.407C64.2865 124.48 65.1964 122.051 65.1964 119.395C65.1964 113.128 60.0946 108.043 53.8068 108.043C47.519 108.043 42.4172 113.128 42.4172 119.395H42.401Z" fill="url(#paint0_radial_340_3301)"/>
    <path d="M59.8348 123.767C59.8348 125.192 60.8422 125.759 62.077 125.047C63.3118 124.334 64.3192 122.601 64.3192 121.176C64.3192 119.751 63.3118 119.184 62.077 119.897C60.8422 120.609 59.8348 122.342 59.8348 123.767Z" fill="#1A1A1A"/>
    <path d="M45.9917 108.448V117.435C45.9917 117.597 46.1054 117.775 46.3167 117.889C46.7554 118.148 47.4865 118.148 47.9252 117.889C48.1039 117.792 48.2176 117.662 48.2501 117.516V108.431C48.2501 106.877 49.0788 105.419 50.4273 104.642L55.8053 101.484C56.3252 101.177 56.9264 101.177 57.4463 101.484C57.9662 101.776 58.2749 102.31 58.2749 102.909V110.488C58.3074 110.618 58.4211 110.747 58.5836 110.844C59.0223 111.104 59.7534 111.104 60.1921 110.844C60.3708 110.747 60.4846 110.618 60.5171 110.472C60.5171 110.44 60.5171 110.407 60.5171 110.375V102.909C60.5171 101.5 59.7859 100.237 58.5511 99.5247C57.3163 98.8284 55.854 98.8284 54.6354 99.5571L49.2575 102.715C47.2265 103.913 45.9755 106.1 45.9755 108.448H45.9917Z" fill="#616161"/>
    <path d="M80.3228 61.7927C78.8118 56.6268 76.8946 51.5904 74.9611 46.554C74.4737 45.2585 73.7101 44.044 73.0602 42.8294C71.9553 40.8213 70.818 38.8457 69.6806 36.87C67.536 33.1777 65.4725 29.2426 62.7754 25.9228C61.9305 24.8864 61.3294 23.85 60.0783 23.267C58.9735 22.7488 57.7224 22.6354 56.5201 22.8135C55.139 23.0402 53.9367 23.7204 52.9619 24.7082C51.2396 26.4734 50.2323 28.3033 50.1835 30.8296C50.1348 33.0482 50.7684 35.2992 51.8245 37.2263C54.3754 41.874 58.0149 45.8739 60.4845 50.5702C61.4594 52.4325 65.1151 59.9951 66.1549 61.825C66.9348 63.2015 67.7309 64.578 68.5108 65.9545C68.2996 66.4727 68.0884 66.991 67.9097 67.493C66.4799 71.4605 65.0663 75.4281 63.6528 79.3956C62.8567 81.6466 59.3309 91.4116 58.0149 93.8893C57.3487 94.3427 56.5038 94.4561 55.7565 94.7638C55.1228 95.0229 54.5541 95.4116 54.0017 95.8002C52.377 96.9338 50.7359 98.0674 49.1112 99.2172C48.1851 99.8649 47.1777 100.626 47.0152 101.743C46.9827 101.922 46.9827 102.1 47.0477 102.262C47.259 102.764 47.9414 102.78 48.4775 102.699C49.6311 102.537 50.7847 102.262 51.9058 101.922C52.0195 102.343 51.6946 102.764 51.3209 103.007C50.9472 103.249 50.5085 103.395 50.2323 103.735C49.8748 104.156 49.8423 104.788 50.086 105.29C50.3298 105.792 50.8172 106.132 51.3534 106.294C51.7108 106.407 52.0845 106.424 52.4257 106.521C52.8644 106.65 53.2706 106.877 53.7093 107.039C54.7329 107.46 55.9677 107.768 56.975 107.233C57.9499 106.715 58.8922 106.132 59.7371 105.436C62.0118 103.622 63.6853 101.063 64.5627 98.2941C64.6276 98.0836 64.6926 97.8731 64.7576 97.6625C64.8226 97.5654 64.8876 97.452 64.9363 97.3548C66.4149 94.5695 68.1534 91.8812 69.7781 89.1606C72.2153 85.0312 74.6037 80.9988 76.5046 76.6102C77.447 74.4078 78.3731 72.2054 79.2667 70.0031C80.3716 67.2663 81.2002 64.7076 80.3553 61.7927H80.3228Z" fill="#FFD3AC"/>
    <path d="M3.32544 96.9013C3.32544 99.4438 4.17032 101.808 5.58386 103.687C6.07128 104.334 6.63995 104.934 7.25736 105.468C7.25736 105.468 7.25736 105.468 7.27361 105.468C7.48483 105.614 7.69605 105.743 7.92351 105.889C11.6442 108.027 17.7046 108.027 21.4578 105.873C21.864 105.646 22.2214 105.387 22.5464 105.128C22.9525 104.739 23.3262 104.334 23.6837 103.897C25.211 101.97 26.1208 99.541 26.1208 96.8851C26.1208 90.618 21.0191 85.5331 14.7313 85.5331C8.44343 85.5331 3.34169 90.618 3.34169 96.8851L3.32544 96.9013Z" fill="url(#paint1_radial_340_3301)"/>
    <path d="M20.7592 101.29C20.7592 102.715 21.7665 103.282 23.0013 102.569C24.2361 101.857 25.2435 100.124 25.2435 98.6989C25.2435 97.2739 24.2361 96.7071 23.0013 97.4196C21.7665 98.1321 20.7592 99.8649 20.7592 101.29Z" fill="#1A1A1A"/>
    <path d="M6.91615 85.9703V94.958C6.91615 95.1199 7.02988 95.298 7.2411 95.4114C7.67979 95.6705 8.41093 95.6705 8.84961 95.4114C9.02834 95.3142 9.14207 95.1847 9.17457 95.0389V85.9541C9.17457 84.3994 10.0032 82.942 11.3517 82.1647L16.7297 79.0068C17.2496 78.6991 17.8508 78.6991 18.3707 79.0068C18.8906 79.2983 19.1993 79.8327 19.1993 80.4319V88.0107C19.2318 88.1403 19.3456 88.2698 19.508 88.367C19.9467 88.6261 20.6779 88.6261 21.1166 88.367C21.2953 88.2698 21.409 88.1403 21.4415 87.9945C21.4415 87.9621 21.4415 87.9297 21.4415 87.8974V80.4319C21.4415 79.023 20.7104 77.7599 19.4755 77.0473C18.2407 76.351 16.7784 76.351 15.5599 77.0797L10.1819 80.2376C8.15097 81.4359 6.8999 83.6221 6.8999 85.9703H6.91615Z" fill="#616161"/>
    <path d="M10.7669 73.5333C9.71076 73.5333 8.86589 73.9543 8.58968 74.9746C8.28097 76.1405 8.15099 77.3551 8.00476 78.5372C7.97227 78.7478 7.95602 78.9745 8.00476 79.185C8.0535 79.4117 8.16724 79.6223 8.29722 79.8328C8.58968 80.3024 8.93088 80.7396 9.27208 81.1769C9.69451 81.7275 10.117 82.2781 10.5556 82.8287C10.7344 83.0554 10.9131 83.2821 11.1568 83.4117C11.7417 83.7355 12.4566 83.4602 13.0903 83.2983C13.5614 83.1849 14.0489 83.1364 14.5363 83.1526C14.7475 83.1526 14.975 83.1849 15.1862 83.1526C15.3974 83.104 15.6086 82.9744 15.6899 82.7801C15.7874 82.521 15.6411 82.2457 15.4624 82.019C14.585 80.934 13.0253 80.5939 12.1317 79.5251C11.9854 79.347 11.8554 79.1526 11.8067 78.9421C11.7092 78.5049 11.9367 78.0838 12.1317 77.679C12.4566 77.015 12.7653 76.3187 12.7653 75.5737C12.7653 74.8288 12.4404 74.0515 11.7742 73.7114C11.4655 73.5657 11.1243 73.5171 10.7994 73.5171L10.7669 73.5333Z" fill="#FFD3AC"/>
    <path d="M17.6395 81.0797C17.867 80.8692 17.9969 80.5777 18.1269 80.2862C18.4356 80.4806 18.8743 80.2538 19.0043 79.9138C19.1343 79.5737 19.053 79.2012 18.9555 78.845C18.8256 78.4077 18.6793 77.9705 18.5006 77.5332C18.2407 76.9017 17.8995 76.2539 17.2658 75.9948C16.7784 75.8005 16.1935 75.93 15.836 76.2863C15.6248 76.0596 15.2511 76.0272 14.9586 76.1406C14.6662 76.2539 14.4387 76.4806 14.2437 76.7235C13.9838 77.0636 13.7563 77.4361 13.5938 77.8247C12.749 78.0515 12.0991 78.9097 12.1478 79.7842C11.8066 79.8814 11.6116 80.2377 11.5304 80.5939C11.3192 81.3712 11.4492 82.2133 11.7741 82.9583C12.0828 83.687 12.8302 84.0918 13.6263 83.9947C14.2112 83.9299 14.7637 83.5574 15.0561 83.0392C15.0561 83.0392 15.4136 82.9906 15.4623 82.9906C15.6248 82.9421 15.7873 82.8611 15.9172 82.7639C16.161 82.5696 16.3559 82.2619 16.4534 81.9542C16.5509 81.6951 16.5834 81.4036 16.6321 81.1283C16.9408 81.4198 17.3633 81.3389 17.6557 81.0636L17.6395 81.0797Z" fill="#FFD3AC"/>
</svg>

