<svg width="164" height="238" viewBox="0 0 164 238" fill="none" xmlns="http://www.w3.org/2000/svg">
    <defs>
        <clipPath id="clip0_440_12802">
            <rect width="164" height="238" fill="white"/>
        </clipPath>
    </defs>
    <g clip-path="url(#clip0_440_12802)">
        <path d="M65.1547 74.3197C65.4294 74.0447 65.7186 73.7841 66.0367 73.5525C67.714 72.322 69.8251 71.8299 71.8928 71.772C76.0861 71.6561 80.4673 73.4222 82.7664 76.9254C84.6028 79.7337 84.9498 83.2659 84.7329 86.6243C84.5305 89.7656 83.8798 92.8635 83.2146 95.9324C82.911 97.3366 82.4049 98.7842 82.7086 100.217C82.8531 100.927 83.1423 101.593 83.4604 102.229C83.5617 102.432 84.2702 103.938 84.4582 103.923C82.5495 104.039 80.6119 103.503 79.0503 102.432C77.4742 101.346 76.2885 99.7396 75.7101 97.9156C75.0595 95.86 75.2041 93.6452 74.9004 91.5172C74.6112 89.534 73.4255 88.1588 72.1676 86.6967C71.3867 85.7992 70.8373 84.8872 69.8685 84.1634C68.6828 83.2659 67.4393 82.4552 66.1524 81.7314C64.8799 81.0221 63.434 80.3128 63.3906 78.677C63.3472 77.0412 64.0558 75.4923 65.1691 74.3342L65.1547 74.3197Z" fill="#FF836E"/>
        <path d="M77.3151 208.136C78.1538 206.819 78.3418 205.183 77.8791 203.46C77.5031 202.027 76.3174 199.638 74.4811 200.594C74.0618 200.811 73.7292 201.173 73.44 201.549C72.7604 202.418 72.2399 203.388 71.5458 204.227C70.6782 205.299 69.5504 206.138 68.3936 206.891C65.1981 208.976 61.6266 210.524 57.8671 211.234C57.3321 211.335 56.7826 211.422 56.2332 211.494C55.8283 211.552 55.1198 211.784 54.7727 211.451C54.5558 211.248 54.6281 210.988 54.6426 210.727C54.6571 210.322 54.6426 209.931 54.7583 209.526C53.7606 210.322 52.9798 211.364 52.3869 212.508C51.823 213.593 51.4326 214.751 51.5916 215.982C51.7362 217.082 52.2857 218.356 53.3268 218.892C54.3968 219.442 55.6548 219.529 56.8549 219.413C59.9348 219.123 62.8701 217.516 64.7787 215.084C65.2848 214.433 65.7475 213.709 66.4416 213.26C67.2079 212.768 68.1623 212.681 69.0732 212.508C71.2566 212.102 73.2954 211.161 75.2185 210.061C76.115 209.555 76.8091 208.889 77.2862 208.136H77.3151Z" fill="#1A55A1"/>
        <path d="M60.2529 205.27C59.2263 206.095 58.0117 206.631 56.9127 207.354C55.0041 208.614 53.4424 210.409 52.4881 212.493C52.0543 213.42 51.7362 214.448 51.823 215.461C51.8953 216.431 52.358 217.415 53.2834 217.864C54.4691 218.428 55.6548 218.197 56.8549 217.792C58.3731 217.285 59.8914 216.706 61.1928 215.765C63.3328 214.216 64.7353 211.784 66.9766 210.38C68.625 209.338 70.5914 208.947 72.4278 208.252C74.2497 207.557 76.1005 206.428 76.7657 204.589C77.3296 203.012 76.8958 201.173 75.8547 199.856C75.0594 198.842 73.8738 197.93 72.6447 197.525C72.5001 197.482 72.3555 197.438 72.1965 197.409C71.7337 197.337 71.2421 197.293 70.9819 197.713C70.6782 198.177 70.6348 198.712 70.4324 199.219C70.2878 199.566 69.8106 199.812 69.4925 200.001C68.6539 200.493 67.6562 200.739 66.6729 200.608C66.3693 200.565 66.0512 200.493 65.8053 200.319C65.6174 200.189 65.4872 200.001 65.3137 199.87C64.8221 199.479 64.0702 199.566 63.593 199.957C63.0725 200.377 62.9857 200.913 62.8122 201.52C62.364 202.997 61.4675 204.329 60.2673 205.299L60.2529 205.27Z" fill="#CCE6E5"/>
        <path d="M86.9597 152.852C85.051 149.334 84.6027 144.992 81.9422 142.01C80.4529 140.33 78.3707 139.288 76.1873 138.825C75.3053 138.637 73.9461 138.231 73.0496 138.333C71.9651 138.448 71.1988 139.52 70.5481 140.301C66.0656 145.73 48.9455 168.877 47.8466 170.542C46.9212 171.96 46.0826 173.336 45.6488 174.986C44.7957 178.214 46.1115 181.717 47.8032 184.439C49.0757 186.48 50.7241 188.217 52.4158 189.925C54.686 192.241 57.2453 194.21 59.5588 196.468C60.947 197.815 62.2049 199.277 63.4485 200.753C64.0847 201.506 64.7209 202.259 65.3716 202.997C65.6463 203.315 65.8198 203.619 66.2102 203.793C66.6151 203.967 67.0778 204.039 67.526 204.054C69.3913 204.126 71.2855 203.388 72.5869 202.042C72.9484 201.68 73.2086 201.274 72.9917 200.739C72.7315 200.116 72.3555 199.552 72.0808 198.929C71.5603 197.742 71.1265 196.512 70.7071 195.281C69.8685 192.835 69.1166 190.345 67.9743 188.014C67.4682 186.972 66.8754 185.973 66.1813 185.061C64.6341 183.006 62.5809 181.326 61.4241 179.039C61.1928 178.561 60.9036 177.997 61.0337 177.447C61.1783 176.839 61.8145 176.448 62.2628 176.072C70.8084 168.674 79.3539 161.219 86.9452 152.838L86.9597 152.852Z" fill="#EA365D"/>
        <path d="M58.4455 207.919C58.2719 208.223 58.0695 208.556 58.0406 208.831C57.9972 209.178 58.4165 209.396 58.7202 209.497C59.6456 209.786 60.6433 209.396 61.482 208.932C63.4485 207.861 65.1691 206.37 66.5283 204.589C66.7452 204.314 66.9477 203.996 66.9477 203.634C66.9477 203.359 66.8031 203.113 66.6729 202.881C66.297 202.259 65.8343 201.68 65.3282 201.173C64.9667 200.811 64.5618 200.493 64.0991 200.29C63.8822 200.203 63.7232 200.087 63.5208 200.203C63.3328 200.29 63.1882 200.536 63.087 200.71C62.1182 202.186 61.1494 203.678 60.1661 205.154C59.6456 205.95 59.1251 206.732 58.6768 207.572C58.619 207.673 58.5467 207.803 58.4744 207.933L58.4455 207.919Z" fill="#1A55A1"/>
        <path d="M86.7717 224.089C86.3957 224.508 86.1354 225.015 85.6438 225.319C85.0944 225.652 85.0944 226.028 85.0076 226.694C84.8052 228.301 84.2268 229.865 83.3303 231.211C83.1712 231.442 82.9543 231.703 82.6652 231.689C82.5784 231.689 82.4916 231.66 82.4193 231.703C82.3615 231.732 82.3326 231.804 82.3181 231.877C81.8988 233.295 82.2892 234.902 83.1279 236.089C84.1545 237.551 85.7595 238.073 87.5091 238C89.9238 237.884 92.2952 236.972 94.1894 235.467C96.127 233.932 97.0958 231.196 97.2693 228.793C97.2693 228.678 97.2837 228.562 97.2837 228.446C97.3271 227.447 97.2693 226.39 97.6742 225.478C98.1079 224.508 99.0334 223.828 99.6262 222.945C100.335 221.903 100.581 220.6 100.508 219.341C100.436 218.081 100.06 216.865 99.6117 215.693C98.802 213.565 97.6163 211.379 95.5486 210.423C95.5486 213.203 94.2039 215.837 92.4687 218.023C90.7336 220.209 88.6225 222.033 86.7428 224.103L86.7717 224.089Z" fill="#1A55A1"/>
        <path d="M83.0411 227.983C82.9254 228.431 82.8242 228.895 82.723 229.343C82.4627 230.502 82.2024 231.674 82.2603 232.861C82.3181 234.092 82.6651 235.004 83.8219 235.554C84.8775 236.06 86.0631 236.205 87.2344 236.104C88.3911 236.002 89.519 235.669 90.6034 235.235C92.0494 234.656 93.4664 233.86 94.4786 232.658C95.592 231.341 96.2282 229.995 96.6041 228.287C96.9512 226.723 97.1391 225.116 97.7031 223.611C98.0935 222.569 98.6574 221.599 99.0333 220.542C99.8286 218.284 99.6262 215.736 98.7297 213.507C97.8332 211.277 96.2716 209.367 94.4497 207.818C94.5653 208.961 94.1894 210.163 93.452 211.046C92.7001 211.929 91.5867 212.493 90.4444 212.566C90.025 212.595 89.6057 212.551 89.1864 212.58C88.955 212.609 88.5068 212.566 88.3044 212.624C88.1598 212.667 88.0875 212.826 88.0296 212.957C85.9764 217.806 84.3135 222.829 83.07 227.954L83.0411 227.983Z" fill="#CCE6E5"/>
        <path d="M106.784 145.802C105.236 141.546 101.463 138.173 97.0668 137.131C96.9801 140.041 94.6521 142.342 92.3241 144.065C89.3599 146.28 85.8752 148.176 82.188 148.017C81.7542 148.003 81.2915 147.959 80.9011 148.147C80.4528 148.364 80.1926 148.828 79.9901 149.276C78.8767 151.679 79.3684 155.081 81.5662 156.775C81.8265 156.978 84.5883 158.237 84.7039 157.875C82.9399 163.781 79.4118 168.993 77.2428 174.769C75.6957 178.88 73.9171 183.411 74.4377 187.898C74.6835 189.969 75.2619 191.908 76.2017 193.761C76.8958 195.151 77.7634 196.454 78.6888 197.67C79.672 198.958 80.8143 200.116 81.8554 201.361C84.1111 204.083 85.8462 207.253 86.9452 210.611C87.1187 211.132 87.2777 211.668 87.4223 212.204C87.4946 212.479 87.5669 212.754 87.6248 213.029C87.726 213.492 87.7115 214.1 87.914 214.52C88.1308 214.983 88.8972 215.142 89.3455 215.244C90.8348 215.548 92.4398 215.302 93.7845 214.578C94.7967 214.028 96.0113 212.913 95.8233 211.639C95.563 209.96 95.3606 208.281 95.2016 206.601C94.9847 204.3 95.0281 201.868 94.522 199.624C94.1605 198.046 93.6544 196.497 92.8302 195.093C92.1072 193.863 91.1818 192.762 90.5456 191.474C88.8104 187.898 91.283 183.035 93.2929 180.11C96.1848 175.912 99.0333 171.685 101.708 167.343C103.704 164.085 105.627 160.741 106.726 157.079C107.839 153.417 108.099 149.407 106.798 145.817L106.784 145.802Z" fill="#FF5E81"/>
        <path d="M66.0078 89.8815C65.2993 88.8537 64.3449 88.2023 63.3762 87.464C62.3061 86.6534 61.3807 85.5387 60.4409 84.5688C58.4599 82.5422 56.5223 80.4866 54.6137 78.4021C52.0254 75.5648 49.3504 73.1907 48.7142 69.2387C48.4828 67.8346 48.3672 66.5173 48.0346 65.142C47.6153 63.4339 45.562 49.0592 45.3162 47.0615C45.1861 46.0771 45.0848 45.0783 44.9836 44.0939C44.9402 43.732 44.9113 43.3556 44.8824 42.9937C45.1861 42.9069 45.4897 42.7766 45.7789 42.6318C47.702 41.6909 49.307 40.113 50.2758 38.2167C50.4204 37.9416 50.5505 37.6521 50.6228 37.3336C50.6807 37.0731 50.6951 36.8125 50.6807 36.5519C50.6662 35.7413 50.4493 34.9161 50.0011 34.2358C49.5384 33.5554 48.8299 33.0487 48.0201 32.9329C47.89 32.9184 47.7454 32.904 47.6153 32.8605C47.4562 32.8026 47.3261 32.6724 47.1815 32.571C46.5019 32.0499 45.5765 31.8907 44.7667 32.1367C44.6511 32.1657 44.5354 32.2236 44.4052 32.2091C44.304 32.2091 44.2173 32.1657 44.1305 32.1367C43.8269 32.0354 43.4798 32.0644 43.1906 32.2236C43.1039 32.267 43.0027 32.3249 42.9015 32.3105C42.7713 32.2815 42.6701 32.1367 42.54 32.0933C42.3664 32.0354 42.1785 32.0499 42.0194 32.1223C41.8314 32.1946 41.6868 32.3394 41.5423 32.4697C40.4433 33.5699 39.8505 35.0609 39.3444 36.523C38.0286 40.2433 37.9852 44.6585 38.043 48.5815C38.1153 53.2428 38.2021 57.8896 38.2744 62.5508C38.3612 67.849 38.5491 73.0604 41.1663 77.7941C44.145 83.1791 47.7454 88.2892 51.0132 93.5005C52.5604 95.9614 54.0931 98.4224 55.6403 100.883C57.3321 103.576 59.0238 106.268 61.1205 108.657C61.1494 106.905 61.2651 104.835 61.9447 103.199C62.6243 101.578 63.781 100 64.7787 98.5527C65.5451 97.4525 66.3548 96.3668 66.7741 95.1074C67.3381 93.3702 67.0489 91.3726 66.0222 89.8671L66.0078 89.8815Z" fill="#FFA857"/>
        <path d="M73.4544 148.191C79.6142 152.114 87.7115 153.055 94.7533 151.506C96.127 151.202 97.4717 150.811 98.7731 150.333C101.058 149.508 103.342 148.452 105.049 146.729C106.798 144.963 105.887 143.298 104.47 141.604C101.636 138.203 98.3827 135.163 95.3028 131.978C94.4641 131.109 93.6399 130.226 92.9893 129.213C92.4398 128.344 92.0349 127.389 91.6734 126.419C91.124 124.943 90.6902 123.408 90.3721 121.859C89.9961 122.525 89.7359 123.35 89.331 123.987C88.8683 124.725 87.8417 125.16 87.0898 125.536C84.8052 126.68 82.4916 127.765 80.1637 128.793C76.3608 130.458 72.2398 132.007 68.1622 131.254C67.1212 131.066 66.0222 130.993 64.9667 131.138C64.4317 131.211 62.7544 131.573 62.7255 132.282C62.7255 132.456 62.7978 132.629 62.8701 132.789C63.9834 135.264 65.4728 137.551 66.9621 139.838C67.8875 141.271 71.5747 146.903 72.9628 147.873C73.1219 147.988 73.2809 148.09 73.4544 148.191Z" fill="#FFD3AC"/>
        <path d="M56.1898 111.972C55.4234 114.114 54.6571 116.257 54.3245 118.501C54.0642 120.325 54.0353 122.409 54.7149 124.146C55.3656 125.782 56.45 127.215 57.6646 128.475C59.6456 130.545 62.7544 132.311 63.2171 135.365C63.2605 135.669 63.2749 135.973 63.4195 136.248C63.5641 136.523 63.8099 136.711 64.0558 136.885C67.6706 139.491 72.3844 140.2 76.7946 139.607C81.2048 139.013 85.3546 137.218 89.3166 135.177C91.0372 134.28 92.7868 133.31 94.0448 131.833C94.2473 131.601 94.4352 131.341 94.4931 131.037C94.5654 130.603 94.334 130.183 94.1316 129.792C92.5121 126.665 92.4254 123.003 92.3964 119.485C92.3964 116.648 92.3386 113.825 92.2952 110.988C92.2808 109.54 92.2663 108.092 92.2518 106.645C92.2518 105.935 92.2374 105.226 92.2229 104.517C92.2229 104.01 92.2952 103.301 91.8904 102.91C91.659 102.693 91.3409 102.577 91.0372 102.476C85.0655 100.391 79.0647 98.3935 73.0351 96.4827C73.3243 96.5695 73.599 97.7421 73.6569 98.0171C73.8015 98.6251 73.5123 98.7409 72.9194 98.6975C71.835 98.6106 70.7939 98.2053 69.7383 97.9592C68.3936 97.6407 67.0778 97.2499 65.7041 97.1486C64.3305 97.0472 62.8845 97.2933 61.8001 98.1619C60.0505 99.5516 59.6745 102.288 58.9515 104.314C58.0406 106.876 57.1152 109.439 56.2042 111.986L56.1898 111.972Z" fill="#1A55A1"/>
        <path d="M82.8242 100.623C82.7953 100.883 82.4049 101.129 82.2169 101.26C81.7398 101.593 81.1758 101.766 80.6987 102.099C79.3973 102.968 78.4719 104.343 77.9224 105.805C77.3585 107.282 77.1127 108.831 76.9247 110.409C76.462 114.071 76.2451 117.835 74.8715 121.266C73.4834 124.682 70.6348 127.809 66.9621 128.286C66.7018 128.315 66.4271 128.33 66.1379 128.33C65.5306 128.33 64.9089 128.228 64.3016 128.069C63.0725 127.751 61.9157 127.114 61.1349 126.245C59.8625 124.841 59.3419 122.916 59.0238 121.092C58.7925 119.659 58.6913 118.197 58.7202 116.735C58.7491 116.04 58.7925 115.345 58.8648 114.664C59.2263 111.364 60.1951 108.15 61.4097 105.067C62.1037 103.344 62.8556 101.651 63.3183 99.8555C63.246 100.131 64.128 100.565 64.3305 100.608C64.7932 100.71 65.0245 100.492 65.4583 100.275C66.3982 99.8265 67.2802 99.2765 68.09 98.6395C69.0009 97.9302 69.8251 97.1051 70.5192 96.2075C70.8806 95.7588 71.2132 95.2811 71.5024 94.7889C71.6325 94.5573 71.7627 94.3836 71.7627 94.123C71.7627 93.8335 71.7338 93.5874 71.8061 93.2979C71.8061 93.2544 71.835 93.1965 71.8784 93.1965C71.9073 93.1965 71.9651 93.1965 71.994 93.2255C73.0207 93.848 73.9894 94.5718 74.9004 95.3535C76.0282 96.3378 77.0693 97.438 78.3562 98.1763C78.978 98.5382 81.465 99.6673 82.0868 99.8989C82.3471 100 82.8531 100.232 82.8098 100.579L82.8242 100.623Z" fill="#FFD3AC"/>
        <path d="M72.2109 118.515C71.1698 118.674 70.0131 119.427 69.1889 120.05C68.2779 120.744 67.4827 121.613 66.8609 122.612C65.8198 124.291 65.6318 126.433 66.1379 128.359C65.5306 128.359 64.9089 128.257 64.3016 128.098C64.6775 127.461 64.9233 126.737 65.039 125.999C65.4583 123.292 64.0413 120.209 62.1326 118.327C63.9545 119.34 65.227 121.237 65.5017 123.278C65.4294 122.713 66.2102 121.888 66.5572 121.512C67.0489 120.976 67.5839 120.484 68.1912 120.078C69.3769 119.253 70.765 118.703 72.2109 118.486V118.515Z" fill="#FFA857"/>
        <path d="M63.8388 109.048C63.8388 109.048 63.8533 109.077 63.8678 109.091C64.3738 109.815 65.4149 109.844 66.2825 109.728C68.8852 109.352 71.3723 108.194 73.3243 106.428C75.2763 104.661 76.6934 102.316 77.3296 99.7686C77.4308 99.3922 77.5031 98.9869 77.3874 98.6105C77.2717 98.2486 77.0115 97.9591 76.7512 97.684C75.6667 96.4825 74.7992 95.0783 74.1919 93.5583C74.2642 93.761 74.0184 94.4703 73.9605 94.6875C73.8738 95.0204 73.7147 95.2665 73.5556 95.5705C73.1797 96.3088 72.7604 97.0181 72.3121 97.713C71.7048 98.625 70.9963 99.508 70.1143 100.159C68.6828 101.216 66.8753 101.593 65.1257 101.983C64.8944 102.041 64.6486 102.099 64.4461 102.229C63.4918 102.895 63.434 104.531 63.7087 105.53C63.7955 105.848 63.9401 106.239 63.9256 106.572C63.9256 106.847 63.781 107.122 63.7232 107.397C63.593 107.948 63.5352 108.555 63.8533 109.033L63.8388 109.048Z" fill="#FFA857"/>
        <path d="M76.7223 96.4536C77.532 95.1363 78.0815 93.6887 78.4574 92.1398C78.7032 91.1554 78.8189 90.1421 78.8189 89.1143C78.8189 87.5075 78.6309 85.9006 78.1104 84.3807C76.9392 80.9498 74.1051 78.8798 70.7071 78.0402C67.179 77.1716 63.3038 77.5625 60.1372 79.3575C58.084 80.5156 56.3777 82.2816 55.2788 84.3807C54.122 86.581 53.775 89.0854 53.3846 91.5029C53.2978 92.0819 53.1966 92.6754 53.3557 93.24C53.4714 93.6453 53.7172 94.0217 53.8473 94.427C54.0208 94.9771 53.9774 95.5706 53.963 96.1496C53.9341 97.6841 54.1943 99.233 54.7149 100.681C54.8595 101.086 55.033 101.477 55.0908 101.897C55.1776 102.418 55.1053 102.997 55.4089 103.431C55.727 103.88 56.3488 104.01 56.826 104.271C57.7948 104.806 58.2575 105.906 58.7925 106.876C59.1106 107.47 59.7757 107.673 60.4264 107.774C61.5398 107.962 62.6965 107.774 63.7665 107.398C64.8365 107.036 65.8487 106.514 66.8753 106.037C68.2056 105.414 69.5793 104.864 70.8083 104.054C72.0374 103.243 72.6302 101.52 73.1074 100.16C73.1797 99.9568 73.252 99.7542 73.3821 99.5949C73.4689 99.4936 73.5846 99.4212 73.6858 99.3488C74.2642 98.958 74.9004 98.7553 75.3631 98.2342C75.8692 97.6696 76.303 97.0761 76.6934 96.4536H76.7223Z" fill="#FFD3AC"/>
        <path d="M64.7932 102.07C64.7787 103.011 63.9979 103.764 63.058 103.75C62.1182 103.735 61.3663 102.953 61.3807 102.012C61.3952 101.071 62.176 100.319 63.1303 100.333C64.0702 100.348 64.8221 101.129 64.8076 102.07H64.7932Z" fill="#FF9176"/>
        <path d="M65.3137 96.3234C64.8655 96.1497 64.3738 96.0484 63.9256 95.9471C63.246 95.8023 62.5519 95.7444 61.8723 95.7734C61.3084 95.8023 60.759 95.8892 60.2095 95.9905C59.5588 96.1063 58.9226 96.2076 58.2719 96.3234C58.1852 96.309 58.0984 96.4248 58.1418 96.4972C58.1852 96.5695 58.2719 96.613 58.3587 96.6274C58.966 96.7867 59.6022 96.6564 60.224 96.555C61.1928 96.3958 62.1615 96.2945 63.1448 96.2945C63.6509 96.2945 64.1425 96.3234 64.6486 96.3958C65.0534 96.4392 65.386 96.4103 65.7764 96.5406C65.6318 96.4537 65.4728 96.3813 65.3137 96.3234Z" fill="#FF836E"/>
        <path d="M53.1388 92.5017C53.1388 92.6609 53.1822 92.8057 53.2545 92.9505C53.5003 93.4861 53.8907 93.9348 54.31 94.3257C54.5269 94.5284 54.7727 94.7021 54.9896 94.9047C55.0619 94.9626 55.1197 95.0495 55.221 95.0784C55.5535 95.1653 55.4668 94.9047 55.3511 94.731C55.1487 94.4415 54.9607 94.1375 54.7583 93.8624C54.3389 93.3124 53.8907 92.7912 53.3846 92.299C53.2111 92.1253 53.1677 92.357 53.1533 92.5017H53.1388Z" fill="#FF836E"/>
        <path d="M77.7634 80.6023C77.2573 79.7627 76.6355 78.9955 75.8836 78.402C74.1196 76.9978 72.2109 76.1148 69.9986 75.6371C65.574 74.6961 60.5854 75.5647 57.361 78.7494C56.7247 79.3719 56.1753 80.0812 55.6692 80.805C54.6137 82.3105 53.4569 84.4095 53.775 86.3348C54.0931 88.2023 56.2765 89.0129 57.9249 89.0998C59.8336 89.2011 61.7422 88.8247 63.6653 88.8681C64.6486 88.8971 65.6174 89.0274 66.5717 89.2735C67.179 89.4327 67.7863 89.6354 68.2924 90.0118C68.784 90.3737 69.1599 90.8948 69.3624 91.4738C69.7239 92.5451 69.4636 93.7031 69.5937 94.8178C69.8106 96.5694 71.0686 98.1328 72.7315 98.7263C72.37 97.6551 72.1241 96.5115 72.3121 95.3968C72.5001 94.2822 73.2086 93.2109 74.2642 92.8346C75.1317 92.5306 75.9993 92.878 76.5921 93.5439C77.3007 94.3401 77.2428 95.3824 76.8524 96.3378C76.9392 96.1351 77.2284 96.0482 77.373 95.889C77.9658 95.281 78.3707 94.3256 78.7322 93.5728C79.9178 91.054 80.0914 88.1878 79.5563 85.4808C79.2382 83.845 78.6888 82.0934 77.7923 80.6023H77.7634Z" fill="#FF9482"/>
        <path d="M80.0335 104.98C79.2093 106.732 78.79 108.773 78.6165 110.438C78.3562 112.971 78.5442 115.967 79.5564 118.312C80.6264 120.788 82.2603 122.583 85.1667 121.931C86.309 121.671 87.4368 121.135 88.2465 120.281C89.1141 119.384 89.5768 118.153 89.9094 116.952C90.9216 113.318 91.0806 109.468 90.3865 105.762C90.1841 104.662 89.8949 103.446 89.2153 102.519C88.5936 101.665 87.1476 101.187 86.1354 101.1C84.8775 100.985 83.5183 101.303 82.4627 101.984C81.4072 102.664 80.6119 103.75 80.0191 104.995L80.0335 104.98Z" fill="#FFA857"/>
        <path d="M89.5479 224.364C89.9817 224.045 90.3287 223.611 90.6468 223.162C92.3241 220.803 93.4664 218.067 93.987 215.215C93.987 215.142 94.0159 215.056 93.987 214.983C93.9725 214.867 93.8858 214.766 93.799 214.679C93.0182 213.84 91.9337 213.304 90.8059 213.13C90.3432 213.058 89.8805 213.029 89.4178 213.072C89.1864 213.101 88.7237 213.072 88.5357 213.217C88.4345 213.29 88.3911 213.434 88.3622 213.55C88.2176 214.144 88.1309 214.752 88.0441 215.36C87.8127 217.01 87.5814 218.646 87.35 220.296C87.2344 221.121 87.1187 221.946 87.003 222.757C86.9163 223.336 86.8006 224.045 87.3211 224.465C87.9284 224.957 88.9406 224.783 89.519 224.349L89.5479 224.364Z" fill="#1A55A1"/>
        <path d="M118.062 71.2653C117.831 70.9179 117.455 70.6863 117.122 70.4257C115.546 69.2097 114.635 67.2555 112.958 66.1842C112.654 65.996 112.322 65.8223 111.96 65.7934C111.599 65.7644 111.208 65.8802 110.991 66.1698C110.832 66.3869 110.774 66.6619 110.644 66.908C110.514 67.1396 110.239 67.3568 109.994 67.2555C109.864 67.1975 109.777 67.0817 109.676 66.9804C109.271 66.604 108.591 66.6764 108.157 67.0238C107.724 67.3713 107.478 67.8924 107.29 68.4135C106.393 70.9034 106.292 73.6828 107.015 76.245C107.189 76.8675 107.42 77.461 107.521 78.098C108.027 80.9498 104.282 97.1774 103.342 98.8566C103.14 99.204 102.822 99.479 102.446 99.6238C99.1779 100.898 95.6932 101.81 92.194 101.52C90.936 101.419 89.6925 101.158 88.4345 101.158C86.4536 101.158 85.0221 101.766 83.7207 103.257C82.564 104.589 81.7398 106.196 81.3638 107.919C81.1469 108.903 81.0746 109.931 81.0602 110.93C81.0168 113.246 81.2771 115.591 82.188 117.719C82.6652 118.819 83.3448 119.89 84.4003 120.484C84.8341 120.73 85.3257 120.889 85.8318 120.86C86.7138 120.802 87.4513 120.165 88.0875 119.543C88.6948 118.935 89.2587 118.428 90.0251 118.037C90.8059 117.632 91.7024 117.502 92.5555 117.27C93.8858 116.908 95.2016 116.503 96.5174 116.054C99.1346 115.157 102.012 114.201 104.354 112.739C106.581 111.349 108.663 109.743 110.456 107.832C110.905 107.354 111.353 106.847 111.758 106.326C112.524 105.371 112.886 103.938 113.131 102.751C113.406 101.462 113.623 100.174 113.825 98.8711C114.216 96.3233 114.65 85.6979 114.707 82.9619C114.722 82.1223 114.765 81.3985 115.185 80.6892C115.662 79.8785 115.98 78.9665 116.356 78.098C116.703 77.2873 117.354 76.303 117.513 75.4344C117.889 74.5514 118.279 73.6538 118.351 72.6984C118.38 72.2062 118.322 71.6996 118.048 71.2943L118.062 71.2653Z" fill="#FFD3AC"/>
        <path d="M111.295 68.3702C110.948 68.7755 110.427 69.2532 109.892 69.369C109.603 69.4269 109.545 69.4269 109.444 69.7599C109.343 70.0784 109.329 70.4258 109.271 70.7587C109.155 71.4391 108.953 72.7999 107.998 72.5393C107.434 72.3801 107.001 71.8879 106.798 71.3378C106.596 70.7877 106.596 70.1797 106.668 69.5862C106.726 69.065 106.842 68.5584 107.015 68.0662C107.174 67.5885 107.405 67.0963 107.839 66.8357C108.36 66.5173 109.01 66.6186 109.603 66.7199C109.849 66.7634 110.109 66.8068 110.355 66.8502C110.644 66.8936 110.934 66.9515 111.179 67.0963C111.425 67.2411 111.628 67.5016 111.613 67.7912C111.613 68.0083 111.469 68.211 111.324 68.3847L111.295 68.3702Z" fill="#FFD3AC"/>
        <path d="M12.0593 19.3833L15.356 14.2154L3.8607 7.51301C3.4703 7.25244 2.90637 7.25244 2.27016 7.59986C1.05555 8.26576 0.0289277 9.9305 8.62638e-06 11.3057C-0.0144509 11.9716 0.202442 12.4638 0.57839 12.6954H0.592849C0.592849 12.6954 0.607309 12.6954 0.621768 12.6954L12.0737 19.3544L12.0593 19.3833Z" fill="#4D4D4D"/>
        <path d="M15.9489 15.6051C15.92 16.9803 14.8933 18.645 13.6787 19.3109C12.4641 19.9768 11.4953 19.3978 11.5387 18.0225C11.5676 16.6473 12.5943 14.9826 13.8089 14.3167C15.0235 13.6508 15.9923 14.2298 15.9489 15.6051Z" fill="#757575"/>
        <path d="M7.93828 34.395L27.5309 3.60454L23.2075 1.10019C20.8796 -0.463218 17.5394 -0.434266 13.7655 1.6358C6.50679 5.57328 0.477162 15.4314 0.260269 23.6393C0.159052 27.6347 1.47487 30.501 3.67272 31.9341L3.77393 32.0065C3.81731 32.0354 3.86069 32.0644 3.90407 32.0933L7.92382 34.4095L7.93828 34.395Z" fill="#999999"/>
        <path d="M31.0302 11.9717C30.8277 20.1796 24.7836 30.0378 17.5394 33.9897C10.2952 37.9417 4.58367 34.4964 4.7861 26.2885C4.98854 18.0806 11.0326 8.22243 18.2768 4.27048C25.5211 0.318535 31.2326 3.76382 31.0302 11.9717Z" fill="#333333"/>
        <path d="M14.3728 38.1153L33.9655 7.32488L29.6421 4.82053C27.3141 3.25712 23.9739 3.28607 20.2 5.35614C12.9558 9.30809 6.91168 19.1662 6.70924 27.3741C6.60803 31.3695 7.92384 34.2358 10.1217 35.6689L10.2229 35.7413C10.2663 35.7702 10.3097 35.7992 10.353 35.8281L14.3728 38.1443V38.1153Z" fill="#999999"/>
        <path d="M37.4791 15.6921C37.2767 23.9 31.2326 33.7581 23.9884 37.7101C16.7442 41.662 11.0326 38.2167 11.2351 30.0088C11.4375 21.8009 17.4816 11.9428 24.7258 7.99082C31.97 4.03887 37.6816 7.48416 37.4791 15.6921Z" fill="#333333"/>
        <path d="M138.219 92.3569L141.515 87.189L24.7981 19.7742C24.4077 19.5137 23.8438 19.5137 23.2076 19.8611C21.993 20.527 20.9808 22.1773 20.9374 23.567C20.923 24.2328 21.1399 24.725 21.5158 24.9566H21.5303C21.5303 24.9566 21.5447 24.9566 21.5592 24.9566L138.219 92.3569Z" fill="#4D4D4D"/>
        <path d="M114.751 67.3568C114.418 66.937 113.956 66.604 113.449 66.4303C113.29 66.3724 113.102 66.329 112.972 66.2132C112.857 66.1263 112.799 65.996 112.712 65.8802C111.859 64.7077 110.76 65.8078 110.268 66.6764C109.632 67.7766 108.822 69.2097 109.155 70.5415C109.271 70.9903 109.618 71.4245 110.08 71.4969C110.211 72.0181 110.485 72.5102 110.934 72.8142C111.367 73.1182 111.96 73.2196 112.452 72.9879C112.698 73.3498 113.102 73.5815 113.522 73.6973C113.941 73.8131 114.389 73.8131 114.809 73.7696C114.924 74.3197 115.329 74.7251 115.806 74.9856C116.341 75.2607 116.847 74.9277 117.122 74.4211C117.339 74.0013 117.426 73.5236 117.672 73.1182C117.845 72.8432 118.091 72.6116 118.265 72.3365C118.626 71.7575 118.467 70.9468 117.802 70.6573C117.744 70.6284 117.686 70.6139 117.643 70.5705C117.585 70.5125 117.556 70.4257 117.527 70.3388C117.267 69.4268 116.5 68.6886 115.589 68.457C115.488 68.428 115.373 68.4135 115.3 68.3267C115.242 68.2688 115.214 68.1819 115.185 68.1095C115.083 67.849 114.939 67.5884 114.765 67.3713L114.751 67.3568Z" fill="#FFD3AC"/>
        <path d="M46.9646 35.8427C47.167 36.0598 47.4128 36.248 47.6875 36.3783C47.9044 36.4796 48.1647 36.5809 48.2949 36.7836C48.425 36.9863 48.3961 37.2613 48.3527 37.5074C48.3238 37.6956 48.2948 37.8983 48.1503 38.0285C48.078 38.1009 47.9767 38.1443 47.89 38.1878C47.5574 38.3325 47.2104 38.4339 46.8489 38.4773C46.5163 38.5207 46.1693 38.5352 45.909 38.7234C45.6488 38.8971 45.4897 39.2156 45.3451 39.4906C45.1716 39.8091 45.0704 40.171 45.0704 40.5474C45.0704 40.8224 45.1138 41.1264 45.2873 41.3435C45.4752 41.6041 45.7789 41.7344 46.097 41.8212C46.8344 42.0239 47.6152 41.995 48.3527 41.8068C49.0901 41.6186 49.7697 41.2712 50.4059 40.8658C50.5939 40.7355 50.6951 40.5329 50.753 40.3157C50.8686 39.7946 51.0132 39.259 51.0855 38.7379C51.2012 37.8259 51.2012 36.8994 51.1145 35.9729C51.0855 35.7124 51.0422 35.4373 50.8686 35.2347C50.7096 35.061 50.4638 34.9741 50.2324 34.9451C49.9866 34.9307 49.7553 34.9451 49.5095 34.9596C49.2347 34.9596 48.96 34.9451 48.7142 34.8583C48.4684 34.7714 48.2515 34.6412 48.0057 34.5253C47.7743 34.424 47.4996 34.3516 47.2538 34.3951C46.4874 34.5543 46.5597 35.365 46.979 35.8282L46.9646 35.8427Z" fill="#FFD3AC"/>
        <path d="M41.8604 33.5844C41.8604 33.5844 41.9182 33.7291 41.9616 33.816C42.1929 34.3516 42.9159 34.6266 43.4364 34.3516C43.5377 34.7424 43.8558 35.0609 44.2462 35.1767C44.6366 35.2925 45.0704 35.1912 45.374 34.9306C45.4463 35.3939 45.8801 35.7268 46.3283 35.8571C47.1959 36.1032 48.1502 35.7558 48.8732 35.2057C49.2636 34.9162 49.6251 34.5543 49.7553 34.0765C49.7986 33.8884 49.8131 33.7002 49.8131 33.512C49.8131 33.2659 49.7697 33.0053 49.654 32.7882C49.3649 32.2381 48.6853 32.0354 48.078 31.8907C48.0201 31.3985 47.6875 30.9787 47.2682 30.7471C46.8344 30.5154 46.3283 30.4575 45.8512 30.5299C45.7644 30.5299 45.6632 30.5589 45.6054 30.501C45.562 30.472 45.5475 30.4286 45.5331 30.3852C45.4029 30.1246 45.1427 29.9509 44.8679 29.9075C44.8246 29.9075 44.1883 29.9654 44.2606 30.0667C43.9859 29.6903 43.581 29.3429 43.1183 29.3574C42.8291 29.3718 42.5544 29.5311 42.3375 29.7193C41.629 30.3273 41.1374 31.3695 41.0362 32.2815C41.0217 32.4842 41.0651 32.6434 41.1663 32.8171C41.3543 33.1501 41.7302 33.2948 41.9182 33.5988L41.8604 33.5844Z" fill="#FFD3AC"/>
        <path d="M142.094 88.5931C142.065 89.9683 141.038 91.633 139.824 92.2989C138.609 92.9648 137.64 92.3858 137.684 91.0106C137.713 89.6354 138.739 87.9706 139.954 87.3047C141.168 86.6388 142.137 87.2179 142.094 88.5931Z" fill="#92004B"/>
        <path d="M133.548 107.079L153.141 76.2885L148.818 73.7842C146.49 72.2207 143.149 72.2497 139.375 74.3198C132.131 78.2717 126.087 88.1299 125.885 96.3378C125.783 100.333 127.099 103.199 129.297 104.633L129.398 104.705C129.442 104.734 129.485 104.763 129.528 104.792L133.548 107.108V107.079Z" fill="#999999"/>
        <path d="M156.64 84.6556C156.438 92.8635 150.394 102.722 143.149 106.674C135.905 110.626 130.194 107.18 130.396 98.9723C130.599 90.7644 136.643 80.9063 143.887 76.9543C151.131 73.0024 156.843 76.4477 156.64 84.6556Z" fill="#333333"/>
        <path d="M139.997 110.799L159.59 80.009L155.266 77.5046C152.938 75.9412 149.598 75.9702 145.824 78.0402C138.58 81.9922 132.536 91.8503 132.334 100.058C132.232 104.054 133.548 106.92 135.746 108.353L135.847 108.425C135.891 108.454 135.934 108.483 135.977 108.512L139.997 110.828V110.799Z" fill="#999999"/>
        <path d="M163.089 88.376C162.887 96.5839 156.843 106.442 149.598 110.394C142.354 114.346 136.643 110.901 136.845 102.693C137.047 94.4849 143.092 84.6267 150.336 80.6748C157.58 76.7228 163.291 80.1681 163.089 88.376Z" fill="#333333"/>
        <path d="M160.11 105.255L163.407 100.087L151.912 93.3991C151.521 93.1385 150.958 93.1386 150.321 93.486C149.107 94.1519 148.095 95.8021 148.051 97.1918C148.037 97.8577 148.254 98.3499 148.63 98.5815H148.644C148.644 98.5815 148.658 98.5815 148.673 98.5815L160.125 105.24L160.11 105.255Z" fill="#999999"/>
        <path d="M164 101.491C163.971 102.867 162.944 104.531 161.73 105.197C160.515 105.863 159.546 105.284 159.59 103.909C159.619 102.534 160.645 100.869 161.86 100.203C163.075 99.537 164.043 100.116 164 101.491Z" fill="#333333"/>
    </g>
</svg>
