<svg width="259" height="166" viewBox="0 0 259 166" fill="none" xmlns="http://www.w3.org/2000/svg"><defs><linearGradient id="c" x1="88.969" y1="48.405" x2="152.761" y2="116.889" gradientUnits="userSpaceOnUse"><stop stop-color="#9CB8C6"/><stop offset="1" stop-color="#636D76"/></linearGradient><linearGradient id="d" x1="146.43" y1="57.387" x2="172.564" y2="88.513" gradientUnits="userSpaceOnUse"><stop stop-color="#9CB8C6"/><stop offset="1" stop-color="#636D76"/></linearGradient><linearGradient id="e" x1="82.757" y1="58.596" x2="114.768" y2="114.107" gradientUnits="userSpaceOnUse"><stop stop-color="#9CB8C6"/><stop offset="1" stop-color="#636D76"/></linearGradient><linearGradient id="f" x1="33.603" y1="95.408" x2="64.266" y2="115.743" gradientUnits="userSpaceOnUse"><stop stop-color="#9CB8C6"/><stop offset=".3" stop-color="#99B1C0"/><stop offset="1" stop-color="#95A6B8"/></linearGradient><linearGradient id="g" x1="239.516" y1="2.543" x2="212.264" y2="51.014" gradientUnits="userSpaceOnUse"><stop stop-color="#9CB8C6"/><stop offset=".4" stop-color="#80949F"/><stop offset=".78" stop-color="#6B7781"/><stop offset="1" stop-color="#636D76"/></linearGradient><linearGradient id="h" x1="239.516" y1="2.543" x2="212.264" y2="51.014" gradientUnits="userSpaceOnUse"><stop stop-color="#9CB8C6"/><stop offset=".4" stop-color="#80949F"/><stop offset=".78" stop-color="#6B7781"/><stop offset="1" stop-color="#636D76"/></linearGradient><linearGradient id="i" x1="235.854" y1="10.712" x2="205.73" y2="44.356" gradientUnits="userSpaceOnUse"><stop stop-color="#9CB8C6"/><stop offset="1" stop-color="#636D76"/></linearGradient><linearGradient id="j" x1="184.207" y1="18.47" x2="192.129" y2="24.502" gradientUnits="userSpaceOnUse"><stop stop-color="#9CB8C6"/><stop offset=".4" stop-color="#80949F"/><stop offset=".78" stop-color="#6B7781"/><stop offset="1" stop-color="#636D76"/></linearGradient><linearGradient id="k" x1="88.193" y1="113.606" x2="130.075" y2="106.629" gradientUnits="userSpaceOnUse"><stop stop-color="#9CB8C6"/><stop offset=".4" stop-color="#80949F"/><stop offset=".78" stop-color="#6B7781"/><stop offset="1" stop-color="#636D76"/></linearGradient><linearGradient id="l" x1="97.35" y1="110.905" x2="135.273" y2="110.905" gradientUnits="userSpaceOnUse"><stop stop-color="#9CB8C6"/><stop offset=".4" stop-color="#80949F"/><stop offset=".78" stop-color="#6B7781"/><stop offset="1" stop-color="#636D76"/></linearGradient><clipPath id="a"><path fill="#fff" transform="translate(95 60)" d="M0 0h48v106H0z"/></clipPath><clipPath id="b"><path fill="#fff" d="M0 0h259v131H0z"/></clipPath></defs><g clip-path="url(#a)"><path d="M135.572 138.679c.083-1.388-.768-2.612-2.022-3.668l-2.041-.302c-4.669 3.558-18.399 6.748-19.269 6.298-.076-.038-.228.021-.426.147l.83 4.808s11.353-.326 12.93-.39c3.413-.134 9.699-1.842 10.001-6.891l-.003-.002Z" fill="#3C80D3" style="mix-blend-mode:multiply" opacity=".15"/><path d="M138.791 99.283s-2.712-3.928-5.372-2.183c-3.018 1.978-3.997 6.317-2.222 11.415 1.775 5.1 5.861-.433 5.861-.433s2.647-1.993 1.733-8.8Z" fill="#ED9991"/><path d="M120.394 98.302c2.17 1.367 7.55-1.053 9.817-2.273 1.277-.69 1.86-1.65 1.739-2.612-1.059-.74-1.906-1.283-2.072-1.396a22.319 22.319 0 0 0-3.523-1.78c-1.431-.035-2.871.242-3.992.842-2.266 1.22-4.139 5.852-1.969 7.219Z" fill="#fff"/><path d="M130.623 136.672Z" fill="#965F7E" style="mix-blend-mode:multiply" opacity=".15"/><path d="M115.704 124.892c-.234.932.521 2.452 1.378 3.405a8.331 8.331 0 0 0 1.809 1.493c.72.458 1.509.829 2.339 1.142 3.075 1.137 5.509 3.024 8.044 2 .253-.098.435.512.656.388.017-.008 1.1.676 1.117.661 1.433-.776 4.561 4.638 4.527 3.452-.008-.481-3.14-14.624-2.997-16.276.296-3.463 4.004-13.294 4.004-13.294.671-2.395 1.336-5.518 1.427-5.817.144-.437.243-1.446.245-1.463.141-1.563-1.467-3.262-1.754-3.573-1.007-1.056-3.012-2.522-4.553-3.59-1.059-.74-1.906-1.284-2.073-1.397a22.317 22.317 0 0 0-3.522-1.78c-1.628-.661-3.261-1.12-4.631-1.288-1.041.405-2.358 1.053-3.943 2.705-1.125 1.188-2.113 2.631-2.691 4.459a42.075 42.075 0 0 0-.921 7.55c-.223 6.554 4.125 10.978 1.535 21.225l.004-.002Z" fill="#4077C6"/><path d="m106.069 123.449-4.439 3.008c-2.607 1.768-6.938 6.627-6.613 9.78l.654 3.184c.072.703 1.744 2.432 2.288 2.876l21.699 14.337a2.609 2.609 0 0 0 3.256.034 2.675 2.675 0 0 0 .465-3.74l-13.359-17.23" fill="#FFA89C"/><path d="M119.421 152.41s.11.69-3.58 2.844c-1.927 1.124-4.175 2.927-3.307 4.866 1.051 2.345 4.517.727 6.328-.73 1.716-1.381 2.081-1.722 3.005-2.394 2.423-1.759 2.221-3.435 1.037-4.778 0 0-.809.616-1.311.806-1.127.426-2.417.006-2.172-.614Z" fill="#32425B"/><path d="M121.471 89.62c-6.512-6.215-12.251-8.267-12.251-8.267l-.015-.031c-.538.083-.981.6-1.418.89-.391.259-.889.436-1.212.785-.536.585-1.249 1.63-1.178 2.493 1.957 2.102 10.563 10.369 14.022 11.93 1.368.618 2.59.253 3.223-1.52a.075.075 0 0 0 .015-.035c.661-1.906.758-4.394-1.182-6.247l-.004.002Z" fill="#FFA89C"/><path d="M123.71 124.476c-2.014-.405-11.389-1.782-16.624-1.658l-1.11 12.95s11.858 2.329 13.413 2.286c1.554-.043 8.659 1.207 10.47-3.535 1.813-4.74-6.149-10.043-6.149-10.043Z" fill="#32425B"/><path d="m108.131 124.005-2.698 5.789s9.904 4.917 11.844 5.518c1.904-.601 3.442-1.141 3.56-1.252.311-.29 1.719-2.78.471-4.39-1.247-1.609-6.089-1.605-12.901-5.867l-.274.202h-.002Z" fill="#3C80D3" style="mix-blend-mode:multiply" opacity=".15"/><path d="M109.053 129.408c-.316 3.507-1.807 6.271-3.331 6.173-1.523-.098-2.503-3.02-2.186-6.527.316-3.507 1.807-6.271 3.331-6.173 1.523.099 2.503 3.02 2.186 6.527Z" fill="#FFA89C"/><path d="M124.031 130.674c-2.098.052-8.561.879-13.654 2.162l2.264 13.124s11.354-.326 12.931-.39c3.413-.135 9.698-1.842 10-6.894.302-5.051-11.541-8.004-11.541-8.004v.002Z" fill="#32425B"/><path d="M115.451 138.809c.789 3.516-.281 6.641-2.387 6.978-2.107.337-4.456-2.239-5.246-5.757-.789-3.516.281-6.641 2.388-6.978 2.106-.337 4.455 2.239 5.245 5.757Z" fill="#FFA89C"/><path d="M138.198 99.688c-.338-1.267-1.425-2.43-1.657-2.684-1.011-1.06-3.022-2.534-4.57-3.604-1.061-.742-1.912-1.288-2.079-1.4a22.38 22.38 0 0 0-3.535-1.787c-1.634-.663-3.274-1.124-4.648-1.295-1.045.408-2.366 1.058-3.957 2.717-1.13 1.192-2.12 2.641-2.702 4.473a41.733 41.733 0 0 0-.783 5.245c.612 1.196 1.714 2.324 3.33 3.269 5.229 3.049 13.733 3.034 18.993-.034.762-.444 1.285-2.209 1.608-4.9Z" fill="#EDF3FC"/><path d="M136.586 107.86c.057-.202.114-.411.168-.622-1.697-1.593-4.455-3.557-6.154-1.465-5.117 6.301-.91 20.981-4.302 26.089 1.526.019 2.982-.196 4.185-.682.254-.098.492-.205.716-.326.017-.009.034-.015.051-.032 1.433-.776 2.119-1.887 2.085-3.073-.008-.482-.899-4.942-.754-6.595.296-3.462 4.005-13.294 4.005-13.294Z" fill="#3C80D3" style="mix-blend-mode:multiply" opacity=".15"/><path d="M121.405 97.428c1.712 1.079 5.961-.832 7.753-1.795 1.792-.964 1.857-2.619.145-3.698-1.711-1.078-4.55-1.172-6.342-.209-1.792.964-3.268 4.625-1.556 5.702Z" fill="#ED9991"/><path d="M126.095 84.168a2.185 2.185 0 0 1 2.242-1.247 2.198 2.198 0 0 1 1.897 2.458s-.757 7.573-.755 7.776c.004.51-.325 1.017-.997 1.4-1.327.762-3.465.75-4.774-.027-.682-.405-1.001-.934-.965-1.458.017-.245 3.352-8.902 3.352-8.902Z" fill="#ED9991"/><path d="M133.284 83.368c-1.828 7.535-9.388 8.256-10.868 7.689-2.056-.789-2.37-5.37-1.427-10.16.944-4.79 4.462-8.119 7.856-7.437 3.394.683 5.59 5.166 4.439 9.91v-.002Z" fill="#FFA89C"/><path d="M122.881 74.232c-2.837 1.578-4.935 5.365-1.36 6.706 6.214 2.332 9.074 1.115 8.648 5.814-.087.949-.222 2.113-.222 2.113s1.946-.544 4.285-4.776c1.184-2.145 1.452-4.24 1.159-6.062-.289-1.788-2.134-2.006-2.134-2.006s-.226-3.058-3.909-3.369c-1.896-.16-4.103.265-6.467 1.58Z" fill="#704B54"/><path d="M104.382 67.942a61.262 61.262 0 0 1 1.697 3.57 85.62 85.62 0 0 1 1.495 3.628c.485 1.214.918 2.442 1.355 3.668.401 1.236.709 2.5.654 3.87-.074 1.79-1.572 3.183-3.345 3.108a3.233 3.233 0 0 1-2.525-1.42c-.762-1.132-1.159-2.37-1.463-3.637-.268-1.275-.54-2.55-.762-3.838a87.192 87.192 0 0 1-.622-3.878 60.046 60.046 0 0 1-.42-3.936 2.103 2.103 0 0 1 1.927-2.267 2.092 2.092 0 0 1 2.016 1.132h-.007Z" fill="#FFA89C"/><path d="M142.065 107.232c.523-1.359 1.14-3.572.481-5.052-2.003-1.55-3.681-2.82-3.911-2.919a5.456 5.456 0 0 0-.908-.292c-2.034-.481-4.633-.017-6.224 1.192a.068.068 0 0 0-.028.024c-1.475 1.143-.795 3.027-.458 3.546 1.149 1.754 5.26 3.788 8.897 5.663.916-.278 1.678-.93 2.151-2.162Z" fill="#ED9991"/><path d="M139.809 109.816c3.005 1.744 4.903-11.557.96-21.365-3.941-9.807-3.462-.098-3.941 2.429-.287 1.505-1.838 7.463-1.009 12.309.562 3.275 2.168 5.569 3.99 6.627ZM104.11 68.1c.27-4.234-2.13-7.874-4.021-8.091-1.891-.218-3.438 4.272-3.413 4.174.025-.1-.097 2.207.694 2.41 0 0 .593-.715.889-.676.817.102 1.25 1.452 1.841 3.499.662 2.292 4.01-1.314 4.01-1.314V68.1Zm5.002 65.44-4.439 3.009c-2.606 1.767-2.879 3.138-2.554 6.294l.393 3.793a2.66 2.66 0 0 0 .965 1.791l21.782 11.128c.948.771-.289 4.264.674 3.513l2.583-3.479a2.675 2.675 0 0 0 .465-3.74l-15.917-10.06" fill="#FFA89C"/><path d="M123.305 158.702c-.792.727 1.049-.998-1.02 1.01-1.604 1.559-3.392 3.823-2.104 5.506 1.56 2.036 4.561-.348 5.99-2.188 1.353-1.746 1.63-2.162 2.377-3.03 1.954-2.279 1.146-3.595-.315-4.625 0 0-.415.523-.863.826-1 .678-4.162 3.162-4.067 2.503l.002-.002Z" fill="#32425B"/></g><g clip-path="url(#b)"><path d="M.17 122.708c-2.329 4.685 19.438 15.061 63.213 1.77 22.41-6.803 48.301-23.716 81.996-42.837 33.696-19.12 68.052-43.71 76.216-52.273 8.163-8.56-.707-11.836-9.364-11.614-8.657.223-35.972 1.952-76.783 14.968-14.824 4.728-50.674 22.284-82.08 42.56-3.7 2.39-7.48 3.03-11.017 5.478-5.092 3.526-9.83 8.885-14.368 12.45C14.905 103.482 4.643 113.708.17 122.708Z" fill="url(#c)"/><path d="M224.686 22.381c-.031 0-12.967.348-29.168 3.333-16.219 2.987-39.554 22.604-48.437 30.81-8.883 8.208-22.793 26.139-32.806 32.786-10.014 6.648-26.782 16.098-27.793 19.681-1.01 3.581-.914 3.181-1.01 3.581-.231.978 12.86-6.361 28.184-13.59 16.713-7.885 50.798-27.793 57.367-35.025 6.57-7.232 19.046-15.842 27.152-19.744 3.259-1.57 7.96-3.225 12.507-5.521 5.044-3.913 8.831-7.14 10.914-9.322a17.695 17.695 0 0 0 1.847-2.252 15.681 15.681 0 0 0 1.244-4.734v-.001l-.001-.002Z" fill="url(#d)"/><path d="M27.982 93.21C15.409 103.087 5.436 112.922.71 121.666c9.219 4.432 38.752-4.123 57.435-14.685C81.23 93.933 177.381 32.489 181.53 26.529c2.026-2.91-2.133-4.04-10.547-3.298-10.281 2.184-22.186 5.234-35.535 9.49-14.825 4.73-50.674 22.285-82.08 42.561-3.701 2.39-7.481 3.03-11.018 5.478-.484.353-.965.702-1.441 1.052-4.55 3.475-8.82 8.172-12.928 11.397l.002.001Z" fill="url(#e)"/><path d="M.71 121.666s26.275-33.59 60.26-43.368c33.984-9.777 15.627 14.084.91 23.042-14.716 8.957-41.328 23.972-61.168 20.326H.711Z" fill="url(#f)"/><path d="M108.866 101.35c-7.19 4.448-13.194 7.65-21.235 11.363-8.041 3.711-15.305 5.274-28.79 6.164-13.487.891-20.02 4.571-28.267 8.079-8.247 3.51-13.738 3.397-13.738 3.397s.111.109.333.302c10.62 1.041 26.09-.068 46.215-6.177 18.892-5.736 40.262-18.658 66.696-34.03-.512.092-1.076.118-1.59.358-10.454 4.915-12.435 6.094-19.624 10.544Z" fill="#C0D6DD"/><path d="M213.933 17.757s-2.72.028-10.814.53c-.697-1.57 1.949-5.546 2.995-7.33 4.938-8.43 2.056-10.871 2.689-10.91 4.475-.282 12.623.562 16.795 5.75 5.656 7.036 3.097 8.542 3.097 8.542s8.249.342 12.519 3.405c4.27 3.064 6.39 4.645 10.104 5.627 3.665.969 7.682 1.376 7.682 1.376s-5.641 9.404-17.684 10.425c-7.361.624-15.484-.675-22.063-3.55 1.909-3.684 5.571-5.273 5.433-9.242-1.426-2.08-2.666-4.128-10.753-4.624v.001Z" fill="url(#g)"/><path d="M213.933 17.757s-2.72.028-10.814.53c-.697-1.57 1.949-5.546 2.995-7.33 4.938-8.43 2.056-10.871 2.689-10.91 4.475-.282 12.623.562 16.795 5.75 5.656 7.036 3.097 8.542 3.097 8.542s8.249.342 12.519 3.405c4.27 3.064 6.39 4.645 10.104 5.627 3.665.969 7.682 1.376 7.682 1.376s-5.641 9.404-17.684 10.425c-7.361.624-15.484-.675-22.063-3.55 1.909-3.684 5.571-5.273 5.433-9.242-1.426-2.08-2.666-4.128-10.753-4.624v.001Z" fill="url(#h)"/><path d="M259 24.748s-4.017-.408-7.681-1.376a23.21 23.21 0 0 1-.686-.193c-7.288-.948-18.032-7.95-19.987-8.304-1.956-.357-9.269 2.224-9.269 2.224l1.975-.944c1.975-.944 5.343-1.813 5.816-2.522.04-.124.071-.269.088-.434.012-.47-.112-1.242-.393-2.195-.478-1.253-1.448-2.942-3.265-5.203C221.588.81 213.903-.162 209.34.02l1.175 2.486c1.174 2.486-.45 6.05-1.796 9.518-1.347 3.47 1.796 5.638 1.796 5.638l.436.197c2.14-.094 2.984-.103 2.984-.103 5.742.352 8.031 1.487 9.388 2.86 2.074.398 3.734.868 3.893 1.373.449 1.423-.36 3.38 1.257 4.804 1.617 1.423 8.036 4.226 20.472 3.7 3.215-.136 6.466-2.12 8.703-3.911.908-1.09 1.353-1.833 1.353-1.833l-.001-.002Z" fill="url(#i)"/><path d="M.17 122.708c.215.836.707 1.577 1.31 2.178.303.302.64.57.999.802.36.231.745.423 1.137.591.794.321 1.633.525 2.483.636.85.113 1.712.131 2.57.103a22.528 22.528 0 0 0 2.572-.244l1.284-.183 1.28-.214.64-.107.638-.121 1.275-.241c.848-.179 1.697-.347 2.542-.538 6.764-1.498 13.439-3.399 20.054-5.461.826-.258 1.65-.526 2.475-.792a232.43 232.43 0 0 1 2.476-.808 84.849 84.849 0 0 1 5.021-1.441 72.553 72.553 0 0 1 10.281-1.854c3.465-.376 6.95-.467 10.418-.545 1.734-.048 3.468-.105 5.196-.26a39.036 39.036 0 0 0 5.14-.78c-1.68.439-3.394.754-5.123.944-1.728.201-3.466.303-5.2.396-1.735.091-3.47.162-5.2.273a93 93 0 0 0-5.172.472c-3.438.41-6.836 1.085-10.18 1.96a83.256 83.256 0 0 0-4.972 1.472l-2.468.819c-.827.27-1.651.541-2.479.803a231.11 231.11 0 0 1-10 2.945c-1.677.452-3.36.89-5.052 1.292l-1.268.303-1.273.289c-.846.197-1.699.371-2.55.55-.851.177-1.707.332-2.562.495l-1.287.22-.642.11-.646.097-1.292.189-1.299.153c-.861.113-1.742.172-2.618.183a14.79 14.79 0 0 1-2.623-.186 10.328 10.328 0 0 1-2.523-.739 7.806 7.806 0 0 1-1.144-.646 6.234 6.234 0 0 1-.993-.855 5.346 5.346 0 0 1-.768-1.051 4.181 4.181 0 0 1-.46-1.206l.002-.003Z" fill="#666"/><path d="M182.095 24.215s8.72-7.672 9.921-6.828c1.202.844.988 3.81 2.604 3.516 1.617-.293 1.936.134 2.599 0 .663-.133-6.776 3.31-15.125 3.31l.001.002Z" fill="url(#j)"/><path d="M62.798 113.219c.14.445.984.58 1.882.301.899-.279 1.515-.866 1.374-1.311-.14-.446-.984-.581-1.883-.302-.898.279-1.514.867-1.373 1.312Z" fill="#1A1A1A"/><path d="M62.394 112.427c.044-.169.145-.313.239-.455.1-.138.211-.271.334-.392.247-.241.537-.449.871-.587a2.592 2.592 0 0 1 1.036-.212c.18.003.36.034.532.098.164.069.328.166.42.314-.311-.143-.628-.131-.931-.081a4.211 4.211 0 0 0-.894.271 4.8 4.8 0 0 0-.822.451c-.133.09-.268.182-.398.28-.133.099-.268.195-.39.312l.003.001Z" fill="#666"/><path d="M64.845 112.223c0 .212.174.384.388.384a.386.386 0 0 0 .389-.384.386.386 0 0 0-.389-.385.386.386 0 0 0-.388.385Z" fill="#fff"/><path d="M38.179 123.682c3.147-1.203 6.399-2.133 9.695-2.856.41-.097.825-.176 1.24-.258.415-.079.828-.166 1.244-.234.833-.132 1.665-.282 2.506-.377 1.673-.237 3.361-.348 5.052-.419l1.268.003h.635l.63.014 1.264.025 1.262.009c.842.01 1.684-.006 2.527-.01.842-.018 1.684-.028 2.526-.054a135.06 135.06 0 0 0 5.048-.229c1.682-.103 3.361-.237 5.038-.419a61.92 61.92 0 0 1-2.51.314c-.838.092-1.678.17-2.518.243-1.681.136-3.366.237-5.051.308-1.685.079-3.373.1-5.061.103l-1.266-.003-1.265-.019-.633-.01h-.63l-1.26.005c-1.678.061-3.358.164-5.025.391-.836.091-1.665.236-2.496.363-.415.065-.827.152-1.241.224-.414.075-.828.148-1.239.238l-1.235.258-1.23.286c-.411.092-.816.202-1.226.305l-.611.156-.61.166a69.769 69.769 0 0 0-4.828 1.477Zm-3.025 2.42a82.55 82.55 0 0 1 8.764-2.46c.74-.172 1.487-.312 2.234-.456l1.125-.188c.187-.029.375-.064.563-.09l.566-.074.566-.075.283-.037.284-.026 1.138-.105c.762-.035 1.524-.081 2.289-.043.768.011 1.513.084 2.272.091.379.006.757.021 1.135.02l1.136-.003c1.516-.018 3.03-.086 4.545-.156 1.514-.079 3.027-.183 4.54-.306a191.27 191.27 0 0 0 4.535-.402 131.75 131.75 0 0 1-4.522.54c-1.511.149-3.024.278-4.539.383a94.763 94.763 0 0 1-4.554.198l-1.14.008c-.38.004-.762-.008-1.141-.013-.758-.002-1.528-.072-2.277-.079-.752-.042-1.506 0-2.26.031l-1.13.098-.283.024-.282.035-.563.07-.563.071c-.187.024-.374.057-.56.086l-1.12.18c-.744.142-1.49.269-2.232.427-1.484.301-2.96.649-4.428 1.031-1.468.374-2.93.781-4.382 1.219l.001.001Zm-5.062 2.294c1.2-.344 2.415-.637 3.632-.917a80.214 80.214 0 0 1 3.677-.728 55.76 55.76 0 0 1 3.714-.532c.622-.076 1.246-.122 1.869-.179.624-.038 1.251-.081 1.874-.101 2.495-.083 4.992-.178 7.488-.248l3.746-.101c1.248-.024 2.497-.057 3.745-.072-1.247.079-2.494.139-3.741.21l-3.741.179c-2.495.115-4.99.208-7.486.312-.625.016-1.245.057-1.867.089-.62.052-1.241.095-1.86.166-.62.061-1.237.143-1.855.222-.618.09-1.235.17-1.85.269a88.56 88.56 0 0 0-3.685.649c-1.226.234-2.444.5-3.66.782Zm-5.085 1.957c.993-.185 1.988-.347 2.982-.516l2.99-.468c.997-.156 1.997-.287 2.998-.424 1.001-.132 2-.263 3.005-.379 1.004-.11 2.009-.21 3.02-.27.506-.034 1.01-.047 1.514-.065a76.65 76.65 0 0 1 1.513-.038c1.01-.017 2.018-.03 3.028-.034 1.01.004 2.017.003 3.027.027l-3.025.111c-1.008.034-2.016.069-3.023.113-1.006.051-2.016.075-3.019.142a63.622 63.622 0 0 0-3.004.295c-2.004.215-4.003.481-6.002.738l-3 .389-3.002.38-.002-.001Zm39.838-13.437a91.939 91.939 0 0 0 3.109-.113 84.503 84.503 0 0 0 3.101-.205c2.063-.171 4.124-.406 6.156-.784.51-.082 1.014-.197 1.52-.3.254-.048.502-.117.754-.179l.75-.19c.999-.278 1.991-.571 2.982-.868.99-.302 1.975-.62 2.95-.967.978-.341 1.949-.704 2.889-1.139-1.839.961-3.807 1.652-5.772 2.312-.984.331-1.982.618-2.978.908l-.755.198c-.251.063-.503.136-.758.186-.509.108-1.015.229-1.528.314l-.77.134-.772.112c-.513.081-1.03.139-1.547.201-.516.064-1.034.105-1.55.16a50.41 50.41 0 0 1-1.554.114 80.835 80.835 0 0 1-3.113.127 59.881 59.881 0 0 1-3.114-.024v.003Z" fill="#666"/><path d="M87.638 111.675s9.474 3.587 21.754 4.97c9.28 1.046 17.083-1.2 20.344-2.36.512-.181.475-.91-.053-1.041-2.528-.625-7.291-1.889-9.986-3.133-3.95-1.824-9.001-2.18-13.043-5.294-4.039-3.114-19.381-.387-19.017 6.858h.001Z" fill="url(#k)"/><path d="M209.841 38.094a39.24 39.24 0 0 0-2.803.967 53.69 53.69 0 0 0-1.381.54c-.461.18-.914.374-1.371.564-.458.188-.91.385-1.363.58-.454.195-.908.393-1.357.598l-1.349.61-1.341.63c-3.572 1.687-7.078 3.513-10.539 5.415-1.722.965-3.479 1.874-5.123 2.96-1.648 1.082-3.224 2.27-4.759 3.506a103.714 103.714 0 0 0-4.481 3.855 114.573 114.573 0 0 0-4.292 4.064 106.931 106.931 0 0 1 8.713-7.991c1.531-1.243 3.105-2.44 4.754-3.531 1.646-1.1 3.401-2.015 5.12-2.986 3.471-1.888 6.985-3.701 10.565-5.375l1.346-.624 1.353-.606c.451-.204.905-.399 1.36-.592.455-.194.907-.391 1.366-.575.46-.184.915-.374 1.378-.55.461-.178.922-.355 1.388-.523.929-.34 1.863-.667 2.816-.934v-.002ZM37.556 116.262a121.755 121.755 0 0 0 5.455-1.96 72.491 72.491 0 0 0 5.317-2.293 51.213 51.213 0 0 0 5.057-2.804c1.636-1.019 3.228-2.122 4.973-2.972 1.74-.852 3.596-1.458 5.48-1.899a51.918 51.918 0 0 1 2.845-.592c.954-.166 1.908-.321 2.86-.48a77.753 77.753 0 0 0 5.678-1.17c.936-.239 1.869-.49 2.788-.79a25.07 25.07 0 0 0 1.363-.486c.445-.185.895-.369 1.306-.623-.407.261-.853.452-1.296.644-.448.183-.9.354-1.358.509-.229.076-.458.156-.688.228l-.694.213c-.232.069-.466.129-.698.195-.233.065-.466.13-.701.186a77.259 77.259 0 0 1-5.678 1.202l-2.858.493c-.949.181-1.897.367-2.834.601-.471.107-.935.241-1.401.366-.46.139-.924.273-1.38.431-.914.307-1.81.666-2.675 1.088-1.737.837-3.33 1.933-4.973 2.947a51.184 51.184 0 0 1-5.077 2.791c-3.485 1.679-7.135 2.983-10.81 4.175h-.001Zm48.436-5.538a9.42 9.42 0 0 1 .722-1.47c.145-.232.283-.469.444-.693l.234-.338.25-.329a12.957 12.957 0 0 1 2.343-2.329c.874-.68 1.857-1.223 2.868-1.673a21.645 21.645 0 0 1 3.125-1.114 18.322 18.322 0 0 1 3.28-.548 27.88 27.88 0 0 1 1.66-.049l1.647.014c.274.004.542-.01.809-.025l.402-.045c.134-.016.268-.041.401-.061a15.388 15.388 0 0 0 1.592-.363 26.95 26.95 0 0 0 3.098-1.084 19.47 19.47 0 0 1-1.493.695c-.506.212-1.021.41-1.543.587a14.7 14.7 0 0 1-1.6.438c-.136.026-.271.06-.409.079l-.415.059c-.281.026-.561.048-.835.053-.552.017-1.101.018-1.648.025-.546.01-1.09.035-1.631.079a18.24 18.24 0 0 0-3.201.556c-1.05.274-2.075.646-3.074 1.073-.126.053-.254.103-.376.159l-.364.176c-.243.118-.49.228-.72.371l-.35.201a4.176 4.176 0 0 0-.346.211c-.223.151-.454.293-.673.453a13.61 13.61 0 0 0-2.38 2.196 12.462 12.462 0 0 0-1.812 2.7l-.005-.004Z" fill="#666"/><path d="M110.936 115.916c-9.644-1.129-14.905-3.266-17.33-4.868-2.424-1.602 4.94-5.481 9.698-5.378 4.758.102 9.607 4.135 17.33 6.091 7.721 1.955-.054 5.283-9.698 4.155Z" fill="url(#l)"/><path d="M62.394 74.839c3.636-2.675 7.378-5.198 11.14-7.696a422.81 422.81 0 0 1 11.45-7.242c3.866-2.338 7.763-4.626 11.724-6.814l2.97-1.639 2.999-1.592c1-.53 1.999-1.06 3.015-1.562l3.034-1.529.76-.379.767-.365 1.538-.727 1.537-.727.768-.364c.256-.122.512-.243.773-.355l3.12-1.366c.52-.227 1.038-.458 1.56-.68l1.571-.643 3.147-1.28 3.167-1.228c1.053-.415 2.119-.802 3.181-1.194 1.063-.387 2.124-.783 3.196-1.15 1.07-.374 2.138-.75 3.213-1.108 1.076-.354 2.151-.712 3.229-1.057l3.248-1c1.088-.317 2.173-.641 3.262-.951l1.641-.443a79.587 79.587 0 0 1 1.644-.432l1.646-.42c.549-.137 1.102-.262 1.654-.392 2.208-.506 4.424-.983 6.666-1.31-1.095.286-2.181.59-3.262.918l-.812.24-.809.248c-.539.166-1.079.33-1.614.506a229.5 229.5 0 0 0-6.414 2.14l-3.187 1.123-3.171 1.166-3.158 1.2c-1.053.4-2.096.824-3.146 1.228-4.182 1.666-8.352 3.36-12.476 5.163l-1.552.665c-.514.225-1.023.46-1.535.69l-3.066 1.386c-1.02.468-2.028.964-3.043 1.445l-1.52.725-.76.365-.753.38c-2.009 1.007-4.03 1.989-6.019 3.04l-2.998 1.545-2.98 1.586c-1.994 1.04-3.96 2.137-5.942 3.202-.992.53-1.97 1.09-2.957 1.63-.986.546-1.975 1.082-2.957 1.635-7.867 4.387-15.68 8.885-23.492 13.414l.003.005ZM94.55 110.23c1.152.267 2.303.502 3.453.733 1.15.231 2.299.455 3.448.676l3.449.653c.574.103 1.151.222 1.722.315.571.1 1.14.209 1.715.289 2.293.355 4.605.633 6.932.843 2.328.22 4.662.387 7.024.556-.583.112-1.17.192-1.757.26-.589.071-1.178.124-1.769.166a47.277 47.277 0 0 1-3.552.117 47.498 47.498 0 0 1-7.1-.551c-.589-.083-1.173-.203-1.759-.31-.295-.054-.582-.118-.87-.182l-.865-.19a68.036 68.036 0 0 1-3.434-.882 50.85 50.85 0 0 1-3.377-1.088 33.321 33.321 0 0 1-1.654-.649 18.346 18.346 0 0 1-1.607-.757v.001ZM209.713.81c.212.276.395.572.567.874.174.301.329.614.472.934.285.64.508 1.31.654 2.008.071.348.125.703.148 1.063.026.36.029.726-.008 1.091a5.632 5.632 0 0 1-.205 1.09c-.023.09-.057.18-.087.268-.03.089-.062.178-.102.264l-.113.256-.105.228c-.567 1.218-1.076 2.458-1.429 3.737-.173.64-.304 1.29-.355 1.949a5.99 5.99 0 0 0 .002.993c.015.166.04.331.079.496.035.165.084.328.16.483-.244-.253-.395-.586-.514-.918a4.826 4.826 0 0 1-.225-1.043 8.06 8.06 0 0 1 .077-2.122c.226-1.398.708-2.732 1.306-3.99l.113-.237.097-.213c.034-.069.059-.142.086-.214.027-.073.059-.144.078-.218a5.55 5.55 0 0 0 .212-.916 7.96 7.96 0 0 0 .027-1.935 13.547 13.547 0 0 0-.344-1.97 20.057 20.057 0 0 0-.588-1.96l-.003.002Zm22.09 27.719c2.115.398 4.224.725 6.337.982 1.056.13 2.114.227 3.171.317 1.058.073 2.117.145 3.175.163 2.117.062 4.237-.014 6.323-.317.259-.045.521-.084.777-.138.259-.046.516-.103.773-.16a15.58 15.58 0 0 0 1.515-.437c.249-.085.493-.182.736-.284.239-.108.48-.216.711-.342.232-.124.458-.262.674-.414.217-.152.424-.319.602-.519-.282.46-.704.823-1.138 1.147a8.59 8.59 0 0 1-1.409.829c-.988.468-2.036.8-3.101 1.037a23.763 23.763 0 0 1-3.228.482 31.86 31.86 0 0 1-3.254.097 37.376 37.376 0 0 1-7.246-.827c-.265-.058-.529-.109-.791-.172l-.786-.194-.782-.209c-1.037-.297-2.066-.621-3.059-1.043v.002Z" fill="#BDD6E0"/></g></svg>