<svg width="259" height="226" viewBox="0 0 259 226" fill="none" xmlns="http://www.w3.org/2000/svg">
    <defs>
        <linearGradient id="paint0_linear_217_429" x1="88.9692" y1="48.405" x2="152.761" y2="116.889" gradientUnits="userSpaceOnUse">
            <stop stop-color="#9CB8C6"/>
            <stop offset="1" stop-color="#636D76"/>
        </linearGradient>
        <linearGradient id="paint1_linear_217_429" x1="146.43" y1="57.3872" x2="172.564" y2="88.513" gradientUnits="userSpaceOnUse">
            <stop stop-color="#9CB8C6"/>
            <stop offset="1" stop-color="#636D76"/>
        </linearGradient>
        <linearGradient id="paint2_linear_217_429" x1="82.7565" y1="58.5961" x2="114.768" y2="114.107" gradientUnits="userSpaceOnUse">
            <stop stop-color="#9CB8C6"/>
            <stop offset="1" stop-color="#636D76"/>
        </linearGradient>
        <linearGradient id="paint3_linear_217_429" x1="33.6028" y1="95.4081" x2="64.2655" y2="115.743" gradientUnits="userSpaceOnUse">
            <stop stop-color="#9CB8C6"/>
            <stop offset="0.3" stop-color="#99B1C0"/>
            <stop offset="1" stop-color="#95A6B8"/>
        </linearGradient>
        <linearGradient id="paint4_linear_217_429" x1="239.516" y1="2.5432" x2="212.264" y2="51.014" gradientUnits="userSpaceOnUse">
            <stop stop-color="#9CB8C6"/>
            <stop offset="0.4" stop-color="#80949F"/>
            <stop offset="0.78" stop-color="#6B7781"/>
            <stop offset="1" stop-color="#636D76"/>
        </linearGradient>
        <linearGradient id="paint5_linear_217_429" x1="239.516" y1="2.5432" x2="212.264" y2="51.014" gradientUnits="userSpaceOnUse">
            <stop stop-color="#9CB8C6"/>
            <stop offset="0.4" stop-color="#80949F"/>
            <stop offset="0.78" stop-color="#6B7781"/>
            <stop offset="1" stop-color="#636D76"/>
        </linearGradient>
        <linearGradient id="paint6_linear_217_429" x1="235.854" y1="10.7124" x2="205.73" y2="44.3565" gradientUnits="userSpaceOnUse">
            <stop stop-color="#9CB8C6"/>
            <stop offset="1" stop-color="#636D76"/>
        </linearGradient>
        <linearGradient id="paint7_linear_217_429" x1="184.206" y1="18.4701" x2="192.129" y2="24.5015" gradientUnits="userSpaceOnUse">
            <stop stop-color="#9CB8C6"/>
            <stop offset="0.4" stop-color="#80949F"/>
            <stop offset="0.78" stop-color="#6B7781"/>
            <stop offset="1" stop-color="#636D76"/>
        </linearGradient>
        <linearGradient id="paint8_linear_217_429" x1="88.1927" y1="113.606" x2="130.075" y2="106.629" gradientUnits="userSpaceOnUse">
            <stop stop-color="#9CB8C6"/>
            <stop offset="0.4" stop-color="#80949F"/>
            <stop offset="0.78" stop-color="#6B7781"/>
            <stop offset="1" stop-color="#636D76"/>
        </linearGradient>
        <linearGradient id="paint9_linear_217_429" x1="97.3502" y1="110.905" x2="135.273" y2="110.905" gradientUnits="userSpaceOnUse">
            <stop stop-color="#9CB8C6"/>
            <stop offset="0.4" stop-color="#80949F"/>
            <stop offset="0.78" stop-color="#6B7781"/>
            <stop offset="1" stop-color="#636D76"/>
        </linearGradient>
        <clipPath id="clip0_217_429">
            <rect width="69" height="146" fill="white" transform="translate(92 80)"/>
        </clipPath>
        <clipPath id="clip1_217_429">
            <rect width="259" height="131" fill="white"/>
        </clipPath>
    </defs>
    <g clip-path="url(#clip0_217_429)">
        <path d="M117.971 110.991C111.15 104.488 105.139 102.342 105.139 102.342C105.139 102.342 105.126 102.315 105.123 102.308C104.56 102.395 104.095 102.938 103.638 103.241C103.229 103.511 102.707 103.696 102.369 104.062C101.807 104.673 101.06 105.766 101.135 106.67C103.185 108.869 112.198 117.518 115.822 119.151C117.254 119.798 118.534 119.417 119.198 117.561C119.204 117.554 119.211 117.538 119.213 117.525C119.905 115.531 120.007 112.927 117.975 110.989L117.971 110.991Z" fill="#FFA89C"/>
        <g style="mix-blend-mode:multiply" opacity="0.15">
            <path d="M127.208 223.488C121.428 226.854 112.03 226.837 106.216 223.45C100.401 220.064 100.372 214.587 106.149 211.221C111.928 207.854 121.327 207.872 127.141 211.259C132.956 214.645 132.984 220.122 127.208 223.488Z" fill="#3C80D3"/>
        </g>
        <path d="M153.054 177.314C153.054 177.314 153.592 177.725 153.076 181.999C152.807 184.23 152.23 187.15 154.286 187.614C156.777 188.174 157.728 184.718 157.662 182.38C157.6 180.163 157.136 178.84 157.562 177.778C158.688 174.983 156.773 174.235 154.995 174.385C154.995 174.385 154.995 175.409 154.845 175.929C154.505 177.095 153.397 177.885 153.052 177.314H153.054Z" fill="#F3EDFF"/>
        <g style="mix-blend-mode:multiply" opacity="0.15">
            <path d="M158.747 196.711C155.729 198.469 150.819 198.46 147.781 196.691C144.744 194.922 144.728 192.062 147.748 190.304C150.766 188.546 155.676 188.555 158.714 190.324C161.752 192.093 161.767 194.953 158.749 196.711H158.747Z" fill="#3C80D3"/>
        </g>
        <path d="M152.238 177.191C152.238 177.191 152.791 177.615 152.261 182.014C151.984 184.312 151.635 187.188 153.753 187.665C156.317 188.243 157.047 184.814 156.981 182.405C156.917 180.123 156.439 178.762 156.879 177.666C158.035 174.791 156.065 174.021 154.237 174.175C154.237 174.175 154.237 175.228 154.082 175.764C153.733 176.966 152.59 177.778 152.236 177.191H152.238Z" fill="#A7BAD6"/>
        <path d="M120.96 155.615C121.599 157.625 122.386 159.572 123.206 161.506C123.626 162.468 124.039 163.434 124.493 164.382C124.93 165.337 125.381 166.285 125.857 167.224C126.772 169.116 127.756 170.978 128.839 172.797C129.942 174.608 131.076 176.406 132.465 178.093L133.057 178.813C133.977 179.931 135.266 180.578 136.595 180.723C138.032 180.874 139.458 180.738 140.879 180.517C142.301 180.279 143.718 179.966 145.137 179.663C146.554 179.351 147.974 179.016 149.389 178.646C150.804 178.278 152.219 177.867 153.631 177.414C154.569 177.113 155.086 176.103 154.785 175.157C154.589 174.532 154.08 174.093 153.49 173.952C152.046 173.615 150.602 173.323 149.161 173.071C147.719 172.819 146.28 172.6 144.841 172.406C143.402 172.219 141.965 172.025 140.528 171.902C139.093 171.799 137.66 171.779 136.241 172.049L140.371 174.679C140.121 172.5 139.619 170.432 139.084 168.375C138.529 166.327 137.877 164.324 137.154 162.347C136.811 161.352 136.442 160.366 136.062 159.389C135.697 158.403 135.292 157.435 134.892 156.462C134.074 154.528 133.225 152.607 132.226 150.751C130.603 147.737 126.867 146.62 123.88 148.257C121.238 149.705 120.069 152.826 120.955 155.612L120.96 155.615Z" fill="#FFA89C"/>
        <path d="M121.022 146.856C123.252 143.833 130.358 146.013 133.356 147.981C136.352 149.948 140.742 170.691 140.742 170.691L140.725 170.708C141.341 171.3 141.556 172.304 141.213 173.573C140.543 176.042 138.025 178.565 135.587 179.21C134.426 179.518 133.497 179.34 132.909 178.804L132.87 178.847C132.87 178.847 125.762 169.073 122.209 160.567C118.656 152.059 119.792 148.527 121.024 146.856H121.022Z" fill="#4077C6"/>
        <g style="mix-blend-mode:multiply" opacity="0.15">
            <path d="M132.867 178.849C132.867 178.849 125.76 169.075 122.207 160.569C118.654 152.061 119.79 148.529 121.022 146.858C121.773 145.841 123.082 145.422 124.594 145.377L128.059 154.698C131.799 162.162 136.993 173.394 138.801 177.325C137.835 178.224 136.703 178.918 135.584 179.212C134.424 179.52 133.495 179.342 132.907 178.806L132.867 178.849Z" fill="#3E6593"/>
        </g>
        <path d="M117.188 209.96C117.21 202.891 117.694 187.719 119.162 180.776C120.511 176.196 123.078 165.863 126.836 158.814C122.388 156.69 121.066 150.767 121.535 148.427C121.535 148.427 138.613 145.152 139.031 145.837C139.438 146.504 140.046 151.298 140.145 153.781C140.736 160.032 134.156 172.872 132.131 175.857C128.611 181.048 125.972 183.792 126.365 190.124C126.558 193.213 122.472 207.12 121.015 211.009C118.702 217.184 117.175 212.778 117.184 209.958L117.188 209.96Z" fill="#FFA89C"/>
        <path d="M117.712 183.819C117.712 183.819 119.821 172.538 123.208 164.471C123.745 163.193 124.986 160.54 125.381 159.791C125.381 159.791 120.951 156.121 121.53 149.35C122.109 142.577 139.117 146.731 139.564 147.682C140.01 148.632 141.752 156.73 138.127 165.495C136.82 168.654 128.419 183.955 128.419 183.955H128.395C128.395 184.769 127.851 185.575 126.761 186.166C124.641 187.315 121.274 187.214 119.24 185.943C118.271 185.338 117.787 184.575 117.767 183.819H117.712Z" fill="#4077C6"/>
        <g style="mix-blend-mode:multiply" opacity="0.15">
            <path d="M117.765 183.819H117.71C117.71 183.819 119.819 172.536 123.206 164.471C123.743 163.193 124.983 160.54 125.379 159.791C125.379 159.791 120.949 156.121 121.528 149.35C121.749 146.76 124.375 145.772 127.557 145.587L135.445 151.485C136.338 155.188 124.535 184.011 123.94 186.813C123.931 186.855 123.916 186.896 123.904 186.938C122.244 187.061 120.489 186.726 119.237 185.943C118.269 185.338 117.785 184.575 117.765 183.819Z" fill="#3E6593"/>
        </g>
        <path d="M117.237 210.605C117.237 210.605 115.786 212.486 111.688 215.035C109.766 216.229 108.951 218.159 109.466 219.162C110.085 220.374 114.1 220.787 115.731 218.611C117.626 216.084 117.809 216.419 118.778 216.026C120.009 215.526 121.559 215.343 121.019 211.792C121.019 211.792 120.542 212.352 119.624 212.274C118.61 212.187 117.148 211.424 117.237 210.607V210.605Z" fill="#E1E4FF"/>
        <path d="M117.237 209.824C117.237 209.824 115.786 211.705 111.688 214.255C109.766 215.448 108.951 217.378 109.466 218.382C110.085 219.593 114.1 220.006 115.731 217.831C117.626 215.303 117.809 215.638 118.778 215.245C120.009 214.745 121.559 214.562 121.019 211.011C121.019 211.011 120.542 211.571 119.624 211.493C118.61 211.406 117.148 210.643 117.237 209.826V209.824Z" fill="#A7BAD6"/>
        <path d="M130.696 143.325C133.057 143.325 135.257 143.858 136.893 144.824C138.354 145.687 139.159 146.78 139.159 147.896C139.159 149.025 138.339 150.133 136.851 151.012C135.189 151.996 132.962 152.536 130.581 152.536C128.2 152.536 126.02 152.003 124.386 151.037C122.925 150.174 122.12 149.08 122.12 147.965C122.12 146.85 122.941 145.727 124.428 144.848C126.091 143.867 128.317 143.325 130.698 143.325H130.696ZM130.696 142.279C128.24 142.279 125.781 142.834 123.902 143.947C120.159 146.162 120.139 149.741 123.86 151.943C125.713 153.038 128.145 153.587 130.579 153.587C133.013 153.587 135.494 153.031 137.373 151.918C141.116 149.703 141.136 146.125 137.415 143.923C135.562 142.827 133.13 142.279 130.694 142.279H130.696Z" fill="white"/>
        <path d="M116.454 125.964C116.952 130.538 119.941 142.147 121.267 147.349V147.369C121.36 147.746 121.455 148.103 121.526 148.407C121.526 148.407 121.537 148.418 121.537 148.427C121.941 149.368 122.77 150.258 124.026 150.992C127.74 153.149 133.776 153.138 137.51 150.961C139.387 149.861 140.331 148.438 140.331 147.003C140.331 146.919 140.331 146.825 140.32 146.742C137.278 139.229 139.823 126.877 139.823 126.877C140.154 124.354 140.362 121.088 140.415 120.764C140.499 120.305 140.457 119.267 140.457 119.247C140.375 117.646 138.487 116.149 138.145 115.899C136.164 114.339 131.163 112.037 130.696 111.828C127.76 110.529 124.141 109.806 121.641 109.934C120.955 109.704 120.106 109.809 119.337 110.435C117.438 111.952 116.702 114.203 116.516 115.805C116.215 118.234 115.977 121.563 116.454 125.969V125.964Z" fill="#EDF3FC"/>
        <g style="mix-blend-mode:multiply" opacity="0.15">
            <path d="M116.374 117.115C117.705 119.089 119.587 123.203 131.545 124.394C135.677 124.804 133.429 145.87 135.843 151.728C132.151 153.091 127.23 152.853 124.026 150.992C122.77 150.261 121.941 149.37 121.537 148.427C121.537 148.416 121.526 148.407 121.526 148.407C121.453 148.103 121.36 147.746 121.267 147.369V147.349C119.94 142.147 116.951 130.54 116.454 125.964C116.056 122.299 116.158 119.39 116.374 117.112V117.115Z" fill="#3E6593"/>
        </g>
        <path d="M125.768 123.972C120.953 122.66 117.96 120.61 116.114 118.522C116.178 117.509 116.266 116.59 116.368 115.783C116.556 114.161 117.303 111.883 119.224 110.346C120 109.71 120.862 109.606 121.554 109.838C124.086 109.71 127.749 110.442 130.723 111.756C131.196 111.968 136.256 114.299 138.264 115.879C138.611 116.133 140.521 117.648 140.605 119.27C140.605 119.292 140.647 120.34 140.563 120.807C140.534 120.992 140.455 122.123 140.329 123.531C137.143 124.836 132.292 125.75 125.766 123.972H125.768Z" fill="#4077C6"/>
        <path d="M125.704 104.426C125.978 103.52 126.805 102.848 127.796 102.826C129.031 102.799 130.055 103.788 130.082 105.035C130.082 105.035 130.422 112.825 130.455 113.03C130.535 113.545 130.276 114.11 129.65 114.6C128.415 115.571 126.244 115.879 124.8 115.288C124.048 114.98 123.648 114.489 123.608 113.953C123.588 113.701 125.704 104.428 125.704 104.428V104.426Z" fill="#EA8C8C"/>
        <path d="M131.461 101.659C131.437 104.069 130.9 105.827 130.017 107.408C129.927 107.571 129.847 108.744 129.102 109.369C126.367 111.66 124.015 112.115 123.454 112.102C123.144 112.093 122.355 111.885 122.096 111.687C120.495 110.451 119.271 106.291 119.131 102.079C118.972 97.2801 121.603 93.2958 125.01 93.1798C128.415 93.0638 131.512 96.8607 131.463 101.662L131.461 101.659Z" fill="#FFA89C"/>
        <path d="M125.616 100.903C124.879 99.9951 122.158 99.2254 120.555 98.2639C119.786 97.8021 119.509 97.6705 119.264 99.9638C119.244 100.153 117.57 98.4848 117.741 97.936C118.707 94.8195 120.526 94.1859 122.333 93.1843C128.357 89.8447 130.608 93.4944 130.608 93.4944L130.548 93.5234C130.61 93.5613 130.672 93.5948 130.732 93.6349C131.24 93.7175 133.541 94.3131 133.362 98.0654C133.486 99.2656 133.329 100.642 132.783 102.192C129.827 110.569 129.71 107.319 129.502 105.456C129.213 102.848 129.712 104.397 127.72 104.234C127.667 103.966 127.283 103.81 127.181 103.551C127.272 102.449 126.79 102.349 125.616 100.901V100.903Z" fill="#704B54"/>
        <path d="M130.064 104.778C130.502 104.049 130.477 103.223 130.004 102.935C129.533 102.648 128.797 103.005 128.357 103.734C127.919 104.463 127.946 105.289 128.417 105.577C128.888 105.864 129.626 105.508 130.064 104.778Z" fill="#FFA89C"/>
        <path d="M123.688 99.6917C121.033 99.859 120.907 98.0074 119.288 98.699C117.67 99.3906 117.453 97.9606 118.017 97.095C118.581 96.2294 121.767 95.7342 121.767 95.7342L124.904 97.5635L123.688 99.6895V99.6917Z" fill="#704B54"/>
        <path d="M100.072 88.3099C100.706 89.5436 101.301 90.7862 101.849 92.0444C102.4 93.3003 102.924 94.5652 103.414 95.8413C103.923 97.1106 104.376 98.3956 104.834 99.6783C105.254 100.972 105.577 102.295 105.519 103.727C105.442 105.601 103.872 107.058 102.015 106.98C100.914 106.933 99.9501 106.344 99.3708 105.494C98.5727 104.31 98.1571 103.013 97.8387 101.688C97.5579 100.354 97.2727 99.0202 97.0406 97.6728C96.793 96.3298 96.5763 94.9757 96.3884 93.6149C96.1961 92.2541 96.0524 90.8821 95.9485 89.4967C95.8556 88.2787 96.7598 87.2168 97.9669 87.1253C98.869 87.0562 99.6848 87.5492 100.078 88.3099H100.072Z" fill="#FFA89C"/>
        <path d="M99.7864 88.4755C100.069 84.0451 97.5534 80.237 95.5725 80.0095C93.5916 79.7819 91.9733 84.4801 91.9998 84.3775C92.0264 84.2726 91.8981 86.6864 92.7272 86.8983C92.7272 86.8983 93.3484 86.151 93.658 86.1911C94.5135 86.2982 94.9668 87.7104 95.5858 89.852C96.28 92.2501 99.7864 88.4778 99.7864 88.4778V88.4755Z" fill="#FFA89C"/>
        <path d="M146.15 127.756C146.698 126.335 147.344 124.019 146.654 122.471C144.556 120.849 142.798 119.519 142.557 119.417C142.263 119.29 141.938 119.189 141.607 119.111C139.475 118.607 136.754 119.093 135.087 120.358C135.076 120.363 135.06 120.376 135.058 120.383C133.513 121.579 134.225 123.551 134.578 124.093C135.781 125.929 140.088 128.057 143.897 130.018C144.857 129.728 145.655 129.045 146.15 127.756Z" fill="#ED9991"/>
        <path d="M143.789 130.46C146.937 132.284 148.924 118.368 144.795 108.106C140.667 97.8446 141.169 108.004 140.667 110.647C140.366 112.222 138.741 118.455 139.61 123.526C140.198 126.953 141.881 129.353 143.789 130.46Z" fill="#FFA89C"/>
    </g>
    <g clip-path="url(#clip1_217_429)">
        <path d="M0.16915 122.708C-2.15864 127.393 19.6077 137.769 63.3834 124.478C85.7924 117.675 111.684 100.762 145.379 81.6411C179.075 62.5201 213.431 37.9308 221.595 29.3685C229.758 20.8076 220.888 17.5318 212.231 17.7544C203.574 17.977 176.259 19.7058 135.448 32.7218C120.624 37.4503 84.7743 55.006 53.3684 75.2825C49.667 77.6721 45.8873 78.3117 42.3509 80.7605C37.2587 84.2858 32.5207 89.6455 27.9831 93.2101C14.9052 103.482 4.64271 113.708 0.16915 122.708Z" fill="url(#paint0_linear_217_429)"/>
        <path d="M224.686 22.3814C224.655 22.3814 211.719 22.7294 195.518 25.7136C179.299 28.7006 155.964 48.3176 147.081 56.5249C138.198 64.7321 124.288 82.6626 114.275 89.3101C104.261 95.9576 87.4931 105.408 86.4821 108.991C85.4725 112.572 85.5678 112.172 85.4725 112.572C85.2407 113.55 98.3315 106.211 113.656 98.9812C130.369 91.0967 164.454 71.1894 171.023 63.9572C177.593 56.7249 190.069 48.1148 198.175 44.2133C201.434 42.6437 206.135 40.9882 210.682 38.6916C215.726 34.7789 219.513 31.5524 221.596 29.3699C222.354 28.5738 222.965 27.8242 223.443 27.1184C224.077 25.6756 224.51 24.1032 224.688 22.3842C224.688 22.3842 224.688 22.3842 224.688 22.3828L224.686 22.3814Z" fill="url(#paint1_linear_217_429)"/>
        <path d="M27.9817 93.2101C15.4086 103.087 5.43619 112.922 0.710938 121.666C9.92965 126.098 39.4628 117.543 58.1463 106.981C81.2293 93.9329 177.381 32.4893 181.529 26.5294C183.555 23.6185 179.396 22.4899 170.982 23.231C160.701 25.4149 148.796 28.4653 135.447 32.7218C120.622 37.4503 84.7729 55.006 53.367 75.2824C49.6655 77.6721 45.8859 78.3117 42.3494 80.7605C41.8645 81.1127 41.3839 81.4622 40.9076 81.8116C36.3586 85.2875 32.0884 89.9836 27.9803 93.2087L27.9817 93.2101Z" fill="url(#paint2_linear_217_429)"/>
        <path d="M0.710938 121.666C0.710938 121.666 26.9849 88.0759 60.9703 78.2976C94.9543 68.5208 76.5965 92.3817 61.8804 101.34C47.1643 110.297 20.5519 125.312 0.71236 121.666H0.710938Z" fill="url(#paint3_linear_217_429)"/>
        <path d="M108.866 101.35C101.676 105.798 95.6723 109 87.631 112.713C79.5897 116.424 72.3262 117.987 58.8401 118.877C45.3541 119.768 38.82 123.448 30.574 126.956C22.3265 130.466 16.8362 130.353 16.8362 130.353C16.8362 130.353 16.9471 130.462 17.1689 130.655C27.7883 131.696 43.2595 130.587 63.3834 124.478C82.2758 118.742 103.645 105.82 130.08 90.4471C129.568 90.5401 129.004 90.5655 128.49 90.8064C118.036 95.7209 116.055 96.9002 108.866 101.35Z" fill="#C0D6DD"/>
        <path d="M213.933 17.7572C213.933 17.7572 211.213 17.7854 203.119 18.287C202.422 16.7174 205.068 12.7413 206.113 10.9575C211.052 2.5277 208.17 0.0859615 208.802 0.0465104C213.277 -0.235283 221.425 0.608687 225.597 5.79791C231.254 12.8329 228.694 14.3391 228.694 14.3391C228.694 14.3391 236.943 14.6814 241.214 17.7445C245.484 20.8076 247.604 22.3885 251.318 23.3705C254.983 24.3399 259 24.7471 259 24.7471C259 24.7471 253.359 34.1505 241.316 35.172C233.954 35.7962 225.832 34.4971 219.253 31.6228C221.162 27.9384 224.824 26.3491 224.686 22.38C223.26 20.3004 222.02 18.2518 213.933 17.7558V17.7572Z" fill="url(#paint4_linear_217_429)"/>
        <path d="M213.933 17.7572C213.933 17.7572 211.213 17.7854 203.119 18.287C202.422 16.7174 205.068 12.7413 206.113 10.9575C211.052 2.5277 208.17 0.0859615 208.802 0.0465104C213.277 -0.235283 221.425 0.608687 225.597 5.79791C231.254 12.8329 228.694 14.3391 228.694 14.3391C228.694 14.3391 236.943 14.6814 241.214 17.7445C245.484 20.8076 247.604 22.3885 251.318 23.3705C254.983 24.3399 259 24.7471 259 24.7471C259 24.7471 253.359 34.1505 241.316 35.172C233.954 35.7962 225.832 34.4971 219.253 31.6228C221.162 27.9384 224.824 26.3491 224.686 22.38C223.26 20.3004 222.02 18.2518 213.933 17.7558V17.7572Z" fill="url(#paint5_linear_217_429)"/>
        <path d="M259 24.7485C259 24.7485 254.983 24.3399 251.318 23.3719C251.084 23.3099 250.856 23.2451 250.633 23.1789C243.345 22.2307 232.601 15.2295 230.645 14.8745C228.69 14.518 221.377 17.0992 221.377 17.0992L223.352 16.1552C225.327 15.2112 228.695 14.3419 229.168 13.6332C229.208 13.5092 229.239 13.364 229.256 13.1992C229.268 12.7286 229.144 11.9565 228.862 11.004C228.385 9.75146 227.415 8.06211 225.597 5.80072C221.587 0.810161 213.903 -0.162026 209.34 0.0211396C209.343 0.0281844 209.404 0.157809 210.514 2.50656C211.689 4.99338 210.065 8.55665 208.719 12.0255C207.372 15.4958 210.514 17.6628 210.514 17.6628L210.951 17.8601C213.091 17.7657 213.934 17.7572 213.934 17.7572C219.676 18.1094 221.966 19.2437 223.322 20.6174C225.397 21.0147 227.056 21.4853 227.216 21.9897C227.665 23.4128 226.856 25.3698 228.473 26.7943C230.089 28.2174 236.508 31.0198 248.945 30.4943C252.16 30.3576 255.411 28.3738 257.648 26.583C258.556 25.4924 259.001 24.7499 259.001 24.7499L259 24.7485Z" fill="url(#paint6_linear_217_429)"/>
        <path d="M0.169147 122.708C0.385288 123.544 0.877294 124.285 1.48022 124.886C1.7831 125.188 2.12011 125.456 2.47845 125.688C2.83963 125.919 3.22357 126.111 3.61603 126.279C4.4095 126.6 5.24847 126.804 6.09882 126.915C6.94916 127.028 7.81089 127.046 8.66976 127.018C9.53006 126.984 10.3833 126.907 11.2407 126.774L12.5248 126.591L13.8045 126.377L14.4444 126.27L15.0829 126.149L16.3584 125.908C17.2059 125.729 18.0549 125.561 18.8995 125.37C25.6639 123.872 32.3387 121.971 38.9537 119.909C39.7799 119.651 40.6047 119.383 41.4294 119.117C42.2513 118.845 43.0732 118.574 43.9051 118.309C45.5645 117.782 47.2368 117.292 48.9261 116.868C52.3019 116.006 55.7417 115.382 59.2071 115.014C62.6724 114.638 66.1563 114.547 69.6245 114.469C71.3593 114.421 73.0927 114.364 74.8204 114.209C76.5467 114.059 78.2659 113.808 79.9609 113.429C78.2815 113.868 76.5666 114.183 74.8375 114.373C73.1098 114.574 71.3721 114.676 69.6373 114.769C67.9025 114.86 66.1677 114.931 64.4385 115.042C62.7094 115.152 60.9831 115.308 59.2654 115.514C55.8284 115.924 52.4299 116.599 49.0854 117.474C47.4117 117.908 45.7565 118.409 44.1141 118.946L41.6456 119.765C40.8194 120.035 39.9946 120.306 39.167 120.568C35.8567 121.623 32.5235 122.608 29.1677 123.513C27.4897 123.965 25.8075 124.403 24.1153 124.805L22.8469 125.108L21.5743 125.397C20.7282 125.594 19.875 125.768 19.0246 125.947C18.1729 126.124 17.3168 126.279 16.4622 126.442L15.1753 126.662L14.5326 126.772L13.887 126.869L12.5944 127.058L11.2962 127.211C10.4344 127.324 9.55424 127.383 8.6783 127.394C7.80235 127.406 6.92215 127.352 6.05474 127.208C5.18875 127.065 4.33556 126.827 3.53214 126.469C3.13398 126.283 2.74862 126.073 2.38744 125.823C2.0291 125.573 1.69351 125.288 1.3949 124.968C1.0977 124.65 0.837479 124.296 0.627025 123.917C0.419416 123.537 0.248778 123.134 0.167725 122.711L0.169147 122.708Z" fill="#666666"/>
        <path d="M182.095 24.2145C182.095 24.2145 190.814 16.5427 192.016 17.3866C193.217 18.2306 193.004 21.1965 194.62 20.9034C196.236 20.6103 196.556 21.0373 197.219 20.9034C197.882 20.7696 190.443 24.2131 182.093 24.2131L182.095 24.2145Z" fill="url(#paint7_linear_217_429)"/>
        <path d="M62.7974 113.219C62.9382 113.664 63.7814 113.799 64.6801 113.52C65.5788 113.241 66.1945 112.654 66.0537 112.209C65.913 111.763 65.0697 111.628 64.171 111.907C63.2723 112.186 62.6566 112.774 62.7974 113.219Z" fill="#1A1A1A"/>
        <path d="M62.3937 112.427C62.4378 112.258 62.5388 112.114 62.6326 111.972C62.7336 111.834 62.8445 111.701 62.9668 111.58C63.2142 111.339 63.5043 111.131 63.8384 110.993C64.1598 110.86 64.5125 110.774 64.8736 110.781C65.0542 110.784 65.2348 110.815 65.4055 110.879C65.5704 110.948 65.734 111.045 65.8264 111.193C65.515 111.05 65.1979 111.062 64.895 111.112C64.5907 111.163 64.2935 111.263 64.0006 111.383C63.719 111.499 63.446 111.656 63.1786 111.834C63.0464 111.924 62.9113 112.016 62.7805 112.114C62.6482 112.213 62.5132 112.309 62.3909 112.426L62.3937 112.427Z" fill="#666666"/>
        <path d="M64.8452 112.223C64.8452 112.435 65.0187 112.607 65.2334 112.607C65.4481 112.607 65.6216 112.435 65.6216 112.223C65.6216 112.01 65.4481 111.838 65.2334 111.838C65.0187 111.838 64.8452 112.01 64.8452 112.223Z" fill="white"/>
        <path d="M38.1787 123.682C41.3256 122.479 44.5776 121.549 47.8738 120.826C48.2847 120.729 48.6985 120.65 49.1138 120.568C49.529 120.489 49.9414 120.402 50.358 120.334C51.1913 120.202 52.0231 120.052 52.8635 119.957C54.5372 119.72 56.2251 119.609 57.9158 119.538L59.1842 119.541H59.8185L60.4498 119.555L61.7125 119.58L62.9753 119.589C63.8171 119.599 64.6589 119.583 65.5021 119.579C66.3439 119.561 67.1857 119.551 68.0276 119.525C69.7112 119.48 71.3948 119.404 73.0756 119.296C74.7578 119.193 76.4372 119.059 78.1137 118.877C77.2804 119.001 76.4429 119.101 75.6039 119.191C74.7663 119.283 73.9259 119.361 73.0855 119.434C71.4048 119.57 69.7197 119.671 68.0347 119.742C66.3496 119.821 64.6617 119.842 62.9738 119.845L61.7083 119.842L60.4427 119.823L59.8099 119.813H59.18L57.9201 119.818C56.2422 119.879 54.5614 119.982 52.8948 120.209C52.0587 120.3 51.2297 120.445 50.3992 120.572C49.984 120.637 49.5716 120.724 49.1578 120.796C48.744 120.871 48.3302 120.944 47.9193 121.034L46.6836 121.292L45.4536 121.578C45.0426 121.67 44.6374 121.78 44.2278 121.883L43.6164 122.039L43.0078 122.205C41.3824 122.642 39.7685 123.128 38.1787 123.682Z" fill="#666666"/>
        <path d="M35.1543 126.102C38.0252 125.125 40.9517 124.298 43.9179 123.642C44.6574 123.47 45.4053 123.33 46.1519 123.186L47.2767 122.998C47.4644 122.969 47.6521 122.934 47.8398 122.908L48.4057 122.834L48.9717 122.759L49.2546 122.722L49.539 122.696L50.6766 122.591C51.4388 122.556 52.201 122.51 52.966 122.548C53.7339 122.559 54.479 122.632 55.2383 122.639C55.6166 122.645 55.9948 122.66 56.3731 122.659L57.5093 122.656C59.0251 122.638 60.5395 122.57 62.0539 122.5C63.5683 122.421 65.0813 122.317 66.5943 122.194C68.1073 122.08 69.6189 121.942 71.129 121.792C69.626 122.005 68.1172 122.171 66.6071 122.332C65.0955 122.481 63.5825 122.61 62.0681 122.715C60.5523 122.821 59.0336 122.88 57.5135 122.913L56.3731 122.921C55.9934 122.925 55.6123 122.913 55.2327 122.908C54.4747 122.906 53.7054 122.836 52.9561 122.829C52.2038 122.787 51.4502 122.829 50.6951 122.86L49.5661 122.958L49.2831 122.982L49.0015 123.017L48.4384 123.087L47.8753 123.158C47.6876 123.182 47.5013 123.215 47.3151 123.244L46.1945 123.424C45.4508 123.566 44.7043 123.693 43.9634 123.851C42.4789 124.152 41.0029 124.5 39.5354 124.882C38.0665 125.256 36.6047 125.663 35.1528 126.101L35.1543 126.102Z" fill="#666666"/>
        <path d="M30.0918 128.396C31.292 128.052 32.5063 127.759 33.7235 127.479C34.9422 127.207 36.1694 126.966 37.4008 126.751C38.6308 126.531 39.8708 126.356 41.115 126.219C41.7364 126.143 42.3607 126.097 42.9835 126.04C43.6077 126.002 44.2348 125.959 44.8577 125.939C47.3532 125.856 49.8503 125.761 52.3458 125.691L56.0913 125.59C57.3398 125.566 58.5883 125.533 59.8368 125.518C58.5898 125.597 57.3427 125.657 56.0956 125.728L52.3544 125.907C49.8602 126.022 47.3646 126.115 44.869 126.219C44.2434 126.235 43.6234 126.276 43.002 126.308C42.382 126.36 41.7606 126.403 41.142 126.474C40.522 126.535 39.9049 126.617 39.2863 126.696C38.6692 126.786 38.0521 126.866 37.4363 126.965C36.2035 127.155 34.9763 127.372 33.752 127.614C32.5262 127.848 31.3076 128.114 30.0918 128.396Z" fill="#666666"/>
        <path d="M25.0068 130.353C25.9994 130.168 26.9948 130.006 27.9887 129.837L30.9792 129.37C31.976 129.213 32.9756 129.082 33.9767 128.946C34.9778 128.813 35.9774 128.682 36.9814 128.566C37.9853 128.457 38.9906 128.357 40.0016 128.296C40.5079 128.262 41.0113 128.249 41.5161 128.231C42.0209 128.213 42.5257 128.202 43.029 128.193C44.0387 128.176 45.0468 128.164 46.0565 128.159C47.0661 128.164 48.0742 128.162 49.0839 128.186L46.0593 128.297C45.0511 128.331 44.0429 128.366 43.0362 128.41C42.0294 128.461 41.0198 128.485 40.0173 128.552C39.0162 128.621 38.0137 128.73 37.0126 128.847C35.0091 129.062 33.0098 129.329 31.0104 129.585L28.0101 129.974L25.0083 130.354L25.0068 130.353Z" fill="#666666"/>
        <path d="M64.8452 116.916C65.8833 116.893 66.9185 116.861 67.9537 116.803C68.9889 116.751 70.0227 116.688 71.055 116.598C73.1183 116.427 75.1788 116.192 77.2108 115.814C77.7213 115.732 78.2247 115.617 78.7309 115.514C78.9854 115.466 79.2328 115.397 79.4845 115.335L80.2353 115.145C81.2336 114.867 82.2261 114.574 83.2172 114.277C84.2069 113.975 85.1924 113.657 86.1678 113.31C87.1447 112.969 88.116 112.606 89.0559 112.171C87.2173 113.132 85.2492 113.823 83.2841 114.483C82.3001 114.814 81.3018 115.101 80.3064 115.391L79.5514 115.589C79.2997 115.652 79.048 115.725 78.7934 115.775C78.2844 115.883 77.7781 116.004 77.2648 116.089L76.4955 116.223L75.7234 116.335C75.2101 116.416 74.6924 116.474 74.1763 116.536C73.6601 116.6 73.1425 116.641 72.6263 116.696C72.1087 116.74 71.5911 116.782 71.0721 116.81C70.0355 116.874 68.9974 116.913 67.9594 116.937C66.9213 116.95 65.8833 116.954 64.8452 116.913V116.916Z" fill="#666666"/>
        <path d="M87.6382 111.675C87.6382 111.675 97.1114 115.262 109.392 116.645C118.672 117.691 126.475 115.445 129.736 114.285C130.248 114.104 130.211 113.375 129.683 113.244C127.155 112.619 122.391 111.355 119.697 110.111C115.747 108.287 110.696 107.931 106.654 104.817C102.614 101.703 87.2727 104.43 87.6367 111.675H87.6382Z" fill="url(#paint8_linear_217_429)"/>
        <path d="M209.841 38.0942C208.892 38.3732 207.962 38.7114 207.038 39.0608C206.574 39.2327 206.116 39.4158 205.657 39.6004C205.196 39.7808 204.743 39.9752 204.286 40.1654C203.828 40.3528 203.376 40.5501 202.923 40.7459C202.469 40.9403 202.015 41.1376 201.566 41.3433L200.217 41.9534L198.876 42.5832C195.304 44.2697 191.798 46.0958 188.337 47.9979C186.615 48.963 184.858 49.8718 183.214 50.9581C181.566 52.0402 179.99 53.2279 178.455 54.4636C176.922 55.7021 175.433 56.9955 173.974 58.3185C172.511 59.6373 171.076 60.9899 169.682 62.3834C172.44 59.5683 175.339 56.8884 178.395 54.3917C179.926 53.149 181.5 51.9528 183.149 50.8609C184.795 49.7619 186.55 48.8461 188.269 47.8753C191.74 45.9873 195.254 44.1739 198.834 42.5001L200.18 41.8759L201.533 41.27C201.984 41.0657 202.438 40.8713 202.893 40.6783C203.348 40.4838 203.8 40.2866 204.259 40.1034C204.719 39.9189 205.174 39.7286 205.637 39.5539C206.098 39.375 206.559 39.1975 207.025 39.0298C207.954 38.6902 208.888 38.3634 209.841 38.0956V38.0942Z" fill="#666666"/>
        <path d="M37.5559 116.262C39.3888 115.647 41.2104 115.003 43.0106 114.302C44.8094 113.601 46.5912 112.851 48.3274 112.009C50.0665 111.172 51.753 110.232 53.3854 109.205C55.0207 108.186 56.6133 107.083 58.3581 106.233C60.0986 105.381 61.9543 104.775 63.8384 104.334C64.7798 104.103 65.7297 103.92 66.6824 103.742C67.6365 103.576 68.5907 103.421 69.5434 103.262C71.4489 102.935 73.3458 102.56 75.2214 102.092C76.1571 101.853 77.0899 101.602 78.0085 101.302C78.4678 101.154 78.9228 100.99 79.3722 100.816C79.8172 100.631 80.2666 100.447 80.6775 100.193C80.2709 100.454 79.8244 100.645 79.3821 100.837C78.9342 101.02 78.482 101.191 78.0241 101.346C77.7952 101.422 77.5662 101.502 77.3359 101.574L76.642 101.787C76.4102 101.856 76.1755 101.916 75.9438 101.982C75.7106 102.047 75.4774 102.112 75.2427 102.168C73.3686 102.647 71.4702 103.033 69.5647 103.37L66.7066 103.863C65.7581 104.044 64.8096 104.23 63.8726 104.464C63.4019 104.571 62.9383 104.705 62.4719 104.83C62.0112 104.969 61.5476 105.103 61.0912 105.261C60.1782 105.568 59.2824 105.927 58.4164 106.349C56.6802 107.186 55.0861 108.282 53.4437 109.296C51.8056 110.319 50.112 111.255 48.3672 112.087C44.882 113.766 41.2317 115.07 37.5573 116.262H37.5559Z" fill="#666666"/>
        <path d="M85.9915 110.724C86.1834 110.214 86.4351 109.725 86.7138 109.254C86.8589 109.022 86.9968 108.785 87.1575 108.561L87.3921 108.223L87.641 107.894C88.3178 107.028 89.1028 106.237 89.9844 105.565C90.8589 104.885 91.8415 104.342 92.8525 103.892C93.8621 103.446 94.9059 103.066 95.978 102.778C97.0516 102.497 98.1523 102.312 99.2586 102.23C99.8117 102.197 100.366 102.181 100.918 102.181L102.565 102.195C102.839 102.199 103.106 102.185 103.374 102.17L103.776 102.125C103.91 102.109 104.044 102.084 104.177 102.064C104.712 101.972 105.244 101.85 105.768 101.701C106.822 101.412 107.852 101.034 108.867 100.617C108.381 100.871 107.881 101.099 107.374 101.312C106.868 101.524 106.353 101.722 105.831 101.899C105.308 102.075 104.774 102.22 104.231 102.337C104.095 102.363 103.96 102.397 103.822 102.416L103.406 102.475C103.126 102.501 102.846 102.523 102.572 102.528C102.02 102.545 101.471 102.546 100.924 102.553C100.378 102.563 99.8345 102.588 99.2927 102.632C98.2106 102.723 97.1384 102.907 96.0918 103.188C95.0424 103.462 94.0171 103.834 93.0175 104.261C92.8923 104.314 92.7644 104.364 92.6421 104.42L92.278 104.596C92.0349 104.714 91.7875 104.824 91.5585 104.967L91.2073 105.168C91.0893 105.234 90.9727 105.302 90.8617 105.379C90.6385 105.53 90.4081 105.672 90.1892 105.832C89.3132 106.464 88.5126 107.204 87.8088 108.028C87.0992 108.847 86.4735 109.747 85.9971 110.728L85.9915 110.724Z" fill="#666666"/>
        <path d="M110.936 115.916C101.292 114.787 96.0306 112.65 93.6061 111.048C91.1816 109.446 98.5461 105.567 103.304 105.67C108.062 105.772 112.911 109.805 120.634 111.761C128.355 113.716 120.58 117.044 110.936 115.916Z" fill="url(#paint9_linear_217_429)"/>
        <path d="M62.3937 74.8386C66.0297 72.1644 69.7724 69.641 73.5335 67.1429C77.3132 64.6758 81.1227 62.2481 84.9833 59.9008C88.8497 57.5633 92.7474 55.2752 96.7076 53.087L99.6781 51.4484L102.677 49.8563C103.677 49.3265 104.676 48.7967 105.692 48.2937L108.726 46.765L109.486 46.386L110.253 46.0211L111.791 45.294L113.328 44.567L114.096 44.2035C114.352 44.0809 114.608 43.9597 114.869 43.8484L117.989 42.4817C118.509 42.2549 119.027 42.0238 119.549 41.8026L121.12 41.1587L124.267 39.8794L127.434 38.6508C128.487 38.2365 129.553 37.8491 130.615 37.4574C131.678 37.0699 132.739 36.674 133.811 36.3062C134.881 35.9329 135.949 35.5567 137.024 35.1988C138.1 34.8452 139.175 34.4873 140.253 34.1421L143.501 33.1417C144.589 32.8247 145.674 32.5006 146.763 32.1907L148.404 31.7482C148.95 31.6003 149.497 31.4524 150.048 31.3157L151.694 30.8958C152.243 30.7591 152.796 30.6338 153.348 30.5041C155.556 29.9983 157.772 29.5207 160.014 29.1938C158.919 29.4798 157.833 29.7841 156.752 30.1124L155.94 30.352L155.131 30.5999C154.592 30.7662 154.052 30.9296 153.517 31.1058C151.366 31.7849 149.23 32.5049 147.103 33.246L143.916 34.3689L140.745 35.5355L137.587 36.7346C136.534 37.1347 135.491 37.5588 134.441 37.9632C130.259 39.6286 126.089 41.3222 121.965 43.1256L120.413 43.7907C119.899 44.0161 119.39 44.2514 118.878 44.4811L115.812 45.8675C114.792 46.3353 113.784 46.8312 112.769 47.3117L111.249 48.0373L110.489 48.4022L109.736 48.7812C107.727 49.7886 105.706 50.7707 103.717 51.8218L100.719 53.3674L97.7399 54.9525C95.7449 55.9937 93.7797 57.0899 91.7975 58.1551C90.8049 58.6849 89.8266 59.2442 88.8398 59.7853C87.8543 60.3305 86.8646 60.8673 85.8834 61.4197C78.0156 65.8072 70.2032 70.3046 62.3909 74.8344L62.3937 74.8386Z" fill="#BDD6E0"/>
        <path d="M94.5488 110.23C95.7021 110.497 96.8524 110.732 98.0028 110.963C99.1532 111.194 100.302 111.418 101.451 111.639L104.899 112.292C105.474 112.395 106.051 112.514 106.621 112.607C107.193 112.707 107.762 112.816 108.336 112.896C110.63 113.251 112.942 113.529 115.269 113.739C117.596 113.959 119.931 114.126 122.293 114.295C121.71 114.407 121.123 114.487 120.536 114.555C119.947 114.626 119.358 114.679 118.767 114.721C117.585 114.803 116.4 114.845 115.215 114.838C112.843 114.832 110.468 114.649 108.115 114.287C107.526 114.204 106.941 114.084 106.356 113.977C106.061 113.923 105.774 113.859 105.485 113.795L104.621 113.605C103.47 113.334 102.323 113.054 101.187 112.723C100.05 112.396 98.9214 112.041 97.8094 111.635C97.2549 111.43 96.7003 111.221 96.1557 110.986C95.6111 110.753 95.0693 110.514 94.5488 110.229V110.23Z" fill="#BDD6E0"/>
        <path d="M209.712 0.810186C209.924 1.08634 210.108 1.38223 210.28 1.68374C210.453 1.98526 210.608 2.29805 210.752 2.61789C211.036 3.25756 211.26 3.92823 211.406 4.62567C211.477 4.97368 211.531 5.32874 211.554 5.68943C211.579 6.04872 211.582 6.41505 211.545 6.77997C211.511 7.1449 211.449 7.51264 211.341 7.87051C211.318 7.96069 211.284 8.04945 211.254 8.13822C211.224 8.22698 211.191 8.31575 211.151 8.40169L211.039 8.65813L210.934 8.88638C210.367 10.1037 209.857 11.3436 209.505 12.623C209.331 13.2626 209.201 13.9122 209.149 14.5716C209.124 14.9013 209.122 15.2338 209.152 15.5649C209.166 15.7311 209.192 15.896 209.23 16.0608C209.266 16.2257 209.314 16.3891 209.391 16.5441C209.146 16.2905 208.996 15.958 208.876 15.6255C208.76 15.2887 208.691 14.9365 208.652 14.5828C208.575 13.8741 208.619 13.1584 208.728 12.4609C208.955 11.0632 209.437 9.72894 210.035 8.47073L210.148 8.23403L210.244 8.02127C210.278 7.95223 210.304 7.87897 210.331 7.80711C210.358 7.73384 210.389 7.6634 210.409 7.58872C210.51 7.29566 210.57 6.98568 210.621 6.67289C210.712 6.0459 210.714 5.39355 210.648 4.73838C210.587 4.08321 210.465 3.42382 210.304 2.76865C210.143 2.11207 209.947 1.45972 209.715 0.808777L209.712 0.810186Z" fill="#BDD6E0"/>
        <path d="M231.803 28.5287C233.917 28.9275 236.026 29.2544 238.139 29.5108C239.196 29.6404 240.254 29.7376 241.31 29.8278C242.368 29.9011 243.428 29.9729 244.486 29.9912C246.603 30.0532 248.723 29.9772 250.809 29.6742C251.068 29.6291 251.33 29.5897 251.586 29.5362C251.844 29.4897 252.102 29.4333 252.359 29.3769C252.872 29.2586 253.376 29.1078 253.874 28.9387C254.122 28.8542 254.367 28.757 254.61 28.6555C254.849 28.5471 255.089 28.4386 255.321 28.3132C255.553 28.1892 255.779 28.0511 255.995 27.8989C256.211 27.7468 256.419 27.5805 256.597 27.3804C256.315 27.8398 255.893 28.2033 255.459 28.5273C255.021 28.8528 254.542 29.1191 254.05 29.3558C253.062 29.8236 252.014 30.1561 250.949 30.3928C250.415 30.5069 249.881 30.6126 249.342 30.6901C248.803 30.769 248.262 30.8296 247.721 30.8747C246.637 30.9634 245.551 30.9958 244.467 30.9719C242.299 30.9367 240.137 30.714 238.014 30.3054C237.748 30.2561 237.484 30.2026 237.221 30.1448C236.956 30.0871 236.692 30.0363 236.43 29.9729L235.644 29.7785L234.862 29.57C233.825 29.2727 232.796 28.9486 231.803 28.5273V28.5287Z" fill="#BDD6E0"/>
    </g>
</svg>
