<svg width="249" height="47" viewBox="0 0 249 47" fill="none" xmlns="http://www.w3.org/2000/svg">
    <path d="M0.99 42.829C0.99 44.482 2.472 45.565 4.638 45.565C6.861 45.565 8.115 44.482 8.115 42.829V8.686H18.09C22.08 8.686 25.158 11.935 25.158 16.096C25.158 20.941 22.194 24.304 17.919 24.304H12.504C11.022 24.304 9.768 25.501 9.768 27.724C9.768 30.004 11.022 31.201 12.504 31.201H17.52C28.065 31.201 31.827 23.107 31.827 16.096C31.827 9.655 27.837 2.074 17.577 2.074H4.467C2.301 2.074 0.99 3.157 0.99 4.81V42.829ZM38.0523 42.772C38.0523 44.425 39.3063 45.565 41.5293 45.565C43.7523 45.565 45.0063 44.425 45.0063 42.772V15.754C45.0063 14.101 43.6953 13.018 41.4723 13.018C39.2493 13.018 38.0523 14.101 38.0523 15.754V42.772ZM37.3113 4.924C37.3113 7.261 39.0783 9.028 41.5293 9.028C43.9233 9.028 45.8043 7.261 45.8043 4.924C45.8043 2.53 43.9233 0.705998 41.5293 0.705998C39.0783 0.705998 37.3113 2.53 37.3113 4.924ZM64.3679 12.904C57.1859 12.904 52.4549 15.982 52.4549 21.91C52.4549 27.325 55.5329 30.403 61.0049 31.543L63.9119 32.17C67.2179 32.797 69.2699 33.88 69.2699 35.932C69.2699 38.098 67.1609 39.295 63.1709 39.295C61.1189 39.295 57.9839 38.383 56.3879 37.357C55.9319 37.072 55.4759 37.015 55.0769 37.015C53.5379 37.015 51.8279 38.269 51.8279 40.834C51.8279 41.917 52.3979 42.886 53.4239 43.456C55.8749 45.109 59.1809 45.907 63.2849 45.907C72.0629 45.907 75.7679 41.347 75.7679 35.647C75.7679 30.46 72.3479 27.496 67.2179 26.413L64.4249 25.786C61.5179 25.216 59.4089 24.361 59.4089 22.252C59.4089 20.143 61.7459 19.402 64.2539 19.402C66.8189 19.402 68.8139 20.314 70.2389 21.055C70.5239 21.112 70.9799 21.283 71.7209 21.283C73.4309 21.283 74.7989 19.744 74.7989 17.749C74.7989 16.609 74.0579 15.697 72.8609 15.013C71.0369 13.93 68.4149 12.904 64.3679 12.904ZM86.6462 20.656V36.16C86.6462 43.855 91.1492 45.622 96.7352 45.622C98.2742 45.622 99.9842 45.28 101.238 44.767C102.549 44.254 103.632 43.57 103.632 41.575C103.632 39.694 102.606 38.269 100.782 38.269C99.9842 38.269 98.9012 39.01 97.1912 39.01C94.7402 39.01 93.3152 37.642 93.3152 35.134V20.656H100.326C101.808 20.656 103.233 19.516 103.233 17.464C103.233 15.241 101.808 14.215 100.326 14.215H93.3152V7.888C93.3152 6.235 92.2892 5.152 90.0662 5.152C87.8432 5.152 86.6462 6.235 86.6462 7.888V14.215H82.0862C80.7182 14.215 79.5212 15.241 79.5212 17.464C79.5212 19.573 80.7182 20.656 81.9722 20.656H86.6462ZM124.81 38.383C124.354 38.383 123.898 38.611 123.328 38.839C121.903 39.409 120.706 39.637 118.996 39.637C116.203 39.637 114.607 38.098 114.607 35.533C114.607 32.17 116.83 30.517 123.1 30.517C125.266 30.517 127.489 30.973 127.888 31.144V38.155C127.888 41.119 129.313 43 131.251 44.368C132.049 44.938 132.961 45.166 133.93 45.166C135.754 45.166 137.236 43.684 137.236 42.031C137.236 41.233 137.008 40.606 136.21 39.922C135.241 39.181 134.215 38.326 134.215 36.274V23.563C134.215 16.324 128.857 12.733 121.276 12.733C117.856 12.733 114.094 13.417 111.7 14.728C110.389 15.355 109.933 16.267 109.933 17.464C109.933 19.288 111.13 21.169 112.897 21.169C113.695 21.169 114.037 20.941 114.835 20.713C116.545 20.086 118.54 19.345 120.934 19.345C124.411 19.345 127.717 20.542 127.717 24.475V24.646C126.919 24.418 124.183 24.019 121.903 24.019C113.125 24.019 107.938 28.066 107.938 35.419C107.938 42.715 112.897 45.907 118.882 45.907C121.447 45.907 124.525 45.166 125.893 44.311C126.805 43.741 127.432 42.886 127.432 41.689C127.432 39.979 126.349 38.383 124.81 38.383ZM154.84 12.904C147.088 12.904 140.419 17.521 140.419 29.092C140.419 41.119 147.145 45.907 155.752 45.907C159.571 45.907 162.421 44.938 164.359 43.285C165.613 42.259 165.784 41.575 165.784 40.549C165.784 39.352 164.701 37.243 162.82 37.243C162.25 37.243 161.68 37.357 160.996 37.813C159.571 38.839 158.089 39.352 155.98 39.352C151.078 39.352 147.088 36.901 147.088 29.206C147.088 21.511 151.078 19.63 155.296 19.63C157.69 19.63 159.001 20.143 160.426 20.941C161.053 21.226 161.566 21.283 162.022 21.283C163.675 21.283 164.872 19.459 164.872 18.148C164.872 16.723 164.188 15.811 163.39 15.355C161.623 14.044 159.286 12.904 154.84 12.904ZM171.826 42.943C171.826 44.596 172.966 45.736 175.189 45.736C177.412 45.736 178.552 44.596 178.552 42.943V25.216C178.666 21.853 181.06 19.915 184.822 19.915C188.242 19.915 190.864 21.91 190.864 25.558V42.886C190.864 44.881 192.46 45.736 194.284 45.736C196.108 45.736 197.59 44.881 197.59 42.886V24.418C197.59 17.407 192.289 13.018 185.962 13.018C183.169 13.018 180.262 13.987 178.552 15.583V3.499C178.552 1.846 177.355 0.705998 175.132 0.705998C172.909 0.705998 171.826 1.846 171.826 3.499V42.943ZM204.88 42.772C204.88 44.425 206.134 45.565 208.357 45.565C210.58 45.565 211.834 44.425 211.834 42.772V15.754C211.834 14.101 210.523 13.018 208.3 13.018C206.077 13.018 204.88 14.101 204.88 15.754V42.772ZM204.139 4.924C204.139 7.261 205.906 9.028 208.357 9.028C210.751 9.028 212.632 7.261 212.632 4.924C212.632 2.53 210.751 0.705998 208.357 0.705998C205.906 0.705998 204.139 2.53 204.139 4.924ZM233.362 39.694C228.517 39.694 225.268 36.958 225.268 29.491C225.268 22.309 228.517 19.459 233.362 19.459C237.922 19.459 241.399 22.309 241.399 29.491C241.399 36.958 237.979 39.694 233.362 39.694ZM233.362 46.306C242.311 46.306 248.011 40.378 248.011 29.491C248.011 18.319 242.311 12.79 233.362 12.79C224.47 12.79 218.656 18.262 218.656 29.491C218.656 40.435 224.356 46.306 233.362 46.306Z" fill="black"/>
</svg>
