<svg width="360" height="800" viewBox="0 0 360 800" fill="none" xmlns="http://www.w3.org/2000/svg">
    <rect width="360" height="800" fill="#F4E9E7" />
    <path
        d="M343.058 243.655L341.043 242.175L343.058 243.655ZM134.105 359.263L133.069 356.988L132.996 357.021L132.926 357.058L134.105 359.263ZM48.3874 517.925L46.0603 518.838L48.3874 517.925ZM306.271 613.766C307.188 612.734 307.094 611.154 306.062 610.237L289.241 595.293C288.209 594.376 286.629 594.47 285.712 595.502C284.795 596.534 284.888 598.114 285.921 599.031L300.872 612.315L287.589 627.266C286.672 628.299 286.765 629.879 287.798 630.796C288.83 631.713 290.41 631.619 291.327 630.587L306.271 613.766ZM272.597 124.64C275.937 125.406 279.352 126.318 282.803 127.374L284.266 122.593C280.704 121.503 277.173 120.56 273.714 119.766L272.597 124.64ZM302.572 134.911C308.969 137.858 315.214 141.269 321.058 145.115L323.807 140.939C317.734 136.941 311.266 133.411 304.665 130.37L302.572 134.911ZM337.439 158.231C342.533 163.263 346.855 168.74 350.127 174.622L354.497 172.192C350.958 165.83 346.327 159.983 340.953 154.674L337.439 158.231ZM356.591 193.991C357.386 200.385 356.975 207.176 355.072 214.357L359.906 215.638C361.967 207.86 362.429 200.424 361.552 193.374L356.591 193.991ZM346.88 233.38C345.176 236.259 343.235 239.192 341.043 242.175L345.073 245.135C347.356 242.027 349.389 238.957 351.183 235.926L346.88 233.38ZM341.043 242.175C339.091 244.832 337.042 247.422 334.903 249.948L338.719 253.179C340.93 250.568 343.05 247.888 345.073 245.135L341.043 242.175ZM321.15 264.261C316.325 268.723 311.21 272.961 305.859 276.996L308.869 280.988C314.341 276.862 319.585 272.518 324.545 267.932L321.15 264.261ZM289.433 288.336C283.841 291.884 278.08 295.259 272.198 298.481L274.6 302.866C280.565 299.598 286.42 296.169 292.111 292.558L289.433 288.336ZM254.376 307.642C248.348 310.558 242.252 313.343 236.138 316.014L238.14 320.596C244.304 317.902 250.46 315.091 256.554 312.143L254.376 307.642ZM217.607 323.783C211.31 326.326 205.049 328.769 198.876 331.135L200.665 335.803C206.856 333.431 213.147 330.976 219.479 328.419L217.607 323.783ZM180.024 338.267C173.536 340.705 167.217 343.08 161.15 345.417L162.946 350.083C168.992 347.755 175.292 345.387 181.783 342.947L180.024 338.267ZM142.351 352.934C139.142 354.284 136.042 355.633 133.069 356.988L135.142 361.538C138.063 360.207 141.117 358.878 144.289 357.543L142.351 352.934ZM132.926 357.058C130.095 358.573 127.136 360.194 124.086 361.926L126.553 366.274C129.563 364.566 132.485 362.965 135.285 361.467L132.926 357.058ZM106.816 372.431C101.33 376.023 95.7687 379.941 90.3056 384.197L93.3787 388.141C98.7184 383.981 104.167 380.142 109.555 376.614L106.816 372.431ZM74.9237 397.476C70.0534 402.167 65.4198 407.182 61.1771 412.534L65.0953 415.64C69.1826 410.484 73.6621 405.633 78.3923 401.077L74.9237 397.476ZM49.8084 429.552C46.5437 435.504 43.808 441.796 41.7519 448.438L46.5283 449.917C48.4772 443.621 51.076 437.638 54.1922 431.957L49.8084 429.552ZM37.8361 468.624C37.2925 475.196 37.4146 482.041 38.3034 489.165L43.265 488.546C42.4182 481.759 42.3043 475.259 42.819 469.036L37.8361 468.624ZM42.6666 509.168C43.6474 512.344 44.7763 515.567 46.0603 518.838L50.7146 517.012C49.4746 513.852 48.387 510.746 47.444 507.693L42.6666 509.168ZM46.0603 518.838C47.3587 522.147 48.8286 525.349 50.4587 528.448L54.8838 526.12C53.338 523.181 51.945 520.147 50.7146 517.012L46.0603 518.838ZM62.1754 545.943C66.6042 551.289 71.5712 556.244 76.9858 560.832L80.2184 557.018C75.0072 552.602 70.2511 547.854 66.0258 542.753L62.1754 545.943ZM93.8764 573.146C99.6641 576.794 105.771 580.147 112.126 583.227L114.307 578.728C108.101 575.72 102.158 572.455 96.5423 568.916L93.8764 573.146ZM131.243 591.431C137.653 593.864 144.23 596.072 150.915 598.071L152.348 593.281C145.768 591.313 139.305 589.143 133.017 586.757L131.243 591.431ZM170.951 603.395C177.676 604.973 184.454 606.367 191.229 607.592L192.119 602.672C185.422 601.461 178.729 600.085 172.093 598.528L170.951 603.395ZM211.677 610.801C218.611 611.731 225.486 612.498 232.241 613.119L232.699 608.139C226.009 607.525 219.204 606.766 212.342 605.846L211.677 610.801ZM252.877 614.602C260.008 614.973 266.919 615.187 273.528 615.267L273.588 610.267C267.045 610.188 260.201 609.976 253.137 609.609L252.877 614.602ZM294.255 615.069C297.838 614.953 301.276 614.795 304.549 614.602L304.254 609.61C301.027 609.801 297.634 609.957 294.092 610.072L294.255 615.069Z"
        fill="#000D3D" />
</svg>
