<svg width="360" height="800" viewBox="0 0 360 800" fill="none" xmlns="http://www.w3.org/2000/svg">
    <path d="M359.719 0H0V800H359.719V0Z" fill="#F5ECE9" />
    <path
        d="M64.2366 496.39V390.209H167.514V284.356H270.791V178.174H360V163.71H256.723V269.892H153.445V375.744H50.1678V481.926H0.287739V496.39H64.2366Z"
        fill="black" />
    <path
        d="M69.032 337.81C70.5168 340.349 71.7008 343.117 72.4304 345.974C72.9648 348.004 73.7392 351.294 72.2064 353.081C70.3856 355.206 66.7088 353.34 64.7984 352.365C63.8544 351.882 62.936 351.383 62.0336 350.825C58.2032 348.552 54.6192 345.777 51.0352 343.143L48.9072 334.132C48.7696 332.211 47.8896 330.056 48.5936 328.178C49.0704 326.894 50.1232 324.746 51.5248 324.145C51.7168 324.06 51.9248 323.994 52.1296 323.984C53.496 323.892 55.736 324.595 56.8592 325.406C61.4224 328.707 66.152 332.871 69.0288 337.807L69.032 337.81Z"
        fill="#8EB82E" />
    <path
        d="M69.0321 337.81C70.5168 340.349 71.7008 343.117 72.4304 345.974C72.9648 348.004 73.7392 351.294 72.2064 353.081C70.3856 355.206 66.7088 353.34 64.7984 352.365C63.8544 351.882 62.9361 351.383 62.0337 350.825C61.8353 350.496 61.6561 350.152 61.4929 349.787C60.9809 348.634 60.648 347.383 60.0304 346.273C58.6608 343.863 56.2384 342.063 55.1568 339.495C54.3376 337.567 55.0896 334.999 55.2272 333.042C55.2912 332.178 54.6288 331.531 54.3312 330.743C54.0144 329.918 54.008 329.12 53.4832 328.398C52.8144 327.498 52.2736 327.084 52.1104 325.902C51.9984 325.127 51.864 324.611 51.5312 324.148C51.7233 324.063 51.9312 323.997 52.136 323.987C53.5024 323.895 55.7424 324.598 56.8656 325.409C61.4288 328.71 66.1585 332.874 69.0353 337.81H69.0321Z"
        fill="#6E2618" />
    <path
        d="M78.4944 359.14C78.3056 359.35 78.1232 359.57 77.9376 359.784C77.9088 359.813 77.896 359.839 77.8672 359.866C72.728 364.204 67.0896 365.455 60.728 361.59C60.4432 361.409 60.1648 361.232 59.8736 361.045C53.2624 356.588 49.2912 347.692 47.5184 340.056C47.0736 338.089 46.7792 336.092 46.6 334.082C46.5072 333.068 46.4272 332.04 46.3888 331.022C46.376 330.844 46.2928 330.631 46.1776 330.394C45.784 329.626 45.016 328.608 45 328.083C45.7232 326.168 57.7936 340.723 65.7872 347.176C66.6992 347.908 67.5504 348.529 68.3312 349.015C68.3824 348.529 67.4608 346.749 66.0368 344.296C61.2496 336.135 50.8528 320.559 52.632 321.018C52.9392 320.881 53.6336 321.55 54.1552 321.859C54.328 321.971 54.4752 322.04 54.5872 322.007C55.4704 321.757 56.3568 321.626 57.2336 321.61C57.6176 321.6 57.9824 321.61 58.3472 321.639C62.8208 321.961 67.16 324.789 70.9104 327.265C80.3856 333.498 87.9824 347.55 78.504 359.147L78.4944 359.14Z"
        fill="#EDC28C" />
    <path opacity="0.3"
        d="M58.3375 321.633C57.8287 322.211 57.4383 322.884 57.3615 323.705C57.1695 326.063 59.0415 328.739 60.0399 330.726C61.5311 333.698 63.1023 336.621 64.8943 339.409C63.3327 337.636 62.0207 335.734 60.7343 333.748C58.3727 330.089 55.3167 326.188 54.1455 321.856C54.3183 321.968 54.4655 322.037 54.5775 322.004C55.8319 321.646 57.0927 321.537 58.3375 321.636V321.633Z"
        fill="#7D401A" />
    <path opacity="0.3"
        d="M60.4879 344.454C57.8767 342.907 56.2383 340.726 53.5215 338.28C51.6015 336.542 49.4479 334.092 46.6607 334.069C46.6415 334.069 46.6159 334.076 46.5967 334.076C46.5039 333.061 46.4239 332.033 46.3855 331.015C46.3727 330.838 46.2895 330.624 46.1743 330.388C47.5759 331.048 49.4095 332.956 50.3375 333.725C52.4815 335.475 54.4559 337.78 56.3055 339.859C57.4159 341.101 59.0511 342.165 60.4911 344.45L60.4879 344.454Z"
        fill="#7D401A" />
    <path opacity="0.3"
        d="M78.4943 359.14C78.3055 359.35 78.1231 359.57 77.9375 359.784C77.9087 359.813 77.8959 359.84 77.8671 359.866C72.7279 364.204 67.0895 365.455 60.7279 361.59C65.6335 360.923 71.6015 360.871 74.4943 357.002C74.6191 356.835 67.6111 348.798 67.7263 348.624C67.9567 348.283 75.2911 355.8 75.4799 355.442C78.0719 350.532 76.8623 344.454 75.0287 339.682C73.3391 335.225 71.0031 330.927 67.5791 327.619C64.5903 324.746 60.9839 323.018 57.2207 321.6C57.6047 321.59 57.9695 321.6 58.3343 321.629C62.8079 321.951 67.1471 324.779 70.8975 327.255C80.3727 333.488 87.9695 347.541 78.4911 359.137L78.4943 359.14Z"
        fill="#7D401A" />
    <path
        d="M318.032 136.094C319.517 133.555 320.701 130.787 321.43 127.93C321.965 125.9 322.739 122.609 321.206 120.823C319.386 118.698 315.709 120.564 313.798 121.539C312.854 122.022 311.936 122.521 311.034 123.079C307.203 125.352 303.619 128.127 300.035 130.761L297.907 139.772C297.77 141.693 296.89 143.848 297.594 145.726C298.07 147.01 299.123 149.158 300.525 149.759C300.717 149.844 300.925 149.91 301.13 149.92C302.496 150.012 304.736 149.309 305.859 148.498C310.422 145.197 315.152 141.033 318.029 136.097L318.032 136.094Z"
        fill="#8EB82E" />
    <path
        d="M318.032 136.094C319.517 133.555 320.701 130.787 321.43 127.93C321.965 125.9 322.739 122.609 321.206 120.823C319.386 118.698 315.709 120.564 313.798 121.539C312.854 122.022 311.936 122.521 311.034 123.079C310.835 123.408 310.656 123.752 310.493 124.117C309.981 125.27 309.648 126.521 309.03 127.631C307.661 130.041 305.238 131.841 304.157 134.409C303.338 136.337 304.09 138.905 304.227 140.862C304.291 141.726 303.629 142.373 303.331 143.161C303.014 143.986 303.008 144.784 302.483 145.506C301.814 146.406 301.274 146.82 301.11 148.002C300.998 148.777 300.864 149.293 300.531 149.756C300.723 149.841 300.931 149.907 301.136 149.917C302.502 150.009 304.742 149.306 305.866 148.495C310.429 145.194 315.158 141.03 318.035 136.094H318.032Z"
        fill="#6E2618" />
    <path
        d="M327.494 114.764C327.306 114.554 327.123 114.334 326.938 114.12C326.909 114.091 326.896 114.064 326.867 114.038C321.728 109.7 316.09 108.449 309.728 112.314C309.443 112.495 309.165 112.672 308.874 112.859C302.262 117.316 298.291 126.212 296.518 133.848C296.074 135.815 295.779 137.812 295.6 139.821C295.507 140.836 295.427 141.864 295.389 142.882C295.376 143.059 295.293 143.273 295.178 143.509C294.784 144.278 294.016 145.296 294 145.821C294.723 147.736 306.794 133.181 314.787 126.728C315.699 125.995 316.55 125.375 317.331 124.889C317.382 125.375 316.461 127.155 315.037 129.608C310.25 137.769 299.853 153.345 301.632 152.885C301.939 153.023 302.634 152.353 303.155 152.045C303.328 151.933 303.475 151.864 303.587 151.897C304.47 152.146 305.357 152.278 306.234 152.294C306.618 152.304 306.982 152.294 307.347 152.265C311.821 151.943 316.16 149.115 319.91 146.639C329.386 140.406 336.982 126.353 327.504 114.757L327.494 114.764Z"
        fill="#EDC28C" />
    <path opacity="0.3"
        d="M307.338 152.271C306.829 151.693 306.438 151.02 306.362 150.199C306.17 147.841 308.042 145.165 309.04 143.178C310.531 140.206 312.102 137.283 313.894 134.495C312.333 136.268 311.021 138.169 309.734 140.156C307.373 143.815 304.317 147.716 303.146 152.048C303.318 151.936 303.466 151.867 303.578 151.9C304.832 152.258 306.093 152.366 307.338 152.268V152.271Z"
        fill="#7D401A" />
    <path opacity="0.3"
        d="M309.488 129.45C306.877 130.997 305.238 133.178 302.522 135.624C300.602 137.362 298.448 139.811 295.661 139.834C295.642 139.834 295.616 139.828 295.597 139.828C295.504 140.843 295.424 141.871 295.386 142.889C295.373 143.066 295.29 143.279 295.174 143.516C296.576 142.856 298.41 140.948 299.338 140.179C301.482 138.429 303.456 136.123 305.306 134.045C306.416 132.803 308.051 131.739 309.491 129.454L309.488 129.45Z"
        fill="#7D401A" />
    <path opacity="0.3"
        d="M327.494 114.764C327.306 114.554 327.123 114.334 326.938 114.12C326.909 114.091 326.896 114.064 326.867 114.038C321.728 109.7 316.09 108.449 309.728 112.314C314.634 112.981 320.602 113.033 323.494 116.902C323.619 117.069 316.611 125.105 316.726 125.279C316.957 125.621 324.291 118.104 324.48 118.462C327.072 123.371 325.862 129.45 324.029 134.222C322.339 138.678 320.003 142.977 316.579 146.284C313.59 149.158 309.984 150.885 306.221 152.304C306.605 152.314 306.97 152.304 307.334 152.275C311.808 151.953 316.147 149.125 319.898 146.649C329.373 140.416 336.97 126.363 327.491 114.767L327.494 114.764Z"
        fill="#7D401A" />
</svg>
