<svg width="360" height="800" viewBox="0 0 360 800" fill="none" xmlns="http://www.w3.org/2000/svg">
    <path d="M360 0H0V800H360V0Z" fill="#F5ECE9" />
    <path
        d="M279.318 649.209C277.229 651.425 274.832 653.396 272.227 654.916C270.381 656.016 267.36 657.701 265.197 656.598C262.621 655.291 263.466 650.992 263.907 648.755C264.128 647.652 264.368 646.568 264.672 645.488C265.866 640.92 267.626 636.473 269.245 632.066L277.507 627.445C279.354 626.785 281.229 625.3 283.261 625.521C284.646 625.668 287.037 626.181 288.003 627.465C288.141 627.635 288.259 627.836 288.323 628.046C288.781 629.432 288.694 631.938 288.202 633.314C286.192 638.913 283.382 644.92 279.318 649.218V649.209Z"
        fill="#8EB82E" />
    <path
        d="M279.318 649.209C277.229 651.425 274.832 653.396 272.227 654.916C270.381 656.016 267.36 657.701 265.197 656.598C262.621 655.291 263.466 650.992 263.907 648.755C264.128 647.652 264.368 646.568 264.672 645.488C264.941 645.195 265.232 644.916 265.546 644.65C266.538 643.813 267.674 643.133 268.595 642.194C270.589 640.131 271.702 637.143 273.933 635.333C275.603 633.967 278.323 634.056 280.278 633.668C281.139 633.501 281.6 632.644 282.288 632.125C283.011 631.58 283.795 631.353 284.358 630.617C285.062 629.685 285.322 629.015 286.438 628.525C287.168 628.2 287.638 627.924 288 627.458C288.138 627.629 288.256 627.829 288.32 628.039C288.778 629.425 288.691 631.931 288.198 633.307C286.189 638.906 283.379 644.913 279.315 649.212L279.318 649.209Z"
        fill="#6E2618" />
    <path
        d="M260.95 664.719C260.694 664.581 260.429 664.453 260.17 664.319C260.134 664.296 260.102 664.292 260.07 664.269C254.435 660.128 251.69 654.64 253.766 647.031C253.866 646.693 253.965 646.355 254.074 646.003C256.662 637.977 264.32 631.481 271.328 627.596C273.139 626.608 275.018 625.767 276.941 625.038C277.91 624.673 278.896 624.312 279.885 623.997C280.051 623.938 280.243 623.793 280.445 623.606C281.094 622.995 281.882 621.928 282.397 621.767C284.467 622 273.443 638.378 269.267 648.368C268.794 649.507 268.413 650.552 268.147 651.491C268.64 651.412 270.138 649.98 272.157 647.849C278.87 640.709 291.344 625.783 291.373 627.744C291.59 628.023 291.12 628.926 290.957 629.544C290.893 629.754 290.864 629.921 290.928 630.03C291.411 630.874 291.776 631.757 292.032 632.654C292.144 633.048 292.234 633.429 292.304 633.813C293.19 638.519 291.59 643.764 290.17 648.299C286.608 659.76 274.874 671.386 260.954 664.719H260.95Z"
        fill="#EDC28C" />
    <path opacity="0.3"
        d="M292.304 633.813C291.6 633.442 290.838 633.222 290.006 633.363C287.645 633.8 285.523 636.453 283.843 638.02C281.328 640.361 278.886 642.768 276.637 645.369C277.955 643.278 279.466 641.412 281.072 639.55C284.022 636.128 287.027 631.921 290.96 629.547C290.896 629.757 290.867 629.924 290.931 630.033C291.619 631.232 292.064 632.506 292.304 633.816V633.813Z"
        fill="#7D401A" />
    <path opacity="0.3"
        d="M270.502 642.174C271.315 639.061 273.018 636.782 274.682 633.32C275.869 630.87 277.69 627.987 276.963 625.103C276.96 625.084 276.944 625.057 276.941 625.038C277.91 624.673 278.896 624.312 279.885 623.997C280.051 623.938 280.243 623.793 280.445 623.606C280.173 625.232 278.797 627.639 278.294 628.801C277.155 631.488 275.427 634.148 273.885 636.614C272.966 638.095 272.362 640.069 270.509 642.174H270.502Z"
        fill="#7D401A" />
    <path opacity="0.3"
        d="M260.95 664.719C260.694 664.581 260.429 664.453 260.17 664.319C260.134 664.296 260.102 664.292 260.07 664.269C254.435 660.128 251.69 654.64 253.766 647.031C255.741 651.921 257.395 658.069 261.968 660.016C262.166 660.102 268.16 650.703 268.362 650.775C268.758 650.92 263.363 660.519 263.76 660.614C269.274 661.97 274.906 659.087 279.091 655.908C283.005 652.966 286.592 649.396 288.912 644.969C290.925 641.11 291.648 636.92 292.029 632.654C292.141 633.048 292.23 633.429 292.301 633.813C293.187 638.519 291.587 643.764 290.166 648.299C286.605 659.76 274.87 671.386 260.95 664.719V664.719Z"
        fill="#7D401A" />
    <path
        d="M128.598 604.545C126.509 606.762 124.112 608.732 121.507 610.253C119.661 611.353 116.64 613.038 114.477 611.934C111.901 610.627 112.746 606.328 113.187 604.092C113.408 602.988 113.648 601.905 113.952 600.824C115.146 596.256 116.906 591.81 118.525 587.402L126.787 582.782C128.634 582.121 130.509 580.637 132.541 580.857C133.926 581.005 136.317 581.517 137.283 582.801C137.421 582.972 137.539 583.172 137.603 583.383C138.061 584.768 137.974 587.274 137.482 588.65C135.472 594.25 132.662 600.256 128.598 604.555V604.545Z"
        fill="#8EB82E" />
    <path
        d="M128.598 604.545C126.509 606.762 124.112 608.732 121.507 610.253C119.661 611.353 116.64 613.038 114.477 611.934C111.901 610.627 112.746 606.328 113.187 604.092C113.408 602.988 113.648 601.905 113.952 600.824C114.221 600.532 114.512 600.253 114.826 599.987C115.818 599.149 116.954 598.47 117.875 597.53C119.869 595.468 120.982 592.479 123.213 590.67C124.883 589.304 127.603 589.392 129.558 589.005C130.419 588.837 130.88 587.98 131.568 587.461C132.291 586.916 133.075 586.69 133.638 585.954C134.342 585.021 134.602 584.351 135.718 583.862C136.448 583.537 136.918 583.261 137.28 582.795C137.418 582.966 137.536 583.166 137.6 583.376C138.058 584.762 137.971 587.268 137.478 588.644C135.469 594.243 132.659 600.25 128.595 604.548L128.598 604.545Z"
        fill="#6E2618" />
    <path
        d="M110.23 620.056C109.974 619.918 109.709 619.79 109.45 619.655C109.414 619.632 109.382 619.629 109.35 619.606C103.715 615.465 100.97 609.977 103.046 602.368C103.146 602.03 103.245 601.691 103.354 601.34C105.942 593.314 113.6 586.818 120.608 582.933C122.419 581.944 124.298 581.103 126.221 580.374C127.19 580.01 128.176 579.649 129.165 579.333C129.331 579.274 129.523 579.13 129.725 578.943C130.374 578.332 131.162 577.264 131.677 577.103C133.747 577.337 122.723 593.714 118.547 603.704C118.074 604.844 117.693 605.888 117.427 606.828C117.92 606.749 119.418 605.317 121.437 603.186C128.15 596.046 140.624 581.12 140.653 583.08C140.87 583.36 140.4 584.263 140.237 584.88C140.173 585.09 140.144 585.258 140.208 585.366C140.691 586.21 141.056 587.094 141.312 587.99C141.424 588.384 141.514 588.765 141.584 589.149C142.47 593.855 140.87 599.1 139.45 603.635C135.888 615.097 124.154 626.722 110.234 620.056H110.23Z"
        fill="#EDC28C" />
    <path opacity="0.3"
        d="M141.584 589.149C140.88 588.778 140.118 588.558 139.286 588.699C136.925 589.136 134.803 591.79 133.123 593.356C130.608 595.698 128.166 598.105 125.917 600.706C127.235 598.614 128.746 596.749 130.352 594.887C133.302 591.465 136.307 587.258 140.24 584.883C140.176 585.094 140.147 585.261 140.211 585.369C140.899 586.568 141.344 587.842 141.584 589.153V589.149Z"
        fill="#7D401A" />
    <path opacity="0.3"
        d="M119.782 597.511C120.595 594.397 122.298 592.118 123.962 588.657C125.149 586.207 126.97 583.323 126.243 580.44C126.24 580.42 126.224 580.394 126.221 580.374C127.19 580.01 128.176 579.649 129.165 579.333C129.331 579.274 129.523 579.13 129.725 578.943C129.453 580.568 128.077 582.975 127.574 584.138C126.435 586.824 124.707 589.484 123.165 591.951C122.246 593.432 121.642 595.406 119.789 597.511H119.782Z"
        fill="#7D401A" />
    <path opacity="0.3"
        d="M110.23 620.056C109.974 619.918 109.709 619.79 109.45 619.655C109.414 619.632 109.382 619.629 109.35 619.606C103.715 615.465 100.97 609.977 103.046 602.368C105.021 607.258 106.675 613.406 111.248 615.353C111.446 615.438 117.44 606.039 117.642 606.112C118.038 606.256 112.643 615.855 113.04 615.951C118.554 617.307 124.186 614.424 128.371 611.245C132.285 608.302 135.872 604.732 138.192 600.305C140.205 596.447 140.928 592.256 141.309 587.99C141.421 588.384 141.51 588.765 141.581 589.149C142.467 593.855 140.867 599.1 139.446 603.635C135.885 615.097 124.15 626.722 110.23 620.056V620.056Z"
        fill="#7D401A" />
    <path
        d="M207.526 602.112C209.011 604.65 210.195 607.419 210.925 610.276C211.459 612.305 212.234 615.596 210.701 617.383C208.88 619.507 205.203 617.642 203.293 616.667C202.349 616.184 201.43 615.685 200.528 615.126C196.698 612.854 193.114 610.079 189.53 607.445L187.402 598.434C187.264 596.512 186.384 594.358 187.088 592.479C187.565 591.195 188.618 589.048 190.019 588.447C190.211 588.361 190.419 588.296 190.624 588.286C191.99 588.194 194.23 588.897 195.354 589.708C199.917 593.008 204.646 597.172 207.523 602.108L207.526 602.112Z"
        fill="#8EB82E" />
    <path
        d="M207.526 602.112C209.011 604.65 210.195 607.419 210.925 610.276C211.459 612.305 212.234 615.596 210.701 617.383C208.88 619.507 205.203 617.642 203.293 616.667C202.349 616.184 201.43 615.685 200.528 615.126C200.33 614.798 200.15 614.453 199.987 614.089C199.475 612.936 199.142 611.685 198.525 610.575C197.155 608.164 194.733 606.365 193.651 603.796C192.832 601.869 193.584 599.301 193.722 597.343C193.786 596.48 193.123 595.833 192.826 595.044C192.509 594.22 192.502 593.422 191.978 592.7C191.309 591.8 190.768 591.386 190.605 590.204C190.493 589.429 190.358 588.913 190.026 588.45C190.218 588.365 190.426 588.299 190.63 588.289C191.997 588.197 194.237 588.9 195.36 589.711C199.923 593.012 204.653 597.176 207.53 602.112H207.526Z"
        fill="#6E2618" />
    <path
        d="M216.989 623.442C216.8 623.652 216.618 623.872 216.432 624.085C216.403 624.115 216.39 624.141 216.362 624.167C211.222 628.506 205.584 629.757 199.222 625.892C198.938 625.711 198.659 625.534 198.368 625.346C191.757 620.89 187.786 611.993 186.013 604.358C185.568 602.391 185.274 600.394 185.094 598.384C185.002 597.369 184.922 596.341 184.883 595.323C184.87 595.146 184.787 594.933 184.672 594.696C184.278 593.928 183.51 592.91 183.494 592.384C184.218 590.47 196.288 605.025 204.282 611.478C205.194 612.21 206.045 612.831 206.826 613.317C206.877 612.831 205.955 611.051 204.531 608.598C199.744 600.437 189.347 584.86 191.126 585.32C191.434 585.182 192.128 585.852 192.65 586.161C192.822 586.273 192.97 586.342 193.082 586.309C193.965 586.059 194.851 585.928 195.728 585.911C196.112 585.901 196.477 585.911 196.842 585.941C201.315 586.263 205.654 589.09 209.405 591.566C218.88 597.8 226.477 611.852 216.998 623.448L216.989 623.442Z"
        fill="#EDC28C" />
    <path opacity="0.3"
        d="M196.832 585.934C196.323 586.512 195.933 587.186 195.856 588.007C195.664 590.365 197.536 593.041 198.534 595.028C200.025 598 201.597 600.923 203.389 603.711C201.827 601.938 200.515 600.036 199.229 598.049C196.867 594.391 193.811 590.489 192.64 586.158C192.813 586.269 192.96 586.338 193.072 586.305C194.326 585.947 195.587 585.839 196.832 585.938V585.934Z"
        fill="#7D401A" />
    <path opacity="0.3"
        d="M198.982 608.755C196.371 607.209 194.733 605.028 192.016 602.581C190.096 600.844 187.942 598.394 185.155 598.371C185.136 598.371 185.11 598.378 185.091 598.378C184.998 597.363 184.918 596.335 184.88 595.317C184.867 595.14 184.784 594.926 184.669 594.69C186.07 595.35 187.904 597.258 188.832 598.026C190.976 599.777 192.95 602.082 194.8 604.161C195.91 605.402 197.545 606.466 198.985 608.752L198.982 608.755Z"
        fill="#7D401A" />
    <path opacity="0.3"
        d="M216.989 623.442C216.8 623.652 216.617 623.872 216.432 624.085C216.403 624.115 216.39 624.141 216.361 624.167C211.222 628.506 205.584 629.757 199.222 625.892C204.128 625.225 210.096 625.172 212.989 621.304C213.114 621.136 206.105 613.1 206.221 612.926C206.451 612.585 213.785 620.102 213.974 619.744C216.566 614.834 215.357 608.755 213.523 603.984C211.833 599.527 209.497 595.228 206.073 591.921C203.085 589.048 199.478 587.32 195.715 585.901C196.099 585.892 196.464 585.901 196.829 585.931C201.302 586.253 205.641 589.08 209.392 591.557C218.867 597.79 226.464 611.842 216.985 623.438L216.989 623.442Z"
        fill="#7D401A" />
    <path
        d="M50.4065 630.026C51.8913 632.565 53.0753 635.333 53.8049 638.191C54.3393 640.22 55.1137 643.511 53.5809 645.297C51.7601 647.422 48.0833 645.557 46.1729 644.581C45.2289 644.099 44.3105 643.599 43.4081 643.041C39.5777 640.769 35.9937 637.993 32.4097 635.36L30.2817 626.348C30.1441 624.427 29.2641 622.273 29.9681 620.394C30.4449 619.11 31.4977 616.962 32.8993 616.361C33.0913 616.276 33.2993 616.21 33.5041 616.2C34.8705 616.108 37.1105 616.811 38.2337 617.622C42.7969 620.923 47.5265 625.087 50.4033 630.023L50.4065 630.026Z"
        fill="#8EB82E" />
    <path
        d="M50.4066 630.026C51.8914 632.565 53.0754 635.333 53.805 638.191C54.3394 640.22 55.1138 643.511 53.581 645.297C51.7602 647.422 48.0834 645.557 46.173 644.581C45.229 644.099 44.3106 643.599 43.4082 643.041C43.2098 642.713 43.0306 642.368 42.8674 642.003C42.3554 640.851 42.0226 639.599 41.405 638.489C40.0354 636.079 37.613 634.279 36.5314 631.711C35.7122 629.783 36.4642 627.215 36.6018 625.258C36.6658 624.394 36.0034 623.747 35.7058 622.959C35.389 622.135 35.3826 621.337 34.8578 620.614C34.189 619.714 33.6482 619.301 33.485 618.118C33.373 617.343 33.2386 616.828 32.9058 616.365C33.0978 616.279 33.3058 616.213 33.5106 616.204C34.877 616.112 37.117 616.814 38.2402 617.626C42.8034 620.926 47.533 625.09 50.4098 630.026H50.4066Z"
        fill="#6E2618" />
    <path
        d="M59.8689 651.356C59.6801 651.566 59.4977 651.786 59.3121 652C59.2833 652.029 59.2705 652.056 59.2417 652.082C54.1025 656.42 48.4641 657.672 42.1025 653.806C41.8177 653.626 41.5393 653.448 41.2481 653.261C34.6369 648.805 30.6657 639.908 28.8929 632.273C28.4481 630.305 28.1537 628.309 27.9745 626.299C27.8817 625.284 27.8017 624.256 27.7633 623.238C27.7505 623.061 27.6673 622.847 27.5521 622.611C27.1585 621.842 26.3905 620.824 26.3745 620.299C27.0977 618.384 39.1681 632.939 47.1617 639.392C48.0737 640.125 48.9249 640.745 49.7057 641.231C49.7569 640.745 48.8353 638.965 47.4113 636.512C42.6241 628.351 32.2273 612.775 34.0065 613.235C34.3137 613.097 35.0081 613.767 35.5297 614.075C35.7025 614.187 35.8497 614.256 35.9617 614.223C36.8449 613.974 37.7313 613.842 38.6081 613.826C38.9921 613.816 39.3569 613.826 39.7217 613.855C44.1953 614.177 48.5345 617.005 52.2849 619.481C61.7601 625.714 69.3569 639.767 59.8785 651.363L59.8689 651.356Z"
        fill="#EDC28C" />
    <path opacity="0.3"
        d="M39.712 613.849C39.2032 614.427 38.8128 615.1 38.736 615.921C38.544 618.279 40.416 620.956 41.4144 622.943C42.9056 625.915 44.4768 628.837 46.2688 631.626C44.7072 629.852 43.3952 627.951 42.1088 625.964C39.7472 622.305 36.6912 618.404 35.52 614.072C35.6928 614.184 35.84 614.253 35.952 614.22C37.2064 613.862 38.4672 613.754 39.712 613.852V613.849Z"
        fill="#7D401A" />
    <path opacity="0.3"
        d="M41.8624 636.67C39.2512 635.123 37.6128 632.943 34.896 630.496C32.976 628.759 30.8224 626.309 28.0352 626.286C28.016 626.286 27.9904 626.292 27.9712 626.292C27.8784 625.278 27.7984 624.25 27.76 623.232C27.7472 623.054 27.664 622.841 27.5488 622.604C28.9504 623.264 30.784 625.172 31.712 625.941C33.856 627.691 35.8304 629.997 37.68 632.076C38.7904 633.317 40.4256 634.381 41.8656 636.667L41.8624 636.67Z"
        fill="#7D401A" />
    <path opacity="0.3"
        d="M59.8688 651.356C59.68 651.567 59.4976 651.787 59.312 652C59.2832 652.03 59.2704 652.056 59.2416 652.082C54.1024 656.42 48.464 657.672 42.1024 653.806C47.008 653.14 52.976 653.087 55.8688 649.218C55.9936 649.051 48.9856 641.015 49.1008 640.841C49.3312 640.499 56.6656 648.016 56.8544 647.658C59.4464 642.749 58.2368 636.67 56.4032 631.898C54.7136 627.442 52.3776 623.143 48.9536 619.836C45.9648 616.962 42.3584 615.235 38.5952 613.816C38.9792 613.806 39.344 613.816 39.7088 613.846C44.1824 614.168 48.5216 616.995 52.272 619.471C61.7472 625.704 69.344 639.757 59.8656 651.353L59.8688 651.356Z"
        fill="#7D401A" />
    <path
        d="M339.162 659.271C337.632 660.883 335.885 662.315 333.981 663.422C332.634 664.22 330.429 665.442 328.851 664.637C326.976 663.678 327.597 660.542 327.92 658.913C328.083 658.108 328.259 657.317 328.483 656.529C329.363 653.195 330.653 649.957 331.84 646.742L337.872 643.386C339.219 642.91 340.592 641.826 342.07 641.99C343.082 642.102 344.826 642.476 345.526 643.415C345.626 643.544 345.712 643.688 345.757 643.839C346.09 644.851 346.022 646.677 345.661 647.678C344.186 651.76 342.128 656.138 339.158 659.264L339.162 659.271Z"
        fill="#8EB82E" />
    <path
        d="M339.162 659.271C337.632 660.883 335.885 662.315 333.981 663.422C332.634 664.22 330.429 665.442 328.851 664.637C326.976 663.678 327.597 660.542 327.92 658.913C328.083 658.108 328.259 657.317 328.483 656.529C328.678 656.315 328.893 656.112 329.123 655.921C329.846 655.31 330.678 654.814 331.35 654.131C332.806 652.627 333.626 650.453 335.254 649.136C336.474 648.144 338.461 648.21 339.885 647.931C340.515 647.813 340.851 647.186 341.357 646.808C341.885 646.411 342.454 646.25 342.87 645.711C343.386 645.031 343.574 644.545 344.387 644.187C344.922 643.954 345.264 643.75 345.53 643.412C345.629 643.54 345.715 643.685 345.76 643.836C346.093 644.847 346.026 646.673 345.664 647.675C344.189 651.757 342.131 656.135 339.162 659.261V659.271Z"
        fill="#6E2618" />
    <path
        d="M325.738 670.552C325.549 670.45 325.357 670.358 325.168 670.259C325.142 670.243 325.12 670.24 325.094 670.223C320.989 667.195 318.995 663.189 320.525 657.642C320.598 657.396 320.669 657.146 320.749 656.893C322.65 651.041 328.243 646.315 333.363 643.491C334.685 642.772 336.058 642.161 337.459 641.635C338.166 641.369 338.886 641.11 339.606 640.88C339.728 640.837 339.869 640.732 340.013 640.598C340.49 640.151 341.066 639.376 341.44 639.261C342.95 639.432 334.883 651.363 331.821 658.644C331.472 659.475 331.197 660.233 330.998 660.92C331.357 660.864 332.451 659.823 333.93 658.273C338.838 653.074 347.958 642.207 347.978 643.635C348.134 643.839 347.792 644.496 347.674 644.946C347.626 645.097 347.606 645.222 347.654 645.3C348.006 645.918 348.269 646.562 348.454 647.218C348.534 647.507 348.598 647.783 348.65 648.062C349.29 651.498 348.112 655.317 347.069 658.624C344.454 666.982 335.878 675.438 325.731 670.555L325.738 670.552Z"
        fill="#EDC28C" />
    <path opacity="0.3"
        d="M348.656 648.059C348.144 647.79 347.587 647.626 346.982 647.724C345.257 648.039 343.709 649.97 342.48 651.11C340.643 652.814 338.857 654.565 337.213 656.457C338.179 654.936 339.283 653.576 340.454 652.22C342.614 649.731 344.813 646.667 347.683 644.939C347.635 645.09 347.616 645.215 347.664 645.294C348.163 646.168 348.486 647.1 348.659 648.056L348.656 648.059Z"
        fill="#7D401A" />
    <path opacity="0.3"
        d="M332.742 654.122C333.338 651.852 334.582 650.194 335.805 647.668C336.675 645.882 338.006 643.78 337.478 641.678C337.478 641.665 337.466 641.645 337.462 641.632C338.17 641.366 338.89 641.107 339.61 640.877C339.731 640.834 339.872 640.729 340.016 640.594C339.818 641.78 338.81 643.534 338.442 644.381C337.606 646.338 336.339 648.276 335.213 650.072C334.541 651.149 334.099 652.588 332.742 654.122V654.122Z"
        fill="#7D401A" />
    <path opacity="0.3"
        d="M325.738 670.552C325.549 670.45 325.357 670.358 325.168 670.259C325.142 670.243 325.12 670.24 325.094 670.223C320.989 667.195 318.995 663.189 320.525 657.642C321.958 661.212 323.155 665.698 326.486 667.126C326.634 667.189 331.018 660.342 331.165 660.394C331.453 660.499 327.504 667.491 327.795 667.563C331.814 668.562 335.926 666.47 338.986 664.158C341.843 662.016 344.467 659.419 346.166 656.194C347.638 653.383 348.173 650.328 348.458 647.215C348.538 647.504 348.602 647.78 348.653 648.059C349.293 651.494 348.115 655.314 347.072 658.621C344.458 666.979 335.882 675.435 325.734 670.552H325.738Z"
        fill="#7D401A" />
</svg>
