<svg width="36" height="36" viewBox="0 0 36 36" fill="none" xmlns="http://www.w3.org/2000/svg">
    <path d="M12.8571 19.5714C12.3049 19.5714 11.8571 20.0191 11.8571 20.5714V34C11.8571 34.5523 11.4094 35 10.8571 35H2C1.4477 35 1 34.5523 1 34V14.5C1 14.1852 1.1482 13.8888 1.39998 13.7L1.4 13.7L18 1.25L34.6 13.7C34.8518 13.8888 35 14.1852 35 14.5V34C35 34.5523 34.5523 35 34 35H25.1428C24.5905 35 24.1428 34.5523 24.1428 34V20.5714C24.1428 20.0191 23.6951 19.5714 23.1428 19.5714H12.8571Z" stroke="black" stroke-width="2" stroke-linecap="round" stroke-linejoin="round"/>
</svg>
