<svg width="69" height="66" viewBox="0 0 69 66" fill="none" xmlns="http://www.w3.org/2000/svg">
<path d="M35.0041 53.5065L34.2294 53.0379L33.4538 53.5051L16.8538 63.5051L16.8511 63.5068C14.9525 64.6559 12.6285 62.9639 13.1287 60.8105C13.1287 60.8102 13.1288 60.81 13.1288 60.8098L17.5287 41.9305L17.7341 41.049L17.0501 40.4564L2.37011 27.7364L2.36958 27.7359C0.689387 26.2814 1.60204 23.5391 3.78677 23.3653L3.78677 23.3653L3.7947 23.3646L23.1147 21.7246L24.0152 21.6482L24.3685 20.8164L31.9285 3.01639L31.9309 3.01056C32.7763 0.996481 35.6793 0.996481 36.5247 3.01056L36.5267 3.01527L44.0867 20.8553L44.4397 21.6881L45.341 21.7646L64.6609 23.4046L64.6689 23.4053C66.8536 23.5791 67.7663 26.3214 66.0861 27.7759L66.0855 27.7764L51.4056 40.4964L50.7216 41.089L50.927 41.9705L55.3268 60.8498C55.8277 63.0035 53.5034 64.6961 51.6045 63.5468L51.6041 63.5465L35.0041 53.5065Z" stroke="black" stroke-width="3"/>
</svg>
