<svg width="72" height="92" viewBox="0 0 72 92" fill="none" xmlns="http://www.w3.org/2000/svg">
    <g opacity="0.2">
        <path d="M32.7281 92C47.4733 92 59.4267 90.2227 59.4267 88.0304C59.4267 85.8381 47.4733 84.0609 32.7281 84.0609C17.9829 84.0609 6.02954 85.8381 6.02954 88.0304C6.02954 90.2227 17.9829 92 32.7281 92Z" fill="#0F177C"/>
    </g>
    <path d="M64.985 76.4182C64.9715 76.323 64.958 76.2278 64.9418 76.1346C64.5697 73.9699 63.5529 72.4066 62.0701 71.7744C60.6554 71.1711 58.9943 71.5269 57.5125 72.7508C55.0902 74.7505 54.135 78.0895 53.7932 79.7701C53.6667 80.3925 53.6236 80.7889 53.6221 80.8032C53.6167 80.8564 53.5894 80.9015 53.5502 80.9319C53.513 80.9609 53.4657 80.9767 53.4148 80.9722C53.3108 80.9618 53.235 80.8695 53.2452 80.7656C53.2512 80.7047 53.2988 80.263 53.4354 79.597C53.6053 78.7698 53.9133 77.5958 54.452 76.369C54.5787 76.08 54.7181 75.7884 54.8718 75.4976C54.8697 75.4925 54.8664 75.4887 54.8646 75.4833C54.8589 75.4645 54.2782 73.5893 52.8422 72.6663C51.4167 71.7502 49.0153 72.4382 48.9914 72.4454C48.9207 72.4663 48.844 72.4439 48.7954 72.389C48.7712 72.3612 48.7559 72.3278 48.7508 72.2929C48.7454 72.2579 48.7499 72.2215 48.7649 72.1878C48.7939 72.1227 51.6612 65.6347 50.8552 62.3287C50.1371 59.3819 47.9221 57.0356 47.4199 56.533C47.1305 56.7031 46.8201 56.8577 46.4947 56.9992C43.3183 58.3792 38.7241 58.4538 38.5078 58.4565C30.3337 58.321 23.2779 55.8757 20.7418 54.8846C20.3283 54.7231 20.0308 54.5989 19.8726 54.5309C15.2571 60.3864 16.8571 69.5096 16.8738 69.6018C16.8909 69.6953 16.8352 69.7875 16.7438 69.8159C13.3915 70.857 12.617 74.063 12.5208 74.5317C12.6937 74.9042 12.8618 75.2931 13.0242 75.6982C13.5134 76.9188 13.9527 78.2851 14.3302 79.785C14.3556 79.8862 14.2939 79.9886 14.1923 80.014C14.0914 80.0394 13.988 79.9782 13.9625 79.877C13.908 79.66 13.852 79.4462 13.7948 79.2349C11.995 72.5964 8.86144 68.7087 5.72726 69.286C4.18249 69.5702 2.7962 70.34 1.91686 71.3675C1.87611 71.415 1.83866 71.4639 1.80031 71.5126C1.64901 71.7036 1.51299 71.9018 1.39854 72.1081C0.90269 73.0009 0.82629 73.9403 1.17803 74.8248C1.78084 76.3406 3.05267 79.0415 4.67444 81.5215C5.13583 82.2298 5.96904 83.388 6.28602 83.6856C6.30999 83.708 6.2303 83.6501 6.20213 83.6328C7.64264 85.411 9.24644 86.7814 10.852 87.025C14.7499 87.6148 22.4624 84.9316 24.2196 84.2934C23.5491 83.9053 22.9738 83.5092 22.4852 83.1319C21.3634 82.2653 20.7055 81.4997 20.4472 81.1689C20.3828 81.0868 20.3978 80.9683 20.4802 80.9041C20.5626 80.8403 20.6815 80.8546 20.7459 80.937C20.7609 80.9561 20.7795 80.9791 20.7972 81.0012C21.6798 82.1006 25.9867 86.7047 35.5441 86.4874C41.1579 86.3596 44.0272 84.3582 44.0272 84.3582C48.468 87.8638 54.123 88.6704 57.7923 87.9032C61.7744 87.0707 64.8343 79.9737 65.0689 77.1812C65.05 76.9194 65.0203 76.6666 64.985 76.4191V76.4182Z" fill="white"/>
    <path d="M60.045 79.4505C59.8095 79.3427 59.5549 79.2881 59.2882 79.2881C58.2779 79.2881 57.2323 80.0842 56.6864 81.269C55.9707 82.8227 56.3242 84.4579 57.4915 84.9919C57.7258 85.0994 57.9798 85.154 58.2462 85.154C58.6255 85.154 59.0096 85.0454 59.3874 84.8307C59.998 84.4839 60.5172 83.8955 60.8501 83.174C61.1763 82.466 61.289 81.7033 61.1671 81.0263C61.0346 80.2905 60.6257 79.7161 60.045 79.4508V79.4505Z" fill="#FC8888"/>
    <path d="M58.4389 77.8182C58.5413 77.8654 58.6546 77.8896 58.7738 77.8896C59.347 77.8896 59.9782 77.323 60.3824 76.4463C60.5957 75.9833 60.7066 75.5009 60.6946 75.0887C60.6751 74.4179 60.3509 74.1711 60.1595 74.0836C60.0582 74.0368 59.9456 74.0126 59.8266 74.0126C59.5735 74.0126 59.3107 74.1209 59.0462 74.3347C58.7244 74.5944 58.4299 74.9926 58.2162 75.4556C58.0101 75.903 57.8981 76.3693 57.9011 76.769C57.9047 77.2812 58.1009 77.6636 58.4389 77.8182Z" fill="#FC8888"/>
    <path d="M62.9647 75.3673C62.864 75.3207 62.7514 75.2965 62.6321 75.2965C62.3784 75.2965 62.1156 75.4049 61.8514 75.6183C61.5296 75.8783 61.2348 76.2762 61.0214 76.7392C60.8081 77.2022 60.6973 77.6843 60.7093 78.0968C60.7287 78.7675 61.0529 79.0144 61.2444 79.1019C61.3465 79.149 61.4595 79.1732 61.5787 79.1732C62.1519 79.1732 62.7834 78.6066 63.1873 77.7299C63.4006 77.2669 63.5115 76.7849 63.4995 76.3723C63.48 75.7016 63.1558 75.4547 62.9644 75.3673H62.9647Z" fill="#FC8888"/>
    <path d="M4.88984 77.0807C4.90182 76.6684 4.79097 76.1864 4.57765 75.7234C4.17348 74.8467 3.54191 74.2804 2.96846 74.2804C2.84922 74.2804 2.73627 74.3046 2.6326 74.3523C2.29584 74.5064 2.0999 74.8888 2.09601 75.401C2.09301 75.8007 2.20506 76.2672 2.41119 76.7144C2.81536 77.5911 3.44663 78.1577 4.01948 78.1577C4.13902 78.1577 4.25258 78.1332 4.35684 78.0852C4.54589 77.9989 4.87036 77.752 4.88984 77.081V77.0807Z" fill="#FC8888"/>
    <path d="M6.31084 78.2723C6.04419 78.2723 5.78953 78.3269 5.55404 78.4347C5.1238 78.6317 4.79004 78.9914 4.5893 79.4753C4.26992 80.2448 4.32984 81.2475 4.74929 82.1576C5.08216 82.8794 5.60137 83.4678 6.21167 83.8143C6.58948 84.029 6.97357 84.1379 7.35288 84.1379C7.61923 84.1379 7.87329 84.0833 8.10819 83.9755C8.40719 83.8388 8.65886 83.6245 8.8554 83.3391C9.3938 82.5573 9.41627 81.346 8.91263 80.2529C8.36645 79.0681 7.32112 78.272 6.31084 78.272V78.2723Z" fill="#FC8888"/>
    <path d="M6.04667 76.5517C6.31152 76.7654 6.57427 76.8738 6.82714 76.8738C6.94609 76.8738 7.05874 76.8496 7.1621 76.8015C7.35115 76.7153 7.67533 76.4684 7.6951 75.7974C7.70709 75.3848 7.59623 74.9027 7.38291 74.4397C7.16959 73.9768 6.87478 73.5789 6.5533 73.3189C6.28845 73.1054 6.02599 72.9971 5.77223 72.9971C5.65328 72.9971 5.54063 73.0213 5.43757 73.0687C5.24822 73.1553 4.92374 73.4021 4.90457 74.0729C4.89258 74.4851 5.00344 74.9675 5.21676 75.4305C5.43008 75.8935 5.72489 76.2914 6.04637 76.5514L6.04667 76.5517Z" fill="#FC8888"/>
    <g opacity="0.4">
        <path d="M7.72715 70.6106C10.151 71.7765 12.0616 75.5461 12.7102 77.3168C13.0802 78.3272 13.5012 78.9147 13.7948 79.2335C11.9951 72.595 8.86147 68.7073 5.72728 69.2846C4.18251 69.5688 2.79623 70.3386 1.91688 71.3661C1.90939 71.3965 1.9019 71.4285 1.89441 71.4622C2.8936 70.9491 5.75544 69.6619 7.72745 70.6103L7.72715 70.6106Z" fill="white"/>
    </g>
    <g opacity="0.3">
        <path d="M1.91684 71.3663C1.87609 71.4138 1.83864 71.4627 1.80029 71.5114C1.82965 71.4959 1.86081 71.4798 1.89437 71.4625C1.90216 71.4287 1.90965 71.3968 1.91684 71.3663Z" fill="#0F177C"/>
    </g>
    <g opacity="0.4">
        <path d="M1.91684 71.3663C1.87609 71.4138 1.83864 71.4627 1.80029 71.5114C1.82965 71.4959 1.86081 71.4798 1.89437 71.4625C1.90216 71.4287 1.90965 71.3968 1.91684 71.3663Z" fill="white"/>
    </g>
    <g opacity="0.4">
        <path d="M15.4111 71.7547C16.7306 70.781 18.1474 70.8296 18.1963 70.7565C18.2451 70.6834 17.5365 65.5228 18.3916 60.8491C19.108 56.9342 20.3549 55.3088 20.7414 54.8838C20.328 54.7223 20.0305 54.5981 19.8723 54.53C15.2568 60.3855 16.8567 69.5087 16.8735 69.601C16.8906 69.6947 16.8348 69.7866 16.7435 69.815C13.3912 70.8559 12.6167 74.0621 12.5205 74.5308C12.6934 74.9033 12.8615 75.2923 13.0238 75.6971C13.3232 74.9305 14.3116 72.5657 15.4108 71.7544L15.4111 71.7547Z" fill="white"/>
    </g>
    <g opacity="0.4">
        <path d="M53.0672 73.8481C53.8618 74.64 54.272 75.7463 54.452 76.3687C54.5788 76.0797 54.7181 75.7881 54.8718 75.4973C54.8697 75.4923 54.8664 75.4881 54.8646 75.483C54.8589 75.4642 54.2783 73.589 52.8422 72.666C51.4167 71.7499 49.0154 72.438 48.9914 72.4451L48.8895 72.8532C48.8895 72.8532 51.9039 72.689 53.0675 73.8481H53.0672Z" fill="white"/>
    </g>
    <g opacity="0.4">
        <path d="M60.9466 72.844C63.4956 73.3025 64.5359 75.0547 64.9415 76.1341C64.5694 73.9693 63.5525 72.4061 62.0698 71.7738C60.655 71.1705 58.994 71.5264 57.5122 72.7502C55.0898 74.7499 54.1347 78.089 53.7928 79.7696L54.1727 79.44C54.1727 79.44 57.1901 72.1688 60.9466 72.8443V72.844Z" fill="white"/>
    </g>
    <path d="M55.0548 88.8626C51.4496 88.8626 47.0388 87.6919 43.4369 84.7812C43.2182 84.6045 43.1847 84.2845 43.362 84.0666C43.5394 83.8486 43.8606 83.8152 44.0793 83.9919C48.4601 87.5319 54.09 88.3498 57.7261 87.5892C61.2791 86.8462 64.4771 80.2415 64.7468 77.1779C64.5568 74.6081 63.5363 72.7463 61.9436 72.0669C60.6433 71.5126 59.1028 71.8511 57.7165 72.9956C54.502 75.6493 53.9459 80.7827 53.9405 80.8343C53.9121 81.1134 53.6628 81.3167 53.3821 81.2887C53.1019 81.2606 52.8976 81.012 52.9258 80.7329C52.9485 80.5057 53.525 75.1365 57.0657 72.2132C58.757 70.8171 60.6808 70.4234 62.3448 71.1329C64.3096 71.9708 65.5569 74.1621 65.7669 77.1454C65.7687 77.1708 65.7684 77.1965 65.7666 77.2218C65.5221 80.2433 62.3101 87.6689 57.9358 88.5835C57.0684 88.7647 56.095 88.8623 55.0548 88.8623V88.8626Z" fill="#0F177C"/>
    <path d="M34.7654 87.1935C31.1123 87.1935 27.8451 86.4947 25.0429 85.1126C22.2266 83.7239 20.7139 82.0281 20.1941 81.3636C20.0209 81.1425 20.0607 80.8231 20.2827 80.6508C20.5047 80.4783 20.8253 80.518 20.9982 80.7392C21.743 81.6911 25.9426 86.4272 35.5348 86.1666C39.9738 86.0457 42.6661 84.6057 44.1428 83.4186C45.7379 82.1368 46.3009 80.8645 46.3066 80.8517C46.418 80.5947 46.717 80.4744 46.9753 80.5848C47.2336 80.6947 47.3543 80.9914 47.245 81.249C47.1464 81.481 44.7274 86.9326 35.5627 87.1818C35.2948 87.189 35.0291 87.1929 34.7654 87.1929V87.1935Z" fill="#0F177C"/>
    <path d="M12.102 87.8048C11.6193 87.8048 11.1642 87.7762 10.7472 87.7129C5.28115 86.8839 0.574928 75.1983 0.528189 75.0804C0.0967556 73.996 0.186338 72.8512 0.78675 71.77C1.65861 70.2008 3.50299 68.9861 5.60023 68.6002C9.2842 67.9244 12.7471 72.1787 14.6412 79.707C14.7098 79.9792 14.5438 80.255 14.2706 80.3231C13.9985 80.3914 13.7205 80.2261 13.6522 79.9538C11.9285 73.1019 8.84018 69.0354 5.78569 69.5993C4.00782 69.9264 2.39594 70.9715 1.67898 72.2619C1.36679 72.8243 1.07797 73.7046 1.47615 74.7061C2.63712 77.6252 6.86008 86.0956 10.9006 86.7084C15.214 87.3633 24.3754 83.8956 24.4674 83.8604C24.7307 83.7601 25.0252 83.8914 25.1259 84.1532C25.2266 84.4153 25.095 84.709 24.832 84.8093C24.4812 84.943 16.914 87.8051 12.1023 87.8051L12.102 87.8048Z" fill="#0F177C"/>
    <path d="M55.0458 75.9368C54.8265 75.9368 54.6237 75.7947 54.5577 75.5747C54.5523 75.558 54.0014 73.7915 52.6684 72.9347C51.5868 72.2392 49.7125 72.567 49.0818 72.7518C48.8907 72.8076 48.6851 72.7479 48.5542 72.5992C48.4233 72.4503 48.3912 72.2389 48.4718 72.0583C48.5003 71.9941 51.3235 65.6037 50.5436 62.4041C49.9078 59.7963 48.0533 57.6593 47.3621 56.9325C44.1407 58.685 38.7481 58.7724 38.5117 58.7754C29.4363 58.6253 21.7253 55.6471 19.9753 54.9208C15.6292 60.6727 17.1725 69.4548 17.189 69.5443C17.2351 69.7969 17.085 70.044 16.839 70.1204C13.4358 71.1771 12.8492 74.5004 12.8255 74.6413C12.7797 74.9177 12.5181 75.1061 12.2407 75.0607C11.9632 75.0159 11.7745 74.7562 11.8188 74.4798C11.8446 74.3195 12.4696 70.6736 16.117 69.2942C15.8369 67.3443 15.0303 59.4115 19.4175 53.9808C19.5631 53.8002 19.8132 53.7414 20.0251 53.8367C20.1081 53.8743 28.4602 57.5927 38.5138 57.7593C38.556 57.7587 44.2582 57.665 47.179 55.8635C47.375 55.7426 47.6281 55.7677 47.7965 55.925C47.9137 56.0346 50.6778 58.6492 51.5347 62.1638C52.2172 64.964 50.5586 69.6219 49.7784 71.5744C50.7231 71.4401 52.157 71.3962 53.2212 72.0804C54.875 73.1434 55.5081 75.1956 55.5342 75.2825C55.6153 75.5511 55.462 75.8344 55.1923 75.915C55.1435 75.9296 55.094 75.9365 55.0458 75.9365V75.9368Z" fill="#0F177C"/>
    <g opacity="0.3">
        <path d="M22.4852 83.1305L22.4879 83.1335C22.4879 83.1335 15.973 84.8994 11.1598 84.4371C10.4872 84.3723 9.70939 83.9824 8.89775 83.4004L8.89865 83.3983L8.41928 83.041C7.28527 82.1395 6.11141 80.9117 5.07807 79.6768L4.75509 79.284C4.38597 78.8296 4.03843 78.3798 3.72205 77.9496C3.08778 77.1625 2.29712 75.8398 2.27075 75.7482C2.16259 75.5515 2.09188 75.3685 2.01608 75.2356C0.630403 72.8142 1.71408 72.2464 1.89414 71.4625C1.86059 71.4798 1.82943 71.496 1.80007 71.5115C1.64877 71.7025 1.51274 71.9007 1.39829 72.107C0.902445 72.9998 0.826046 73.9392 1.17778 74.8237C1.78059 76.3395 3.05242 79.0404 4.6742 81.5204C4.62176 81.3338 4.58611 81.1481 4.56454 80.9652C4.62326 81.0801 4.69607 81.2177 4.77726 81.3583C4.92317 81.6108 5.84925 83.003 6.3499 83.7165C6.32862 83.7051 6.30705 83.6968 6.28578 83.6848C6.25732 83.6687 6.23005 83.6493 6.20189 83.632C7.6424 85.4102 9.24619 86.7806 10.8518 87.0242C14.7497 87.6141 22.4622 84.9308 24.2193 84.2926C23.5488 83.9045 22.9736 83.5084 22.4852 83.1311V83.1305Z" fill="#0F177C"/>
    </g>
    <g opacity="0.3">
        <path d="M18.7532 56.2143C18.7532 56.2143 29.016 60.2805 37.2692 60.7393C45.5225 61.1981 48.5335 57.4978 48.5335 57.4978L47.7582 56.6092C47.7582 56.6092 32.7113 60.6796 19.8717 54.5304L18.7529 56.2143H18.7532Z" fill="#0F177C"/>
    </g>
    <g opacity="0.3">
        <path d="M48.2876 57.4978C47.8972 57.0229 47.5757 56.6886 47.4196 56.5325C47.2561 56.6286 47.8229 57.0898 48.2876 57.4978Z" fill="#0F177C"/>
        <path d="M48.2876 57.4978C48.6333 57.9181 49.033 58.4491 49.4201 59.0644C49.0867 58.4584 48.799 58.1545 48.7987 58.1539C48.9398 58.0924 48.6438 57.8109 48.2876 57.4978Z" fill="#0F177C"/>
        <path d="M64.985 76.418C64.7885 77.2508 64.1383 79.1956 62.0096 82.2209C59.0893 86.3714 57.3921 86.3358 55.6145 85.2039C53.8369 84.072 53.5502 80.932 53.5502 80.932V80.9314C53.513 80.9604 53.4657 80.9762 53.4148 80.9717C53.3108 80.9613 53.2347 80.869 53.2452 80.7651C53.2512 80.7042 53.2988 80.2625 53.4355 79.5965C52.6843 79.5069 50.0002 79.0735 48.8712 77.3625C47.5518 75.3634 48.7508 72.2924 48.7508 72.2924C48.7454 72.2574 48.7499 72.221 48.7649 72.1873C48.7939 72.1222 51.6612 65.6342 50.8552 62.3279C50.5577 61.1074 50.0035 59.9903 49.4204 59.0641C50.0796 60.262 50.9179 62.6459 50.0745 66.2339C49.0858 70.4392 44.9641 78.0317 39.8681 81.7738C39.8411 81.7612 39.8141 81.7526 39.7884 81.7523C39.531 81.7502 22.5712 73.487 22.5712 73.487L21.3344 74.8114C21.3344 74.8114 35.2457 81.5992 35.7374 82.8051C36.0759 83.6359 35.3686 83.8603 35.3239 83.8681C29.0301 84.9708 22.1748 81.7018 20.7975 80.9995C21.6801 82.0989 25.9882 86.7469 35.5444 86.4857C44.2639 86.2484 46.5795 81.0305 46.6017 80.978C46.6425 80.8819 46.7536 80.8371 46.8498 80.8777C46.9463 80.9183 46.9912 81.029 46.9505 81.1248C46.9376 81.1553 46.1943 82.8248 44.0275 84.3565C48.4683 87.8621 54.1233 88.6687 57.7926 87.9015C61.7747 87.069 64.8346 79.972 65.0692 77.1795C65.0503 76.9177 65.0206 76.6649 64.9853 76.4174L64.985 76.418Z" fill="#0F177C"/>
    </g>
    <g opacity="0.3">
        <path d="M12.8067 74.0864C12.8067 74.0864 14.8743 75.6959 17.3559 76.0359C19.8376 76.3759 21.0753 74.6914 21.0753 74.6914C21.0753 74.6914 18.1116 75.4905 16.6309 74.981C15.1502 74.4714 13.4209 72.6912 13.4209 72.6912C13.4209 72.6912 12.5107 73.4288 12.8064 74.0861L12.8067 74.0864Z" fill="#0F177C"/>
    </g>
    <path d="M35.9444 18.9583C36.8402 18.9912 37.7666 19.0834 38.6891 19.2553C39.0606 19.3246 39.4315 19.4055 39.7994 19.5025C39.1445 17.5497 36.0771 8.10705 36.7671 4.55125C36.8259 4.24797 36.9121 3.98767 37.0293 3.77842C37.2941 3.30529 37.7082 3.13962 38.1945 3.31156C39.4294 3.74827 41.1633 6.47751 42.4108 9.94853C43.8582 13.9769 44.3717 18.1449 43.8292 21.4117C44.6636 22.0422 45.4333 22.692 46.1457 23.378C46.4465 18.4777 45.8317 14.5822 43.8163 9.30465C43.4433 8.32794 43.0223 7.30377 42.5501 6.21691C40.9949 2.63723 38.595 0.384113 36.7153 0.739334C35.1151 1.04142 34.1291 3.20469 34.0101 6.67482C33.7866 13.19 35 16.8664 35.628 18.3091C35.773 18.6419 35.8866 18.8559 35.9444 18.9583Z" fill="white"/>
    <path d="M40.6491 48.7301C39.999 48.5784 39.4867 48.2695 39.2647 48.1181C39.1349 48.2086 39.0007 48.294 38.8563 48.3677C38.3245 48.639 37.7232 48.7746 37.0964 48.7746C36.4696 48.7746 35.8488 48.6453 35.2296 48.3865C34.4698 48.0692 33.9224 47.6122 33.5287 47.131C33.4056 47.5707 33.2102 48.3429 33.0988 49.1641C33.446 49.5337 35.4779 51.4769 39.1388 50.7536C39.5454 50.0411 40.0742 49.2492 40.6488 48.7298L40.6491 48.7301Z" fill="white"/>
    <path d="M53.9385 41.1498C51.5908 30.6618 48.957 25.7418 43.5005 21.652C38.134 17.6296 29.1056 20.0484 29.0151 20.0729C28.9837 20.0816 28.9519 20.0798 28.9214 20.0729C28.8722 20.0622 28.8273 20.035 28.7985 19.9908C22.3054 10.0064 11.5954 4.87629 8.9954 5.4736C8.09988 5.68076 7.40299 6.36076 7.03358 7.38881C6.98205 7.5318 6.9374 7.68433 6.89816 7.84433C6.88827 7.88463 6.87868 7.92523 6.86969 7.96672C6.47122 9.80134 6.92242 12.6419 9.30849 15.7383C12.789 20.2556 18.9888 23.9675 19.9799 24.5442C20.287 24.2227 20.5905 23.9245 20.8916 23.6371C21.2841 23.2621 21.6718 22.9078 22.0523 22.5645C18.149 21.2428 12.7962 16.6541 10.6366 12.7285C9.64435 10.9246 9.40317 9.97984 9.83041 9.56999C10.385 9.03806 11.9196 9.61746 15.3054 11.6365C19.8061 14.3207 23.3726 18.7711 23.5542 20.9574C23.5952 21.4511 23.4685 21.8263 23.1773 22.0729C22.9813 22.2529 22.7776 22.4371 22.5706 22.6236C22.5685 22.6254 22.5664 22.6275 22.5643 22.6293C22.5445 22.6469 22.5247 22.6648 22.5047 22.6827C21.7533 23.3598 20.9746 24.0612 20.1779 24.9048C20.1674 24.9194 20.1552 24.9326 20.1417 24.9433C19.709 25.4033 19.2707 25.9072 18.8288 26.4708C17.095 28.6824 15.3012 31.8352 13.5332 37.0659C10.2855 46.6751 13.4542 50.0252 13.4865 50.0578C13.4913 50.0626 13.4961 50.0679 13.5003 50.073C17.799 55.3992 24.592 57.4443 29.5337 58.2222C35.4827 59.1583 41.2346 58.6658 44.2957 57.7619C47.9164 56.6933 51.7754 54.5951 53.5131 50.4906C53.7018 50.045 53.866 49.5763 54.0017 49.082C54.5896 46.9399 54.6507 44.3298 53.9388 41.1495L53.9385 41.1498Z" fill="white"/>
    <path d="M43.5194 16.247C42.8249 10.13 39.7051 4.25962 38.0638 3.67932C37.7577 3.57126 37.5443 3.66052 37.3715 3.96887C36.9556 4.71096 36.9754 6.19662 37.2264 7.97123C37.8631 12.4748 39.9882 18.8389 40.2567 19.6324C41.3913 19.9735 42.4863 20.4664 43.475 21.1574C43.7183 19.5691 43.7069 17.8992 43.5194 16.2473V16.247Z" fill="#FC8888"/>
    <path d="M23.0287 20.3548C22.8208 19.7034 22.3894 18.9139 21.7866 18.0652C20.3338 16.0193 17.8788 13.6258 15.1041 11.9712C12.6423 10.5029 11.0627 9.76318 10.3931 9.76318C10.2598 9.76318 10.163 9.79244 10.1019 9.85094C9.9548 9.99214 9.87331 10.5291 10.9801 12.5408C11.1239 12.8023 11.283 13.0667 11.454 13.333C13.8542 17.0652 18.8031 21.1482 22.3867 22.2628C22.5659 22.1013 22.7429 21.9413 22.9179 21.7807C23.1129 21.615 23.1938 21.3506 23.1639 20.9894C23.148 20.7971 23.1021 20.5846 23.0287 20.3548Z" fill="#FC8888"/>
    <path d="M42.0392 42.8773C41.6185 42.5779 40.8284 42.4277 40.0078 42.4277C39.1872 42.4277 38.3627 42.5731 37.8177 42.865C37.4447 43.0647 37.2604 43.3012 37.27 43.5674C37.3066 44.5859 39.4796 45.56 40.403 45.8832C41.6122 45.3707 42.443 44.577 42.5275 43.8483C42.5719 43.4659 42.4077 43.1391 42.0395 42.877L42.0392 42.8773Z" fill="#0F177C"/>
    <path d="M33.0446 49.6555C32.9832 50.365 33.0062 51.0677 33.2132 51.5832C33.5078 52.3163 34.4027 52.9172 35.4933 53.1142C36.6279 53.3199 37.6921 53.0253 38.3476 52.3283C38.4021 52.2017 38.6008 51.753 38.8971 51.1939C38.4243 51.2704 37.9773 51.3056 37.5581 51.3056C35.1649 51.3056 33.6507 50.2041 33.0443 49.6552L33.0446 49.6555Z" fill="#FC8888"/>
    <g opacity="0.3">
        <path d="M33.3978 56.1396C23.719 54.7802 14.6505 49.1158 14.5369 43.5647C14.4234 38.014 18.8288 26.4723 18.8291 26.4708C17.0953 28.6825 15.3015 31.8353 13.5335 37.066C10.2858 46.6752 13.4544 50.0253 13.4868 50.0578C13.4916 50.0626 13.4964 50.068 13.5006 50.0731C17.7993 55.3993 24.5923 57.4444 29.534 58.2223C35.483 59.1584 41.2349 58.6658 44.296 57.762C47.9167 56.6933 51.7756 54.5951 53.5134 50.4907C50.2587 54.1423 42.6907 57.4447 33.3981 56.1393L33.3978 56.1396Z" fill="#0F177C"/>
    </g>
    <g opacity="0.3">
        <path d="M11.454 16.615C8.35185 13.4234 7.23551 9.39117 6.91493 7.92163C6.89935 7.93685 6.88467 7.95178 6.86969 7.96671C6.47122 9.80132 6.92242 12.6419 9.30849 15.7383C12.789 20.2556 18.9888 23.9675 19.9799 24.5442C20.287 24.2227 20.5905 23.9245 20.8916 23.637C19.9988 23.1347 14.966 20.2284 11.454 16.615Z" fill="#0F177C"/>
    </g>
    <g opacity="0.3">
        <path d="M11.5067 11.4059C12.5757 10.9635 20.7948 16.7058 23.029 20.3548C23.029 20.3548 22.5904 19.3676 21.7868 18.0652C20.334 16.0193 17.879 13.6258 15.1044 11.9712C12.6425 10.5029 11.063 9.76318 10.3934 9.76318C10.26 9.76318 10.163 9.79244 10.1022 9.85094C9.95505 9.99214 9.87355 10.5291 10.9803 12.5408C11.1241 12.8023 11.2832 13.0667 11.4543 13.333C11.3278 12.5145 11.1538 11.5521 11.5067 11.4062V11.4059Z" fill="#0F177C"/>
    </g>
    <g opacity="0.3">
        <path d="M32.8192 44.6351C32.8192 44.6351 32.8192 44.6372 32.8186 44.639C32.8743 44.6689 32.9163 44.7223 32.9229 44.7895C32.925 44.8125 33.1718 47.1038 35.3808 48.0268C36.528 48.5062 37.7298 48.5041 38.6777 48.0202C39.4177 47.6429 39.9442 47.0062 40.1746 46.2154C40.0053 46.153 39.7275 46.045 39.4037 45.8987C39.0639 46.3316 37.8529 47.6614 36.0801 47.2274C33.973 46.7113 33.1715 44.4581 33.1715 44.4581L32.8192 44.6351Z" fill="#0F177C"/>
    </g>
    <g opacity="0.3">
        <path d="M39.588 47.8612C39.973 48.1018 40.8634 48.5624 41.8147 48.3895C42.3714 48.288 42.8295 47.7991 43.1665 47.2901C42.5092 47.548 40.9392 47.7758 41.0429 47.517C41.2173 47.0265 41.3248 46.1465 41.3593 45.8325C41.1199 45.9779 40.8586 46.1131 40.5764 46.234C40.4074 46.8773 40.0647 47.4319 39.5883 47.8612H39.588Z" fill="#0F177C"/>
    </g>
    <g opacity="0.3">
        <path d="M36.3112 9.54079C36.7912 13.3832 38.312 18.118 38.6892 19.2554C39.0607 19.3246 39.4316 19.4055 39.7995 19.5025C39.1446 17.5497 36.0772 8.10707 36.7672 4.55127C36.517 4.9053 35.8732 6.03663 36.3109 9.54049L36.3112 9.54079Z" fill="#0F177C"/>
    </g>
    <g opacity="0.3">
        <path d="M38.0638 3.67932C37.7577 3.57126 37.5443 3.66052 37.3715 3.96887C36.9556 4.71096 36.9754 6.19662 37.2264 7.97124C37.3034 7.18676 37.5389 5.52289 38.175 5.42707C39.0858 5.28976 40.3984 7.82944 41.4344 10.7497C42.1574 12.7873 43.0472 15.0592 43.5197 16.2476C42.8252 10.1306 39.7054 4.26021 38.0641 3.67992L38.0638 3.67932Z" fill="#0F177C"/>
    </g>
    <g opacity="0.4">
        <path d="M6.38855 8.50909L6.38921 8.50778C6.38921 8.50778 6.38921 8.50713 6.38921 8.50647L6.38855 8.50909Z" fill="white"/>
    </g>
    <g opacity="0.4">
        <path d="M10.1906 6.44434C12.4143 6.51986 20.4746 11.6807 23.6582 15.2052C26.8418 18.7296 28.7985 19.9908 28.7985 19.9908C22.3055 10.0064 11.5954 4.87629 8.99544 5.4736C8.09992 5.68076 7.40303 6.36106 7.03362 7.38881C6.98208 7.5318 6.93744 7.68433 6.89819 7.84433C6.90329 7.86881 6.90928 7.89538 6.91497 7.92165C7.55583 7.29449 8.73478 6.39509 10.1906 6.44464V6.44434Z" fill="white"/>
    </g>
    <g opacity="0.3">
        <path d="M6.91499 7.92143C6.9093 7.89516 6.90331 7.86859 6.89821 7.84412C6.88833 7.88441 6.87874 7.92501 6.86975 7.9665C6.88473 7.95158 6.89941 7.93695 6.91499 7.92143Z" fill="#0F177C"/>
    </g>
    <g opacity="0.4">
        <path d="M6.91499 7.92143C6.9093 7.89516 6.90331 7.86859 6.89821 7.84412C6.88833 7.88441 6.87874 7.92501 6.86975 7.9665C6.88473 7.95158 6.89941 7.93695 6.91499 7.92143Z" fill="white"/>
    </g>
    <g opacity="0.4">
        <path d="M35.5343 3.04589C37.0884 0.119338 40.1584 2.93275 41.6744 5.72706C42.6775 7.57601 43.4212 8.75122 43.8166 9.30495C43.4436 8.32824 43.0227 7.30407 42.5505 6.21721C40.9952 2.63753 38.5954 0.384112 36.7157 0.739632C35.1155 1.04172 34.1295 3.20499 34.0105 6.67512C33.787 13.1903 35.0004 16.8667 35.6284 18.3094C35.6284 18.3094 33.9806 5.97273 35.5343 3.04589Z" fill="white"/>
    </g>
    <g opacity="0.4">
        <path d="M45.6539 25.1367C51.0306 31.7044 53.6159 42.4274 54.0015 49.0822C54.5893 46.9402 54.6505 44.33 53.9386 41.1498C51.5909 30.6618 48.957 25.7418 43.5006 21.652C38.134 17.6296 29.1057 20.0484 29.0152 20.0729C28.9837 20.0815 28.952 20.0797 28.9214 20.0729L28.854 20.3786C28.854 20.3786 40.1201 18.3771 45.6539 25.1367Z" fill="white"/>
    </g>
    <path d="M36.0604 59.4283C33.965 59.4283 31.7077 59.2766 29.4238 58.9169C24.3647 58.1208 17.4048 56.019 12.9643 50.531C12.6363 50.1821 9.57457 46.5767 12.8646 36.8418C14.9876 30.5604 17.1531 27.2127 19.2132 24.9103C17.459 23.861 12.0221 20.4145 8.74885 16.1665C5.92326 12.499 5.6668 9.10501 6.36938 7.15189C6.82268 5.8913 7.69873 5.0519 8.83604 4.78892C12.0505 4.04475 22.7719 9.66113 29.1901 19.3035C30.9881 18.8712 38.8447 17.2826 43.9251 21.0906C49.537 25.2968 52.2377 30.3201 54.6276 40.9973C55.7284 45.9149 55.1253 49.9824 52.8354 53.0868C51.0279 55.5369 48.2223 57.3372 44.4964 58.4369C42.5421 59.0139 39.5233 59.4286 36.0607 59.4286L36.0604 59.4283ZM20.3682 25.1613C18.2623 27.404 16.0275 30.6664 13.8308 37.166C10.6334 46.6266 13.6771 49.8053 13.7082 49.8361C13.7211 49.8489 13.7334 49.8627 13.7451 49.877C17.9809 55.1253 24.6957 57.1438 29.5829 57.9131C35.4837 58.8417 41.1792 58.3554 44.2064 57.462C49.7959 55.8119 55.9684 51.6543 53.632 41.2176C51.3032 30.8138 48.699 25.9398 43.3118 21.9019C38.0714 17.9742 29.1874 20.3503 29.0987 20.3745C28.8839 20.4336 28.6559 20.3467 28.5352 20.1611C24.791 14.4038 19.9095 10.7369 17.3332 9.06352C13.4596 6.54742 10.2421 5.50623 9.06644 5.77817C8.27847 5.96055 7.66158 6.5698 7.32902 7.49398C6.74538 9.11725 6.97878 12.2005 9.55749 15.5474C12.8121 19.7715 18.4774 23.2888 19.9251 24.1482C20.4449 23.6151 20.9569 23.1357 21.4585 22.679C17.5459 21.1354 12.4616 16.6966 10.361 12.8784C9.25909 10.8751 9.04936 9.88411 9.61232 9.34411C10.3176 8.6671 11.7953 9.17815 15.4666 11.3677C19.6548 13.8653 23.6588 18.4235 23.867 20.9312C23.9284 21.6703 23.6432 22.0846 23.3891 22.3037C23.1902 22.4861 22.9889 22.6679 22.7845 22.8521C22.7803 22.856 22.7761 22.8598 22.7719 22.8634C22.7531 22.8804 22.7342 22.8975 22.715 22.9148C21.9708 23.5855 21.1996 24.2801 20.4104 25.1163C20.3973 25.1321 20.3832 25.147 20.3682 25.161V25.1613ZM10.3341 10.0826C10.3173 10.2181 10.3506 10.7456 11.2554 12.3904C13.352 16.2017 18.5478 20.6557 22.3106 21.9091C22.4433 21.7891 22.5748 21.6697 22.7051 21.5503C22.7102 21.5458 22.715 21.5413 22.7204 21.5369C22.8283 21.4455 22.872 21.27 22.851 21.0151C22.6905 19.0805 19.1269 14.7345 14.9432 12.2396C11.5229 10.1999 10.5866 10.0322 10.3344 10.0826H10.3341Z" fill="#0F177C"/>
    <path d="M26.4628 38.9371C27.2067 40.1833 28.4135 41.5824 30.0173 41.3415C30.7642 41.2487 31.4102 40.9036 31.9054 40.3356C32.4205 39.7475 32.7659 38.9526 32.9583 38.1911C33.02 37.9505 33.2659 37.8051 33.5074 37.8666C33.9146 37.9792 33.8574 38.3822 33.8184 38.701C33.7732 39.0663 33.6914 39.4216 33.5733 39.7723C33.2435 40.7478 32.6125 41.6332 31.6966 42.1571C30.2636 42.9845 28.4432 42.8484 27.216 41.7347C26.5485 41.1559 26.0679 40.4511 25.7105 39.6639C25.661 39.5496 25.6191 39.4472 25.5702 39.3138C25.4789 39.063 25.6089 38.7863 25.8603 38.6953C26.0973 38.609 26.3537 38.7207 26.4625 38.9374L26.4628 38.9371Z" fill="#0F177C"/>
    <path d="M44.9224 38.6696C45.2625 39.5917 45.7263 40.6407 46.5664 41.1854C47.3151 41.6517 48.272 41.5726 48.8715 40.8613C49.288 40.389 49.6041 39.6977 49.8339 39.0251C49.8875 38.8249 50.1005 38.7072 50.2986 38.7753C50.4466 38.8254 50.5404 38.9634 50.5418 39.1108C50.5407 39.7675 50.4049 40.3854 50.1428 40.9863C49.4138 42.7233 47.4158 43.3254 45.8476 42.2445C45.0815 41.7051 44.6321 40.8842 44.3738 40.0353C44.2546 39.6189 44.1773 39.2269 44.1587 38.7866C44.1506 38.5732 44.3175 38.3935 44.5317 38.3855C44.7172 38.378 44.873 38.5013 44.9224 38.6696Z" fill="#0F177C"/>
    <path d="M37.0968 49.0874C36.4436 49.0874 35.7665 48.9501 35.1083 48.6752C32.5062 47.588 32.2308 44.9666 32.2207 44.8555C32.1943 44.5761 32.4004 44.3286 32.6809 44.3024C32.9586 44.2764 33.2088 44.4806 33.236 44.7594C33.2456 44.851 33.4787 46.8925 35.5028 47.7385C36.5644 48.1821 37.6699 48.1835 38.5355 47.7421C39.1092 47.4495 39.5394 46.9824 39.7779 46.4021C38.7317 45.9928 36.6153 44.9934 36.565 43.5928C36.5536 43.2797 36.6581 42.6881 37.4838 42.2457C38.8378 41.5209 41.3901 41.5513 42.4495 42.3054C43.0257 42.7152 43.3022 43.2919 43.2285 43.9292C43.118 44.8833 42.2101 45.8385 40.8382 46.4606C40.5461 47.4167 39.9011 48.1868 38.9999 48.6462C38.4234 48.9403 37.773 49.0874 37.0968 49.0874ZM40.0203 42.7364C39.2617 42.7364 38.469 42.8713 37.9665 43.1406C37.8209 43.2185 37.5776 43.3764 37.5839 43.5564C37.6085 44.2412 39.2108 45.1161 40.3915 45.5468C41.572 45.0197 42.1583 44.3057 42.2152 43.8128C42.2458 43.5484 42.1284 43.3254 41.8566 43.1319C41.486 42.8681 40.7696 42.7364 40.0203 42.7364Z" fill="#0F177C"/>
    <path d="M41.3848 49.1308C40.0611 49.1308 39.0029 48.3185 38.9529 48.2794C38.7312 48.1063 38.6922 47.7872 38.8657 47.5663C39.0389 47.3457 39.3588 47.3066 39.5802 47.4788C39.5946 47.4899 40.6427 48.2851 41.7581 48.0818C42.6278 47.9233 43.3361 46.4164 43.5156 45.9012C43.6079 45.6364 43.8982 45.4962 44.1639 45.5872C44.43 45.6788 44.5711 45.9675 44.4794 46.2326C44.3895 46.4932 43.5527 48.7878 41.9414 49.0812C41.7521 49.1155 41.566 49.1311 41.3848 49.1311V49.1308Z" fill="#0F177C"/>
    <path d="M36.194 53.8815C35.9237 53.8815 35.6469 53.8567 35.3674 53.8062C34.0431 53.5671 32.9403 52.797 32.558 51.8445C31.853 50.0884 32.8525 46.8964 32.9687 46.5385C33.0553 46.2717 33.3423 46.1254 33.6105 46.2117C33.8786 46.2979 34.0254 46.5842 33.9391 46.8514C33.6551 47.7284 33.0229 50.2672 33.5047 51.4674C33.7558 52.0931 34.5776 52.6313 35.5492 52.8068C36.558 52.9895 37.4967 52.7448 38.0824 52.1525C38.308 51.64 39.4816 49.0866 40.8343 48.1875C41.0683 48.0319 41.385 48.0946 41.5414 48.3284C41.6975 48.5618 41.6342 48.8773 41.4 49.0328C40.387 49.706 39.3126 51.8609 38.9842 52.634C38.9618 52.6871 38.9303 52.7361 38.8913 52.7785C38.2376 53.4928 37.266 53.8818 36.194 53.8818V53.8815Z" fill="#0F177C"/>
    <path d="M37.5251 51.6229C34.2456 51.6229 32.5795 49.648 32.4989 49.5498C32.3207 49.3325 32.3527 49.0125 32.5705 48.8349C32.7881 48.6576 33.108 48.6889 33.2869 48.9048C33.369 49.0033 35.2919 51.2364 39.1631 50.4313C39.4378 50.3737 39.7087 50.5501 39.7665 50.8247C39.824 51.0994 39.6472 51.3683 39.3716 51.4259C38.7083 51.5638 38.0926 51.6229 37.5254 51.6229H37.5251Z" fill="#0F177C"/>
    <path d="M46.3138 24.3282C46.3015 24.3282 46.2892 24.3279 46.277 24.327C45.9959 24.3073 45.7844 24.0643 45.8045 23.7843C46.2296 17.8184 45.3356 13.4172 42.2616 6.34143C40.7651 2.89668 38.5067 0.720277 36.7737 1.04714C35.3305 1.31938 34.4377 3.37459 34.3241 6.68561C34.0314 15.2172 36.2311 18.8303 36.2533 18.8658C36.4022 19.1031 36.3306 19.4166 36.0927 19.5655C35.8548 19.7145 35.5414 19.6446 35.391 19.4082C35.2934 19.2545 32.9999 15.5417 33.3049 6.65069C33.4846 1.41072 35.4363 0.265056 36.5838 0.0486393C38.8266 -0.374343 41.4836 1.99251 43.1976 5.93785C46.3456 13.1838 47.26 17.7052 46.8219 23.8562C46.8028 24.1237 46.579 24.3282 46.3138 24.3282Z" fill="#0F177C"/>
    <path d="M43.6188 22.0044C43.5898 22.0044 43.5604 22.002 43.5308 21.9966C43.2533 21.9486 43.0679 21.6853 43.1161 21.4089C44.381 14.1829 39.949 4.67792 37.9587 3.97434C37.8322 3.92927 37.7609 3.91583 37.6456 4.12151C36.4277 6.29463 39.3521 16.0414 40.582 19.6136C40.6734 19.879 40.5317 20.168 40.265 20.259C39.9981 20.3501 39.7087 20.2086 39.6173 19.9432C39.1496 18.5847 35.0962 6.58656 36.7552 3.62599C37.0934 3.02241 37.6708 2.79435 38.2996 3.01674C40.9146 3.94121 45.4473 14.0038 44.1207 21.5835C44.0772 21.8303 43.8621 22.0044 43.6188 22.0044Z" fill="#0F177C"/>
    <path d="M40.4176 43.2024C41.3974 43.2024 42.1916 43.0459 42.1916 42.8528C42.1916 42.6598 41.3974 42.5033 40.4176 42.5033C39.4379 42.5033 38.6437 42.6598 38.6437 42.8528C38.6437 43.0459 39.4379 43.2024 40.4176 43.2024Z" fill="white"/>
    <path d="M49.2331 79.4256C48.9266 78.4863 48.3619 77.3534 47.5353 76.0287C45.3973 72.6021 41.8982 68.1451 38.4548 64.1368C37.9179 65.1165 35.69 68.8583 33.9364 71.3741C33.647 71.7893 36.2311 67.3198 37.3426 65.3547C37.7612 64.615 38.0677 64.0562 38.1908 63.8302C34.7385 59.8312 31.3784 56.3216 29.5436 54.7984C27.9601 53.4834 25.7529 52.0405 23.461 50.9524C22.8168 51.5745 18.8206 55.1628 16.7339 58.5025C16.4337 58.9828 19.9819 53.9497 21.8254 52.0509C22.3941 51.4652 22.8477 51.0193 23.0939 50.7808C20.3576 49.5327 17.5416 48.8256 15.5531 49.4775C15.0498 49.6426 14.5611 49.8984 14.0911 50.2139C13.5317 50.5897 12.9999 51.0521 12.504 51.5581C10.3532 53.7536 8.88479 56.7512 8.82546 56.8733C6.01006 63.4792 16.1934 69.4845 21.2666 72.4338C22.004 71.1968 26.8906 63.3789 27.9332 61.0079C27.9497 60.9703 25.5648 65.8514 23.8714 68.7586C22.8087 70.5827 21.8955 72.1176 21.5941 72.6233C26.1301 75.2436 33.0115 78.5558 38.3499 80.6244L40.4654 78.3746L38.7154 80.7656C40.5065 81.4495 42.1088 81.9847 43.3677 82.2937C46.5184 83.0668 48.4772 82.9632 49.1903 81.9856C49.2005 81.9719 49.2077 81.9558 49.2173 81.9415C49.5933 81.385 49.598 80.5433 49.2331 79.4254V79.4256Z" fill="#FF6F27"/>
    <path d="M3.29811 52.9116C4.57714 53.5543 8.31713 55.225 9.09041 55.5695C9.22554 55.3319 9.38103 55.0668 9.556 54.7826C9.44155 54.7886 9.30823 54.7934 9.15693 54.7934C8.24402 54.7934 6.75168 54.6322 5.80762 53.6919C5.26743 53.1537 4.913 52.6134 4.77518 52.1397C3.8398 51.5432 2.30162 50.6301 1.96996 50.6062C1.79529 50.597 1.52624 50.6719 1.27966 50.8331C1.45373 51.1773 2.09549 52.3074 3.29811 52.9116Z" fill="#BC7455"/>
    <path d="M9.12666 47.1913L8.88727 47.7599L8.05646 45.6788C8.05646 45.6788 7.55552 45.9588 7.2625 45.8979C6.96919 45.837 5.90648 43.0134 5.38127 42.0152C4.92287 41.1442 4.34343 39.3737 4.20352 38.9376C4.19992 38.9403 4.19663 38.9442 4.19303 38.9472C4.16067 39.2433 4.01986 40.7854 4.33235 42.8167C4.68049 45.0806 4.99208 46.5229 4.68049 46.6232C4.3689 46.7235 3.3796 46.888 4.24067 48.1385C5.10204 49.3889 6.65041 50.8223 6.65041 51.2238C6.65041 51.6253 5.70664 51.9543 6.13718 52.5017C6.54255 53.0172 8.45464 53.8327 9.39151 54.0247C8.39292 52.2713 5.67039 47.2059 4.98519 42.9627C4.96841 42.8597 5.03882 42.763 5.14219 42.7463C5.24465 42.7295 5.34262 42.7994 5.3591 42.9024C5.38307 43.0513 5.41003 43.2018 5.4391 43.3528C5.8939 44.3415 6.8796 46.4462 7.25471 46.9516C7.74936 47.6179 7.89617 46.4038 8.05197 46.7689C8.20776 47.134 8.01092 48.7773 8.34288 49.5805C8.67485 50.3838 9.35286 51.9083 9.4721 51.7531C9.59105 51.5978 9.84781 49.9823 9.96675 50.4158C10.086 50.8492 9.94848 52.2459 10.1133 52.6566C10.2235 52.9313 10.4222 53.1725 10.5426 53.3038C10.7823 52.9725 11.0387 52.6366 11.3126 52.3053C11.2817 51.808 11.1145 49.2364 10.888 48.2695C10.8389 48.0594 10.7391 47.9194 10.5833 47.8414C10.2289 47.6638 9.65396 47.8414 9.46251 47.9247C9.40739 47.9486 9.34447 47.9447 9.29264 47.9155C9.24051 47.8856 9.20605 47.8328 9.19886 47.7737C9.17789 47.5931 9.15332 47.3955 9.12696 47.1907L9.12666 47.1913Z" fill="#52E867"/>
    <path d="M8.31409 44.1518L8.33198 44.1444C8.32591 44.1473 8.32048 44.1486 8.31409 44.1518Z" fill="#52E867"/>
    <path d="M1.27993 50.833C1.19334 50.8894 1.10945 50.9563 1.03365 51.0345C0.85868 51.2145 0.659742 51.5226 0.706181 51.9688C0.767001 52.5536 4.8084 54.5715 8.73684 56.2142C8.83062 56.0366 8.94926 55.8177 9.09068 55.5694C8.31769 55.2249 4.5774 53.5542 3.29838 52.9115C2.09576 52.3073 1.454 51.1772 1.27993 50.833Z" fill="#BC7455"/>
    <g opacity="0.3">
        <path d="M1.27993 50.833C1.19334 50.8894 1.10945 50.9563 1.03365 51.0345C0.85868 51.2145 0.659742 51.5226 0.706181 51.9688C0.767001 52.5536 4.8084 54.5715 8.73684 56.2142C8.83062 56.0366 8.94926 55.8177 9.09068 55.5694C8.31769 55.2249 4.5774 53.5542 3.29838 52.9115C2.09576 52.3073 1.454 51.1772 1.27993 50.833Z" fill="#0F177C"/>
    </g>
    <g opacity="0.3">
        <path d="M26.8363 61.9963C26.2521 62.673 23.4355 66.796 22.6535 68.0193C17.3942 64.8073 12.0253 61.2635 11.3125 59.4035C10.3682 56.9399 11.7769 53.2047 12.5046 51.5585C10.3538 53.754 8.8854 56.7516 8.82607 56.8737C6.01067 63.4796 16.194 69.4849 21.2672 72.4342C22.0046 71.1972 26.993 63.1497 28.036 60.7787C27.8301 60.9187 27.2375 61.5318 26.8363 61.9963Z" fill="#0F177C"/>
    </g>
    <g opacity="0.3">
        <path d="M38.7158 80.7657C40.5069 81.4495 42.1092 81.9848 43.3681 82.2937C46.5188 83.0668 48.4776 82.9633 49.1907 81.9857C49.2009 81.9719 49.2081 81.9558 49.2176 81.9415C48.015 81.9236 44.2813 80.291 40.4661 78.3746L38.7161 80.7654L38.7158 80.7657Z" fill="#0F177C"/>
    </g>
    <g opacity="0.3">
        <path d="M40.9529 77.0212C40.857 76.7209 40.0017 77.326 39.3752 77.8206C36.5858 76.386 33.8795 74.8678 32.2212 73.7899C30.5742 72.7191 27.328 70.846 23.872 68.7592C22.8093 70.5833 21.8961 72.1182 21.5947 72.6239C26.1308 75.2442 33.0121 78.5564 38.3505 80.625L40.7998 77.2788C40.8367 77.2287 40.8936 77.2051 40.9517 77.2045C40.9679 77.1361 40.9697 77.074 40.9529 77.0215V77.0212Z" fill="#0F177C"/>
    </g>
    <path d="M9.96638 50.4163C9.84743 49.9829 9.59067 51.5984 9.47173 51.7536C9.35248 51.9089 8.67447 50.3844 8.34251 49.5811C8.01055 48.7778 8.20739 47.1346 8.05159 46.7695C7.8958 46.4044 7.74929 47.6184 7.25434 46.9522C6.87923 46.4468 5.89352 44.342 5.43872 43.3534C6.292 47.7925 9.21646 52.9817 9.92713 54.1981C10.1162 53.9094 10.3223 53.6091 10.5425 53.305C10.4218 53.1736 10.2234 52.9324 10.1132 52.6578C9.9484 52.2471 10.0856 50.8504 9.96668 50.4169L9.96638 50.4163Z" fill="#52E867"/>
    <g opacity="0.3">
        <path d="M9.96638 50.4163C9.84743 49.9829 9.59067 51.5984 9.47173 51.7536C9.35248 51.9089 8.67447 50.3844 8.34251 49.5811C8.01055 48.7778 8.20739 47.1346 8.05159 46.7695C7.8958 46.4044 7.74929 47.6184 7.25434 46.9522C6.87923 46.4468 5.89352 44.342 5.43872 43.3534C6.292 47.7925 9.21646 52.9817 9.92713 54.1981C10.1162 53.9094 10.3223 53.6091 10.5425 53.305C10.4218 53.1736 10.2234 52.9324 10.1132 52.6578C9.9484 52.2471 10.0856 50.8504 9.96668 50.4169L9.96638 50.4163Z" fill="#0F177C"/>
    </g>
    <path d="M6.1368 52.5023C5.70627 51.9545 6.65003 51.6259 6.65003 51.2244C6.65003 50.8229 5.10166 49.3895 4.24029 48.139C3.37892 46.8883 4.36852 46.7241 4.68011 46.6238C4.9917 46.5235 4.68011 45.0811 4.33197 42.8173C4.01948 40.786 4.1606 39.2436 4.19265 38.9478C3.65306 39.4251 3.79747 43.3209 4.0776 45.9808C4.0833 46.034 4.06592 46.0871 4.02997 46.1268C3.99401 46.1665 3.94278 46.1892 3.88915 46.1892C3.88496 46.1892 3.40139 46.1967 3.15122 46.5283C2.96726 46.7725 2.94389 47.1426 3.08171 47.6289C3.53472 49.2259 5.73533 50.7966 5.7578 50.8125C5.82191 50.8578 5.85128 50.9381 5.8315 51.0139C5.81173 51.0898 5.74671 51.1456 5.66852 51.1539C5.46898 51.1754 5.21192 51.2539 5.12263 51.5065C5.08039 51.6256 5.07589 51.7856 5.12263 51.979C5.12263 51.9793 5.12263 51.9799 5.12293 51.9802C5.21251 52.3498 5.49205 52.8441 6.07538 53.4253C7.09075 54.4366 8.90217 54.4417 9.60745 54.4005C9.54992 54.302 9.47592 54.1742 9.39113 54.0253C8.45426 53.8336 6.54187 53.0178 6.1368 52.5023Z" fill="#52E867"/>
    <g opacity="0.3">
        <path d="M6.1368 52.5023C5.70627 51.9545 6.65003 51.6259 6.65003 51.2244C6.65003 50.8229 5.10166 49.3895 4.24029 48.139C3.37892 46.8883 4.36852 46.7241 4.68011 46.6238C4.9917 46.5235 4.68011 45.0811 4.33197 42.8173C4.01948 40.786 4.1606 39.2436 4.19265 38.9478C3.65306 39.4251 3.79747 43.3209 4.0776 45.9808C4.0833 46.034 4.06592 46.0871 4.02997 46.1268C3.99401 46.1665 3.94278 46.1892 3.88915 46.1892C3.88496 46.1892 3.40139 46.1967 3.15122 46.5283C2.96726 46.7725 2.94389 47.1426 3.08171 47.6289C3.53472 49.2259 5.73533 50.7966 5.7578 50.8125C5.82191 50.8578 5.85128 50.9381 5.8315 51.0139C5.81173 51.0898 5.74671 51.1456 5.66852 51.1539C5.46898 51.1754 5.21192 51.2539 5.12263 51.5065C5.08039 51.6256 5.07589 51.7856 5.12263 51.979C5.12263 51.9793 5.12263 51.9799 5.12293 51.9802C5.21251 52.3498 5.49205 52.8441 6.07538 53.4253C7.09075 54.4366 8.90217 54.4417 9.60745 54.4005C9.54992 54.302 9.47592 54.1742 9.39113 54.0253C8.45426 53.8336 6.54187 53.0178 6.1368 52.5023Z" fill="#0F177C"/>
    </g>
    <path d="M7.26253 45.8979C7.55585 45.9588 8.05649 45.6788 8.05649 45.6788L8.8873 47.7599L9.12669 47.1913C8.97029 45.9814 8.7333 44.4773 8.55983 44.1537C8.53376 44.1047 8.51219 44.1023 8.49781 44.1009C8.45377 44.0955 8.39564 44.1134 8.33063 44.1444L8.31385 44.1513C8.09843 44.2615 7.80632 44.5262 7.62386 44.7361C7.58012 44.7862 7.5136 44.8104 7.44769 44.7982C7.38208 44.7865 7.32755 44.7414 7.30388 44.6794C6.50243 42.5695 4.97234 39.1412 4.27905 38.9233C4.2389 38.9107 4.22542 38.9197 4.21553 38.9266C4.21134 38.9295 4.20744 38.9346 4.20325 38.9379C4.34316 39.374 4.9226 41.1445 5.381 42.0155C5.90621 43.0134 6.96922 45.8373 7.26223 45.8982L7.26253 45.8979Z" fill="#52E867"/>
    <g opacity="0.4">
        <path d="M7.26253 45.8979C7.55585 45.9588 8.05649 45.6788 8.05649 45.6788L8.8873 47.7599L9.12669 47.1913C8.97029 45.9814 8.7333 44.4773 8.55983 44.1537C8.53376 44.1047 8.51219 44.1023 8.49781 44.1009C8.45377 44.0955 8.39564 44.1134 8.33063 44.1444L8.31385 44.1513C8.09843 44.2615 7.80632 44.5262 7.62386 44.7361C7.58012 44.7862 7.5136 44.8104 7.44769 44.7982C7.38208 44.7865 7.32755 44.7414 7.30388 44.6794C6.50243 42.5695 4.97234 39.1412 4.27905 38.9233C4.2389 38.9107 4.22542 38.9197 4.21553 38.9266C4.21134 38.9295 4.20744 38.9346 4.20325 38.9379C4.34316 39.374 4.9226 41.1445 5.381 42.0155C5.90621 43.0134 6.96922 45.8373 7.26223 45.8982L7.26253 45.8979Z" fill="white"/>
    </g>
    <g opacity="0.4">
        <path d="M35.958 69.8813C36.6725 68.9503 38.3219 66.522 38.3219 66.522C38.3219 66.522 46.1362 74.5562 49.2332 79.4255C48.9268 78.4861 48.362 77.3532 47.5354 76.0285C45.3974 72.6019 41.8983 68.1449 38.4549 64.1366C37.918 65.1163 35.6901 68.8581 33.9365 71.3739C34.3991 71.1013 35.4397 70.5563 35.958 69.8807V69.8813Z" fill="white"/>
    </g>
    <g opacity="0.4">
        <path d="M18.1103 50.7279C20.0569 51.2426 21.3509 51.8214 21.8261 52.0509C22.3947 51.4652 22.8483 51.0193 23.0946 50.7808C20.3583 49.5327 17.5423 48.8256 15.5538 49.4772C15.0505 49.6423 14.5618 49.8981 14.0917 50.2136C13.6096 50.6172 13.0134 51.1205 13.0134 51.1205C13.0134 51.1205 15.6182 50.0685 18.1103 50.7276V50.7279Z" fill="white"/>
    </g>
    <g opacity="0.4">
        <path d="M29.5442 54.7987C27.9608 53.4838 25.7536 52.0408 23.4616 50.9528C22.8174 51.5748 18.7964 55.4435 16.71 58.7832C17.2585 58.5357 18.5543 57.9214 19.265 57.0467C19.7902 56.4005 20.8994 55.1951 21.7709 54.2629C21.9342 54.9253 22.5325 55.4172 23.248 55.4172C24.0614 55.4172 24.7238 54.7814 24.7664 53.9817C27.5902 55.6891 33.1985 59.5443 37.3436 65.355C37.7621 64.6154 38.0686 64.0566 38.1921 63.8306C34.7397 59.8315 31.3796 56.322 29.5448 54.7987H29.5442Z" fill="white"/>
    </g>
    <g opacity="0.4">
        <path d="M24.9698 57.4674C25.3171 57.4674 25.5987 57.1868 25.5987 56.8408C25.5987 56.4948 25.3171 56.2142 24.9698 56.2142C24.6225 56.2142 24.3409 56.4948 24.3409 56.8408C24.3409 57.1868 24.6225 57.4674 24.9698 57.4674Z" fill="white"/>
    </g>
    <path d="M46.828 83.4988C45.8408 83.4988 44.6349 83.3224 43.201 82.9705C38.0555 81.7075 27.2769 76.7338 21.0771 73.1305C15.8885 70.115 5.09189 63.8405 8.18443 56.5972C8.18712 56.5907 8.19012 56.5841 8.19341 56.5775C8.31895 56.3151 11.3141 50.1346 15.3351 48.8161C19.5626 47.4304 26.5689 51.4217 29.9916 54.2638C33.7337 57.3709 43.7591 68.6571 48.1292 75.6613C50.1575 78.912 50.6896 81.115 49.7564 82.3956C49.2198 83.132 48.2517 83.4991 46.828 83.4991V83.4988ZM9.1183 57.0056C6.71815 62.6578 14.0756 67.8846 21.5909 72.2526C27.7308 75.8213 38.3812 80.7409 43.4448 81.9839C47.1959 82.9045 48.4989 82.3911 48.9312 81.7983C49.3804 81.1824 49.4556 79.7105 47.2633 76.1974C42.6551 68.8112 32.6096 57.7596 29.3391 55.0441C25.9436 52.2253 19.2456 48.6024 15.6542 49.7811C12.1123 50.9423 9.24743 56.7408 9.1183 57.0059V57.0056Z" fill="#0F177C"/>
    <path d="M9.17071 55.1112C8.20478 55.1112 6.60548 54.9384 5.58112 53.9175C4.61639 52.956 4.20892 51.9924 4.46359 51.2739C4.51782 51.1205 4.60051 50.9853 4.70687 50.8706C3.95126 50.2297 2.76242 49.0626 2.40948 47.8175C2.20845 47.1089 2.27107 46.5328 2.59584 46.1053C2.80976 45.8235 3.09139 45.671 3.33797 45.5886C3.28164 44.9698 3.18726 43.8152 3.14652 42.6349C3.03357 39.3483 3.40478 38.6331 3.82303 38.3498C4.01867 38.2173 4.25536 38.1848 4.49025 38.2585C4.91809 38.3931 5.5224 38.894 6.76247 41.5883C7.13129 42.3901 7.46205 43.1853 7.68166 43.7301C7.95221 43.5307 8.27069 43.3734 8.57689 43.408C8.83575 43.437 9.04907 43.5853 9.1776 43.8253C9.43287 44.3017 9.68753 46.0545 9.82176 47.1032C10.148 47.0489 10.548 47.0444 10.8979 47.2193C11.1373 47.339 11.448 47.591 11.57 48.1116C11.8336 49.2366 12.0095 52.2229 12.017 52.3494C12.0332 52.6294 11.8183 52.8697 11.5373 52.8861C11.2542 52.9032 11.0151 52.6885 10.9986 52.4082C10.9968 52.3781 10.8206 49.3829 10.5768 48.3423C10.5381 48.1766 10.4701 48.1423 10.441 48.1277C10.2427 48.0274 9.81546 48.1226 9.58956 48.2187C9.44156 48.2817 9.27138 48.2718 9.13266 48.1913C8.99364 48.1107 8.89987 47.9701 8.88129 47.811C8.73418 46.5516 8.50678 45.0743 8.34889 44.5041C8.20508 44.6053 8.01333 44.7778 7.86712 44.9453C7.74938 45.0799 7.56931 45.1438 7.39254 45.1119C7.21608 45.0805 7.06867 44.959 7.00545 44.7919C6.14229 42.5199 4.93337 39.9662 4.33266 39.3477C4.04204 40.2068 4.11874 43.294 4.39797 45.9465C4.41325 46.0895 4.36652 46.2325 4.26974 46.3393C4.17297 46.4462 4.03545 46.5074 3.89074 46.5074C3.89284 46.5074 3.55638 46.5205 3.40747 46.7214C3.25917 46.9214 3.31699 47.2775 3.39189 47.5411C3.81314 49.0262 5.92387 50.5363 5.94514 50.5512C6.11772 50.6736 6.19651 50.8894 6.14288 51.0936C6.08925 51.2978 5.91458 51.4479 5.70426 51.4703C5.54727 51.4871 5.45379 51.5345 5.42622 51.6115C5.35132 51.8232 5.523 52.4205 6.30347 53.1984C7.03691 53.9291 8.25721 54.0805 9.05986 54.0924C8.00764 52.2467 5.36031 47.2892 4.67002 43.0128C4.62538 42.7358 4.81443 42.4752 5.09246 42.4307C5.3699 42.3856 5.63205 42.5746 5.6767 42.8516C6.49432 47.9163 10.3221 54.2351 10.3607 54.2984C10.45 54.4449 10.4593 54.6267 10.385 54.7817C10.3104 54.9366 10.1627 55.0434 9.99193 55.0658C9.95388 55.0709 9.636 55.1106 9.17191 55.1106L9.17071 55.1112Z" fill="#0F177C"/>
    <path d="M8.82523 56.964C8.75962 56.964 8.69311 56.9515 8.62899 56.9249C8.60862 56.9162 6.54403 56.0562 4.49262 55.0774C0.108474 52.9852 0.0470541 52.3939 0.010502 52.0404C-0.0473221 51.484 0.137835 50.9545 0.531219 50.5497C0.935987 50.1333 1.5334 49.8781 2.01996 49.9112C2.57963 49.9512 4.26102 50.9813 5.21407 51.5918C5.45076 51.7434 5.51937 52.0578 5.36687 52.2939C5.21467 52.53 4.89889 52.5984 4.6622 52.4464C3.58541 51.7563 2.23598 50.9781 1.93338 50.9231C1.83691 50.9196 1.50524 51.0082 1.26376 51.2566C1.08909 51.4363 1.00759 51.6491 1.02108 51.8906C1.44142 52.541 5.47174 54.5109 9.02178 55.987C9.28154 56.095 9.40437 56.3927 9.29592 56.6518C9.21442 56.8467 9.02477 56.964 8.82523 56.964Z" fill="#0F177C"/>
    <path d="M23.4574 50.7649C22.6484 52.0903 21.728 53.2556 20.6459 54.3347C20.2881 54.6861 19.925 55.0341 19.5868 55.4037C18.2361 56.8798 16.8942 58.395 15.8815 60.1302C15.8531 60.1825 15.7638 60.1431 15.7904 60.0851L16.087 59.3816C17.0503 57.3216 18.5055 55.458 19.8932 53.6643C20.5254 52.8607 21.2789 52.1676 22.0885 51.5425C22.4977 51.2327 22.919 50.9362 23.387 50.6915C23.4307 50.6676 23.4861 50.7207 23.4574 50.7649Z" fill="#0F177C"/>
    <path d="M21.2901 72.6654C21.6287 71.5514 22.1131 70.5114 22.6386 69.4833C23.154 68.4612 23.8398 67.5394 24.4465 66.572C25.5002 64.858 27.0665 62.4675 28.0058 60.7195C28.0184 60.6938 28.0504 60.6828 28.0759 60.6965C28.0987 60.7084 28.1083 60.7353 28.0999 60.7586C27.2939 62.8705 26.1902 64.9621 25.1547 66.9753C24.8884 67.4821 24.6379 67.9982 24.38 68.5102C23.8631 69.5364 23.219 70.4863 22.52 71.3991C22.1647 71.8537 21.7974 72.3012 21.3779 72.7173C21.3426 72.7537 21.2727 72.7164 21.2904 72.6654H21.2901Z" fill="#0F177C"/>
    <path d="M38.4644 63.8309C38.3119 64.6945 37.9952 65.4906 37.6255 66.2718C37.2666 67.0464 36.7243 67.7135 36.2485 68.4162C35.4195 69.6496 34.5291 70.8562 33.5584 71.9843L33.1254 72.4553C33.0865 72.4992 33.0098 72.4445 33.0448 72.3932C33.9625 70.9741 34.7472 69.4816 35.5492 67.9971C35.7491 67.6264 35.9273 67.2428 36.1116 66.8634C36.4789 66.0983 36.9634 65.407 37.4919 64.7416C37.7624 64.4097 38.0441 64.0837 38.3745 63.7825C38.4093 63.7488 38.4746 63.7813 38.4644 63.8306V63.8309Z" fill="#0F177C"/>
    <path d="M38.3785 80.8205C38.3608 80.3991 38.4687 80.0414 38.6409 79.6859C38.7949 79.3513 39.1122 79.1418 39.3567 78.8806C39.84 78.365 40.3828 77.8274 40.9117 77.3597C40.9512 77.3233 41.0174 77.3707 40.994 77.4197C40.8481 77.7555 40.686 78.0797 40.5255 78.4047C40.4044 78.6462 40.1495 79.125 40.0158 79.3597C39.8409 79.6713 39.7375 80.0367 39.4649 80.2847C39.1775 80.557 38.8692 80.7683 38.4606 80.8805C38.421 80.8913 38.38 80.8614 38.3782 80.8205H38.3785Z" fill="#0F177C"/>
    <g opacity="0.3">
        <path d="M42.6924 61.3834C42.6924 61.3834 41.2669 64.1058 40.8283 64.864L40.3896 65.6222L41.541 67.13C41.541 67.13 42.0126 66.8679 42.166 66.387C42.3194 65.9064 42.824 62.7858 42.824 62.7401C42.824 62.6945 42.6924 61.3834 42.6924 61.3834Z" fill="#0F177C"/>
    </g>
    <path d="M51.2306 62.7402C50.9508 61.9276 50.6503 61.2655 50.3965 60.8124C50.38 60.7829 50.3752 60.7512 50.3752 60.7199L50.3731 60.7205C50.3731 60.7205 46.2143 58.1026 43.2503 61.5933C43.2524 61.7115 43.2656 62.9739 42.9579 64.624C42.5462 66.8327 41.559 69.7368 39.193 71.5326C37.197 73.0479 36.0397 75.0461 35.9336 77.1598C35.9096 77.6401 35.9429 78.1072 36.0289 78.5499C36.1017 78.9236 36.2125 79.2798 36.3584 79.6126C36.5975 80.158 36.9313 80.6403 37.3504 81.0302C37.9712 81.6075 39.0237 81.8508 40.3127 81.7168C43.0714 81.429 47.1113 79.3532 49.9177 75.3637C53.0274 70.9431 52.2765 65.7784 51.2303 62.7402H51.2306Z" fill="white"/>
    <path d="M21.6076 69.8389C19.7234 66.8219 15.0235 68.398 14.6723 68.521L14.1064 68.9088C14.0737 68.9311 14.0363 68.9419 13.9994 68.9419C13.9392 68.9419 13.8799 68.9132 13.843 68.8601C13.7837 68.7741 13.8056 68.6568 13.8919 68.5977L14.2748 68.3353L12.2335 66.6007C12.1451 67.3795 12.1811 68.2431 12.3495 69.1105C12.8468 71.6723 14.5025 74.2717 17.5527 74.8481C19.5427 75.2239 21.1834 74.7908 21.9414 73.6893C22.1772 73.3466 22.3159 72.9562 22.3632 72.5341C22.3827 72.3616 22.3869 72.1837 22.3752 72.0013C22.3315 71.3246 22.0756 70.5873 21.6079 69.8383L21.6076 69.8389Z" fill="white"/>
    <g opacity="0.3">
        <path d="M18.7736 73.4849C15.9699 73.5942 13.1928 70.2297 12.3491 69.1112C12.8465 71.673 14.5021 74.2724 17.5524 74.8488C19.5424 75.2246 21.183 74.7915 21.941 73.69C22.1768 73.3473 22.3155 72.9569 22.3629 72.5348C22.3344 72.4288 22.2982 72.3058 22.2523 72.1685C21.8275 72.6921 20.8693 73.4031 18.7739 73.4849H18.7736Z" fill="#0F177C"/>
    </g>
    <g opacity="0.3">
        <path d="M44.8673 77.775C41.1279 80.66 37.7549 79.463 36.3857 78.7487C36.3501 79.2592 36.3581 79.5944 36.3587 79.6123C36.5978 80.1577 36.9316 80.64 37.3507 81.0299C37.9715 81.6072 39.024 81.8505 40.313 81.7165C43.0717 81.4287 47.1116 79.3529 49.918 75.3634C53.0277 70.9428 52.2769 65.7781 51.2306 62.7399C51.5464 69.7553 49.741 74.0144 44.8673 77.775Z" fill="#0F177C"/>
    </g>
    <g opacity="0.4">
        <path d="M19.9832 69.2675C21.3275 69.9771 21.9693 71.3236 22.2524 72.1684C22.2998 72.1102 22.3399 72.0544 22.375 72.0018C22.3312 71.3251 22.0753 70.5878 21.6077 69.8389C19.7234 66.8219 15.0235 68.398 14.6724 68.521L14.1064 68.9087L13.9991 69.3281C13.9991 69.3281 17.9312 68.184 19.9835 69.2672L19.9832 69.2675Z" fill="white"/>
    </g>
    <g opacity="0.3">
        <path d="M22.3629 72.5348C22.3823 72.3622 22.3865 72.1843 22.3749 72.002C22.3401 72.0545 22.2997 72.11 22.2523 72.1685C22.2982 72.3058 22.3344 72.4291 22.3629 72.5348Z" fill="#0F177C"/>
    </g>
    <g opacity="0.4">
        <path d="M22.3629 72.5348C22.3823 72.3622 22.3865 72.1843 22.3749 72.002C22.3401 72.0545 22.2997 72.11 22.2523 72.1685C22.2982 72.3058 22.3344 72.4291 22.3629 72.5348Z" fill="white"/>
    </g>
    <g opacity="0.4">
        <path d="M37.1895 75.3651C38.0875 73.503 40.2497 73.0099 42.2104 70.0523C44.171 67.0947 43.2506 61.7676 43.2506 61.7676C43.2506 61.7676 43.309 62.9509 42.9579 64.6237C42.5462 66.8323 41.559 69.7365 39.193 71.5323C37.197 73.0475 36.0397 75.0457 35.9336 77.1594C35.9096 77.6397 35.9429 78.1069 36.0289 78.5496C36.125 78.6075 36.2458 78.6758 36.3857 78.7487C36.4459 77.8848 36.6308 76.5233 37.1895 75.3648V75.3651Z" fill="white"/>
    </g>
    <g opacity="0.3">
        <path d="M36.3858 78.749C36.2461 78.6762 36.1254 78.6078 36.0289 78.5499C36.1017 78.9237 36.2126 79.2798 36.3585 79.6126C36.3579 79.5947 36.3501 79.2595 36.3855 78.749H36.3858Z" fill="#0F177C"/>
    </g>
    <g opacity="0.4">
        <path d="M36.3858 78.749C36.2461 78.6762 36.1254 78.6078 36.0289 78.5499C36.1017 78.9237 36.2126 79.2798 36.3585 79.6126C36.3579 79.5947 36.3501 79.2595 36.3855 78.749H36.3858Z" fill="white"/>
    </g>
    <path d="M18.8962 75.6774C18.4282 75.6774 17.9348 75.6299 17.4222 75.5332C12.7504 74.6502 11.0333 69.5177 11.59 66.1518C11.62 65.9712 11.7452 65.8201 11.9181 65.7575C12.0901 65.6945 12.2839 65.7288 12.4241 65.8479L14.6963 67.7789C15.8696 67.4106 20.2253 66.3073 22.2012 69.4715C23.2564 71.161 23.3718 72.8422 22.5179 74.084C21.806 75.1192 20.5024 75.6777 18.8962 75.6777V75.6774ZM12.5089 67.2551C12.431 70.144 13.9863 73.8496 17.6124 74.535C19.4733 74.8864 20.9932 74.5031 21.6769 73.5093C22.2917 72.6156 22.1673 71.3392 21.3356 70.0079C19.5293 67.1157 14.8102 68.8109 14.7626 68.8285C14.5894 68.8918 14.3949 68.8577 14.2547 68.7386L12.5092 67.2554L12.5089 67.2551Z" fill="#0F177C"/>
    <path d="M13.9995 69.2616C13.8374 69.2616 13.6777 69.1846 13.5788 69.0413C13.4191 68.8103 13.4782 68.4938 13.7101 68.3347L14.2964 67.933C14.528 67.7738 14.8459 67.8324 15.0056 68.0637C15.1652 68.2947 15.1062 68.6112 14.8743 68.7703L14.288 69.172C14.1999 69.2326 14.0992 69.2616 13.9995 69.2616Z" fill="#0F177C"/>
    <path d="M39.626 82.4508C38.4626 82.4508 37.5207 82.1409 36.8738 81.5397C35.7446 80.4896 35.1475 78.8803 35.2356 77.1248C35.3521 74.8027 36.6072 72.6201 38.7697 70.9786C42.6164 68.0586 42.5523 61.67 42.5514 61.6058C42.5466 61.3255 42.7707 61.0942 43.0523 61.0891H43.0613C43.3387 61.0891 43.5658 61.3103 43.5709 61.5876C43.576 61.8706 43.6488 68.552 39.3878 71.7867C37.4683 73.2437 36.3555 75.1577 36.2542 77.1756C36.1811 78.6317 36.6608 79.9517 37.5698 80.797C38.1217 81.3102 39.0843 81.5248 40.2798 81.3994C42.9663 81.1194 46.9074 79.0878 49.6557 75.181C53.4837 69.7389 51.0087 62.5581 49.8399 60.4718C49.7027 60.2267 49.7905 59.9175 50.0365 59.7808C50.2827 59.6437 50.5928 59.7315 50.73 59.9766C51.9797 62.2073 54.6186 69.8959 50.4907 75.7639C47.5581 79.9329 43.3025 82.106 40.3858 82.4102C40.1234 82.4373 39.8696 82.4511 39.626 82.4511V82.4508Z" fill="#0F177C"/>
    <path d="M24.37 48.7758C27.2467 48.7758 29.5787 47.6272 29.5787 46.2102C29.5787 44.7932 27.2467 43.6445 24.37 43.6445C21.4934 43.6445 19.1614 44.7932 19.1614 46.2102C19.1614 47.6272 21.4934 48.7758 24.37 48.7758Z" fill="#F98AAA"/>
    <path d="M49.9555 48.5465C52.0748 48.5465 53.7929 47.4363 53.7929 46.0668C53.7929 44.6973 52.0748 43.5872 49.9555 43.5872C47.8362 43.5872 46.1182 44.6973 46.1182 46.0668C46.1182 47.4363 47.8362 48.5465 49.9555 48.5465Z" fill="#F98AAA"/>
    <path d="M59.9273 34.132C59.24 33.0117 58.9014 31.6672 59.0461 30.2604C59.3979 26.8458 62.4614 24.3622 65.8886 24.7127C69.3158 25.0631 71.8085 28.1153 71.4568 31.5299C71.105 34.9445 68.0415 37.4281 64.6143 37.0776C63.661 36.98 62.7804 36.6732 62.0129 36.2078L59.1261 36.8529L59.9273 34.132Z" fill="white"/>
    <g opacity="0.5">
        <path d="M65.7661 25.9019C62.5648 25.5745 59.6813 27.7204 59.0285 30.7879C59.0276 30.5688 59.0372 30.3476 59.0603 30.1249C59.412 26.7103 62.4755 24.2267 65.9027 24.5772C69.3299 24.9276 71.8226 27.9798 71.4709 31.3944C71.4478 31.6183 71.4124 31.8377 71.3666 32.0532C71.3546 28.9162 68.9686 26.2297 65.7661 25.9019Z" fill="white"/>
    </g>
    <path d="M65.2642 37.6191C65.0314 37.6191 64.7971 37.6072 64.5622 37.5833C63.625 37.4875 62.74 37.2066 61.9281 36.7478L59.2376 37.349C59.0611 37.3884 58.8775 37.332 58.754 37.2006C58.6306 37.0693 58.5859 36.883 58.6366 36.7102L59.3757 34.2004C58.6836 32.9834 58.3945 31.6084 58.5389 30.2087C58.9191 26.5213 62.2381 23.8285 65.9407 24.2076C67.7335 24.3909 69.3475 25.2589 70.4851 26.652C71.6227 28.0449 72.1479 29.7956 71.9637 31.5822C71.7797 33.3687 70.9085 34.9768 69.5105 36.1102C68.2956 37.0953 66.8093 37.6194 65.2642 37.6194V37.6191ZM62.0128 35.7001C62.1057 35.7001 62.1974 35.7251 62.2777 35.7741C63.0078 36.2165 63.8114 36.4851 64.6662 36.5726C66.1879 36.7275 67.6799 36.2839 68.8667 35.3218C70.0534 34.3598 70.7931 32.9947 70.9492 31.4783C71.1053 29.9619 70.6598 28.4756 69.6942 27.2932C68.7285 26.1109 67.3584 25.3739 65.8364 25.2183C62.6918 24.8968 59.8758 27.1825 59.5531 30.3126C59.4239 31.5652 59.7038 32.7941 60.362 33.8675C60.4369 33.9899 60.4567 34.138 60.4162 34.2753L59.8587 36.1687L61.9008 35.7123C61.9379 35.7039 61.9751 35.7001 62.0125 35.7001H62.0128Z" fill="#0F177C"/>
    <g opacity="0.3">
        <path d="M59.8922 34.0723C61.6009 35.5123 63.9546 36.1427 66.2921 35.563C68.8843 34.9204 70.7943 32.9535 71.4813 30.5667C71.4978 30.8831 71.4903 31.2049 71.4567 31.5299C71.105 34.9445 68.0415 37.4281 64.6143 37.0777C63.6609 36.98 62.7804 36.6732 62.0128 36.2078L59.1261 36.8529L59.9272 34.132C59.9153 34.1123 59.9042 34.092 59.8922 34.0723Z" fill="#0F177C"/>
    </g>
    <path d="M63.2568 29.1499C63.7967 28.612 64.6719 28.7085 65.2118 29.2464L65.2957 29.3299L65.3796 29.2464C65.9194 28.7085 66.7946 28.612 67.3345 29.1499C67.8744 29.6879 67.8744 30.5598 67.3345 31.0977L67.2506 31.1813L65.5533 32.8723C65.411 33.0141 65.1803 33.0141 65.038 32.8723L63.3407 31.1813L63.2568 31.0977C62.717 30.5598 62.717 29.6879 63.2568 29.1499Z" fill="#FF0068"/>
</svg>
