<svg width="41" height="60" viewBox="0 0 41 60" fill="none" xmlns="http://www.w3.org/2000/svg">
    <path d="M0.5 58.6172V3.95374H40.2001V58.6172H0.5Z" fill="#E45B47" stroke="black"/>
    <path d="M2.33594 56.2697V5.7301H38.365V56.2697H2.33594Z" fill="#EDF8FE" stroke="black"/>
    <path d="M21.8682 3.97145H27.6376V7.38988H13.1159V3.97365H18.5028H19.5352L19.3723 3.76753C19.5381 3.85072 19.7197 3.90975 19.9132 3.93933L19.9144 3.93952C20.2958 3.99684 20.6682 3.93063 20.9904 3.77077L20.8305 3.97145H21.8682Z" fill="#E5953E" stroke="black"/>
    <path d="M33.1651 17.6215C33.1654 17.6823 33.1606 17.7351 33.1535 17.7784L19.5968 17.8932C19.5888 17.8497 19.5829 17.7967 19.582 17.7355C19.5818 17.6748 19.5866 17.622 19.5936 17.5787L33.1503 17.4638C33.1584 17.5073 33.1643 17.5604 33.1651 17.6215ZM33.1198 17.8986C33.1198 17.8986 33.12 17.8981 33.1206 17.8972L33.1198 17.8986ZM19.6323 18.0111C19.6328 18.012 19.6331 18.0124 19.6331 18.0124L19.6323 18.0111ZM19.6274 17.4585C19.6274 17.4585 19.6271 17.459 19.6266 17.4599L19.6274 17.4585ZM33.1149 17.3459C33.1143 17.3451 33.1141 17.3447 33.1141 17.3446L33.1149 17.3459Z" fill="#848484" stroke="black"/>
    <path d="M17.1276 19.7667C17.1274 19.7041 17.134 19.6514 17.1429 19.6101L33.1653 19.4726C33.1751 19.514 33.1828 19.5672 33.1837 19.6308C33.184 19.6932 33.1773 19.746 33.1685 19.7872L17.1464 19.9247C17.1364 19.8833 17.1285 19.83 17.1276 19.7667ZM33.3562 19.7856L33.3519 19.7856L33.3562 19.7856Z" fill="#848484" stroke="black"/>
    <path d="M17.3629 45.8924L33.3934 45.7548C33.401 45.7888 33.4069 45.8316 33.4076 45.8823C33.4079 45.9317 33.403 45.9739 33.3963 46.0078L17.3658 46.1454C17.3582 46.1114 17.3523 46.0686 17.3516 46.0179C17.3514 45.9685 17.3562 45.9263 17.3629 45.8924ZM33.58 46.0063L33.5758 46.0063L33.58 46.0063Z" fill="#848484" stroke="black"/>
    <path d="M17.3825 48.062L33.4129 47.9244C33.4205 47.9584 33.4264 48.0012 33.4271 48.0519C33.4273 48.1013 33.4225 48.1435 33.4158 48.1774L17.3854 48.315C17.3777 48.281 17.3718 48.2382 17.3711 48.1875C17.3709 48.1381 17.3757 48.0959 17.3825 48.062ZM33.5996 48.1758L33.5953 48.1758L33.5996 48.1758Z" fill="#848484" stroke="black"/>
    <path d="M33.2909 32.1069L33.2909 32.107C33.291 32.1166 33.2906 32.1257 33.29 32.1344L17.2383 32.2722C17.2376 32.2635 17.2371 32.2542 17.237 32.2445L17.237 32.2444C17.2369 32.2348 17.2373 32.2257 17.2379 32.217L33.2896 32.0792C33.2903 32.0879 33.2908 32.0972 33.2909 32.1069Z" fill="#848484" stroke="black"/>
    <path d="M33.3067 34.0637V34.0637C33.3068 34.0735 33.3065 34.0828 33.3061 34.0915L19.5466 34.2088C19.546 34.2002 19.5457 34.1911 19.5456 34.1815L19.5456 34.1814C19.5455 34.1717 19.5458 34.1624 19.5462 34.1536L33.3057 34.0363C33.3063 34.0449 33.3066 34.0541 33.3067 34.0637Z" fill="#848484" stroke="black"/>
    <path d="M33.2726 29.9891C33.2733 29.9983 33.2738 30.0081 33.274 30.0184L19.6607 30.1063L33.2726 29.9891ZM19.6615 30.1615C19.6608 30.1524 19.6603 30.1427 19.6602 30.1324L33.2734 30.0444L19.6615 30.1615Z" fill="#848484" stroke="black"/>
    <path d="M14.6531 15.8837L10.9499 19.5431L10.9499 19.5431L10.9478 19.5452C10.9387 19.5543 10.9303 19.5633 10.9228 19.5721L10.8197 19.6737L10.8176 19.6737L10.672 19.8166L10.1598 20.3191L7.4269 17.6556L8.01797 17.0739L9.80251 18.8146L10.154 19.1575L10.5032 18.8122L14.0657 15.2895L14.6531 15.8837Z" fill="#34495E" stroke="black"/>
    <path d="M14.7745 30.4878L11.0721 34.1483L11.0721 34.1483L11.0701 34.1503C11.0611 34.1594 11.0527 34.1684 11.0452 34.1772L10.9421 34.2788L10.94 34.2788L10.7943 34.4217L10.2822 34.9242L7.54927 32.2607L8.14029 31.679L9.92489 33.4197L10.2764 33.7626L10.6256 33.4173L14.188 29.8946L14.7745 30.4878Z" fill="#34495E" stroke="black"/>
    <path d="M14.3091 43.8819L14.8945 44.474L11.191 48.1356L11.191 48.1356L11.189 48.1377C11.1798 48.1468 11.1714 48.156 11.1637 48.1649L11.0494 48.2776L10.9155 48.4091L10.4033 48.9115L7.67039 46.248L8.26139 45.6664L10.0459 47.4071L10.3975 47.75L10.7466 47.4047L14.3091 43.8819Z" fill="#34495E" stroke="black"/>
</svg>
