<svg width="53" height="66" viewBox="0 0 53 66" fill="none" xmlns="http://www.w3.org/2000/svg">
    <path d="M3.69819 39.7916L3.70301 39.8007L3.72001 39.8336C3.73447 39.8618 3.75511 39.9029 3.78156 39.9574C3.83445 40.0663 3.91054 40.2288 4.00678 40.4492C4.19925 40.8901 4.4723 41.5628 4.80141 42.5028C5.45924 44.3818 6.34122 47.3295 7.25139 51.6297L7.25185 51.6316L7.25849 51.6586C7.26445 51.6827 7.27349 51.719 7.28557 51.7666C7.30973 51.8618 7.34603 52.0024 7.3942 52.1818C7.49055 52.5408 7.63427 53.0551 7.82304 53.6738C8.20098 54.9124 8.75765 56.563 9.47396 58.2199C10.1923 59.8817 11.0609 61.525 12.055 62.7648C13.0589 64.0167 14.1216 64.7719 15.216 64.8396L15.2259 64.8402L15.2345 64.8411L15.2349 64.8411L15.2353 64.8412L15.2356 64.8412L15.2358 64.8412L15.2445 64.8419C15.2535 64.8427 15.2684 64.8438 15.2889 64.845C15.3298 64.8474 15.3927 64.8501 15.4745 64.8509C15.6383 64.8525 15.8763 64.8461 16.1636 64.8134C16.7402 64.7479 17.5015 64.5782 18.2576 64.1664C19.7268 63.3662 21.3062 61.5808 21.3084 57.4577L21.3081 57.4509L21.3061 57.4042C21.3042 57.3623 21.3009 57.2991 21.2957 57.2168C21.2852 57.052 21.2667 56.8106 21.2352 56.5084C21.172 55.9035 21.0565 55.0579 20.8477 54.0982C20.4277 52.1679 19.6406 49.8269 18.1853 48.0449L18.1852 48.0447C16.8463 46.4034 16.031 44.3744 15.9844 42.2374L15.9842 42.2265H15.9843V42.2263V42.2261V42.226V42.2258V42.2256V42.2255V42.2253V42.2251V42.225V42.2248V42.2246V42.2245V42.2243V42.2241V42.224V42.2238V42.2236V42.2235V42.2233V42.2231V42.223V42.2228V42.2226V42.2224V42.2223V42.2221V42.2219V42.2218V42.2216V42.2214V42.2213V42.2211V42.2209V42.2208V42.2206V42.2204V42.2203V42.2201V42.2199V42.2197V42.2196V42.2194V42.2192V42.2191V42.2189V42.2187V42.2186V42.2184V42.2182V42.2181V42.2179V42.2177V42.2175V42.2174V42.2172V42.217V42.2169V42.2167V42.2165V42.2164V42.2162V42.216V42.2158V42.2157V42.2155V42.2153V42.2152V42.215V42.2148V42.2146V42.2145V42.2143V42.2141V42.214V42.2138V42.2136V42.2135V42.2133V42.2131V42.2129V42.2128V42.2126V42.2124V42.2123V42.2121V42.2119V42.2117V42.2116V42.2114V42.2112V42.2111V42.2109V42.2107V42.2105V42.2104V42.2102V42.21V42.2099V42.2097V42.2095V42.2093V42.2092V42.209V42.2088V42.2087V42.2085V42.2083V42.2081V42.208V42.2078V42.2076V42.2075V42.2073V42.2071V42.2069V42.2068V42.2066V42.2064V42.2063V42.2061V42.2059V42.2057V42.2056V42.2054V42.2052V42.2051V42.2049V42.2047V42.2045V42.2044V42.2042V42.204V42.2038V42.2037V42.2035V42.2033V42.2032V42.203V42.2028V42.2026V42.2025V42.2023V42.2021V42.2019V42.2018V42.2016V42.2014V42.2013V42.2011V42.2009V42.2007V42.2006V42.2004V42.2002V42.2V42.1999V42.1997V42.1995V42.1994V42.1992V42.199V42.1988V42.1987V42.1985V42.1983V42.1981V42.198V42.1978V42.1976V42.1975V42.1973V42.1971V42.1969V42.1968V42.1966V42.1964V42.1962V42.1961V42.1959V42.1957V42.1955V42.1954V42.1952V42.195V42.1949V42.1947V42.1945V42.1943V42.1942V42.194V42.1938V42.1936V42.1935V42.1933V42.1931V42.1929V42.1928V42.1926V42.1924V42.1923V42.1921V42.1919V42.1917V42.1916V42.1914V42.1912V42.191V42.1909V42.1907V42.1905V42.1903V42.1902V42.19V42.1898V42.1897V42.1895V42.1893V42.1891V42.189V42.1888V42.1886V42.1884V42.1883V42.1881V42.1879V42.1877V42.1876V42.1874V42.1872V42.187V42.1869V42.1867V42.1865V42.1863V42.1862V42.186V42.1858V42.1857V42.1855V42.1853V42.1851V42.185V42.1848V42.1846V42.1844V42.1843V42.1841V42.1839V42.1837V42.1836V42.1834V42.1832V42.183V42.1829V42.1827V42.1825V42.1824V42.1822V42.182V42.1818V42.1817V42.1815V42.1813V42.1811V42.181V42.1808V42.1806V42.1804V42.1803V42.1801V42.1799V42.1797V42.1796V42.1794V42.1792V42.1791V42.1789V42.1787V42.1785V42.1784V42.1782V42.178V42.1778V42.1777V42.1775V42.1773V42.1771V42.177V42.1768V42.1766V42.1764V42.1763V42.1761V42.1759V42.1757V42.1756V42.1754V42.1752V42.1751V42.1749V42.1747V42.1745V42.1744V42.1742V42.174V42.1738V42.1737V42.1735V42.1733V42.1731V42.173V42.1728V42.1726V42.1725V42.1723V42.1721V42.1719V42.1718V42.1716V42.1714V42.1712V42.1711V42.1709V42.1707V42.1705V42.1704V42.1702V42.17V42.1698V42.1697V42.1695V42.1693V42.1692V42.169V42.1688V42.1686V42.1685V42.1683V42.1681V42.1679V42.1678V42.1676V42.1674V42.1673V42.1671V42.1669V42.1667V42.1666V42.1664V42.1662V42.166V42.1659V42.1657V42.1655V42.1653V42.1652V42.165V42.1648V42.1647V42.1645V42.1643V42.1641V42.164V42.1638V42.1636V42.1635V42.1633V42.1631V42.1629V42.1628V42.1626V42.1624V42.1622V42.1621V42.1619V42.1617V42.1616V42.1614V42.1612V42.161V42.1609V42.1607V42.1605V42.1603V42.1602V42.16V42.1598V42.1597V42.1595V42.1593V42.1591V42.159V42.1588V42.1586V42.1585V42.1583V42.1581V42.1579V42.1578V42.1576V42.1574V42.1572V42.1571V42.1569V42.1567V42.1566V42.1564V42.1562V42.156V42.1559V42.1557V42.1555V42.1554V42.1552V42.155V42.1548V42.1547V42.1545V42.1543V42.1542V42.154V42.1538V42.1537V42.1535V42.1533V42.1531V42.153V42.1528V42.1526V42.1525V42.1523V42.1521V42.1519V42.1518V42.1516V42.1514V42.1513V42.1511V42.1509V42.1507V42.1506V42.1504V42.1502V42.1501V42.1499V42.1497V42.1496V42.1494V42.1492V42.149V42.1489V42.1487V42.1485V42.1484V42.1482V42.148V42.1479V42.1477V42.1475V42.1473V42.1472V42.147V42.1468V42.1467V42.1465V42.1463V42.1462V42.146V42.1458V42.1456V42.1455V42.1453V42.1451V42.145V42.1448V42.1446V42.1445V42.1443V42.1441V42.144V42.1438V42.1436V42.1434V42.1433V42.1431V42.1429V42.1428V42.1426V42.1424V42.1423V42.1421V42.1419V42.1418V42.1416V42.1414V42.1413C15.9703 40.8268 16.5312 39.5731 17.5004 38.6949L17.5005 38.6949C19.0885 37.2563 21.9665 34.4854 23.5213 32.0342C23.523 32.0312 23.5255 32.0266 23.5287 32.0205C23.5377 32.0037 23.5521 31.9754 23.5701 31.9362C23.606 31.8577 23.6559 31.7361 23.7039 31.5764C23.7999 31.2571 23.888 30.7872 23.8448 30.2033C23.7599 29.0542 23.1588 27.3765 20.9023 25.488C20.8971 25.4842 20.8893 25.4784 20.8788 25.4709C20.855 25.4539 20.8177 25.4277 20.7675 25.3942C20.6669 25.3271 20.5148 25.2308 20.3156 25.1193C19.9169 24.8959 19.3324 24.613 18.5986 24.3811C17.1334 23.918 15.0773 23.6587 12.7015 24.4781L12.6807 24.4177L12.6905 24.4825C12.6907 24.4831 12.6907 24.4831 12.6907 24.4831L12.6906 24.4831L12.6904 24.4832L12.6885 24.4838L12.6798 24.4865L12.6428 24.4983C12.6096 24.509 12.5598 24.5252 12.4947 24.5471C12.3646 24.5907 12.1735 24.6567 11.9333 24.7448C11.4527 24.9212 10.7764 25.1859 9.99778 25.5379C8.43531 26.2443 6.48396 27.292 4.8726 28.6678C3.08185 30.1969 2.11326 32.4802 2.25744 34.8294L3.69819 39.7916ZM3.69819 39.7916L3.69808 39.7914L3.6973 39.7899M3.69819 39.7916L3.6973 39.7899M3.6973 39.7899C2.51305 37.5315 2.34198 36.1967 2.25745 34.8296L3.6973 39.7899Z" fill="#F04F3D" stroke="black"/>
    <path d="M2.90504 27.05C2.90504 27.9194 2.37427 28.4009 1.96299 28.4009C1.55173 28.4009 1.021 27.9195 1.021 27.05C1.021 26.1805 1.55172 25.6991 1.96299 25.6991C2.37428 25.6991 2.90504 26.1806 2.90504 27.05Z" fill="#F04F3D" stroke="black"/>
    <path d="M6.68141 23.7943C6.68141 24.3351 6.52213 24.8041 6.28957 25.1256C6.05657 25.4477 5.77795 25.5915 5.5196 25.5915C5.26124 25.5915 4.9826 25.4477 4.74959 25.1256C4.51702 24.8041 4.35773 24.3351 4.35773 23.7943C4.35773 23.2536 4.51702 22.7845 4.74958 22.4631C4.9826 22.141 5.26123 21.9972 5.5196 21.9972C5.77796 21.9972 6.05658 22.141 6.28958 22.4631C6.52213 22.7845 6.68141 23.2536 6.68141 23.7943Z" fill="#F04F3D" stroke="black"/>
    <path d="M10.889 21.0488C10.889 22.1188 10.1974 22.8064 9.54466 22.8064C8.89199 22.8064 8.20038 22.1188 8.20038 21.0488C8.20038 19.9789 8.89198 19.2913 9.54466 19.2913C10.1974 19.2913 10.889 19.9789 10.889 21.0488Z" fill="#F04F3D" stroke="black"/>
    <path d="M16.4351 19.3254C16.4351 20.6382 15.6267 21.4765 14.8754 21.4765C14.1241 21.4765 13.3157 20.6382 13.3157 19.3254C13.3157 18.0127 14.1241 17.1744 14.8754 17.1744C15.6267 17.1744 16.4351 18.0127 16.4351 19.3254Z" fill="#F04F3D" stroke="black"/>
    <path d="M24.3156 19.0902C24.3156 20.2825 23.9927 21.3393 23.4969 22.0834C22.9987 22.831 22.3655 23.2153 21.7338 23.2153C21.102 23.2153 20.4688 22.831 19.9706 22.0834C19.4748 21.3393 19.1519 20.2825 19.1519 19.0902C19.1519 17.8979 19.4748 16.8412 19.9706 16.0971C20.4688 15.3494 21.102 14.9651 21.7338 14.9651C22.3655 14.9651 22.9987 15.3494 23.4969 16.0971C23.9927 16.8412 24.3156 17.8979 24.3156 19.0902Z" fill="#F04F3D" stroke="black"/>
    <path d="M49.0207 26.38L49.0158 26.3892L48.9985 26.4221C48.9838 26.4504 48.9628 26.4916 48.9359 26.5462C48.8821 26.6554 48.8046 26.8183 48.7067 27.0393C48.511 27.4812 48.2332 28.1555 47.8984 29.0978C47.2293 30.9812 46.3321 33.9358 45.4063 38.2459L45.4059 38.2478L45.3991 38.2748C45.3931 38.299 45.3839 38.3354 45.3716 38.3831C45.347 38.4785 45.3101 38.6193 45.2611 38.7992C45.1631 39.1589 45.017 39.6743 44.825 40.2943C44.4406 41.5357 43.8745 43.1899 43.1459 44.8505C42.4153 46.5158 41.532 48.1629 40.5207 49.4057C39.5002 50.6596 38.4172 51.4202 37.2976 51.4884L37.2878 51.489L37.2793 51.4898L37.279 51.4899L37.2786 51.4899L37.2782 51.4899L37.2781 51.49L37.2689 51.4907C37.2596 51.4915 37.2443 51.4926 37.2234 51.4938C37.1816 51.4962 37.1173 51.499 37.0338 51.4998C36.8667 51.5014 36.6239 51.4949 36.331 51.4621C35.7431 51.3963 34.9669 51.2258 34.1961 50.8121C33.4303 50.4011 32.6622 49.7464 32.0817 48.6951C31.5002 47.6422 31.0925 46.1649 31.0914 44.0887L31.0916 44.082L31.0936 44.0352C31.0956 43.9932 31.0989 43.93 31.1043 43.8475C31.1149 43.6824 31.1337 43.4405 31.1658 43.1377C31.23 42.5317 31.3474 41.6843 31.5597 40.7227C31.9868 38.7886 32.7872 36.4425 34.2675 34.6564L34.2677 34.6561C35.6292 33.0115 36.4591 30.9773 36.5065 28.8337L36.5067 28.8226H36.5066V28.8224V28.8223V28.8221V28.8219V28.8218V28.8216V28.8214V28.8213V28.8211V28.8209V28.8207V28.8206V28.8204V28.8202V28.8201V28.8199V28.8197V28.8196V28.8194V28.8192V28.8191V28.8189V28.8187V28.8186V28.8184V28.8182V28.818V28.8179V28.8177V28.8175V28.8174V28.8172V28.817V28.8169V28.8167V28.8165V28.8164V28.8162V28.816V28.8158V28.8157V28.8155V28.8153V28.8152V28.815V28.8148V28.8147V28.8145V28.8143V28.8141V28.814V28.8138V28.8136V28.8135V28.8133V28.8131V28.813V28.8128V28.8126V28.8124V28.8123V28.8121V28.8119V28.8118V28.8116V28.8114V28.8113V28.8111V28.8109V28.8107V28.8106V28.8104V28.8102V28.8101V28.8099V28.8097V28.8095V28.8094V28.8092V28.809V28.8089V28.8087V28.8085V28.8083V28.8082V28.808V28.8078V28.8077V28.8075V28.8073V28.8071V28.807V28.8068V28.8066V28.8065V28.8063V28.8061V28.8059V28.8058V28.8056V28.8054V28.8053V28.8051V28.8049V28.8047V28.8046V28.8044V28.8042V28.8041V28.8039V28.8037V28.8035V28.8034V28.8032V28.803V28.8028V28.8027V28.8025V28.8023V28.8022V28.802V28.8018V28.8016V28.8015V28.8013V28.8011V28.8009V28.8008V28.8006V28.8004V28.8003V28.8001V28.7999V28.7997V28.7996V28.7994V28.7992V28.799V28.7989V28.7987V28.7985V28.7984V28.7982V28.798V28.7978V28.7977V28.7975V28.7973V28.7971V28.797V28.7968V28.7966V28.7965V28.7963V28.7961V28.7959V28.7958V28.7956V28.7954V28.7952V28.7951V28.7949V28.7947V28.7945V28.7944V28.7942V28.794V28.7939V28.7937V28.7935V28.7933V28.7932V28.793V28.7928V28.7926V28.7925V28.7923V28.7921V28.7919V28.7918V28.7916V28.7914V28.7912V28.7911V28.7909V28.7907V28.7906V28.7904V28.7902V28.79V28.7899V28.7897V28.7895V28.7893V28.7892V28.789V28.7888V28.7886V28.7885V28.7883V28.7881V28.7879V28.7878V28.7876V28.7874V28.7873V28.7871V28.7869V28.7867V28.7866V28.7864V28.7862V28.786V28.7859V28.7857V28.7855V28.7853V28.7852V28.785V28.7848V28.7846V28.7845V28.7843V28.7841V28.7839V28.7838V28.7836V28.7834V28.7832V28.7831V28.7829V28.7827V28.7826V28.7824V28.7822V28.782V28.7819V28.7817V28.7815V28.7813V28.7812V28.781V28.7808V28.7806V28.7805V28.7803V28.7801V28.7799V28.7798V28.7796V28.7794V28.7792V28.7791V28.7789V28.7787V28.7785V28.7784V28.7782V28.778V28.7778V28.7777V28.7775V28.7773V28.7771V28.777V28.7768V28.7766V28.7765V28.7763V28.7761V28.7759V28.7758V28.7756V28.7754V28.7752V28.7751V28.7749V28.7747V28.7745V28.7744V28.7742V28.774V28.7738V28.7737V28.7735V28.7733V28.7731V28.773V28.7728V28.7726V28.7724V28.7723V28.7721V28.7719V28.7718V28.7716V28.7714V28.7712V28.7711V28.7709V28.7707V28.7705V28.7704V28.7702V28.77V28.7698V28.7697V28.7695V28.7693V28.7691V28.769V28.7688V28.7686V28.7684V28.7683V28.7681V28.7679V28.7677V28.7676V28.7674V28.7672V28.7671V28.7669V28.7667V28.7665V28.7664V28.7662V28.766V28.7658V28.7657V28.7655V28.7653V28.7651V28.765V28.7648V28.7646V28.7645V28.7643V28.7641V28.7639V28.7638V28.7636V28.7634V28.7632V28.7631V28.7629V28.7627V28.7625V28.7624V28.7622V28.762V28.7618V28.7617V28.7615V28.7613V28.7612V28.761V28.7608V28.7606V28.7605V28.7603V28.7601V28.7599V28.7598V28.7596V28.7594V28.7593V28.7591V28.7589V28.7587V28.7586V28.7584V28.7582V28.758V28.7579V28.7577V28.7575V28.7573V28.7572V28.757V28.7568V28.7567V28.7565V28.7563V28.7561V28.756V28.7558V28.7556V28.7554V28.7553V28.7551V28.7549V28.7548V28.7546V28.7544V28.7542V28.7541V28.7539V28.7537V28.7536V28.7534V28.7532V28.753V28.7529V28.7527V28.7525V28.7523V28.7522V28.752V28.7518V28.7517V28.7515V28.7513V28.7511V28.751V28.7508V28.7506V28.7505V28.7503V28.7501V28.7499V28.7498V28.7496V28.7494V28.7493V28.7491V28.7489V28.7487V28.7486V28.7484V28.7482V28.7481V28.7479V28.7477V28.7475V28.7474V28.7472V28.747V28.7469V28.7467V28.7465V28.7463V28.7462V28.746V28.7458V28.7457V28.7455V28.7453V28.7452V28.745V28.7448V28.7446V28.7445V28.7443V28.7441V28.744V28.7438V28.7436V28.7435V28.7433V28.7431V28.7429V28.7428V28.7426V28.7424V28.7423V28.7421V28.7419V28.7417V28.7416V28.7414V28.7412V28.7411V28.7409V28.7407V28.7406V28.7404V28.7402V28.7401V28.7399V28.7397V28.7395V28.7394V28.7392V28.739V28.7389V28.7387V28.7385V28.7384V28.7382V28.738V28.7379V28.7377V28.7375V28.7374V28.7373C36.5209 27.4175 35.9492 26.1606 34.9646 25.2814L34.9646 25.2814C33.3492 23.8393 30.4216 21.0619 28.84 18.6049C28.8383 18.6019 28.8358 18.5973 28.8325 18.5912C28.8235 18.5744 28.8088 18.5461 28.7905 18.5068C28.754 18.4282 28.7034 18.3065 28.6546 18.1466C28.5571 17.827 28.4676 17.3567 28.5114 16.7725C28.5977 15.6228 29.2082 13.9412 31.5049 12.0472C31.5101 12.0434 31.5182 12.0375 31.529 12.0299C31.5533 12.0128 31.5913 11.9865 31.6425 11.9528C31.745 11.8855 31.8999 11.7888 32.1028 11.6769C32.5088 11.4527 33.1041 11.1688 33.8515 10.936C35.3441 10.4711 37.439 10.2108 39.8591 11.0334L39.8794 10.9735L39.8699 11.0376C39.8697 11.0383 39.8697 11.0383 39.8697 11.0383L39.8698 11.0383L39.87 11.0383L39.8719 11.0389L39.8809 11.0417L39.9186 11.0536C39.9523 11.0643 40.0031 11.0806 40.0693 11.1025C40.2018 11.1463 40.3963 11.2124 40.6407 11.3008C41.1298 11.4777 41.818 11.7431 42.6102 12.096C44.2001 12.8043 46.1858 13.8549 47.8255 15.2345C49.6483 16.7682 50.6322 19.0564 50.4857 21.4082L49.0207 26.38ZM49.0207 26.38L49.0208 26.3798L49.0216 26.3784M49.0207 26.38L49.0216 26.3784M49.0216 26.3784C50.2259 24.1151 50.3997 22.7779 50.4857 21.4085L49.0216 26.3784Z" fill="#59A86B" stroke="black"/>
    <path d="M51.7957 13.2342C51.7957 14.1037 51.2649 14.5851 50.8537 14.5851C50.4424 14.5851 49.9116 14.1037 49.9116 13.2342C49.9116 12.3648 50.4424 11.8833 50.8537 11.8833C51.2649 11.8833 51.7957 12.3648 51.7957 13.2342Z" fill="#59A86B" stroke="black"/>
    <path d="M48.4588 9.97859C48.4588 10.5193 48.2995 10.9884 48.0669 11.3098C47.8339 11.6319 47.5553 11.7757 47.2969 11.7757C47.0385 11.7757 46.7599 11.6319 46.5269 11.3098C46.2944 10.9884 46.1351 10.5193 46.1351 9.97859C46.1351 9.43785 46.2944 8.9688 46.5269 8.64734C46.7599 8.32526 47.0385 8.18146 47.2969 8.18146C47.5553 8.18146 47.8339 8.32526 48.0669 8.64734C48.2995 8.96881 48.4588 9.43786 48.4588 9.97859Z" fill="#59A86B" stroke="black"/>
    <path d="M44.6162 7.2331C44.6162 8.30306 43.9246 8.99068 43.2719 8.99068C42.6192 8.99068 41.9276 8.30304 41.9276 7.2331C41.9276 6.16317 42.6192 5.47552 43.2719 5.47552C43.9246 5.47552 44.6162 6.16315 44.6162 7.2331Z" fill="#59A86B" stroke="black"/>
    <path d="M39.5009 5.50971C39.5009 6.82249 38.6926 7.66078 37.9412 7.66078C37.1899 7.66078 36.3815 6.82247 36.3815 5.50971C36.3815 4.19696 37.1899 3.35864 37.9412 3.35864C38.6926 3.35864 39.5009 4.19694 39.5009 5.50971Z" fill="#59A86B" stroke="black"/>
    <path d="M33.6646 5.27431C33.6646 6.46659 33.3417 7.52337 32.8459 8.26747C32.3477 9.01508 31.7145 9.39938 31.0827 9.39938C30.451 9.39938 29.8177 9.01509 29.3196 8.26747C28.8238 7.52338 28.5009 6.46659 28.5009 5.27431C28.5009 4.08203 28.8238 3.02526 29.3196 2.28118C29.8177 1.53358 30.451 1.14929 31.0827 1.14929C31.7145 1.14929 32.3477 1.53358 32.8459 2.28118C33.3417 3.02526 33.6646 4.08203 33.6646 5.27431Z" fill="#59A86B" stroke="black"/>
</svg>
