<svg width="45" height="62" viewBox="0 0 45 62" fill="none" xmlns="http://www.w3.org/2000/svg">
    <path d="M29.7492 18.5665L29.5 18.4232L29.2507 18.5665L15.1044 26.7007L14.8536 26.8449V27.1341V43.4024V43.6917L15.1044 43.8359L29.2507 51.97L29.5 52.1133L29.7492 51.97L43.8956 43.8359L44.1463 43.6917V43.4024V27.1341V26.8449L43.8956 26.7007L29.7492 18.5665Z" fill="#C8E7D8" stroke="black"/>
    <path d="M15.6029 27.0299L15.3536 26.8866L15.1044 27.0299L0.95804 35.1641L0.707275 35.3083V35.5975V51.8658V52.1551L0.95804 52.2993L15.1044 60.4334L15.3536 60.5767L15.6029 60.4334L29.7492 52.2993L30 52.1551V51.8658V35.5975V35.3083L29.7492 35.1641L15.6029 27.0299Z" fill="#E45B47" stroke="black"/>
    <path d="M29.7492 1.56655L29.5 1.42324L29.2507 1.56655L15.1044 9.70069L14.8536 9.84488V10.1341V26.4024V26.6917L15.1044 26.8359L29.2507 34.97L29.5 35.1133L29.7492 34.97L43.8956 26.8359L44.1463 26.6917V26.4024V10.1341V9.84488L43.8956 9.70069L29.7492 1.56655Z" fill="#E5953E" stroke="black"/>
    <path d="M29.8536 35.2439V17.6442M29.8536 17.6442L15.3536 9.78052M29.8536 17.6442L44.3536 9.78052" stroke="black"/>
    <path d="M44.5 26.5L15.5 43M15.5 43V60.5M15.5 43L1 35.5" stroke="black"/>
</svg>
