<svg width="103" height="113" viewBox="0 0 103 113" fill="none" xmlns="http://www.w3.org/2000/svg">
    <path d="M58.3419 13.9263C58.3419 13.9263 61.0316 -1.27292 78.4689 0.0861156C86.2157 0.689173 86.5811 5.98746 78.5359 5.55024C70.5232 5.11518 62.5126 6.96312 60.8846 13.6183L58.3419 13.9263Z" fill="#E3E3E3"/>
    <path d="M75.5047 21.3848C75.5047 21.3848 78.1965 6.18564 95.6316 7.54467C103.378 8.14773 103.744 13.446 95.6986 13.0088C87.6859 12.5737 79.6753 14.4217 78.0473 21.0768L75.5047 21.3848Z" fill="#F5F5F5"/>
    <path d="M36.8854 54.8976C37.7848 51.9577 40.8896 56.668 40.8896 56.668C40.8896 56.668 40.0204 52.7266 41.0452 51.402C42.0268 50.1334 44.4505 51.8607 45.0927 52.2958L71.4529 58.0701L70.4238 62.2807L73.4572 61.9253C73.4572 61.9253 75.6712 66.5861 73.3166 66.8876C70.9621 67.1892 72.5275 63.7647 72.5275 63.7647C72.5275 63.7647 70.2832 65.0052 68.6617 64.5314C67.3968 64.1631 68.4022 60.5254 68.5752 59.399C51.2546 58.3436 43.1792 53.6699 42.9392 53.4912C42.9392 53.4912 42.5068 57.7341 42.0484 59.8513C42.0484 59.8513 35.9838 57.8353 36.8832 54.8954L36.8854 54.8976Z" fill="#242424"/>
    <path d="M48.1369 34.5228C48.1369 34.5228 52.1367 7.98832 68.0952 11.5313C83.379 14.9256 80.4299 29.5692 77.3619 40.5211C52.5302 40.9239 48.1369 34.5207 48.1369 34.5207V34.5228Z" fill="#F5F5F5"/>
    <path d="M48.1369 34.5228L45.0948 52.2958C45.0948 52.2958 55.6328 56.7584 71.455 58.0701L77.3619 40.5232C77.3619 40.5232 57.3344 39.666 48.1369 34.5228Z" fill="#242424"/>
    <path d="M85.2254 67.3615C85.2254 66.6507 85.7746 66.0692 86.473 66.0111C86.6178 65.4166 87.154 64.9751 87.794 64.9751C88.434 64.9751 88.9918 65.4317 89.1237 66.0434C89.7269 66.1834 90.1766 66.7197 90.1766 67.3636C90.1766 68.0895 89.6015 68.6817 88.8815 68.7162C88.6761 69.2073 88.1918 69.554 87.6232 69.554C87.0546 69.554 86.5595 69.2008 86.3584 68.699C85.7141 68.5913 85.2233 68.0356 85.2233 67.3636L85.2254 67.3615Z" fill="#C2D6CD"/>
    <path d="M95.5948 63.7819C95.5948 62.6749 96.4337 61.7617 97.5126 61.6411C97.8672 60.9346 98.598 60.45 99.4455 60.45C100.416 60.45 101.238 61.0875 101.512 61.9663C102.375 62.2484 103 63.0582 103 64.0124C103 65.1259 102.152 66.0412 101.065 66.1554C100.695 66.8144 99.9882 67.2624 99.1753 67.2624C98.2412 67.2624 97.4499 66.6723 97.145 65.8474C96.2478 65.5846 95.5927 64.7597 95.5927 63.7819H95.5948Z" fill="#C2D6CD"/>
    <path d="M54.0826 48.0098L51.3584 36.0068C54.6988 37.2904 58.7181 38.223 62.5905 38.8928L54.0805 48.0098H54.0826Z" fill="#F5F5F5"/>
    <path d="M62.5926 38.8907L63.3558 42.0072L60.0868 43.4502L60.4608 45.0957L54.0826 48.0098L62.5926 38.8907Z" fill="#484848"/>
    <path d="M51.3584 36.0068L49.6698 38.8907L51.4492 41.4106L50.7465 42.5521L54.0826 48.0098L51.3584 36.0068Z" fill="#484848"/>
    <path d="M40.6604 24.2493C40.6604 24.2493 40.8614 23.586 41.1468 23.6893C41.402 23.782 41.3501 24.1072 41.3263 24.301C41.3717 24.1072 41.4949 23.782 41.8192 23.8638C42.1933 23.9586 42.1457 24.4475 42.1176 24.6198H42.1219C42.1673 24.4647 42.3187 24.0555 42.6343 24.1395C42.9478 24.2235 42.8722 24.6607 42.8289 24.8287C42.883 24.6499 43.0581 24.1912 43.4343 24.3075C43.7154 24.3958 43.4754 25.0182 43.4754 25.0182C43.0992 25.8044 42.7965 26.5216 42.5543 27.1785L39.8496 26.2997C40.2171 25.2616 40.5717 24.4992 40.6604 24.2515V24.2493Z" fill="#F5F5F5"/>
    <path d="M42.7208 27.2237C39.1404 36.9954 48.1368 34.7382 48.1368 34.7382L47.6763 37.999C36.5523 38.5095 38.2128 30.407 39.6874 26.2416L42.7208 27.2259V27.2237Z" fill="#242424"/>
    <path d="M53.0664 49.4205C53.0664 49.7996 53.3756 50.1076 53.7562 50.1076C54.1367 50.1076 54.4459 49.7996 54.4459 49.4205C54.4459 49.0414 54.1367 48.7335 53.7562 48.7335C53.3756 48.7335 53.0664 49.0414 53.0664 49.4205Z" fill="#484848"/>
    <path d="M53.0665 52.5909C52.6855 52.5909 52.3767 52.2833 52.3767 51.9039C52.3767 51.5244 52.6855 51.2168 53.0665 51.2168C53.4474 51.2168 53.7562 51.5244 53.7562 51.9039C53.7562 52.2833 53.4474 52.5909 53.0665 52.5909Z" fill="#484848"/>
    <path d="M58.1927 39.5648L57.8792 38.6904L55.4123 38.0206L54.6685 38.6538L55.1528 40.1787L53.0664 43.5321L54.0826 48.0098L57.3128 44.5508L56.9495 40.5879L58.1927 39.5648Z" fill="#242424"/>
    <path d="M39.9836 27.4089C40.1436 27.4025 40.269 27.2689 40.2625 27.1096C40.256 26.9502 40.122 26.8253 39.962 26.8317C39.802 26.8382 39.6766 26.9717 39.6831 27.1311C39.6896 27.2905 39.8236 27.4154 39.9836 27.4089Z" fill="#484848"/>
    <path d="M39.735 28.4621C39.8949 28.4556 40.0203 28.3221 40.0139 28.1627C40.0074 28.0033 39.8733 27.8784 39.7133 27.8849C39.5533 27.8913 39.4279 28.0249 39.4344 28.1843C39.4409 28.3436 39.575 28.4686 39.735 28.4621Z" fill="#484848"/>
    <path d="M63.9807 29.6747C63.4683 31.7014 61.4057 32.929 59.3733 32.4208C57.3388 31.9103 56.1064 29.8556 56.6166 27.8311L63.9807 29.6768V29.6747Z" fill="#EB7D86"/>
    <path d="M66.4757 26.5517C66.3071 27.2173 66.7136 27.8914 67.3795 28.0572C68.0476 28.2252 68.7243 27.8203 68.8908 27.157C69.0594 26.4914 68.653 25.8173 67.987 25.6515C67.319 25.4835 66.6422 25.8884 66.4757 26.5517Z" fill="#484848"/>
    <path d="M53.5637 23.3168C53.3951 23.9823 53.8015 24.6564 54.4675 24.8222C55.1355 24.9902 55.8123 24.5853 55.9788 23.922C56.1474 23.2565 55.7409 22.5823 55.075 22.4165C54.4069 22.2485 53.7302 22.6534 53.5637 23.3168Z" fill="#484848"/>
    <path d="M81.7337 55.3176C81.7337 55.3176 81.4137 55.9314 81.1521 55.7806C80.9186 55.6449 81.0288 55.3326 81.0894 55.1474C81.0094 55.3305 80.8278 55.6277 80.5251 55.4877C80.1748 55.3262 80.311 54.8545 80.3694 54.6908H80.3651C80.2916 54.8351 80.0667 55.2099 79.7727 55.0699C79.4808 54.9299 79.6364 54.5142 79.7078 54.357C79.6213 54.5228 79.364 54.9428 79.0181 54.7597C78.7586 54.6219 79.1089 54.0533 79.1089 54.0533C79.6235 53.349 80.0537 52.7007 80.4105 52.0977L82.9099 53.4545C82.3585 54.4065 81.8699 55.0936 81.7358 55.3197L81.7337 55.3176Z" fill="#F5F5F5"/>
    <path d="M80.2548 52.018C85.5692 43.0626 76.3111 43.6441 76.3111 43.6441L77.3619 40.5233C88.3929 42.0481 85.273 49.7113 83.0569 53.5385L80.2548 52.018Z" fill="#242424"/>
    <path d="M82.9768 52.3367C82.819 52.313 82.6698 52.4229 82.6482 52.5801C82.6266 52.7373 82.7347 52.8859 82.8925 52.9075C83.0503 52.9312 83.1995 52.8213 83.2211 52.6641C83.2449 52.5069 83.1347 52.3582 82.9768 52.3367Z" fill="#484848"/>
    <path d="M83.4179 51.346C83.2601 51.3223 83.1109 51.4321 83.0893 51.5894C83.0677 51.7466 83.1758 51.8952 83.3336 51.9167C83.4914 51.9404 83.6406 51.8306 83.6622 51.6734C83.686 51.5161 83.5758 51.3675 83.4179 51.346Z" fill="#484848"/>
    <path d="M98.1742 113C98.5915 113 98.9309 112.662 98.9309 112.246V98.266C98.9309 97.2559 98.1072 96.4353 97.0931 96.4353H74.9014C74.7219 96.4353 74.5771 96.291 74.5771 96.1122V83.209C74.5771 82.1988 73.7533 81.3782 72.7393 81.3782H50.5476C50.3681 81.3782 50.2233 81.2339 50.2233 81.0552V68.1519C50.2233 67.1418 49.3995 66.3212 48.3855 66.3212H26.1937C26.0143 66.3212 25.8694 66.1769 25.8694 65.9981V53.0949C25.8694 52.0847 25.0457 51.2642 24.0317 51.2642H1.83992C1.66047 51.2642 1.51561 51.1199 1.51561 50.9411V43.0583C1.51561 42.6426 1.17616 42.3044 0.758881 42.3044C0.341591 42.3044 0.00214386 42.6426 0.00214386 43.0583V50.9411C0.00214386 51.9512 0.825905 52.7718 1.83992 52.7718H24.0317C24.2111 52.7718 24.356 52.9161 24.356 53.0949V65.9981C24.356 67.0083 25.1797 67.8288 26.1937 67.8288H48.3855C48.5649 67.8288 48.7098 67.9731 48.7098 68.1519V81.0552C48.7098 82.0653 49.5336 82.8859 50.5476 82.8859H72.7393C72.9188 82.8859 73.0636 83.0302 73.0636 83.209V96.1122C73.0636 97.1223 73.8874 97.9429 74.9014 97.9429H97.0931C97.2726 97.9429 97.4174 98.0872 97.4174 98.266V112.246C97.4174 112.662 97.7569 113 98.1742 113Z" fill="#533E29"/>
</svg>
