<svg width="92" height="105" viewBox="0 0 92 105" fill="none" xmlns="http://www.w3.org/2000/svg">
    <path d="M62.027 19.4573C62.027 19.4573 58.2912 -1.7784 34.072 0.120391C23.3123 0.962959 22.8048 8.36552 33.9789 7.75466C45.1081 7.14681 56.2342 9.72868 58.4954 19.027L62.027 19.4573Z" fill="#E3E3E3"/>
    <path d="M38.1892 29.8781C38.1892 29.8781 34.4505 8.64238 10.2343 10.5412C-0.52551 11.3837 -1.03302 18.7863 10.1412 18.1754C21.2703 17.5676 32.3964 20.1495 34.6577 29.4478L38.1892 29.8781Z" fill="#F5F5F5"/>
    <g style="mix-blend-mode:multiply">
        <path d="M92 98.9687C92 101.737 79.958 103.991 65.0991 104.003C50.2432 104.015 38.1982 101.779 38.1952 99.0108C38.1952 96.2424 50.2372 93.9885 65.0931 93.9795C79.9489 93.9674 91.997 96.2033 91.997 98.9717L92 98.9687Z" fill="#F2F2F2"/>
    </g>
    <path d="M91.8289 76.7008C90.5796 72.5933 86.2673 79.1744 86.2673 79.1744C86.2673 79.1744 87.4745 73.6676 86.0511 71.8169C84.6877 70.0445 81.3214 72.4579 80.4295 73.0657L43.8168 81.1333L45.2463 87.0163L41.0331 86.5198C41.0331 86.5198 37.958 93.0316 41.2283 93.4529C44.4985 93.8742 42.3244 89.0896 42.3244 89.0896C42.3244 89.0896 45.4415 90.8229 47.6937 90.1609C49.4505 89.6463 48.0541 84.5638 47.8138 82.99C71.8709 81.5155 83.0871 74.9856 83.4205 74.7358C83.4205 74.7358 84.0211 80.6639 84.6577 83.6219C84.6577 83.6219 93.0811 80.8053 91.8319 76.6978L91.8289 76.7008Z" fill="#242424"/>
    <path d="M76.2012 48.234C76.2012 48.234 70.6457 11.161 48.4805 16.1111C27.2523 20.8536 31.3484 41.3129 35.6096 56.6146C70.0991 57.1773 76.2012 48.231 76.2012 48.231V48.234Z" fill="#F5F5F5"/>
    <path d="M76.2012 48.234L80.4264 73.0657C80.4264 73.0657 65.7898 79.3007 43.8138 81.1333L35.6096 56.6176C35.6096 56.6176 63.4264 55.4199 76.2012 48.234Z" fill="#242424"/>
    <path d="M24.6877 94.1149C24.6877 93.1218 23.9249 92.3094 22.9549 92.2281C22.7537 91.3976 22.009 90.7807 21.1201 90.7807C20.2312 90.7807 19.4564 91.4187 19.2733 92.2733C18.4354 92.4689 17.8108 93.2181 17.8108 94.1179C17.8108 95.132 18.6096 95.9595 19.6096 96.0076C19.8949 96.6937 20.5675 97.1782 21.3573 97.1782C22.1471 97.1782 22.8348 96.6847 23.1141 95.9836C24.009 95.8331 24.6907 95.0567 24.6907 94.1179L24.6877 94.1149Z" fill="#C2D6CD"/>
    <path d="M10.2853 89.1136C10.2853 87.5669 9.12012 86.291 7.62162 86.1225C7.12913 85.1355 6.11411 84.4584 4.93694 84.4584C3.58859 84.4584 2.44745 85.3491 2.06607 86.5769C0.867868 86.9711 0 88.1025 0 89.4356C0 90.9913 1.17718 92.2702 2.68769 92.4297C3.2012 93.3505 4.18318 93.9764 5.31231 93.9764C6.60961 93.9764 7.70871 93.1519 8.13213 91.9994C9.37838 91.6323 10.2883 90.4798 10.2883 89.1136H10.2853Z" fill="#C2D6CD"/>
    <path d="M67.9429 67.0775L71.7267 50.3074C67.0871 52.1008 61.5045 53.4038 56.1261 54.3397L67.9459 67.0775H67.9429Z" fill="#F5F5F5"/>
    <path d="M56.1232 54.3367L55.0631 58.6909L59.6036 60.7071L59.0841 63.0061L67.943 67.0775L56.1232 54.3367Z" fill="#484848"/>
    <path d="M71.7268 50.3074L74.0721 54.3367L71.6006 57.8574L72.5766 59.4523L67.943 67.0775L71.7268 50.3074Z" fill="#484848"/>
    <path d="M86.5856 33.8803C86.5856 33.8803 86.3063 32.9535 85.9099 33.0979C85.5556 33.2273 85.6276 33.6817 85.6607 33.9525C85.5976 33.6817 85.4264 33.2273 84.976 33.3417C84.4565 33.4741 84.5225 34.1572 84.5616 34.3979H84.5556C84.4925 34.1812 84.2823 33.6095 83.8438 33.7268C83.4084 33.8442 83.5135 34.4551 83.5736 34.6898C83.4985 34.44 83.2553 33.7991 82.7327 33.9616C82.3423 34.0849 82.6757 34.9546 82.6757 34.9546C83.1982 36.0529 83.6186 37.055 83.955 37.9728L87.7117 36.745C87.2012 35.2946 86.7087 34.2294 86.5856 33.8833V33.8803Z" fill="#F5F5F5"/>
    <path d="M83.7237 38.036C88.6967 51.6886 76.2012 48.535 76.2012 48.535L76.8408 53.0909C92.2913 53.8041 89.985 42.4836 87.9369 36.6638L83.7237 38.039V38.036Z" fill="#242424"/>
    <path d="M69.3544 69.0485C69.3544 69.5781 68.925 70.0084 68.3964 70.0084C67.8679 70.0084 67.4385 69.5781 67.4385 69.0485C67.4385 68.5189 67.8679 68.0886 68.3964 68.0886C68.925 68.0886 69.3544 68.5189 69.3544 69.0485Z" fill="#484848"/>
    <path d="M69.3543 73.478C69.8834 73.478 70.3123 73.0482 70.3123 72.518C70.3123 71.9879 69.8834 71.5581 69.3543 71.5581C68.8253 71.5581 68.3964 71.9879 68.3964 72.518C68.3964 73.0482 68.8253 73.478 69.3543 73.478Z" fill="#484848"/>
    <path d="M62.2343 55.2785L62.6697 54.0568L66.0961 53.121L67.1291 54.0057L66.4565 56.1362L69.3544 60.8214L67.943 67.0775L63.4565 62.2448L63.961 56.7079L62.2343 55.2785Z" fill="#242424"/>
    <path d="M87.5255 38.2948C87.3033 38.2857 87.1291 38.0992 87.1382 37.8765C87.1472 37.6538 87.3333 37.4793 87.5556 37.4883C87.7778 37.4973 87.952 37.6839 87.943 37.9066C87.9339 38.1293 87.7478 38.3038 87.5255 38.2948Z" fill="#484848"/>
    <path d="M87.8709 39.7662C87.6486 39.7572 87.4745 39.5706 87.4835 39.3479C87.4925 39.1252 87.6787 38.9507 87.9009 38.9597C88.1231 38.9688 88.2973 39.1553 88.2883 39.378C88.2793 39.6007 88.0931 39.7752 87.8709 39.7662Z" fill="#484848"/>
    <path d="M54.1952 41.4604C54.9069 44.2921 57.7718 46.0073 60.5946 45.2971C63.4204 44.584 65.1321 41.7132 64.4234 38.8846L54.1952 41.4634V41.4604Z" fill="#EB7D86"/>
    <path d="M50.7297 37.0971C50.964 38.027 50.3994 38.9688 49.4745 39.2005C48.5465 39.4353 47.6066 38.8695 47.3754 37.9427C47.1411 37.0129 47.7057 36.071 48.6306 35.8393C49.5586 35.6046 50.4985 36.1703 50.7297 37.0971Z" fill="#484848"/>
    <path d="M68.6637 32.5773C68.8979 33.5072 68.3334 34.4491 67.4084 34.6808C66.4805 34.9155 65.5406 34.3497 65.3093 33.4229C65.0751 32.4931 65.6397 31.5512 66.5646 31.3195C67.4925 31.0848 68.4325 31.6505 68.6637 32.5773Z" fill="#484848"/>
    <path d="M29.5376 77.2876C29.5376 77.2876 29.982 78.1452 30.3454 77.9346C30.6697 77.745 30.5165 77.3087 30.4325 77.0499C30.5436 77.3056 30.7958 77.7209 31.2162 77.5253C31.7027 77.2996 31.5135 76.6406 31.4325 76.4119H31.4385C31.5406 76.6135 31.8529 77.1371 32.2613 76.9415C32.6667 76.7459 32.4505 76.1652 32.3514 75.9455C32.4715 76.1772 32.8289 76.764 33.3093 76.5082C33.6697 76.3156 33.1832 75.5212 33.1832 75.5212C32.4685 74.5372 31.8709 73.6314 31.3754 72.7889L27.9039 74.6847C28.6697 76.0147 29.3484 76.9746 29.5346 77.2906L29.5376 77.2876Z" fill="#F5F5F5"/>
    <path d="M31.5916 72.6776C24.2103 60.1654 37.0691 60.9779 37.0691 60.9779L35.6097 56.6176C20.2883 58.7481 24.6217 69.4547 27.6998 74.802L31.5916 72.6776Z" fill="#242424"/>
    <path d="M27.8109 73.1229C28.0301 73.0898 28.2373 73.2433 28.2673 73.4629C28.2973 73.6826 28.1472 73.8902 27.928 73.9203C27.7088 73.9534 27.5016 73.8 27.4715 73.5803C27.4385 73.3606 27.5916 73.153 27.8109 73.1229Z" fill="#484848"/>
    <path d="M27.1982 71.7387C27.4174 71.7056 27.6246 71.8591 27.6546 72.0787C27.6847 72.2984 27.5345 72.506 27.3153 72.5361C27.0961 72.5692 26.8889 72.4157 26.8589 72.1961C26.8258 71.9764 26.979 71.7688 27.1982 71.7387Z" fill="#484848"/>
</svg>
