<svg width="48" height="52" viewBox="0 0 48 52" fill="none" xmlns="http://www.w3.org/2000/svg">
    <path d="M2.21926 1C16.4204 1 30.6238 1 44.8249 1C44.3518 1.88261 43.9333 2.80215 43.3904 3.63911C42.3156 5.29346 40.9923 6.7413 39.4728 8.01087C37.4235 9.72391 35.1322 11.0043 32.6164 11.8891C30.6325 12.5869 28.5876 13.0174 26.4969 13.2239C26.2047 13.2522 26.0979 13.3565 26.1088 13.6587C26.1306 14.3304 26.135 15.0065 26.1088 15.6783C26.0935 16.05 26.1982 16.1739 26.5884 16.1696C28.9865 16.1522 31.3846 16.15 33.7827 16.1696C34.4128 16.1739 35.0516 16.213 35.6729 16.3217C37.0311 16.5565 38.0841 17.263 38.7904 18.4674C39.3834 19.4804 39.6058 20.6174 39.9066 21.7282C40.8244 25.1065 41.7314 28.4891 42.6405 31.8696C43.5757 35.3435 44.5088 38.8174 45.4397 42.2935C45.9128 44.0565 46.4055 45.8152 46.8393 47.5891C47.3037 49.4848 46.4295 50.687 44.4739 50.8391C43.4733 50.9174 42.4639 50.887 41.4589 50.8891C41.1907 50.8891 6.36578 50.8848 6.05839 50.8848C5.10787 50.8848 4.15519 50.8891 3.20684 50.8196C1.71567 50.7109 0.786961 49.5522 1.04203 48.0957C1.2208 47.0696 1.48454 46.0565 1.75488 45.05C3.00189 40.3935 4.26635 35.7413 5.52426 31.087C6.50095 27.4674 7.47113 23.8435 8.45217 20.2261C8.78137 19.013 9.29587 17.9065 10.3576 17.1326C11.2492 16.4804 12.2673 16.2065 13.3421 16.1913C15.81 16.1587 18.2778 16.1717 20.7457 16.1652C20.9049 16.1652 21.0662 16.1652 21.234 16.1652V13.3587C21.1032 13.3413 20.9833 13.3239 20.8634 13.3108C19.8388 13.1913 18.8054 13.113 17.7873 12.9478C14.1509 12.3609 10.8176 11.0522 7.89843 8.76304C5.92326 7.21304 4.30777 5.36302 3.12835 3.15215C2.76427 2.46954 2.52012 1.72174 2.22144 1.00218L2.21926 1ZM23.9658 19.1022C15.9669 19.1348 9.4659 25.6109 9.51604 33.5435C9.56618 41.5435 15.9713 47.9391 24.0137 47.937C32.006 47.9348 38.4939 41.387 38.4438 33.4739C38.3915 25.5217 31.8948 19.0717 23.9658 19.1043V19.1022Z" fill="#E45B47" stroke="black" stroke-width="1.5"/>
    <path d="M38.1526 36.787C39.9867 29.0374 35.1735 21.2725 27.4019 19.4434C19.6304 17.6144 11.8433 22.4139 10.009 30.1635C8.17477 37.9131 12.9879 45.6781 20.7595 47.5072C28.5312 49.3361 36.3183 44.5365 38.1526 36.787Z" fill="#C8E7D8" stroke="black" stroke-width="1.5"/>
    <path d="M31.4665 27.9892L32.1554 27.9457L31.8173 28.5131C31.8173 28.5131 30.1735 29.7174 29.3625 30.3022C28.3945 31.0022 27.4268 31.7044 26.4501 32.3935C26.2364 32.5435 26.195 32.6848 26.2691 32.9392C26.6572 34.2565 25.8789 35.5392 24.5447 35.8152C23.2715 36.0805 21.9917 35.1783 21.8238 33.8652C21.7039 32.9218 22.0767 32.1544 22.8593 31.6392C23.6201 31.137 24.4466 31.1174 25.2336 31.6131C25.4756 31.7652 25.6236 31.7 25.822 31.5718C27.5879 30.4326 31.4643 27.987 31.4643 27.987L31.4665 27.9892ZM23.5133 33.2652C23.3454 33.5913 23.4719 33.9631 23.8054 34.1326C24.1411 34.3022 24.512 34.187 24.6799 33.8609C24.839 33.55 24.708 33.1392 24.3984 32.9783C24.0975 32.8218 23.6659 32.9631 23.5111 33.2652H23.5133Z" fill="black"/>
    <path d="M24.608 20.1653H23.5942V22.9544H24.608V20.1653Z" fill="black"/>
    <path d="M37.5444 34.0761V33.0652H34.7473V34.0761H37.5444Z" fill="black"/>
    <path d="M23.4944 46.9344L24.5081 46.9446L24.5365 44.1557L23.5227 44.1454L23.4944 46.9344Z" fill="black"/>
    <path d="M10.6311 32.9591L10.6267 33.97L13.4237 33.9822L13.4282 32.9713L10.6311 32.9591Z" fill="black"/>
</svg>
